G04 ================== begin FILE IDENTIFICATION RECORD ==================*
G04 Layout Name:  d:/project/07_foc/foc/circuit/candence/stm32/stspin32g4_foc.brd*
G04 Film Name:    adt*
G04 File Format:  Gerber RS274X*
G04 File Origin:  Cadence Allegro 17.4-S039*
G04 Origin Date:  Thu Dec 11 19:06:32 2025*
G04 *
G04 Layer:  BOARD GEOMETRY/SILKSCREEN_TOP*
G04 Layer:  REF DES/SILKSCREEN_TOP*
G04 Layer:  PIN/TOP*
G04 Layer:  BOARD GEOMETRY/OUTLINE*
G04 *
G04 Offset:    (0.0000 0.0000)*
G04 Mirror:    No*
G04 Mode:      Positive*
G04 Rotation:  0*
G04 FullContactRelief:  No*
G04 UndefLineWidth:     0.1524*
G04 ================== end FILE IDENTIFICATION RECORD ====================*
%FSLAX25Y25*MOIN*%
%IR0*IPPOS*OFA0.00000B0.00000*MIA0B0*SFA1.00000B1.00000*%
%ADD25R,.031496X.03937*%
%ADD12R,.0395X.018*%
%ADD20R,.023228X.054724*%
%ADD31R,.043307X.03937*%
%AMMACRO13*
21,1,.043307,.03937,0.0,0.0,.15*%
%ADD13MACRO13*%
%ADD10R,.051181X.059055*%
%ADD22R,.011811X.019685*%
%ADD19R,.015748X.019685*%
%ADD17R,.027559X.015748*%
%ADD26R,.062992X.106299*%
%ADD15R,.015748X.027559*%
%ADD14R,.100394X.098819*%
%ADD16R,.098819X.100394*%
%ADD28C,.04*%
%ADD11R,.025591X.023622*%
%ADD21R,.023622X.025591*%
%AMMACRO30*
21,1,.023622,.025591,0.0,0.0,.15*%
%ADD30MACRO30*%
%ADD18R,.059055X.059055*%
%ADD29R,.04724X.055118*%
%ADD24R,.032X.01*%
%ADD23R,.01X.032*%
%ADD27R,.161X.161*%
%ADD32C,.005*%
%ADD33C,.006*%
G75*
%LPD*%
G75*
G54D10*
X-57480Y-18996D03*
X-50000D03*
X-57480Y-10039D03*
X-50000D03*
X-57480Y-1083D03*
X-50000D03*
X-57480Y7874D03*
X-50000D03*
X-57480Y16831D03*
X-50000D03*
X-57480Y25787D03*
X-50000D03*
X-3445Y-43898D03*
X4035D03*
X19094Y-65945D03*
Y-56988D03*
X26575Y-65945D03*
Y-56988D03*
G54D11*
X-37008Y-51083D03*
Y-47146D03*
X-33465Y-51083D03*
Y-47146D03*
X-39862Y-31496D03*
Y-27559D03*
X-41929Y34449D03*
Y30512D03*
X-22835Y-51280D03*
Y-47343D03*
X-15945Y-31299D03*
Y-27362D03*
X-20669Y34449D03*
Y30512D03*
X-23228Y22441D03*
Y26378D03*
X-20472Y49213D03*
Y45276D03*
X984Y34449D03*
Y30512D03*
X-1870Y22441D03*
Y26378D03*
X689Y49213D03*
Y45276D03*
X19390Y22441D03*
Y26378D03*
X26870Y23425D03*
Y27362D03*
X23327Y23425D03*
Y27362D03*
X33957Y23425D03*
Y27362D03*
X30413D03*
Y23425D03*
X22244Y49213D03*
Y45276D03*
X51870Y23425D03*
Y27362D03*
X44783Y23425D03*
Y27362D03*
X48327Y23425D03*
Y27362D03*
X55413D03*
Y23425D03*
G54D20*
X-26575Y-65610D03*
X-19094D03*
X-22835Y-56437D03*
G54D30*
X35335Y39375D03*
X31398Y39365D03*
Y44286D03*
X35335Y44296D03*
X56594Y-13785D03*
X60531Y-13774D03*
G54D21*
X-30118Y-50984D03*
X-26181D03*
X-19390D03*
X-15453D03*
X-26181Y-47343D03*
X-30118D03*
X-15453D03*
X-19390D03*
X-15846Y-16240D03*
X-19783D03*
X-15846Y-21063D03*
X-19783D03*
X-15846Y-6299D03*
X-19783D03*
X-15846Y-1378D03*
X-19783D03*
X-15846Y-11220D03*
X-19783D03*
X-15846Y3543D03*
X-19783D03*
X4134Y-36319D03*
X8071D03*
X29823Y-34350D03*
X25886D03*
X37992Y-33563D03*
Y-29921D03*
X38681Y-5807D03*
X34646Y5610D03*
X38583D03*
X34613Y13583D03*
X38550D03*
X38616Y9547D03*
X34679D03*
X37402Y23524D03*
Y27264D03*
X31398Y49114D03*
X35335D03*
X41929Y-33563D03*
Y-29921D03*
X41437Y-25591D03*
X45374D03*
X56594Y-6102D03*
X42618Y-5807D03*
X56594Y-9547D03*
X46293Y9547D03*
X42356D03*
X50033D03*
X53970D03*
X50000Y5610D03*
X53937D03*
X49967Y13583D03*
X53904D03*
X46260Y5610D03*
X42323D03*
X42290Y13583D03*
X46227D03*
X41339Y23524D03*
Y27264D03*
X60531Y-6102D03*
Y-9547D03*
X61614Y5610D03*
X57677D03*
X61647Y9547D03*
X57710D03*
X57644Y13583D03*
X61581D03*
X62894Y23130D03*
X58957D03*
Y27264D03*
X62894D03*
G54D12*
X-33276Y-35236D03*
Y-32677D03*
Y-30118D03*
Y-27559D03*
X-22826Y-35236D03*
Y-27559D03*
Y-30118D03*
Y-32677D03*
G54D22*
X-21752Y-44587D03*
X-23917D03*
Y-39862D03*
X-21752D03*
G54D13*
X-34606Y-19696D03*
X-41298Y-19713D03*
X-34626Y-12058D03*
X-41319Y-12076D03*
X-34646Y-4420D03*
X-41339Y-4438D03*
X-34666Y3218D03*
X-41359Y3200D03*
X-34686Y10855D03*
X-41379Y10838D03*
G54D31*
X29429Y54921D03*
X22736D03*
X52461Y98D03*
X59154D03*
G54D32*
G01X9812Y-51281D02*
X12812D01*
Y-52047D01*
X12662Y-52354D01*
X12462Y-52584D01*
X12162Y-52776D01*
X11812Y-52929D01*
X11312Y-52967D01*
X10812Y-52929D01*
X10462Y-52776D01*
X10162Y-52584D01*
X9962Y-52354D01*
X9812Y-52047D01*
Y-51281D01*
G01Y-55147D02*
X10462Y-55224D01*
X11012Y-55339D01*
X11512Y-55493D01*
X12062Y-55684D01*
X12812Y-55991D01*
Y-54457D01*
G54D23*
X883Y-29213D03*
X-1085D03*
X-3054D03*
X-5023D03*
Y5787D03*
X-3054D03*
X-1085D03*
X883D03*
X18605Y-29213D03*
X16635D03*
X14667D03*
X12698D03*
X10729D03*
X8759D03*
X6791D03*
X4822D03*
X2853D03*
Y5787D03*
X4822D03*
X6791D03*
X8759D03*
X10729D03*
X12698D03*
X14667D03*
X16635D03*
X18605D03*
X24511Y-29213D03*
X22543D03*
X20574D03*
Y5787D03*
X22543D03*
X24511D03*
G54D14*
X-32480Y23680D03*
X-11319D03*
X10138Y23876D03*
G54D33*
G01X-32309Y-74409D02*
Y-65780D01*
G02X-41422Y-60424I35194J70308D01*
G02X-41911Y-56930I1352J1970D01*
G03X-44255Y-41572I-8016J6634D01*
G02X-47928Y-33343I4518J6951D01*
G03X-59739Y-26210I-7367J1146D01*
G02X-69257Y-23774I-3772J5075D01*
G02X-61807Y39263I69263J23772D01*
G02X-60430Y41408I24534J-14239D01*
G02X-56937Y41911I1976J-1345D01*
G03X-39893Y49971I6640J8009D01*
G01X-39902Y50423D01*
G02X-30900Y59899I9469J19D01*
G01X-6904Y59987D01*
X-6899D01*
G02X-6389Y59761I9J-665D01*
G03X5936Y59804I6148J4212D01*
G02X6451Y60037I513J-447D01*
G01X6456D01*
X30449Y60125D01*
G02X39516Y50279I-400J-9466D01*
G03X56612Y42322I10405J11D01*
G02X59707Y42307I1539J-1832D01*
G02X70055Y21396I-59696J-42557D01*
G02X69670Y-22618I-70055J-21396D01*
G02X59918Y-25769I-6015J1951D01*
G03X48160Y-32989I-4400J-6019D01*
G02X44552Y-41246I-8188J-1339D01*
G03X42321Y-56620I5737J-8681D01*
G02X41857Y-60118I-1831J-1537D01*
G02X32309Y-65746I-42097J60499D01*
G01Y-74409D01*
X-32309D01*
G01X-63783Y-250D02*
G03I-3149J0D01*
G01X-41911Y-56930D02*
G03X-44255Y-41572I-8016J6635D01*
G01X-41911Y-56930D02*
G03X-41422Y-60424I1841J-1523D01*
G01X-47928Y-33343D02*
G03X-44255Y-41572I8191J-1279D01*
G01X-29980Y30223D02*
X-33564D01*
X-34314Y29970D01*
X-34814Y29463D01*
X-34980Y28830D01*
X-34814Y28196D01*
X-34314Y27689D01*
X-33564Y27436D01*
X-29980D01*
G01X-34980Y23730D02*
X-29980D01*
X-30980Y24489D01*
G01X-34980D02*
Y22970D01*
G01X-27826Y-43150D02*
Y-40650D01*
X-28893D01*
G01X-29972Y-41150D02*
X-30132Y-40858D01*
X-30346Y-40691D01*
X-30586Y-40650D01*
X-30799Y-40691D01*
X-31013Y-40900D01*
X-31146Y-41150D01*
X-31172Y-41400D01*
X-31119Y-41691D01*
X-30932Y-41900D01*
X-30746Y-41983D01*
X-30506D01*
G01X-30746D02*
X-30906Y-42108D01*
X-31039Y-42316D01*
X-31093Y-42566D01*
X-31039Y-42816D01*
X-30906Y-43024D01*
X-30666Y-43150D01*
X-30426Y-43108D01*
X-30186Y-42941D01*
G01X-24108Y-33898D02*
Y-30314D01*
X-24361Y-29564D01*
X-24868Y-29064D01*
X-25501Y-28898D01*
X-26135Y-29064D01*
X-26641Y-29564D01*
X-26894Y-30314D01*
Y-33898D01*
G01X-30474Y-28898D02*
X-30601Y-29981D01*
X-30791Y-30898D01*
X-31044Y-31731D01*
X-31361Y-32648D01*
X-31868Y-33898D01*
X-29335D01*
G01X-8819Y30223D02*
X-12402D01*
X-13152Y29970D01*
X-13652Y29463D01*
X-13819Y28830D01*
X-13652Y28196D01*
X-13152Y27689D01*
X-12402Y27436D01*
X-8819D01*
G01X-9652Y24933D02*
X-9152Y24553D01*
X-8902Y24109D01*
X-8819Y23603D01*
X-8985Y22970D01*
X-9402Y22526D01*
X-9902Y22400D01*
X-10402Y22463D01*
X-10819Y22716D01*
X-11652Y23983D01*
X-12235Y24553D01*
X-13069Y24933D01*
X-13819Y25059D01*
Y22400D01*
G01X16237Y-14213D02*
Y-10629D01*
X15984Y-9879D01*
X15478Y-9379D01*
X14844Y-9213D01*
X14211Y-9379D01*
X13704Y-9879D01*
X13451Y-10629D01*
Y-14213D01*
G01X9744Y-9213D02*
Y-14213D01*
X10504Y-13213D01*
G01Y-9213D02*
X8984D01*
G01X4644Y-14213D02*
X5151Y-14046D01*
X5531Y-13629D01*
X5784Y-13130D01*
X5974Y-12463D01*
X6037Y-11713D01*
X5974Y-10963D01*
X5784Y-10296D01*
X5531Y-9796D01*
X5151Y-9379D01*
X4644Y-9213D01*
X4137Y-9379D01*
X3757Y-9796D01*
X3504Y-10296D01*
X3314Y-10963D01*
X3251Y-11713D01*
X3314Y-12463D01*
X3504Y-13130D01*
X3757Y-13629D01*
X4137Y-14046D01*
X4644Y-14213D01*
G01X12638Y30420D02*
X9054D01*
X8304Y30167D01*
X7804Y29660D01*
X7638Y29026D01*
X7804Y28393D01*
X8304Y27886D01*
X9054Y27633D01*
X12638D01*
G01X8638Y25320D02*
X8054Y24940D01*
X7721Y24433D01*
X7638Y23863D01*
X7721Y23356D01*
X8138Y22850D01*
X8638Y22533D01*
X9138Y22470D01*
X9721Y22596D01*
X10138Y23040D01*
X10304Y23483D01*
Y24053D01*
G01Y23483D02*
X10554Y23103D01*
X10971Y22786D01*
X11471Y22660D01*
X11971Y22786D01*
X12388Y23103D01*
X12638Y23673D01*
X12554Y24243D01*
X12221Y24813D01*
G01X44552Y-41246D02*
G03X42321Y-56620I5737J-8681D01*
G01X44552Y-41246D02*
G03X48160Y-32989I-4579J6918D01*
G01X44912Y-34972D02*
X45046Y-35222D01*
X45206Y-35389D01*
X45393Y-35472D01*
X45606Y-35389D01*
X45766Y-35222D01*
X45926Y-34972D01*
X45979Y-34639D01*
Y-32972D01*
G01X47059Y-34972D02*
X47219Y-35264D01*
X47432Y-35431D01*
X47672Y-35472D01*
X47886Y-35431D01*
X48099Y-35222D01*
X48232Y-34972D01*
X48259Y-34722D01*
X48206Y-34431D01*
X48019Y-34222D01*
X47832Y-34139D01*
X47593D01*
G01X47832D02*
X47993Y-34014D01*
X48126Y-33806D01*
X48179Y-33556D01*
X48126Y-33306D01*
X47993Y-33098D01*
X47752Y-32972D01*
X47512Y-33014D01*
X47272Y-33181D01*
G01X70074Y243D02*
G03I-3150J0D01*
G54D24*
X-7756Y-26480D03*
Y-24511D03*
Y-22542D03*
Y-20573D03*
Y-18604D03*
Y-16635D03*
Y-14666D03*
Y-12697D03*
Y-10728D03*
Y-8759D03*
Y-6790D03*
Y-4821D03*
Y-2852D03*
Y-883D03*
Y1086D03*
Y3055D03*
X27244Y-16635D03*
Y-18604D03*
Y-20573D03*
Y-22542D03*
Y-24511D03*
Y-26480D03*
Y1086D03*
Y-883D03*
Y-2852D03*
Y-4821D03*
Y-6790D03*
Y-8759D03*
Y-10728D03*
Y-12697D03*
Y-14666D03*
Y3055D03*
G54D15*
X-33760Y20177D03*
X-36319D03*
Y32382D03*
X-33760D03*
X-28642Y20177D03*
X-31201D03*
Y32382D03*
X-28642D03*
X-7480Y20177D03*
X-10039D03*
X-12598D03*
X-15157D03*
Y32382D03*
X-12598D03*
X-10039D03*
X-7480D03*
X13976Y20374D03*
X11417D03*
X8858D03*
X6299D03*
Y32579D03*
X8858D03*
X11417D03*
X13976D03*
G54D16*
X-32915Y41437D03*
X-11754D03*
X9605D03*
G54D25*
X5512Y-51476D03*
Y-64272D03*
G54D26*
X15846Y-44488D03*
X26870D03*
G54D17*
X-36417Y37598D03*
Y40157D03*
Y42717D03*
Y45276D03*
X-15256Y37598D03*
X-24213D03*
X-15256Y40157D03*
Y42717D03*
Y45276D03*
X-24213D03*
Y42717D03*
Y40157D03*
X-3051Y37598D03*
Y45276D03*
Y42717D03*
Y40157D03*
X6102Y37598D03*
X18307D03*
X6102Y40157D03*
Y42717D03*
Y45276D03*
X18307D03*
Y42717D03*
Y40157D03*
G54D27*
X9744Y-11713D03*
G54D18*
X-31594Y54232D03*
X-10925D03*
X9744D03*
G54D28*
X34646Y-52854D03*
Y-38091D03*
Y-43012D03*
Y-47933D03*
G54D19*
X-21555Y-71555D03*
X-25689D03*
X-14961D03*
X-10827D03*
G54D29*
X38681Y-19980D03*
Y-11319D03*
X45374Y-19980D03*
Y-11319D03*
M02*
