G04 ================== begin FILE IDENTIFICATION RECORD ==================*
G04 Layout Name:  d:/project/07_foc/foc/circuit/candence/stm32/stspin32g4_foc.brd*
G04 Film Name:    pasttop*
G04 File Format:  Gerber RS274X*
G04 File Origin:  Cadence Allegro 17.4-S039*
G04 Origin Date:  Thu Dec 11 19:06:32 2025*
G04 *
G04 Layer:  PIN/PASTEMASK_TOP*
G04 Layer:  PACKAGE GEOMETRY/PASTEMASK_TOP*
G04 Layer:  BOARD GEOMETRY/OUTLINE*
G04 *
G04 Offset:    (0.0000 0.0000)*
G04 Mirror:    No*
G04 Mode:      Positive*
G04 Rotation:  0*
G04 FullContactRelief:  No*
G04 UndefLineWidth:     0.1524*
G04 ================== end FILE IDENTIFICATION RECORD ====================*
%FSLAX25Y25*MOIN*%
%IR0*IPPOS*OFA0.00000B0.00000*MIA0B0*SFA1.00000B1.00000*%
%ADD24R,.031496X.03937*%
%ADD12R,.0395X.018*%
%ADD19R,.023228X.054724*%
%ADD28R,.043307X.03937*%
%AMMACRO13*
21,1,.043307,.03937,0.0,0.0,.15*%
%ADD13MACRO13*%
%ADD10R,.051181X.059055*%
%ADD21R,.011811X.019685*%
%ADD16R,.023622X.011811*%
%ADD15R,.011811X.023622*%
%ADD25R,.062992X.106299*%
%ADD18R,.019685X.023622*%
%ADD11R,.025591X.023622*%
%ADD20R,.023622X.025591*%
%AMMACRO27*
21,1,.023622,.025591,0.0,0.0,.15*%
%ADD27MACRO27*%
%ADD17R,.062992X.062992*%
%ADD26R,.04724X.055118*%
%ADD23R,.032X.01*%
%ADD22R,.01X.032*%
%ADD14R,.001X.001*%
%ADD29C,.006*%
G75*
%LPD*%
G75*
G36*
G01X-37109Y24921D02*
X-33069D01*
X-33030Y24918D01*
X-32994Y24907D01*
X-32960Y24889D01*
X-32931Y24864D01*
X-32907Y24835D01*
X-32889Y24801D01*
X-32878Y24765D01*
X-32874Y24727D01*
Y22340D01*
X-32878Y22302D01*
X-32889Y22266D01*
X-32907Y22232D01*
X-32931Y22202D01*
X-32960Y22178D01*
X-32994Y22160D01*
X-33030Y22150D01*
X-33069Y22146D01*
X-37109D01*
X-37147Y22150D01*
X-37183Y22160D01*
X-37217Y22178D01*
X-37246Y22202D01*
X-37270Y22232D01*
X-37288Y22266D01*
X-37300Y22302D01*
X-37303Y22340D01*
Y24727D01*
X-37300Y24765D01*
X-37288Y24801D01*
X-37270Y24835D01*
X-37246Y24864D01*
X-37217Y24889D01*
X-37183Y24907D01*
X-37147Y24918D01*
X-37109Y24921D01*
G37*
G36*
G01X-33069Y25709D02*
X-37109D01*
X-37147Y25713D01*
X-37183Y25724D01*
X-37217Y25741D01*
X-37246Y25765D01*
X-37270Y25795D01*
X-37288Y25829D01*
X-37300Y25865D01*
X-37303Y25903D01*
Y28290D01*
X-37300Y28328D01*
X-37288Y28364D01*
X-37270Y28398D01*
X-37246Y28427D01*
X-37217Y28452D01*
X-37183Y28469D01*
X-37147Y28481D01*
X-37109Y28484D01*
X-33069D01*
X-33030Y28481D01*
X-32994Y28469D01*
X-32960Y28452D01*
X-32931Y28427D01*
X-32907Y28398D01*
X-32889Y28364D01*
X-32878Y28328D01*
X-32874Y28290D01*
Y25903D01*
X-32878Y25865D01*
X-32889Y25829D01*
X-32907Y25795D01*
X-32931Y25765D01*
X-32960Y25741D01*
X-32994Y25724D01*
X-33030Y25713D01*
X-33069Y25709D01*
G37*
G36*
G01X-31673Y40849D02*
Y36809D01*
X-31677Y36770D01*
X-31688Y36734D01*
X-31706Y36700D01*
X-31730Y36671D01*
X-31759Y36647D01*
X-31793Y36629D01*
X-31830Y36618D01*
X-31868Y36614D01*
X-34255D01*
X-34293Y36618D01*
X-34329Y36629D01*
X-34363Y36647D01*
X-34392Y36671D01*
X-34416Y36700D01*
X-34434Y36734D01*
X-34445Y36770D01*
X-34449Y36809D01*
Y40849D01*
X-34445Y40887D01*
X-34434Y40923D01*
X-34416Y40957D01*
X-34392Y40986D01*
X-34363Y41011D01*
X-34329Y41028D01*
X-34293Y41040D01*
X-34255Y41043D01*
X-31868D01*
X-31830Y41040D01*
X-31793Y41028D01*
X-31759Y41011D01*
X-31730Y40986D01*
X-31706Y40957D01*
X-31688Y40923D01*
X-31677Y40887D01*
X-31673Y40849D01*
G37*
G36*
G01Y46065D02*
Y42025D01*
X-31677Y41987D01*
X-31688Y41951D01*
X-31706Y41917D01*
X-31730Y41888D01*
X-31759Y41863D01*
X-31793Y41846D01*
X-31830Y41834D01*
X-31868Y41831D01*
X-34255D01*
X-34293Y41834D01*
X-34329Y41846D01*
X-34363Y41863D01*
X-34392Y41888D01*
X-34416Y41917D01*
X-34434Y41951D01*
X-34445Y41987D01*
X-34449Y42025D01*
Y46065D01*
X-34445Y46104D01*
X-34434Y46140D01*
X-34416Y46174D01*
X-34392Y46203D01*
X-34363Y46227D01*
X-34329Y46245D01*
X-34293Y46256D01*
X-34255Y46260D01*
X-31868D01*
X-31830Y46256D01*
X-31793Y46245D01*
X-31759Y46227D01*
X-31730Y46203D01*
X-31706Y46174D01*
X-31688Y46140D01*
X-31677Y46104D01*
X-31673Y46065D01*
G37*
G36*
G01X-31892Y24921D02*
X-27852D01*
X-27814Y24918D01*
X-27778Y24907D01*
X-27744Y24889D01*
X-27715Y24864D01*
X-27690Y24835D01*
X-27672Y24801D01*
X-27661Y24765D01*
X-27657Y24727D01*
Y22340D01*
X-27661Y22302D01*
X-27672Y22266D01*
X-27690Y22232D01*
X-27715Y22202D01*
X-27744Y22178D01*
X-27778Y22160D01*
X-27814Y22150D01*
X-27852Y22146D01*
X-31892D01*
X-31930Y22150D01*
X-31967Y22160D01*
X-32000Y22178D01*
X-32030Y22202D01*
X-32054Y22232D01*
X-32072Y22266D01*
X-32083Y22302D01*
X-32087Y22340D01*
Y24727D01*
X-32083Y24765D01*
X-32072Y24801D01*
X-32054Y24835D01*
X-32030Y24864D01*
X-32000Y24889D01*
X-31967Y24907D01*
X-31930Y24918D01*
X-31892Y24921D01*
G37*
G36*
G01X-27852Y25709D02*
X-31892D01*
X-31930Y25713D01*
X-31967Y25724D01*
X-32000Y25741D01*
X-32030Y25765D01*
X-32054Y25795D01*
X-32072Y25829D01*
X-32083Y25865D01*
X-32087Y25903D01*
Y28290D01*
X-32083Y28328D01*
X-32072Y28364D01*
X-32054Y28398D01*
X-32030Y28427D01*
X-32000Y28452D01*
X-31967Y28469D01*
X-31930Y28481D01*
X-31892Y28484D01*
X-27852D01*
X-27814Y28481D01*
X-27778Y28469D01*
X-27744Y28452D01*
X-27715Y28427D01*
X-27690Y28398D01*
X-27672Y28364D01*
X-27661Y28328D01*
X-27657Y28290D01*
Y25903D01*
X-27661Y25865D01*
X-27672Y25829D01*
X-27690Y25795D01*
X-27715Y25765D01*
X-27744Y25741D01*
X-27778Y25724D01*
X-27814Y25713D01*
X-27852Y25709D01*
G37*
G36*
G01X-30886Y36809D02*
Y40849D01*
X-30882Y40887D01*
X-30871Y40923D01*
X-30853Y40957D01*
X-30829Y40986D01*
X-30800Y41011D01*
X-30766Y41028D01*
X-30730Y41040D01*
X-30692Y41043D01*
X-28305D01*
X-28267Y41040D01*
X-28230Y41028D01*
X-28196Y41011D01*
X-28167Y40986D01*
X-28143Y40957D01*
X-28125Y40923D01*
X-28114Y40887D01*
X-28110Y40849D01*
Y36809D01*
X-28114Y36770D01*
X-28125Y36734D01*
X-28143Y36700D01*
X-28167Y36671D01*
X-28196Y36647D01*
X-28230Y36629D01*
X-28267Y36618D01*
X-28305Y36614D01*
X-30692D01*
X-30730Y36618D01*
X-30766Y36629D01*
X-30800Y36647D01*
X-30829Y36671D01*
X-30853Y36700D01*
X-30871Y36734D01*
X-30882Y36770D01*
X-30886Y36809D01*
G37*
G36*
G01Y42025D02*
Y46065D01*
X-30882Y46104D01*
X-30871Y46140D01*
X-30853Y46174D01*
X-30829Y46203D01*
X-30800Y46227D01*
X-30766Y46245D01*
X-30730Y46256D01*
X-30692Y46260D01*
X-28305D01*
X-28267Y46256D01*
X-28230Y46245D01*
X-28196Y46227D01*
X-28167Y46203D01*
X-28143Y46174D01*
X-28125Y46140D01*
X-28114Y46104D01*
X-28110Y46065D01*
Y42025D01*
X-28114Y41987D01*
X-28125Y41951D01*
X-28143Y41917D01*
X-28167Y41888D01*
X-28196Y41863D01*
X-28230Y41846D01*
X-28267Y41834D01*
X-28305Y41831D01*
X-30692D01*
X-30730Y41834D01*
X-30766Y41846D01*
X-30800Y41863D01*
X-30829Y41888D01*
X-30853Y41917D01*
X-30871Y41951D01*
X-30882Y41987D01*
X-30886Y42025D01*
G37*
G36*
G01X-10512Y40849D02*
Y36809D01*
X-10515Y36770D01*
X-10526Y36734D01*
X-10544Y36700D01*
X-10569Y36671D01*
X-10598Y36647D01*
X-10632Y36629D01*
X-10668Y36618D01*
X-10706Y36614D01*
X-13093D01*
X-13131Y36618D01*
X-13167Y36629D01*
X-13201Y36647D01*
X-13231Y36671D01*
X-13255Y36700D01*
X-13273Y36734D01*
X-13283Y36770D01*
X-13287Y36809D01*
Y40849D01*
X-13283Y40887D01*
X-13273Y40923D01*
X-13255Y40957D01*
X-13231Y40986D01*
X-13201Y41011D01*
X-13167Y41028D01*
X-13131Y41040D01*
X-13093Y41043D01*
X-10706D01*
X-10668Y41040D01*
X-10632Y41028D01*
X-10598Y41011D01*
X-10569Y40986D01*
X-10544Y40957D01*
X-10526Y40923D01*
X-10515Y40887D01*
X-10512Y40849D01*
G37*
G36*
G01X-9724Y36809D02*
Y40849D01*
X-9720Y40887D01*
X-9709Y40923D01*
X-9692Y40957D01*
X-9668Y40986D01*
X-9638Y41011D01*
X-9604Y41028D01*
X-9568Y41040D01*
X-9530Y41043D01*
X-7143D01*
X-7105Y41040D01*
X-7069Y41028D01*
X-7035Y41011D01*
X-7006Y40986D01*
X-6981Y40957D01*
X-6964Y40923D01*
X-6952Y40887D01*
X-6949Y40849D01*
Y36809D01*
X-6952Y36770D01*
X-6964Y36734D01*
X-6981Y36700D01*
X-7006Y36671D01*
X-7035Y36647D01*
X-7069Y36629D01*
X-7105Y36618D01*
X-7143Y36614D01*
X-9530D01*
X-9568Y36618D01*
X-9604Y36629D01*
X-9638Y36647D01*
X-9668Y36671D01*
X-9692Y36700D01*
X-9709Y36734D01*
X-9720Y36770D01*
X-9724Y36809D01*
G37*
G36*
G01X-10731Y24921D02*
X-6691D01*
X-6652Y24918D01*
X-6616Y24907D01*
X-6582Y24889D01*
X-6553Y24864D01*
X-6529Y24835D01*
X-6511Y24801D01*
X-6500Y24765D01*
X-6496Y24727D01*
Y22340D01*
X-6500Y22302D01*
X-6511Y22266D01*
X-6529Y22232D01*
X-6553Y22202D01*
X-6582Y22178D01*
X-6616Y22160D01*
X-6652Y22150D01*
X-6691Y22146D01*
X-10731D01*
X-10769Y22150D01*
X-10805Y22160D01*
X-10839Y22178D01*
X-10868Y22202D01*
X-10893Y22232D01*
X-10910Y22266D01*
X-10922Y22302D01*
X-10925Y22340D01*
Y24727D01*
X-10922Y24765D01*
X-10910Y24801D01*
X-10893Y24835D01*
X-10868Y24864D01*
X-10839Y24889D01*
X-10805Y24907D01*
X-10769Y24918D01*
X-10731Y24921D01*
G37*
G36*
G01X-15947D02*
X-11907D01*
X-11869Y24918D01*
X-11833Y24907D01*
X-11799Y24889D01*
X-11770Y24864D01*
X-11745Y24835D01*
X-11728Y24801D01*
X-11716Y24765D01*
X-11713Y24727D01*
Y22340D01*
X-11716Y22302D01*
X-11728Y22266D01*
X-11745Y22232D01*
X-11770Y22202D01*
X-11799Y22178D01*
X-11833Y22160D01*
X-11869Y22150D01*
X-11907Y22146D01*
X-15947D01*
X-15985Y22150D01*
X-16022Y22160D01*
X-16056Y22178D01*
X-16085Y22202D01*
X-16109Y22232D01*
X-16127Y22266D01*
X-16138Y22302D01*
X-16142Y22340D01*
Y24727D01*
X-16138Y24765D01*
X-16127Y24801D01*
X-16109Y24835D01*
X-16085Y24864D01*
X-16056Y24889D01*
X-16022Y24907D01*
X-15985Y24918D01*
X-15947Y24921D01*
G37*
G36*
G01X-11907Y25709D02*
X-15947D01*
X-15985Y25713D01*
X-16022Y25724D01*
X-16056Y25741D01*
X-16085Y25765D01*
X-16109Y25795D01*
X-16127Y25829D01*
X-16138Y25865D01*
X-16142Y25903D01*
Y28290D01*
X-16138Y28328D01*
X-16127Y28364D01*
X-16109Y28398D01*
X-16085Y28427D01*
X-16056Y28452D01*
X-16022Y28469D01*
X-15985Y28481D01*
X-15947Y28484D01*
X-11907D01*
X-11869Y28481D01*
X-11833Y28469D01*
X-11799Y28452D01*
X-11770Y28427D01*
X-11745Y28398D01*
X-11728Y28364D01*
X-11716Y28328D01*
X-11713Y28290D01*
Y25903D01*
X-11716Y25865D01*
X-11728Y25829D01*
X-11745Y25795D01*
X-11770Y25765D01*
X-11799Y25741D01*
X-11833Y25724D01*
X-11869Y25713D01*
X-11907Y25709D01*
G37*
G36*
G01X-6691D02*
X-10731D01*
X-10769Y25713D01*
X-10805Y25724D01*
X-10839Y25741D01*
X-10868Y25765D01*
X-10893Y25795D01*
X-10910Y25829D01*
X-10922Y25865D01*
X-10925Y25903D01*
Y28290D01*
X-10922Y28328D01*
X-10910Y28364D01*
X-10893Y28398D01*
X-10868Y28427D01*
X-10839Y28452D01*
X-10805Y28469D01*
X-10769Y28481D01*
X-10731Y28484D01*
X-6691D01*
X-6652Y28481D01*
X-6616Y28469D01*
X-6582Y28452D01*
X-6553Y28427D01*
X-6529Y28398D01*
X-6511Y28364D01*
X-6500Y28328D01*
X-6496Y28290D01*
Y25903D01*
X-6500Y25865D01*
X-6511Y25829D01*
X-6529Y25795D01*
X-6553Y25765D01*
X-6582Y25741D01*
X-6616Y25724D01*
X-6652Y25713D01*
X-6691Y25709D01*
G37*
G36*
G01X-10512Y46065D02*
Y42025D01*
X-10515Y41987D01*
X-10526Y41951D01*
X-10544Y41917D01*
X-10569Y41888D01*
X-10598Y41863D01*
X-10632Y41846D01*
X-10668Y41834D01*
X-10706Y41831D01*
X-13093D01*
X-13131Y41834D01*
X-13167Y41846D01*
X-13201Y41863D01*
X-13231Y41888D01*
X-13255Y41917D01*
X-13273Y41951D01*
X-13283Y41987D01*
X-13287Y42025D01*
Y46065D01*
X-13283Y46104D01*
X-13273Y46140D01*
X-13255Y46174D01*
X-13231Y46203D01*
X-13201Y46227D01*
X-13167Y46245D01*
X-13131Y46256D01*
X-13093Y46260D01*
X-10706D01*
X-10668Y46256D01*
X-10632Y46245D01*
X-10598Y46227D01*
X-10569Y46203D01*
X-10544Y46174D01*
X-10526Y46140D01*
X-10515Y46104D01*
X-10512Y46065D01*
G37*
G36*
G01X-9724Y42025D02*
Y46065D01*
X-9720Y46104D01*
X-9709Y46140D01*
X-9692Y46174D01*
X-9668Y46203D01*
X-9638Y46227D01*
X-9604Y46245D01*
X-9568Y46256D01*
X-9530Y46260D01*
X-7143D01*
X-7105Y46256D01*
X-7069Y46245D01*
X-7035Y46227D01*
X-7006Y46203D01*
X-6981Y46174D01*
X-6964Y46140D01*
X-6952Y46104D01*
X-6949Y46065D01*
Y42025D01*
X-6952Y41987D01*
X-6964Y41951D01*
X-6981Y41917D01*
X-7006Y41888D01*
X-7035Y41863D01*
X-7069Y41846D01*
X-7105Y41834D01*
X-7143Y41831D01*
X-9530D01*
X-9568Y41834D01*
X-9604Y41846D01*
X-9638Y41863D01*
X-9668Y41888D01*
X-9692Y41917D01*
X-9709Y41951D01*
X-9720Y41987D01*
X-9724Y42025D01*
G37*
G36*
G01X6667Y-19369D02*
Y-14790D01*
X2088D01*
Y-19369D01*
X6667D01*
G37*
G36*
G01X12034D02*
Y-14790D01*
X7454D01*
Y-19369D01*
X12034D01*
G37*
G36*
G01X17400D02*
Y-14790D01*
X12821D01*
Y-19369D01*
X17400D01*
G37*
G36*
G01X6667Y-8635D02*
Y-4056D01*
X2088D01*
Y-8635D01*
X6667D01*
G37*
G36*
G01Y-14002D02*
Y-9423D01*
X2088D01*
Y-14002D01*
X6667D01*
G37*
G36*
G01X12034Y-8635D02*
Y-4056D01*
X7454D01*
Y-8635D01*
X12034D01*
G37*
G36*
G01Y-14002D02*
Y-9423D01*
X7454D01*
Y-14002D01*
X12034D01*
G37*
G36*
G01X17400Y-8635D02*
Y-4056D01*
X12821D01*
Y-8635D01*
X17400D01*
G37*
G36*
G01Y-14002D02*
Y-9423D01*
X12821D01*
Y-14002D01*
X17400D01*
G37*
G36*
G01X10726Y25118D02*
X14766D01*
X14804Y25115D01*
X14841Y25104D01*
X14874Y25085D01*
X14904Y25061D01*
X14928Y25032D01*
X14946Y24998D01*
X14957Y24962D01*
X14961Y24924D01*
Y22537D01*
X14957Y22499D01*
X14946Y22463D01*
X14928Y22429D01*
X14904Y22399D01*
X14874Y22375D01*
X14841Y22357D01*
X14804Y22346D01*
X14766Y22343D01*
X10726D01*
X10688Y22346D01*
X10652Y22357D01*
X10618Y22375D01*
X10589Y22399D01*
X10564Y22429D01*
X10546Y22463D01*
X10535Y22499D01*
X10531Y22537D01*
Y24924D01*
X10535Y24962D01*
X10546Y24998D01*
X10564Y25032D01*
X10589Y25061D01*
X10618Y25085D01*
X10652Y25104D01*
X10688Y25115D01*
X10726Y25118D01*
G37*
G36*
G01X5509D02*
X9550D01*
X9588Y25115D01*
X9624Y25104D01*
X9658Y25085D01*
X9687Y25061D01*
X9711Y25032D01*
X9729Y24998D01*
X9741Y24962D01*
X9744Y24924D01*
Y22537D01*
X9741Y22499D01*
X9729Y22463D01*
X9711Y22429D01*
X9687Y22399D01*
X9658Y22375D01*
X9624Y22357D01*
X9588Y22346D01*
X9550Y22343D01*
X5509D01*
X5471Y22346D01*
X5435Y22357D01*
X5401Y22375D01*
X5372Y22399D01*
X5348Y22429D01*
X5330Y22463D01*
X5319Y22499D01*
X5315Y22537D01*
Y24924D01*
X5319Y24962D01*
X5330Y24998D01*
X5348Y25032D01*
X5372Y25061D01*
X5401Y25085D01*
X5435Y25104D01*
X5471Y25115D01*
X5509Y25118D01*
G37*
G36*
G01X9550Y25906D02*
X5509D01*
X5471Y25909D01*
X5435Y25920D01*
X5401Y25938D01*
X5372Y25962D01*
X5348Y25992D01*
X5330Y26026D01*
X5319Y26062D01*
X5315Y26100D01*
Y28487D01*
X5319Y28525D01*
X5330Y28561D01*
X5348Y28595D01*
X5372Y28624D01*
X5401Y28648D01*
X5435Y28666D01*
X5471Y28678D01*
X5509Y28681D01*
X9550D01*
X9588Y28678D01*
X9624Y28666D01*
X9658Y28648D01*
X9687Y28624D01*
X9711Y28595D01*
X9729Y28561D01*
X9741Y28525D01*
X9744Y28487D01*
Y26100D01*
X9741Y26062D01*
X9729Y26026D01*
X9711Y25992D01*
X9687Y25962D01*
X9658Y25938D01*
X9624Y25920D01*
X9588Y25909D01*
X9550Y25906D01*
G37*
G36*
G01X14766D02*
X10726D01*
X10688Y25909D01*
X10652Y25920D01*
X10618Y25938D01*
X10589Y25962D01*
X10564Y25992D01*
X10546Y26026D01*
X10535Y26062D01*
X10531Y26100D01*
Y28487D01*
X10535Y28525D01*
X10546Y28561D01*
X10564Y28595D01*
X10589Y28624D01*
X10618Y28648D01*
X10652Y28666D01*
X10688Y28678D01*
X10726Y28681D01*
X14766D01*
X14804Y28678D01*
X14841Y28666D01*
X14874Y28648D01*
X14904Y28624D01*
X14928Y28595D01*
X14946Y28561D01*
X14957Y28525D01*
X14961Y28487D01*
Y26100D01*
X14957Y26062D01*
X14946Y26026D01*
X14928Y25992D01*
X14904Y25962D01*
X14874Y25938D01*
X14841Y25920D01*
X14804Y25909D01*
X14766Y25906D01*
G37*
G36*
G01X10846Y40849D02*
Y36809D01*
X10843Y36770D01*
X10832Y36734D01*
X10814Y36700D01*
X10789Y36671D01*
X10760Y36647D01*
X10726Y36629D01*
X10690Y36618D01*
X10652Y36614D01*
X8265D01*
X8227Y36618D01*
X8191Y36629D01*
X8157Y36647D01*
X8128Y36671D01*
X8104Y36700D01*
X8085Y36734D01*
X8075Y36770D01*
X8071Y36809D01*
Y40849D01*
X8075Y40887D01*
X8085Y40923D01*
X8104Y40957D01*
X8128Y40986D01*
X8157Y41011D01*
X8191Y41028D01*
X8227Y41040D01*
X8265Y41043D01*
X10652D01*
X10690Y41040D01*
X10726Y41028D01*
X10760Y41011D01*
X10789Y40986D01*
X10814Y40957D01*
X10832Y40923D01*
X10843Y40887D01*
X10846Y40849D01*
G37*
G36*
G01X11634Y36809D02*
Y40849D01*
X11638Y40887D01*
X11649Y40923D01*
X11667Y40957D01*
X11691Y40986D01*
X11720Y41011D01*
X11754Y41028D01*
X11790Y41040D01*
X11828Y41043D01*
X14215D01*
X14253Y41040D01*
X14289Y41028D01*
X14323Y41011D01*
X14352Y40986D01*
X14377Y40957D01*
X14394Y40923D01*
X14406Y40887D01*
X14409Y40849D01*
Y36809D01*
X14406Y36770D01*
X14394Y36734D01*
X14377Y36700D01*
X14352Y36671D01*
X14323Y36647D01*
X14289Y36629D01*
X14253Y36618D01*
X14215Y36614D01*
X11828D01*
X11790Y36618D01*
X11754Y36629D01*
X11720Y36647D01*
X11691Y36671D01*
X11667Y36700D01*
X11649Y36734D01*
X11638Y36770D01*
X11634Y36809D01*
G37*
G36*
G01X10846Y46065D02*
Y42025D01*
X10843Y41987D01*
X10832Y41951D01*
X10814Y41917D01*
X10789Y41888D01*
X10760Y41863D01*
X10726Y41846D01*
X10690Y41834D01*
X10652Y41831D01*
X8265D01*
X8227Y41834D01*
X8191Y41846D01*
X8157Y41863D01*
X8128Y41888D01*
X8104Y41917D01*
X8085Y41951D01*
X8075Y41987D01*
X8071Y42025D01*
Y46065D01*
X8075Y46104D01*
X8085Y46140D01*
X8104Y46174D01*
X8128Y46203D01*
X8157Y46227D01*
X8191Y46245D01*
X8227Y46256D01*
X8265Y46260D01*
X10652D01*
X10690Y46256D01*
X10726Y46245D01*
X10760Y46227D01*
X10789Y46203D01*
X10814Y46174D01*
X10832Y46140D01*
X10843Y46104D01*
X10846Y46065D01*
G37*
G36*
G01X11634Y42025D02*
Y46065D01*
X11638Y46104D01*
X11649Y46140D01*
X11667Y46174D01*
X11691Y46203D01*
X11720Y46227D01*
X11754Y46245D01*
X11790Y46256D01*
X11828Y46260D01*
X14215D01*
X14253Y46256D01*
X14289Y46245D01*
X14323Y46227D01*
X14352Y46203D01*
X14377Y46174D01*
X14394Y46140D01*
X14406Y46104D01*
X14409Y46065D01*
Y42025D01*
X14406Y41987D01*
X14394Y41951D01*
X14377Y41917D01*
X14352Y41888D01*
X14323Y41863D01*
X14289Y41846D01*
X14253Y41834D01*
X14215Y41831D01*
X11828D01*
X11790Y41834D01*
X11754Y41846D01*
X11720Y41863D01*
X11691Y41888D01*
X11667Y41917D01*
X11649Y41951D01*
X11638Y41987D01*
X11634Y42025D01*
G37*
G54D10*
X-57480Y-18996D03*
X-50000D03*
X-57480Y-10039D03*
X-50000D03*
X-57480Y-1083D03*
X-50000D03*
X-57480Y7874D03*
X-50000D03*
X-57480Y16831D03*
X-50000D03*
X-57480Y25787D03*
X-50000D03*
X-3445Y-43898D03*
X4035D03*
X19094Y-65945D03*
Y-56988D03*
X26575Y-65945D03*
Y-56988D03*
G54D20*
X-30118Y-50984D03*
X-26181D03*
X-19390D03*
X-15453D03*
X-26181Y-47343D03*
X-30118D03*
X-15453D03*
X-19390D03*
X-15846Y-16240D03*
X-19783D03*
X-15846Y-21063D03*
X-19783D03*
X-15846Y-6299D03*
X-19783D03*
X-15846Y-1378D03*
X-19783D03*
X-15846Y-11220D03*
X-19783D03*
X-15846Y3543D03*
X-19783D03*
X4134Y-36319D03*
X8071D03*
X29823Y-34350D03*
X25886D03*
X37992Y-33563D03*
Y-29921D03*
X38681Y-5807D03*
X34646Y5610D03*
X38583D03*
X34613Y13583D03*
X38550D03*
X38616Y9547D03*
X34679D03*
X37402Y23524D03*
Y27264D03*
X31398Y49114D03*
X35335D03*
X41929Y-33563D03*
Y-29921D03*
X41437Y-25591D03*
X45374D03*
X56594Y-6102D03*
X42618Y-5807D03*
X56594Y-9547D03*
X46293Y9547D03*
X42356D03*
X50033D03*
X53970D03*
X50000Y5610D03*
X53937D03*
X49967Y13583D03*
X53904D03*
X46260Y5610D03*
X42323D03*
X42290Y13583D03*
X46227D03*
X41339Y23524D03*
Y27264D03*
X60531Y-6102D03*
Y-9547D03*
X61614Y5610D03*
X57677D03*
X61647Y9547D03*
X57710D03*
X57644Y13583D03*
X61581D03*
X62894Y23130D03*
X58957D03*
Y27264D03*
X62894D03*
G54D11*
X-37008Y-51083D03*
Y-47146D03*
X-33465Y-51083D03*
Y-47146D03*
X-39862Y-31496D03*
Y-27559D03*
X-41929Y34449D03*
Y30512D03*
X-22835Y-51280D03*
Y-47343D03*
X-15945Y-31299D03*
Y-27362D03*
X-20669Y34449D03*
Y30512D03*
X-23228Y22441D03*
Y26378D03*
X-20472Y49213D03*
Y45276D03*
X984Y34449D03*
Y30512D03*
X-1870Y22441D03*
Y26378D03*
X689Y49213D03*
Y45276D03*
X19390Y22441D03*
Y26378D03*
X26870Y23425D03*
Y27362D03*
X23327Y23425D03*
Y27362D03*
X33957Y23425D03*
Y27362D03*
X30413D03*
Y23425D03*
X22244Y49213D03*
Y45276D03*
X51870Y23425D03*
Y27362D03*
X44783Y23425D03*
Y27362D03*
X48327Y23425D03*
Y27362D03*
X55413D03*
Y23425D03*
G54D21*
X-21752Y-44587D03*
X-23917D03*
Y-39862D03*
X-21752D03*
G54D12*
X-33276Y-35236D03*
Y-32677D03*
Y-30118D03*
Y-27559D03*
X-22826Y-35236D03*
Y-27559D03*
Y-30118D03*
Y-32677D03*
G54D22*
X883Y-29213D03*
X-1085D03*
X-3054D03*
X-5023D03*
Y5787D03*
X-3054D03*
X-1085D03*
X883D03*
X18605Y-29213D03*
X16635D03*
X14667D03*
X12698D03*
X10729D03*
X8759D03*
X6791D03*
X4822D03*
X2853D03*
Y5787D03*
X4822D03*
X6791D03*
X8759D03*
X10729D03*
X12698D03*
X14667D03*
X16635D03*
X18605D03*
X24511Y-29213D03*
X22543D03*
X20574D03*
Y5787D03*
X22543D03*
X24511D03*
G54D13*
X-34606Y-19696D03*
X-41298Y-19713D03*
X-34626Y-12058D03*
X-41319Y-12076D03*
X-34646Y-4420D03*
X-41339Y-4438D03*
X-34666Y3218D03*
X-41359Y3200D03*
X-34686Y10855D03*
X-41379Y10838D03*
G54D14*
X-32480Y23680D03*
X-32915Y41437D03*
X-11754D03*
X-11319Y23680D03*
X10138Y23876D03*
X9605Y41437D03*
G54D23*
X-7756Y-26480D03*
Y-24511D03*
Y-22542D03*
Y-20573D03*
Y-18604D03*
Y-16635D03*
Y-14666D03*
Y-12697D03*
Y-10728D03*
Y-8759D03*
Y-6790D03*
Y-4821D03*
Y-2852D03*
Y-883D03*
Y1086D03*
Y3055D03*
X27244Y-16635D03*
Y-18604D03*
Y-20573D03*
Y-22542D03*
Y-24511D03*
Y-26480D03*
Y1086D03*
Y-883D03*
Y-2852D03*
Y-4821D03*
Y-6790D03*
Y-8759D03*
Y-10728D03*
Y-12697D03*
Y-14666D03*
Y3055D03*
G54D15*
X-33760Y20177D03*
X-36319D03*
Y32382D03*
X-33760D03*
X-28642Y20177D03*
X-31201D03*
Y32382D03*
X-28642D03*
X-7480Y20177D03*
X-10039D03*
X-12598D03*
X-15157D03*
Y32382D03*
X-12598D03*
X-10039D03*
X-7480D03*
X13976Y20374D03*
X11417D03*
X8858D03*
X6299D03*
Y32579D03*
X8858D03*
X11417D03*
X13976D03*
G54D24*
X5512Y-51476D03*
Y-64272D03*
G54D25*
X15846Y-44488D03*
X26870D03*
G54D16*
X-36417Y37598D03*
Y40157D03*
Y42717D03*
Y45276D03*
X-15256Y37598D03*
X-24213D03*
X-15256Y40157D03*
Y42717D03*
Y45276D03*
X-24213D03*
Y42717D03*
Y40157D03*
X-3051Y37598D03*
Y45276D03*
Y42717D03*
Y40157D03*
X6102Y37598D03*
X18307D03*
X6102Y40157D03*
Y42717D03*
Y45276D03*
X18307D03*
Y42717D03*
Y40157D03*
G54D26*
X38681Y-19980D03*
Y-11319D03*
X45374Y-19980D03*
Y-11319D03*
G54D17*
X-31594Y54232D03*
X-10925D03*
X9744D03*
G54D27*
X35335Y39375D03*
X31398Y39365D03*
Y44286D03*
X35335Y44296D03*
X56594Y-13785D03*
X60531Y-13774D03*
G54D18*
X-21555Y-71555D03*
X-25689D03*
X-14961D03*
X-10827D03*
G54D28*
X29429Y54921D03*
X22736D03*
X52461Y98D03*
X59154D03*
G54D19*
X-26575Y-65610D03*
X-19094D03*
X-22835Y-56437D03*
G54D29*
G01X-32309Y-74409D02*
Y-65780D01*
G02X-41422Y-60424I35194J70308D01*
G02X-41911Y-56930I1352J1970D01*
G03X-44255Y-41572I-8016J6634D01*
G02X-47928Y-33343I4518J6951D01*
G03X-59739Y-26210I-7367J1146D01*
G02X-69257Y-23774I-3772J5075D01*
G02X-61807Y39263I69263J23772D01*
G02X-60430Y41408I24534J-14239D01*
G02X-56937Y41911I1976J-1345D01*
G03X-39893Y49971I6640J8009D01*
G01X-39902Y50423D01*
G02X-30900Y59899I9469J19D01*
G01X-6904Y59987D01*
X-6899D01*
G02X-6389Y59761I9J-665D01*
G03X5936Y59804I6148J4212D01*
G02X6451Y60037I513J-447D01*
G01X6456D01*
X30449Y60125D01*
G02X39516Y50279I-400J-9466D01*
G03X56612Y42322I10405J11D01*
G02X59707Y42307I1539J-1832D01*
G02X70055Y21396I-59696J-42557D01*
G02X69670Y-22618I-70055J-21396D01*
G02X59918Y-25769I-6015J1951D01*
G03X48160Y-32989I-4400J-6019D01*
G02X44552Y-41246I-8188J-1339D01*
G03X42321Y-56620I5737J-8681D01*
G02X41857Y-60118I-1831J-1537D01*
G02X32309Y-65746I-42097J60499D01*
G01Y-74409D01*
X-32309D01*
G01X-63783Y-250D02*
G03I-3149J0D01*
G01X-41911Y-56930D02*
G03X-44255Y-41572I-8016J6635D01*
G01X-41911Y-56930D02*
G03X-41422Y-60424I1841J-1523D01*
G01X-47928Y-33343D02*
G03X-44255Y-41572I8191J-1279D01*
G01X44552Y-41246D02*
G03X42321Y-56620I5737J-8681D01*
G01X44552Y-41246D02*
G03X48160Y-32989I-4579J6918D01*
G01X70074Y243D02*
G03I-3150J0D01*
M02*
