G04 ================== begin FILE IDENTIFICATION RECORD ==================*
G04 Layout Name:  D:/PROJECT/FOC/CIRCUIT/CANDENCE/STM32/stspin32g4_foc.brd*
G04 Film Name:    silktop*
G04 File Format:  Gerber RS274X*
G04 File Origin:  Cadence Allegro 17.4-S039*
G04 Origin Date:  Tue Dec 30 00:20:55 2025*
G04 *
G04 Layer:  REF DES/SILKSCREEN_TOP*
G04 Layer:  PACKAGE GEOMETRY/SILKSCREEN_TOP*
G04 Layer:  BOARD GEOMETRY/SILKSCREEN_TOP*
G04 Layer:  BOARD GEOMETRY/OUTLINE*
G04 *
G04 Offset:    (0.0000 0.0000)*
G04 Mirror:    No*
G04 Mode:      Positive*
G04 Rotation:  0*
G04 FullContactRelief:  No*
G04 UndefLineWidth:     0.1524*
G04 ================== end FILE IDENTIFICATION RECORD ====================*
%FSLAX25Y25*MOIN*%
%IR0*IPPOS*OFA0.00000B0.00000*MIA0B0*SFA1.00000B1.00000*%
%ADD10C,.003937*%
%ADD11C,.007874*%
%ADD12C,.01*%
%ADD13C,.006*%
G75*
%LPD*%
G75*
G36*
G01X-2304Y-31813D02*
Y-32813D01*
X-3804D01*
Y-31813D01*
X-2304D01*
G37*
G36*
G01X-11356Y-11478D02*
Y-9978D01*
X-10356D01*
Y-11478D01*
X-11356D01*
G37*
G36*
G01X-335Y8387D02*
Y9387D01*
X-1835D01*
Y8387D01*
X-335D01*
G37*
G36*
G01X17385Y-31813D02*
Y-32813D01*
X15885D01*
Y-31813D01*
X17385D01*
G37*
G36*
G01X19355Y8387D02*
Y9387D01*
X17855D01*
Y8387D01*
X19355D01*
G37*
G36*
G01X30844Y-9509D02*
Y-8009D01*
X29844D01*
Y-9509D01*
X30844D01*
G37*
G54D10*
G01X-28740Y-73524D02*
Y-69587D01*
G01X-28346D02*
Y-73524D01*
G01X-19291Y-69587D02*
Y-73524D01*
X-27953D01*
Y-69587D01*
X-19291D01*
G01X-17224Y-73524D02*
Y-69587D01*
X-8563D01*
Y-73524D01*
X-17224D01*
G01X-28315Y-66063D02*
G03I-622J0D01*
G01X-23386Y-64567D02*
X-22283D01*
G01X-20866Y-59055D02*
X-18110D01*
Y-64567D01*
G01X-24803Y-59055D02*
X-27559D01*
Y-64567D01*
G01X-29955Y-45374D02*
G03I-557J0D01*
G01X-28937Y-39272D02*
X-18307D01*
Y-45965D01*
X-29331D01*
Y-39272D01*
X-28937D01*
G01X-7776Y-69587D02*
Y-73524D01*
G01X-8169D02*
Y-69587D01*
G54D11*
G01X-46840Y-22815D02*
X-60640D01*
G01X-60693Y-22757D02*
G02Y-15157I9900J3800D01*
G01X-46840Y-6220D02*
X-60640D01*
G01X-46840Y-13858D02*
X-60640D01*
G01X-60693Y-13801D02*
G02Y-6201I9900J3800D01*
G01X-46840Y-4902D02*
X-60640D01*
G01X-60693Y-4844D02*
G02Y2756I9900J3800D01*
G01X-46840Y-15177D02*
X-60640D01*
G01X-46840Y2736D02*
X-60640D01*
G01X-46840Y11693D02*
X-60640D01*
G01X-46840Y4055D02*
X-60640D01*
G01X-60693Y4113D02*
G02Y11713I9900J3800D01*
G01X-46840Y13012D02*
X-60640D01*
G01X-60693Y13069D02*
G02Y20669I9900J3800D01*
G01X-46840Y20650D02*
X-60640D01*
G01X-46840Y29606D02*
X-60640D01*
G01X-46840Y21969D02*
X-60640D01*
G01X-60693Y22026D02*
G02Y29626I9900J3800D01*
G01X-39075Y-45177D02*
X-34941D01*
Y-53051D01*
X-39075D01*
Y-45177D01*
G01X-35531D02*
X-31398D01*
Y-53051D01*
X-35531D01*
Y-45177D01*
G01X-37795Y-25984D02*
G03X-41929I-2067J-3559D01*
G01Y-33071D01*
G03X-37795I2067J3559D01*
G01Y-25984D01*
G01X-46840Y-15196D02*
G02Y-22796I-9900J-3800D01*
G01Y-6239D02*
G02Y-13839I-9900J-3800D01*
G01Y2717D02*
G02Y-4883I-9900J-3800D01*
G01Y11674D02*
G02Y4074I-9900J-3800D01*
G01Y20631D02*
G02Y13031I-9900J-3800D01*
G01X-39862Y28543D02*
X-43996D01*
Y36417D01*
X-39862D01*
Y28543D01*
G01X-39173Y19882D02*
X-38201D01*
G01X-39173Y20854D02*
Y19882D01*
G01Y32677D02*
Y31705D01*
G01Y32677D02*
X-38201D01*
G01X-35740Y34744D02*
X-36713D01*
G01Y35717D02*
Y34744D01*
G01X-46840Y29587D02*
G02Y21987I-9900J-3800D01*
G01X-36713Y48130D02*
Y47157D01*
G01X-35740Y48130D02*
X-36713D01*
G01X-24508Y-54921D02*
G03Y-50787I-3559J2067D01*
G01X-31594D01*
G03Y-54921I3559J-2067D01*
G01X-24508D01*
G01X-20669Y-47638D02*
G03X-24803I-2067J-3559D01*
G01Y-54724D01*
G03X-20669I2067J3559D01*
G01Y-47638D01*
G01X-13780Y-54921D02*
G03Y-50787I-3559J2067D01*
G01X-20866D01*
G03Y-54921I3559J-2067D01*
G01X-13780D01*
G01X-31988Y-51280D02*
Y-47146D01*
X-24114D01*
Y-51280D01*
X-31988D01*
G01X-21260D02*
Y-47146D01*
X-13386D01*
Y-51280D01*
X-21260D01*
G01X-21358Y-14173D02*
G03Y-18307I3559J-2067D01*
G01X-14272D01*
G03Y-14173I-3559J2067D01*
G01X-21358D01*
G01X-13878Y-25787D02*
G03X-18012I-2067J-3559D01*
G01Y-32874D01*
G03X-13878I2067J3559D01*
G01Y-25787D01*
G01X-21752Y-23130D02*
Y-18996D01*
X-13878D01*
Y-23130D01*
X-21752D01*
G01X-21358Y5610D02*
G03Y1476I3559J-2067D01*
G01X-14272D01*
G03Y5610I-3559J2067D01*
G01X-21358D01*
G01Y-4232D02*
G03Y-8366I3559J-2067D01*
G01X-14272D01*
G03Y-4232I-3559J2067D01*
G01X-21358D01*
G01X-21752Y-3445D02*
Y689D01*
X-13878D01*
Y-3445D01*
X-21752D01*
G01Y-13287D02*
Y-9154D01*
X-13878D01*
Y-13287D01*
X-21752D01*
G01X-18602Y28543D02*
X-22736D01*
Y36417D01*
X-18602D01*
Y28543D01*
G01X-25295Y28346D02*
X-21161D01*
Y20472D01*
X-25295D01*
Y28346D01*
G01X-25787Y20854D02*
Y19882D01*
G01X-26760D02*
X-25787D01*
G01X-26760Y32677D02*
X-25787D01*
G01D02*
Y28248D01*
G01X-23917Y35717D02*
Y34744D01*
G01D02*
X-28346D01*
G01X-18012Y19882D02*
X-17039D01*
G01X-18012Y20854D02*
Y19882D01*
G01Y32677D02*
Y31705D01*
G01Y32677D02*
X-17039D01*
G01X-18406Y43307D02*
X-22539D01*
Y51181D01*
X-18406D01*
Y43307D01*
G01X-23917Y48130D02*
X-24890D01*
G01X-23917D02*
Y47157D01*
G01X7195Y-40079D02*
X-6605D01*
G01X7195Y-47717D02*
X-6605D01*
G01X-6657Y-47659D02*
G02Y-40059I9900J3800D01*
G01X3051Y28543D02*
X-1083D01*
Y36417D01*
X3051D01*
Y28543D01*
G01X-3937Y28346D02*
X197D01*
Y20472D01*
X-3937D01*
Y28346D01*
G01X-14579Y34744D02*
X-15551D01*
G01Y35717D02*
Y34744D01*
G01X-2756Y35717D02*
Y34744D01*
G01D02*
X-7185D01*
G01X-4626Y20854D02*
Y19882D01*
G01X-5598D02*
X-4626D01*
G01X-5598Y32677D02*
X-4626D01*
G01D02*
Y28248D01*
G01X2756Y43307D02*
X-1378D01*
Y51181D01*
X2756D01*
Y43307D01*
G01X-15551Y48130D02*
Y47157D01*
G01X-14579Y48130D02*
X-15551D01*
G01X-2756D02*
X-3728D01*
G01X-2756D02*
Y47157D01*
G01X29735Y-62126D02*
X15935D01*
G01X29735Y-69764D02*
X15935D01*
G01X15882Y-69706D02*
G02Y-62106I9900J3800D01*
G01X29735Y-53169D02*
X15935D01*
G01X29735Y-60807D02*
X15935D01*
G01X15882Y-60750D02*
G02Y-53150I9900J3800D01*
G01X9646Y-38386D02*
G03Y-34252I-3559J2067D01*
G01X2559D01*
G03Y-38386I3559J-2067D01*
G01X9646D01*
G01X15059Y-50669D02*
X30958D01*
Y-38307D01*
X11758D01*
Y-50669D01*
X15059D01*
G01X7195Y-40098D02*
G02Y-47698I-9900J-3800D01*
G01X17323Y28346D02*
X21457D01*
Y20472D01*
X17323D01*
Y28346D01*
G01X16831Y21051D02*
Y20079D01*
G01X15858D02*
X16831D01*
G01X3445D02*
X4417D01*
G01X3445Y21051D02*
Y20079D01*
G01Y32874D02*
Y31902D01*
G01Y32874D02*
X4417D01*
G01X15858D02*
X16831D01*
G01D02*
Y28445D01*
G01X6780Y34744D02*
X5807D01*
G01Y35717D02*
Y34744D01*
G01X18602Y35717D02*
Y34744D01*
G01D02*
X14173D01*
G01X5807Y48130D02*
Y47157D01*
G01X6780Y48130D02*
X5807D01*
G01X18602D02*
X17630D01*
G01X18602D02*
Y47157D01*
G01X29232Y57756D02*
X19683D01*
Y52087D01*
X32483D01*
Y57756D01*
X29232D01*
G01X29735Y-62145D02*
G02Y-69745I-9900J-3800D01*
G01Y-53188D02*
G02Y-60788I-9900J-3800D01*
G01X24311Y-32283D02*
G03Y-36417I3559J-2067D01*
G01X31398D01*
G03Y-32283I-3559J2067D01*
G01X24311D01*
G01X36417Y-31496D02*
G03Y-35630I3559J-2067D01*
G01X43504D01*
G03Y-31496I-3559J2067D01*
G01X36417D01*
G01Y-27854D02*
G03Y-31988I3559J-2067D01*
G01X43504D01*
G03Y-27854I-3559J2067D01*
G01X36417D01*
G01X40157Y3543D02*
G03Y7677I-3559J2067D01*
G01X33071D01*
G03Y3543I3559J-2067D01*
G01X40157D01*
G01X40519Y15650D02*
Y11516D01*
X32644D01*
Y15650D01*
X40519D01*
G01X32710Y7480D02*
Y11614D01*
X40584D01*
Y7480D01*
X32710D01*
G01X29817Y41428D02*
G03X29828Y37294I3564J-2057D01*
G01X36915Y37313D01*
G03X36904Y41446I-3564J2057D01*
G01X29817Y41428D01*
G01X35433Y21457D02*
Y25591D01*
X43307D01*
Y21457D01*
X35433D01*
G01X24803Y29331D02*
X28937D01*
Y21457D01*
X24803D01*
Y29331D01*
G01X43307D02*
Y25197D01*
X35433D01*
Y29331D01*
X43307D01*
G01X21260D02*
X25394D01*
Y21457D01*
X21260D01*
Y29331D01*
G01X31890D02*
X36024D01*
Y21457D01*
X31890D01*
Y29331D01*
G01X32480Y21457D02*
X28346D01*
Y29331D01*
X32480D01*
Y21457D01*
G01X24311Y43307D02*
X20177D01*
Y51181D01*
X24311D01*
Y43307D01*
G01X37303Y51181D02*
Y47047D01*
X29429D01*
Y51181D01*
X37303D01*
G01X37298Y46369D02*
X37309Y42235D01*
X29435Y42214D01*
X29424Y46348D01*
X37298Y46369D01*
G01X46949Y-27657D02*
G03Y-23524I-3559J2067D01*
G01X39862D01*
G03Y-27657I3559J-2067D01*
G01X46949D01*
G01X47146Y-7972D02*
G03Y-3839I-3559J2067D01*
G01X40059D01*
G03Y-7972I3559J-2067D01*
G01X47146D01*
G01X49409Y-3642D02*
G03Y-7776I3559J-2067D01*
G01X56496D01*
G03Y-3642I-3559J2067D01*
G01X49409D01*
G01X56890Y-8760D02*
Y-12894D01*
X49016D01*
Y-8760D01*
X56890D01*
G01X52657Y-2736D02*
X62207D01*
Y2933D01*
X49407D01*
Y-2736D01*
X52657D01*
G01X40781Y11614D02*
G03Y7480I3559J-2067D01*
G01X47868D01*
G03Y11614I-3559J2067D01*
G01X40781D01*
G01X56102Y7677D02*
G03Y3543I3559J-2067D01*
G01X63189D01*
G03Y7677I-3559J2067D01*
G01X56102D01*
G01X55545Y7480D02*
G03Y11614I-3559J2067D01*
G01X48458D01*
G03Y7480I3559J-2067D01*
G01X55545D01*
G01X55906Y7677D02*
Y3543D01*
X48031D01*
Y7677D01*
X55906D01*
G01X55873Y15650D02*
Y11516D01*
X47999D01*
Y15650D01*
X55873D01*
G01X40354Y3543D02*
Y7677D01*
X48228D01*
Y3543D01*
X40354D01*
G01X48196Y15650D02*
Y11516D01*
X40322D01*
Y15650D01*
X48196D01*
G01X49803Y29331D02*
X53937D01*
Y21457D01*
X49803D01*
Y29331D01*
G01X42717D02*
X46850D01*
Y21457D01*
X42717D01*
Y29331D01*
G01X46260D02*
X50394D01*
Y21457D01*
X46260D01*
Y29331D01*
G01X57480Y21457D02*
X53346D01*
Y29331D01*
X57480D01*
Y21457D01*
G01X66136Y-13179D02*
X66147Y-17313D01*
X58273Y-17333D01*
X58262Y-13199D01*
X66136Y-13179D01*
G01X65748Y-7776D02*
G03Y-3642I-3559J2067D01*
G01X58661D01*
G03Y-7776I3559J-2067D01*
G01X65748D01*
G01X58268Y-12402D02*
Y-8268D01*
X66142D01*
Y-12402D01*
X58268D01*
G01X55742Y7480D02*
Y11614D01*
X63616D01*
Y7480D01*
X55742D01*
G01X63550Y15650D02*
Y11516D01*
X55676D01*
Y15650D01*
X63550D01*
G01X56988Y21063D02*
Y25197D01*
X64862D01*
Y21063D01*
X56988D01*
G01X64862Y29331D02*
Y25197D01*
X56988D01*
Y29331D01*
X64862D01*
G54D12*
G01X3112Y-63386D02*
X2165D01*
Y-52362D01*
X3112D01*
Y-50574D01*
X2165D01*
Y-51474D01*
G01X2212Y-54574D02*
X8912D01*
G01Y-55474D02*
X2212D01*
G01X7912Y-51474D02*
X8858D01*
Y-52362D01*
G01Y-51474D02*
Y-50574D01*
X7912D01*
Y-52362D01*
X8858D01*
Y-63386D01*
X7912D01*
G01X2165Y-52362D02*
Y-51474D01*
X3112D01*
G54D13*
G01X-31801Y-37698D02*
X-24301D01*
G01Y-25098D02*
X-31801D01*
G01X-8656Y-28290D02*
Y-30113D01*
G01D02*
X-6833D01*
G01Y6687D02*
X-8656D01*
G01D02*
Y4865D01*
G01X26322Y-30113D02*
X28144D01*
G01D02*
Y-28290D01*
G01X37106Y-14650D02*
Y-16650D01*
G01X35528Y-11250D02*
X34128Y-9750D01*
Y-12650D01*
X35528Y-11250D01*
G01X28144Y4865D02*
Y6687D01*
G01D02*
X26322D01*
G01X42500Y-21949D02*
X41555D01*
G01X46949Y-14650D02*
Y-16650D01*
G01X42500Y-9350D02*
X41555D01*
G01X-32309Y-74409D02*
Y-65780D01*
G02X-41422Y-60424I35194J70308D01*
G02X-41911Y-56930I1352J1970D01*
G03X-44255Y-41572I-8016J6634D01*
G02X-47928Y-33343I4518J6951D01*
G03X-59739Y-26210I-7367J1146D01*
G02X-69257Y-23774I-3772J5075D01*
G02X-61807Y39263I69263J23772D01*
G02X-60430Y41408I24534J-14239D01*
G02X-56937Y41911I1976J-1345D01*
G03X-39893Y49971I6640J8009D01*
G01X-39902Y50423D01*
G02X-30900Y59899I9469J19D01*
G01X-6904Y59987D01*
X-6899D01*
G02X-6389Y59761I9J-665D01*
G03X5936Y59804I6148J4212D01*
G02X6451Y60037I513J-447D01*
G01X6456D01*
X30449Y60125D01*
G02X39516Y50279I-400J-9466D01*
G03X56612Y42322I10405J11D01*
G02X59707Y42307I1539J-1832D01*
G02X70055Y21396I-59696J-42557D01*
G02X69670Y-22618I-70055J-21396D01*
G02X59918Y-25769I-6015J1951D01*
G03X48160Y-32989I-4400J-6019D01*
G02X44552Y-41246I-8188J-1339D01*
G03X42321Y-56620I5737J-8681D01*
G02X41857Y-60118I-1831J-1537D01*
G02X32309Y-65746I-42097J60499D01*
G01Y-74409D01*
X-32309D01*
G01X-63783Y-250D02*
G03I-3149J0D01*
G01X-41911Y-56930D02*
G03X-44255Y-41572I-8016J6635D01*
G01X-41911Y-56930D02*
G03X-41422Y-60424I1841J-1523D01*
G01X-47928Y-33343D02*
G03X-44255Y-41572I8191J-1279D01*
G01X-29980Y30223D02*
X-33564D01*
X-34314Y29970D01*
X-34814Y29463D01*
X-34980Y28830D01*
X-34814Y28196D01*
X-34314Y27689D01*
X-33564Y27436D01*
X-29980D01*
G01X-34980Y23730D02*
X-29980D01*
X-30980Y24489D01*
G01X-34980D02*
Y22970D01*
G01X-24108Y-33898D02*
Y-30314D01*
X-24361Y-29564D01*
X-24868Y-29064D01*
X-25501Y-28898D01*
X-26135Y-29064D01*
X-26641Y-29564D01*
X-26894Y-30314D01*
Y-33898D01*
G01X-30474Y-28898D02*
X-30601Y-29981D01*
X-30791Y-30898D01*
X-31044Y-31731D01*
X-31361Y-32648D01*
X-31868Y-33898D01*
X-29335D01*
G01X-8819Y30223D02*
X-12402D01*
X-13152Y29970D01*
X-13652Y29463D01*
X-13819Y28830D01*
X-13652Y28196D01*
X-13152Y27689D01*
X-12402Y27436D01*
X-8819D01*
G01X-9652Y24933D02*
X-9152Y24553D01*
X-8902Y24109D01*
X-8819Y23603D01*
X-8985Y22970D01*
X-9402Y22526D01*
X-9902Y22400D01*
X-10402Y22463D01*
X-10819Y22716D01*
X-11652Y23983D01*
X-12235Y24553D01*
X-13069Y24933D01*
X-13819Y25059D01*
Y22400D01*
G01X16237Y-14213D02*
Y-10629D01*
X15984Y-9879D01*
X15478Y-9379D01*
X14844Y-9213D01*
X14211Y-9379D01*
X13704Y-9879D01*
X13451Y-10629D01*
Y-14213D01*
G01X9744Y-9213D02*
Y-14213D01*
X10504Y-13213D01*
G01Y-9213D02*
X8984D01*
G01X4644Y-14213D02*
X5151Y-14046D01*
X5531Y-13629D01*
X5784Y-13130D01*
X5974Y-12463D01*
X6037Y-11713D01*
X5974Y-10963D01*
X5784Y-10296D01*
X5531Y-9796D01*
X5151Y-9379D01*
X4644Y-9213D01*
X4137Y-9379D01*
X3757Y-9796D01*
X3504Y-10296D01*
X3314Y-10963D01*
X3251Y-11713D01*
X3314Y-12463D01*
X3504Y-13130D01*
X3757Y-13629D01*
X4137Y-14046D01*
X4644Y-14213D01*
G01X12638Y30420D02*
X9054D01*
X8304Y30167D01*
X7804Y29660D01*
X7638Y29026D01*
X7804Y28393D01*
X8304Y27886D01*
X9054Y27633D01*
X12638D01*
G01X8638Y25320D02*
X8054Y24940D01*
X7721Y24433D01*
X7638Y23863D01*
X7721Y23356D01*
X8138Y22850D01*
X8638Y22533D01*
X9138Y22470D01*
X9721Y22596D01*
X10138Y23040D01*
X10304Y23483D01*
Y24053D01*
G01Y23483D02*
X10554Y23103D01*
X10971Y22786D01*
X11471Y22660D01*
X11971Y22786D01*
X12388Y23103D01*
X12638Y23673D01*
X12554Y24243D01*
X12221Y24813D01*
G01X31019Y-28278D02*
X28233Y-31945D01*
G01X29626Y-32611D02*
Y-27611D01*
G01X28233Y-28278D02*
X31019Y-31945D01*
G01X31526Y-30111D02*
X27726D01*
G01X44552Y-41246D02*
G03X42321Y-56620I5737J-8681D01*
G01X44552Y-41246D02*
G03X48160Y-32989I-4579J6918D01*
G01X44912Y-34972D02*
X45046Y-35222D01*
X45206Y-35389D01*
X45393Y-35472D01*
X45606Y-35389D01*
X45766Y-35222D01*
X45926Y-34972D01*
X45979Y-34639D01*
Y-32972D01*
G01X47059Y-34972D02*
X47219Y-35264D01*
X47432Y-35431D01*
X47672Y-35472D01*
X47886Y-35431D01*
X48099Y-35222D01*
X48232Y-34972D01*
X48259Y-34722D01*
X48206Y-34431D01*
X48019Y-34222D01*
X47832Y-34139D01*
X47593D01*
G01X47832D02*
X47993Y-34014D01*
X48126Y-33806D01*
X48179Y-33556D01*
X48126Y-33306D01*
X47993Y-33098D01*
X47752Y-32972D01*
X47512Y-33014D01*
X47272Y-33181D01*
G01X70074Y243D02*
G03I-3150J0D01*
M02*
