G04 ================== begin FILE IDENTIFICATION RECORD ==================*
G04 Layout Name:  D:/PROJECT/FOC/CIRCUIT/CANDENCE/STM32/stspin32g4_foc.brd*
G04 Film Name:    silkbot*
G04 File Format:  Gerber RS274X*
G04 File Origin:  Cadence Allegro 17.4-S039*
G04 Origin Date:  Tue Dec 30 00:20:55 2025*
G04 *
G04 Layer:  REF DES/SILKSCREEN_BOTTOM*
G04 Layer:  PACKAGE GEOMETRY/SILKSCREEN_BOTTOM*
G04 Layer:  BOARD GEOMETRY/SILKSCREEN_BOTTOM*
G04 Layer:  BOARD GEOMETRY/OUTLINE*
G04 *
G04 Offset:    (0.0000 0.0000)*
G04 Mirror:    No*
G04 Mode:      Positive*
G04 Rotation:  0*
G04 FullContactRelief:  No*
G04 UndefLineWidth:     0.1524*
G04 ================== end FILE IDENTIFICATION RECORD ====================*
%FSLAX25Y25*MOIN*%
%IR0*IPPOS*OFA0.00000B0.00000*MIA0B0*SFA1.00000B1.00000*%
%ADD10C,.003937*%
%ADD11C,.007874*%
%ADD12C,.01*%
%ADD13C,.006*%
G75*
%LPD*%
G75*
G54D10*
G01X-19587Y-31398D02*
Y-33760D01*
X-40059D01*
Y-31398D01*
G01Y-21161D02*
Y-18799D01*
X-19587D01*
Y-21161D01*
G01X4035Y-72933D02*
X-25886D01*
G01X-26673Y-56004D02*
X-31299D01*
Y-63366D01*
G01X-29823Y-26280D02*
X-31398Y-27854D01*
Y-24705D01*
X-29823Y-26280D01*
X-28248Y-24705D01*
Y-27854D01*
X-29823Y-26280D01*
G01X26181Y-72933D02*
X15945D01*
G01X15236Y-56004D02*
X10531D01*
Y-63366D01*
G01X9449D02*
Y-56004D01*
X4823D01*
G01X31594Y-63366D02*
Y-56004D01*
X26890D01*
G54D11*
G01X-46827Y-22833D02*
X-60627Y-22797D01*
G01X-60660Y-15217D02*
G03X-60680Y-22817I9890J-3826D01*
G01X-46873Y-4920D02*
X-60673Y-4883D01*
G01X-60706Y2697D02*
G03X-60726Y-4903I9890J-3826D01*
G01X-46850Y-13876D02*
X-60650Y-13840D01*
G01X-46830Y-6239D02*
X-60630Y-6202D01*
G01X-60683Y-6260D02*
G03X-60703Y-13860I9890J-3826D01*
G01X-46807Y-15195D02*
X-60607Y-15159D01*
G01X-46920Y12994D02*
X-60720Y13030D01*
G01X-60754Y20610D02*
G03X-60773Y13010I9890J-3826D01*
G01X-46897Y4037D02*
X-60697Y4073D01*
G01X-46877Y11675D02*
X-60677Y11711D01*
G01X-60730Y11654D02*
G03X-60750Y4054I9890J-3826D01*
G01X-46854Y2718D02*
X-60654Y2754D01*
G01X-46944Y21950D02*
X-60744Y21987D01*
G01X-46924Y29588D02*
X-60724Y29624D01*
G01X-60777Y29567D02*
G03X-60796Y21967I9890J-3826D01*
G01X-46901Y20631D02*
X-60701Y20668D01*
G01X-35152Y-47533D02*
X-35154Y-48506D01*
G01X-34182Y-48509D02*
X-35154Y-48506D01*
G01X-34148Y-35713D02*
X-35121Y-35711D01*
G01D02*
X-35133Y-40140D01*
G01X-44892Y-17795D02*
X-31092D01*
G01X-44892Y-10176D02*
G03Y-17776I9900J-3800D01*
G01X-46827Y-22814D02*
G03X-46807Y-15214I-9890J3826D01*
G01X-44892Y-1004D02*
X-31092D01*
G01X-44892Y-8642D02*
X-31092D01*
G01X-44892Y-1023D02*
G03Y-8623I9900J-3800D01*
G01Y512D02*
X-31092D01*
G01X-44892Y8131D02*
G03Y531I9900J-3800D01*
G01Y-10157D02*
X-31092D01*
G01X-46873Y-4901D02*
G03X-46854Y2699I-9890J3826D01*
G01X-46850Y-13857D02*
G03X-46830Y-6257I-9890J3826D01*
G01X-44892Y8150D02*
X-31092D01*
G01X-44892Y17303D02*
X-31092D01*
G01X-44892Y9665D02*
X-31092D01*
G01X-44892Y17284D02*
G03Y9684I9900J-3800D01*
G01X-46920Y13013D02*
G03X-46901Y20613I-9890J3826D01*
G01X-46897Y4056D02*
G03X-46877Y11656I-9890J3826D01*
G01X-44902Y18246D02*
X-31102Y18210D01*
G01X-44882Y25865D02*
G03X-44902Y18265I9890J-3826D01*
G01X-46944Y21969D02*
G03X-46924Y29569I-9890J3826D01*
G01X-44882Y25884D02*
X-31082Y25848D01*
G01X-12210Y-38298D02*
X-12199Y-34164D01*
X-20073Y-34143D01*
X-20084Y-38277D01*
X-12210Y-38298D01*
G01X-12309Y-43317D02*
X-12298Y-39183D01*
X-20172Y-39163D01*
X-20183Y-43297D01*
X-12309Y-43317D01*
G01X-21769Y-48541D02*
X-22741Y-48539D01*
G01X-21766Y-47569D02*
X-21769Y-48541D01*
G01X-21735Y-35746D02*
X-21738Y-36719D01*
G01X-21735Y-35746D02*
X-22708Y-35743D01*
G01X-31039Y-17738D02*
G03Y-10138I-9900J3800D01*
G01X-13878Y-10531D02*
G02X-18012I-2067J3559D01*
G01Y-3445D01*
G02X-13878I2067J-3559D01*
G01Y-10531D01*
G01X-31039Y-8584D02*
G03Y-984I-9900J3800D01*
G01Y569D02*
G03Y8169I-9900J3800D01*
G01Y9723D02*
G03Y17323I-9900J3800D01*
G01X-20157Y11899D02*
Y25699D01*
G01X-20139Y11899D02*
G03X-12539I3800J9900D01*
G01X-31049Y18268D02*
G03X-31030Y25868I-9890J3826D01*
G01X-14390Y47835D02*
Y36698D01*
X-22028D01*
Y51098D01*
X-14390D01*
Y47835D01*
G01X-12577Y25752D02*
G03X-20177I-3800J-9900D01*
G01X-7567Y-37897D02*
X8332Y-37939D01*
X8309Y-46757D01*
X-10991Y-46707D01*
X-10968Y-37888D01*
X-7567Y-37897D01*
G01X7283Y-10039D02*
X-7283D01*
G01X7874Y10039D02*
X-7283D01*
G01X-11594Y11899D02*
Y25699D01*
G01X-3957Y11899D02*
Y25699D01*
G01X-11576Y11899D02*
G03X-3976I3800J9900D01*
G01X-12520D02*
Y25699D01*
G01X2Y11909D02*
X38Y25709D01*
G01X20Y11909D02*
G03X7620Y11889I3826J9890D01*
G01X6969Y47835D02*
Y36698D01*
X-669D01*
Y51098D01*
X6969D01*
Y47835D01*
G01X-4014Y25752D02*
G03X-11614I-3800J-9900D01*
G01X7618Y25742D02*
G03X18Y25762I-3826J-9890D01*
G01X19292Y-36120D02*
X5492Y-36084D01*
G01X19292Y-36102D02*
G03X19311Y-28502I-9890J3826D01*
G01X5459Y-28504D02*
G03X5439Y-36104I9890J-3826D01*
G01X19311Y-28483D02*
X5511Y-28446D01*
G01X18504Y-1378D02*
G02Y2756I3559J2067D01*
G01X25591D01*
G02Y-1378I-3559J-2067D01*
G01X18504D01*
G01Y-5118D02*
G02Y-984I3559J2067D01*
G01X25591D01*
G02Y-5118I-3559J-2067D01*
G01X18504D01*
G01X7639Y11889D02*
X7676Y25689D01*
G01X8565Y11909D02*
X8601Y25709D01*
G01X16202Y11889D02*
X16239Y25689D01*
G01X8583Y11909D02*
G03X16183Y11889I3826J9890D01*
G01X16181Y25742D02*
G03X8581Y25762I-3826J-9890D01*
G01X37205Y-29035D02*
Y-24902D01*
X29331D01*
Y-29035D01*
X37205D01*
G01X29336Y-19872D02*
X29325Y-24006D01*
X37199Y-24026D01*
X37210Y-19892D01*
X29336Y-19872D01*
G01X28524Y47835D02*
Y36698D01*
X20886D01*
Y51098D01*
X28524D01*
Y47835D01*
G54D12*
G01X-24925Y2959D02*
X-25871Y2961D01*
X-25900Y-8062D01*
X-24954Y-8065D01*
X-24959Y-9853D01*
X-25905Y-9850D01*
X-25903Y-8950D01*
G01X-25848Y-5850D02*
X-19148Y-5868D01*
G01X-19146Y-4968D02*
X-25846Y-4950D01*
G01X-20156Y-8965D02*
X-19210Y-8968D01*
X-19207Y-8080D01*
G01X-19210Y-8968D02*
X-19212Y-9868D01*
X-20159Y-9865D01*
X-20154Y-8077D01*
X-19207Y-8080D01*
X-19178Y2944D01*
X-20125Y2946D01*
G01X-25900Y-8062D02*
X-25903Y-8950D01*
X-24956Y-8953D01*
G54D13*
G01X-24256Y-50492D02*
Y-47992D01*
G01X-25376D02*
Y-50492D01*
G01Y-49242D02*
X-24256D01*
G01X-20247Y-47992D02*
Y-50492D01*
X-21314D01*
G01X-10507Y-49242D02*
X-11041D01*
Y-49992D01*
X-10881Y-50242D01*
X-10694Y-50409D01*
X-10427Y-50492D01*
X-10161Y-50409D01*
X-9974Y-50242D01*
X-9814Y-49992D01*
X-9707Y-49700D01*
X-9654Y-49367D01*
Y-49076D01*
X-9707Y-48826D01*
X-9814Y-48534D01*
X-9974Y-48284D01*
X-10134Y-48117D01*
X-10347Y-47992D01*
X-10534D01*
X-10747Y-48076D01*
X-10907Y-48242D01*
G01X-12121Y-50492D02*
Y-47992D01*
X-13348Y-50492D01*
Y-47992D01*
G01X-14535Y-50492D02*
Y-47992D01*
X-15069D01*
X-15282Y-48117D01*
X-15442Y-48284D01*
X-15576Y-48534D01*
X-15682Y-48826D01*
X-15709Y-49242D01*
X-15682Y-49659D01*
X-15576Y-49950D01*
X-15442Y-50200D01*
X-15282Y-50367D01*
X-15069Y-50492D01*
X-14535D01*
G01X1737Y-47992D02*
X1070Y-50492D01*
X404Y-47992D01*
G01X-1904Y-48200D02*
X-1744Y-48076D01*
X-1557Y-47992D01*
X-1344D01*
X-1104Y-48117D01*
X-917Y-48326D01*
X-784Y-48576D01*
X-677Y-48992D01*
X-651Y-49367D01*
X-704Y-49742D01*
X-784Y-49992D01*
X-944Y-50242D01*
X-1131Y-50409D01*
X-1317Y-50492D01*
X-1504D01*
X-1691Y-50409D01*
X-1851Y-50284D01*
X-1984Y-50117D01*
G01X-4291Y-48200D02*
X-4131Y-48076D01*
X-3945Y-47992D01*
X-3731D01*
X-3491Y-48117D01*
X-3305Y-48326D01*
X-3171Y-48576D01*
X-3065Y-48992D01*
X-3038Y-49367D01*
X-3091Y-49742D01*
X-3171Y-49992D01*
X-3331Y-50242D01*
X-3518Y-50409D01*
X-3705Y-50492D01*
X-3891D01*
X-4078Y-50409D01*
X-4238Y-50284D01*
X-4371Y-50117D01*
G01X22667Y-50591D02*
Y-48091D01*
X22000D01*
X21786Y-48216D01*
X21653Y-48382D01*
X21600Y-48716D01*
X21653Y-49049D01*
X21813Y-49257D01*
X22000Y-49382D01*
X22667D01*
G01X22000D02*
X21600Y-50591D01*
G01X20306D02*
X19186Y-48091D01*
G01X20306D02*
X19186Y-50591D01*
G01X17507Y-48091D02*
Y-50591D01*
G01X18120Y-48091D02*
X16894D01*
G01X15680Y-50591D02*
X14560Y-48091D01*
G01X15680D02*
X14560Y-50591D01*
G01X29060Y-49341D02*
X28526D01*
Y-50091D01*
X28686Y-50341D01*
X28873Y-50507D01*
X29140Y-50591D01*
X29406Y-50507D01*
X29593Y-50341D01*
X29753Y-50091D01*
X29860Y-49799D01*
X29913Y-49466D01*
Y-49174D01*
X29860Y-48924D01*
X29753Y-48632D01*
X29593Y-48382D01*
X29433Y-48216D01*
X29220Y-48091D01*
X29033D01*
X28820Y-48174D01*
X28660Y-48341D01*
G01X27446Y-50591D02*
Y-48091D01*
X26219Y-50591D01*
Y-48091D01*
G01X25031Y-50591D02*
Y-48091D01*
X24498D01*
X24285Y-48216D01*
X24125Y-48382D01*
X23991Y-48632D01*
X23885Y-48924D01*
X23858Y-49341D01*
X23885Y-49757D01*
X23991Y-50049D01*
X24125Y-50299D01*
X24285Y-50466D01*
X24498Y-50591D01*
X25031D01*
G01X-32309Y-74409D02*
Y-65780D01*
G02X-41422Y-60424I35194J70308D01*
G02X-41911Y-56930I1352J1970D01*
G03X-44255Y-41572I-8016J6634D01*
G02X-47928Y-33343I4518J6951D01*
G03X-59739Y-26210I-7367J1146D01*
G02X-69257Y-23774I-3772J5075D01*
G02X-61807Y39263I69263J23772D01*
G02X-60430Y41408I24534J-14239D01*
G02X-56937Y41911I1976J-1345D01*
G03X-39893Y49971I6640J8009D01*
G01X-39902Y50423D01*
G02X-30900Y59899I9469J19D01*
G01X-6904Y59987D01*
X-6899D01*
G02X-6389Y59761I9J-665D01*
G03X5936Y59804I6148J4212D01*
G02X6451Y60037I513J-447D01*
G01X6456D01*
X30449Y60125D01*
G02X39516Y50279I-400J-9466D01*
G03X56612Y42322I10405J11D01*
G02X59707Y42307I1539J-1832D01*
G02X70055Y21396I-59696J-42557D01*
G02X69670Y-22618I-70055J-21396D01*
G02X59918Y-25769I-6015J1951D01*
G03X48160Y-32989I-4400J-6019D01*
G02X44552Y-41246I-8188J-1339D01*
G03X42321Y-56620I5737J-8681D01*
G02X41857Y-60118I-1831J-1537D01*
G02X32309Y-65746I-42097J60499D01*
G01Y-74409D01*
X-32309D01*
G01X-63783Y-250D02*
G03I-3149J0D01*
G01X-41911Y-56930D02*
G03X-44255Y-41572I-8016J6635D01*
G01X-41911Y-56930D02*
G03X-41422Y-60424I1841J-1523D01*
G01X-47928Y-33343D02*
G03X-44255Y-41572I8191J-1279D01*
G01X-11192Y-61803D02*
X-11325Y-62053D01*
X-11485Y-62220D01*
X-11672Y-62303D01*
X-11885Y-62220D01*
X-12045Y-62053D01*
X-12205Y-61803D01*
X-12259Y-61470D01*
Y-59803D01*
G01X-13419Y-60220D02*
X-13578Y-59970D01*
X-13765Y-59845D01*
X-13978Y-59803D01*
X-14245Y-59887D01*
X-14432Y-60095D01*
X-14485Y-60345D01*
X-14459Y-60595D01*
X-14352Y-60803D01*
X-13819Y-61220D01*
X-13578Y-61511D01*
X-13419Y-61928D01*
X-13365Y-62303D01*
X-14485D01*
G01X44552Y-41246D02*
G03X42321Y-56620I5737J-8681D01*
G01X44552Y-41246D02*
G03X48160Y-32989I-4579J6918D01*
G01X70074Y243D02*
G03I-3150J0D01*
M02*
