G04 ================== begin FILE IDENTIFICATION RECORD ==================*
G04 Layout Name:  d:/project/07_foc/foc/circuit/candence/stm32/stspin32g4_foc.brd*
G04 Film Name:    soldtop*
G04 File Format:  Gerber RS274X*
G04 File Origin:  Cadence Allegro 17.4-S039*
G04 Origin Date:  Thu Dec 11 19:06:32 2025*
G04 *
G04 Layer:  PIN/SOLDERMASK_TOP*
G04 Layer:  PACKAGE GEOMETRY/SOLDERMASK_TOP*
G04 Layer:  BOARD GEOMETRY/SOLDERMASK_TOP*
G04 Layer:  BOARD GEOMETRY/OUTLINE*
G04 *
G04 Offset:    (0.0000 0.0000)*
G04 Mirror:    No*
G04 Mode:      Positive*
G04 Rotation:  0*
G04 FullContactRelief:  No*
G04 UndefLineWidth:     0.1524*
G04 ================== end FILE IDENTIFICATION RECORD ====================*
%FSLAX25Y25*MOIN*%
%IR0*IPPOS*OFA0.00000B0.00000*MIA0B0*SFA1.00000B1.00000*%
%ADD24R,.035433X.043307*%
%ADD12R,.0395X.018*%
%ADD19R,.027165X.058661*%
%ADD30R,.047244X.043307*%
%AMMACRO13*
21,1,.047244,.043307,0.0,0.0,.15*%
%ADD13MACRO13*%
%ADD28R,.051181X.059059*%
%ADD10R,.055118X.062992*%
%ADD16R,.023622X.011811*%
%ADD15R,.011811X.023622*%
%ADD18R,.019685X.023622*%
%ADD25R,.066929X.110236*%
%ADD27C,.04*%
%ADD11R,.029528X.027559*%
%ADD20R,.027559X.029528*%
%AMMACRO29*
21,1,.027559,.029528,0.0,0.0,.15*%
%ADD29MACRO29*%
%ADD21R,.017717X.025591*%
%ADD17R,.062992X.062992*%
%ADD23R,.032X.01*%
%ADD22R,.01X.032*%
%ADD14R,.001X.001*%
%ADD26R,.161X.161*%
%ADD31C,.006*%
G75*
%LPD*%
G75*
G36*
G01X-37094Y28484D02*
X-27867D01*
X-27826Y28480D01*
X-27787Y28469D01*
X-27751Y28449D01*
X-27719Y28423D01*
X-27693Y28391D01*
X-27673Y28355D01*
X-27661Y28315D01*
X-27657Y28275D01*
Y21706D01*
X-27661Y21665D01*
X-27673Y21626D01*
X-27693Y21589D01*
X-27719Y21557D01*
X-27751Y21531D01*
X-27787Y21512D01*
X-27826Y21500D01*
X-27867Y21496D01*
X-37094D01*
X-37134Y21500D01*
X-37174Y21512D01*
X-37210Y21531D01*
X-37242Y21557D01*
X-37268Y21589D01*
X-37287Y21626D01*
X-37299Y21665D01*
X-37303Y21706D01*
Y28275D01*
X-37299Y28315D01*
X-37287Y28355D01*
X-37268Y28391D01*
X-37242Y28423D01*
X-37210Y28449D01*
X-37174Y28469D01*
X-37134Y28480D01*
X-37094Y28484D01*
G37*
G36*
G01X-36909Y22638D02*
Y20669D01*
X-35728D01*
Y22638D01*
X-36909D01*
G37*
G36*
G01X-28110Y46050D02*
Y36824D01*
X-28114Y36783D01*
X-28126Y36744D01*
X-28146Y36707D01*
X-28172Y36676D01*
X-28204Y36650D01*
X-28240Y36630D01*
X-28279Y36618D01*
X-28320Y36614D01*
X-34889D01*
X-34930Y36618D01*
X-34969Y36630D01*
X-35005Y36650D01*
X-35037Y36676D01*
X-35063Y36707D01*
X-35082Y36744D01*
X-35094Y36783D01*
X-35098Y36824D01*
Y46050D01*
X-35094Y46091D01*
X-35082Y46130D01*
X-35063Y46167D01*
X-35037Y46198D01*
X-35005Y46224D01*
X-34969Y46244D01*
X-34930Y46256D01*
X-34889Y46260D01*
X-28320D01*
X-28279Y46256D01*
X-28240Y46244D01*
X-28204Y46224D01*
X-28172Y46198D01*
X-28146Y46167D01*
X-28126Y46130D01*
X-28114Y46091D01*
X-28110Y46050D01*
G37*
G36*
G01X-33957Y38189D02*
X-35925D01*
Y37008D01*
X-33957D01*
Y38189D01*
G37*
G36*
G01Y40748D02*
X-35925D01*
Y39567D01*
X-33957D01*
Y40748D01*
G37*
G36*
G01Y43307D02*
X-35925D01*
Y42126D01*
X-33957D01*
Y43307D01*
G37*
G36*
G01Y45866D02*
X-35925D01*
Y44685D01*
X-33957D01*
Y45866D01*
G37*
G36*
G01X-31791Y22638D02*
Y20669D01*
X-30610D01*
Y22638D01*
X-31791D01*
G37*
G36*
G01X-34350D02*
Y20669D01*
X-33169D01*
Y22638D01*
X-34350D01*
G37*
G36*
G01X-29232D02*
Y20669D01*
X-28051D01*
Y22638D01*
X-29232D01*
G37*
G36*
G01X-6949Y46050D02*
Y36824D01*
X-6953Y36783D01*
X-6965Y36744D01*
X-6984Y36707D01*
X-7010Y36676D01*
X-7042Y36650D01*
X-7078Y36630D01*
X-7118Y36618D01*
X-7158Y36614D01*
X-13727D01*
X-13768Y36618D01*
X-13807Y36630D01*
X-13844Y36650D01*
X-13876Y36676D01*
X-13902Y36707D01*
X-13921Y36744D01*
X-13933Y36783D01*
X-13937Y36824D01*
Y46050D01*
X-13933Y46091D01*
X-13921Y46130D01*
X-13902Y46167D01*
X-13876Y46198D01*
X-13844Y46224D01*
X-13807Y46244D01*
X-13768Y46256D01*
X-13727Y46260D01*
X-7158D01*
X-7118Y46256D01*
X-7078Y46244D01*
X-7042Y46224D01*
X-7010Y46198D01*
X-6984Y46167D01*
X-6965Y46130D01*
X-6953Y46091D01*
X-6949Y46050D01*
G37*
G36*
G01X-12795Y38189D02*
X-14764D01*
Y37008D01*
X-12795D01*
Y38189D01*
G37*
G36*
G01X-15932Y28484D02*
X-6706D01*
X-6665Y28480D01*
X-6626Y28469D01*
X-6589Y28449D01*
X-6557Y28423D01*
X-6531Y28391D01*
X-6512Y28355D01*
X-6500Y28315D01*
X-6496Y28275D01*
Y21706D01*
X-6500Y21665D01*
X-6512Y21626D01*
X-6531Y21589D01*
X-6557Y21557D01*
X-6589Y21531D01*
X-6626Y21512D01*
X-6665Y21500D01*
X-6706Y21496D01*
X-15932D01*
X-15973Y21500D01*
X-16012Y21512D01*
X-16048Y21531D01*
X-16080Y21557D01*
X-16106Y21589D01*
X-16126Y21626D01*
X-16138Y21665D01*
X-16142Y21706D01*
Y28275D01*
X-16138Y28315D01*
X-16126Y28355D01*
X-16106Y28391D01*
X-16080Y28423D01*
X-16048Y28449D01*
X-16012Y28469D01*
X-15973Y28480D01*
X-15932Y28484D01*
G37*
G36*
G01X-10630Y22638D02*
Y20669D01*
X-9449D01*
Y22638D01*
X-10630D01*
G37*
G36*
G01X-13189D02*
Y20669D01*
X-12008D01*
Y22638D01*
X-13189D01*
G37*
G36*
G01X-15748D02*
Y20669D01*
X-14567D01*
Y22638D01*
X-15748D01*
G37*
G36*
G01X-8071D02*
Y20669D01*
X-6890D01*
Y22638D01*
X-8071D01*
G37*
G36*
G01X-12795Y40748D02*
X-14764D01*
Y39567D01*
X-12795D01*
Y40748D01*
G37*
G36*
G01Y43307D02*
X-14764D01*
Y42126D01*
X-12795D01*
Y43307D01*
G37*
G36*
G01Y45866D02*
X-14764D01*
Y44685D01*
X-12795D01*
Y45866D01*
G37*
G36*
G01X5524Y28681D02*
X14751D01*
X14792Y28677D01*
X14831Y28665D01*
X14867Y28646D01*
X14899Y28620D01*
X14925Y28588D01*
X14945Y28552D01*
X14957Y28512D01*
X14961Y28472D01*
Y21903D01*
X14957Y21862D01*
X14945Y21822D01*
X14925Y21786D01*
X14899Y21754D01*
X14867Y21728D01*
X14831Y21709D01*
X14792Y21697D01*
X14751Y21693D01*
X5524D01*
X5484Y21697D01*
X5444Y21709D01*
X5408Y21728D01*
X5376Y21754D01*
X5350Y21786D01*
X5331Y21822D01*
X5319Y21862D01*
X5315Y21903D01*
Y28472D01*
X5319Y28512D01*
X5331Y28552D01*
X5350Y28588D01*
X5376Y28620D01*
X5408Y28646D01*
X5444Y28665D01*
X5484Y28677D01*
X5524Y28681D01*
G37*
G36*
G01X10827Y22835D02*
Y20866D01*
X12008D01*
Y22835D01*
X10827D01*
G37*
G36*
G01X8268D02*
Y20866D01*
X9449D01*
Y22835D01*
X8268D01*
G37*
G36*
G01X5709D02*
Y20866D01*
X6890D01*
Y22835D01*
X5709D01*
G37*
G36*
G01X13386D02*
Y20866D01*
X14567D01*
Y22835D01*
X13386D01*
G37*
G36*
G01X14409Y46050D02*
Y36824D01*
X14406Y36783D01*
X14394Y36744D01*
X14374Y36707D01*
X14348Y36676D01*
X14316Y36650D01*
X14280Y36630D01*
X14241Y36618D01*
X14200Y36614D01*
X7631D01*
X7590Y36618D01*
X7551Y36630D01*
X7515Y36650D01*
X7483Y36676D01*
X7457Y36707D01*
X7437Y36744D01*
X7425Y36783D01*
X7421Y36824D01*
Y46050D01*
X7425Y46091D01*
X7437Y46130D01*
X7457Y46167D01*
X7483Y46198D01*
X7515Y46224D01*
X7551Y46244D01*
X7590Y46256D01*
X7631Y46260D01*
X14200D01*
X14241Y46256D01*
X14280Y46244D01*
X14316Y46224D01*
X14348Y46198D01*
X14374Y46167D01*
X14394Y46130D01*
X14406Y46091D01*
X14409Y46050D01*
G37*
G36*
G01X8563Y38189D02*
X6594D01*
Y37008D01*
X8563D01*
Y38189D01*
G37*
G36*
G01Y40748D02*
X6594D01*
Y39567D01*
X8563D01*
Y40748D01*
G37*
G36*
G01Y43307D02*
X6594D01*
Y42126D01*
X8563D01*
Y43307D01*
G37*
G36*
G01Y45866D02*
X6594D01*
Y44685D01*
X8563D01*
Y45866D01*
G37*
G54D10*
X-57480Y-18996D03*
X-50000D03*
X-57480Y-10039D03*
X-50000D03*
X-57480Y-1083D03*
X-50000D03*
X-57480Y7874D03*
X-50000D03*
X-57480Y16831D03*
X-50000D03*
X-57480Y25787D03*
X-50000D03*
X-3445Y-43898D03*
X4035D03*
X19094Y-65945D03*
Y-56988D03*
X26575Y-65945D03*
Y-56988D03*
G54D20*
X-30118Y-50984D03*
X-26181D03*
X-19390D03*
X-15453D03*
X-26181Y-47343D03*
X-30118D03*
X-15453D03*
X-19390D03*
X-15846Y-16240D03*
X-19783D03*
X-15846Y-21063D03*
X-19783D03*
X-15846Y-6299D03*
X-19783D03*
X-15846Y-1378D03*
X-19783D03*
X-15846Y-11220D03*
X-19783D03*
X-15846Y3543D03*
X-19783D03*
X4134Y-36319D03*
X8071D03*
X29823Y-34350D03*
X25886D03*
X37992Y-33563D03*
Y-29921D03*
X38681Y-5807D03*
X34646Y5610D03*
X38583D03*
X34613Y13583D03*
X38550D03*
X38616Y9547D03*
X34679D03*
X37402Y23524D03*
Y27264D03*
X31398Y49114D03*
X35335D03*
X41929Y-33563D03*
Y-29921D03*
X41437Y-25591D03*
X45374D03*
X56594Y-6102D03*
X42618Y-5807D03*
X56594Y-9547D03*
X46293Y9547D03*
X42356D03*
X50033D03*
X53970D03*
X50000Y5610D03*
X53937D03*
X49967Y13583D03*
X53904D03*
X46260Y5610D03*
X42323D03*
X42290Y13583D03*
X46227D03*
X41339Y23524D03*
Y27264D03*
X60531Y-6102D03*
Y-9547D03*
X61614Y5610D03*
X57677D03*
X61647Y9547D03*
X57710D03*
X57644Y13583D03*
X61581D03*
X62894Y23130D03*
X58957D03*
Y27264D03*
X62894D03*
G54D11*
X-37008Y-51083D03*
Y-47146D03*
X-33465Y-51083D03*
Y-47146D03*
X-39862Y-31496D03*
Y-27559D03*
X-41929Y34449D03*
Y30512D03*
X-22835Y-51280D03*
Y-47343D03*
X-15945Y-31299D03*
Y-27362D03*
X-20669Y34449D03*
Y30512D03*
X-23228Y22441D03*
Y26378D03*
X-20472Y49213D03*
Y45276D03*
X984Y34449D03*
Y30512D03*
X-1870Y22441D03*
Y26378D03*
X689Y49213D03*
Y45276D03*
X19390Y22441D03*
Y26378D03*
X26870Y23425D03*
Y27362D03*
X23327Y23425D03*
Y27362D03*
X33957Y23425D03*
Y27362D03*
X30413D03*
Y23425D03*
X22244Y49213D03*
Y45276D03*
X51870Y23425D03*
Y27362D03*
X44783Y23425D03*
Y27362D03*
X48327Y23425D03*
Y27362D03*
X55413D03*
Y23425D03*
G54D21*
X-21752Y-44587D03*
X-23917D03*
Y-39862D03*
X-21752D03*
G54D30*
X29429Y54921D03*
X22736D03*
X52461Y98D03*
X59154D03*
G54D12*
X-33276Y-35236D03*
Y-32677D03*
Y-30118D03*
Y-27559D03*
X-22826Y-35236D03*
Y-27559D03*
Y-30118D03*
Y-32677D03*
G54D31*
G01X-32309Y-74409D02*
Y-65780D01*
G02X-41422Y-60424I35194J70308D01*
G02X-41911Y-56930I1352J1970D01*
G03X-44255Y-41572I-8016J6634D01*
G02X-47928Y-33343I4518J6951D01*
G03X-59739Y-26210I-7367J1146D01*
G02X-69257Y-23774I-3772J5075D01*
G02X-61807Y39263I69263J23772D01*
G02X-60430Y41408I24534J-14239D01*
G02X-56937Y41911I1976J-1345D01*
G03X-39893Y49971I6640J8009D01*
G01X-39902Y50423D01*
G02X-30900Y59899I9469J19D01*
G01X-6904Y59987D01*
X-6899D01*
G02X-6389Y59761I9J-665D01*
G03X5936Y59804I6148J4212D01*
G02X6451Y60037I513J-447D01*
G01X6456D01*
X30449Y60125D01*
G02X39516Y50279I-400J-9466D01*
G03X56612Y42322I10405J11D01*
G02X59707Y42307I1539J-1832D01*
G02X70055Y21396I-59696J-42557D01*
G02X69670Y-22618I-70055J-21396D01*
G02X59918Y-25769I-6015J1951D01*
G03X48160Y-32989I-4400J-6019D01*
G02X44552Y-41246I-8188J-1339D01*
G03X42321Y-56620I5737J-8681D01*
G02X41857Y-60118I-1831J-1537D01*
G02X32309Y-65746I-42097J60499D01*
G01Y-74409D01*
X-32309D01*
G01X-63783Y-250D02*
G03I-3149J0D01*
G01X-41911Y-56930D02*
G03X-44255Y-41572I-8016J6635D01*
G01X-41911Y-56930D02*
G03X-41422Y-60424I1841J-1523D01*
G01X-47928Y-33343D02*
G03X-44255Y-41572I8191J-1279D01*
G01X44552Y-41246D02*
G03X42321Y-56620I5737J-8681D01*
G01X44552Y-41246D02*
G03X48160Y-32989I-4579J6918D01*
G01X70074Y243D02*
G03I-3150J0D01*
G54D22*
X883Y-29213D03*
X-1085D03*
X-3054D03*
X-5023D03*
Y5787D03*
X-3054D03*
X-1085D03*
X883D03*
X18605Y-29213D03*
X16635D03*
X14667D03*
X12698D03*
X10729D03*
X8759D03*
X6791D03*
X4822D03*
X2853D03*
Y5787D03*
X4822D03*
X6791D03*
X8759D03*
X10729D03*
X12698D03*
X14667D03*
X16635D03*
X18605D03*
X24511Y-29213D03*
X22543D03*
X20574D03*
Y5787D03*
X22543D03*
X24511D03*
G54D13*
X-34606Y-19696D03*
X-41298Y-19713D03*
X-34626Y-12058D03*
X-41319Y-12076D03*
X-34646Y-4420D03*
X-41339Y-4438D03*
X-34666Y3218D03*
X-41359Y3200D03*
X-34686Y10855D03*
X-41379Y10838D03*
G54D14*
X-32480Y23680D03*
X-32915Y41437D03*
X-11754D03*
X-11319Y23680D03*
X10138Y23876D03*
X9605Y41437D03*
G54D23*
X-7756Y-26480D03*
Y-24511D03*
Y-22542D03*
Y-20573D03*
Y-18604D03*
Y-16635D03*
Y-14666D03*
Y-12697D03*
Y-10728D03*
Y-8759D03*
Y-6790D03*
Y-4821D03*
Y-2852D03*
Y-883D03*
Y1086D03*
Y3055D03*
X27244Y-16635D03*
Y-18604D03*
Y-20573D03*
Y-22542D03*
Y-24511D03*
Y-26480D03*
Y1086D03*
Y-883D03*
Y-2852D03*
Y-4821D03*
Y-6790D03*
Y-8759D03*
Y-10728D03*
Y-12697D03*
Y-14666D03*
Y3055D03*
G54D15*
X-33760Y20177D03*
X-36319D03*
Y32382D03*
X-33760D03*
X-28642Y20177D03*
X-31201D03*
Y32382D03*
X-28642D03*
X-7480Y20177D03*
X-10039D03*
X-12598D03*
X-15157D03*
Y32382D03*
X-12598D03*
X-10039D03*
X-7480D03*
X13976Y20374D03*
X11417D03*
X8858D03*
X6299D03*
Y32579D03*
X8858D03*
X11417D03*
X13976D03*
G54D24*
X5512Y-51476D03*
Y-64272D03*
G54D25*
X15846Y-44488D03*
X26870D03*
G54D16*
X-36417Y37598D03*
Y40157D03*
Y42717D03*
Y45276D03*
X-15256Y37598D03*
X-24213D03*
X-15256Y40157D03*
Y42717D03*
Y45276D03*
X-24213D03*
Y42717D03*
Y40157D03*
X-3051Y37598D03*
Y45276D03*
Y42717D03*
Y40157D03*
X6102Y37598D03*
X18307D03*
X6102Y40157D03*
Y42717D03*
Y45276D03*
X18307D03*
Y42717D03*
Y40157D03*
G54D26*
X9744Y-11713D03*
G54D17*
X-31594Y54232D03*
X-10925D03*
X9744D03*
G54D27*
X34646Y-52854D03*
Y-38091D03*
Y-43012D03*
Y-47933D03*
G54D18*
X-21555Y-71555D03*
X-25689D03*
X-14961D03*
X-10827D03*
G54D28*
X38681Y-19980D03*
Y-11319D03*
X45374Y-19980D03*
Y-11319D03*
G54D19*
X-26575Y-65610D03*
X-19094D03*
X-22835Y-56437D03*
G54D29*
X35335Y39375D03*
X31398Y39365D03*
Y44286D03*
X35335Y44296D03*
X56594Y-13785D03*
X60531Y-13774D03*
M02*
