G04 ================== begin FILE IDENTIFICATION RECORD ==================*
G04 Layout Name:  d:/project/07_foc/foc/circuit/candence/stm32/stspin32g4_foc.brd*
G04 Film Name:    top*
G04 File Format:  Gerber RS274X*
G04 File Origin:  Cadence Allegro 17.4-S039*
G04 Origin Date:  Thu Dec 11 19:06:32 2025*
G04 *
G04 Layer:  VIA CLASS/TOP*
G04 Layer:  PIN/TOP*
G04 Layer:  ETCH/TOP*
G04 *
G04 Offset:    (0.0000 0.0000)*
G04 Mirror:    No*
G04 Mode:      Positive*
G04 Rotation:  0*
G04 FullContactRelief:  No*
G04 UndefLineWidth:     0.1524*
G04 ================== end FILE IDENTIFICATION RECORD ====================*
%FSLAX25Y25*MOIN*%
%IR0*IPPOS*OFA0.00000B0.00000*MIA0B0*SFA1.00000B1.00000*%
%ADD26R,.031496X.03937*%
%ADD10C,.023622*%
%ADD13R,.0395X.018*%
%ADD21R,.023228X.054724*%
%ADD32R,.043307X.03937*%
%AMMACRO14*
21,1,.043307,.03937,0.0,0.0,.15*%
%ADD14MACRO14*%
%ADD11R,.051181X.059055*%
%ADD23R,.011811X.019685*%
%ADD20R,.015748X.019685*%
%ADD18R,.027559X.015748*%
%ADD27R,.062992X.106299*%
%ADD16R,.015748X.027559*%
%ADD15R,.100394X.098819*%
%ADD17R,.098819X.100394*%
%ADD29C,.04*%
%ADD12R,.025591X.023622*%
%ADD22R,.023622X.025591*%
%AMMACRO31*
21,1,.023622,.025591,0.0,0.0,.15*%
%ADD31MACRO31*%
%ADD19R,.059055X.059055*%
%ADD30R,.04724X.055118*%
%ADD25R,.032X.01*%
%ADD24R,.01X.032*%
%ADD28R,.161X.161*%
%ADD33C,.007874*%
%ADD34C,.011811*%
%ADD35C,.019685*%
%ADD36C,.070886*%
%ADD37C,.070898*%
G75*
%LPD*%
G75*
G36*
G01X-60104Y41185D02*
G02X-57189Y41607I1651J-1121D01*
G02X-57188Y41606I-140J-141D01*
G03X-54454Y39954I6891J8314D01*
G02X-54331Y39769I-77J-185D01*
G01Y39698D01*
X-54365D01*
X-54331Y18584D01*
Y-23966D01*
G02X-54394Y-24112I-200J0D01*
G01X-54671Y-24371D01*
X-54722Y-24367D01*
G03X-59974Y-25893I-573J-7829D01*
G02X-68887Y-23637I-3538J4759D01*
G02X-68895Y-23617I182J84D01*
G02X-61472Y39054I68900J23615D01*
G03X-61468Y39061I-173J101D01*
G02X-60107Y41181I24194J-14039D01*
G03X-60104Y41185I-159J121D01*
G37*
G36*
G01X-53146Y38681D02*
X-43606D01*
G02X-43406Y38481I0J-200D01*
G01Y36158D01*
X-43451Y36071D01*
X-43492Y36043D01*
G03X-43709Y35630I283J-413D01*
G01Y33268D01*
G03X-43492Y32855I500J0D01*
G01X-43451Y32827D01*
X-43406Y32740D01*
Y32221D01*
X-43451Y32134D01*
X-43492Y32106D01*
G03X-43709Y31693I283J-413D01*
G01Y29331D01*
G03X-43492Y28918I500J0D01*
G01X-43451Y28890D01*
X-43406Y28803D01*
Y18783D01*
G03X-43347Y18642I200J0D01*
G01X-39232Y14527D01*
G02X-39173Y14386I-141J-142D01*
G01Y-21359D01*
G02X-39369Y-21559I-200J0D01*
G01X-53044Y-21846D01*
G02X-53189Y-21789I-5J200D01*
G01X-53217Y-21761D01*
X-53248Y-21687D01*
X-53346Y38481D01*
G02X-53146Y38681I200J0D01*
G37*
G36*
G01X-29075Y-26221D02*
X-28673Y-25819D01*
G02X-28391I141J-142D01*
G01X-26648Y-27561D01*
G02X-26590Y-27703I-141J-142D01*
G01Y-28830D01*
G03X-26328Y-29462I895J0D01*
G01X-25361Y-30429D01*
G02X-25302Y-30570I-142J-141D01*
G01Y-31018D01*
G03X-24802Y-31519I501J0D01*
G01X-20851D01*
G03X-20369Y-31150I0J501D01*
G02X-20284Y-31035I193J-53D01*
G03X-20173Y-30953I-593J916D01*
G02X-20044Y-30906I129J-153D01*
G01X-18733D01*
G03X-17961Y-30587I0J1091D01*
G01X-17774Y-30399D01*
X-17729Y-30373D01*
X-17704Y-30366D01*
G03X-17224Y-30086I-291J1052D01*
G01X-16241Y-29103D01*
G02X-16099Y-29044I142J-141D01*
G01X-14944D01*
G02X-14822Y-29086I0J-200D01*
G03X-13484Y-29544I1337J1724D01*
G03X-11917Y-28880I0J2181D01*
G01X-11874Y-28836D01*
X-11754Y-28811D01*
X-11354Y-28972D01*
G02X-11229Y-29158I-75J-185D01*
G01Y-29349D01*
G03X-10967Y-29981I895J0D01*
G01X-10099Y-30850D01*
G02X-10040Y-30991I-141J-142D01*
G01Y-31804D01*
G02X-10099Y-31946I-200J0D01*
G01X-12436Y-34283D01*
G02X-12578Y-34342I-142J141D01*
G01X-20245D01*
X-20352Y-34261D01*
X-20370Y-34197D01*
G03X-20851Y-33835I-481J-139D01*
G01X-24802D01*
G03X-25302Y-34336I0J-501D01*
G01Y-36136D01*
G03X-24802Y-36637I501J0D01*
G01X-20851D01*
G03X-20370Y-36275I0J501D01*
G01X-20352Y-36211D01*
X-20245Y-36131D01*
X-12124D01*
G03X-11492Y-35869I0J895D01*
G01X-8513Y-32890D01*
G03X-8251Y-32257I-633J632D01*
G01Y-30538D01*
G03X-8513Y-29905I-895J0D01*
G01X-9381Y-29037D01*
G02X-9440Y-28895I141J142D01*
G01Y-28412D01*
G02X-9381Y-28270I200J0D01*
G01X-8650Y-27539D01*
G02X-8509Y-27481I142J-141D01*
G01X-6224D01*
G02X-6024Y-27681I0J-200D01*
G01Y-30813D01*
G03X-5523Y-31313I501J0D01*
G01X7537D01*
G02X7722Y-31437I0J-200D01*
G01X7745Y-31493D01*
X7721Y-31611D01*
X5357Y-33976D01*
G03X5298Y-34117I141J-142D01*
G01Y-37298D01*
G02X5240Y-37439I-200J0D01*
G01X4565Y-38114D01*
G02X4424Y-38172I-142J141D01*
G01X1341D01*
G03X1200Y-38231I0J-200D01*
G01X-548Y-39980D01*
G03X-607Y-40121I141J-142D01*
G01Y-47871D01*
G03X-548Y-48013I200J0D01*
G01X609Y-49170D01*
G03X751Y-49229I142J141D01*
G01X3236D01*
G02X3436Y-49429I0J-200D01*
G01Y-53445D01*
G03X3937Y-53946I501J0D01*
G01X4114D01*
G02X4314Y-54146I0J-200D01*
G01Y-54564D01*
G03X4373Y-54706I200J0D01*
G01X5432Y-55765D01*
G03X5574Y-55824I142J141D01*
G01X7419D01*
G03X7560Y-55765I0J200D01*
G01X9608Y-53717D01*
G02X9749Y-53658I142J-141D01*
G01X16478D01*
X16505Y-53667D01*
G03X17126Y-53757I621J2092D01*
G03X17796Y-53652I1J2182D01*
G01X17826Y-53642D01*
X22520D01*
G02X22720Y-53842I0J-200D01*
G01Y-67458D01*
G03X22778Y-67599I200J0D01*
G01X23456Y-68277D01*
G02X23515Y-68419I-141J-142D01*
G01Y-68898D01*
G03X24016Y-69398I501J0D01*
G01X29134D01*
G03X29610Y-69052I0J501D01*
G01X29630Y-68991D01*
X29735Y-68914D01*
X30114D01*
G02X30314Y-69114I0J-200D01*
G01Y-71866D01*
G02X30256Y-72007I-200J0D01*
G01X29594Y-72669D01*
G02X29452Y-72728I-142J141D01*
G01X-13472D01*
G02X-13672Y-72528I0J200D01*
G01Y-70571D01*
G03X-14173Y-70070I-501J0D01*
G01X-14901D01*
G02X-15043Y-70011I0J200D01*
G01X-16446Y-68607D01*
G03X-17079Y-68346I-632J-633D01*
G01X-17232D01*
G02X-17432Y-68146I0J200D01*
G01Y-62874D01*
G03X-17497Y-62628I-501J0D01*
G02X-17522Y-62516I174J98D01*
G01X-17515Y-62397D01*
G02X-17465Y-62277I200J-13D01*
G03X-16913Y-60827I-1630J1450D01*
G03X-17015Y-60165I-2182J0D01*
G01X-17032Y-60112D01*
X-17006Y-60003D01*
X-14820Y-57818D01*
G03X-14558Y-57185I-633J632D01*
G01Y-52965D01*
G02X-14358Y-52765I200J0D01*
G01X-14272D01*
G03X-13771Y-52264I0J501D01*
G01Y-49705D01*
G03X-13871Y-49404I-501J0D01*
G01X-13891Y-49378D01*
X-13911Y-49316D01*
Y-49011D01*
X-13891Y-48949D01*
X-13871Y-48923D01*
G03X-13771Y-48622I-400J301D01*
G01Y-46063D01*
G03X-14272Y-45562I-501J0D01*
G01X-15787D01*
G02X-15928Y-45504I0J200D01*
G01X-17478Y-43954D01*
G03X-18110Y-43692I-632J-633D01*
G01X-20543D01*
X-20655Y-43596D01*
X-20667Y-43524D01*
G03X-21161Y-43102I-494J-79D01*
G01X-24508D01*
G03X-25002Y-43524I0J-501D01*
G01X-25014Y-43596D01*
X-25126Y-43692D01*
X-27461D01*
G03X-28093Y-43954I0J-895D01*
G01X-29643Y-45504D01*
G02X-29784Y-45562I-142J141D01*
G01X-31299D01*
G03X-31525Y-45616I0J-500D01*
G02X-31638Y-45637I-91J178D01*
G01X-31761Y-45623D01*
G02X-31866Y-45578I22J199D01*
G03X-32185Y-45464I-319J-387D01*
G01X-32370D01*
G02X-32570Y-45264I0J200D01*
G01Y-43602D01*
G03X-32832Y-42970I-895J0D01*
G01X-41271Y-34531D01*
G02X-41330Y-34389I141J142D01*
G01Y-29441D01*
G02X-41130Y-29241I200J0D01*
G01X-38583D01*
G03X-38088Y-28819I0J501D01*
G01X-38076Y-28746D01*
X-37965Y-28650D01*
X-36136D01*
G02X-35982Y-28723I0J-200D01*
G01X-35757Y-28994D01*
X-35735Y-29081D01*
X-35743Y-29125D01*
G03X-35752Y-29218I492J-95D01*
G01Y-31018D01*
G03X-35695Y-31250I501J0D01*
G02X-35672Y-31343I-177J-93D01*
G01Y-31452D01*
G02X-35695Y-31545I-200J0D01*
G03X-35752Y-31777I444J-232D01*
G01Y-33577D01*
G03X-35251Y-34078I501J0D01*
G01X-31301D01*
G03X-31199Y-34067I-1J501D01*
G01X-31154Y-34058D01*
X-31067Y-34079D01*
X-30791Y-34304D01*
G02X-30717Y-34459I-126J-155D01*
G01Y-38583D01*
G03X-30456Y-39215I895J0D01*
G01X-29176Y-40495D01*
G03X-28543Y-40757I632J633D01*
G01X-25126D01*
X-25014Y-40852D01*
X-25002Y-40925D01*
G03X-24508Y-41347I494J79D01*
G01X-21161D01*
G03X-20661Y-40846I0J501D01*
G01Y-38878D01*
G03X-21161Y-38377I-501J0D01*
G01X-21215D01*
G02X-21357Y-38319I0J200D01*
G01X-22324Y-37352D01*
G03X-22956Y-37090I-632J-633D01*
G01X-27204D01*
G02X-27345Y-37031I0J200D01*
G01X-27492Y-36885D01*
G02X-27550Y-36743I141J142D01*
G01Y-32080D01*
G03X-27812Y-31448I-895J0D01*
G01X-29774Y-29485D01*
G03X-30407Y-29224I-632J-633D01*
G01X-30694D01*
X-30801Y-29143D01*
X-30820Y-29079D01*
G03X-30857Y-28986I-481J-140D01*
G02X-30880Y-28893I177J93D01*
G01Y-28784D01*
G02X-30857Y-28691I200J0D01*
G03X-30800Y-28459I-444J232D01*
G01Y-26480D01*
G02X-30600Y-26280I200J0D01*
G01X-29217D01*
G03X-29075Y-26221I0J200D01*
G37*
G36*
G01X-37694Y14665D02*
X-32532D01*
G02X-32391Y14607I0J-200D01*
G01X-31071Y13287D01*
G02X-31013Y13146I-141J-142D01*
G01Y-10827D01*
G03X-30839Y-11417I1091J0D01*
G02X-30807Y-11526I-168J-108D01*
G01Y-21847D01*
G02X-31007Y-22047I-200J0D01*
G01X-37694D01*
G02X-37894Y-21847I0J200D01*
G01Y14465D01*
G02X-37694Y14665I200J0D01*
G37*
G36*
G01X-33347Y30020D02*
X-24520D01*
G02X-24320Y29820I0J-200D01*
G01Y28342D01*
G02X-24377Y28201I-200J0D01*
G01X-24465Y28113D01*
G02X-24579Y28055I-143J140D01*
G03X-25009Y27559I71J-496D01*
G01Y25197D01*
G03X-24508Y24696I501J0D01*
G01X-21961D01*
G02X-21761Y24496I0J-200D01*
G01Y24323D01*
G02X-21961Y24123I-200J0D01*
G01X-24508D01*
G03X-25009Y23622I0J-501D01*
G01Y20902D01*
G02X-25043Y20791I-200J0D01*
G03X-25410Y19579I1814J-1212D01*
G03X-25389Y19279I2182J1D01*
G01X-25383Y19235D01*
X-25408Y19153D01*
X-25634Y18893D01*
G02X-25785Y18824I-151J132D01*
G01X-37481Y18804D01*
G02X-37623Y18863I0J200D01*
G01X-38630Y19869D01*
G02X-38689Y20011I141J142D01*
G01Y28123D01*
G02X-38630Y28265I200J0D01*
G01X-38131Y28763D01*
G02X-37989Y28822I142J-141D01*
G01X-35080D01*
G03X-34308Y29142I0J1091D01*
G01X-33489Y29961D01*
G02X-33347Y30020I142J-141D01*
G37*
G36*
G01X-34565Y31224D02*
Y38698D01*
G02X-34365Y38898I200J0D01*
G01X-28072D01*
G02X-27872Y38698I0J-200D01*
G01Y31224D01*
G02X-28072Y31024I-200J0D01*
G01X-34365D01*
G02X-34565Y31224I0J200D01*
G37*
G36*
G01X-28051Y57280D02*
Y39669D01*
G02X-28251Y39469I-200J0D01*
G01X-34643D01*
G02X-34843Y39669I0J200D01*
G01Y57280D01*
G02X-34643Y57480I200J0D01*
G01X-28251D01*
G02X-28051Y57280I0J-200D01*
G37*
G36*
G01X-17708Y-48622D02*
Y-46737D01*
G02X-17584Y-46552I200J0D01*
G01X-17528Y-46528D01*
X-17410Y-46552D01*
X-17193Y-46769D01*
G02X-17135Y-46910I-141J-142D01*
G01Y-48622D01*
G03X-17034Y-48923I501J0D01*
G01X-17015Y-48949D01*
X-16994Y-49011D01*
Y-49316D01*
X-17015Y-49378D01*
X-17034Y-49404D01*
G03X-17135Y-49705I400J-301D01*
G01Y-52264D01*
G03X-16634Y-52765I501J0D01*
G01X-16547D01*
G02X-16347Y-52965I0J-200D01*
G01Y-56731D01*
G02X-16406Y-56873I-200J0D01*
G01X-18271Y-58738D01*
X-18380Y-58765D01*
X-18433Y-58748D01*
G03X-19094Y-58645I-662J-2079D01*
G03X-21276Y-60827I0J-2182D01*
G03X-20724Y-62277I2182J0D01*
G02X-20674Y-62397I-150J-133D01*
G01X-20667Y-62516D01*
G02X-20692Y-62628I-200J-14D01*
G03X-20757Y-62874I436J-247D01*
G01Y-68146D01*
G02X-20957Y-68346I-200J0D01*
G01X-24713D01*
G02X-24913Y-68146I0J200D01*
G01Y-62874D01*
G03X-24978Y-62628I-501J0D01*
G02X-25003Y-62516I174J98D01*
G01X-24995Y-62397D01*
G02X-24945Y-62277I200J-13D01*
G03X-24393Y-60827I-1630J1450D01*
G03X-26575Y-58645I-2182J0D01*
G03X-27236Y-58748I0J-2182D01*
G01X-27290Y-58765D01*
X-27398Y-58738D01*
X-29165Y-56972D01*
G02X-29224Y-56830I141J142D01*
G01Y-52965D01*
G02X-29024Y-52765I200J0D01*
G01X-28937D01*
G03X-28436Y-52264I0J501D01*
G01Y-49705D01*
G03X-28537Y-49404I-501J0D01*
G01X-28556Y-49378D01*
X-28577Y-49316D01*
Y-49011D01*
X-28556Y-48949D01*
X-28537Y-48923D01*
G03X-28436Y-48622I-400J301D01*
G01Y-46910D01*
G02X-28378Y-46769I200J0D01*
G01X-28204Y-46595D01*
G02X-27986Y-46552I142J-141D01*
G01X-27930Y-46575D01*
X-27863Y-46676D01*
Y-48622D01*
G03X-27362Y-49123I501J0D01*
G01X-25000D01*
G03X-24681Y-49008I0J501D01*
G02X-24576Y-48964I127J-154D01*
G01X-24453Y-48950D01*
G02X-24340Y-48970I22J-199D01*
G03X-24114Y-49024I226J446D01*
G01X-21555D01*
G03X-21290Y-48948I0J501D01*
G02X-21165Y-48919I106J-170D01*
G01X-21032Y-48932D01*
G02X-20915Y-48986I-20J-199D01*
G03X-20571Y-49123I344J364D01*
G01X-18209D01*
G03X-17708Y-48622I0J501D01*
G37*
G36*
G01X-13540Y14460D02*
X-4700D01*
G02X-4515Y14336I0J-200D01*
G01X-4492Y14280D01*
X-4516Y14162D01*
X-5307Y13370D01*
G03X-5627Y12598I771J-772D01*
G01Y10343D01*
G03X-5307Y9571I1091J0D01*
G01X-4204Y8468D01*
G02X-4146Y8326I-141J-142D01*
G01Y5787D01*
G03X-4069Y5386I1091J0D01*
G01X-4055Y5350D01*
Y4591D01*
G02X-4114Y4449I-200J0D01*
G01X-4370Y4193D01*
G02X-4512Y4134I-142J141D01*
G01X-12614D01*
G02X-12756Y4193I0J200D01*
G01X-13819Y5256D01*
G03X-13961Y5315I-142J-141D01*
G01X-14571D01*
X-14587Y5317D01*
G03X-14665Y5324I-79J-494D01*
G01X-17028D01*
G03X-17106Y5317I1J-501D01*
G01X-17122Y5315D01*
X-18421D01*
G02X-18563Y5374I0J200D01*
G01X-18572Y5383D01*
X-18602Y5456D01*
Y6118D01*
G03X-18661Y6259I-200J0D01*
G01X-18662Y6260D01*
X-18692Y6333D01*
Y9307D01*
G02X-18633Y9449I200J0D01*
G01X-13681Y14401D01*
G02X-13540Y14460I142J-141D01*
G37*
G36*
G01X-11508Y30020D02*
X-5212D01*
G02X-5012Y29820I0J-200D01*
G01Y28330D01*
G03X-4693Y27559I1091J0D01*
G01X-3709Y26575D01*
G02X-3650Y26433I-141J-142D01*
G01Y25197D01*
G03X-3150Y24696I501J0D01*
G01X-591D01*
G03X-544Y24698I2J501D01*
G01X-502Y24702D01*
X-422Y24675D01*
X-172Y24448D01*
G02X-107Y24300I-135J-148D01*
G01Y24263D01*
G02X-307Y24063I-200J0D01*
G01X-349D01*
X-388Y24080D01*
G03X-591Y24123I-203J-458D01*
G01X-3150D01*
G03X-3650Y23622I0J-501D01*
G01Y21402D01*
G02X-3684Y21291I-200J0D01*
G03X-4052Y20079I1814J-1212D01*
G03X-3939Y19387I2182J0D01*
G01X-3924Y19341D01*
X-3939Y19246D01*
X-4156Y18944D01*
G02X-4318Y18861I-162J117D01*
G01X-17696Y18838D01*
G02X-17897Y19038I0J200D01*
G01Y27655D01*
G02X-17838Y27796I200J0D01*
G01X-17060Y28574D01*
G02X-16919Y28633I142J-141D01*
G01X-13287D01*
G03X-12516Y28953I0J1091D01*
G01X-11827Y29642D01*
G03X-11629Y29912I-771J772D01*
G01X-11604Y29962D01*
X-11508Y30020D01*
G37*
G36*
G01X-25590Y43504D02*
X-25583Y43510D01*
X-17419D01*
G02X-17219Y43311I0J-200D01*
G01X-17210Y37024D01*
G02X-17410Y36824I-200J0D01*
G01X-25390Y36817D01*
G02X-25590Y37017I0J200D01*
G01Y43504D01*
G37*
G36*
G01X18015Y-27461D02*
X18740D01*
X18803Y-27483D01*
X18830Y-27503D01*
G03X19183Y-27730I1349J1715D01*
G02X19291Y-27907I-91J-178D01*
G01Y-31020D01*
G02X19233Y-31161I-200J0D01*
G01X11771Y-38622D01*
G03X11713Y-38764I141J-142D01*
G01Y-45882D01*
G02X11654Y-46023I-200J0D01*
G01X9507Y-48170D01*
G02X9366Y-48228I-142J141D01*
G01X1165D01*
G02X1024Y-48170I0J200D01*
G01X452Y-47598D01*
G02X394Y-47457I141J142D01*
G01Y-40535D01*
G02X452Y-40394I200J0D01*
G01X1615Y-39232D01*
G02X1756Y-39173I142J-141D01*
G01X4839D01*
G03X4980Y-39115I0J200D01*
G01X6241Y-37854D01*
G03X6299Y-37713I-141J142D01*
G01Y-34531D01*
G02X6358Y-34390I200J0D01*
G01X9376Y-31372D01*
G02X9517Y-31313I142J-141D01*
G01X17135D01*
G03X17636Y-30813I0J501D01*
G01Y-30773D01*
G02X17695Y-30632I200J0D01*
G01X17756Y-30570D01*
G03X17815Y-30429I-141J142D01*
G01Y-27661D01*
G02X18015Y-27461I200J0D01*
G37*
G36*
G01X18596Y3687D02*
X24943D01*
G02X25143Y3487I0J-200D01*
G01Y2555D01*
G03X25243Y2256I501J0D01*
G02X25282Y2136I-160J-120D01*
G01Y2005D01*
G02X25243Y1885I-200J0D01*
G03X25143Y1586I402J-299D01*
G01Y586D01*
G03X25243Y287I501J0D01*
G02X25282Y167I-160J-120D01*
G01Y36D01*
G02X25243Y-84I-200J0D01*
G03X25143Y-383I402J-299D01*
G01Y-1383D01*
G03X25243Y-1682I501J0D01*
G02X25282Y-1802I-160J-120D01*
G01Y-1933D01*
G02X25243Y-2053I-200J0D01*
G03X25143Y-2352I402J-299D01*
G01Y-3352D01*
G03X25243Y-3652I501J0D01*
G02X25282Y-3771I-160J-120D01*
G01Y-3902D01*
G02X25243Y-4022I-200J0D01*
G03X25143Y-4321I402J-299D01*
G01Y-5321D01*
G03X25243Y-5620I501J0D01*
G02X25282Y-5740I-160J-120D01*
G01Y-5871D01*
G02X25243Y-5991I-200J0D01*
G03X25143Y-6290I402J-299D01*
G01Y-7290D01*
G03X25243Y-7589I501J0D01*
G02X25282Y-7709I-160J-120D01*
G01Y-7840D01*
G02X25243Y-7960I-200J0D01*
G03X25143Y-8259I402J-299D01*
G01Y-8876D01*
G02X25020Y-9060I-200J0D01*
G01X24964Y-9083D01*
X24845Y-9060D01*
X23849Y-8063D01*
X23820Y-8005D01*
X23815Y-7972D01*
G03X21654Y-6086I-2162J-295D01*
G03X19472Y-8268I0J-2182D01*
G03X20824Y-10286I2182J0D01*
G01X20881Y-10309D01*
X20948Y-10409D01*
Y-23232D01*
G02X20879Y-23383I-200J0D01*
G01X20617Y-23610D01*
X20534Y-23634D01*
X20491Y-23628D01*
G03X20177Y-23606I-312J-2160D01*
G03X19798Y-23639I-1J-2182D01*
G01X19747Y-23648D01*
X19650Y-23615D01*
X19353Y-23288D01*
X19329Y-23188D01*
X19343Y-23138D01*
G03X19422Y-22555I-2103J582D01*
G03X17240Y-20373I-2182J0D01*
G03X15432Y-21333I0J-2182D01*
G01X15402Y-21378D01*
X15308Y-21424D01*
X14858Y-21398D01*
X14770Y-21340D01*
X14745Y-21293D01*
G03X12806Y-20110I-1940J-999D01*
G03X11224Y-20788I0J-2182D01*
G01X11189Y-20826D01*
X11091Y-20857D01*
X10659Y-20771D01*
X10580Y-20705D01*
X10561Y-20657D01*
G03X8526Y-19262I-2035J-787D01*
G03X6486Y-20670I0J-2182D01*
G01X6465Y-20725D01*
X6371Y-20795D01*
X5891Y-20827D01*
X5788Y-20770D01*
X5760Y-20718D01*
G03X3839Y-19570I-1921J-1034D01*
G03X2741Y-19867I0J-2182D01*
G01X2691Y-19896D01*
X2576Y-19891D01*
X2181Y-19622D01*
X2135Y-19516D01*
X2144Y-19459D01*
G03X2171Y-19120I-2156J338D01*
G03X-11Y-16938I-2182J0D01*
G03X-990Y-17170I0J-2181D01*
G01X-1042Y-17196D01*
X-1158Y-17184D01*
X-1534Y-16883D01*
X-1571Y-16773D01*
X-1557Y-16716D01*
G03X-1493Y-16189I-2117J527D01*
G03X-3674Y-14007I-2182J0D01*
G03X-5306Y-14739I0J-2182D01*
G01X-5334Y-14772D01*
X-5412Y-14807D01*
X-5455D01*
G02X-5655Y-14607I0J200D01*
G01Y-14166D01*
G03X-5754Y-13867I-501J0D01*
G02X-5794Y-13747I160J120D01*
G01Y-13616D01*
G02X-5754Y-13496I200J0D01*
G03X-5655Y-13197I-402J299D01*
G01Y-12197D01*
G03X-5754Y-11898I-501J0D01*
G02X-5794Y-11778I160J120D01*
G01Y-11647D01*
G02X-5754Y-11528I200J0D01*
G03X-5655Y-11228I-402J299D01*
G01Y-10228D01*
G03X-5754Y-9929I-501J0D01*
G02X-5794Y-9809I160J120D01*
G01Y-9678D01*
G02X-5754Y-9558I200J0D01*
G03X-5655Y-9259I-402J299D01*
G01Y-8259D01*
G03X-5754Y-7960I-501J0D01*
G02X-5794Y-7840I160J120D01*
G01Y-7709D01*
G02X-5754Y-7589I200J0D01*
G03X-5655Y-7290I-402J299D01*
G01Y-6290D01*
G03X-5754Y-5991I-501J0D01*
G02X-5794Y-5871I160J120D01*
G01Y-5740D01*
G02X-5754Y-5620I200J0D01*
G03X-5655Y-5321I-402J299D01*
G01Y-4321D01*
G03X-5754Y-4022I-501J0D01*
G02X-5794Y-3902I160J120D01*
G01Y-3771D01*
G02X-5754Y-3652I200J0D01*
G03X-5655Y-3352I-402J299D01*
G01Y-2352D01*
G03X-5754Y-2053I-501J0D01*
G02X-5794Y-1933I160J120D01*
G01Y-1802D01*
G02X-5754Y-1682I200J0D01*
G03X-5730Y-1647I-402J298D01*
G02X-5366Y-1704I170J-106D01*
G03X-3248Y-3363I2118J523D01*
G03X-1415Y-2364I0J2182D01*
G02X-1246Y-2272I168J-108D01*
G01X14337D01*
G02X14505Y-2364I0J-200D01*
G03X16339Y-3363I1833J1183D01*
G03X18520Y-1181I0J2182D01*
G03X18058Y162I-2182J0D01*
G02X18066Y419I158J123D01*
G03X18619Y1870I-1630J1452D01*
G03X18261Y3067I-2182J0D01*
G01X18231Y3113D01*
X18226Y3223D01*
X18420Y3581D01*
G02X18596Y3687I176J-95D01*
G37*
G36*
G01X-4420Y37017D02*
Y43310D01*
G02X-4219Y43510I200J0D01*
G01X3884Y43496D01*
G02X4084Y43296I0J-200D01*
G01X4074Y37195D01*
G02X4015Y37054I-200J1D01*
G01X3854Y36894D01*
G03X3846Y36885I768J-776D01*
G01X3818Y36857D01*
X3744Y36825D01*
X-4220Y36817D01*
G02X-4420Y37017I0J200D01*
G37*
G36*
G01X-13380Y31246D02*
Y38720D01*
G02X-13180Y38920I200J0D01*
G01X-6887D01*
G02X-6687Y38720I0J-200D01*
G01Y31246D01*
G02X-6887Y31046I-200J0D01*
G01X-13180D01*
G02X-13380Y31246I0J200D01*
G37*
G36*
G01X-6826Y57238D02*
Y39561D01*
G02X-7026Y39361I-200J0D01*
G01X-13927D01*
G02X-14127Y39561I0J200D01*
G01Y57238D01*
G02X-13927Y57438I200J0D01*
G01X-7026D01*
G02X-6826Y57238I0J-200D01*
G37*
G36*
G01X20391Y-27960D02*
X20466Y-27950D01*
G03X20754Y-27892I-287J2163D01*
G01X20800Y-27879D01*
X20891Y-27897D01*
X21181Y-28119D01*
G02X21260Y-28278I-121J-159D01*
G01Y-36827D01*
G02X21201Y-36968I-200J0D01*
G01X19055Y-39115D01*
G03X18996Y-39256I141J-142D01*
G01Y-44196D01*
G02X18970Y-44295I-200J0D01*
G03X18684Y-45374I1897J-1079D01*
G03X18970Y-46453I2182J0D01*
G02X18996Y-46552I-174J-99D01*
G01Y-49720D01*
G02X18937Y-49862I-200J0D01*
G01X18800Y-49999D01*
X18641Y-50003D01*
X18582Y-49950D01*
G03X17126Y-49393I-1456J-1625D01*
G03X14944Y-51575I0J-2182D01*
G03X15022Y-52152I2182J0D01*
G01X15034Y-52197D01*
X15017Y-52289D01*
X14795Y-52579D01*
G02X14636Y-52657I-159J121D01*
G01X9335D01*
G03X9193Y-52716I0J-200D01*
G01X7145Y-54764D01*
G02X7004Y-54823I-142J141D01*
G01X5988D01*
G02X5847Y-54764I0J200D01*
G01X5374Y-54291D01*
G02X5315Y-54150I141J142D01*
G01Y-50083D01*
G02X5374Y-49941I200J0D01*
G01X6027Y-49288D01*
G02X6169Y-49229I142J-141D01*
G01X9781D01*
G03X9922Y-49170I0J200D01*
G01X12655Y-46438D01*
G03X12713Y-46296I-141J142D01*
G01Y-39178D01*
G02X12772Y-39037I200J0D01*
G01X20233Y-31576D01*
G03X20292Y-31434I-141J142D01*
G01Y-28073D01*
X20391Y-27960D01*
G37*
G36*
G01X9074Y30020D02*
X17320D01*
G02X17520Y29820I0J-200D01*
G01Y19136D01*
G02X17320Y18936I-200J0D01*
G01X5837D01*
G03X5511Y18886I0J-1091D01*
G01X5481Y18877D01*
X4343Y18875D01*
G02X4143Y19075I0J200D01*
G01Y27758D01*
G02X4201Y27900I200J0D01*
G01X5262Y28960D01*
G02X5404Y29019I142J-141D01*
G01X7539D01*
G03X8310Y29339I0J1091D01*
G01X8933Y29961D01*
G02X9074Y30020I142J-141D01*
G37*
G36*
G01X8291Y39097D02*
X14547D01*
G02X14747Y38897I0J-200D01*
G01Y36359D01*
G03X14778Y36100I1091J-1D01*
G01X14784Y36076D01*
Y31423D01*
G02X14584Y31223I-200J0D01*
G01X8291D01*
G02X8091Y31423I0J200D01*
G01Y38897D01*
G02X8291Y39097I200J0D01*
G37*
G36*
G01X16942Y37006D02*
Y43299D01*
G02X17142Y43499I200J0D01*
G01X26683Y43491D01*
G02X26883Y43289I0J-200D01*
G01X26829Y36993D01*
G02X26629Y36794I-200J2D01*
G01X23686Y36798D01*
X23670Y36800D01*
G03X23327Y36828I-343J-2155D01*
G03X22988Y36801I0J-2182D01*
G01X22973Y36799D01*
X17141Y36806D01*
G02X16942Y37006I0J200D01*
G37*
G36*
G01X14542Y57317D02*
Y39647D01*
G02X14342Y39447I-200J0D01*
G01X6693D01*
G02X6493Y39647I0J200D01*
G01Y57317D01*
G02X6693Y57517I200J0D01*
G01X14342D01*
G02X14542Y57317I0J-200D01*
G37*
G36*
G01X69678Y21280D02*
G02X69295Y-22496I-69678J-21280D01*
G02X60151Y-25451I-5641J1830D01*
G03X47771Y-33052I-4632J-6337D01*
G02X44334Y-40917I-7799J-1275D01*
G03X42019Y-56873I5955J-9010D01*
G02X41632Y-59794I-1529J-1283D01*
G02X32683Y-65120I-41872J60176D01*
G02X32488Y-65111I-89J179D01*
G01X32198Y-64933D01*
G02X32103Y-64763I105J170D01*
G01Y-56744D01*
G02X32162Y-56603I200J0D01*
G01X33574Y-55191D01*
X33690Y-55166D01*
X33746Y-55187D01*
G03X34646Y-55355I900J2333D01*
G03X37146Y-52854I0J2501D01*
G03X35970Y-50733I-2501J0D01*
G02X35876Y-50563I106J170D01*
G01Y-50224D01*
G02X35970Y-50054I200J0D01*
G03Y-45812I-1324J2121D01*
G02X35876Y-45642I106J170D01*
G01Y-45303D01*
G02X35970Y-45133I200J0D01*
G03X37146Y-43012I-1324J2121D01*
G03X32145I-2501J0D01*
G03X33321Y-45133I2501J0D01*
G02X33415Y-45303I-106J-170D01*
G01Y-45642D01*
G02X33321Y-45812I-200J0D01*
G03Y-50054I1324J-2121D01*
G02X33415Y-50224I-106J-170D01*
G01Y-50563D01*
G02X33321Y-50733I-200J0D01*
G03X32145Y-52854I1324J-2121D01*
G03X32313Y-53754I2501J0D01*
G01X32334Y-53810D01*
X32309Y-53926D01*
X31697Y-54538D01*
G02X31479Y-54581I-141J142D01*
G01X31423Y-54557D01*
X31356Y-54457D01*
X31415Y-35792D01*
G03X31357Y-35650I-200J1D01*
G01X28126Y-32420D01*
G02X28068Y-32278I141J142D01*
G01Y-28169D01*
G02X28268Y-27969I200J0D01*
G01X29639D01*
G03X29839Y-27769I0J200D01*
G01Y-27574D01*
G02X30039Y-27374I200J0D01*
G01X32031D01*
G02X32172Y-27433I0J-200D01*
G01X33594Y-28855D01*
G02X33653Y-28996I-141J-142D01*
G01Y-30403D01*
G02X33594Y-30544I-200J0D01*
G03X33519Y-30624I1543J-1543D01*
G01X33291Y-30548D01*
G02X33156Y-30388I63J190D01*
G03X30998Y-28528I-2158J-321D01*
G03Y-32891I0J-2182D01*
G03X32379Y-32399I0J2182D01*
G02X32569Y-32364I127J-155D01*
G01X32938Y-32487D01*
X33008Y-32563D01*
X33020Y-32613D01*
G03X35138Y-34269I2118J526D01*
G01X35140D01*
G03X35282Y-34264I-1J2182D01*
G02X35409Y-34299I13J-200D01*
G03X35917Y-34457I509J736D01*
G01X36110D01*
G02X36310Y-34657I0J-200D01*
G01Y-34843D01*
G03X36811Y-35343I501J0D01*
G01X39173D01*
G03X39674Y-34843I0J501D01*
G01Y-32283D01*
G03X39574Y-31983I-501J0D01*
G01Y-31982D01*
G02X39533Y-31863I160J120D01*
G01Y-31622D01*
G02X39574Y-31502I200J0D01*
G03X39674Y-31201I-400J301D01*
G01Y-28642D01*
G03X39173Y-28141I-501J0D01*
G01X37658D01*
G02X37517Y-28082I0J200D01*
G01X33313Y-23878D01*
G03X32681Y-23617I-632J-633D01*
G01X29728D01*
G02X29574Y-23544I0J200D01*
G01X29348Y-23270D01*
X29327Y-23183D01*
X29335Y-23139D01*
G03X29345Y-23042I-492J97D01*
G01Y-22042D01*
G03X29246Y-21743I-501J0D01*
G02X29206Y-21623I160J120D01*
G01Y-21492D01*
G02X29246Y-21372I200J0D01*
G03X29345Y-21073I-402J299D01*
G01Y-20073D01*
G03X29246Y-19774I-501J0D01*
G02X29206Y-19654I160J120D01*
G01Y-19523D01*
G02X29246Y-19404I200J0D01*
G03X29345Y-19104I-402J299D01*
G01Y-18104D01*
G03X29335Y-18007I-501J0D01*
G01X29327Y-17963D01*
X29348Y-17876D01*
X29574Y-17602D01*
G02X29728Y-17530I154J-127D01*
G01X34702D01*
X34709D01*
G03X35376Y-17268I34J895D01*
G01X35389Y-17256D01*
X35462Y-17225D01*
X41665D01*
G02X41806Y-17284I0J-200D01*
G01X42452Y-17930D01*
G02X42511Y-18072I-141J-142D01*
G01Y-22736D01*
G03X43012Y-23237I501J0D01*
G01X44280D01*
G02X44480Y-23437I0J-200D01*
G01Y-23610D01*
G02X44280Y-23810I-200J0D01*
G01X44193D01*
G03X43692Y-24311I0J-501D01*
G01Y-26870D01*
G03X44193Y-27371I501J0D01*
G01X46555D01*
G03X47056Y-26870I0J501D01*
G01Y-24311D01*
G03X46555Y-23810I-501J0D01*
G01X46469D01*
G02X46269Y-23610I0J200D01*
G01Y-23437D01*
G02X46469Y-23237I200J0D01*
G01X47736D01*
G03X48237Y-22736I0J501D01*
G01Y-17224D01*
G03X47736Y-16724I-501J0D01*
G01X43859D01*
G02X43717Y-16665I0J200D01*
G01X42751Y-15698D01*
G03X42119Y-15436I-632J-633D01*
G01X36705D01*
G02X36520Y-15313I0J200D01*
G01X36497Y-15257D01*
X36521Y-15138D01*
X37024Y-14634D01*
G02X37166Y-14576I142J-141D01*
G01X41043D01*
G03X41544Y-14075I0J501D01*
G01Y-8563D01*
G03X41043Y-8062I-501J0D01*
G01X39776D01*
G02X39576Y-7862I0J200D01*
G01Y-7787D01*
G02X39776Y-7587I200J0D01*
G01X39862D01*
G03X40363Y-7087I0J501D01*
G01Y-4528D01*
G03X39862Y-4027I-501J0D01*
G01X38187D01*
G02X38002Y-3903I0J200D01*
G01X37979Y-3848D01*
X38002Y-3729D01*
X40352Y-1378D01*
G02X40494Y-1320I142J-141D01*
G01X48878D01*
G03X49235Y-1245I0J894D01*
G01X49281Y-1225D01*
X49381Y-1233D01*
X49704Y-1445D01*
G02X49794Y-1612I-109J-167D01*
G01Y-1870D01*
G03X50295Y-2371I501J0D01*
G01X53779D01*
G02X53920Y-2430I0J-200D01*
G01X55249Y-3758D01*
G02X55306Y-3926I-141J-142D01*
G01X55263Y-4241D01*
G02X55165Y-4388I-198J26D01*
G03X54913Y-4823I249J-435D01*
G01Y-7382D01*
G03X54993Y-7654I501J0D01*
G02X55025Y-7763I-168J-109D01*
G01Y-7887D01*
G02X54993Y-7995I-200J0D01*
G03X54913Y-8268I421J-272D01*
G01Y-10827D01*
G03X55413Y-11328I501J0D01*
G01X57776D01*
G03X58276Y-10827I0J501D01*
G01Y-8268D01*
G03X58196Y-7995I-501J0D01*
G02X58164Y-7887I168J109D01*
G01Y-7763D01*
G02X58196Y-7654I200J0D01*
G03X58276Y-7382I-421J272D01*
G01Y-4823D01*
G03X57776Y-4322I-501J0D01*
G01X57689D01*
G02X57489Y-4122I0J200D01*
G01Y-3838D01*
G03X57227Y-3206I-895J0D01*
G01X56733Y-2712D01*
G02X56690Y-2494I141J141D01*
G01X56713Y-2438D01*
X56813Y-2371D01*
X61319D01*
G03X61820Y-1870I0J501D01*
G01Y1220D01*
G02X61878Y1361I200J0D01*
G01X62263Y1746D01*
G02X62404Y1805I142J-141D01*
G01X62429D01*
G03X63061Y2067I0J895D01*
G01X65889Y4894D01*
G03X66121Y5299I-633J632D01*
G02X66226Y5428I193J-51D01*
G03X67438Y7382I-969J1954D01*
G03X65256Y9564I-2182J0D01*
G03X63966Y9141I0J-2182D01*
G01X63965D01*
G02X63757Y9124I-118J161D01*
G01X63439Y9285D01*
G02X63329Y9464I90J179D01*
G01Y10827D01*
G03X62828Y11328I-501J0D01*
G01X61313D01*
G02X61172Y11386I0J200D01*
G01X61096Y11461D01*
G02X61054Y11679I142J141D01*
G01X61076Y11735D01*
X61177Y11802D01*
X62763D01*
G03X63263Y12303I0J501D01*
G01Y14862D01*
G03X62763Y15363I-501J0D01*
G01X62676D01*
G02X62476Y15563I0J200D01*
G01Y15817D01*
G03X62214Y16448I-895J0D01*
G01X61263Y17399D01*
X61248Y17436D01*
G03X59231Y18785I-2017J-833D01*
G03X57049Y16603I0J-2182D01*
G03X57168Y15893I2182J1D01*
G02X57142Y15712I-189J-65D01*
G01X56953Y15447D01*
G02X56790Y15363I-163J116D01*
G01X56463D01*
G03X55991Y15029I0J-501D01*
G02X55987Y15019I-187J70D01*
G02X55646Y14972I-184J78D01*
G03X55523Y15114I-1711J-1354D01*
G02X55502Y15140I144J138D01*
G03X55328Y15300I-417J-278D01*
G02X55300Y15319I99J174D01*
G03X53937Y15797I-1363J-1704D01*
G03X52645Y15374I0J-2182D01*
G02X52583Y15343I-118J161D01*
G03X52246Y15015I141J-481D01*
G02X52214Y14954I-191J61D01*
G03X52015Y14648I1723J-1339D01*
G02X51659Y14654I-177J94D01*
G01Y14862D01*
G03X51148Y15373I-511J0D01*
G01X48786D01*
G03X48312Y15053I0J-511D01*
G02X48244Y14966I-186J75D01*
G01X48214Y14944D01*
G02X48010Y14925I-118J162D01*
G01X48002Y14929D01*
G02X47935Y14981I87J180D01*
G03X47891Y15032I-1675J-1398D01*
G02X47860Y15078I149J133D01*
G03X47575Y15334I-452J-217D01*
G02X47525Y15360I67J188D01*
G03X47338Y15480I-1264J-1779D01*
G02X47403Y15851I99J174D01*
G03X47885Y16100I-151J882D01*
G01X52503Y20718D01*
G03X52765Y21350I-633J632D01*
G01Y21543D01*
G02X52965Y21743I200J0D01*
G01X53150D01*
G03X53454Y21846I0J501D01*
G02X53575Y21887I121J-159D01*
G01X53708D01*
G02X53830Y21846I0J-200D01*
G03X54134Y21743I304J397D01*
G01X56693D01*
G03X56862Y21773I0J501D01*
G01X56863D01*
G02X56998Y21772I67J-188D01*
G01X57272Y21673D01*
X57326Y21628D01*
X57343Y21598D01*
G03X57776Y21350I433J253D01*
G01X60138D01*
G03X60639Y21850I0J501D01*
G01Y23127D01*
G02X60839Y23327I200J0D01*
G01X61012D01*
G02X61212Y23127I0J-200D01*
G01Y21440D01*
G02X61170Y21318I-200J0D01*
G03X60712Y19980I1724J-1337D01*
G03X65076I2182J0D01*
G03X64618Y21318I-2182J0D01*
G02X64576Y21440I158J123D01*
G01Y23127D01*
G02X64776Y23327I200J0D01*
G01X68855D01*
G02X69044Y23194I0J-200D01*
G02X69678Y21281I-45543J-16174D01*
G01Y21280D01*
G37*
G36*
G01X22461Y-27559D02*
X23127D01*
G02X23327Y-27759I0J-200D01*
G01Y-31906D01*
G03X23385Y-32047I200J0D01*
G01X24548Y-33209D01*
G03X24689Y-33268I142J141D01*
G01X27476D01*
G02X27618Y-33326I0J-200D01*
G01X28082Y-33791D01*
G02X28141Y-33932I-141J-142D01*
G01Y-35630D01*
G03X28642Y-36131I501J0D01*
G01X30213D01*
G02X30413Y-36331I0J-200D01*
G01X30350Y-56038D01*
X30344Y-56063D01*
G03X30314Y-56291I865J-228D01*
G01Y-67143D01*
G02X30256Y-67284I-200J0D01*
G01X29685Y-67855D01*
G02X29543Y-67913I-142J141D01*
G01X24591D01*
G02X24449Y-67855I0J200D01*
G01X23779Y-67185D01*
G02X23720Y-67043I141J142D01*
G01Y-39256D01*
G03X23662Y-39115I-200J0D01*
G01X22319Y-37772D01*
G02X22261Y-37631I141J142D01*
G01Y-27759D01*
G02X22461Y-27559I200J0D01*
G37*
G36*
G01X24016Y-32299D02*
Y-27759D01*
G02X24216Y-27559I200J0D01*
G01X26591D01*
G02X26732Y-27618I0J-200D01*
G01X27008Y-27894D01*
G02X27067Y-28035I-141J-142D01*
G01Y-32969D01*
G02X26867Y-33169I-200J0D01*
G01X24886D01*
G02X24744Y-33111I0J200D01*
G01X24074Y-32441D01*
G02X24016Y-32299I141J142D01*
G37*
G36*
G01X22425Y-8957D02*
X23244D01*
G02X23385Y-9015I0J-200D01*
G01X23957Y-9587D01*
G02X24016Y-9728I-141J-142D01*
G01Y-23539D01*
G03X24074Y-23681I200J0D01*
G01X25630Y-25237D01*
G03X25772Y-25295I142J141D01*
G01X28639D01*
G02X28839Y-25495I0J-200D01*
G01Y-26769D01*
G02X28639Y-26969I-200J0D01*
G01X27581D01*
G02X27439Y-26910I0J200D01*
G01X27146Y-26617D01*
G03X27005Y-26558I-142J-141D01*
G01X24162D01*
G02X24023Y-26502I0J200D01*
G01X22010Y-24567D01*
G02X21949Y-24423I139J144D01*
G01Y-9433D01*
G02X22007Y-9292I200J0D01*
G01X22284Y-9015D01*
G02X22425Y-8957I142J-141D01*
G37*
G36*
G01X36688Y12445D02*
G03X36861Y12201I1862J1138D01*
G02X36896Y12139I-155J-127D01*
G03X37244Y11819I473J164D01*
G02X37308Y11789I-51J-193D01*
G03X38550Y11401I1242J1794D01*
G03X39792Y11789I0J2182D01*
G02X39856Y11819I115J-164D01*
G03X40204Y12139I-125J485D01*
G02X40239Y12201I189J-65D01*
G03X40247Y12211I-1687J1384D01*
G02X40315Y12265I155J-126D01*
G01X40320Y12268D01*
G02X40530Y12247I88J-180D01*
G01X40576Y12211D01*
G02X40641Y12124I-122J-159D01*
G03X41109Y11802I468J179D01*
G01X42624D01*
G02X42766Y11744I0J-200D01*
G01X43471Y11038D01*
G03X43680Y10883I632J633D01*
G01X43706Y10869D01*
X43748Y10826D01*
G03X44011Y10645I632J633D01*
G01X44044Y10630D01*
X44552Y10121D01*
G02X44611Y9980I-141J-142D01*
G01Y8268D01*
G03X44780Y7893I500J0D01*
G01X44781Y7892D01*
G02X44848Y7738I-133J-149D01*
G01X44839Y7387D01*
X44800Y7308D01*
X44766Y7281D01*
G03X44578Y6890I313J-391D01*
G01Y5178D01*
G02X44519Y5036I-200J0D01*
G01X43873Y4390D01*
G02X43732Y4331I-142J141D01*
G01X37995D01*
G03X37363Y4070I0J-895D01*
G01X35881Y2587D01*
G02X35663Y2544I-141J141D01*
G01X35607Y2567D01*
X35540Y2668D01*
Y3630D01*
G02X35740Y3830I200J0D01*
G01X35827D01*
G03X36328Y4331I0J501D01*
G01Y6890D01*
G03X36158Y7265I-500J0D01*
G02X36091Y7420I133J150D01*
G01X36099Y7770D01*
X36139Y7849D01*
X36173Y7877D01*
G03X36361Y8268I-313J391D01*
G01Y10827D01*
G03X35860Y11328I-501J0D01*
G01X35707D01*
G02X35507Y11528I0J200D01*
G01Y11598D01*
G02X35707Y11798I200J0D01*
G01X35794D01*
G03X36300Y12303I0J506D01*
G01Y12448D01*
G02X36490Y12587I190J-61D01*
G01X36617Y12514D01*
G02X36688Y12445I-100J-173D01*
G37*
G36*
G01X51998Y12615D02*
G03X52193Y12305I1938J1002D01*
G02X52230Y12219I-160J-120D01*
G03X52678Y11804I494J84D01*
G02X52767Y11774I-18J-199D01*
G03X53937Y11433I1171J1841D01*
G03X55127Y11786I0J2182D01*
G02X55193Y11814I110J-167D01*
G03X55556Y12132I-107J489D01*
G02X55592Y12194I188J-68D01*
G03X55606Y12210I-1635J1444D01*
G02X55672Y12261I152J-129D01*
G01X55678Y12264D01*
G02X55885Y12243I86J-181D01*
G01X55932Y12207D01*
G02X55997Y12120I-121J-159D01*
G03X56463Y11802I466J182D01*
G01X57979D01*
G02X58120Y11744I0J-200D01*
G01X58825Y11038D01*
G03X59035Y10883I632J633D01*
G01X59061Y10869D01*
X59103Y10826D01*
G03X59365Y10645I632J633D01*
G01X59398Y10630D01*
X59907Y10121D01*
G02X59965Y9980I-141J-142D01*
G01Y8268D01*
G03X60135Y7893I500J0D01*
G01X60135Y7892D01*
G02X60202Y7738I-133J-149D01*
G01X60194Y7387D01*
X60154Y7308D01*
X60120Y7281D01*
G03X59932Y6890I313J-391D01*
G01Y5178D01*
G02X59874Y5036I-200J0D01*
G01X59228Y4390D01*
G02X59086Y4331I-142J141D01*
G01X51882D01*
G02X51682Y4531I0J200D01*
G01Y6890D01*
G03X51513Y7265I-500J0D01*
G01X51512Y7265D01*
G02X51445Y7420I133J149D01*
G01X51454Y7770D01*
X51493Y7849D01*
X51527Y7877D01*
G03X51715Y8268I-313J391D01*
G01Y10827D01*
G03X51214Y11328I-501J0D01*
G01X51062D01*
G02X50862Y11528I0J200D01*
G01Y11548D01*
G02X51062Y11748I200J0D01*
G01X51148D01*
G03X51704Y12303I0J555D01*
G01Y12753D01*
G02X51794Y12775I91J-178D01*
G01X51926Y12693D01*
G02X51998Y12615I-106J-170D01*
G37*
%LPC*%
G75*
G36*
G01X58850Y-10827D02*
Y-8268D01*
G02X59350Y-7767I501J0D01*
G01X61713D01*
G02X62213Y-8268I0J-501D01*
G01Y-10827D01*
G02X61713Y-11328I-501J0D01*
G01X61626D01*
G03X61426Y-11528I0J-200D01*
G01Y-11791D01*
G03X61626Y-11991I200J0D01*
G01X61708Y-11991D01*
G02X62210Y-12491I1J-501D01*
G01X62217Y-15050D01*
G02X61717Y-15552I-501J-1D01*
G01X59355Y-15558D01*
G02X58853Y-15058I-1J501D01*
G01X58846Y-12499D01*
G02X59346Y-11997I501J1D01*
G01X59437Y-11997D01*
G03X59637Y-11797I0J200D01*
G01Y-11528D01*
G03X59437Y-11328I-200J0D01*
G01X59350D01*
G02X58850Y-10827I0J501D01*
G37*
G54D36*
X-66933Y-250D03*
G54D37*
X66925Y243D03*
%LPD*%
G75*
G54D10*
X-70768Y-9154D03*
Y-6004D03*
Y3445D03*
Y6594D03*
Y9744D03*
X-64469Y-24902D03*
X-61319D03*
X-67618Y-21752D03*
X-64469D03*
X-61319D03*
X-58169D03*
X-67618Y-18602D03*
X-64469D03*
X-61319D03*
X-58169D03*
X-67618Y-15453D03*
X-64469D03*
X-61319D03*
X-58169D03*
X-67618Y-12303D03*
X-64469D03*
X-61319D03*
X-58169D03*
X-67618Y-9154D03*
X-64469D03*
X-61319D03*
X-58169D03*
X-67618Y-6004D03*
X-64469D03*
X-61319D03*
X-58169D03*
X-61319Y-2854D03*
X-58169D03*
X-61319Y295D03*
X-58169D03*
X-61319Y3445D03*
X-58169D03*
X-67618Y6594D03*
X-64469D03*
X-61319D03*
X-58169D03*
X-67618Y9744D03*
X-64469D03*
X-61319D03*
X-58169D03*
X-67618Y12894D03*
X-64469D03*
X-61319D03*
X-58169D03*
X-67618Y16043D03*
X-64469D03*
X-61319D03*
X-58169D03*
X-67618Y19193D03*
X-64469D03*
X-61319D03*
X-58169D03*
X-51575Y33465D03*
Y36614D03*
X-67618Y22343D03*
X-64469D03*
X-61319D03*
X-58169D03*
X-64469Y25492D03*
X-61319D03*
X-58169D03*
X-64469Y28642D03*
X-61319D03*
X-58169D03*
X-38484Y-34646D03*
X-34744Y-19094D03*
Y-15945D03*
X-50394Y-12205D03*
X-47244D03*
X-44094D03*
X-40945D03*
X-50394Y-9055D03*
X-47244D03*
X-44094D03*
X-40945D03*
X-50394Y-5906D03*
X-47244D03*
X-44094D03*
X-40945D03*
X-50394Y-2756D03*
X-47244D03*
X-44094D03*
X-40945D03*
X-50394Y394D03*
X-47244D03*
X-44094D03*
X-40945D03*
X-34744Y-12795D03*
Y-9646D03*
Y-6496D03*
Y-3346D03*
Y-197D03*
Y2953D03*
X-50394Y3543D03*
X-47244D03*
X-44094D03*
X-40945D03*
X-50394Y6693D03*
X-47244D03*
X-44094D03*
X-40945D03*
X-50394Y9843D03*
X-47244D03*
X-44094D03*
X-40945D03*
X-50394Y12992D03*
X-47244D03*
X-44094D03*
X-40945D03*
X-50394Y16142D03*
X-47244D03*
X-44094D03*
X-36417Y20472D03*
X-34449D03*
X-34744Y6102D03*
Y9252D03*
Y12402D03*
X-48425Y33465D03*
X-45276D03*
X-48425Y36614D03*
X-45276D03*
X-36417Y22441D03*
X-34449D03*
X-36417Y24409D03*
X-34449D03*
X-36417Y26378D03*
X-34449D03*
X-22835Y-64862D03*
X-26575Y-60827D03*
X-19094D03*
X-28445Y-28445D03*
X-31594Y-19094D03*
Y-15945D03*
Y-12795D03*
X-17022Y8231D03*
X-15429Y10609D03*
X-32480Y20472D03*
X-30512D03*
X-28543D03*
X-16043Y20079D03*
X-23228Y19579D03*
X-21358Y38189D03*
X-24311Y38091D03*
X-18701D03*
X-29626Y35236D03*
X-32480Y22441D03*
X-30512D03*
X-28543D03*
X-26575D03*
X-32480Y24409D03*
X-30512D03*
X-28543D03*
X-26575D03*
X-32480Y26378D03*
X-30512D03*
X-28543D03*
X-26575D03*
X-32480Y28346D03*
X-30512D03*
X-28543D03*
X-26575D03*
X-16043Y22047D03*
Y24016D03*
Y25984D03*
X-21457Y41929D03*
X-24213D03*
X-18799Y41831D03*
X-23327Y53248D03*
X-20177D03*
X-17028D03*
X-23327Y56398D03*
X-20177D03*
X-17028D03*
X-10039Y-71161D03*
X-6890D03*
X-3740D03*
X-591D03*
X2559D03*
X-13189Y-68012D03*
X-10039D03*
X-6890D03*
X-3740D03*
X-591D03*
X2559D03*
X-13189Y-64862D03*
X-10039D03*
X-6890D03*
X-3740D03*
X-591D03*
X2559D03*
X-13189Y-61713D03*
X-10039D03*
X-6890D03*
X-3740D03*
X-591D03*
X2559D03*
X-3674Y-16189D03*
X-11Y-19120D03*
X-4461Y-24144D03*
X-140Y-23542D03*
X-13484Y-27362D03*
X1476Y-14075D03*
X-1673Y-10925D03*
X1476D03*
X-1673Y-7776D03*
X1476D03*
Y-4626D03*
X-3248Y-1181D03*
X-13197Y12402D03*
X-10335D03*
X-7177Y9154D03*
X-7283Y12500D03*
X-14075Y20079D03*
X-12106D03*
X-10138D03*
X-8169D03*
X3156Y9709D03*
X-1085Y10731D03*
X-1870Y20079D03*
X-2953Y38386D03*
X-197Y38484D03*
X2657Y38386D03*
X-7776Y35138D03*
X-14075Y22047D03*
X-12106D03*
X-10138D03*
X-8169D03*
X-6201D03*
X-14075Y24016D03*
X-12106D03*
X-10138D03*
X-8169D03*
X-6201D03*
X-14075Y25984D03*
X-12106D03*
X-10138D03*
X-8169D03*
X-6201D03*
X-10138Y27953D03*
X-8169D03*
X-6201D03*
X-2953Y41240D03*
X-197Y41339D03*
X2657D03*
X-4528Y53543D03*
X-1378D03*
X1772D03*
X5709Y-71161D03*
X8858D03*
X12008D03*
X15157D03*
X18012D03*
X21161D03*
X13386Y-55906D03*
X13488Y-58766D03*
X6791Y-58866D03*
X10138Y-58768D03*
Y-55906D03*
X5709Y-68012D03*
X8858D03*
X12008D03*
X15157D03*
X5709Y-64862D03*
X8858D03*
X12008D03*
X15157D03*
X5709Y-61713D03*
X8858D03*
X12008D03*
X15157D03*
X18012Y-68012D03*
X21161D03*
X18012Y-64862D03*
X21161D03*
X18012Y-61713D03*
X21161D03*
X17126Y-51575D03*
X20866Y-45374D03*
X3543Y-45276D03*
X6693D03*
X9843D03*
X3543Y-42126D03*
X6693D03*
X9843D03*
Y-38976D03*
X20177Y-25787D03*
X8526Y-21444D03*
X17240Y-22555D03*
X3839Y-21752D03*
X12806Y-22292D03*
X4626Y-10925D03*
Y-7776D03*
Y-4626D03*
X16339Y-1181D03*
X16437Y1870D03*
X16929Y9843D03*
X11417Y35236D03*
X6594Y21654D03*
X8563D03*
X10531D03*
X12500D03*
X14469D03*
X6594Y23622D03*
X8563D03*
X10531D03*
X12500D03*
X14469D03*
X6594Y25591D03*
X8563D03*
X10531D03*
X12500D03*
X14469D03*
X6594Y27559D03*
X8563D03*
X10531D03*
X12500D03*
X14469D03*
X18602Y38780D03*
X18996Y54921D03*
X18602Y41634D03*
X35138Y-32087D03*
X30998Y-30709D03*
X21654Y-8268D03*
X38550Y13583D03*
X33957Y32480D03*
X23327Y34646D03*
X24705Y51083D03*
X38091Y41732D03*
X21457Y38878D03*
X21555Y41634D03*
X24409Y38976D03*
Y41634D03*
X41831Y-37500D03*
X50197Y-23720D03*
Y-20571D03*
X53346D03*
X56496D03*
X50197Y-17421D03*
X53346D03*
X56496D03*
X50197Y-14272D03*
X53346D03*
X46260Y13583D03*
X40551Y7677D03*
X55807Y7579D03*
X53642Y20079D03*
X56594D03*
X53937Y13615D03*
X44783Y20563D03*
Y33268D03*
X41339Y23524D03*
X52689Y30709D03*
X48327D03*
X59646Y-23720D03*
X62795D03*
X65945D03*
X59646Y-20571D03*
X62795D03*
X65945D03*
X59646Y-17421D03*
X62795D03*
X65945D03*
X69094D03*
X65945Y-14272D03*
X69094D03*
X64173Y-9449D03*
X67323D03*
X70472D03*
X64173Y-6299D03*
X67323D03*
X70472D03*
X66339Y15650D03*
X66437Y12205D03*
X69783Y11909D03*
Y8268D03*
X69980Y5020D03*
X69094Y17520D03*
X59231Y16603D03*
X65256Y7382D03*
X62894Y19980D03*
G54D20*
X-21555Y-71555D03*
X-25689D03*
X-14961D03*
X-10827D03*
G54D11*
X-57480Y-18996D03*
X-50000D03*
X-57480Y-10039D03*
X-50000D03*
X-57480Y-1083D03*
X-50000D03*
X-57480Y7874D03*
X-50000D03*
X-57480Y16831D03*
X-50000D03*
X-57480Y25787D03*
X-50000D03*
X-3445Y-43898D03*
X4035D03*
X19094Y-65945D03*
Y-56988D03*
X26575Y-65945D03*
Y-56988D03*
G54D30*
X38681Y-19980D03*
Y-11319D03*
X45374Y-19980D03*
Y-11319D03*
G54D12*
X-37008Y-51083D03*
Y-47146D03*
X-33465Y-51083D03*
Y-47146D03*
X-39862Y-31496D03*
Y-27559D03*
X-41929Y34449D03*
Y30512D03*
X-22835Y-51280D03*
Y-47343D03*
X-15945Y-31299D03*
Y-27362D03*
X-20669Y34449D03*
Y30512D03*
X-23228Y22441D03*
Y26378D03*
X-20472Y49213D03*
Y45276D03*
X984Y34449D03*
Y30512D03*
X-1870Y22441D03*
Y26378D03*
X689Y49213D03*
Y45276D03*
X19390Y22441D03*
Y26378D03*
X26870Y23425D03*
Y27362D03*
X23327Y23425D03*
Y27362D03*
X33957Y23425D03*
Y27362D03*
X30413D03*
Y23425D03*
X22244Y49213D03*
Y45276D03*
X51870Y23425D03*
Y27362D03*
X44783Y23425D03*
Y27362D03*
X48327Y23425D03*
Y27362D03*
X55413D03*
Y23425D03*
G54D21*
X-26575Y-65610D03*
X-19094D03*
X-22835Y-56437D03*
G54D31*
X35335Y39375D03*
X31398Y39365D03*
Y44286D03*
X35335Y44296D03*
X56594Y-13785D03*
X60531Y-13774D03*
G54D22*
X-30118Y-50984D03*
X-26181D03*
X-19390D03*
X-15453D03*
X-26181Y-47343D03*
X-30118D03*
X-15453D03*
X-19390D03*
X-15846Y-16240D03*
X-19783D03*
X-15846Y-21063D03*
X-19783D03*
X-15846Y-6299D03*
X-19783D03*
X-15846Y-1378D03*
X-19783D03*
X-15846Y-11220D03*
X-19783D03*
X-15846Y3543D03*
X-19783D03*
X4134Y-36319D03*
X8071D03*
X29823Y-34350D03*
X25886D03*
X37992Y-33563D03*
Y-29921D03*
X38681Y-5807D03*
X34646Y5610D03*
X38583D03*
X34613Y13583D03*
X38550D03*
X38616Y9547D03*
X34679D03*
X37402Y23524D03*
Y27264D03*
X31398Y49114D03*
X35335D03*
X41929Y-33563D03*
Y-29921D03*
X41437Y-25591D03*
X45374D03*
X56594Y-6102D03*
X42618Y-5807D03*
X56594Y-9547D03*
X46293Y9547D03*
X42356D03*
X50033D03*
X53970D03*
X50000Y5610D03*
X53937D03*
X49967Y13583D03*
X53904D03*
X46260Y5610D03*
X42323D03*
X42290Y13583D03*
X46227D03*
X41339Y23524D03*
Y27264D03*
X60531Y-6102D03*
Y-9547D03*
X61614Y5610D03*
X57677D03*
X61647Y9547D03*
X57710D03*
X57644Y13583D03*
X61581D03*
X62894Y23130D03*
X58957D03*
Y27264D03*
X62894D03*
G54D13*
X-33276Y-35236D03*
Y-32677D03*
Y-30118D03*
Y-27559D03*
X-22826Y-35236D03*
Y-27559D03*
Y-30118D03*
Y-32677D03*
G54D23*
X-21752Y-44587D03*
X-23917D03*
Y-39862D03*
X-21752D03*
G54D14*
X-34606Y-19696D03*
X-41298Y-19713D03*
X-34626Y-12058D03*
X-41319Y-12076D03*
X-34646Y-4420D03*
X-41339Y-4438D03*
X-34666Y3218D03*
X-41359Y3200D03*
X-34686Y10855D03*
X-41379Y10838D03*
G54D32*
X29429Y54921D03*
X22736D03*
X52461Y98D03*
X59154D03*
G54D33*
G01X-25689Y-71555D02*
X-28839D01*
X-30906Y-69488D01*
Y-62500D01*
X-37008Y-56398D01*
Y-51083D01*
G01Y-47146D02*
X-33465D01*
G01X-7756Y-18604D02*
X-9151D01*
X-10250Y-19703D01*
Y-21098D01*
X-12388Y-23236D01*
X-17365D01*
X-17391Y-23262D01*
X-40683D01*
X-42224Y-24803D01*
Y-34843D01*
X-33465Y-43602D01*
Y-47146D01*
G01X-33276Y-35236D02*
X-34856D01*
X-36145Y-33948D01*
Y-32367D01*
X-37016Y-31496D01*
X-39862D01*
G01X-36417Y37598D02*
X-37008D01*
X-38428Y36179D01*
Y35588D01*
X-39567Y34449D01*
X-41929D01*
G01X34646Y-52854D02*
X31209Y-56291D01*
Y-72319D01*
X29906Y-73622D01*
X-19685D01*
X-21555Y-71752D01*
Y-71555D01*
G01X-22835Y-56437D02*
Y-51280D01*
G01Y-64862D02*
Y-56437D01*
G01X-26575Y-65610D02*
Y-60827D01*
G01X-30118Y-50984D02*
Y-57283D01*
X-26575Y-60827D01*
G01X-19094Y-65610D02*
Y-60827D01*
G01X-15453Y-50984D02*
Y-57185D01*
X-19094Y-60827D01*
G01X-14961Y-71555D02*
Y-71358D01*
X-17079Y-69240D01*
X-28543D01*
X-29331Y-68453D01*
Y-61909D01*
X-33465Y-57776D01*
Y-51083D01*
G01X-22539Y-50295D02*
X-22835Y-50591D01*
Y-51280D01*
G01X-7756Y-26480D02*
X-8856D01*
X-10335Y-27959D01*
Y-29349D01*
X-9146Y-30538D01*
Y-32257D01*
X-12124Y-35236D01*
X-22826D01*
G01X-30118Y-47343D02*
Y-50984D01*
G01Y-47343D02*
Y-47244D01*
X-27461Y-44587D01*
X-23917D01*
G01X-33276Y-30118D02*
X-30407D01*
X-28445Y-32080D01*
Y-37196D01*
X-27657Y-37984D01*
X-22956D01*
X-21752Y-39189D01*
Y-39862D01*
G01X-33276Y-32677D02*
X-30407D01*
X-29823Y-33261D01*
Y-38583D01*
X-28543Y-39862D01*
X-23917D01*
G01X-15453Y-47343D02*
Y-47244D01*
X-18110Y-44587D01*
X-21752D01*
G01X-19390Y-47343D02*
X-22835D01*
G01X-26181D02*
X-22835D01*
G01X-7756Y-24511D02*
X-11174D01*
X-11187Y-24524D01*
X-16831D01*
X-19867Y-27559D01*
X-22826D01*
G01X-33276D02*
Y-25765D01*
X-32060Y-24550D01*
X-28395D01*
X-25695Y-27249D01*
Y-28830D01*
X-24407Y-30118D01*
X-22826D01*
G01X-20472Y49213D02*
Y52953D01*
X-20177Y53248D01*
G01X-15453Y-47343D02*
Y-50984D01*
G01X-3674Y-16189D02*
X-5142Y-17656D01*
Y-19628D01*
X-6087Y-20573D01*
X-7756D01*
G01Y-22542D02*
X-6015D01*
X-2593Y-19120D01*
X-11D01*
G01X-4461Y-24144D02*
Y-25130D01*
X-5023Y-25693D01*
Y-29213D01*
G01X-140Y-23542D02*
X-3054Y-26457D01*
Y-29213D01*
G01X3839Y-21752D02*
X2371Y-23219D01*
Y-25188D01*
X883Y-26676D01*
Y-29213D01*
G01X689Y49213D02*
Y52461D01*
X1772Y53543D01*
G01X20177Y-25787D02*
X17217D01*
X16528Y-26476D01*
X15140D01*
X15132Y-26484D01*
X9266D01*
X8759Y-26991D01*
Y-29213D01*
G01X8526Y-21444D02*
X2853Y-27117D01*
Y-29213D01*
G01X6791D02*
Y-26821D01*
X8415Y-25197D01*
X14598D01*
X17240Y-22555D01*
G01X4822Y-29213D02*
Y-26969D01*
X8032Y-23759D01*
X11338D01*
X12806Y-22292D01*
G01X48327Y23425D02*
X46957Y22055D01*
Y19802D01*
X45364Y18209D01*
X33693D01*
X26311Y10827D01*
X21150D01*
X18605Y8281D01*
Y5787D01*
G01X16635D02*
X16634Y5789D01*
Y9547D01*
X16929Y9843D01*
G01X44783Y20563D02*
X33752D01*
X25386Y12197D01*
X16349D01*
X14667Y10515D01*
Y5787D01*
G01X33957Y23425D02*
Y23244D01*
X24197Y13484D01*
X15815D01*
X12698Y10367D01*
Y5787D01*
G01X26870Y23425D02*
Y21350D01*
X20579Y15059D01*
X15453D01*
X10729Y10335D01*
Y5787D01*
G01X8759D02*
Y10186D01*
X14920Y16346D01*
X18807D01*
X23327Y20866D01*
Y23425D01*
G01X29823Y-34350D02*
X31898D01*
G01D02*
X32698Y-35150D01*
Y-36143D01*
X34646Y-38091D01*
G01X22543Y-29213D02*
Y-33082D01*
X23811Y-34350D01*
X25886D01*
G01D02*
X25197Y-33661D01*
G01X24511Y-29213D02*
Y-31204D01*
X25197Y-31890D01*
G01Y-33661D02*
Y-31890D01*
G01X27244Y-24511D02*
X32680D01*
X37992Y-29823D01*
Y-29921D01*
G01D02*
X37303D01*
X35138Y-32087D01*
G01X27244Y-26480D02*
X32484D01*
X34547Y-28543D01*
Y-32193D01*
X35917Y-33563D01*
X37992D01*
G01D02*
X36516Y-32087D01*
X35138D01*
G01X45374Y-19980D02*
Y-19587D01*
X42118Y-16331D01*
X35048D01*
X34743Y-16635D01*
X27244D01*
G01X38681Y-11319D02*
Y-11713D01*
X35728Y-14666D01*
X27244D01*
G01X34646Y5610D02*
Y2056D01*
X29738Y-2852D01*
X27244D01*
G01Y-6790D02*
X29738D01*
X38678Y2150D01*
X46638D01*
X50000Y5512D01*
Y5610D01*
G01X52461Y98D02*
X49402D01*
X48878Y-425D01*
X40041D01*
X29738Y-10728D01*
X27244D01*
G01Y-8759D02*
X29738D01*
X39359Y862D01*
X47826D01*
X50401Y3437D01*
X59539D01*
X61614Y5512D01*
Y5610D01*
G01X46260D02*
Y5512D01*
X44185Y3437D01*
X37996D01*
X29738Y-4821D01*
X27244D01*
G01X34646Y5610D02*
Y9514D01*
X34679Y9547D01*
G01D02*
X34613Y9613D01*
Y13583D01*
G01X51870Y23425D02*
Y21350D01*
X47252Y16732D01*
X34038D01*
X26656Y9350D01*
X21643D01*
X20574Y8281D01*
Y5787D01*
G01X33957Y32480D02*
Y27362D01*
G01X23327Y34646D02*
Y27362D01*
G01X33957Y23425D02*
X37303D01*
X37402Y23524D01*
G01Y27264D02*
Y23524D01*
G01X26870Y23425D02*
X30413D01*
G01X23327D02*
Y23637D01*
X26870Y27181D01*
Y27362D01*
G01D02*
X30413D01*
G01X22244Y49213D02*
X22835D01*
X24705Y51083D01*
G01X29429Y54921D02*
X32488D01*
X35335Y52075D01*
Y49114D01*
G01X38091Y41732D02*
Y40163D01*
X37303Y39375D01*
X35335D01*
G01X38091Y41732D02*
Y46260D01*
X35335Y49016D01*
Y49114D01*
G01X31398D02*
Y49016D01*
X33211Y47202D01*
Y46507D01*
X35334Y44395D01*
X35335Y44296D01*
G01X37992Y-33563D02*
Y-29921D01*
G01X45374Y-25591D02*
Y-19980D01*
G01X38681Y-5807D02*
Y-11319D01*
G01X56594Y-6102D02*
Y-3839D01*
X52657Y98D01*
X52461D01*
G01X53937Y13615D02*
X53904Y13583D01*
G01X50000Y5610D02*
X50033Y5643D01*
Y9547D01*
G01D02*
X49967Y9613D01*
Y13583D01*
G01X42290D02*
Y13484D01*
X44104Y11671D01*
X44169D01*
X44381Y11459D01*
X44480D01*
X46293Y9646D01*
Y9547D01*
G01D02*
Y5643D01*
X46260Y5610D01*
G01X44783Y33268D02*
Y27362D01*
G01X55413Y23425D02*
X51870D01*
G01X44783D02*
Y20563D01*
G01X51870Y27362D02*
X55413D01*
G01X52689Y30709D02*
X52165Y30185D01*
Y29823D01*
X51870Y29528D01*
Y27362D01*
G01X48327Y30709D02*
Y27362D01*
G01X59154Y98D02*
X59350D01*
X61951Y2699D01*
X62428D01*
X65256Y5527D01*
Y7382D01*
G01X56594Y-9547D02*
Y-6102D01*
G01X60531Y-9547D02*
Y-13774D01*
G01X59231Y16603D02*
X60794D01*
X61581Y15816D01*
Y13583D01*
G01X57644D02*
Y13484D01*
X59458Y11671D01*
X59524D01*
X59735Y11459D01*
X59834D01*
X61647Y9646D01*
Y9547D01*
G01X61614Y5610D02*
X61647Y5643D01*
Y9547D01*
G01X62894Y19980D02*
Y23130D01*
G01X58957Y27264D02*
Y23130D01*
G54D24*
X883Y-29213D03*
X-1085D03*
X-3054D03*
X-5023D03*
Y5787D03*
X-3054D03*
X-1085D03*
X883D03*
X18605Y-29213D03*
X16635D03*
X14667D03*
X12698D03*
X10729D03*
X8759D03*
X6791D03*
X4822D03*
X2853D03*
Y5787D03*
X4822D03*
X6791D03*
X8759D03*
X10729D03*
X12698D03*
X14667D03*
X16635D03*
X18605D03*
X24511Y-29213D03*
X22543D03*
X20574D03*
Y5787D03*
X22543D03*
X24511D03*
G54D15*
X-32480Y23680D03*
X-11319D03*
X10138Y23876D03*
G54D34*
G01X-39862Y-27559D02*
X-33276D01*
G01X-19783Y-16240D02*
Y-16142D01*
X-28150Y-7776D01*
Y14665D01*
X-31132Y17648D01*
X-37952D01*
X-39780Y19476D01*
Y28658D01*
X-38524Y29913D01*
X-35080D01*
X-33760Y31233D01*
G01X-19783Y-21063D02*
Y-20965D01*
X-29921Y-10827D01*
Y13681D01*
X-32207Y15967D01*
X-38648D01*
X-41929Y19248D01*
Y30512D01*
G01X-36417Y37598D02*
X-34941D01*
X-33760Y36417D01*
G01X-36319Y32382D02*
X-39993D01*
X-41863Y30512D01*
X-41929D01*
G01X-19783Y-16240D02*
Y-16339D01*
X-17512Y-18610D01*
X-14213D01*
X-10269Y-14666D01*
X-7756D01*
G01X-13484Y-27362D02*
X-15945D01*
G01X-22826Y-30118D02*
X-20876D01*
X-20572Y-29815D01*
X-18733D01*
X-18233Y-29315D01*
X-17996D01*
X-16043Y-27362D01*
X-15945D01*
G01X-15846Y-16240D02*
Y-16142D01*
X-12402Y-12697D01*
X-7756D01*
G01X-19783Y-6299D02*
Y-6398D01*
X-17422Y-8759D01*
X-7756D01*
G01X-12598Y32382D02*
Y30413D01*
X-13287Y29724D01*
X-17454D01*
X-18988Y28190D01*
Y18118D01*
X-24697Y12409D01*
Y-3831D01*
X-22229Y-6299D01*
X-19783D01*
G01X-7756Y-2852D02*
X-9838D01*
X-13863Y1173D01*
X-17512D01*
X-19783Y3445D01*
Y3543D01*
G01Y-1378D02*
Y-1280D01*
X-22244Y1181D01*
Y9759D01*
X-14681Y17323D01*
X-500D01*
X984Y18807D01*
Y30512D01*
G01X-20669D02*
Y18815D01*
X-26378Y13106D01*
Y-4528D01*
X-19783Y-11122D01*
Y-11220D01*
G01Y3543D02*
Y9843D01*
X-14075Y15551D01*
X886D01*
X3051Y17717D01*
Y28293D01*
X4869Y30110D01*
X7539D01*
X8858Y31430D01*
G01X-23228Y19579D02*
Y22441D01*
G01X-33760Y31233D02*
Y32382D01*
G01Y36417D02*
Y32382D01*
G01X-15256Y37598D02*
Y35991D01*
X-16798Y34449D01*
X-20669D01*
G01X-24213Y45276D02*
X-25361D01*
X-26681Y43956D01*
Y35835D01*
X-23228Y32382D01*
Y26378D01*
G01X-15157Y32382D02*
X-18733D01*
X-20603Y30512D01*
X-20669D01*
G01X-20472Y45276D02*
X-24213D01*
G01X-7756Y-16635D02*
X-9843D01*
X-11734Y-18526D01*
Y-19805D01*
X-12992Y-21063D01*
X-15846D01*
G01Y-11220D02*
X-13575D01*
X-13082Y-10728D01*
X-7756D01*
G01X4528Y-1181D02*
X-3248D01*
G01X-15846Y3543D02*
X-13856D01*
X-9430Y-883D01*
X-7756D01*
G01X-15846Y-1378D02*
X-13890D01*
X-10446Y-4821D01*
X-7756D01*
G01X-15846Y-6299D02*
X-11346D01*
X-10855Y-6790D01*
X-7756D01*
G01X883Y5787D02*
Y7789D01*
X2804Y9709D01*
X3156D01*
G01X-1085Y5787D02*
Y10731D01*
G01X19390Y22441D02*
Y19193D01*
X18042Y17845D01*
X5837D01*
X1772Y13780D01*
X-3354D01*
X-4535Y12598D01*
Y10343D01*
X-3054Y8861D01*
Y5787D01*
G01X-12598Y32382D02*
Y34810D01*
G01Y35327D02*
Y36417D01*
G01D02*
X-13780Y37598D01*
X-15256D01*
G01X6102D02*
X4626Y36122D01*
Y35630D01*
X3445Y34449D01*
X984D01*
G01X6299Y32579D02*
X3150D01*
X1083Y30512D01*
X984D01*
G01X-1870Y20079D02*
Y22441D01*
G01X-3051Y45276D02*
X-4200D01*
X-5520Y43956D01*
Y36359D01*
X-3921Y34760D01*
Y28330D01*
X-1969Y26378D01*
X-1870D01*
G01X689Y45276D02*
X-3051D01*
G01X4528Y-1181D02*
X16339D01*
G01X6791Y5787D02*
Y3097D01*
X8017Y1870D01*
X16437D01*
G01X4822Y5787D02*
Y-887D01*
X4528Y-1181D01*
G01X18307Y45276D02*
X17158D01*
X15839Y43956D01*
Y36359D01*
X19390Y32808D01*
Y26378D01*
G01X6102Y37598D02*
X7776D01*
X10138Y35236D01*
G01X8858Y31430D02*
Y32579D01*
G01X10138Y35236D02*
X11417D01*
G01X22244Y45276D02*
X18307D01*
G01X22736Y54921D02*
X18996D01*
G01X21654Y-8268D02*
X23031Y-9646D01*
G54D25*
X-7756Y-26480D03*
Y-24511D03*
Y-22542D03*
Y-20573D03*
Y-18604D03*
Y-16635D03*
Y-14666D03*
Y-12697D03*
Y-10728D03*
Y-8759D03*
Y-6790D03*
Y-4821D03*
Y-2852D03*
Y-883D03*
Y1086D03*
Y3055D03*
X27244Y-16635D03*
Y-18604D03*
Y-20573D03*
Y-22542D03*
Y-24511D03*
Y-26480D03*
Y1086D03*
Y-883D03*
Y-2852D03*
Y-4821D03*
Y-6790D03*
Y-8759D03*
Y-10728D03*
Y-12697D03*
Y-14666D03*
Y3055D03*
G54D16*
X-33760Y20177D03*
X-36319D03*
Y32382D03*
X-33760D03*
X-28642Y20177D03*
X-31201D03*
Y32382D03*
X-28642D03*
X-7480Y20177D03*
X-10039D03*
X-12598D03*
X-15157D03*
Y32382D03*
X-12598D03*
X-10039D03*
X-7480D03*
X13976Y20374D03*
X11417D03*
X8858D03*
X6299D03*
Y32579D03*
X8858D03*
X11417D03*
X13976D03*
G54D35*
G01X-58169Y-15453D02*
Y-18307D01*
X-57480Y-18996D01*
G01D02*
X-57776D01*
X-58169Y-18602D01*
G01X-57480Y-18996D02*
X-55504Y-17020D01*
Y-12016D01*
X-57480Y-10039D01*
G01D02*
X-55504Y-8063D01*
Y-3059D01*
X-57480Y-1083D01*
G01D02*
X-55504Y894D01*
Y5898D01*
X-57480Y7874D01*
G01D02*
X-55504Y9850D01*
Y14854D01*
X-57480Y16831D01*
G01D02*
X-55504Y18807D01*
Y23811D01*
X-57480Y25787D01*
G01X-34626Y-12058D02*
Y-15826D01*
X-34744Y-15945D01*
G01X-34606Y-19696D02*
Y-16083D01*
X-34744Y-15945D01*
G01X-34666Y3218D02*
X-33917Y2469D01*
X-33640D01*
X-32079Y907D01*
Y-1301D01*
X-34666Y-3888D01*
Y-4400D01*
X-34646Y-4420D01*
G01D02*
Y-12038D01*
X-34626Y-12058D01*
G01X-34686Y10855D02*
Y9814D01*
X-32079Y7207D01*
Y4998D01*
X-33859Y3218D01*
X-34666D01*
G01X31398Y39365D02*
X31404Y37100D01*
X32570Y35933D01*
X38583D01*
G01X41339Y27264D02*
Y33177D01*
X38583Y35933D01*
G01X31398Y44286D02*
Y39365D01*
G01X38583Y35933D02*
X59047D01*
X62894Y32087D01*
Y27264D01*
G01D02*
X63320D01*
X66339Y24245D01*
Y15650D01*
G54D17*
X-32915Y41437D03*
X-11754D03*
X9605D03*
G54D26*
X5512Y-51476D03*
Y-64272D03*
G54D27*
X15846Y-44488D03*
X26870D03*
G54D18*
X-36417Y37598D03*
Y40157D03*
Y42717D03*
Y45276D03*
X-15256Y37598D03*
X-24213D03*
X-15256Y40157D03*
Y42717D03*
Y45276D03*
X-24213D03*
Y42717D03*
Y40157D03*
X-3051Y37598D03*
Y45276D03*
Y42717D03*
Y40157D03*
X6102Y37598D03*
X18307D03*
X6102Y40157D03*
Y42717D03*
Y45276D03*
X18307D03*
Y42717D03*
Y40157D03*
G54D28*
X9744Y-11713D03*
G54D19*
X-31594Y54232D03*
X-10925D03*
X9744D03*
G54D29*
X34646Y-52854D03*
Y-38091D03*
Y-43012D03*
Y-47933D03*
M02*
