G04 ================== begin FILE IDENTIFICATION RECORD ==================*
G04 Layout Name:  d:/project/07_foc/foc/circuit/candence/stm32/stspin32g4_foc.brd*
G04 Film Name:    all*
G04 File Format:  Gerber RS274X*
G04 File Origin:  Cadence Allegro 17.4-S039*
G04 Origin Date:  Sat Nov  8 15:02:02 2025*
G04 *
G04 Layer:  PIN/TOP*
G04 Layer:  PIN/BOTTOM*
G04 Layer:  PACKAGE GEOMETRY/SILKSCREEN_TOP*
G04 Layer:  BOARD GEOMETRY/SILKSCREEN_TOP*
G04 Layer:  PACKAGE GEOMETRY/SILKSCREEN_BOTTOM*
G04 Layer:  BOARD GEOMETRY/SILKSCREEN_BOTTOM*
G04 Layer:  BOARD GEOMETRY/OUTLINE*
G04 *
G04 Offset:    (0.0000 0.0000)*
G04 Mirror:    No*
G04 Mode:      Positive*
G04 Rotation:  0*
G04 FullContactRelief:  No*
G04 UndefLineWidth:     0.1524*
G04 ================== end FILE IDENTIFICATION RECORD ====================*
%FSLAX55Y55*MOMM*%
%IR0*IPPOS*OFA0.00000B0.00000*MIA0B0*SFA1.00000B1.00000*%
%ADD25O,1.2X.4*%
%ADD22R,.5X1.7*%
%ADD15R,1.0033X.4572*%
%ADD23R,.59X1.39*%
%ADD32R,1.1X1.*%
%ADD12R,2.1X2.3*%
%ADD26R,1.5X1.3*%
%ADD11R,1.2X2.5*%
%ADD24R,.5X.3*%
%ADD21R,.4X.5*%
%ADD19R,.7X.4*%
%ADD31R,1.6X2.7*%
%ADD17R,.4X.7*%
%ADD10R,1.6X1.8*%
%ADD16R,2.55X2.51*%
%ADD18R,2.51X2.55*%
%ADD33C,1.016*%
%ADD14R,.65X.6*%
%ADD13R,.6X.65*%
%ADD20R,1.5X1.5*%
%ADD34R,1.1999X1.4*%
%ADD29R,.8128X.254*%
%ADD28R,.254X.8128*%
%ADD30R,4.0894X4.0894*%
%ADD27R,.8128X.9906*%
%ADD35C,.1*%
%ADD36C,.2*%
%ADD37C,.12*%
%ADD38C,.15*%
%ADD39C,.1501*%
%ADD40C,.1524*%
%ADD41C,.05*%
G75*
%LPD*%
G75*
G36*
G01X-58530Y-808040D02*
Y-833440D01*
X-96630D01*
Y-808040D01*
X-58530D01*
G37*
G36*
G01X-288440Y-291540D02*
Y-253440D01*
X-263040D01*
Y-291540D01*
X-288440D01*
G37*
G36*
G01X-8520Y213040D02*
Y238440D01*
X-46620D01*
Y213040D01*
X-8520D01*
G37*
G36*
G01X441590Y-808040D02*
Y-833440D01*
X403490D01*
Y-808040D01*
X441590D01*
G37*
G36*
G01X491610Y213040D02*
Y238440D01*
X453510D01*
Y213040D01*
X491610D01*
G37*
G36*
G01X783440Y-241530D02*
Y-203430D01*
X758040D01*
Y-241530D01*
X783440D01*
G37*
G54D10*
X-1397500Y-447500D03*
Y-190000D03*
Y325000D03*
Y67500D03*
X-1502500Y617500D03*
X-1222500D03*
X-827500Y-445000D03*
X-820000Y-705000D03*
X-1117500Y-447500D03*
X-702500Y-190000D03*
X-982500D03*
X-1117500D03*
X-840000Y350000D03*
X-1120000D03*
X-837500Y75000D03*
X-1117500D03*
Y325000D03*
Y67500D03*
X-547500Y-445000D03*
X-540000Y-705000D03*
X-132500Y-1115000D03*
X147500D03*
X405000Y-1465000D03*
X685000D03*
X410000Y-1737500D03*
X690000D03*
G54D20*
X-802500Y1377500D03*
X-277500D03*
X247500D03*
G54D11*
X-737500Y-1752500D03*
X182500D03*
X325000D03*
X745000D03*
G54D30*
X247500Y-297500D03*
G54D21*
X-547500Y-1817500D03*
X-652500D03*
X-380000D03*
X-275000D03*
G54D12*
X-827500Y-1047500D03*
X-307500D03*
G54D40*
G01X-807750Y-957520D02*
X-617250D01*
G01Y-637480D02*
X-807750D01*
G01X-219860Y-718570D02*
Y-764860D01*
G01D02*
X-173570D01*
G01Y169860D02*
X-219860D01*
G01D02*
Y123570D01*
G01X668570Y-764860D02*
X714860D01*
G01D02*
Y-718570D01*
G01X1079500Y-557500D02*
X1055500D01*
G01X902400Y-285740D02*
X866840Y-247640D01*
Y-321300D01*
X902400Y-285740D01*
G01X1079500Y-237500D02*
X1055500D01*
G01X942500Y-372100D02*
Y-422900D01*
G01X714860Y123570D02*
Y169860D01*
G01D02*
X668570D01*
G01X1192500Y-372100D02*
Y-422900D01*
G01X-820650Y-1890000D02*
Y-1670820D01*
G02X-1052120Y-1534770I893933J1785834D01*
G02X-1064540Y-1446030I34339J50045D01*
G03X-1124070Y-1055940I-203618J168514D01*
G02X-1217360Y-846900I114751J176548D01*
G03X-1517360Y-665730I-187122J29114D01*
G02X-1759140Y-603860I-95817J128915D01*
G02X-1569900Y997270I1759280J603816D01*
G02X-1534910Y1051760I623157J-361672D01*
G02X-1446210Y1064530I50186J-34153D01*
G03X-1013280Y1269270I168668J203439D01*
G01X-1013520Y1280740D01*
G02X-784850Y1521440I240509J482D01*
G01X-175370Y1523680D01*
X-175230D01*
G02X-162290Y1517920I229J-16900D01*
G03X150770Y1519010I156159J106977D01*
G02X163860Y1524930I13023J-11364D01*
G01X163970D01*
X773410Y1527180D01*
G02X1003710Y1277090I-10155J-240434D01*
G03X1437950Y1074980I264282J275D01*
G02X1516570Y1074590I39080J-46539D01*
G02X1779400Y543470I-1516285J-1080941D01*
G02X1769620Y-574500I-1779402J-543462D01*
G02X1521920Y-654530I-152792J49563D01*
G03X1223270Y-837910I-111751J-152883D01*
G02X1131610Y-1047640I-207976J-34001D01*
G03X1074960Y-1438140I145732J-220501D01*
G02X1063180Y-1526990I-46505J-39040D01*
G02X820650Y-1669960I-1069268J1536679D01*
G01Y-1890000D01*
X-820650D01*
G01X-1620090Y-6340D02*
G03I-79996J0D01*
G01X-1064540Y-1446030D02*
G03X-1052130Y-1534760I46758J-38693D01*
G01X-1217360Y-846900D02*
G03X-1124070Y-1055930I208039J-32485D01*
G01X-1064540Y-1446030D02*
G03X-1124070Y-1055930I-203619J168520D01*
G01X-519000Y-1114290D02*
X-589780Y-1207420D01*
G01X-554390Y-1224350D02*
Y-1097350D01*
G01X-589780Y-1114290D02*
X-519000Y-1207420D01*
G01X-506130Y-1160850D02*
X-602650D01*
G01X1023450Y307340D02*
Y434340D01*
X991280D01*
X978410Y427990D01*
X968760Y419520D01*
X960710Y406830D01*
X954280Y392000D01*
X952670Y370840D01*
X954280Y349670D01*
X960710Y334850D01*
X968760Y322150D01*
X978410Y313690D01*
X991280Y307340D01*
X1023450D01*
G01X882650Y364490D02*
X831170D01*
X836000Y379310D01*
X844040Y387770D01*
X855300Y392000D01*
X866560Y389890D01*
X876220Y383540D01*
X882650Y368720D01*
X885870Y356020D01*
Y343320D01*
X882650Y330620D01*
X874610Y317920D01*
X864950Y309460D01*
X853690Y307340D01*
X842430Y311570D01*
X831170Y324270D01*
G01X753110Y322150D02*
X745070Y313690D01*
X733810Y307340D01*
X724150D01*
X714500Y311570D01*
X708070Y317920D01*
X704850Y326390D01*
X706460Y339090D01*
X712890Y345440D01*
X741850Y358140D01*
X748280Y372960D01*
X745070Y383540D01*
X738630Y389890D01*
X728980Y392000D01*
X719330Y389890D01*
X709680Y383540D01*
G01X599440Y392000D02*
Y307340D01*
G01Y425870D02*
X602660Y427990D01*
Y432220D01*
X599440Y434340D01*
X596220Y432220D01*
Y427990D01*
X599440Y425870D01*
G01X492420Y275590D02*
X481160Y267120D01*
X468290Y265010D01*
X457030Y267120D01*
X447380Y277710D01*
X440940Y292520D01*
Y392000D01*
G01Y375070D02*
X447380Y383540D01*
X457030Y389890D01*
X468290Y392000D01*
X481160Y387770D01*
X489200Y379310D01*
X495640Y364490D01*
X498860Y349670D01*
X497250Y336970D01*
X490810Y322150D01*
X481160Y311570D01*
X468290Y307340D01*
X458640Y309460D01*
X447380Y317920D01*
X440940Y326390D01*
G01X367710Y307340D02*
Y392000D01*
G01Y370840D02*
X361270Y381420D01*
X351620Y389890D01*
X338750Y392000D01*
X327490Y389890D01*
X317840Y381420D01*
X313010Y366610D01*
Y307340D01*
G01X181860D02*
Y392000D01*
G01Y377190D02*
X188300Y385660D01*
X197950Y389890D01*
X209210Y392000D01*
X220470Y387770D01*
X230120Y379310D01*
X236560Y366610D01*
X239780Y349670D01*
X236560Y332740D01*
X230120Y320040D01*
X220470Y311570D01*
X209210Y307340D01*
X197950Y309460D01*
X188300Y315800D01*
X181860Y324270D01*
G01X81280Y434340D02*
Y307340D01*
G01X103800Y392000D02*
X58760D01*
G01X-48260Y307340D02*
X-38610Y309460D01*
X-28960Y317920D01*
X-22520Y332740D01*
X-19300Y349670D01*
X-22520Y366610D01*
X-28960Y381420D01*
X-38610Y389890D01*
X-48260Y392000D01*
X-57910Y389890D01*
X-67560Y381420D01*
X-74000Y366610D01*
X-75610Y349670D01*
X-74000Y332740D01*
X-67560Y317920D01*
X-57910Y309460D01*
X-48260Y307340D01*
G01X-155280D02*
Y392000D01*
G01Y375070D02*
X-163320Y383540D01*
X-171370Y389890D01*
X-182630Y392000D01*
X-190670Y389890D01*
X-200320Y383540D01*
G01X-279990Y322150D02*
X-291250Y311570D01*
X-304120Y307340D01*
X-316990Y311570D01*
X-328250Y324270D01*
X-336300Y343320D01*
X-339510Y362370D01*
Y385660D01*
X-336300Y404710D01*
X-328250Y421640D01*
X-318600Y430110D01*
X-307340Y434340D01*
X-294470Y430110D01*
X-284820Y421640D01*
X-278380Y408940D01*
X-275170Y392000D01*
X-278380Y377190D01*
X-286430Y362370D01*
X-296080Y353900D01*
X-307340Y351790D01*
X-320210Y356020D01*
X-329860Y366610D01*
X-339510Y385660D01*
G01X1131610Y-1047640D02*
G03X1074960Y-1438140I145730J-220500D01*
G01X831530Y-629870D02*
X760750Y-723000D01*
G01X796140Y-739930D02*
Y-612930D01*
G01X760750Y-629870D02*
X831530Y-723000D01*
G01X844400Y-676430D02*
X747880D01*
G01X1131610Y-1047640D02*
G03X1223270Y-837910I-116313J175728D01*
G01X1779890Y6180D02*
G03I-79999J1D01*
G54D13*
X-780000Y-1297500D03*
Y-1200000D03*
X-680000Y-1297500D03*
X-480000D03*
X-380000D03*
X-680000Y-1200000D03*
X-380000D03*
X-480000D03*
X-402500Y-535000D03*
X-502500D03*
X-402500Y-160000D03*
X-502500D03*
X-402500Y-412500D03*
X-502500D03*
X-402500Y-35000D03*
X-502500D03*
X-402500Y-285000D03*
X-502500D03*
X-402500Y90000D03*
X-502500D03*
X105000Y-922500D03*
X205000D03*
X180000Y-750000D03*
X657500Y-872500D03*
X280000Y-750000D03*
X392500D03*
X492500D03*
X610000Y-77500D03*
X510000D03*
X610000Y17500D03*
X510000D03*
X757500Y-872500D03*
X1065000Y-760000D03*
X965000D03*
X1065000Y-852500D03*
X965000D03*
X1052500Y-650000D03*
X1152500D03*
X982500Y-147500D03*
X1082500D03*
X1075840Y242500D03*
X880000Y142500D03*
X980000D03*
X879170Y345000D03*
X979170D03*
X980840Y242500D03*
X880840D03*
X1075000Y142500D03*
X1074170Y345000D03*
X1050000Y597500D03*
X950000D03*
Y692500D03*
X1050000D03*
X897500Y1155000D03*
X797500D03*
Y1247500D03*
X897500D03*
X1437500Y-242500D03*
X1537500D03*
Y-155000D03*
X1437500D03*
X1175840Y242500D03*
X1565840D03*
X1465840D03*
X1270000Y142500D03*
X1370000D03*
X1464170Y345000D03*
X1564170D03*
X1269170D03*
X1369170D03*
X1565000Y142500D03*
X1465000D03*
X1270840Y242500D03*
X1370840D03*
X1175000Y142500D03*
X1174170Y345000D03*
X1512500Y597500D03*
X1412500D03*
Y692500D03*
X1512500D03*
G54D31*
X402500Y-1130000D03*
X682500D03*
G54D22*
X-627500Y-1412500D03*
X-527500D03*
X-427500D03*
X-327500D03*
X-227500D03*
X-127500D03*
X-27500D03*
X72500D03*
X435000D03*
X535000D03*
X635000D03*
G54D41*
G01X-517500Y-1135000D02*
Y-1035000D01*
X-642500D01*
Y-1135000D01*
X-517500D01*
G54D14*
X-1010000Y-1020000D03*
X-877500Y-1097500D03*
Y-997500D03*
X-1012500Y-800000D03*
Y-700000D03*
X-1010000Y-920000D03*
X-1065000Y875000D03*
Y775000D03*
X-580000Y-1300000D03*
Y-1200000D03*
X-405000Y-795000D03*
Y-695000D03*
Y-127500D03*
Y-227500D03*
X-525000Y875000D03*
Y775000D03*
X-590000Y570000D03*
Y670000D03*
X-520000Y1250000D03*
Y1150000D03*
X25000Y875000D03*
Y775000D03*
X-47500Y570000D03*
Y670000D03*
X17500Y1250000D03*
Y1150000D03*
X492500Y570000D03*
Y670000D03*
X647500Y597500D03*
Y697500D03*
X565000Y1250000D03*
Y1150000D03*
X752500Y597500D03*
Y697500D03*
X1140000Y595000D03*
Y695000D03*
X855000Y595000D03*
Y695000D03*
X1325000Y595000D03*
Y695000D03*
X1232500Y595000D03*
Y695000D03*
G54D32*
X550000Y-210000D03*
Y147500D03*
X577500Y1395000D03*
X1062500Y-815000D03*
X892500D03*
X720000Y-210000D03*
Y147500D03*
X747500Y1395000D03*
X1332500Y2500D03*
X1502500D03*
G54D23*
X-675000Y-1666500D03*
X-485000D03*
X-580000Y-1433500D03*
G54D33*
X880000Y-967500D03*
D03*
Y-1092500D03*
D03*
Y-1217500D03*
D03*
Y-1342500D03*
D03*
G54D24*
X-640000Y-1112500D03*
Y-1057500D03*
X-520000D03*
Y-1112500D03*
G54D15*
X-845210Y-895000D03*
Y-830000D03*
Y-765000D03*
Y-700000D03*
X-579790D03*
Y-765000D03*
Y-830000D03*
Y-895000D03*
G54D34*
X1152500Y-507500D03*
X982500D03*
X1152500Y-287500D03*
X982500D03*
G54D16*
X-825000Y601460D03*
X-287500D03*
X257500Y606460D03*
G54D25*
X-285000Y-32500D03*
Y-97500D03*
Y-162500D03*
Y-227500D03*
Y227500D03*
Y162500D03*
Y97500D03*
Y32500D03*
X285000Y-227500D03*
Y-162500D03*
Y-97500D03*
Y-32500D03*
Y32500D03*
Y97500D03*
Y162500D03*
Y227500D03*
G54D35*
G01X-677500Y-1422500D02*
X-795000D01*
Y-1609500D01*
G01X-307500Y-1177500D02*
Y-1237500D01*
X-827500D01*
Y-1177500D01*
G01Y-917500D02*
Y-857500D01*
X-307500D01*
Y-917500D01*
G01X-730000Y-1867500D02*
Y-1767500D01*
G01X-720000D02*
Y-1867500D01*
G01X-490000Y-1767500D02*
Y-1867500D01*
X-710000D01*
Y-1767500D01*
X-490000D01*
G01X-437500Y-1867500D02*
Y-1767500D01*
X-217500D01*
Y-1867500D01*
X-437500D01*
G01X102500Y-1852500D02*
X-657500D01*
G01X-567500Y-1047500D02*
X-607500Y-1087500D01*
Y-1007500D01*
X-567500Y-1047500D01*
X-527500Y-1007500D01*
Y-1087500D01*
X-567500Y-1047500D01*
G01X-197500Y-1767500D02*
Y-1867500D01*
G01X-207500D02*
Y-1767500D01*
G01X240000Y-1609500D02*
Y-1422500D01*
X122500D01*
G01X387000D02*
X267500D01*
Y-1609500D01*
G01X665000Y-1852500D02*
X405000D01*
G01X802500Y-1609500D02*
Y-1422500D01*
X683000D01*
G54D17*
X-792500Y512500D03*
X-857500D03*
X-922500D03*
Y822500D03*
X-857500D03*
X-792500D03*
X-727500Y512500D03*
Y822500D03*
X-320000Y512500D03*
X-385000D03*
Y822500D03*
X-320000D03*
X160000Y517500D03*
Y827500D03*
X-190000Y512500D03*
X-255000D03*
Y822500D03*
X-190000D03*
X355000Y517500D03*
X290000D03*
X225000D03*
Y827500D03*
X290000D03*
X355000D03*
G54D26*
X-462500Y1210000D03*
Y1020000D03*
X80000Y1210000D03*
Y1020000D03*
X627500Y1210000D03*
Y1020000D03*
G54D36*
G01X-1021280Y-559500D02*
X-1493720D01*
G01X-1494240Y-559680D02*
G02Y-336160I342174J111760D01*
G01X-1021280Y-44500D02*
X-1493720D01*
G01X-1494240Y-44680D02*
G02Y178840I342174J111760D01*
G01X-1021280Y-78000D02*
X-1493720D01*
G01X-1021280Y-302000D02*
X-1493720D01*
G01X-1494240Y-302180D02*
G02Y-78660I342174J111760D01*
G01X-1021280Y-335500D02*
X-1493720D01*
G01X-1021280Y213000D02*
X-1493720D01*
G01X-1494240Y212820D02*
G02Y436340I342174J111760D01*
G01X-1021280Y179500D02*
X-1493720D01*
G01X-1126280Y729500D02*
X-1598720D01*
G01X-1126280Y505500D02*
X-1598720D01*
G01X-1599240Y505320D02*
G02Y728840I342174J111760D01*
G01X-1021280Y437000D02*
X-1493720D01*
G01X-640000Y-1350000D02*
G03Y-1245000I-90393J52500D01*
G01X-820000D01*
G03Y-1350000I90393J-52500D01*
G01X-640000D01*
G01X-1062500Y-870000D02*
X-957500D01*
Y-1070000D01*
X-1062500D01*
Y-870000D01*
G01X-930000Y-947500D02*
X-825000D01*
Y-1147500D01*
X-930000D01*
Y-947500D01*
G01X-830000Y-1252500D02*
Y-1147500D01*
X-630000D01*
Y-1252500D01*
X-830000D01*
G01X-923720Y-557000D02*
X-451280D01*
G01X-923720Y-333240D02*
G03Y-556760I342174J-111760D01*
G01X-916220Y-593000D02*
X-443780D01*
G01X-916220Y-817000D02*
X-443780D01*
G01X-916220Y-593240D02*
G03Y-816760I342174J-111760D01*
G01X-1021280Y-335740D02*
G02Y-559260I-342174J-111760D01*
G01X-960000Y-660000D02*
G03X-1065000I-52500J-90393D01*
G01Y-840000D01*
G03X-960000I52500J90393D01*
G01Y-660000D01*
G01X-923720Y-333000D02*
X-451280D01*
G01X-1078720Y-78000D02*
X-606280D01*
G01X-1078720Y-302000D02*
X-606280D01*
G01X-1078720Y-78240D02*
G03Y-301760I342174J-111760D01*
G01X-1021280Y179260D02*
G02Y-44260I-342174J-111760D01*
G01Y-78240D02*
G02Y-301760I-342174J-111760D01*
G01X-1216220Y238000D02*
X-743780D01*
G01X-1216220Y461760D02*
G03Y238240I342174J-111760D01*
G01X-1213720Y187000D02*
X-741280D01*
G01X-1213720Y-37000D02*
X-741280D01*
G01X-1213720Y186760D02*
G03Y-36760I342174J-111760D01*
G01X-1021280Y436760D02*
G02Y213240I-342174J-111760D01*
G01X-1216220Y462000D02*
X-743780D01*
G01X-1126280Y729260D02*
G02Y505740I-342174J-111760D01*
G01X-1012500Y725000D02*
X-1117500D01*
Y925000D01*
X-1012500D01*
Y725000D01*
G01X-995000Y505000D02*
X-970300D01*
G01X-995000Y529700D02*
Y505000D01*
G01Y830000D02*
Y805300D01*
G01Y830000D02*
X-970300D01*
G01X-907800Y882500D02*
X-932500D01*
G01Y907200D02*
Y882500D01*
G01Y1222500D02*
Y1197800D01*
G01X-907800Y1222500D02*
X-932500D01*
G01X-527500Y-1160000D02*
G03X-632500I-52500J-90393D01*
G01Y-1340000D01*
G03X-527500I52500J90393D01*
G01Y-1160000D01*
G01X-340000Y-1350000D02*
G03Y-1245000I-90393J52500D01*
G01X-520000D01*
G03Y-1350000I90393J-52500D01*
G01X-340000D01*
G01X-530000Y-1252500D02*
Y-1147500D01*
X-330000D01*
Y-1252500D01*
X-530000D01*
G01X-450760Y-557180D02*
G03Y-333660I-342174J111760D01*
G01X-443260Y-817180D02*
G03Y-593660I-342174J111760D01*
G01X-352500Y-655000D02*
G03X-457500I-52500J-90393D01*
G01Y-835000D01*
G03X-352500I52500J90393D01*
G01Y-655000D01*
G01X-552500Y-587500D02*
Y-482500D01*
X-352500D01*
Y-587500D01*
X-552500D01*
G01X-605760Y-302180D02*
G03Y-78660I-342174J111760D01*
G01X-352500Y-267500D02*
G02X-457500I-52500J90393D01*
G01Y-87500D01*
G02X-352500I52500J-90393D01*
G01Y-267500D01*
G01X-542500Y-107500D02*
G03Y-212500I90393J-52500D01*
G01X-362500D01*
G03Y-107500I-90393J52500D01*
G01X-542500D01*
G01Y-360000D02*
G03Y-465000I90393J-52500D01*
G01X-362500D01*
G03Y-360000I-90393J52500D01*
G01X-542500D01*
G01X-552500Y-87500D02*
Y17500D01*
X-352500D01*
Y-87500D01*
X-552500D01*
G01Y-337500D02*
Y-232500D01*
X-352500D01*
Y-337500D01*
X-552500D01*
G01X-743260Y237820D02*
G03Y461340I-342174J111760D01*
G01X-740760Y-37180D02*
G03Y186340I-342174J111760D01*
G01X-542500Y142500D02*
G03Y37500I90393J-52500D01*
G01X-362500D01*
G03Y142500I-90393J52500D01*
G01X-542500D01*
G01X-472500Y725000D02*
X-577500D01*
Y925000D01*
X-472500D01*
Y725000D01*
G01X-642500Y720000D02*
X-537500D01*
Y520000D01*
X-642500D01*
Y720000D01*
G01X-370300Y882500D02*
X-395000D01*
G01Y907200D02*
Y882500D01*
G01X-655000Y529700D02*
Y505000D01*
G01X-679700D02*
X-655000D01*
G01X-679700Y830000D02*
X-655000D01*
G01D02*
Y717500D01*
G01X-607500Y907200D02*
Y882500D01*
G01D02*
X-720000D01*
G01X-457500Y505000D02*
X-432800D01*
G01X-457500Y529700D02*
Y505000D01*
G01Y830000D02*
Y805300D01*
G01Y830000D02*
X-432800D01*
G01X-365500Y1215000D02*
Y932120D01*
X-559500D01*
Y1297880D01*
X-365500D01*
Y1215000D01*
G01X-467500Y1100000D02*
X-572500D01*
Y1300000D01*
X-467500D01*
Y1100000D01*
G01X-395000Y1222500D02*
Y1197800D01*
G01X-370300Y1222500D02*
X-395000D01*
G01X-607500D02*
X-632200D01*
G01X-607500D02*
Y1197800D01*
G01X243720Y-1003000D02*
X-228720D01*
G01X243720Y-1227000D02*
X-228720D01*
G01X-229240Y-1227180D02*
G02Y-1003660I342174J111760D01*
G01X245000Y-975000D02*
G03Y-870000I-90393J52500D01*
G01X65000D01*
G03Y-975000I90393J-52500D01*
G01X245000D01*
G01X320000Y-697500D02*
G02Y-802500I-90393J-52500D01*
G01X140000D01*
G02Y-697500I90393J52500D01*
G01X320000D01*
G01X185000Y-255000D02*
X-185000D01*
G01X200000Y255000D02*
X-185000D01*
G01X77500Y725000D02*
X-27500D01*
Y925000D01*
X77500D01*
Y725000D01*
G01X-100000Y720000D02*
X5000D01*
Y520000D01*
X-100000D01*
Y720000D01*
G01X87500Y510000D02*
X112200D01*
G01X87500Y534700D02*
Y510000D01*
G01Y835000D02*
Y810300D01*
G01Y835000D02*
X112200D01*
G01X172200Y882500D02*
X147500D01*
G01Y907200D02*
Y882500D01*
G01X-70000Y907200D02*
Y882500D01*
G01D02*
X-182500D01*
G01X-117500Y529700D02*
Y505000D01*
G01X-142200D02*
X-117500D01*
G01X-142200Y830000D02*
X-117500D01*
G01D02*
Y717500D01*
G01X177000Y1215000D02*
Y932120D01*
X-17000D01*
Y1297880D01*
X177000D01*
Y1215000D01*
G01X70000Y1100000D02*
X-35000D01*
Y1300000D01*
X70000D01*
Y1100000D01*
G01X147500Y1222500D02*
Y1197800D01*
G01X172200Y1222500D02*
X147500D01*
G01X-70000D02*
X-94700D01*
G01X-70000D02*
Y1197800D01*
G01X781220Y-1577000D02*
X308780D01*
G01X308260Y-1577180D02*
G02Y-1353660I342174J111760D01*
G01X786220Y-1625500D02*
X313780D01*
G01X786220Y-1849500D02*
X313780D01*
G01X313260Y-1849680D02*
G02Y-1626160I342174J111760D01*
G01X781220Y-1353000D02*
X308780D01*
G01X243720Y-1003240D02*
G02Y-1226760I-342174J-111760D01*
G01X382500Y-1287000D02*
X786340D01*
Y-973000D01*
X298660D01*
Y-1287000D01*
X382500D01*
G01X617500Y-820000D02*
G03Y-925000I90393J-52500D01*
G01X797500D01*
G03Y-820000I-90393J52500D01*
G01X617500D01*
G01X542500Y-802500D02*
Y-697500D01*
X342500D01*
Y-802500D01*
X542500D01*
G01X470000Y-130000D02*
G02Y-25000I90393J52500D01*
G01X650000D01*
G02Y-130000I-90393J-52500D01*
G01X470000D01*
G01Y-35000D02*
G02Y70000I90393J52500D01*
G01X650000D01*
G02Y-35000I-90393J-52500D01*
G01X470000D01*
G01X440000Y720000D02*
X545000D01*
Y520000D01*
X440000D01*
Y720000D01*
G01X595000Y747500D02*
X700000D01*
Y547500D01*
X595000D01*
Y747500D01*
G01X427500Y534700D02*
Y510000D01*
G01X402800D02*
X427500D01*
G01X402800Y835000D02*
X427500D01*
G01D02*
Y722500D01*
G01X472500Y907200D02*
Y882500D01*
G01D02*
X360000D01*
G01X724500Y1215000D02*
Y932120D01*
X530500D01*
Y1297880D01*
X724500D01*
Y1215000D01*
G01X617500Y1100000D02*
X512500D01*
Y1300000D01*
X617500D01*
Y1100000D01*
G01X472500Y1222500D02*
X447800D01*
G01X472500D02*
Y1197800D01*
G01X742500Y1467000D02*
X499940D01*
Y1323000D01*
X825060D01*
Y1467000D01*
X742500D01*
G01X781220Y-1353240D02*
G02Y-1576760I-342174J-111760D01*
G01X786220Y-1625740D02*
G02Y-1849260I-342174J-111760D01*
G01X925000Y-707500D02*
G03Y-812500I90393J-52500D01*
G01X1105000D01*
G03Y-707500I-90393J52500D01*
G01X925000D01*
G01Y-800000D02*
G03Y-905000I90393J-52500D01*
G01X1105000D01*
G03Y-800000I-90393J52500D01*
G01X925000D01*
G01X1192500Y-702500D02*
G03Y-597500I-90393J52500D01*
G01X1012500D01*
G03Y-702500I90393J-52500D01*
G01X1192500D01*
G01X1122500Y-200000D02*
G03Y-95000I-90393J52500D01*
G01X942500D01*
G03Y-200000I90393J-52500D01*
G01X1122500D01*
G01X1035840Y295000D02*
G03Y190000I90393J-52500D01*
G01X1215840D01*
G03Y295000I-90393J52500D01*
G01X1035840D01*
G01X1020000Y90000D02*
G03Y195000I-90393J52500D01*
G01X840000D01*
G03Y90000I90393J-52500D01*
G01X1020000D01*
G01X1029170Y397500D02*
Y292500D01*
X829170D01*
Y397500D01*
X1029170D01*
G01X830840Y190000D02*
Y295000D01*
X1030840D01*
Y190000D01*
X830840D01*
G01X1025000Y90000D02*
Y195000D01*
X1225000D01*
Y90000D01*
X1025000D01*
G01X1224170Y397500D02*
Y292500D01*
X1024170D01*
Y397500D01*
X1224170D01*
G01X900000Y545000D02*
Y650000D01*
X1100000D01*
Y545000D01*
X900000D01*
G01X700000Y747500D02*
X805000D01*
Y547500D01*
X700000D01*
Y747500D01*
G01X1100000Y745000D02*
Y640000D01*
X900000D01*
Y745000D01*
X1100000D01*
G01X1087500D02*
X1192500D01*
Y545000D01*
X1087500D01*
Y745000D01*
G01X802500D02*
X907500D01*
Y545000D01*
X802500D01*
Y745000D01*
G01X757500Y1207500D02*
G03Y1102500I90393J-52500D01*
G01X937500D01*
G03Y1207500I-90393J52500D01*
G01X757500D01*
G01X947500Y1300000D02*
Y1195000D01*
X747500D01*
Y1300000D01*
X947500D01*
G01X1577500Y-295000D02*
G03Y-190000I-90393J52500D01*
G01X1397500D01*
G03Y-295000I90393J-52500D01*
G01X1577500D01*
G01X1387500Y-207500D02*
Y-102500D01*
X1587500D01*
Y-207500D01*
X1387500D01*
G01X1337500Y-69500D02*
X1580060D01*
Y74500D01*
X1254940D01*
Y-69500D01*
X1337500D01*
G01X1415840Y190000D02*
Y295000D01*
X1615840D01*
Y190000D01*
X1415840D01*
G01X1420000Y195000D02*
Y90000D01*
X1220000D01*
Y195000D01*
X1420000D01*
G01X1614170Y397500D02*
Y292500D01*
X1414170D01*
Y397500D01*
X1614170D01*
G01X1419170D02*
Y292500D01*
X1219170D01*
Y397500D01*
X1419170D01*
G01X1415000Y90000D02*
Y195000D01*
X1615000D01*
Y90000D01*
X1415000D01*
G01X1420840Y295000D02*
Y190000D01*
X1220840D01*
Y295000D01*
X1420840D01*
G01X1362500Y545000D02*
Y650000D01*
X1562500D01*
Y545000D01*
X1362500D01*
G01X1272500Y745000D02*
X1377500D01*
Y545000D01*
X1272500D01*
Y745000D01*
G01X1562500D02*
Y640000D01*
X1362500D01*
Y745000D01*
X1562500D01*
G01X1180000D02*
X1285000D01*
Y545000D01*
X1180000D01*
Y745000D01*
G54D27*
X140000Y-1594990D03*
Y-1345010D03*
G54D18*
X-836040Y1052500D03*
X-298540D03*
X243960D03*
G54D37*
G01X-722500Y-1635000D02*
X-735000D01*
Y-1465000D01*
X-627500D01*
G01X-437500Y-1635000D02*
X-425000D01*
Y-1465000D01*
X-532500D01*
G54D28*
X172480Y-742000D03*
X122470D03*
X72460D03*
X22440D03*
X-27570D03*
X-77580D03*
X-127590D03*
Y147000D03*
X-77580D03*
X-27570D03*
X22440D03*
X72460D03*
X122470D03*
X172480D03*
X622590Y-742000D03*
X572580D03*
X522570D03*
X472560D03*
X422540D03*
X372530D03*
X322520D03*
X272510D03*
X222490D03*
Y147000D03*
X272510D03*
X322520D03*
X372530D03*
X422540D03*
X472560D03*
X522570D03*
X572580D03*
X622590D03*
G54D19*
X-925000Y955000D03*
Y1020000D03*
Y1085000D03*
Y1150000D03*
X-387500Y955000D03*
Y1020000D03*
Y1085000D03*
Y1150000D03*
X-615000D03*
Y1085000D03*
Y1020000D03*
Y955000D03*
X155000D03*
Y1020000D03*
Y1085000D03*
Y1150000D03*
X-77500D03*
Y1085000D03*
Y1020000D03*
Y955000D03*
X465000Y1150000D03*
Y1085000D03*
Y1020000D03*
Y955000D03*
G54D38*
G01X180000Y-1190000D02*
X100000D01*
G01X140000Y-1150000D02*
Y-1230000D01*
G54D29*
X-197000Y-672590D03*
Y-622580D03*
Y-572570D03*
Y-522560D03*
Y-472540D03*
Y-422530D03*
Y-372520D03*
Y-322510D03*
Y-272490D03*
Y-222480D03*
Y-172470D03*
Y-122460D03*
Y-72440D03*
Y-22430D03*
Y27580D03*
Y77590D03*
X692000Y-522560D03*
Y-572570D03*
Y-622580D03*
Y-672590D03*
Y-72440D03*
Y-122460D03*
Y-172470D03*
Y-222480D03*
Y-272490D03*
Y-322510D03*
Y-372520D03*
Y-422530D03*
Y-472540D03*
Y77590D03*
Y27580D03*
Y-22430D03*
G54D39*
G01X199990Y-1670000D02*
X80010D01*
G01D02*
X59990Y-1650010D01*
G01D02*
Y-1270000D01*
G01X180000Y-1456000D02*
X139010Y-1497000D01*
G01D02*
X100000Y-1458010D01*
G01X59990Y-1270000D02*
X220010D01*
G01X100000Y-1456000D02*
X180000D01*
G01X100000Y-1458010D02*
Y-1456000D01*
G01X220010Y-1270000D02*
Y-1650010D01*
G01D02*
X199990Y-1670000D01*
M02*
