G04 ================== begin FILE IDENTIFICATION RECORD ==================*
G04 Layout Name:  d:/project/foc/circuit/candence/stm32/stspin32g4_foc.brd*
G04 Film Name:    all*
G04 File Format:  Gerber RS274X*
G04 File Origin:  Cadence Allegro 17.4-S039*
G04 Origin Date:  Tue Jan  6 00:52:03 2026*
G04 *
G04 Layer:  PIN/TOP*
G04 Layer:  PIN/BOTTOM*
G04 Layer:  PACKAGE GEOMETRY/SILKSCREEN_TOP*
G04 Layer:  BOARD GEOMETRY/SILKSCREEN_TOP*
G04 Layer:  PACKAGE GEOMETRY/SILKSCREEN_BOTTOM*
G04 Layer:  BOARD GEOMETRY/SILKSCREEN_BOTTOM*
G04 Layer:  BOARD GEOMETRY/OUTLINE*
G04 *
G04 Offset:    (0.0000 0.0000)*
G04 Mirror:    No*
G04 Mode:      Positive*
G04 Rotation:  0*
G04 FullContactRelief:  No*
G04 UndefLineWidth:     0.1524*
G04 ================== end FILE IDENTIFICATION RECORD ====================*
%FSLAX25Y25*MOIN*%
%IR0*IPPOS*OFA0.00000B0.00000*MIA0B0*SFA1.00000B1.00000*%
%ADD35O,.047244X.015748*%
%ADD37R,.031496X.03937*%
%ADD25R,.027559X.03937*%
%ADD24R,.019685X.066929*%
%ADD13R,.0395X.018*%
%AMMACRO11*
21,1,.051181,.059055,0.0,0.0,179.85*%
%ADD11MACRO11*%
%AMMACRO30*
21,1,.03937,.031496,0.0,0.0,89.85*%
%ADD30MACRO30*%
%AMMACRO32*
21,1,.062992,.070866,0.0,0.0,179.85*%
%ADD32MACRO32*%
%AMMACRO28*
21,1,.015748,.027559,0.0,0.0,179.85*%
%ADD28MACRO28*%
%AMMACRO26*
21,1,.023622,.025591,0.0,0.0,179.85*%
%ADD26MACRO26*%
%ADD40R,.043307X.03937*%
%AMMACRO15*
21,1,.043307,.03937,0.0,0.0,.15*%
%ADD15MACRO15*%
%ADD14R,.082677X.090551*%
%ADD31R,.059055X.051181*%
%ADD22R,.047244X.098425*%
%ADD10R,.051181X.059055*%
%ADD21R,.015748X.019685*%
%ADD19R,.027559X.015748*%
%ADD38R,.062992X.106299*%
%ADD17R,.015748X.027559*%
%ADD29R,.035433X.015748*%
%ADD16R,.100394X.098819*%
%ADD18R,.098819X.100394*%
%ADD41C,.04*%
%ADD12R,.025591X.023622*%
%ADD23R,.023622X.025591*%
%AMMACRO43*
21,1,.023622,.025591,0.0,0.0,.15*%
%ADD43MACRO43*%
%ADD20R,.059055X.059055*%
%AMMACRO36*
21,1,.051181,.059055,0.0,0.0,89.85*%
%ADD36MACRO36*%
%ADD42R,.04724X.055118*%
%ADD34R,.032X.01*%
%ADD33R,.01X.032*%
%AMMACRO27*
21,1,.098819,.100394,0.0,0.0,89.85*%
%ADD27MACRO27*%
%ADD39R,.161X.161*%
%ADD44C,.003937*%
%ADD45C,.007874*%
%ADD46C,.01*%
%ADD47C,.006*%
G75*
%LPD*%
G75*
G36*
G01X-2304Y-31813D02*
Y-32813D01*
X-3804D01*
Y-31813D01*
X-2304D01*
G37*
G36*
G01X-11356Y-11478D02*
Y-9978D01*
X-10356D01*
Y-11478D01*
X-11356D01*
G37*
G36*
G01X-335Y8387D02*
Y9387D01*
X-1835D01*
Y8387D01*
X-335D01*
G37*
G36*
G01X17385Y-31813D02*
Y-32813D01*
X15885D01*
Y-31813D01*
X17385D01*
G37*
G36*
G01X19355Y8387D02*
Y9387D01*
X17855D01*
Y8387D01*
X19355D01*
G37*
G36*
G01X30844Y-9509D02*
Y-8009D01*
X29844D01*
Y-9509D01*
X30844D01*
G37*
G54D10*
X-57480Y-18996D03*
X-50000D03*
X-57480Y-10039D03*
X-50000D03*
X-57480Y-1083D03*
X-50000D03*
X-57480Y7874D03*
X-50000D03*
X-57480Y16831D03*
X-50000D03*
X-57480Y25787D03*
X-50000D03*
X-34252Y-13976D03*
X-41732D03*
X-34252Y-4823D03*
X-41732D03*
X-34252Y4331D03*
X-41732D03*
X-34252Y13484D03*
X-41732D03*
X-3445Y-43898D03*
X4035D03*
X19094Y-65945D03*
Y-56988D03*
X26575Y-65945D03*
Y-56988D03*
G54D20*
X-31594Y54232D03*
X-10925D03*
X9744D03*
G54D11*
X-57457Y-18986D03*
X-49977Y-19006D03*
X-57504Y-1073D03*
X-50023Y-1093D03*
X-57480Y-10030D03*
X-50000Y-10049D03*
X-57551Y16841D03*
X-50070Y16821D03*
X-57527Y7884D03*
X-50047Y7864D03*
X-57574Y25797D03*
X-50094Y25778D03*
X-34252Y22037D03*
X-41732Y22057D03*
X8661Y-32274D03*
X16142Y-32293D03*
G54D12*
X-33465Y-51083D03*
Y-47146D03*
X-39862Y-31496D03*
Y-27559D03*
X-41929Y34449D03*
Y30512D03*
X-22736Y-53150D03*
Y-49213D03*
X-15945Y-31299D03*
Y-27362D03*
Y-5020D03*
Y-8957D03*
X-20669Y34449D03*
Y30512D03*
X-23228Y22441D03*
Y26378D03*
X-20472Y49213D03*
Y45276D03*
X984Y34449D03*
Y30512D03*
X-1870Y22441D03*
Y26378D03*
X689Y49213D03*
Y45276D03*
X19390Y22441D03*
Y26378D03*
X26870Y23425D03*
Y27362D03*
X23327Y23425D03*
Y27362D03*
X33957Y23425D03*
Y27362D03*
X30413D03*
Y23425D03*
X22244Y49213D03*
Y45276D03*
X51870Y23425D03*
Y27362D03*
X44783Y23425D03*
Y27362D03*
X48327Y23425D03*
Y27362D03*
X55413D03*
Y23425D03*
G54D21*
X-27756Y-71161D03*
X-23622D03*
G54D30*
X-22556Y-8957D03*
X-22522Y3839D03*
G54D22*
X-29035Y-68996D03*
X12795D03*
X7185D03*
X29331D03*
G54D31*
X-16339Y15059D03*
Y22539D03*
X-18209Y47638D03*
Y40157D03*
X-7776Y15059D03*
Y22539D03*
X3150Y47638D03*
Y40157D03*
X24705Y47638D03*
Y40157D03*
G54D40*
X21654Y-8268D03*
Y5807D03*
X35138Y-32087D03*
X28346Y-8268D03*
Y5807D03*
X29429Y54921D03*
X22736D03*
X41831Y-32087D03*
X52461Y98D03*
X59154D03*
G54D13*
X-33276Y-35236D03*
Y-32677D03*
Y-30118D03*
Y-27559D03*
X-22826Y-35236D03*
Y-27559D03*
Y-30118D03*
Y-32677D03*
G54D23*
X-30020Y-52854D03*
X-26083D03*
X-19291D03*
X-15354D03*
X-26083Y-49213D03*
X-30020D03*
X-15354D03*
X-19291D03*
X-15846Y-16240D03*
X-19783D03*
X-15846Y-21063D03*
X-19783D03*
X-15846Y-6299D03*
X-19783D03*
X-15846Y-1378D03*
X-19783D03*
X-15846Y-11220D03*
X-19783D03*
X-15846Y3543D03*
X-19783D03*
X-3839Y-35335D03*
X-7776D03*
X4134Y-36319D03*
X8071D03*
X20079Y689D03*
Y-3051D03*
X29823Y-34350D03*
X25886D03*
X37992Y-33563D03*
Y-29921D03*
X31299Y-26969D03*
X35236D03*
X24016Y689D03*
Y-3051D03*
X34646Y5610D03*
X38583D03*
X34613Y13583D03*
X38550D03*
X38616Y9547D03*
X34679D03*
X37402Y23524D03*
Y27264D03*
X31398Y49114D03*
X35335D03*
X41929Y-33563D03*
Y-29921D03*
X41437Y-25591D03*
X45374D03*
X41634Y-5906D03*
X45571D03*
X54921Y-5709D03*
X50984D03*
Y-10827D03*
X54921D03*
X46293Y9547D03*
X42356D03*
X50033D03*
X53970D03*
X50000Y5610D03*
X53937D03*
X49967Y13583D03*
X53904D03*
X46260Y5610D03*
X42323D03*
X42290Y13583D03*
X46227D03*
X41339Y23524D03*
Y27264D03*
X60236Y-5709D03*
X64173D03*
Y-10335D03*
X60236D03*
X61614Y5610D03*
X57677D03*
X61647Y9547D03*
X57710D03*
X57644Y13583D03*
X61581D03*
X62894Y23130D03*
X58957D03*
Y27264D03*
X62894D03*
G54D41*
X34646Y-52854D03*
D03*
Y-38091D03*
D03*
Y-43012D03*
D03*
Y-47933D03*
D03*
G54D14*
X-40059Y-26280D03*
X-19587D03*
G54D32*
X-6791Y-42308D03*
X4232Y-42337D03*
G54D33*
X883Y-29213D03*
X-1085D03*
X-3054D03*
X-5023D03*
Y5787D03*
X-3054D03*
X-1085D03*
X883D03*
X18605Y-29213D03*
X16635D03*
X14667D03*
X12698D03*
X10729D03*
X8759D03*
X6791D03*
X4822D03*
X2853D03*
Y5787D03*
X4822D03*
X6791D03*
X8759D03*
X10729D03*
X12698D03*
X14667D03*
X16635D03*
X18605D03*
X24511Y-29213D03*
X22543D03*
X20574D03*
Y5787D03*
X22543D03*
X24511D03*
G54D42*
X38681Y-19980D03*
Y-11319D03*
X45374Y-19980D03*
Y-11319D03*
G54D15*
X-34606Y-19696D03*
X-41298Y-19713D03*
X-34626Y-12058D03*
X-41319Y-12076D03*
X-34646Y-4420D03*
X-41339Y-4438D03*
X-34666Y3218D03*
X-41359Y3200D03*
X-34686Y10855D03*
X-41379Y10838D03*
G54D24*
X-24705Y-55610D03*
X-20768D03*
X-16831D03*
X-12894D03*
X-8957D03*
X-5020D03*
X-1083D03*
X17126D03*
X2854D03*
X21063D03*
X25000D03*
G54D34*
X-7756Y-26480D03*
Y-24511D03*
Y-22542D03*
Y-20573D03*
Y-18604D03*
Y-16635D03*
Y-14666D03*
Y-12697D03*
Y-10728D03*
Y-8759D03*
Y-6790D03*
Y-4821D03*
Y-2852D03*
Y-883D03*
Y1086D03*
Y3055D03*
X27244Y-16635D03*
Y-18604D03*
Y-20573D03*
Y-22542D03*
Y-24511D03*
Y-26480D03*
Y1086D03*
Y-883D03*
Y-2852D03*
Y-4821D03*
Y-6790D03*
Y-8759D03*
Y-10728D03*
Y-12697D03*
Y-14666D03*
Y3055D03*
G54D43*
X35335Y39375D03*
X31398Y39365D03*
Y44286D03*
X35335Y44296D03*
X60236Y-15261D03*
X64173Y-15251D03*
G54D16*
X-32480Y23680D03*
X-11319D03*
X10138Y23876D03*
G54D25*
X-22835Y-58071D03*
X-20276Y-65551D03*
X-25394D03*
G54D44*
G01X-19587Y-31398D02*
Y-33760D01*
X-40059D01*
Y-31398D01*
G01Y-21161D02*
Y-18799D01*
X-19587D01*
Y-21161D01*
G01X-20571Y-69193D02*
Y-73130D01*
G01X-20965D02*
Y-69193D01*
G01X-30020Y-73130D02*
Y-69193D01*
X-21358D01*
Y-73130D01*
X-30020D01*
G01X4035Y-72933D02*
X-25886D01*
G01X-26673Y-56004D02*
X-31299D01*
Y-63366D01*
G01X-28315Y-66063D02*
G03I-622J0D01*
G01X-23386Y-64567D02*
X-22283D01*
G01X-20866Y-59055D02*
X-18110D01*
Y-64567D01*
G01X-24803Y-59055D02*
X-27559D01*
Y-64567D01*
G01X-29955Y-45374D02*
G03I-557J0D01*
G01X-28937Y-39272D02*
X-18307D01*
Y-45965D01*
X-29331D01*
Y-39272D01*
X-28937D01*
G01X-29823Y-26280D02*
X-31398Y-27854D01*
Y-24705D01*
X-29823Y-26280D01*
X-28248Y-24705D01*
Y-27854D01*
X-29823Y-26280D01*
G01X26181Y-72933D02*
X15945D01*
G01X15236Y-56004D02*
X10531D01*
Y-63366D01*
G01X9449D02*
Y-56004D01*
X4823D01*
G01X31594Y-63366D02*
Y-56004D01*
X26890D01*
G54D17*
X-33760Y20177D03*
X-36319D03*
Y32382D03*
X-33760D03*
X-28642Y20177D03*
X-31201D03*
Y32382D03*
X-28642D03*
X-7480Y20177D03*
X-10039D03*
X-12598D03*
X-15157D03*
Y32382D03*
X-12598D03*
X-10039D03*
X-7480D03*
X13976Y20374D03*
X11417D03*
X8858D03*
X6299D03*
Y32579D03*
X8858D03*
X11417D03*
X13976D03*
G54D26*
X-18110Y-36215D03*
X-18209Y-41235D03*
X-14173Y-36226D03*
X-14272Y-41245D03*
X35236Y-21954D03*
X31299Y-21944D03*
G54D35*
X-11220Y1280D03*
Y-1280D03*
Y-3839D03*
Y-6398D03*
Y-8957D03*
Y8957D03*
Y6398D03*
Y3839D03*
X11220Y-8957D03*
Y-6398D03*
Y-3839D03*
Y-1280D03*
Y1280D03*
Y3839D03*
Y6398D03*
Y8957D03*
G54D45*
G01X-46840Y-22815D02*
X-60640D01*
G01X-60693Y-22757D02*
G02Y-15157I9900J3800D01*
G01X-46827Y-22833D02*
X-60627Y-22797D01*
G01X-60660Y-15217D02*
G03X-60680Y-22817I9890J-3826D01*
G01X-46840Y-6220D02*
X-60640D01*
G01X-46840Y-13858D02*
X-60640D01*
G01X-60693Y-13801D02*
G02Y-6201I9900J3800D01*
G01X-46840Y-4902D02*
X-60640D01*
G01X-60693Y-4844D02*
G02Y2756I9900J3800D01*
G01X-46840Y-15177D02*
X-60640D01*
G01X-46873Y-4920D02*
X-60673Y-4883D01*
G01X-60706Y2697D02*
G03X-60726Y-4903I9890J-3826D01*
G01X-46850Y-13876D02*
X-60650Y-13840D01*
G01X-46830Y-6239D02*
X-60630Y-6202D01*
G01X-60683Y-6260D02*
G03X-60703Y-13860I9890J-3826D01*
G01X-46807Y-15195D02*
X-60607Y-15159D01*
G01X-46840Y2736D02*
X-60640D01*
G01X-46840Y11693D02*
X-60640D01*
G01X-46840Y4055D02*
X-60640D01*
G01X-60693Y4113D02*
G02Y11713I9900J3800D01*
G01X-46840Y13012D02*
X-60640D01*
G01X-60693Y13069D02*
G02Y20669I9900J3800D01*
G01X-46920Y12994D02*
X-60720Y13030D01*
G01X-60754Y20610D02*
G03X-60773Y13010I9890J-3826D01*
G01X-46897Y4037D02*
X-60697Y4073D01*
G01X-46877Y11675D02*
X-60677Y11711D01*
G01X-60730Y11654D02*
G03X-60750Y4054I9890J-3826D01*
G01X-46854Y2718D02*
X-60654Y2754D01*
G01X-46840Y20650D02*
X-60640D01*
G01X-46840Y29606D02*
X-60640D01*
G01X-46840Y21969D02*
X-60640D01*
G01X-60693Y22026D02*
G02Y29626I9900J3800D01*
G01X-46944Y21950D02*
X-60744Y21987D01*
G01X-46924Y29588D02*
X-60724Y29624D01*
G01X-60777Y29567D02*
G03X-60796Y21967I9890J-3826D01*
G01X-46901Y20631D02*
X-60701Y20668D01*
G01X-35531Y-45177D02*
X-31398D01*
Y-53051D01*
X-35531D01*
Y-45177D01*
G01X-35152Y-47533D02*
X-35154Y-48506D01*
G01X-34182Y-48509D02*
X-35154Y-48506D01*
G01X-34148Y-35713D02*
X-35121Y-35711D01*
G01D02*
X-35133Y-40140D01*
G01X-37795Y-25984D02*
G03X-41929I-2067J-3559D01*
G01Y-33071D01*
G03X-37795I2067J3559D01*
G01Y-25984D01*
G01X-46840Y-15196D02*
G02Y-22796I-9900J-3800D01*
G01X-44892Y-17795D02*
X-31092D01*
G01X-44892Y-10176D02*
G03Y-17776I9900J-3800D01*
G01X-46827Y-22814D02*
G03X-46807Y-15214I-9890J3826D01*
G01X-46840Y-6239D02*
G02Y-13839I-9900J-3800D01*
G01Y2717D02*
G02Y-4883I-9900J-3800D01*
G01X-44892Y-1004D02*
X-31092D01*
G01X-44892Y-8642D02*
X-31092D01*
G01X-44892Y-1023D02*
G03Y-8623I9900J-3800D01*
G01Y512D02*
X-31092D01*
G01X-44892Y8131D02*
G03Y531I9900J-3800D01*
G01Y-10157D02*
X-31092D01*
G01X-46873Y-4901D02*
G03X-46854Y2699I-9890J3826D01*
G01X-46850Y-13857D02*
G03X-46830Y-6257I-9890J3826D01*
G01X-46840Y11674D02*
G02Y4074I-9900J-3800D01*
G01Y20631D02*
G02Y13031I-9900J-3800D01*
G01X-44892Y8150D02*
X-31092D01*
G01X-44892Y17303D02*
X-31092D01*
G01X-44892Y9665D02*
X-31092D01*
G01X-44892Y17284D02*
G03Y9684I9900J-3800D01*
G01X-46920Y13013D02*
G03X-46901Y20613I-9890J3826D01*
G01X-46897Y4056D02*
G03X-46877Y11656I-9890J3826D01*
G01X-44902Y18246D02*
X-31102Y18210D01*
G01X-44882Y25865D02*
G03X-44902Y18265I9890J-3826D01*
G01X-39862Y28543D02*
X-43996D01*
Y36417D01*
X-39862D01*
Y28543D01*
G01X-39173Y19882D02*
X-38201D01*
G01X-39173Y20854D02*
Y19882D01*
G01Y32677D02*
Y31705D01*
G01Y32677D02*
X-38201D01*
G01X-35740Y34744D02*
X-36713D01*
G01Y35717D02*
Y34744D01*
G01X-46840Y29587D02*
G02Y21987I-9900J-3800D01*
G01X-46944Y21969D02*
G03X-46924Y29569I-9890J3826D01*
G01X-44882Y25884D02*
X-31082Y25848D01*
G01X-36713Y48130D02*
Y47157D01*
G01X-35740Y48130D02*
X-36713D01*
G01X-24508Y-54921D02*
G03Y-50787I-3559J2067D01*
G01X-31594D01*
G03Y-54921I3559J-2067D01*
G01X-24508D01*
G01X-20669Y-47638D02*
G03X-24803I-2067J-3559D01*
G01Y-54724D01*
G03X-20669I2067J3559D01*
G01Y-47638D01*
G01X-13780Y-54921D02*
G03Y-50787I-3559J2067D01*
G01X-20866D01*
G03Y-54921I3559J-2067D01*
G01X-13780D01*
G01X-31988Y-51280D02*
Y-47146D01*
X-24114D01*
Y-51280D01*
X-31988D01*
G01X-21260D02*
Y-47146D01*
X-13386D01*
Y-51280D01*
X-21260D01*
G01X-12210Y-38298D02*
X-12199Y-34164D01*
X-20073Y-34143D01*
X-20084Y-38277D01*
X-12210Y-38298D01*
G01X-12309Y-43317D02*
X-12298Y-39183D01*
X-20172Y-39163D01*
X-20183Y-43297D01*
X-12309Y-43317D01*
G01X-21769Y-48541D02*
X-22741Y-48539D01*
G01X-21766Y-47569D02*
X-21769Y-48541D01*
G01X-21735Y-35746D02*
X-21738Y-36719D01*
G01X-21735Y-35746D02*
X-22708Y-35743D01*
G01X-21358Y-14173D02*
G03Y-18307I3559J-2067D01*
G01X-14272D01*
G03Y-14173I-3559J2067D01*
G01X-21358D01*
G01X-13878Y-25787D02*
G03X-18012I-2067J-3559D01*
G01Y-32874D01*
G03X-13878I2067J3559D01*
G01Y-25787D01*
G01X-21752Y-23130D02*
Y-18996D01*
X-13878D01*
Y-23130D01*
X-21752D01*
G01X-31039Y-17738D02*
G03Y-10138I-9900J3800D01*
G01X-13878Y-10531D02*
G02X-18012I-2067J3559D01*
G01Y-3445D01*
G02X-13878I2067J-3559D01*
G01Y-10531D01*
G01X-21358Y5610D02*
G03Y1476I3559J-2067D01*
G01X-14272D01*
G03Y5610I-3559J2067D01*
G01X-21358D01*
G01Y-4232D02*
G03Y-8366I3559J-2067D01*
G01X-14272D01*
G03Y-4232I-3559J2067D01*
G01X-21358D01*
G01X-21752Y-3445D02*
Y689D01*
X-13878D01*
Y-3445D01*
X-21752D01*
G01Y-13287D02*
Y-9154D01*
X-13878D01*
Y-13287D01*
X-21752D01*
G01X-31039Y-8584D02*
G03Y-984I-9900J3800D01*
G01Y569D02*
G03Y8169I-9900J3800D01*
G01Y9723D02*
G03Y17323I-9900J3800D01*
G01X-20157Y11899D02*
Y25699D01*
G01X-20139Y11899D02*
G03X-12539I3800J9900D01*
G01X-31049Y18268D02*
G03X-31030Y25868I-9890J3826D01*
G01X-14390Y47835D02*
Y36698D01*
X-22028D01*
Y51098D01*
X-14390D01*
Y47835D01*
G01X-18602Y28543D02*
X-22736D01*
Y36417D01*
X-18602D01*
Y28543D01*
G01X-25295Y28346D02*
X-21161D01*
Y20472D01*
X-25295D01*
Y28346D01*
G01X-25787Y20854D02*
Y19882D01*
G01X-26760D02*
X-25787D01*
G01X-26760Y32677D02*
X-25787D01*
G01D02*
Y28248D01*
G01X-23917Y35717D02*
Y34744D01*
G01D02*
X-28346D01*
G01X-18012Y19882D02*
X-17039D01*
G01X-18012Y20854D02*
Y19882D01*
G01Y32677D02*
Y31705D01*
G01Y32677D02*
X-17039D01*
G01X-12577Y25752D02*
G03X-20177I-3800J-9900D01*
G01X-18406Y43307D02*
X-22539D01*
Y51181D01*
X-18406D01*
Y43307D01*
G01X-23917Y48130D02*
X-24890D01*
G01X-23917D02*
Y47157D01*
G01X-9744Y-37402D02*
Y-33268D01*
X-1870D01*
Y-37402D01*
X-9744D01*
G01X7195Y-40079D02*
X-6605D01*
G01X7195Y-47717D02*
X-6605D01*
G01X-6657Y-47659D02*
G02Y-40059I9900J3800D01*
G01X-7567Y-37897D02*
X8332Y-37939D01*
X8309Y-46757D01*
X-10991Y-46707D01*
X-10968Y-37888D01*
X-7567Y-37897D01*
G01X7283Y-10039D02*
X-7283D01*
G01X7874Y10039D02*
X-7283D01*
G01X-11594Y11899D02*
Y25699D01*
G01X-3957Y11899D02*
Y25699D01*
G01X-11576Y11899D02*
G03X-3976I3800J9900D01*
G01X-12520D02*
Y25699D01*
G01X2Y11909D02*
X38Y25709D01*
G01X20Y11909D02*
G03X7620Y11889I3826J9890D01*
G01X6969Y47835D02*
Y36698D01*
X-669D01*
Y51098D01*
X6969D01*
Y47835D01*
G01X3051Y28543D02*
X-1083D01*
Y36417D01*
X3051D01*
Y28543D01*
G01X-3937Y28346D02*
X197D01*
Y20472D01*
X-3937D01*
Y28346D01*
G01X-14579Y34744D02*
X-15551D01*
G01Y35717D02*
Y34744D01*
G01X-2756Y35717D02*
Y34744D01*
G01D02*
X-7185D01*
G01X-4626Y20854D02*
Y19882D01*
G01X-5598D02*
X-4626D01*
G01X-5598Y32677D02*
X-4626D01*
G01D02*
Y28248D01*
G01X-4014Y25752D02*
G03X-11614I-3800J-9900D01*
G01X7618Y25742D02*
G03X18Y25762I-3826J-9890D01*
G01X2756Y43307D02*
X-1378D01*
Y51181D01*
X2756D01*
Y43307D01*
G01X-15551Y48130D02*
Y47157D01*
G01X-14579Y48130D02*
X-15551D01*
G01X-2756D02*
X-3728D01*
G01X-2756D02*
Y47157D01*
G01X29735Y-62126D02*
X15935D01*
G01X29735Y-69764D02*
X15935D01*
G01X15882Y-69706D02*
G02Y-62106I9900J3800D01*
G01X29735Y-53169D02*
X15935D01*
G01X29735Y-60807D02*
X15935D01*
G01X15882Y-60750D02*
G02Y-53150I9900J3800D01*
G01X9646Y-38386D02*
G03Y-34252I-3559J2067D01*
G01X2559D01*
G03Y-38386I3559J-2067D01*
G01X9646D01*
G01X15059Y-50669D02*
X30958D01*
Y-38307D01*
X11758D01*
Y-50669D01*
X15059D01*
G01X7195Y-40098D02*
G02Y-47698I-9900J-3800D01*
G01X19292Y-36120D02*
X5492Y-36084D01*
G01X19292Y-36102D02*
G03X19311Y-28502I-9890J3826D01*
G01X5459Y-28504D02*
G03X5439Y-36104I9890J-3826D01*
G01X19311Y-28483D02*
X5511Y-28446D01*
G01X18504Y-1378D02*
G02Y2756I3559J2067D01*
G01X25591D01*
G02Y-1378I-3559J-2067D01*
G01X18504D01*
G01Y-5118D02*
G02Y-984I3559J2067D01*
G01X25591D01*
G02Y-5118I-3559J-2067D01*
G01X18504D01*
G01X7639Y11889D02*
X7676Y25689D01*
G01X8565Y11909D02*
X8601Y25709D01*
G01X16202Y11889D02*
X16239Y25689D01*
G01X8583Y11909D02*
G03X16183Y11889I3826J9890D01*
G01X17323Y28346D02*
X21457D01*
Y20472D01*
X17323D01*
Y28346D01*
G01X16831Y21051D02*
Y20079D01*
G01X15858D02*
X16831D01*
G01X3445D02*
X4417D01*
G01X3445Y21051D02*
Y20079D01*
G01Y32874D02*
Y31902D01*
G01Y32874D02*
X4417D01*
G01X15858D02*
X16831D01*
G01D02*
Y28445D01*
G01X6780Y34744D02*
X5807D01*
G01Y35717D02*
Y34744D01*
G01X18602Y35717D02*
Y34744D01*
G01D02*
X14173D01*
G01X16181Y25742D02*
G03X8581Y25762I-3826J-9890D01*
G01X5807Y48130D02*
Y47157D01*
G01X6780Y48130D02*
X5807D01*
G01X18602D02*
X17630D01*
G01X18602D02*
Y47157D01*
G01X29232Y57756D02*
X19683D01*
Y52087D01*
X32483D01*
Y57756D01*
X29232D01*
G01X29735Y-62145D02*
G02Y-69745I-9900J-3800D01*
G01Y-53188D02*
G02Y-60788I-9900J-3800D01*
G01X24311Y-32283D02*
G03Y-36417I3559J-2067D01*
G01X31398D01*
G03Y-32283I-3559J2067D01*
G01X24311D01*
G01X36417Y-31496D02*
G03Y-35630I3559J-2067D01*
G01X43504D01*
G03Y-31496I-3559J2067D01*
G01X36417D01*
G01Y-27854D02*
G03Y-31988I3559J-2067D01*
G01X43504D01*
G03Y-27854I-3559J2067D01*
G01X36417D01*
G01X37205Y-29035D02*
Y-24902D01*
X29331D01*
Y-29035D01*
X37205D01*
G01X29336Y-19872D02*
X29325Y-24006D01*
X37199Y-24026D01*
X37210Y-19892D01*
X29336Y-19872D01*
G01X40157Y3543D02*
G03Y7677I-3559J2067D01*
G01X33071D01*
G03Y3543I3559J-2067D01*
G01X40157D01*
G01X40519Y15650D02*
Y11516D01*
X32644D01*
Y15650D01*
X40519D01*
G01X32710Y7480D02*
Y11614D01*
X40584D01*
Y7480D01*
X32710D01*
G01X28524Y47835D02*
Y36698D01*
X20886D01*
Y51098D01*
X28524D01*
Y47835D01*
G01X29817Y41428D02*
G03X29828Y37294I3564J-2057D01*
G01X36915Y37313D01*
G03X36904Y41446I-3564J2057D01*
G01X29817Y41428D01*
G01X35433Y21457D02*
Y25591D01*
X43307D01*
Y21457D01*
X35433D01*
G01X24803Y29331D02*
X28937D01*
Y21457D01*
X24803D01*
Y29331D01*
G01X43307D02*
Y25197D01*
X35433D01*
Y29331D01*
X43307D01*
G01X21260D02*
X25394D01*
Y21457D01*
X21260D01*
Y29331D01*
G01X31890D02*
X36024D01*
Y21457D01*
X31890D01*
Y29331D01*
G01X32480Y21457D02*
X28346D01*
Y29331D01*
X32480D01*
Y21457D01*
G01X24311Y43307D02*
X20177D01*
Y51181D01*
X24311D01*
Y43307D01*
G01X37303Y51181D02*
Y47047D01*
X29429D01*
Y51181D01*
X37303D01*
G01X37298Y46369D02*
X37309Y42235D01*
X29435Y42214D01*
X29424Y46348D01*
X37298Y46369D01*
G01X46949Y-27657D02*
G03Y-23524I-3559J2067D01*
G01X39862D01*
G03Y-27657I3559J-2067D01*
G01X46949D01*
G01X47146Y-7972D02*
G03Y-3839I-3559J2067D01*
G01X40059D01*
G03Y-7972I3559J-2067D01*
G01X47146D01*
G01X49409Y-3642D02*
G03Y-7776I3559J-2067D01*
G01X56496D01*
G03Y-3642I-3559J2067D01*
G01X49409D01*
G01X56890Y-8760D02*
Y-12894D01*
X49016D01*
Y-8760D01*
X56890D01*
G01X52657Y-2736D02*
X62207D01*
Y2933D01*
X49407D01*
Y-2736D01*
X52657D01*
G01X40781Y11614D02*
G03Y7480I3559J-2067D01*
G01X47868D01*
G03Y11614I-3559J2067D01*
G01X40781D01*
G01X56102Y7677D02*
G03Y3543I3559J-2067D01*
G01X63189D01*
G03Y7677I-3559J2067D01*
G01X56102D01*
G01X55545Y7480D02*
G03Y11614I-3559J2067D01*
G01X48458D01*
G03Y7480I3559J-2067D01*
G01X55545D01*
G01X55906Y7677D02*
Y3543D01*
X48031D01*
Y7677D01*
X55906D01*
G01X55873Y15650D02*
Y11516D01*
X47999D01*
Y15650D01*
X55873D01*
G01X40354Y3543D02*
Y7677D01*
X48228D01*
Y3543D01*
X40354D01*
G01X48196Y15650D02*
Y11516D01*
X40322D01*
Y15650D01*
X48196D01*
G01X49803Y29331D02*
X53937D01*
Y21457D01*
X49803D01*
Y29331D01*
G01X42717D02*
X46850D01*
Y21457D01*
X42717D01*
Y29331D01*
G01X46260D02*
X50394D01*
Y21457D01*
X46260D01*
Y29331D01*
G01X57480Y21457D02*
X53346D01*
Y29331D01*
X57480D01*
Y21457D01*
G01X66136Y-13179D02*
X66147Y-17313D01*
X58273Y-17333D01*
X58262Y-13199D01*
X66136Y-13179D01*
G01X65748Y-7776D02*
G03Y-3642I-3559J2067D01*
G01X58661D01*
G03Y-7776I3559J-2067D01*
G01X65748D01*
G01X58268Y-12402D02*
Y-8268D01*
X66142D01*
Y-12402D01*
X58268D01*
G01X55742Y7480D02*
Y11614D01*
X63616D01*
Y7480D01*
X55742D01*
G01X63550Y15650D02*
Y11516D01*
X55676D01*
Y15650D01*
X63550D01*
G01X56988Y21063D02*
Y25197D01*
X64862D01*
Y21063D01*
X56988D01*
G01X64862Y29331D02*
Y25197D01*
X56988D01*
Y29331D01*
X64862D01*
G54D27*
X-28452Y-44726D03*
G54D36*
X3829Y15059D03*
X3848Y22539D03*
X12392Y15059D03*
X12411Y22539D03*
G54D18*
X-32915Y41437D03*
X-11754D03*
X9605D03*
G54D46*
G01X-24925Y2959D02*
X-25871Y2961D01*
X-25900Y-8062D01*
X-24954Y-8065D01*
X-24959Y-9853D01*
X-25905Y-9850D01*
X-25903Y-8950D01*
G01X-25848Y-5850D02*
X-19148Y-5868D01*
G01X-19146Y-4968D02*
X-25846Y-4950D01*
G01X-20156Y-8965D02*
X-19210Y-8968D01*
X-19207Y-8080D01*
G01X-19210Y-8968D02*
X-19212Y-9868D01*
X-20159Y-9865D01*
X-20154Y-8077D01*
X-19207Y-8080D01*
X-19178Y2944D01*
X-20125Y2946D01*
G01X-25900Y-8062D02*
X-25903Y-8950D01*
X-24956Y-8953D01*
G01X3112Y-63386D02*
X2165D01*
Y-52362D01*
X3112D01*
Y-50574D01*
X2165D01*
Y-51474D01*
G01X2212Y-54574D02*
X8912D01*
G01Y-55474D02*
X2212D01*
G01X7912Y-51474D02*
X8858D01*
Y-52362D01*
G01Y-51474D02*
Y-50574D01*
X7912D01*
Y-52362D01*
X8858D01*
Y-63386D01*
X7912D01*
G01X2165Y-52362D02*
Y-51474D01*
X3112D01*
G54D19*
X-36417Y37598D03*
Y40157D03*
Y42717D03*
Y45276D03*
X-15256Y37598D03*
X-24213D03*
X-15256Y40157D03*
Y42717D03*
Y45276D03*
X-24213D03*
Y42717D03*
Y40157D03*
X-3051Y37598D03*
Y45276D03*
Y42717D03*
Y40157D03*
X6102Y37598D03*
X18307D03*
X6102Y40157D03*
Y42717D03*
Y45276D03*
X18307D03*
Y42717D03*
Y40157D03*
G54D28*
X-32300Y-48218D03*
X-29741Y-48225D03*
X-27181Y-48231D03*
X-24622Y-48238D03*
X-24590Y-36034D03*
X-27149Y-36027D03*
X-29708Y-36020D03*
X-32267Y-36014D03*
G54D37*
X5512Y-51476D03*
Y-64272D03*
G54D47*
G01X-24256Y-50492D02*
Y-47992D01*
G01X-25376D02*
Y-50492D01*
G01Y-49242D02*
X-24256D01*
G01X-20247Y-47992D02*
Y-50492D01*
X-21314D01*
G01X-31801Y-37698D02*
X-24301D01*
G01Y-25098D02*
X-31801D01*
G01X-10507Y-49242D02*
X-11041D01*
Y-49992D01*
X-10881Y-50242D01*
X-10694Y-50409D01*
X-10427Y-50492D01*
X-10161Y-50409D01*
X-9974Y-50242D01*
X-9814Y-49992D01*
X-9707Y-49700D01*
X-9654Y-49367D01*
Y-49076D01*
X-9707Y-48826D01*
X-9814Y-48534D01*
X-9974Y-48284D01*
X-10134Y-48117D01*
X-10347Y-47992D01*
X-10534D01*
X-10747Y-48076D01*
X-10907Y-48242D01*
G01X-12121Y-50492D02*
Y-47992D01*
X-13348Y-50492D01*
Y-47992D01*
G01X-14535Y-50492D02*
Y-47992D01*
X-15069D01*
X-15282Y-48117D01*
X-15442Y-48284D01*
X-15576Y-48534D01*
X-15682Y-48826D01*
X-15709Y-49242D01*
X-15682Y-49659D01*
X-15576Y-49950D01*
X-15442Y-50200D01*
X-15282Y-50367D01*
X-15069Y-50492D01*
X-14535D01*
G01X1737Y-47992D02*
X1070Y-50492D01*
X404Y-47992D01*
G01X-1904Y-48200D02*
X-1744Y-48076D01*
X-1557Y-47992D01*
X-1344D01*
X-1104Y-48117D01*
X-917Y-48326D01*
X-784Y-48576D01*
X-677Y-48992D01*
X-651Y-49367D01*
X-704Y-49742D01*
X-784Y-49992D01*
X-944Y-50242D01*
X-1131Y-50409D01*
X-1317Y-50492D01*
X-1504D01*
X-1691Y-50409D01*
X-1851Y-50284D01*
X-1984Y-50117D01*
G01X-4291Y-48200D02*
X-4131Y-48076D01*
X-3945Y-47992D01*
X-3731D01*
X-3491Y-48117D01*
X-3305Y-48326D01*
X-3171Y-48576D01*
X-3065Y-48992D01*
X-3038Y-49367D01*
X-3091Y-49742D01*
X-3171Y-49992D01*
X-3331Y-50242D01*
X-3518Y-50409D01*
X-3705Y-50492D01*
X-3891D01*
X-4078Y-50409D01*
X-4238Y-50284D01*
X-4371Y-50117D01*
G01X-8656Y-28290D02*
Y-30113D01*
G01D02*
X-6833D01*
G01Y6687D02*
X-8656D01*
G01D02*
Y4865D01*
G01X22667Y-50591D02*
Y-48091D01*
X22000D01*
X21786Y-48216D01*
X21653Y-48382D01*
X21600Y-48716D01*
X21653Y-49049D01*
X21813Y-49257D01*
X22000Y-49382D01*
X22667D01*
G01X22000D02*
X21600Y-50591D01*
G01X20306D02*
X19186Y-48091D01*
G01X20306D02*
X19186Y-50591D01*
G01X17507Y-48091D02*
Y-50591D01*
G01X18120Y-48091D02*
X16894D01*
G01X15680Y-50591D02*
X14560Y-48091D01*
G01X15680D02*
X14560Y-50591D01*
G01X29060Y-49341D02*
X28526D01*
Y-50091D01*
X28686Y-50341D01*
X28873Y-50507D01*
X29140Y-50591D01*
X29406Y-50507D01*
X29593Y-50341D01*
X29753Y-50091D01*
X29860Y-49799D01*
X29913Y-49466D01*
Y-49174D01*
X29860Y-48924D01*
X29753Y-48632D01*
X29593Y-48382D01*
X29433Y-48216D01*
X29220Y-48091D01*
X29033D01*
X28820Y-48174D01*
X28660Y-48341D01*
G01X27446Y-50591D02*
Y-48091D01*
X26219Y-50591D01*
Y-48091D01*
G01X25031Y-50591D02*
Y-48091D01*
X24498D01*
X24285Y-48216D01*
X24125Y-48382D01*
X23991Y-48632D01*
X23885Y-48924D01*
X23858Y-49341D01*
X23885Y-49757D01*
X23991Y-50049D01*
X24125Y-50299D01*
X24285Y-50466D01*
X24498Y-50591D01*
X25031D01*
G01X26322Y-30113D02*
X28144D01*
G01D02*
Y-28290D01*
G01X37106Y-14650D02*
Y-16650D01*
G01X35528Y-11250D02*
X34128Y-9750D01*
Y-12650D01*
X35528Y-11250D01*
G01X28144Y4865D02*
Y6687D01*
G01D02*
X26322D01*
G01X42500Y-21949D02*
X41555D01*
G01X46949Y-14650D02*
Y-16650D01*
G01X42500Y-9350D02*
X41555D01*
G01X-32309Y-74409D02*
Y-65780D01*
G02X-41422Y-60424I35194J70308D01*
G02X-41911Y-56930I1352J1970D01*
G03X-44255Y-41572I-8016J6634D01*
G02X-47928Y-33343I4518J6951D01*
G03X-59739Y-26210I-7367J1146D01*
G02X-69257Y-23774I-3772J5075D01*
G02X-61807Y39263I69263J23772D01*
G02X-60430Y41408I24534J-14239D01*
G02X-56937Y41911I1976J-1345D01*
G03X-39893Y49971I6640J8009D01*
G01X-39902Y50423D01*
G02X-30900Y59899I9469J19D01*
G01X-6904Y59987D01*
X-6899D01*
G02X-6389Y59761I9J-665D01*
G03X5936Y59804I6148J4212D01*
G02X6451Y60037I513J-447D01*
G01X6456D01*
X30449Y60125D01*
G02X39516Y50279I-400J-9466D01*
G03X56612Y42322I10405J11D01*
G02X59707Y42307I1539J-1832D01*
G02X70055Y21396I-59696J-42557D01*
G02X69670Y-22618I-70055J-21396D01*
G02X59918Y-25769I-6015J1951D01*
G03X48160Y-32989I-4400J-6019D01*
G02X44552Y-41246I-8188J-1339D01*
G03X42321Y-56620I5737J-8681D01*
G02X41857Y-60118I-1831J-1537D01*
G02X32309Y-65746I-42097J60499D01*
G01Y-74409D01*
X-32309D01*
G01X-63783Y-250D02*
G03I-3149J0D01*
G01X-41911Y-56930D02*
G03X-44255Y-41572I-8016J6635D01*
G01X-41911Y-56930D02*
G03X-41422Y-60424I1841J-1523D01*
G01X-47928Y-33343D02*
G03X-44255Y-41572I8191J-1279D01*
G01X31019Y-28278D02*
X28233Y-31945D01*
G01X29626Y-32611D02*
Y-27611D01*
G01X28233Y-28278D02*
X31019Y-31945D01*
G01X31526Y-30111D02*
X27726D01*
G01X44552Y-41246D02*
G03X42321Y-56620I5737J-8681D01*
G01X44552Y-41246D02*
G03X48160Y-32989I-4579J6918D01*
G01X70074Y243D02*
G03I-3150J0D01*
G54D29*
X-27165Y-41043D03*
X-20472D03*
Y-44193D03*
X-27165D03*
G54D38*
X15846Y-44488D03*
X26870D03*
G54D39*
X9744Y-11713D03*
M02*
