G04 ================== begin FILE IDENTIFICATION RECORD ==================*
G04 Layout Name:  D:/PROJECT/07_FOC/FOC/CIRCUIT/CANDENCE/STM32/stspin32g4_foc.brd*
G04 Film Name:    all*
G04 File Format:  Gerber RS274X*
G04 File Origin:  Cadence Allegro 17.4-S039*
G04 Origin Date:  Thu Nov 13 09:35:22 2025*
G04 *
G04 Layer:  PIN/TOP*
G04 Layer:  PIN/BOTTOM*
G04 Layer:  PACKAGE GEOMETRY/SILKSCREEN_TOP*
G04 Layer:  BOARD GEOMETRY/SILKSCREEN_TOP*
G04 Layer:  PACKAGE GEOMETRY/SILKSCREEN_BOTTOM*
G04 Layer:  BOARD GEOMETRY/SILKSCREEN_BOTTOM*
G04 Layer:  BOARD GEOMETRY/OUTLINE*
G04 *
G04 Offset:    (0.0000 0.0000)*
G04 Mirror:    No*
G04 Mode:      Positive*
G04 Rotation:  0*
G04 FullContactRelief:  No*
G04 UndefLineWidth:     0.1524*
G04 ================== end FILE IDENTIFICATION RECORD ====================*
%FSLAX25Y25*MOIN*%
%IR0*IPPOS*OFA0.00000B0.00000*MIA0B0*SFA1.00000B1.00000*%
%ADD28O,.047244X.015748*%
%ADD21R,.019685X.066929*%
%ADD23R,.0395X.018*%
%ADD19R,.023228X.054724*%
%ADD32R,.043307X.03937*%
%ADD11R,.082677X.090551*%
%ADD24R,.059055X.051181*%
%ADD18R,.047244X.098425*%
%ADD22R,.019685X.011811*%
%ADD17R,.015748X.019685*%
%ADD16R,.027559X.015748*%
%ADD30R,.062992X.106299*%
%ADD14R,.015748X.027559*%
%ADD10R,.062992X.070866*%
%ADD13R,.100394X.098819*%
%ADD15R,.098819X.100394*%
%ADD33C,.04*%
%ADD12R,.025591X.023622*%
%ADD20R,.023622X.025591*%
%ADD25R,.059055X.059055*%
%ADD34R,.04724X.055118*%
%ADD27R,.032X.01*%
%ADD26R,.01X.032*%
%ADD31R,.161X.161*%
%ADD29R,.032X.039*%
%ADD35C,.003937*%
%ADD36C,.007874*%
%ADD37C,.004724*%
%ADD38C,.005906*%
%ADD39C,.005909*%
%ADD40C,.006*%
%ADD41C,.001969*%
G75*
%LPD*%
G75*
G36*
G01X-2304Y-31813D02*
Y-32813D01*
X-3804D01*
Y-31813D01*
X-2304D01*
G37*
G36*
G01X-11356Y-11478D02*
Y-9978D01*
X-10356D01*
Y-11478D01*
X-11356D01*
G37*
G36*
G01X-335Y8387D02*
Y9387D01*
X-1835D01*
Y8387D01*
X-335D01*
G37*
G36*
G01X17385Y-31813D02*
Y-32813D01*
X15885D01*
Y-31813D01*
X17385D01*
G37*
G36*
G01X19355Y8387D02*
Y9387D01*
X17855D01*
Y8387D01*
X19355D01*
G37*
G36*
G01X30844Y-9509D02*
Y-8009D01*
X29844D01*
Y-9509D01*
X30844D01*
G37*
G54D10*
X-55020Y-7480D03*
Y-17618D03*
Y12795D03*
Y2657D03*
X-59154Y24311D03*
X-32579Y-17520D03*
X-38681Y-7480D03*
X-43996D03*
Y-17618D03*
X-33071Y13780D03*
X-44094D03*
X-32972Y2953D03*
X-43996D03*
Y12795D03*
Y2657D03*
X-48130Y24311D03*
X-21260Y-27756D03*
X-32283D03*
X-21555Y-17520D03*
X-27657Y-7480D03*
X-5217Y-43898D03*
X16142Y-68406D03*
X15945Y-57677D03*
X5807Y-43898D03*
X27165Y-68406D03*
X26969Y-57677D03*
G54D20*
X-30709Y-51083D03*
X-26772D03*
X-18898D03*
X-26772Y-47244D03*
X-30709D03*
X-18898D03*
X-15846Y-6299D03*
X-19783D03*
X-15846Y-16240D03*
X-19783D03*
X-15846Y-11220D03*
X-19783D03*
X-15846Y-21063D03*
X-19783D03*
X-15846Y3543D03*
X-19783D03*
X-15846Y-1378D03*
X-19783D03*
X-14961Y-51083D03*
Y-47244D03*
X4134Y-36319D03*
X8071D03*
X7087Y-29528D03*
X11024D03*
X15453D03*
X19390D03*
X20079Y689D03*
Y-3051D03*
X29823Y-34350D03*
X25886D03*
X37992Y-29921D03*
Y-33563D03*
X38681Y-5807D03*
X24016Y689D03*
X34646Y5610D03*
X38583D03*
X24016Y-3051D03*
X34613Y13583D03*
X38550D03*
X38616Y9547D03*
X34679D03*
X37402Y23524D03*
Y27264D03*
X35335Y45472D03*
X31398D03*
Y49114D03*
X35335D03*
X41929Y-29921D03*
Y-33563D03*
X41437Y-25591D03*
X45374D03*
X56594Y-9547D03*
X42618Y-5807D03*
X56594Y-6102D03*
X46293Y9547D03*
X42356D03*
X57710D03*
X50000Y5610D03*
X53937D03*
X57644Y13583D03*
X49967D03*
X53904D03*
X57677Y5610D03*
X50033Y9547D03*
X53970D03*
X46260Y5610D03*
X42323D03*
X42290Y13583D03*
X46227D03*
X41339Y23524D03*
X55610D03*
X41339Y27264D03*
X55610D03*
X60531Y-9547D03*
Y-6102D03*
X61647Y9547D03*
X61581Y13583D03*
X61614Y5610D03*
X59547Y23524D03*
Y27264D03*
G54D11*
X-32579Y-41240D03*
X-12106D03*
G54D12*
X-34547Y-43209D03*
X-39862Y-31496D03*
Y-27559D03*
X-39764Y-40157D03*
Y-36220D03*
X-34547Y-39272D03*
X-41929Y30512D03*
Y34449D03*
X-22835Y-51181D03*
Y-47244D03*
X-15945Y-31299D03*
Y-27362D03*
Y-5020D03*
Y-8957D03*
X-20669Y30512D03*
X-23228Y22441D03*
Y26378D03*
X-20669Y34449D03*
X-20472Y49213D03*
Y45276D03*
X984Y30512D03*
X-1870Y22441D03*
Y26378D03*
X689Y49213D03*
Y45276D03*
X984Y34449D03*
X19390Y22441D03*
Y26378D03*
X29626Y23524D03*
Y27461D03*
X25492Y23524D03*
Y27461D03*
X33661Y23425D03*
Y27362D03*
X22244Y49213D03*
Y45276D03*
X52165Y23425D03*
Y27362D03*
X44882Y23425D03*
Y27362D03*
X48524Y23425D03*
Y27362D03*
G54D30*
X15846Y-44488D03*
X26870D03*
G54D21*
X-24705Y-55610D03*
X-20768D03*
X-16831D03*
X-12894D03*
X-8957D03*
X-5020D03*
X-1083D03*
X17126D03*
X21063D03*
X2854D03*
X25000D03*
G54D40*
G01X-31801Y-37698D02*
X-24301D01*
G01Y-25098D02*
X-31801D01*
G01X-8656Y-28290D02*
Y-30113D01*
G01D02*
X-6833D01*
G01Y6687D02*
X-8656D01*
G01D02*
Y4865D01*
G01X26322Y-30113D02*
X28144D01*
G01D02*
Y-28290D01*
G01X35528Y-11250D02*
X34128Y-9750D01*
Y-12650D01*
X35528Y-11250D01*
G01X37106Y-14650D02*
Y-16650D01*
G01X28144Y4865D02*
Y6687D01*
G01D02*
X26322D01*
G01X42500Y-21949D02*
X41555D01*
G01X42500Y-9350D02*
X41555D01*
G01X46949Y-14650D02*
Y-16650D01*
G01X-32309Y-74409D02*
Y-65780D01*
G02X-41422Y-60424I35194J70308D01*
G02X-41911Y-56930I1352J1970D01*
G03X-44255Y-41572I-8016J6634D01*
G02X-47928Y-33343I4518J6951D01*
G03X-59739Y-26210I-7367J1146D01*
G02X-69257Y-23774I-3772J5075D01*
G02X-61807Y39263I69263J23772D01*
G02X-60430Y41408I24534J-14239D01*
G02X-56937Y41911I1976J-1345D01*
G03X-39893Y49971I6640J8009D01*
G01X-39902Y50423D01*
G02X-30900Y59899I9469J19D01*
G01X-6904Y59987D01*
X-6899D01*
G02X-6389Y59761I9J-665D01*
G03X5936Y59804I6148J4212D01*
G02X6451Y60037I513J-447D01*
G01X6456D01*
X30449Y60125D01*
G02X39516Y50279I-400J-9466D01*
G03X56612Y42322I10405J11D01*
G02X59707Y42307I1539J-1832D01*
G02X70055Y21396I-59696J-42557D01*
G02X69670Y-22618I-70055J-21396D01*
G02X59918Y-25769I-6015J1951D01*
G03X48160Y-32989I-4400J-6019D01*
G02X44552Y-41246I-8188J-1339D01*
G03X42321Y-56620I5737J-8681D01*
G02X41857Y-60118I-1831J-1537D01*
G02X32309Y-65746I-42097J60499D01*
G01Y-74409D01*
X-32309D01*
G01X-63783Y-250D02*
G03I-3149J0D01*
G01X-41911Y-56930D02*
G03X-44255Y-41572I-8016J6635D01*
G01X-41911Y-56930D02*
G03X-41422Y-60424I1841J-1523D01*
G01X-47928Y-33343D02*
G03X-44255Y-41572I8191J-1279D01*
G01X-20433Y-43870D02*
X-23220Y-47536D01*
G01X-21826Y-48203D02*
Y-43203D01*
G01X-23220Y-43870D02*
X-20433Y-47536D01*
G01X-19926Y-45703D02*
X-23726D01*
G01X40293Y12100D02*
Y17100D01*
X39027D01*
X38520Y16850D01*
X38140Y16517D01*
X37823Y16017D01*
X37570Y15433D01*
X37507Y14600D01*
X37570Y13767D01*
X37823Y13183D01*
X38140Y12683D01*
X38520Y12350D01*
X39027Y12100D01*
X40293D01*
G01X34750Y14350D02*
X32723D01*
X32913Y14933D01*
X33230Y15267D01*
X33673Y15433D01*
X34117Y15350D01*
X34497Y15100D01*
X34750Y14517D01*
X34877Y14017D01*
Y13517D01*
X34750Y13017D01*
X34433Y12517D01*
X34053Y12183D01*
X33610Y12100D01*
X33167Y12267D01*
X32723Y12767D01*
G01X29650Y12683D02*
X29333Y12350D01*
X28890Y12100D01*
X28510D01*
X28130Y12267D01*
X27877Y12517D01*
X27750Y12850D01*
X27813Y13350D01*
X28067Y13600D01*
X29207Y14100D01*
X29460Y14683D01*
X29333Y15100D01*
X29080Y15350D01*
X28700Y15433D01*
X28320Y15350D01*
X27940Y15100D01*
G01X23600Y15433D02*
Y12100D01*
G01Y16767D02*
X23727Y16850D01*
Y17017D01*
X23600Y17100D01*
X23473Y17017D01*
Y16850D01*
X23600Y16767D01*
G01X19387Y10850D02*
X18943Y10517D01*
X18437Y10433D01*
X17993Y10517D01*
X17613Y10933D01*
X17360Y11517D01*
Y15433D01*
G01Y14767D02*
X17613Y15100D01*
X17993Y15350D01*
X18437Y15433D01*
X18943Y15267D01*
X19260Y14933D01*
X19513Y14350D01*
X19640Y13767D01*
X19577Y13267D01*
X19323Y12683D01*
X18943Y12267D01*
X18437Y12100D01*
X18057Y12183D01*
X17613Y12517D01*
X17360Y12850D01*
G01X14477Y12100D02*
Y15433D01*
G01Y14600D02*
X14223Y15017D01*
X13843Y15350D01*
X13337Y15433D01*
X12893Y15350D01*
X12513Y15017D01*
X12323Y14433D01*
Y12100D01*
G01X7160D02*
Y15433D01*
G01Y14850D02*
X7413Y15183D01*
X7793Y15350D01*
X8237Y15433D01*
X8680Y15267D01*
X9060Y14933D01*
X9313Y14433D01*
X9440Y13767D01*
X9313Y13100D01*
X9060Y12600D01*
X8680Y12267D01*
X8237Y12100D01*
X7793Y12183D01*
X7413Y12433D01*
X7160Y12767D01*
G01X3200Y17100D02*
Y12100D01*
G01X4087Y15433D02*
X2313D01*
G01X-1900Y12100D02*
X-1520Y12183D01*
X-1140Y12517D01*
X-887Y13100D01*
X-760Y13767D01*
X-887Y14433D01*
X-1140Y15017D01*
X-1520Y15350D01*
X-1900Y15433D01*
X-2280Y15350D01*
X-2660Y15017D01*
X-2913Y14433D01*
X-2977Y13767D01*
X-2913Y13100D01*
X-2660Y12517D01*
X-2280Y12183D01*
X-1900Y12100D01*
G01X-6113D02*
Y15433D01*
G01Y14767D02*
X-6430Y15100D01*
X-6747Y15350D01*
X-7190Y15433D01*
X-7507Y15350D01*
X-7887Y15100D01*
G01X-11023Y12683D02*
X-11467Y12267D01*
X-11973Y12100D01*
X-12480Y12267D01*
X-12923Y12767D01*
X-13240Y13517D01*
X-13367Y14267D01*
Y15183D01*
X-13240Y15933D01*
X-12923Y16600D01*
X-12543Y16933D01*
X-12100Y17100D01*
X-11593Y16933D01*
X-11213Y16600D01*
X-10960Y16100D01*
X-10833Y15433D01*
X-10960Y14850D01*
X-11277Y14267D01*
X-11657Y13933D01*
X-12100Y13850D01*
X-12607Y14017D01*
X-12987Y14433D01*
X-13367Y15183D01*
G01X32737Y-24798D02*
X29951Y-28465D01*
G01X31344Y-29131D02*
Y-24131D01*
G01X29951Y-24798D02*
X32737Y-28465D01*
G01X33244Y-26631D02*
X29444D01*
G01X44552Y-41246D02*
G03X42321Y-56620I5737J-8681D01*
G01X44552Y-41246D02*
G03X48160Y-32989I-4579J6918D01*
G01X70074Y243D02*
G03I-3150J0D01*
G54D31*
X9744Y-11713D03*
G54D13*
X-32480Y23680D03*
X-11319D03*
X10138Y23876D03*
G54D22*
X-25197Y-43799D03*
X-20472D03*
X-25197Y-41634D03*
X-20472D03*
G54D41*
G01X-20374Y-44685D02*
Y-40748D01*
X-25295D01*
Y-44685D01*
X-20374D01*
G54D14*
X-36319Y20177D03*
Y32382D03*
X-28642Y20177D03*
X-31201D03*
X-33760D03*
Y32382D03*
X-31201D03*
X-28642D03*
X-7480Y20177D03*
X-10039D03*
X-12598D03*
X-15157D03*
Y32382D03*
X-12598D03*
X-10039D03*
X-7480D03*
X13976Y20374D03*
X11417D03*
X8858D03*
X6299D03*
Y32579D03*
X8858D03*
X11417D03*
X13976D03*
G54D32*
X21654Y-8268D03*
Y5807D03*
X35138Y-32087D03*
X28346Y-8268D03*
Y5807D03*
X29429Y54921D03*
X22736D03*
X41831Y-32087D03*
X52461Y98D03*
X59154D03*
G54D23*
X-33276Y-35236D03*
Y-32677D03*
Y-30118D03*
Y-27559D03*
X-22826D03*
Y-30118D03*
Y-32677D03*
Y-35236D03*
G54D33*
X34646Y-43012D03*
D03*
Y-47933D03*
D03*
Y-52854D03*
D03*
Y-38091D03*
D03*
G54D15*
X-32915Y41437D03*
X-11754D03*
X9605D03*
G54D24*
X-18209Y47638D03*
Y40157D03*
X3150Y47638D03*
Y40157D03*
X24705Y47638D03*
Y40157D03*
G54D34*
X38681Y-19980D03*
Y-11319D03*
X45374D03*
Y-19980D03*
G54D25*
X-31594Y54232D03*
X-10925D03*
X9744D03*
G54D16*
X-36417Y37598D03*
Y40157D03*
Y42717D03*
Y45276D03*
X-24213D03*
Y42717D03*
Y40157D03*
Y37598D03*
X-15256D03*
Y40157D03*
Y42717D03*
Y45276D03*
X-3051D03*
Y42717D03*
Y40157D03*
Y37598D03*
X6102D03*
Y40157D03*
Y42717D03*
Y45276D03*
X18307D03*
Y42717D03*
Y40157D03*
Y37598D03*
G54D35*
G01X-28740Y-73524D02*
Y-69587D01*
G01X-28346D02*
Y-73524D01*
G01X-19291Y-69587D02*
Y-73524D01*
X-27953D01*
Y-69587D01*
X-19291D01*
G01X-17224Y-73524D02*
Y-69587D01*
X-8563D01*
Y-73524D01*
X-17224D01*
G01X4035Y-72933D02*
X-25886D01*
G01X-26673Y-56004D02*
X-31299D01*
Y-63366D01*
G01X-12106Y-46358D02*
Y-48720D01*
X-32579D01*
Y-46358D01*
G01X-22343Y-41240D02*
X-23917Y-42815D01*
Y-39665D01*
X-22343Y-41240D01*
X-20768Y-39665D01*
Y-42815D01*
X-22343Y-41240D01*
G01X-32579Y-36122D02*
Y-33760D01*
X-12106D01*
Y-36122D01*
G01X-7776Y-69587D02*
Y-73524D01*
G01X-8169D02*
Y-69587D01*
G01X15236Y-56004D02*
X10531D01*
Y-63366D01*
G01X26181Y-72933D02*
X15945D01*
G01X9449Y-63366D02*
Y-56004D01*
X4823D01*
G01X31594Y-63366D02*
Y-56004D01*
X26890D01*
G54D26*
X883Y-29213D03*
X-1085D03*
X-3054D03*
X-5023D03*
Y5787D03*
X-3054D03*
X-1085D03*
X883D03*
X20574Y-29213D03*
X18605D03*
X16635D03*
X14667D03*
X12698D03*
X10729D03*
X8759D03*
X6791D03*
X4822D03*
X2853D03*
Y5787D03*
X4822D03*
X6791D03*
X8759D03*
X10729D03*
X12698D03*
X14667D03*
X16635D03*
X18605D03*
X20574D03*
X24511Y-29213D03*
X22543D03*
Y5787D03*
X24511D03*
G54D17*
X-21555Y-71555D03*
X-25689D03*
X-14961D03*
X-10827D03*
G54D36*
G01X-40208Y-11890D02*
X-58808D01*
G01X-58828Y-11897D02*
G02Y-3097I13471J4400D01*
G01X-40208Y-13209D02*
X-58808D01*
G01X-40208Y-22028D02*
X-58808D01*
G01X-58828Y-22035D02*
G02Y-13235I13471J4400D01*
G01X-40208Y8386D02*
X-58808D01*
G01X-58828Y8379D02*
G02Y17179I13471J4400D01*
G01X-40208Y7067D02*
X-58808D01*
G01X-40208Y-1752D02*
X-58808D01*
G01X-58828Y-1759D02*
G02Y7041I13471J4400D01*
G01X-40208Y-3071D02*
X-58808D01*
G01X-44342Y28720D02*
X-62942D01*
G01X-44342Y19902D02*
X-62942D01*
G01X-62962Y19894D02*
G02Y28694I13471J4400D01*
G01X-40208Y17205D02*
X-58808D01*
G01X-36614Y-37303D02*
X-32480D01*
Y-45177D01*
X-36614D01*
Y-37303D01*
G01X-36072Y-32165D02*
X-17472D01*
G01X-36072Y-23356D02*
G03Y-32156I13471J-4400D01*
G01X-37795Y-25984D02*
G03X-41929I-2067J-3559D01*
G01Y-33071D01*
G03X-37795I2067J3559D01*
G01Y-25984D01*
G01X-41831Y-34252D02*
X-37697D01*
Y-42126D01*
X-41831D01*
Y-34252D01*
G01X-36367Y-13110D02*
X-17767D01*
G01X-36367Y-21929D02*
X-17767D01*
G01X-36367Y-13120D02*
G03Y-21920I13471J-4400D01*
G01X-42469Y-11890D02*
X-23869D01*
G01X-42469Y-3080D02*
G03Y-11880I13471J-4400D01*
G01X-36072Y-23346D02*
X-17472D01*
G01X-40208Y-3080D02*
G02Y-11880I-13471J-4400D01*
G01Y-13218D02*
G02Y-22018I-13471J-4400D01*
G01X-47883Y9370D02*
X-29283D01*
G01X-47883Y18180D02*
G03Y9380I13471J-4400D01*
G01X-47784Y7362D02*
X-29184D01*
G01X-47784Y-1457D02*
X-29184D01*
G01X-47784Y7353D02*
G03Y-1447I13471J-4400D01*
G01X-42469Y-3071D02*
X-23869D01*
G01X-40208Y17195D02*
G02Y8395I-13471J-4400D01*
G01Y7057D02*
G02Y-1743I-13471J-4400D01*
G01X-47883Y18189D02*
X-29283D01*
G01X-44342Y28711D02*
G02Y19911I-13471J-4400D01*
G01X-39862Y28543D02*
X-43996D01*
Y36417D01*
X-39862D01*
Y28543D01*
G01X-39173Y19882D02*
X-38201D01*
G01X-39173Y20854D02*
Y19882D01*
G01Y32677D02*
Y31705D01*
G01Y32677D02*
X-38201D01*
G01X-35740Y34744D02*
X-36713D01*
G01Y35717D02*
Y34744D01*
G01Y48130D02*
Y47157D01*
G01X-35740Y48130D02*
X-36713D01*
G01X-25197Y-53150D02*
G03Y-49016I-3559J2067D01*
G01X-32283D01*
G03Y-53150I3559J-2067D01*
G01X-25197D01*
G01X-20768Y-45669D02*
G03X-24902I-2067J-3559D01*
G01Y-52756D01*
G03X-20768I2067J3559D01*
G01Y-45669D01*
G01X-13386Y-53150D02*
G03Y-49016I-3559J2067D01*
G01X-20472D01*
G03Y-53150I3559J-2067D01*
G01X-13386D01*
G01X-32677Y-49311D02*
Y-45177D01*
X-24803D01*
Y-49311D01*
X-32677D01*
G01X-20866D02*
Y-45177D01*
X-12992D01*
Y-49311D01*
X-20866D01*
G01X-17451Y-32172D02*
G03Y-23372I-13471J4400D01*
G01X-13878Y-25787D02*
G03X-18012I-2067J-3559D01*
G01Y-32874D01*
G03X-13878I2067J3559D01*
G01Y-25787D01*
G01X-17746Y-21936D02*
G03Y-13136I-13471J4400D01*
G01X-23849Y-11897D02*
G03Y-3097I-13471J4400D01*
G01X-13878Y-10531D02*
G02X-18012I-2067J3559D01*
G01Y-3445D01*
G02X-13878I2067J-3559D01*
G01Y-10531D01*
G01X-21358Y-4232D02*
G03Y-8366I3559J-2067D01*
G01X-14272D01*
G03Y-4232I-3559J2067D01*
G01X-21358D01*
G01Y-14173D02*
G03Y-18307I3559J-2067D01*
G01X-14272D01*
G03Y-14173I-3559J2067D01*
G01X-21358D01*
G01X-21752Y-13287D02*
Y-9154D01*
X-13878D01*
Y-13287D01*
X-21752D01*
G01Y-23130D02*
Y-18996D01*
X-13878D01*
Y-23130D01*
X-21752D01*
G01X-29262Y9363D02*
G03Y18163I-13471J4400D01*
G01X-29164Y-1464D02*
G03Y7336I-13471J4400D01*
G01X-21358Y5610D02*
G03Y1476I3559J-2067D01*
G01X-14272D01*
G03Y5610I-3559J2067D01*
G01X-21358D01*
G01X-21752Y-3445D02*
Y689D01*
X-13878D01*
Y-3445D01*
X-21752D01*
G01X-18602Y28543D02*
X-22736D01*
Y36417D01*
X-18602D01*
Y28543D01*
G01X-25295Y28346D02*
X-21161D01*
Y20472D01*
X-25295D01*
Y28346D01*
G01X-25787Y20854D02*
Y19882D01*
G01X-26760D02*
X-25787D01*
G01Y32677D02*
Y28248D01*
G01X-18012Y19882D02*
X-17039D01*
G01X-18012Y20854D02*
Y19882D01*
G01X-14390Y47835D02*
Y36698D01*
X-22028D01*
Y51098D01*
X-14390D01*
Y47835D01*
G01X-18406Y43307D02*
X-22539D01*
Y51181D01*
X-18406D01*
Y43307D01*
G01X-26760Y32677D02*
X-25787D01*
G01X-23917Y48130D02*
X-24890D01*
G01X-23917D02*
Y47157D01*
G01Y35717D02*
Y34744D01*
G01D02*
X-28346D01*
G01X-18012Y32677D02*
Y31705D01*
G01Y32677D02*
X-17039D01*
G01X9595Y-48307D02*
X-9005D01*
G01X-9025Y-48314D02*
G02Y-39514I13471J4400D01*
G01X9595Y-39488D02*
X-9005D01*
G01X7283Y-10039D02*
X-7283D01*
G01X7874Y10039D02*
X-7283D01*
G01X3051Y28543D02*
X-1083D01*
Y36417D01*
X3051D01*
Y28543D01*
G01X-3937Y28346D02*
X197D01*
Y20472D01*
X-3937D01*
Y28346D01*
G01X-4626Y20854D02*
Y19882D01*
G01X-5598D02*
X-4626D01*
G01Y32677D02*
Y28248D01*
G01X6969Y47835D02*
Y36698D01*
X-669D01*
Y51098D01*
X6969D01*
Y47835D01*
G01X2756Y43307D02*
X-1378D01*
Y51181D01*
X2756D01*
Y43307D01*
G01X-14579Y34744D02*
X-15551D01*
G01Y35717D02*
Y34744D01*
G01Y48130D02*
Y47157D01*
G01X-14579Y48130D02*
X-15551D01*
G01X-2756D02*
X-3728D01*
G01X-2756D02*
Y47157D01*
G01Y35717D02*
Y34744D01*
G01D02*
X-7185D01*
G01X-5598Y32677D02*
X-4626D01*
G01X30757Y-62087D02*
X12157D01*
G01X12136Y-62094D02*
G02Y-53294I13471J4400D01*
G01X30954Y-63996D02*
X12354D01*
G01X30954Y-72815D02*
X12354D01*
G01X12333Y-72822D02*
G02Y-64022I13471J4400D01*
G01X30757Y-53268D02*
X12157D01*
G01X9595Y-39498D02*
G02Y-48298I-13471J-4400D01*
G01X15059Y-50669D02*
X30958D01*
Y-38307D01*
X11758D01*
Y-50669D01*
X15059D01*
G01X9646Y-38386D02*
G03Y-34252I-3559J2067D01*
G01X2559D01*
G03Y-38386I3559J-2067D01*
G01X9646D01*
G01X12598Y-27461D02*
G02Y-31594I-3559J-2067D01*
G01X5512D01*
G02Y-27461I3559J2067D01*
G01X12598D01*
G01X21358Y-31594D02*
Y-27461D01*
X13484D01*
Y-31594D01*
X21358D01*
G01X18504Y-1378D02*
G02Y2756I3559J2067D01*
G01X25591D01*
G02Y-1378I-3559J-2067D01*
G01X18504D01*
G01Y-5118D02*
G02Y-984I3559J2067D01*
G01X25591D01*
G02Y-5118I-3559J-2067D01*
G01X18504D01*
G01X17323Y28346D02*
X21457D01*
Y20472D01*
X17323D01*
Y28346D01*
G01X16831Y21051D02*
Y20079D01*
G01X15858D02*
X16831D01*
G01X3445D02*
X4417D01*
G01X3445Y21051D02*
Y20079D01*
G01X16831Y32874D02*
Y28445D01*
G01X24311Y43307D02*
X20177D01*
Y51181D01*
X24311D01*
Y43307D01*
G01X3445Y32874D02*
Y31902D01*
G01Y32874D02*
X4417D01*
G01X15858D02*
X16831D01*
G01X6780Y34744D02*
X5807D01*
G01Y35717D02*
Y34744D01*
G01Y48130D02*
Y47157D01*
G01X6780Y48130D02*
X5807D01*
G01X18602D02*
X17630D01*
G01X18602D02*
Y47157D01*
G01Y35717D02*
Y34744D01*
G01D02*
X14173D01*
G01X29232Y57756D02*
X19683D01*
Y52087D01*
X32483D01*
Y57756D01*
X29232D01*
G01X30757Y-53277D02*
G02Y-62077I-13471J-4400D01*
G01X30954Y-64006D02*
G02Y-72806I-13471J-4400D01*
G01X24311Y-32283D02*
G03Y-36417I3559J-2067D01*
G01X31398D01*
G03Y-32283I-3559J2067D01*
G01X24311D01*
G01X36417Y-27854D02*
G03Y-31988I3559J-2067D01*
G01X43504D01*
G03Y-27854I-3559J2067D01*
G01X36417D01*
G01Y-31496D02*
G03Y-35630I3559J-2067D01*
G01X43504D01*
G03Y-31496I-3559J2067D01*
G01X36417D01*
G01X44193Y-7874D02*
G03Y-3740I-3559J2067D01*
G01X37106D01*
G03Y-7874I3559J-2067D01*
G01X44193D01*
G01X40157Y3543D02*
G03Y7677I-3559J2067D01*
G01X33071D01*
G03Y3543I3559J-2067D01*
G01X40157D01*
G01X40519Y15650D02*
Y11516D01*
X32644D01*
Y15650D01*
X40519D01*
G01X32710Y7480D02*
Y11614D01*
X40584D01*
Y7480D01*
X32710D01*
G01X35433Y21457D02*
Y25591D01*
X43307D01*
Y21457D01*
X35433D01*
G01X27559Y29429D02*
X31693D01*
Y21555D01*
X27559D01*
Y29429D01*
G01X43307Y29331D02*
Y25197D01*
X35433D01*
Y29331D01*
X43307D01*
G01X23425Y29429D02*
X27559D01*
Y21555D01*
X23425D01*
Y29429D01*
G01X31594Y29331D02*
X35728D01*
Y21457D01*
X31594D01*
Y29331D01*
G01X28524Y47835D02*
Y36698D01*
X20886D01*
Y51098D01*
X28524D01*
Y47835D01*
G01X29823Y47539D02*
G03Y43406I3559J-2067D01*
G01X36909D01*
G03Y47539I-3559J2067D01*
G01X29823D01*
G01X37303Y51181D02*
Y47047D01*
X29429D01*
Y51181D01*
X37303D01*
G01X46949Y-27657D02*
G03Y-23524I-3559J2067D01*
G01X39862D01*
G03Y-27657I3559J-2067D01*
G01X46949D01*
G01X62106Y-11614D02*
G03Y-7480I-3559J2067D01*
G01X55020D01*
G03Y-11614I3559J-2067D01*
G01X62106D01*
G01X54626Y-8169D02*
Y-4035D01*
X62500D01*
Y-8169D01*
X54626D01*
G01X40781Y11614D02*
G03Y7480I3559J-2067D01*
G01X47868D01*
G03Y11614I-3559J2067D01*
G01X40781D01*
G01X55742Y7480D02*
Y11614D01*
X63616D01*
Y7480D01*
X55742D01*
G01X55906Y7677D02*
Y3543D01*
X48031D01*
Y7677D01*
X55906D01*
G01X63550Y15650D02*
Y11516D01*
X55676D01*
Y15650D01*
X63550D01*
G01X55873D02*
Y11516D01*
X47999D01*
Y15650D01*
X55873D01*
G01X55709Y3543D02*
Y7677D01*
X63583D01*
Y3543D01*
X55709D01*
G01X55939Y11614D02*
Y7480D01*
X48065D01*
Y11614D01*
X55939D01*
G01X40354Y3543D02*
Y7677D01*
X48228D01*
Y3543D01*
X40354D01*
G01X48196Y15650D02*
Y11516D01*
X40322D01*
Y15650D01*
X48196D01*
G01X52657Y-2736D02*
X62207D01*
Y2933D01*
X49407D01*
Y-2736D01*
X52657D01*
G01X53642Y21457D02*
Y25591D01*
X61516D01*
Y21457D01*
X53642D01*
G01X50098Y29331D02*
X54232D01*
Y21457D01*
X50098D01*
Y29331D01*
G01X61516D02*
Y25197D01*
X53642D01*
Y29331D01*
X61516D01*
G01X42815D02*
X46949D01*
Y21457D01*
X42815D01*
Y29331D01*
G01X46457D02*
X50591D01*
Y21457D01*
X46457D01*
Y29331D01*
G54D27*
X-7756Y-26480D03*
Y-24511D03*
Y-22542D03*
Y-20573D03*
Y-18604D03*
Y-16635D03*
Y-14666D03*
Y-12697D03*
Y-10728D03*
Y-8759D03*
Y-6790D03*
Y-4821D03*
Y-2852D03*
Y-883D03*
Y1086D03*
Y3055D03*
X27244Y-24511D03*
Y-26480D03*
Y-6790D03*
Y-8759D03*
Y-10728D03*
Y-12697D03*
Y-14666D03*
Y-16635D03*
Y-18604D03*
Y-20573D03*
Y-22542D03*
Y3055D03*
Y1086D03*
Y-883D03*
Y-2852D03*
Y-4821D03*
G54D18*
X-29035Y-68996D03*
X12795D03*
X7185D03*
X29331D03*
G54D37*
G01X-28445Y-64370D02*
X-28937D01*
Y-57677D01*
X-24705D01*
G01X-17224Y-64370D02*
X-16732D01*
Y-57677D01*
X-20965D01*
G54D19*
X-26575Y-65610D03*
X-19094D03*
X-22835Y-56437D03*
G54D28*
X-11220Y-6398D03*
Y-8957D03*
Y8957D03*
Y6398D03*
Y3839D03*
Y1280D03*
Y-1280D03*
Y-3839D03*
X11220Y-8957D03*
Y-6398D03*
Y-3839D03*
Y-1280D03*
Y1280D03*
Y3839D03*
Y6398D03*
Y8957D03*
G54D38*
G01X7087Y-46850D02*
X3937D01*
G01X5512Y-45276D02*
Y-48425D01*
G54D29*
Y-62795D03*
Y-52953D03*
G54D39*
G01X8662Y-50000D02*
Y-64961D01*
G01D02*
X7874Y-65748D01*
G01D02*
X3150D01*
G01D02*
X2362Y-64961D01*
G01D02*
Y-50000D01*
G01D02*
X8662D01*
G01X3937Y-57323D02*
X7087D01*
G01D02*
X5473Y-58937D01*
G01D02*
X3937Y-57402D01*
G01D02*
Y-57323D01*
M02*
