G04 ================== begin FILE IDENTIFICATION RECORD ==================*
G04 Layout Name:  D:/PROJECT/FOC/CIRCUIT/CANDENCE/STM32/stspin32g4_foc.brd*
G04 Film Name:    bottom*
G04 File Format:  Gerber RS274X*
G04 File Origin:  Cadence Allegro 17.4-S039*
G04 Origin Date:  Tue Dec 30 00:20:55 2025*
G04 *
G04 Layer:  VIA CLASS/BOTTOM*
G04 Layer:  PIN/BOTTOM*
G04 Layer:  ETCH/BOTTOM*
G04 *
G04 Offset:    (0.0000 0.0000)*
G04 Mirror:    No*
G04 Mode:      Positive*
G04 Rotation:  0*
G04 FullContactRelief:  No*
G04 UndefLineWidth:     0.1524*
G04 ================== end FILE IDENTIFICATION RECORD ====================*
%FSLAX25Y25*MOIN*%
%IR0*IPPOS*OFA0.00000B0.00000*MIA0B0*SFA1.00000B1.00000*%
%ADD23O,.047244X.015748*%
%ADD15R,.019685X.066929*%
%ADD10C,.023622*%
%AMMACRO11*
21,1,.051181,.059055,0.0,0.0,179.85*%
%ADD11MACRO11*%
%AMMACRO20*
21,1,.03937,.031496,0.0,0.0,89.85*%
%ADD20MACRO20*%
%AMMACRO22*
21,1,.062992,.070866,0.0,0.0,179.85*%
%ADD22MACRO22*%
%AMMACRO18*
21,1,.015748,.027559,0.0,0.0,179.85*%
%ADD18MACRO18*%
%AMMACRO16*
21,1,.023622,.025591,0.0,0.0,179.85*%
%ADD16MACRO16*%
%ADD25R,.043307X.03937*%
%ADD12R,.082677X.090551*%
%ADD21R,.059055X.051181*%
%ADD14R,.047244X.098425*%
%ADD13R,.051181X.059055*%
%ADD27C,.04*%
%ADD19R,.025591X.023622*%
%ADD26R,.023622X.025591*%
%AMMACRO24*
21,1,.051181,.059055,0.0,0.0,89.85*%
%ADD24MACRO24*%
%AMMACRO17*
21,1,.098819,.100394,0.0,0.0,89.85*%
%ADD17MACRO17*%
%ADD28C,.007874*%
%ADD29C,.011811*%
%ADD31C,.043638*%
%ADD30C,.07089*%
G75*
%LPD*%
G75*
G36*
G01X6456Y59643D02*
X28638Y59724D01*
G02X28839Y59524I1J-200D01*
G01Y46638D01*
G02X28780Y46496I-200J0D01*
G01X27716Y45432D01*
G02X27575Y45374I-141J142D01*
G01X-25016Y45276D01*
G03X-25157Y45217I0J-200D01*
G01X-26713Y43661D01*
G03X-26772Y43520I141J-142D01*
G01Y37995D01*
G02X-26972Y37795I-200J0D01*
G01X-30035D01*
G03X-30177Y37737I0J-200D01*
G01X-30921Y36992D01*
X-30933Y36983D01*
G03X-31373Y36543I1307J-1747D01*
G01X-31382Y36531D01*
X-32225Y35689D01*
G03X-32283Y35547I141J-142D01*
G01Y32500D01*
G02X-32483Y32300I-200J0D01*
G01X-36340D01*
X-36356Y32283D01*
X-36531D01*
G03X-36673Y32225I0J-200D01*
G01X-39115Y29783D01*
G03X-39173Y29642I141J-142D01*
G01Y-17142D01*
G03X-39115Y-17283I200J0D01*
G01X-36907Y-19490D01*
X-36880Y-19540D01*
X-36874Y-19568D01*
G03X-35217Y-21224I2130J473D01*
G01X-35189Y-21231D01*
X-35140Y-21258D01*
X-32834Y-23563D01*
G03X-32693Y-23622I142J141D01*
G01X-32010D01*
G02X-31869Y-23681I0J-200D01*
G01X-31674Y-23875D01*
G03X-31533Y-23934I142J141D01*
G01X-29139D01*
G02X-28998Y-23993I0J-200D01*
G01X-25863Y-27128D01*
G02X-25804Y-27269I-141J-142D01*
G01Y-30450D01*
G03X-25745Y-30591I200J0D01*
G01X-25452Y-30884D01*
G02X-25394Y-31026I-141J-142D01*
G01Y-34054D01*
X-25469Y-34158D01*
X-25531Y-34178D01*
G03X-25875Y-34652I157J-476D01*
G01X-25882Y-37408D01*
G03X-25533Y-37887I501J-2D01*
G01X-25470Y-37907D01*
X-25394Y-38012D01*
Y-38303D01*
G02X-25452Y-38444I-200J0D01*
G01X-25712Y-38704D01*
G02X-25854Y-38763I-142J141D01*
G01X-34265D01*
G03X-34465Y-38963I0J-200D01*
G01Y-52376D01*
G03X-34265Y-52576I200J0D01*
G01X-34023D01*
G02X-33881Y-52634I0J-200D01*
G01X-33425Y-53091D01*
G03X-33283Y-53150I142J141D01*
G01X-26390D01*
G02X-26190Y-53350I0J-200D01*
G01Y-55747D01*
G02X-26248Y-55889I-200J0D01*
G01X-27803Y-57443D01*
G03X-28065Y-58076I633J-632D01*
G01Y-59411D01*
G02X-28173Y-59588I-200J0D01*
G03X-29352Y-61526I1003J-1938D01*
G03X-24989I2182J0D01*
G03X-25506Y-60116I-2182J0D01*
G01X-25543Y-60071D01*
X-25559Y-59956D01*
X-25381Y-59573D01*
G02X-25200Y-59457I181J-84D01*
G01X-23720D01*
G03X-23220Y-58957I0J501D01*
G01Y-53350D01*
G02X-23020Y-53150I200J0D01*
G01X-22453D01*
G02X-22253Y-53350I0J-200D01*
G01Y-58957D01*
G03X-21752Y-59457I501J0D01*
G01X-20189D01*
G02X-19989Y-59657I0J-200D01*
G01Y-60384D01*
X-20011Y-60447D01*
X-20031Y-60474D01*
G03X-20489Y-61811I1724J-1337D01*
G03X-16125I2182J0D01*
G03X-16324Y-60902I-2182J-1D01*
G01X-16345Y-60855D01*
X-16338Y-60753D01*
X-16129Y-60427D01*
G02X-15960Y-60335I168J-108D01*
G01X4839D01*
G03X4980Y-60276I0J200D01*
G01X14016Y-51240D01*
G03X14075Y-51098I-141J142D01*
G01Y-31382D01*
G03X14016Y-31241I-200J0D01*
G01X9110Y-26334D01*
G02X9066Y-26116I141J142D01*
G01X9089Y-26060D01*
X9190Y-25993D01*
X14697D01*
G03X15330Y-25731I0J895D01*
G01X16417Y-24644D01*
X16525Y-24617D01*
X16579Y-24634D01*
G03X17240Y-24737I662J2079D01*
G03X17620Y-24704I1J2182D01*
G01X17670Y-24695D01*
X17768Y-24728D01*
X18065Y-25055D01*
X18088Y-25155D01*
X18074Y-25204D01*
G03X17995Y-25787I2103J-582D01*
G03X22359I2182J0D01*
G03X21180Y-23850I-2182J0D01*
G02X21072Y-23672I92J178D01*
G01Y-21891D01*
G03X20810Y-21258I-895J0D01*
G01X17891Y-18340D01*
G02X17833Y-18198I141J142D01*
G01Y-7981D01*
G03X17571Y-7349I-895J0D01*
G01X14114Y-3892D01*
X14084Y-3824D01*
X14082Y-3786D01*
G03X13635Y-2862I-1287J-53D01*
G02X13566Y-2711I131J151D01*
G01Y-2407D01*
G02X13635Y-2256I200J0D01*
G03X13761Y-2132I-840J976D01*
G01X13794Y-2095D01*
X13885Y-2060D01*
X14310Y-2110D01*
X14391Y-2165D01*
X14414Y-2209D01*
G03X16339Y-3363I1925J1028D01*
G03X16798Y-3314I-1J2182D01*
G01X16848Y-3303D01*
X16946Y-3332D01*
X17437Y-3823D01*
G03X18128Y-4139I772J772D01*
G02X18254Y-4197I-15J-199D01*
G01X18345Y-4287D01*
G02X18402Y-4401I-141J-142D01*
G03X18819Y-4825I496J70D01*
G01X18892Y-4837D01*
X18987Y-4949D01*
Y-10236D01*
G03X19488Y-10737I501J0D01*
G01X23819D01*
G03X24320Y-10236I0J501D01*
G01Y-6299D01*
G03X23819Y-5798I-501J0D01*
G01X21370D01*
G02X21170Y-5598I0J200D01*
G01Y-4949D01*
X21266Y-4837D01*
X21339Y-4825D01*
G03X21761Y-4331I-79J494D01*
G01Y-1772D01*
G03X21638Y-1443I-500J0D01*
G01X21614Y-1416D01*
X21589Y-1349D01*
Y-1013D01*
X21614Y-946D01*
X21638Y-919D01*
G03X21761Y-591I-377J328D01*
G01Y1969D01*
G03X21339Y2463I-501J0D01*
G01X21266Y2475D01*
X21170Y2587D01*
Y3138D01*
G02X21370Y3338I200J0D01*
G01X23819D01*
G03X24320Y3839I0J501D01*
G01Y7776D01*
G03X23819Y8276I-501J0D01*
G01X19488D01*
G03X18987Y7776I0J-501D01*
G01Y3161D01*
G02X18787Y2961I-200J0D01*
G01X18439D01*
G02X18270Y3053I0J200D01*
G03X16437Y4052I-1833J-1183D01*
G03X14255Y1870I0J-2182D01*
G03X14718Y527I2182J0D01*
G02X14709Y270I-158J-123D01*
G03X14359Y-262I1629J-1452D01*
G01X14339Y-307D01*
X14261Y-367D01*
X13840Y-440D01*
X13747Y-410D01*
X13712Y-375D01*
G03X12795Y9I-917J-905D01*
G01X9646D01*
G03X8359Y-1227I0J-1288D01*
G01X8357Y-1265D01*
X8327Y-1333D01*
X7340Y-2320D01*
G03X7078Y-2953I633J-632D01*
G01Y-3023D01*
X7076Y-3035D01*
G03X7070Y-3142I888J-106D01*
G01Y-13137D01*
G02X7011Y-13279I-200J0D01*
G01X5667Y-14623D01*
G03X5405Y-15256I633J-632D01*
G01Y-19448D01*
G02X5309Y-19619I-200J0D01*
G01X4974Y-19825D01*
X4871Y-19829D01*
X4824Y-19806D01*
G03X3839Y-19570I-986J-1946D01*
G03X2741Y-19867I0J-2182D01*
G01X2691Y-19896D01*
X2576Y-19891D01*
X2181Y-19622D01*
X2135Y-19516D01*
X2144Y-19459D01*
G03X2171Y-19120I-2156J338D01*
G03X-11Y-16938I-2182J0D01*
G03X-990Y-17170I0J-2181D01*
G01X-1042Y-17196D01*
X-1158Y-17184D01*
X-1534Y-16883D01*
X-1571Y-16773D01*
X-1557Y-16716D01*
G03X-1493Y-16189I-2117J527D01*
G03X-3674Y-14007I-2182J0D01*
G03X-5267Y-14697I0J-2182D01*
G01X-5296Y-14728D01*
X-5372Y-14761D01*
X-20784Y-14666D01*
G02X-20924Y-14607I1J200D01*
G01X-23767Y-11765D01*
G02X-23810Y-11546I141J141D01*
G01X-23787Y-11490D01*
X-23686Y-11423D01*
X-20988Y-11430D01*
G03X-20486Y-10931I1J501D01*
G01X-20483Y-10051D01*
G02X-20283Y-9851I200J0D01*
G01X-17925D01*
G02X-17725Y-10051I0J-200D01*
G01Y-10138D01*
G03X-17224Y-10639I501J0D01*
G01X-14665D01*
G03X-14165Y-10138I0J501D01*
G01Y-10051D01*
G02X-13965Y-9851I200J0D01*
G01X-13766D01*
X-13696Y-9878D01*
X-13668Y-9904D01*
G03X-12795Y-10245I873J947D01*
G01X-9646D01*
G03X-9006Y-10074I0J1288D01*
G01X-8982Y-10061D01*
X-8932Y-10048D01*
X-7768D01*
G03X-6996Y-9728I0J1091D01*
G01X-6020Y-8752D01*
G03X-5700Y-7980I-771J772D01*
G01Y-2988D01*
G02X-5641Y-2846I200J0D01*
G01X-5126Y-2331D01*
G02X-4985Y-2272I142J-141D01*
G01X1050D01*
G02X1218Y-2364I0J-200D01*
G03X3051Y-3363I1833J1183D01*
G03Y1001I0J2182D01*
G03X1218Y2I0J-2182D01*
G02X1050Y-90I-168J108D01*
G01X-5520D01*
G03X-6291Y-409I0J-1091D01*
G01X-7563Y-1681D01*
G03X-7883Y-2453I771J-772D01*
G01Y-7445D01*
G02X-7941Y-7587I-200J0D01*
G01X-8161Y-7807D01*
G02X-8303Y-7865I-142J141D01*
G01X-8338D01*
G02X-8519Y-7751I0J200D01*
G01X-8698Y-7372D01*
X-8685Y-7257D01*
X-8648Y-7212D01*
G03X-8357Y-6398I-998J815D01*
G03X-8806Y-5421I-1288J0D01*
G02X-8875Y-5270I131J151D01*
G01Y-4967D01*
G02X-8806Y-4815I200J0D01*
G03X-8357Y-3839I-840J976D01*
G03X-9646Y-2550I-1288J0D01*
G01X-12795D01*
G03X-14083Y-3839I0J-1288D01*
G03X-13635Y-4815I1288J0D01*
G02X-13566Y-4967I-131J-151D01*
G01Y-5270D01*
G02X-13635Y-5421I-200J0D01*
G03Y-7374I840J-976D01*
G02X-13566Y-7526I-131J-151D01*
G01Y-7829D01*
G02X-13635Y-7980I-200J0D01*
G03X-13668Y-8009I841J-976D01*
G01X-13696Y-8035D01*
X-13766Y-8062D01*
X-13965D01*
G02X-14165Y-7862I0J200D01*
G01Y-7776D01*
G03X-14665Y-7275I-501J0D01*
G01X-17224D01*
G03X-17725Y-7776I0J-501D01*
G01Y-7862D01*
G02X-17925Y-8062I-200J0D01*
G01X-20278D01*
G02X-20478Y-7862I0J200D01*
G01X-20476Y-6994D01*
G03X-20975Y-6491I-501J2D01*
G01X-24125Y-6483D01*
G03X-24627Y-6983I-1J-501D01*
G01X-24636Y-10414D01*
G02X-24759Y-10598I-200J1D01*
G01X-24815Y-10621D01*
X-24934Y-10598D01*
X-25335Y-10196D01*
G02X-25394Y-10055I141J142D01*
G01Y13001D01*
G02Y13002I200J0D01*
G01X-25385Y15674D01*
G02X-25325Y15816I200J-1D01*
G01X-23717Y17404D01*
X-23626Y17433D01*
X-23579Y17425D01*
G03X-23228Y17397I351J2154D01*
G03X-22343Y17584I0J2182D01*
G02X-22262Y17602I81J-183D01*
G01X17950D01*
G03X18091Y17660I0J200D01*
G01X18856Y18424D01*
G03X18914Y18566I-141J142D01*
G01Y23297D01*
G02X19115Y23497I200J0D01*
G01X20287Y23493D01*
G02X20428Y23435I-1J-200D01*
G01X33963Y9899D01*
G03X34596Y9637I632J633D01*
G01X43209D01*
G03X43841Y9899I0J895D01*
G01X45436Y11494D01*
X45545Y11520D01*
X45598Y11504D01*
G03X46260Y11401I662J2079D01*
G03X48442Y13583I0J2182D01*
G03X47593Y15310I-2182J0D01*
G01X47542Y15350D01*
X47505Y15472D01*
X47648Y15891D01*
G02X47837Y16027I189J-65D01*
G01X50178D01*
G02X50319Y15968I0J-200D01*
G01X51848Y14439D01*
X51875Y14330D01*
X51858Y14277D01*
G03X51755Y13615I2079J-662D01*
G03X56119I2182J0D01*
G03X55584Y15046I-2182J0D01*
G01X55545Y15091D01*
X55529Y15207D01*
X55704Y15592D01*
G02X55886Y15709I182J-83D01*
G01X57116D01*
G02X57293Y15600I0J-200D01*
G03X59231Y14421I1938J1003D01*
G03Y18785I0J2182D01*
G03X58772Y18736I0J-2182D01*
G01X58721Y18725D01*
X58623Y18755D01*
X58314Y19069D01*
X58286Y19168D01*
X58298Y19218D01*
G03X58355Y19715I-2125J496D01*
G03X56173Y21896I-2182J0D01*
G03X54517Y21135I0J-2182D01*
G01X54493Y21107D01*
X54429Y21072D01*
X54093Y21026D01*
X54021Y21043D01*
X53991Y21063D01*
G03X53492Y21215I-499J-742D01*
G01X51472D01*
G02X51294Y21324I0J200D01*
G03X49356Y22503I-1938J-1003D01*
G03X47294Y21032I0J-2182D01*
G02X46910Y21053I-189J65D01*
G03X46823Y21338I-2126J-490D01*
G01X46883Y21398D01*
G03X47093Y21728I-633J632D01*
G02X47111Y21766I189J-66D01*
G03X47244Y22235I-761J469D01*
G01Y23200D01*
G02X47444Y23400I200J0D01*
G01X68856Y23327D01*
G02X69043Y23194I-1J-200D01*
G02X69678Y21281I-46100J-16365D01*
G01Y21280D01*
G02X69295Y-22496I-69678J-21280D01*
G02X60151Y-25451I-5641J1830D01*
G03X47771Y-33052I-4632J-6337D01*
G02X44334Y-40917I-7799J-1275D01*
G03X42019Y-56873I5955J-9010D01*
G02X41632Y-59794I-1529J-1283D01*
G02X31915Y-65500I-41872J60175D01*
G01Y-73815D01*
G02X31715Y-74015I-200J0D01*
G01X-31715D01*
G02X-31915Y-73815I0J200D01*
G01Y-65536D01*
G02X-41199Y-60099I34801J70064D01*
G01X-41200D01*
G02X-41607Y-57182I1130J1645D01*
G03X-44040Y-41242I-8320J6886D01*
G02X-47538Y-33403I4303J6620D01*
G03X-54159Y-24429I-7756J1207D01*
G01X-54233Y-24418D01*
X-54331Y-24306D01*
Y39328D01*
G02X-54247Y39491I200J0D01*
G01X-53943Y39708D01*
X-53847Y39722D01*
X-53801Y39706D01*
G03X-39499Y49976I3504J10214D01*
G01X-39508Y50425D01*
Y50429D01*
G02X-30894Y59505I9075J13D01*
G02X-30884Y59505I13J-199D01*
G01X-6904Y59593D01*
X-6893D01*
G02X-6733Y59544I3J-271D01*
G02X-6685Y59494I-115J-163D01*
G03X6232Y59539I6443J4478D01*
G02X6279Y59587I165J-113D01*
G02X6449Y59643I170J-230D01*
G01X6450D01*
X6456D01*
G37*
G36*
G01X-35843Y31299D02*
X-8336D01*
G02X-8194Y31241I0J-200D01*
G01X-7818Y30863D01*
G03X-7185Y30602I632J633D01*
G01X13178D01*
G02X13320Y30543I0J-200D01*
G01X17855Y26008D01*
G02X17913Y25866I-141J-142D01*
G01Y18980D01*
G02X17855Y18839I-200J0D01*
G01X17677Y18661D01*
G02X17535Y18602I-142J141D01*
G01X477D01*
G02X308Y18694I0J200D01*
G01X99Y19021D01*
X92Y19122D01*
X113Y19169D01*
G03X312Y20079I-1983J910D01*
G03X-4052I-2182J0D01*
G03X-3853Y19169I2182J1D01*
G01X-3832Y19122D01*
X-3839Y19021D01*
X-4048Y18694D01*
G02X-4217Y18602I-168J108D01*
G01X-20712D01*
G02X-20868Y18678I0J200D01*
G01X-21092Y18958D01*
X-21112Y19047D01*
X-21102Y19092D01*
G03X-21046Y19579I-2127J487D01*
G03X-25410I-2182J0D01*
G03X-25333Y19003I2182J1D01*
G01X-25319Y18951D01*
X-25346Y18847D01*
X-26320Y17873D01*
G03X-26378Y17733I141J-142D01*
G01X-26476Y-10744D01*
G03X-26417Y-10886I200J-1D01*
G01X-21417Y-15886D01*
G03X-21276Y-15945I142J141D01*
G01X-11205D01*
G02X-11063Y-16004I0J-200D01*
G01X-5452Y-21615D01*
G02X-5395Y-21783I-142J-141D01*
G01X-5444Y-22146D01*
X-5496Y-22223D01*
X-5537Y-22246D01*
G03X-6643Y-24144I1077J-1898D01*
G03X-4461Y-26326I2182J0D01*
G03X-2563Y-25220I0J2182D01*
G01X-2540Y-25179D01*
X-2463Y-25127D01*
X-2100Y-25078D01*
G02X-1932Y-25135I27J-198D01*
G01X40Y-27107D01*
G03X181Y-27165I142J141D01*
G01X6316D01*
G02X6456Y-27222I0J-200D01*
G01X11653Y-32323D01*
G02X11713Y-32466I-140J-143D01*
G01Y-45980D01*
G02X11654Y-46122I-200J0D01*
G01X10098Y-47678D01*
G02X9957Y-47736I-142J141D01*
G01X1301D01*
G02X1160Y-47678I0J200D01*
G01X944Y-47462D01*
G02X886Y-47321I141J142D01*
G01Y-39062D01*
G03X824Y-38917I-200J0D01*
G01X-1419Y-36768D01*
G03X-1557Y-36713I-138J-144D01*
G01X-16229D01*
G02X-16429Y-36512I0J200D01*
G01X-16425Y-34940D01*
G03X-16924Y-34438I-501J1D01*
G01X-19287Y-34432D01*
G03X-19678Y-34618I-1J-501D01*
G01X-19704Y-34651D01*
X-19780Y-34690D01*
X-20120Y-34708D01*
G02X-20272Y-34650I-11J200D01*
G01X-24744Y-30177D01*
G02X-24803Y-30035I141J142D01*
G01Y-26854D01*
G03X-24862Y-26713I-200J0D01*
G01X-28583Y-22992D01*
G03X-28724Y-22933I-142J-141D01*
G01X-31118D01*
G02X-31259Y-22874I0J200D01*
G01X-37835Y-16299D01*
G02X-37894Y-16157I141J142D01*
G01Y29248D01*
G02X-37835Y29389I200J0D01*
G01X-35984Y31241D01*
G02X-35843Y31299I142J-141D01*
G37*
G36*
G01X-33265Y-39764D02*
X-23508D01*
G02X-23367Y-39822I0J-200D01*
G01X-20334Y-42855D01*
G03X-20193Y-42913I142J141D01*
G01X-15803D01*
X-15748Y-42929D01*
X-15724Y-42944D01*
G03X-15457Y-43022I268J423D01*
G01X-14932Y-43024D01*
G02X-14792Y-43082I-1J-200D01*
G01X-12854Y-45020D01*
G02X-12795Y-45161I-141J-142D01*
G01Y-47260D01*
G03X-12737Y-47401I200J0D01*
G01X-12575Y-47563D01*
G02X-12517Y-47704I-141J-142D01*
G01Y-47773D01*
G03X-12458Y-47914I200J0D01*
G01X-7834Y-52538D01*
G02X-7776Y-52679I-141J-142D01*
G01Y-58954D01*
G02X-7976Y-59154I-200J0D01*
G01X-17615D01*
G02X-17815Y-58954I0J200D01*
G01Y-52346D01*
G03X-17874Y-52205I-200J0D01*
G01X-18445Y-51633D01*
G03X-18587Y-51575I-142J-141D01*
G01X-33265D01*
G02X-33465Y-51375I0J200D01*
G01Y-39964D01*
G02X-33265Y-39764I200J0D01*
G37*
G36*
G01X-25581Y37022D02*
Y42527D01*
G02X-25381Y42727I200J0D01*
G01X-15939D01*
G02X-15739Y42527I0J-200D01*
G01Y37022D01*
G02X-15939Y36822I-200J0D01*
G01X-25381D01*
G02X-25581Y37022I0J200D01*
G37*
G36*
G01X-6594Y-59052D02*
Y-52445D01*
G03X-6653Y-52304I-200J0D01*
G01X-11457Y-47500D01*
G02X-11516Y-47358I141J142D01*
G01Y-38567D01*
G02X-11457Y-38426I200J0D01*
G01X-10984Y-37952D01*
G02X-10843Y-37894I142J-141D01*
G01X-2445D01*
G02X-2304Y-37952I0J-200D01*
G01X-1929Y-38327D01*
G02X-1870Y-38469I-141J-142D01*
G01Y-45980D01*
G03X-1811Y-46122I200J0D01*
G01X3780Y-51713D01*
G02X3839Y-51854I-141J-142D01*
G01Y-59052D01*
G02X3639Y-59252I-200J0D01*
G01X-6394D01*
G02X-6594Y-59052I0J200D01*
G37*
G36*
G01X-4396Y37000D02*
Y42506D01*
G02X-4196Y42706I200J0D01*
G01X5246D01*
G02X5446Y42506I0J-200D01*
G01Y37000D01*
G02X5246Y36800I-200J0D01*
G01X-4196D01*
G02X-4396Y37000I0J200D01*
G37*
G36*
G01X17165Y42728D02*
X25131D01*
X25146Y42726D01*
G03X25280Y42716I132J885D01*
G01X26607D01*
G02X26807Y42516I0J-200D01*
G01Y37022D01*
G02X26607Y36822I-200J0D01*
G01X23476D01*
X23470Y36823D01*
G03X23327Y36828I-144J-2177D01*
G03X23184Y36823I1J-2182D01*
G01X23177Y36822D01*
X17044D01*
X16971Y36853D01*
X16965Y36859D01*
Y42528D01*
G02X17165Y42728I200J0D01*
G37*
%LPC*%
G75*
G36*
G01X30113Y-23721D02*
G02X29614Y-23219I1J501D01*
G01X29621Y-20660D01*
G02X30123Y-20160I501J-1D01*
G01X32485Y-20167D01*
G02X32984Y-20669I-1J-501D01*
G01X32978Y-23228D01*
G02X32476Y-23727I-501J1D01*
G01X32394Y-23727D01*
G03X32194Y-23927I0J-200D01*
G01Y-24988D01*
G03X32394Y-25188I200J0D01*
G01X32480D01*
G02X32981Y-25689I0J-501D01*
G01Y-28248D01*
G02X32741Y-28676I-501J0D01*
G01X32703Y-28699D01*
X32654Y-28772D01*
X32593Y-29162D01*
X32617Y-29246D01*
X32646Y-29280D01*
G02X32831Y-29526I-1648J-1430D01*
G03X32999Y-29617I168J109D01*
G01X34043D01*
G03X34243Y-29417I0J200D01*
G01Y-29031D01*
G03X34186Y-28890I-200J0D01*
G01X34098Y-28802D01*
G03X33984Y-28744I-143J-140D01*
G02X33554Y-28248I71J496D01*
G01Y-25689D01*
G02X34055Y-25188I501J0D01*
G01X36417D01*
G02X36918Y-25689I0J-501D01*
G01Y-28248D01*
G02X36417Y-28749I-501J0D01*
G01X36232D01*
G03X36032Y-28949I0J-200D01*
G01Y-29417D01*
G03X36232Y-29617I200J0D01*
G01X37303D01*
G02X37804Y-30118I0J-501D01*
G01Y-33208D01*
G03X37863Y-33350I200J0D01*
G01X38568Y-34055D01*
G02X38830Y-34687I-633J-632D01*
G01Y-49565D01*
G02X38568Y-50197I-895J0D01*
G01X36982Y-51783D01*
X36957Y-51899D01*
X36979Y-51954D01*
G02X37146Y-52854I-2333J-900D01*
G02X32145I-2501J0D01*
G02X33321Y-50733I2501J0D01*
G03X33415Y-50563I-106J170D01*
G01Y-50224D01*
G03X33321Y-50054I-200J0D01*
G02Y-45812I1324J2121D01*
G03X33415Y-45642I-106J170D01*
G01Y-45303D01*
G03X33321Y-45133I-200J0D01*
G02X32145Y-43012I1324J2121D01*
G02X34646Y-40511I2501J0D01*
G02X36366Y-41196I0J-2501D01*
G01X36409Y-41238D01*
X36527Y-41259D01*
X36920Y-41090D01*
G03X37041Y-40906I-79J184D01*
G01Y-35141D01*
G03X36982Y-34999I-200J0D01*
G01X36598Y-34615D01*
G03X36456Y-34556I-142J-141D01*
G01X32972D01*
G02X32472Y-34055I0J501D01*
G01Y-33058D01*
G03X32380Y-32889I-200J0D01*
G01X32054Y-32680D01*
X31952Y-32672D01*
X31906Y-32694D01*
G02X30998Y-32891I-907J1985D01*
G02X28817Y-30709I0J2182D01*
G02X29607Y-29029I2182J0D01*
G01X29635Y-29006D01*
X29670Y-28943D01*
X29725Y-28613D01*
X29711Y-28542D01*
X29692Y-28511D01*
G02X29617Y-28248I426J263D01*
G01Y-25689D01*
G02X30118Y-25188I501J0D01*
G01X30205D01*
G03X30405Y-24988I0J200D01*
G01Y-23921D01*
G03X30205Y-23721I-200J0D01*
G01X30113Y-23721D01*
G37*
G36*
G01X-13566Y7526D02*
Y7829D01*
G03X-13635Y7980I-200J0D01*
G02X-14083Y8957I840J976D01*
G02X-12795Y10245I1288J0D01*
G01X-9646D01*
G02X-8357Y8957I0J-1288D01*
G02X-8806Y7980I-1288J0D01*
G03X-8875Y7829I131J-151D01*
G01Y7526D01*
G03X-8806Y7374I200J0D01*
G02Y5421I-840J-976D01*
G03X-8875Y5270I131J-151D01*
G01Y4967D01*
G03X-8806Y4815I200J0D01*
G02Y2862I-840J-976D01*
G03X-8875Y2711I131J-151D01*
G01Y2407D01*
G03X-8806Y2256I200J0D01*
G02X-8357Y1280I-840J-976D01*
G02X-9646Y-9I-1288J0D01*
G01X-12795D01*
G02X-14083Y1280I0J1288D01*
G02X-13635Y2256I1288J0D01*
G03X-13566Y2407I-131J151D01*
G01Y2711D01*
G03X-13635Y2862I-200J0D01*
G02Y4815I840J976D01*
G03X-13566Y4967I-131J151D01*
G01Y5270D01*
G03X-13635Y5421I-200J0D01*
G02Y7374I840J976D01*
G03X-13566Y7526I-131J151D01*
G37*
G36*
G01X8875D02*
Y7829D01*
G03X8806Y7980I-200J0D01*
G02X8357Y8957I840J976D01*
G02X9646Y10245I1288J0D01*
G01X12795D01*
G02X14083Y8957I0J-1288D01*
G02X13635Y7980I-1288J0D01*
G03X13566Y7829I131J-151D01*
G01Y7526D01*
G03X13635Y7374I200J0D01*
G02Y5421I-840J-976D01*
G03X13566Y5270I131J-151D01*
G01Y4967D01*
G03X13635Y4815I200J0D01*
G02X14083Y3839I-840J-976D01*
G02X12795Y2550I-1288J0D01*
G01X9646D01*
G02X8357Y3839I0J1288D01*
G02X8806Y4815I1288J0D01*
G03X8875Y4967I-131J151D01*
G01Y5270D01*
G03X8806Y5421I-200J0D01*
G02Y7374I840J976D01*
G03X8875Y7526I-131J151D01*
G37*
G36*
G01X1091Y9006D02*
G03X433Y9165I-379J-129D01*
G02X-1085Y8549I-1519J1567D01*
G02Y12913I0J2182D01*
G02X980Y11434I0J-2182D01*
G03X1637Y11276I379J129D01*
G02X3156Y11891I1519J-1567D01*
G02Y7528I0J-2182D01*
G02X1091Y9006I0J2182D01*
G37*
G36*
G01X19863Y-47312D02*
G02X18684Y-45374I1003J1938D01*
G02X23048I2182J0D01*
G02X21869Y-47312I-2182J0D01*
G03X21761Y-47489I92J-178D01*
G01Y-50775D01*
X21779Y-50833D01*
X21796Y-50858D01*
G02X21957Y-51370I-733J-512D01*
G01Y-51646D01*
X22053Y-51757D01*
X22126Y-51769D01*
G02X22548Y-52264I-79J-494D01*
G01Y-58957D01*
G02X22047Y-59457I-501J0D01*
G01X20079D01*
G02X19578Y-58957I0J501D01*
G01Y-53142D01*
G03X19442Y-52952I-200J0D01*
G01X19022Y-52810D01*
X18899Y-52848D01*
X18860Y-52899D01*
G02X18670Y-53117I-1734J1325D01*
G03X18611Y-53258I141J-141D01*
G01Y-58957D01*
G02X18110Y-59457I-501J0D01*
G01X16142D01*
G02X15641Y-58957I0J501D01*
G01Y-53258D01*
G03X15582Y-53117I-200J0D01*
G02X14944Y-51575I1544J1542D01*
G02X19308I2182J0D01*
G02X19289Y-51862I-2182J0D01*
G03X19656Y-51995I198J-26D01*
G02X19819Y-51835I423J-269D01*
G01X19847Y-51819D01*
X19889Y-51770D01*
X20003Y-51490D01*
X20007Y-51426D01*
X20000Y-51394D01*
G02X19972Y-51173I866J222D01*
G01Y-47489D01*
G03X19863Y-47312I-200J0D01*
G37*
G54D31*
X54921Y-14173D03*
X16929Y9843D03*
X65256Y7382D03*
X62894Y19980D03*
X18996Y54921D03*
X-13484Y-27362D03*
G54D30*
X66925Y243D03*
%LPD*%
G75*
G54D10*
X-70768Y-9154D03*
Y-6004D03*
Y3445D03*
Y6594D03*
Y9744D03*
X-64469Y-24902D03*
X-61319D03*
X-67618Y-21752D03*
X-64469D03*
X-61319D03*
X-58169D03*
X-67618Y-18602D03*
X-64469D03*
X-61319D03*
X-58169D03*
X-67618Y-15453D03*
X-64469D03*
X-61319D03*
X-58169D03*
X-67618Y-12303D03*
X-64469D03*
X-61319D03*
X-58169D03*
X-67618Y-9154D03*
X-64469D03*
X-61319D03*
X-58169D03*
X-67618Y-6004D03*
X-64469D03*
X-61319D03*
X-58169D03*
X-61319Y-2854D03*
X-58169D03*
X-61319Y295D03*
X-58169D03*
X-61319Y3445D03*
X-58169D03*
X-67618Y6594D03*
X-64469D03*
X-61319D03*
X-58169D03*
X-67618Y9744D03*
X-64469D03*
X-61319D03*
X-58169D03*
X-67618Y12894D03*
X-64469D03*
X-61319D03*
X-58169D03*
X-67618Y16043D03*
X-64469D03*
X-61319D03*
X-58169D03*
X-67618Y19193D03*
X-64469D03*
X-61319D03*
X-58169D03*
X-51575Y33465D03*
Y36614D03*
X-67618Y22343D03*
X-64469D03*
X-61319D03*
X-58169D03*
X-64469Y25492D03*
X-61319D03*
X-58169D03*
X-64469Y28642D03*
X-61319D03*
X-58169D03*
X-38484Y-34646D03*
X-34744Y-19094D03*
Y-15945D03*
X-50394Y-12205D03*
X-47244D03*
X-44094D03*
X-40945D03*
X-50394Y-9055D03*
X-47244D03*
X-44094D03*
X-40945D03*
X-50394Y-5906D03*
X-47244D03*
X-44094D03*
X-40945D03*
X-50394Y-2756D03*
X-47244D03*
X-44094D03*
X-40945D03*
X-50394Y394D03*
X-47244D03*
X-44094D03*
X-40945D03*
X-34744Y-12795D03*
Y-9646D03*
Y-6496D03*
Y-3346D03*
Y-197D03*
Y2953D03*
X-50394Y3543D03*
X-47244D03*
X-44094D03*
X-40945D03*
X-50394Y6693D03*
X-47244D03*
X-44094D03*
X-40945D03*
X-50394Y9843D03*
X-47244D03*
X-44094D03*
X-40945D03*
X-50394Y12992D03*
X-47244D03*
X-44094D03*
X-40945D03*
X-50394Y16142D03*
X-47244D03*
X-44094D03*
X-36417Y20472D03*
X-34449D03*
X-34744Y6102D03*
Y9252D03*
Y12402D03*
X-48425Y33465D03*
X-45276D03*
X-48425Y36614D03*
X-45276D03*
X-36417Y22441D03*
X-34449D03*
X-36417Y24409D03*
X-34449D03*
X-36417Y26378D03*
X-34449D03*
X-22835Y-62008D03*
X-27170Y-61526D03*
X-18307Y-61811D03*
X-28445Y-28445D03*
X-31594Y-19094D03*
Y-15945D03*
Y-12795D03*
X-17022Y8231D03*
X-15429Y10609D03*
X-32480Y20472D03*
X-30512D03*
X-28543D03*
X-16043Y20079D03*
X-23228Y19579D03*
X-21358Y38189D03*
X-24311Y38091D03*
X-18701D03*
X-29626Y35236D03*
X-32480Y22441D03*
X-30512D03*
X-28543D03*
X-26575D03*
X-32480Y24409D03*
X-30512D03*
X-28543D03*
X-26575D03*
X-32480Y26378D03*
X-30512D03*
X-28543D03*
X-26575D03*
X-32480Y28346D03*
X-30512D03*
X-28543D03*
X-26575D03*
X-16043Y22047D03*
Y24016D03*
Y25984D03*
X-21457Y41929D03*
X-24213D03*
X-18799Y41831D03*
X-23327Y53248D03*
X-20177D03*
X-17028D03*
X-23327Y56398D03*
X-20177D03*
X-17028D03*
X-10039Y-71161D03*
X-6890D03*
X-3740D03*
X-591D03*
X2559D03*
X-13189Y-68012D03*
X-10039D03*
X-6890D03*
X-3740D03*
X-591D03*
X2559D03*
X-13189Y-64862D03*
X-10039D03*
X-6890D03*
X-3740D03*
X-591D03*
X2559D03*
X-13189Y-61713D03*
X-10039D03*
X-6890D03*
X-3740D03*
X-591D03*
X2559D03*
X-3674Y-16189D03*
X-11Y-19120D03*
X-4461Y-24144D03*
X-140Y-23542D03*
X-13484Y-27362D03*
X1476Y-14075D03*
X-1673Y-10925D03*
X1476D03*
X-1673Y-7776D03*
X1476D03*
X-2756Y-4528D03*
X99Y-4737D03*
X3051Y-1181D03*
X-13197Y12402D03*
X-10335D03*
X-7177Y9154D03*
X-7283Y12500D03*
X-14075Y20079D03*
X-12106D03*
X-10138D03*
X-8169D03*
X3156Y9709D03*
X-1085Y10731D03*
X-1870Y20079D03*
X-2953Y38386D03*
X-197Y38484D03*
X2657Y38386D03*
X-7776Y35138D03*
X-14075Y22047D03*
X-12106D03*
X-10138D03*
X-8169D03*
X-6201D03*
X-14075Y24016D03*
X-12106D03*
X-10138D03*
X-8169D03*
X-6201D03*
X-14075Y25984D03*
X-12106D03*
X-10138D03*
X-8169D03*
X-6201D03*
X-10138Y27953D03*
X-8169D03*
X-6201D03*
X-2953Y41240D03*
X-197Y41339D03*
X2657D03*
X-4528Y53543D03*
X-1378D03*
X1772D03*
X5709Y-71161D03*
X8858D03*
X12008D03*
X15157D03*
X18012D03*
X21161D03*
X13386Y-55906D03*
X13488Y-58766D03*
X6791Y-58866D03*
X10138Y-58768D03*
Y-55906D03*
X5709Y-68012D03*
X8858D03*
X12008D03*
X15157D03*
X5709Y-64862D03*
X8858D03*
X12008D03*
X15157D03*
X5709Y-61713D03*
X8858D03*
X12008D03*
X15157D03*
X18012Y-68012D03*
X21161D03*
X18012Y-64862D03*
X21161D03*
X18012Y-61713D03*
X21161D03*
X17126Y-51575D03*
X20866Y-45374D03*
X3543Y-45276D03*
X6693D03*
X9843D03*
X3543Y-42126D03*
X6693D03*
X9843D03*
Y-38976D03*
X20177Y-25787D03*
X8526Y-21444D03*
X17240Y-22555D03*
X3839Y-21752D03*
X12806Y-22292D03*
X4626Y-10925D03*
Y-7776D03*
X16339Y-1181D03*
X16437Y1870D03*
X16929Y9843D03*
X11417Y35236D03*
X6594Y21654D03*
X8563D03*
X10531D03*
X12500D03*
X14469D03*
X6594Y23622D03*
X8563D03*
X10531D03*
X12500D03*
X14469D03*
X6594Y25591D03*
X8563D03*
X10531D03*
X12500D03*
X14469D03*
X6594Y27559D03*
X8563D03*
X10531D03*
X12500D03*
X14469D03*
X18602Y38780D03*
X18996Y54921D03*
X18602Y41634D03*
X35138Y-32087D03*
X30998Y-30709D03*
X21654Y-8268D03*
X38550Y13583D03*
X33957Y32480D03*
X23327Y34646D03*
X24705Y51083D03*
X38091Y41732D03*
X21457Y38878D03*
X21555Y41634D03*
X24409Y38976D03*
Y41634D03*
X41831Y-37500D03*
X53346Y-20571D03*
X56496D03*
X54921Y-14173D03*
X46260Y13583D03*
X40551Y7677D03*
X55807Y7579D03*
X53937Y13615D03*
X49356Y20321D03*
X56173Y19715D03*
X44783Y20563D03*
Y33268D03*
X41339Y23524D03*
X52689Y30709D03*
X48327D03*
X59646Y-23720D03*
X62795D03*
X65945D03*
X59646Y-20571D03*
X62795D03*
X65945D03*
X59646Y-17421D03*
X69094D03*
Y-14272D03*
X70472Y-9449D03*
X67323Y-6299D03*
X70472D03*
X66339Y15650D03*
X66437Y12205D03*
X69783Y11909D03*
Y8268D03*
X69980Y5020D03*
X69094Y17520D03*
X59231Y16603D03*
X65256Y7382D03*
X62894Y19980D03*
G54D20*
X-22556Y-8957D03*
X-22522Y3839D03*
G54D11*
X-57457Y-18986D03*
X-49977Y-19006D03*
X-57504Y-1073D03*
X-50023Y-1093D03*
X-57480Y-10030D03*
X-50000Y-10049D03*
X-57551Y16841D03*
X-50070Y16821D03*
X-57527Y7884D03*
X-50047Y7864D03*
X-57574Y25797D03*
X-50094Y25778D03*
X-34252Y22037D03*
X-41732Y22057D03*
X8661Y-32274D03*
X16142Y-32293D03*
G54D21*
X-16339Y15059D03*
Y22539D03*
X-18209Y47638D03*
Y40157D03*
X-7776Y15059D03*
Y22539D03*
X3150Y47638D03*
Y40157D03*
X24705Y47638D03*
Y40157D03*
G54D12*
X-40059Y-26280D03*
X-19587D03*
G54D13*
X-34252Y-13976D03*
X-41732D03*
X-34252Y-4823D03*
X-41732D03*
X-34252Y4331D03*
X-41732D03*
X-34252Y13484D03*
X-41732D03*
G54D22*
X-6791Y-42308D03*
X4232Y-42337D03*
G54D14*
X-29035Y-68996D03*
X12795D03*
X7185D03*
X29331D03*
G54D23*
X-11220Y1280D03*
Y-1280D03*
Y-3839D03*
Y-6398D03*
Y-8957D03*
Y8957D03*
Y6398D03*
Y3839D03*
X11220Y-8957D03*
Y-6398D03*
Y-3839D03*
Y-1280D03*
Y1280D03*
Y3839D03*
Y6398D03*
Y8957D03*
G54D24*
X3829Y15059D03*
X3848Y22539D03*
X12392Y15059D03*
X12411Y22539D03*
G54D15*
X-24705Y-55610D03*
X-20768D03*
X-16831D03*
X-12894D03*
X-8957D03*
X-5020D03*
X-1083D03*
X17126D03*
X2854D03*
X21063D03*
X25000D03*
G54D25*
X21654Y-8268D03*
Y5807D03*
X35138Y-32087D03*
X28346Y-8268D03*
Y5807D03*
X41831Y-32087D03*
G54D16*
X-18110Y-36215D03*
X-18209Y-41235D03*
X-14173Y-36226D03*
X-14272Y-41245D03*
X35236Y-21954D03*
X31299Y-21944D03*
G54D17*
X-28452Y-44726D03*
G54D26*
X20079Y689D03*
Y-3051D03*
X31299Y-26969D03*
X35236D03*
X24016Y689D03*
Y-3051D03*
G54D27*
X34646Y-52854D03*
Y-38091D03*
Y-43012D03*
Y-47933D03*
G54D18*
X-32300Y-48218D03*
X-29741Y-48225D03*
X-27181Y-48231D03*
X-24622Y-48238D03*
X-24590Y-36034D03*
X-27149Y-36027D03*
X-29708Y-36020D03*
X-32267Y-36014D03*
G54D28*
G01X-24705Y-55610D02*
X-27170Y-58076D01*
Y-61526D01*
G01X-18307Y-61811D02*
X-19094Y-61024D01*
Y-57283D01*
X-20768Y-55610D01*
G01X-28452Y-44726D02*
X-22538Y-44741D01*
X-19547D01*
X-18214Y-43408D01*
G01D02*
X-18209Y-41235D01*
G01X-24590Y-36034D02*
X-20361D01*
X-20185Y-36210D01*
X-18110Y-36215D01*
G01D02*
X-18111Y-36314D01*
X-15756Y-38681D01*
X-14567D01*
X-14272Y-38976D01*
Y-41245D01*
G01X-15945Y-8957D02*
X-22556D01*
G01X46260Y13583D02*
X43209Y10531D01*
X34596D01*
X13631Y31496D01*
X-7185D01*
X-10925Y35236D01*
X-29626D01*
G01X-15945Y-8957D02*
X-11220D01*
G01X53937Y13615D02*
X50631Y16921D01*
X30027D01*
X14056Y32892D01*
X-5530D01*
X-7776Y35138D01*
G01X12795Y-68996D02*
X29331D01*
G01X17126Y-51575D02*
Y-55610D01*
G01X20177Y-25787D02*
Y-21891D01*
X16938Y-18652D01*
Y-7981D01*
X12795Y-3839D01*
X11220D01*
G01X8526Y-21444D02*
X9994Y-19976D01*
Y-19970D01*
X11220Y-18744D01*
Y-8957D01*
G01Y-1280D02*
X9646D01*
X7972Y-2953D01*
Y-3134D01*
X7965Y-3142D01*
Y-13591D01*
X6299Y-15256D01*
Y-22736D01*
X8662Y-25098D01*
X14697D01*
X17240Y-22555D01*
G01X12806Y-22292D02*
Y-14458D01*
X14665Y-12598D01*
Y-8268D01*
X12795Y-6398D01*
X11220D01*
G01X33957Y32480D02*
X18110D01*
X10433Y40157D01*
X3150D01*
G01X23327Y34646D02*
X17913D01*
X8948Y43610D01*
X3724D01*
X3150Y44185D01*
Y47638D01*
G01X59231Y16603D02*
X53377D01*
X51772Y18209D01*
X30561D01*
X13533Y35236D01*
X11417D01*
G01X20866Y-45374D02*
Y-51173D01*
X21063Y-51370D01*
Y-55610D01*
G01X34646Y-52854D02*
X37935Y-49565D01*
Y-34687D01*
X35335Y-32087D01*
X35138D01*
G01D02*
Y-27067D01*
X35236Y-26969D01*
G01X30998Y-30709D02*
X31299Y-30409D01*
Y-26969D01*
G01Y-21944D02*
Y-26969D01*
G01X44783Y33268D02*
X39567D01*
X29224Y43610D01*
X25280D01*
X24705Y44185D01*
G01X48327Y30709D02*
X40157D01*
X30709Y40157D01*
X24705D01*
G01Y47638D02*
Y44185D01*
G01X49356Y20321D02*
X53492D01*
X54098Y19715D01*
X56173D01*
G01X52689Y30709D02*
X46349Y24369D01*
Y22235D01*
X46251Y22137D01*
Y22030D01*
X44783Y20563D01*
G54D19*
X-15945Y-5020D03*
Y-8957D03*
G54D29*
G01X3051Y-1181D02*
X-5520D01*
X-6791Y-2453D01*
Y-7980D01*
X-7768Y-8957D01*
X-11220D01*
G01X20079Y689D02*
X18898Y1870D01*
X16437D01*
G01X21654Y-8268D02*
X20079Y-6693D01*
Y-3051D01*
G01D02*
X18209D01*
X16339Y-1181D01*
G01X21654Y5807D02*
X20079Y4232D01*
Y689D01*
G01D02*
Y-3051D01*
M02*
