G04 ================== begin FILE IDENTIFICATION RECORD ==================*
G04 Layout Name:  D:/PROJECT/07_FOC/FOC/CIRCUIT/CANDENCE/STM32/stspin32g4_foc.brd*
G04 Film Name:    bottom*
G04 File Format:  Gerber RS274X*
G04 File Origin:  Cadence Allegro 17.4-S039*
G04 Origin Date:  Thu Nov 13 09:35:22 2025*
G04 *
G04 Layer:  VIA CLASS/BOTTOM*
G04 Layer:  PIN/BOTTOM*
G04 Layer:  ETCH/BOTTOM*
G04 *
G04 Offset:    (0.0000 0.0000)*
G04 Mirror:    No*
G04 Mode:      Positive*
G04 Rotation:  0*
G04 FullContactRelief:  No*
G04 UndefLineWidth:     0.1524*
G04 ================== end FILE IDENTIFICATION RECORD ====================*
%FSLAX25Y25*MOIN*%
%IR0*IPPOS*OFA0.00000B0.00000*MIA0B0*SFA1.00000B1.00000*%
%ADD17O,.047244X.015748*%
%ADD14R,.019685X.066929*%
%ADD10C,.023622*%
%ADD19R,.043307X.03937*%
%ADD11R,.082677X.090551*%
%ADD16R,.059055X.051181*%
%ADD13R,.047244X.098425*%
%ADD12R,.062992X.070866*%
%ADD20C,.04*%
%ADD15R,.025591X.023622*%
%ADD18R,.023622X.025591*%
%ADD21C,.007874*%
%ADD22C,.011811*%
%ADD23C,.043638*%
%ADD24C,.070898*%
G75*
%LPD*%
G75*
G36*
G01X6456Y59643D02*
X30437Y59731D01*
G02X30446Y59731I-4J-200D01*
G02X39122Y50291I-397J-9071D01*
G01Y50283D01*
G03X40680Y44702I10799J7D01*
G01X40709Y44655D01*
X40710Y44547D01*
X40513Y44196D01*
G02X40338Y44094I-174J99D01*
G01X37342D01*
G02X37173Y44187I0J200D01*
G03X33496I-1839J-1175D01*
G02X33328Y44094I-168J108D01*
G01X32421D01*
G02X32280Y44153I0J200D01*
G03X32139Y44212I-142J-141D01*
G01X25745D01*
G02X25604Y44270I0J200D01*
G01X25462Y44412D01*
G02X25403Y44554I141J142D01*
G01Y45061D01*
X25402Y45062D01*
X24063D01*
X24063Y44294D01*
G02X23863Y44094I-200J0D01*
G01X-21188D01*
X-21200Y44096D01*
G03X-21457Y44111I-255J-2167D01*
G03X-21713Y44096I-2J-2182D01*
G01X-21725Y44094D01*
X-23944D01*
X-23956Y44096D01*
G03X-24213Y44111I-255J-2167D01*
G03X-24469Y44096I-2J-2182D01*
G01X-24481Y44094D01*
X-26689D01*
G03X-26830Y44036I0J-200D01*
G01X-31339Y39527D01*
G03X-31398Y39386I141J-142D01*
G01Y36572D01*
G02X-31432Y36460I-200J0D01*
G03X-31808Y35236I1806J-1224D01*
G03X-31579Y34263I2182J0D01*
G02X-31617Y34033I-179J-89D01*
G01X-32225Y33425D01*
G02X-32366Y33366I-142J141D01*
G01X-35744D01*
G03X-35885Y33307I0J-200D01*
G01X-36933Y32260D01*
G02X-37074Y32202I-142J141D01*
G01X-37127D01*
X-38348Y30981D01*
G02X-38489Y30922I-142J141D01*
G01X-39187D01*
G03X-39387Y30722I0J-200D01*
G01Y29889D01*
G02X-39445Y29748I-200J0D01*
G01X-39607Y29586D01*
G03X-39665Y29445I141J-142D01*
G01Y378D01*
G03X-39607Y237I200J0D01*
G01X-34507Y-4863D01*
G02X-34449Y-5004I-141J-142D01*
G01Y-10547D01*
G03X-34390Y-10689I200J0D01*
G01X-34229Y-10850D01*
G02X-34170Y-10991I-141J-142D01*
G01Y-11356D01*
G03X-34111Y-11497I200J0D01*
G01X-32166Y-13442D01*
G03X-32025Y-13501I142J141D01*
G01X-30714D01*
G02X-30572Y-13559I0J-200D01*
G01X-28028Y-16104D01*
G02X-27969Y-16245I-141J-142D01*
G01Y-33895D01*
G03X-27911Y-34036I200J0D01*
G01X-20154Y-41793D01*
G02X-20095Y-41934I-141J-142D01*
G01Y-46395D01*
G03X-20037Y-46536I200J0D01*
G01X-17894Y-48678D01*
G03X-17753Y-48737I142J141D01*
G01X-8863D01*
G02X-8722Y-48796I0J-200D01*
G01X-7359Y-50159D01*
G02X-7300Y-50300I-141J-142D01*
G01Y-64285D01*
G03X-7100Y-64485I200J0D01*
G01X-6695D01*
G02X-6555Y-64543I0J-200D01*
G03X-5020Y-65174I1535J1551D01*
G03X-3777Y-64785I0J2182D01*
G02X-3537Y-64794I114J-164D01*
G03X-2159Y-65284I1377J1692D01*
G03X-841Y-64841I0J2182D01*
G02X-601Y-64840I121J-159D01*
G03X703Y-65272I1304J1749D01*
G03X2157Y-64716I0J2181D01*
G02X2291Y-64665I133J-149D01*
G01X2870D01*
G03X3011Y-64607I0J200D01*
G01X3074Y-64544D01*
G02X3216Y-64485I142J-141D01*
G01X4639D01*
G03X4839Y-64285I0J200D01*
G01Y-62861D01*
G02X4898Y-62720I200J0D01*
G01X5355Y-62263D01*
G03X5413Y-62122I-141J142D01*
G01Y-50673D01*
G02X5472Y-50532I200J0D01*
G01X6733Y-49271D01*
G02X6874Y-49213I142J-141D01*
G01X13205D01*
G02X13346Y-49271I0J-200D01*
G01X14607Y-50532D01*
G02X14665Y-50673I-141J-142D01*
G01Y-58480D01*
G03X14724Y-58622I200J0D01*
G01X15493Y-59390D01*
G03X15634Y-59449I142J141D01*
G01X16048D01*
X16063Y-59451D01*
G03X16142Y-59457I79J494D01*
G01X18110D01*
G03X18189Y-59451I-1J501D01*
G01X18204Y-59449D01*
X19799D01*
G02X19941Y-59507I0J-200D01*
G01X22284Y-61851D01*
G02X22343Y-61992I-141J-142D01*
G01Y-73815D01*
G02X22143Y-74015I-200J0D01*
G01X-31715D01*
G02X-31915Y-73815I0J200D01*
G01Y-65536D01*
G02X-41199Y-60099I34801J70064D01*
G01X-41200D01*
G02X-41607Y-57182I1130J1645D01*
G03X-44040Y-41242I-8320J6886D01*
G02X-47538Y-33403I4303J6620D01*
G03X-50417Y-26046I-7756J1207D01*
G02X-50492Y-25890I124J157D01*
G01Y17240D01*
G03X-50551Y17381I-200J0D01*
G01X-54591Y21422D01*
X-54620Y21482D01*
X-54624Y21516D01*
G03X-54715Y21930I-2167J-256D01*
G01X-54724Y21959D01*
Y23710D01*
X-54715Y23740D01*
G03X-54609Y24409I-2077J669D01*
G03X-54715Y25079I-2182J1D01*
G01X-54724Y25109D01*
Y26859D01*
X-54715Y26889D01*
G03X-54609Y27559I-2077J669D01*
G03X-54715Y28229I-2182J1D01*
G01X-54724Y28259D01*
Y39471D01*
G02X-54637Y39636I200J0D01*
G01X-54324Y39851D01*
X-54227Y39862D01*
X-54181Y39844D01*
G03X-39499Y49976I3884J10076D01*
G01X-39508Y50425D01*
Y50429D01*
G02X-30894Y59505I9075J13D01*
G02X-30884Y59505I13J-199D01*
G01X-6904Y59593D01*
X-6893D01*
G02X-6733Y59544I3J-271D01*
G02X-6685Y59494I-115J-163D01*
G03X6232Y59539I6443J4478D01*
G02X6279Y59587I165J-113D01*
G02X6449Y59643I170J-230D01*
G01X6450D01*
X6456D01*
G37*
G36*
G01X-36630Y31201D02*
X-8238D01*
G02X-8096Y31142I0J-200D01*
G01X-7818Y30863D01*
G03X-7185Y30602I632J633D01*
G01X13178D01*
G02X13320Y30543I0J-200D01*
G01X18347Y25516D01*
G02X18406Y25374I-141J-142D01*
G01Y19965D01*
G02X18347Y19823I-200J0D01*
G01X17086Y18563D01*
G02X16945Y18504I-142J141D01*
G01X429D01*
G02X258Y18600I0J200D01*
G01X53Y18935D01*
X49Y19039D01*
X73Y19086D01*
G03X312Y20079I-1943J993D01*
G03X-4052I-2182J0D01*
G03X-3813Y19086I2182J0D01*
G01X-3789Y19039D01*
X-3793Y18935D01*
X-3998Y18600D01*
G02X-4169Y18504I-171J104D01*
G01X-20527D01*
G02X-20669Y18563I0J200D01*
G01X-21078Y18971D01*
X-21106Y19069D01*
X-21096Y19119D01*
G03X-21046Y19579I-2133J461D01*
G03X-25410I-2182J0D01*
G03X-25334Y19009I2182J1D01*
G01X-25322Y18963D01*
X-25340Y18872D01*
X-25562Y18582D01*
G02X-25720Y18504I-159J122D01*
G01X-25803D01*
G03X-25944Y18445I0J-200D01*
G01X-27205Y17185D01*
G03X-27264Y17043I141J-142D01*
G01Y4118D01*
G03X-27205Y3977I200J0D01*
G01X-23484Y256D01*
G02X-23425Y114I-141J-142D01*
G01Y-7791D01*
G03X-23367Y-7933I200J0D01*
G01X-17086Y-14213D01*
G02X-17028Y-14354I-141J-142D01*
G01Y-27575D01*
G03X-16969Y-27716I200J0D01*
G01X-16177Y-28508D01*
G02X-16126Y-28704I-141J-141D01*
G01X-16234Y-29092D01*
X-16312Y-29167D01*
X-16365Y-29180D01*
G03X-18028Y-31299I518J-2119D01*
G03X-15846Y-33481I2182J0D01*
G03X-13727Y-31817I0J2182D01*
G01X-13714Y-31765D01*
X-13639Y-31687D01*
X-13251Y-31578D01*
G02X-13056Y-31630I54J-193D01*
G01X-5177Y-39508D01*
G03X-5035Y-39567I142J141D01*
G01X3639D01*
G02X3839Y-39767I0J-200D01*
G01Y-63284D01*
G02X3639Y-63484I-200J0D01*
G01X-6099D01*
G02X-6299Y-63284I0J200D01*
G01Y-49886D01*
G03X-6358Y-49744I-200J0D01*
G01X-8307Y-47795D01*
G03X-8449Y-47736I-142J-141D01*
G01X-17339D01*
G02X-17480Y-47678I0J200D01*
G01X-19036Y-46122D01*
G02X-19094Y-45980I141J142D01*
G01Y-41520D01*
G03X-19153Y-41378I-200J0D01*
G01X-26910Y-33622D01*
G02X-26969Y-33480I141J142D01*
G01Y-15831D01*
G03X-27027Y-15689I-200J0D01*
G01X-29002Y-13715D01*
X-29013Y-13698D01*
G03X-29151Y-13560I-417J-278D01*
G01X-29168Y-13549D01*
X-30158Y-12559D01*
G03X-30299Y-12500I-142J-141D01*
G01X-31610D01*
G02X-31752Y-12441I0J200D01*
G01X-32179Y-12014D01*
X-32194Y-11971D01*
G03X-33077Y-10858I-2058J-726D01*
G02X-33169Y-10690I108J168D01*
G01Y-4512D01*
G03X-33228Y-4370I-200J0D01*
G01X-38327Y729D01*
G02X-38386Y870I141J142D01*
G01Y29445D01*
G02X-38327Y29586I200J0D01*
G01X-36771Y31142D01*
G02X-36630Y31201I142J-141D01*
G37*
G36*
G01X69678Y21280D02*
G02X69295Y-22496I-69678J-21280D01*
G02X60151Y-25451I-5641J1830D01*
G03X47771Y-33052I-4632J-6337D01*
G02X44334Y-40917I-7799J-1275D01*
G03X42019Y-56873I5955J-9010D01*
G02X41632Y-59794I-1529J-1283D01*
G02X35091Y-63853I-41872J60175D01*
G02X34995Y-63878I-96J175D01*
G01X25280D01*
G02X25138Y-63819I0J200D01*
G01X22893Y-61574D01*
G02X22835Y-61433I141J142D01*
G01Y-47622D01*
G03X22776Y-47481I-200J0D01*
G01X12460Y-37165D01*
G03X12319Y-37106I-142J-141D01*
G01X11584D01*
G02X11443Y-37048I0J200D01*
G01X10967Y-36572D01*
G03X10335Y-36310I-632J-633D01*
G01X1076D01*
G02X903Y-36211I0J200D01*
G01X702Y-35865D01*
X702Y-35759D01*
X729Y-35712D01*
G03X771Y-35634I-1896J1080D01*
G02X949Y-35526I178J-92D01*
G01X20891D01*
G02X21032Y-35584I0J-200D01*
G01X32309Y-46862D01*
X32334Y-46978D01*
X32313Y-47033D01*
G03X32145Y-47933I2333J-900D01*
G03X33321Y-50054I2501J0D01*
G02X33415Y-50224I-106J-170D01*
G01Y-50563D01*
G02X33321Y-50733I-200J0D01*
G03X32145Y-52854I1324J-2121D01*
G03X37146I2501J0D01*
G03X36979Y-51954I-2501J0D01*
G01X36957Y-51899D01*
X36982Y-51783D01*
X38568Y-50197D01*
G03X38830Y-49565I-633J632D01*
G01Y-34687D01*
G03X38568Y-34055I-895J0D01*
G01X37863Y-33350D01*
G02X37804Y-33208I141J142D01*
G01Y-30118D01*
G03X37303Y-29617I-501J0D01*
G01X32972D01*
G03X32472Y-30118I0J-501D01*
G01Y-30992D01*
G02X32272Y-31192I-200J0D01*
G01X30867D01*
G02X30725Y-31133I0J200D01*
G01X28487Y-28895D01*
G03X27855Y-28633I-632J-633D01*
G01X21272D01*
G02X21072Y-28433I0J200D01*
G01Y-28248D01*
G03X20571Y-27747I-501J0D01*
G01X18209D01*
G03X17708Y-28248I0J-501D01*
G01Y-30807D01*
G03X17758Y-31025I501J0D01*
G01X17780Y-31072D01*
X17775Y-31174D01*
X17567Y-31506D01*
G02X17398Y-31599I-169J106D01*
G01X17009D01*
G02X16809Y-31399I0J200D01*
G01Y-31348D01*
X16858Y-31257D01*
X16902Y-31230D01*
G03X17135Y-30807I-268J423D01*
G01Y-28248D01*
G03X17107Y-28085I-501J0D01*
G01X17095Y-28048D01*
X17098Y-27971D01*
X17246Y-27650D01*
X17302Y-27597D01*
X17338Y-27583D01*
G03X18717Y-25554I-803J2029D01*
G03X17972Y-23911I-2182J0D01*
G01X17940Y-23884D01*
X17905Y-23809D01*
X17893Y-23476D01*
G02X17952Y-23328I200J6D01*
G01X19137Y-22143D01*
G03X19398Y-21511I-633J632D01*
G01Y-10937D01*
G02X19598Y-10737I200J0D01*
G01X23819D01*
G03X24320Y-10236I0J501D01*
G01Y-6299D01*
G03X23819Y-5798I-501J0D01*
G01X21370D01*
G02X21170Y-5598I0J200D01*
G01Y-4949D01*
X21266Y-4837D01*
X21339Y-4825D01*
G03X21761Y-4331I-79J494D01*
G01Y-1772D01*
G03X21638Y-1443I-500J0D01*
G01X21614Y-1416D01*
X21589Y-1349D01*
Y-1013D01*
X21614Y-946D01*
X21638Y-919D01*
G03X21761Y-591I-377J328D01*
G01Y1969D01*
G03X21339Y2463I-501J0D01*
G01X21266Y2474D01*
X21170Y2587D01*
Y3138D01*
G02X21370Y3338I200J0D01*
G01X23819D01*
G03X24320Y3839I0J501D01*
G01Y7776D01*
G03X23819Y8276I-501J0D01*
G01X19488D01*
G03X18987Y7776I0J-501D01*
G01Y3161D01*
G02X18787Y2961I-200J0D01*
G01X18439D01*
G02X18270Y3053I0J200D01*
G03X16437Y4052I-1833J-1183D01*
G03X14255Y1870I0J-2182D01*
G03X14718Y527I2182J0D01*
G02X14709Y270I-158J-123D01*
G03X14359Y-262I1629J-1452D01*
G01X14339Y-307D01*
X14261Y-367D01*
X13889Y-431D01*
G02X13712Y-375I-34J197D01*
G03X12795Y9I-917J-905D01*
G01X9646D01*
G03X8359Y-1227I0J-1288D01*
G01X8357Y-1265D01*
X8327Y-1333D01*
X7340Y-2320D01*
G03X7078Y-2952I633J-632D01*
G01Y-3023D01*
X7076Y-3035D01*
G03X7070Y-3142I888J-106D01*
G01Y-9654D01*
G03X7332Y-10286I895J0D01*
G01X8177Y-11131D01*
G02X8236Y-11272I-141J-142D01*
G01Y-11972D01*
G02X8177Y-12113I-200J0D01*
G01X548Y-19741D01*
G03X287Y-20373I633J-632D01*
G01Y-22926D01*
G02X220Y-23074I-200J0D01*
G01X-2Y-23273D01*
G02X-157Y-23323I-134J149D01*
G03X-394Y-23310I-238J-2169D01*
G03Y-27674I0J-2182D01*
G03X1544Y-26495I0J2182D01*
G02X1722Y-26387I178J-92D01*
G01X6633D01*
G02X6775Y-26445I0J-200D01*
G01X9283Y-28954D01*
G02X9342Y-29095I-141J-142D01*
G01Y-30807D01*
G03X9392Y-31025I501J0D01*
G01X9414Y-31072D01*
X9409Y-31174D01*
X9201Y-31506D01*
G02X9031Y-31599I-169J106D01*
G01X4970D01*
G02X4792Y-31491I0J200D01*
G03X2854Y-30312I-1938J-1003D01*
G03X672Y-32489I0J-2182D01*
G01Y-32544D01*
X615Y-32639D01*
X255Y-32830D01*
G02X50Y-32820I-94J176D01*
G03X-1167Y-32449I-1216J-1811D01*
G03X-3348Y-34587I0J-2182D01*
G02X-3473Y-34769I-200J4D01*
G01X-3815Y-34906D01*
G02X-4031Y-34862I-74J186D01*
G01X-4162Y-34730D01*
G02X-4221Y-34589I141J142D01*
G01Y-25065D01*
G02X-4162Y-24923I200J0D01*
G01X-3329Y-24090D01*
G02X-3324Y-24086I137J-145D01*
G03X-3042Y-23433I-613J653D01*
G01Y-23348D01*
G03X-1755Y-21358I-895J1990D01*
G03X-3937Y-19176I-2182J0D01*
G03X-4927Y-19414I0J-2182D01*
G02X-5122Y-19406I-91J178D01*
G01X-5413Y-19228D01*
G02X-5508Y-19057I105J170D01*
G01Y-18569D01*
G02X-5450Y-18427I200J0D01*
G01X-4662Y-17640D01*
X-4554Y-17613D01*
X-4500Y-17630D01*
G03X-3839Y-17733I662J2079D01*
G03X-6020Y-15551I0J2182D01*
G03X-5918Y-16213I2182J0D01*
G01X-5901Y-16266D01*
X-5927Y-16374D01*
X-7035Y-17483D01*
G03X-7297Y-18115I633J-632D01*
G01Y-33165D01*
G02X-7420Y-33350I-200J0D01*
G01X-7476Y-33373D01*
X-7595Y-33350D01*
X-10178Y-30767D01*
G02X-10236Y-30626I141J142D01*
G01Y-19472D01*
G03X-10295Y-19331I-200J0D01*
G01X-21595Y-8031D01*
G02X-21654Y-7890I141J142D01*
G01Y-3724D01*
G02X-21595Y-3583I200J0D01*
G01X-14607Y3405D01*
G02X-14431Y3461I141J-141D01*
G01X-14060Y3396D01*
X-13983Y3337D01*
X-13962Y3292D01*
G03X-13636Y2862I1167J546D01*
G02X-13566Y2711I-130J-152D01*
G01Y2407D01*
G02X-13636Y2256I-200J0D01*
G03X-14083Y1280I841J-976D01*
G03X-12795Y-9I1288J0D01*
G01X-9646D01*
G03X-8773Y332I0J1288D01*
G02X-8637Y385I135J-147D01*
G01X-5552D01*
G02X-5381Y290I0J-200D01*
G01X-5203Y0D01*
G02X-5194Y-195I-170J-105D01*
G01Y-196D01*
G03X-5430Y-1181I1946J-986D01*
G03X-4431Y-3015I2182J0D01*
G02X-4339Y-3183I-108J-168D01*
G01Y-7143D01*
G02X-4398Y-7284I-200J0D01*
G01X-4921Y-7807D01*
G02X-5062Y-7865I-142J141D01*
G01X-8338D01*
G02X-8519Y-7751I0J200D01*
G01X-8674Y-7424D01*
G02X-8648Y-7212I181J86D01*
G03X-8357Y-6398I-998J815D01*
G03X-8805Y-5421I-1289J0D01*
G02X-8875Y-5270I130J152D01*
G01Y-4967D01*
G02X-8805Y-4815I200J0D01*
G03X-8357Y-3839I-841J976D01*
G03X-9646Y-2550I-1288J0D01*
G01X-12795D01*
G03X-14083Y-3839I0J-1288D01*
G03X-13636Y-4815I1289J0D01*
G02X-13566Y-4967I-130J-152D01*
G01Y-5270D01*
G02X-13636Y-5421I-200J0D01*
G03Y-7374I841J-976D01*
G02X-13566Y-7526I-130J-152D01*
G01Y-7829D01*
G02X-13635Y-7980I-200J0D01*
G03X-13668Y-8009I840J-976D01*
G02X-13669Y-8010I-142J141D01*
G01X-13696Y-8035D01*
X-13766Y-8062D01*
X-13965D01*
G02X-14165Y-7862I0J200D01*
G01Y-7776D01*
G03X-14665Y-7275I-501J0D01*
G01X-17224D01*
G03X-17725Y-7776I0J-501D01*
G01Y-10138D01*
G03X-17224Y-10639I501J0D01*
G01X-14665D01*
G03X-14165Y-10138I0J501D01*
G01Y-10051D01*
G02X-13965Y-9851I200J0D01*
G01X-13804D01*
G02X-13668Y-9904I0J-200D01*
G03X-12795Y-10245I873J947D01*
G01X-9646D01*
G03X-9006Y-10074I-1J1288D01*
G01X-9005D01*
G02X-8906Y-10048I99J-174D01*
G01X-4528D01*
G03X-3756Y-9728I0J1091D01*
G01X-2476Y-8449D01*
G03X-2157Y-7677I-771J772D01*
G01Y-3183D01*
G02X-2065Y-3015I200J0D01*
G03X-1066Y-1181I-1183J1833D01*
G03X-1302Y-196I-2182J0D01*
G01Y-195D01*
G02X-1293Y0I178J90D01*
G01X-1115Y290D01*
G02X-944Y385I170J-105D01*
G01X-738D01*
G02X-560Y277I0J-200D01*
G03X1378Y-902I1938J1003D01*
G03Y3461I0J2182D01*
G03X-560Y2282I0J-2182D01*
G02X-738Y2174I-178J92D01*
G01X-8637D01*
G02X-8773Y2227I0J200D01*
G03X-8805Y2256I-879J-942D01*
G02X-8875Y2407I130J152D01*
G01Y2711D01*
G02X-8805Y2862I200J0D01*
G03X-8357Y3836I-841J976D01*
G02X-8157Y4035I200J0D01*
G01X3461D01*
G03X3602Y4094I0J200D01*
G01X7902Y8394D01*
G02X8069Y8451I142J-141D01*
G01X8430Y8404D01*
X8507Y8352D01*
X8531Y8311D01*
G03X8805Y7980I1115J645D01*
G02X8875Y7829I-130J-152D01*
G01Y7526D01*
G02X8805Y7374I-200J0D01*
G03Y5421I841J-976D01*
G02X8875Y5270I-130J-152D01*
G01Y4967D01*
G02X8805Y4815I-200J0D01*
G03X8357Y3839I841J-976D01*
G03X9646Y2550I1288J0D01*
G01X12795D01*
G03X14083Y3839I0J1288D01*
G03X13636Y4815I-1289J0D01*
G02X13566Y4967I130J152D01*
G01Y5270D01*
G02X13636Y5421I200J0D01*
G03Y7374I-841J976D01*
G02X13566Y7526I130J152D01*
G01Y7829D01*
G02X13636Y7980I200J0D01*
G03X14083Y8957I-841J976D01*
G03X12795Y10245I-1288J0D01*
G01X10235D01*
G02X10050Y10368I0J200D01*
G01X10027Y10424D01*
X10051Y10543D01*
X15296Y15788D01*
G02X15437Y15846I142J-141D01*
G01X21571D01*
G03X21712Y15905I0J200D01*
G01X24693Y18886D01*
G02X24976I141J-142D01*
G01X33963Y9899D01*
G03X34595Y9637I632J633D01*
G01X43209D01*
G03X43841Y9899I0J895D01*
G01X45437Y11494D01*
X45545Y11520D01*
X45598Y11504D01*
G03X46260Y11401I662J2079D01*
G03X48442Y13583I0J2182D01*
G03X47593Y15310I-2182J0D01*
G01X47542Y15350D01*
X47505Y15472D01*
X47648Y15891D01*
G02X47837Y16027I189J-65D01*
G01X50178D01*
G02X50319Y15968I0J-200D01*
G01X51848Y14439D01*
X51875Y14330D01*
X51858Y14277D01*
G03X51755Y13615I2079J-662D01*
G03X53937Y15797I2182J0D01*
G03X53276Y15694I0J-2182D01*
G01X53222Y15678D01*
X53114Y15704D01*
X51844Y16973D01*
G02X51801Y17191I141J141D01*
G01X51824Y17247D01*
X51925Y17314D01*
X58514D01*
G02X58692Y17206I0J-200D01*
G03X60630Y16027I1938J1003D01*
G03X62812Y18209I0J2182D01*
G03X62461Y19394I-2182J0D01*
G01X62433Y19437D01*
X62426Y19540D01*
X62611Y19941D01*
X62693Y20002D01*
X62744Y20008D01*
G03X64637Y22171I-289J2163D01*
G03X60273I-2182J0D01*
G03X60624Y20985I2182J0D01*
G01X60652Y20942D01*
X60659Y20840D01*
X60474Y20439D01*
X60392Y20378D01*
X60341Y20371D01*
G03X58692Y19211I289J-2163D01*
G02X58514Y19103I-178J92D01*
G01X57861D01*
G02X57689Y19202I0J200D01*
G01X57487Y19546D01*
X57487Y19653D01*
X57513Y19699D01*
G03X57792Y20768I-1902J1069D01*
G03X55610Y22950I-2182J0D01*
G03X53672Y21770I0J-2182D01*
G02X53494Y21662I-178J92D01*
G01X52271D01*
G03X51910Y21586I0J-895D01*
G02X51782Y21575I-81J183D01*
G01X51666Y21603D01*
G02X51553Y21678I47J194D01*
G03X49803Y22556I-1750J-1303D01*
G03X47621Y20374I0J-2182D01*
G03X47749Y19638I2182J0D01*
G02X47724Y19456I-188J-68D01*
G01X47536Y19188D01*
G02X47372Y19103I-163J115D01*
G01X47075D01*
G02X46900Y19206I0J200D01*
G01X46704Y19559D01*
X46706Y19668D01*
X46735Y19714D01*
G03X47064Y20866I-1853J1152D01*
G03X46961Y21528I-2182J0D01*
G01X46944Y21581D01*
X46970Y21689D01*
X52798Y27517D01*
G03X53060Y28149I-633J632D01*
G01Y28442D01*
G02X53260Y28642I200J0D01*
G01X66830D01*
G02X67014Y28520I0J-200D01*
G02X69678Y21281I-67002J-28771D01*
G01Y21280D01*
G37*
G36*
G01X-25581Y37022D02*
Y42527D01*
G02X-25381Y42727I200J0D01*
G01X-15939D01*
G02X-15739Y42527I0J-200D01*
G01Y37022D01*
G02X-15939Y36822I-200J0D01*
G01X-25381D01*
G02X-25581Y37022I0J200D01*
G37*
G36*
G01X-4396Y37000D02*
Y42506D01*
G02X-4196Y42706I200J0D01*
G01X5246D01*
G02X5446Y42506I0J-200D01*
G01Y37000D01*
G02X5246Y36800I-200J0D01*
G01X-4196D01*
G02X-4396Y37000I0J200D01*
G37*
G36*
G01X3770Y-39635D02*
X3780Y-39626D01*
G02X3921Y-39567I142J-141D01*
G01X8776D01*
G02X8917Y-39626I0J-200D01*
G01X9784Y-40493D01*
G02X9843Y-40634I-141J-142D01*
G01Y-46768D01*
G02X9784Y-46909I-200J0D01*
G01X8540Y-48153D01*
G02X8398Y-48212I-142J141D01*
G01X6377D01*
X6360Y-48228D01*
X3940D01*
G02X3740Y-48028I0J200D01*
G01Y-39708D01*
X3770Y-39635D01*
G37*
G36*
G01X17165Y42728D02*
X25131D01*
X25146Y42726D01*
G03X25280Y42716I132J885D01*
G01X26607D01*
G02X26807Y42516I0J-200D01*
G01Y37022D01*
G02X26607Y36822I-200J0D01*
G01X25642D01*
X25635Y36823D01*
G03X25492Y36828I-144J-2177D01*
G03X25349Y36823I1J-2182D01*
G01X25343Y36822D01*
X17044D01*
X16971Y36853D01*
X16965Y36859D01*
Y42528D01*
G02X17165Y42728I200J0D01*
G37*
G36*
G01X21272Y-30422D02*
X27401D01*
G02X27543Y-30481I0J-200D01*
G01X29781Y-32719D01*
G03X30413Y-32981I632J633D01*
G01X32272D01*
G02X32472Y-33181I0J-200D01*
G01Y-34055D01*
G03X32972Y-34556I501J0D01*
G01X36456D01*
G02X36598Y-34615I0J-200D01*
G01X36982Y-34999D01*
G02X37041Y-35141I-141J-142D01*
G01Y-40906D01*
G02X36920Y-41090I-200J0D01*
G01X36527Y-41259D01*
X36409Y-41238D01*
X36366Y-41196D01*
G03X34646Y-40511I-1720J-1816D01*
G03X32480Y-41762I0J-2501D01*
G01X32456Y-41802D01*
X32379Y-41854D01*
X32018Y-41902D01*
G02X31850Y-41845I-26J198D01*
G01X21867Y-31861D01*
G03X21234Y-31599I-632J-633D01*
G01X20946D01*
G02X20746Y-31399I0J200D01*
G01Y-31348D01*
X20795Y-31258D01*
X20839Y-31230D01*
G03X21072Y-30807I-268J423D01*
G01Y-30622D01*
G02X21272Y-30422I200J0D01*
G37*
%LPC*%
G75*
G36*
G01X-26190Y-55747D02*
Y-52264D01*
G02X-25689Y-51763I501J0D01*
G01X-23720D01*
G02X-23220Y-52264I0J-501D01*
G01Y-58957D01*
G02X-23720Y-59457I-501J0D01*
G01X-24182D01*
G03X-24348Y-59546I0J-200D01*
G01X-24561Y-59862D01*
X-24571Y-59961D01*
X-24552Y-60007D01*
G02X-24393Y-60827I-2023J-819D01*
G02X-28757I-2182J0D01*
G02X-27578Y-58889I2182J0D01*
G03X-27469Y-58711I-92J178D01*
G01Y-57480D01*
G02X-27207Y-56848I895J0D01*
G01X-26248Y-55889D01*
G03X-26190Y-55747I-141J142D01*
G37*
G36*
G01X-22253Y-58957D02*
Y-52264D01*
G02X-21752Y-51763I501J0D01*
G01X-19783D01*
G02X-19283Y-52264I0J-501D01*
G01Y-55747D01*
G03X-19224Y-55889I200J0D01*
G01X-18462Y-56651D01*
G02X-18200Y-57283I-633J-632D01*
G01Y-58711D01*
G03X-18092Y-58889I200J0D01*
G02X-16913Y-60827I-1003J-1938D01*
G02X-21276I-2182J0D01*
G02X-21117Y-60007I2182J1D01*
G01X-21098Y-59961D01*
X-21108Y-59862D01*
X-21322Y-59546D01*
G03X-21487Y-59457I-166J-112D01*
G01X-21752D01*
G02X-22253Y-58957I0J501D01*
G37*
G54D23*
X18996Y54921D03*
X16929Y9843D03*
X65256Y7382D03*
G54D24*
X66925Y243D03*
%LPD*%
G75*
G54D10*
X-59843Y-21555D03*
X-56693D03*
X-53543D03*
X-59843Y-18406D03*
X-56693D03*
X-53543D03*
X-59843Y-15256D03*
X-56693D03*
X-53543D03*
X-59843Y-12106D03*
X-56693D03*
X-53543D03*
X-59843Y-8957D03*
X-56693D03*
X-53543D03*
X-59843Y-5807D03*
X-56693D03*
X-53543D03*
X-59843Y-2657D03*
X-56693D03*
X-53543D03*
X-59843Y492D03*
X-56693D03*
X-53543D03*
X-59843Y3642D03*
X-56693D03*
X-53543D03*
X-59843Y6791D03*
X-56693D03*
X-53543D03*
X-59843Y9941D03*
X-56693D03*
X-53543D03*
X-59843Y13091D03*
X-56693D03*
X-53543D03*
X-59843Y16240D03*
X-56693D03*
X-53543D03*
X-59941Y18110D03*
X-56791D03*
X-59941Y21260D03*
X-56791D03*
X-59941Y24409D03*
X-56791D03*
X-59941Y27559D03*
X-56791D03*
X-46850Y-18996D03*
X-43701D03*
X-40551D03*
X-37402D03*
X-34252D03*
X-46850Y-15846D03*
X-43701D03*
X-40551D03*
X-37402D03*
X-34252D03*
X-46850Y-12697D03*
X-43701D03*
X-40551D03*
X-37402D03*
X-34252D03*
X-36024Y8661D03*
X-35827Y3839D03*
X-34055Y689D03*
X-36220Y13091D03*
X-47539Y18701D03*
X-44390D03*
X-50689Y21850D03*
X-47539D03*
X-44390D03*
X-50689Y25000D03*
X-47539D03*
X-44390D03*
X-50689Y28150D03*
X-47539D03*
X-36417Y20472D03*
X-34449D03*
X-36417Y22441D03*
X-34449D03*
X-36417Y24409D03*
X-34449D03*
X-36417Y26378D03*
X-34449D03*
X-51575Y33465D03*
X-48425D03*
X-45276D03*
X-51575Y36614D03*
X-48425D03*
X-45276D03*
X-26575Y-60827D03*
X-19094D03*
X-22835Y-50591D03*
X-15846Y-31299D03*
X-30118Y-38878D03*
X-31102Y-18996D03*
Y-15846D03*
X-17913Y8071D03*
X-15846Y10138D03*
X-32480Y20472D03*
X-30512D03*
X-28543D03*
X-32480Y22441D03*
X-30512D03*
X-28543D03*
X-26575D03*
X-32480Y24409D03*
X-30512D03*
X-28543D03*
X-26575D03*
X-32480Y26378D03*
X-30512D03*
X-28543D03*
X-26575D03*
X-32480Y28346D03*
X-30512D03*
X-28543D03*
X-26575D03*
X-16043Y20079D03*
Y22047D03*
Y24016D03*
Y25984D03*
X-23228Y19579D03*
X-21457Y41929D03*
X-21358Y38189D03*
X-24213Y41929D03*
X-24311Y38091D03*
X-18799Y41831D03*
X-18701Y38091D03*
X-29626Y35236D03*
X-23327Y53248D03*
X-20177D03*
X-17028D03*
X-23327Y56398D03*
X-20177D03*
X-17028D03*
X-5906Y-68110D03*
X-2559Y-68012D03*
X689D03*
X-5906Y-70972D03*
X-2559Y-70874D03*
X791Y-70872D03*
X-14469Y-61417D03*
X-8957Y-71071D03*
Y-68209D03*
X-12008Y-71169D03*
Y-68307D03*
X-11713Y-64567D03*
Y-61417D03*
X-14469Y-67232D03*
Y-64370D03*
X-5020Y-62992D03*
X-2159Y-63102D03*
X703Y-63090D03*
X900Y-60235D03*
X-2052Y-60242D03*
X-14075Y-58858D03*
Y-55709D03*
X-11319Y-58760D03*
Y-55610D03*
X1575Y-49409D03*
X-1673Y-49803D03*
X1969Y-46949D03*
Y-44291D03*
X-5020Y-52165D03*
X-1878Y-56890D03*
X-1575Y-52165D03*
X1083D03*
X-5020Y-56890D03*
X984D03*
X-5020Y-60130D03*
X-1167Y-34631D03*
X2854Y-32494D03*
X1969Y-41535D03*
X-13484Y-27362D03*
X-394Y-25492D03*
X-3207Y-11235D03*
X2461Y-4921D03*
X-324Y-18135D03*
X-689Y-8268D03*
X-141Y-11263D03*
X-591Y-4921D03*
X2362Y-8366D03*
X415Y-14582D03*
X2717Y-11424D03*
X3150Y-14075D03*
X-3839Y-15551D03*
X-3937Y-21358D03*
X-13875Y12213D03*
X-10827Y12205D03*
X-6693Y7382D03*
X-7579Y12106D03*
X-3248Y-1181D03*
X1378Y1280D03*
X-1085Y10731D03*
X-14075Y20079D03*
X-12106D03*
X-10138D03*
X-8169D03*
X-14075Y22047D03*
X-12106D03*
X-10138D03*
X-8169D03*
X-6201D03*
X-14075Y24016D03*
X-12106D03*
X-10138D03*
X-8169D03*
X-6201D03*
X-14075Y25984D03*
X-12106D03*
X-10138D03*
X-8169D03*
X-6201D03*
X-10138Y27953D03*
X-8169D03*
X-6201D03*
X-1870Y20079D03*
X-2953Y41240D03*
Y38386D03*
X-197Y38484D03*
Y41339D03*
X2657Y38386D03*
Y41339D03*
X-7776Y35138D03*
X-4528Y53543D03*
X-1378D03*
X1772D03*
X7776Y-67815D03*
X11024D03*
X7776Y-70677D03*
X11126Y-70676D03*
X4429Y-70776D03*
Y-67913D03*
X13976Y-67717D03*
X17323Y-67618D03*
X13976Y-70579D03*
X17323Y-70480D03*
X20673Y-70479D03*
X20571Y-67618D03*
X13583Y-64476D03*
X20280Y-64376D03*
X16929Y-64378D03*
X20177Y-61516D03*
X16929D03*
X13583Y-61614D03*
X6890Y-61713D03*
Y-64575D03*
X10240Y-64573D03*
X10138Y-61713D03*
X13386Y-55906D03*
X13488Y-58766D03*
X6791Y-58866D03*
X10138Y-58768D03*
Y-55906D03*
X5807Y-43898D03*
X16535Y-25554D03*
X6299Y-41339D03*
X6004Y-11417D03*
X5512Y-5118D03*
X5610Y-8465D03*
X3926Y-21555D03*
X14469Y-21444D03*
X21654Y-8268D03*
X8288Y-21555D03*
X16339Y-1181D03*
X16437Y1870D03*
X16929Y9843D03*
X3593Y10778D03*
X6594Y21654D03*
X8563D03*
X10531D03*
X12500D03*
X14469D03*
X6594Y23622D03*
X8563D03*
X10531D03*
X12500D03*
X14469D03*
X6594Y25591D03*
X8563D03*
X10531D03*
X12500D03*
X14469D03*
X6594Y27559D03*
X8563D03*
X10531D03*
X12500D03*
X14469D03*
X11417Y35236D03*
X18602Y41634D03*
Y38780D03*
X21457Y38878D03*
X21555Y41634D03*
X18996Y54921D03*
X35138Y-32087D03*
X38550Y13583D03*
X33661Y32480D03*
X25492Y34646D03*
X24705Y51083D03*
X35335Y43012D03*
X24409Y38976D03*
Y41634D03*
X41831Y-37500D03*
X50197Y-23720D03*
Y-20571D03*
X53346D03*
X56496D03*
X50197Y-17421D03*
X53346D03*
X56496D03*
X50197Y-14272D03*
X53346D03*
X56496D03*
X46260Y13583D03*
X40551Y7677D03*
X55807Y7579D03*
X53937Y13615D03*
X41339Y23524D03*
X49803Y20374D03*
X55610Y20768D03*
X44882Y20866D03*
X53642Y31299D03*
X48524Y32185D03*
X44894Y34605D03*
X59646Y-23720D03*
X62795D03*
X65945D03*
X59646Y-20571D03*
X62795D03*
X65945D03*
X59646Y-17421D03*
X62795D03*
X65945D03*
X69094D03*
X59646Y-14272D03*
X62795D03*
X65945D03*
X69094D03*
X63091Y-9744D03*
X66240D03*
X69390D03*
X63091Y-6594D03*
X66240D03*
X69390D03*
X66437Y12205D03*
X69783Y11909D03*
Y8268D03*
X69980Y5020D03*
X65256Y7382D03*
X66339Y15650D03*
X66043Y19488D03*
X60630Y18209D03*
X62455Y22171D03*
G54D20*
X34646Y-43012D03*
Y-47933D03*
Y-52854D03*
Y-38091D03*
G54D11*
X-32579Y-41240D03*
X-12106D03*
G54D21*
G01X-24705Y-55610D02*
X-26575Y-57480D01*
Y-60827D01*
G01X-20768Y-55610D02*
X-19094Y-57283D01*
Y-60827D01*
G01X46260Y13583D02*
X43209Y10531D01*
X34596D01*
X13631Y31496D01*
X-7185D01*
X-10925Y35236D01*
X-29626D01*
G01X-1083Y-55610D02*
Y-56094D01*
X-1878Y-56890D01*
G01X17126Y-55610D02*
Y-46071D01*
X9547Y-38492D01*
X-3732D01*
X-6403Y-35822D01*
Y-18115D01*
X-3839Y-15551D01*
G01X21063Y-55610D02*
Y-47933D01*
X10335Y-37205D01*
X-2953D01*
X-5115Y-35042D01*
Y-24611D01*
X-3937Y-23433D01*
Y-21358D01*
G01X34646Y-47933D02*
X21344Y-34631D01*
X-1167D01*
G01X11024Y-29528D02*
Y-29429D01*
X7087Y-25492D01*
X-394D01*
G01X14469Y-21444D02*
Y-23519D01*
X13873Y-24114D01*
X1969D01*
X1181Y-23327D01*
Y-20374D01*
X9130Y-12425D01*
Y-10819D01*
X7965Y-9653D01*
Y-3142D01*
X7972Y-3134D01*
Y-2953D01*
X9646Y-1280D01*
X11220D01*
G01X-15945Y-8957D02*
X-11220D01*
G01Y1280D02*
X1378D01*
G01X53937Y13615D02*
X50631Y16921D01*
X30027D01*
X14056Y32892D01*
X-5530D01*
X-7776Y35138D01*
G01X12795Y-68996D02*
X29331D01*
G01X16535Y-25554D02*
Y-23479D01*
X18504Y-21511D01*
Y-7866D01*
X14476Y-3839D01*
X11220D01*
G01X34646Y-43012D02*
X31752D01*
X21234Y-32494D01*
X2854D01*
G01X19390Y-29528D02*
X27854D01*
X30413Y-32087D01*
X35138D01*
G01X15453Y-29528D02*
X11024D01*
G01X11220Y-8957D02*
X14476D01*
X15650Y-10130D01*
Y-13878D01*
X10048Y-19480D01*
X6000D01*
X3926Y-21555D01*
G01X11220Y-6398D02*
X14476D01*
X17028Y-8949D01*
Y-14890D01*
X10363Y-21555D01*
X8288D01*
G01X60630Y18209D02*
X30561D01*
X13533Y35236D01*
X11417D01*
G01X3150Y40157D02*
X10433D01*
X18110Y32480D01*
X33661D01*
G01X25492Y34646D02*
X17913D01*
X8948Y43610D01*
X3724D01*
X3150Y44185D01*
G01D02*
Y47638D01*
G01X34646Y-52854D02*
X37935Y-49565D01*
Y-34687D01*
X35335Y-32087D01*
X35138D01*
G01X44894Y34605D02*
X40395D01*
X31390Y43610D01*
X25280D01*
X24705Y44185D01*
G01Y47638D02*
Y44185D01*
G01Y40157D02*
X32874D01*
X40846Y32185D01*
X48524D01*
G01X49803Y20374D02*
X51878D01*
X52272Y20768D01*
X55610D01*
G01X53642Y31299D02*
X52165Y29823D01*
Y28150D01*
X44882Y20866D01*
G54D12*
X-32579Y-17520D03*
X-38681Y-7480D03*
X-33071Y13780D03*
X-44094D03*
X-32972Y2953D03*
X-43996D03*
X-21260Y-27756D03*
X-32283D03*
X-21555Y-17520D03*
X-27657Y-7480D03*
G54D22*
G01X-23228Y19579D02*
X-19496Y15846D01*
X-5906D01*
X-4724Y14665D01*
Y9641D01*
X-2663Y7579D01*
X394D01*
X3593Y10778D01*
G01X-11220Y-8957D02*
X-4528D01*
X-3248Y-7677D01*
Y-1181D01*
G01X-1085Y10731D02*
Y17022D01*
X-1870Y17807D01*
Y20079D01*
G01X21654Y-8268D02*
X20079Y-6693D01*
Y-3051D01*
G01Y689D02*
Y-3051D01*
G01X21654Y5807D02*
X20079Y4232D01*
Y689D01*
G01D02*
X18898Y1870D01*
X16437D01*
G01X20079Y-3051D02*
X18209D01*
X16339Y-1181D01*
G54D13*
X-29035Y-68996D03*
X12795D03*
X7185D03*
X29331D03*
G54D14*
X-24705Y-55610D03*
X-20768D03*
X-16831D03*
X-12894D03*
X-8957D03*
X-5020D03*
X-1083D03*
X17126D03*
X21063D03*
X2854D03*
X25000D03*
G54D15*
X-15945Y-5020D03*
Y-8957D03*
G54D16*
X-18209Y47638D03*
Y40157D03*
X3150Y47638D03*
Y40157D03*
X24705Y47638D03*
Y40157D03*
G54D17*
X-11220Y-6398D03*
Y-8957D03*
Y8957D03*
Y6398D03*
Y3839D03*
Y1280D03*
Y-1280D03*
Y-3839D03*
X11220Y-8957D03*
Y-6398D03*
Y-3839D03*
Y-1280D03*
Y1280D03*
Y3839D03*
Y6398D03*
Y8957D03*
G54D18*
X7087Y-29528D03*
X11024D03*
X15453D03*
X19390D03*
X20079Y689D03*
Y-3051D03*
X24016Y689D03*
Y-3051D03*
G54D19*
X21654Y-8268D03*
Y5807D03*
X35138Y-32087D03*
X28346Y-8268D03*
Y5807D03*
X41831Y-32087D03*
M02*
