0
SECTION
2
HEADER
9
$INSUNITS
70
4
9
$ACADVER
1
AC1014
9
$HANDSEED
5
FFFF
0
ENDSEC
0
SECTION
2
TABLES
0
TABLE
2
VPORT
5
8
100
AcDbSymbolTable
0
ENDTAB
0
TABLE
2
LTYPE
5
5
100
AcDbSymbolTable
0
LTYPE
5
14
100
AcDbSymbolTableRecord
100
AcDbLinetypeTableRecord
2
BYBLOCK
70
0
0
LTYPE
5
15
100
AcDbSymbolTableRecord
100
AcDbLinetypeTableRecord
2
BYLAYER
70
0
0
LTYPE
5
16
100
AcDbSymbolTableRecord
100
AcDbLinetypeTableRecord
2
DASHED
70
0
3
Dashed __ __ __ __ __ __ __ __ __ __ __ __ __ _
72
65
73
2
40
0.75
49
0.5
74
0
49
-0.25
74
0
0
ENDTAB
0
TABLE
2
LAYER
5
2
100
AcDbSymbolTable
70
2
0
LAYER
5
50
100
AcDbSymbolTableRecord
100
AcDbLayerTableRecord
2
0
70
0
62
7
6
CONTINUOUS
0
ENDTAB
0
TABLE
2
STYLE
5
3
100
AcDbSymbolTable
70
1
0
STYLE
5
11
100
AcDbSymbolTableRecord
100
AcDbTextStyleTableRecord
2
STANDARD
70
0
0
ENDTAB
0
TABLE
2
VIEW
5
6
100
AcDbSymbolTable
70
0
0
ENDTAB
0
TABLE
2
UCS
5
7
100
AcDbSymbolTable
70
0
0
ENDTAB
0
TABLE
2
APPID
5
9
100
AcDbSymbolTable
70
2
0
APPID
5
12
100
AcDbSymbolTableRecord
100
AcDbRegAppTableRecord
2
ACAD
70
0
0
ENDTAB
0
TABLE
2
DIMSTYLE
5
A
100
AcDbSymbolTable
70
1
0
ENDTAB
0
TABLE
2
BLOCK_RECORD
5
1
100
AcDbSymbolTable
70
1
0
BLOCK_RECORD
5
1F
100
AcDbSymbolTableRecord
100
AcDbBlockTableRecord
2
*MODEL_SPACE
0
BLOCK_RECORD
5
1B
100
AcDbSymbolTableRecord
100
AcDbBlockTableRecord
2
*PAPER_SPACE
0
ENDTAB
0
ENDSEC
0
SECTION
2
BLOCKS
0
BLOCK
5
20
100
AcDbEntity
100
AcDbBlockBegin
2
*MODEL_SPACE
0
ENDBLK
5
21
100
AcDbEntity
100
AcDbBlockEnd
0
BLOCK
5
1C
100
AcDbEntity
100
AcDbBlockBegin
2
*PAPER_SPACE
0
ENDBLK
5
1D
100
AcDbEntity
100
AcDbBlockEnd
0
ENDSEC
0
SECTION
2
ENTITIES
0
LWPOLYLINE
5
100
100
AcDbEntity
8
0
100
AcDbPolyline
90
31
70
1
43
0.0
10
-8.5064681272550011
20
-16.892554010440001
10
-8.5064681272550011
20
-19.199999999999999
10
8.5064681272550011
20
-19.199999999999999
10
8.5064681272550011
20
-16.885323560940005
42
0.0351878152524095
10
10.803236374889785
20
-15.516115165979709
42
0.4407641395812259
10
10.979348290517901
20
-14.188457605191767
42
-0.44822985239816648
10
11.481602875019572
20
-10.726584511219352
42
0.29520009887434051
10
12.528786847666582
20
-8.3307118520745558
42
-0.67087251655143043
10
15.042120608198914
20
-6.7874457094824869
42
0.51084607474968791
10
17.981642652799771
20
-5.837614074871925
42
0.15378555690216614
10
18.080806947073111
20
5.5228281453128965
42
0.080515358120267208
10
15.390813606003428
20
10.946958658462446
42
0.37958177736461368
10
14.186649562739341
20
10.979494321485788
42
-0.6359813733256483
10
10.337082826276482
20
12.76535993576999
42
0.41366120966297287
10
7.7397300642477616
20
15.571813860533979
10
1.6397714272560004
20
15.549349778510003
42
0.2309165416652926
10
1.2664331561044211
20
15.368973686289449
42
-0.53454139560289127
10
-1.3825488812230458
20
15.359218382459972
42
0.23245954859173826
10
-1.7562055430119217
20
15.536843545303956
10
-7.8561641799729998
20
15.514379463279999
42
0.40151642345699062
10
-10.435199823454994
20
12.803863432950017
10
-10.432776333835763
20
12.68887157800998
42
-0.6364704803416249
10
-14.271128880879022
20
10.876724033131179
42
0.44004914349080626
10
-15.595445973653659
20
10.688845780955653
42
0.022193330041680347
10
-15.95538492528217
20
10.128516457021268
42
0.22807855323415344
10
-17.870451356120451
20
-6.1496464173811605
42
0.47922282966823021
10
-14.994675716411088
20
-6.8980610560675357
42
-0.67087251844292473
10
-12.470043633500707
20
-8.4227740924268897
42
0.29550427692515285
10
-11.404241933691354
20
-10.810865327332079
42
-0.44823555029622036
10
-10.876531855126487
20
-14.268979563712909
42
0.44095148407021739
10
-10.690617873787405
20
-15.595269751436218
42
0.03135909866521857
0
ARC
5
101
100
AcDbEntity
8
0
100
AcDbCircle
10
-14.044820505670002
20
-8.1777927255460021
30
0
40
1.8937183148970003
210
-0
220
0
230
1
100
AcDbArc
50
-8.8449002731899995
51
126.58693608050262
0
ARC
5
102
100
AcDbEntity
8
0
100
AcDbCircle
10
-10.093213063190001
20
-8.7938765150750005
30
0
40
2.1056268589966107
210
0
220
0
230
1
100
AcDbArc
50
171.12360593591816
51
236.97731682031898
0
ARC
5
103
100
AcDbEntity
8
0
100
AcDbCircle
10
-12.681611612850004
20
-12.775114160330002
30
0
40
2.6430635448420023
210
-0
220
0
230
1
100
AcDbArc
50
-39.610806802383784
51
56.964391129105145
0
ARC
5
104
100
AcDbEntity
8
0
100
AcDbCircle
10
-10.17783436108
20
-14.84721440863
30
0
40
0.60693644984813133
210
0
220
0
230
1
100
AcDbArc
50
140.38919319826653
51
235.53778954290141
0
ARC
5
105
100
AcDbEntity
8
0
100
AcDbCircle
10
0.73345452025379998
20
1.1513733926159999
30
0
40
19.972135626845446
210
0
220
0
230
1
100
AcDbArc
50
235.70030276341868
51
243.40892736702489
0
LINE
5
106
100
AcDbEntity
8
0
100
AcDbLine
10
-8.2064681272550093
20
-16.708189543888356
30
0
11
-8.2064681272550004
21
-18.899999999999999
31
0
0
LINE
5
107
100
AcDbEntity
8
0
100
AcDbLine
10
-8.2064681272550004
20
-18.899999999999999
30
0
11
8.2064681272550004
21
-18.899999999999999
31
0
0
LINE
5
108
100
AcDbEntity
8
0
100
AcDbLine
10
8.2064681272550004
20
-18.899999999999999
30
0
11
8.2064681272549986
21
-16.699640864738502
31
0
0
ARC
5
109
100
AcDbEntity
8
0
100
AcDbCircle
10
-0.060961699638540007
20
0.096999131526709997
30
0
40
18.721044605116063
210
-0
220
0
230
1
100
AcDbArc
50
296.2067506769402
51
304.83134323677234
0
ARC
5
110
100
AcDbEntity
8
0
100
AcDbCircle
10
10.284545202029999
20
-14.771802228649999
30
0
40
0.60721678626180087
210
-0
220
0
230
1
100
AcDbArc
50
-55.118562296801876
51
40.012412033442651
0
ARC
5
111
100
AcDbEntity
8
0
100
AcDbCircle
10
12.773405038410004
20
-12.681371953839999
30
0
40
2.6430635448420032
210
0
220
0
230
1
100
AcDbArc
50
123.46056584509175
51
220.03084075189281
0
ARC
5
112
100
AcDbEntity
8
0
100
AcDbCircle
10
10.152986053950002
20
-8.7190878864879995
30
0
40
2.1073357425459887
210
-0
220
0
230
1
100
AcDbArc
50
-56.499504629208133
51
9.2855205506058489
0
ARC
5
113
100
AcDbEntity
8
0
100
AcDbCircle
10
14.101716665950001
20
-8.0741385604149993
30
0
40
1.8937183148970014
210
0
220
-0
230
1
100
AcDbArc
50
53.834028265818525
51
189.26594802681001
0
ARC
5
114
100
AcDbEntity
8
0
100
AcDbCircle
10
16.168353471980002
20
-5.2493850588019999
30
0
40
1.6063134758261657
210
0
220
0
230
1
100
AcDbArc
50
233.78205331171958
51
342.02817562610539
0
ARC
5
115
100
AcDbEntity
8
0
100
AcDbCircle
10
0
20
0
30
0
40
18.605480966333754
210
-0
220
0
230
1
100
AcDbArc
50
-17.985760207171079
51
16.983922179840043
0
ARC
5
116
100
AcDbEntity
8
0
100
AcDbCircle
10
0.0030790811935850005
20
-0.06338323146048
30
0
40
18.62115224628424
210
0
220
-0
230
1
100
AcDbArc
50
17.17320933763213
51
35.484581393780267
0
ARC
5
117
100
AcDbEntity
8
0
100
AcDbCircle
10
14.7703904438
20
10.28441012629
30
0
40
0.60768687204499949
210
0
220
-0
230
1
100
AcDbArc
50
49.412405862463267
51
130.02398351364053
0
ARC
5
118
100
AcDbEntity
8
0
100
AcDbCircle
10
12.679933638580001
20
12.773602734130002
30
0
40
2.6428653124829986
210
0
220
0
230
1
100
AcDbArc
50
180.05944555789702
51
310.02398351406299
0
ARC
5
119
100
AcDbEntity
8
0
100
AcDbCircle
10
7.632530191111
20
12.867458616810001
30
0
40
2.4064790959936673
210
-0
220
0
230
1
100
AcDbArc
50
-2.3005144470666092
51
87.579870167125918
0
LINE
5
120
100
AcDbEntity
8
0
100
AcDbLine
10
7.734147801361857
20
15.271791268657786
30
0
11
1.6385714989591715
21
15.24935216273235
31
0
0
ARC
5
121
100
AcDbEntity
8
0
100
AcDbCircle
10
1.6379721108480003
20
15.076522448960002
30
0
40
0.17283075313363611
210
0
220
-0
230
1
100
AcDbArc
50
89.801294172014153
51
138.89682637097147
0
ARC
5
122
100
AcDbEntity
8
0
100
AcDbCircle
10
-0.061316673284489351
20
16.249002463219998
30
0
40
1.8929125078509981
210
0
220
0
230
1
100
AcDbArc
50
214.41285464326586
51
325.98704141892028
0
ARC
5
123
100
AcDbEntity
8
0
100
AcDbCircle
10
-1.7500825805120002
20
15.067894705940002
30
0
40
0.16898881075579827
210
0
220
-0
230
1
100
AcDbArc
50
41.205909755165109
51
91.105694301473946
0
LINE
5
124
100
AcDbEntity
8
0
100
AcDbLine
10
-1.7533435251977827
20
15.236852050854083
30
0
11
-7.8484279261397827
21
15.214405918990812
31
0
0
ARC
5
125
100
AcDbEntity
8
0
100
AcDbCircle
10
-7.7300867311079999
20
12.81219318103
30
0
40
2.4051259170494026
210
0
220
0
230
1
100
AcDbArc
50
92.820305529956926
51
180.11401993914518
0
LINE
5
126
100
AcDbEntity
8
0
100
AcDbLine
10
-10.135207885777639
20
12.807406927452012
30
0
11
-10.13279031679582
21
12.692696000364712
31
0
0
ARC
5
127
100
AcDbEntity
8
0
100
AcDbCircle
10
-12.775403600860001
20
12.679719363670001
30
0
40
2.6426451449660018
210
0
220
0
230
1
100
AcDbArc
50
-129.66420917529956
51
0.28135048866678886
0
ARC
5
128
100
AcDbEntity
8
0
100
AcDbCircle
10
-14.847219257770002
20
10.176107195909999
30
0
40
0.60705284138087356
210
0
220
-0
230
1
100
AcDbArc
50
50.632426325109414
51
145.76636993547447
0
ARC
5
129
100
AcDbEntity
8
0
100
AcDbCircle
10
-9.4666130289470001
20
6.3560934133870006
30
0
40
7.2056869334388249
210
0
220
0
230
1
100
AcDbArc
50
144.72278171026667
51
149.87347374034579
0
ARC
5
130
100
AcDbEntity
8
0
100
AcDbCircle
10
-16.131796441070001
20
-5.368159231461
30
0
40
1.6062117236514912
210
0
220
0
230
1
100
AcDbArc
50
204.67148779583451
51
306.62565329184315
0
ARC
5
131
100
AcDbEntity
8
0
100
AcDbCircle
10
0.0016223191633530003
20
-0.00049891054611400003
30
0
40
18.600344772403112
210
0
220
0
230
1
100
AcDbArc
50
147.57575619942287
51
198.94279259134265
0
CIRCLE
5
132
100
AcDbEntity
8
0
100
AcDbCircle
10
-17.000858881919999
20
-0.063402754103549994
30
0
40
0.80000000000000004
210
0
220
-0
230
1
0
CIRCLE
5
133
100
AcDbEntity
8
0
100
AcDbCircle
10
16.998910566519999
20
0.06180688342122001
30
0
40
0.80000000000000004
210
0
220
-0
230
1
0
ENDSEC
0
SECTION
2
OBJECTS
0
DICTIONARY
5
C
100
AcDbDictionary
3
ACAD_GROUP
350
D
3
ACAD_MLINESTYLE
350
17
0
DICTIONARY
5
D
100
AcDbDictionary
0
DICTIONARY
5
1A
330
C
100
AcDbDictionary
0
DICTIONARY
5
17
100
AcDbDictionary
0
ENDSEC
0
EOF
