G04 ================== begin FILE IDENTIFICATION RECORD ==================*
G04 Layout Name:  d:/project/07_foc/foc/circuit/candence/stm32/stspin32g4_foc.brd*
G04 Film Name:    drill*
G04 File Format:  Gerber RS274X*
G04 File Origin:  Cadence Allegro 17.4-S039*
G04 Origin Date:  Sat Nov  8 14:58:41 2025*
G04 *
G04 Layer:  BOARD GEOMETRY/DIMENSION*
G04 Layer:  BOARD GEOMETRY/OUTLINE*
G04 Layer:  MANUFACTURING/NCDRILL_LEGEND*
G04 Layer:  MANUFACTURING/NCDRILL_FIGURE*
G04 *
G04 Offset:    (0.0000 0.0000)*
G04 Mirror:    No*
G04 Mode:      Positive*
G04 Rotation:  0*
G04 FullContactRelief:  No*
G04 UndefLineWidth:     0.1524*
G04 ================== end FILE IDENTIFICATION RECORD ====================*
%FSLAX25Y25*MOMM*%
%IR0*IPPOS*OFA0.00000B0.00000*MIA0B0*SFA1.00000B1.00000*%
%ADD10C,.1524*%
G75*
%LPD*%
G75*
G54D10*
G01X-820650Y-1890000D02*
Y-1670820D01*
G02X-1052120Y-1534770I893933J1785834D01*
G02X-1064540Y-1446030I34339J50045D01*
G03X-1124070Y-1055940I-203618J168514D01*
G02X-1217360Y-846900I114751J176548D01*
G03X-1517360Y-665730I-187122J29114D01*
G02X-1759140Y-603860I-95817J128915D01*
G02X-1569900Y997270I1759280J603816D01*
G02X-1534910Y1051760I623157J-361672D01*
G02X-1446210Y1064530I50186J-34153D01*
G03X-1013280Y1269270I168668J203439D01*
G01X-1013520Y1280740D01*
G02X-784850Y1521440I240509J482D01*
G01X-175370Y1523680D01*
X-175230D01*
G02X-162290Y1517920I229J-16900D01*
G03X150770Y1519010I156159J106977D01*
G02X163860Y1524930I13023J-11364D01*
G01X163970D01*
X773410Y1527180D01*
G02X1003710Y1277090I-10155J-240434D01*
G03X1437950Y1074980I264282J275D01*
G02X1516570Y1074590I39080J-46539D01*
G02X1779400Y543470I-1516285J-1080941D01*
G02X1769620Y-574500I-1779402J-543462D01*
G02X1521920Y-654530I-152792J49563D01*
G03X1223270Y-837910I-111751J-152883D01*
G02X1131610Y-1047640I-207976J-34001D01*
G03X1074960Y-1438140I145732J-220501D01*
G02X1063180Y-1526990I-46505J-39040D01*
G02X820650Y-1669960I-1069268J1536679D01*
G01Y-1890000D01*
X-820650D01*
G01X-1620090Y-6340D02*
G03I-79996J0D01*
G01X-1064540Y-1446030D02*
G03X-1052130Y-1534760I46758J-38693D01*
G01X-1217360Y-846900D02*
G03X-1124070Y-1055930I208039J-32485D01*
G01X-1064540Y-1446030D02*
G03X-1124070Y-1055930I-203619J168520D01*
G01X1131610Y-1047640D02*
G03X1074960Y-1438140I145730J-220500D01*
G01X1131610Y-1047640D02*
G03X1223270Y-837910I-116313J175728D01*
G01X1779890Y6180D02*
G03I-79999J1D01*
M02*
