G04 ================== begin FILE IDENTIFICATION RECORD ==================*
G04 Layout Name:  d:/project/07_foc/foc/circuit/candence/stm32/stspin32g4_foc.brd*
G04 Film Name:    drill*
G04 File Format:  Gerber RS274X*
G04 File Origin:  Cadence Allegro 17.4-S039*
G04 Origin Date:  Sat Nov  8 15:02:02 2025*
G04 *
G04 Layer:  BOARD GEOMETRY/DIMENSION*
G04 Layer:  BOARD GEOMETRY/OUTLINE*
G04 Layer:  MANUFACTURING/NCDRILL_LEGEND*
G04 Layer:  MANUFACTURING/NCDRILL_FIGURE*
G04 *
G04 Offset:    (0.0000 0.0000)*
G04 Mirror:    No*
G04 Mode:      Positive*
G04 Rotation:  0*
G04 FullContactRelief:  No*
G04 UndefLineWidth:     0.1524*
G04 ================== end FILE IDENTIFICATION RECORD ====================*
%FSLAX55Y55*MOMM*%
%IR0*IPPOS*OFA0.00000B0.00000*MIA0B0*SFA1.00000B1.00000*%
%AMMACRO10*
1,1,.1524,.15,0.0*
20,1,.1524,.15,0.0,.075,.129904,0.0*
1,1,.1524,.075,.129904*
20,1,.1524,.075,.129904,-.075,.129904,0.0*
1,1,.1524,-.075,.129904*
20,1,.1524,-.075,.129904,-.15,0.0,0.0*
1,1,.1524,-.15,0.0*
20,1,.1524,-.15,0.0,-.075,-.129904,0.0*
1,1,.1524,-.075,-.129904*
20,1,.1524,-.075,-.129904,.075,-.129904,0.0*
1,1,.1524,.075,-.129904*
20,1,.1524,.075,-.129904,.15,0.0,0.0*
1,1,.1524,.15,0.0*
1,1,.1524,-.045,.025*
20,1,.1524,-.045,.025,0.0,-.075,0.0*
1,1,.1524,0.0,-.075*
20,1,.1524,0.0,-.075,.045,.025,0.0*
1,1,.1524,.045,.025*
%
%ADD10MACRO10*%
%AMMACRO11*
1,1,.1524,.254,0.0*
20,1,.1524,.254,0.0,.250141,-.044107,0.0*
1,1,.1524,.250141,-.044107*
20,1,.1524,.250141,-.044107,.238682,-.086873,0.0*
1,1,.1524,.238682,-.086873*
20,1,.1524,.238682,-.086873,.21997,-.127,0.0*
1,1,.1524,.21997,-.127*
20,1,.1524,.21997,-.127,.194575,-.163268,0.0*
1,1,.1524,.194575,-.163268*
20,1,.1524,.194575,-.163268,.163268,-.194575,0.0*
1,1,.1524,.163268,-.194575*
20,1,.1524,.163268,-.194575,.127,-.21997,0.0*
1,1,.1524,.127,-.21997*
20,1,.1524,.127,-.21997,.086873,-.238682,0.0*
1,1,.1524,.086873,-.238682*
20,1,.1524,.086873,-.238682,.044107,-.250141,0.0*
1,1,.1524,.044107,-.250141*
20,1,.1524,.044107,-.250141,0.0,-.254,0.0*
1,1,.1524,0.0,-.254*
20,1,.1524,0.0,-.254,-.044107,-.250141,0.0*
1,1,.1524,-.044107,-.250141*
20,1,.1524,-.044107,-.250141,-.086873,-.238682,0.0*
1,1,.1524,-.086873,-.238682*
20,1,.1524,-.086873,-.238682,-.127,-.21997,0.0*
1,1,.1524,-.127,-.21997*
20,1,.1524,-.127,-.21997,-.163268,-.194575,0.0*
1,1,.1524,-.163268,-.194575*
20,1,.1524,-.163268,-.194575,-.194575,-.163268,0.0*
1,1,.1524,-.194575,-.163268*
20,1,.1524,-.194575,-.163268,-.21997,-.127,0.0*
1,1,.1524,-.21997,-.127*
20,1,.1524,-.21997,-.127,-.238682,-.086873,0.0*
1,1,.1524,-.238682,-.086873*
20,1,.1524,-.238682,-.086873,-.250141,-.044107,0.0*
1,1,.1524,-.250141,-.044107*
20,1,.1524,-.250141,-.044107,-.254,0.0,0.0*
1,1,.1524,-.254,0.0*
20,1,.1524,-.254,0.0,-.250141,.044107,0.0*
1,1,.1524,-.250141,.044107*
20,1,.1524,-.250141,.044107,-.238682,.086873,0.0*
1,1,.1524,-.238682,.086873*
20,1,.1524,-.238682,.086873,-.21997,.127,0.0*
1,1,.1524,-.21997,.127*
20,1,.1524,-.21997,.127,-.194575,.163268,0.0*
1,1,.1524,-.194575,.163268*
20,1,.1524,-.194575,.163268,-.163268,.194575,0.0*
1,1,.1524,-.163268,.194575*
20,1,.1524,-.163268,.194575,-.127,.21997,0.0*
1,1,.1524,-.127,.21997*
20,1,.1524,-.127,.21997,-.086873,.238682,0.0*
1,1,.1524,-.086873,.238682*
20,1,.1524,-.086873,.238682,-.044107,.250141,0.0*
1,1,.1524,-.044107,.250141*
20,1,.1524,-.044107,.250141,0.0,.254,0.0*
1,1,.1524,0.0,.254*
20,1,.1524,0.0,.254,.044107,.250141,0.0*
1,1,.1524,.044107,.250141*
20,1,.1524,.044107,.250141,.086873,.238682,0.0*
1,1,.1524,.086873,.238682*
20,1,.1524,.086873,.238682,.127,.21997,0.0*
1,1,.1524,.127,.21997*
20,1,.1524,.127,.21997,.163268,.194575,0.0*
1,1,.1524,.163268,.194575*
20,1,.1524,.163268,.194575,.194575,.163268,0.0*
1,1,.1524,.194575,.163268*
20,1,.1524,.194575,.163268,.21997,.127,0.0*
1,1,.1524,.21997,.127*
20,1,.1524,.21997,.127,.238682,.086873,0.0*
1,1,.1524,.238682,.086873*
20,1,.1524,.238682,.086873,.250141,.044107,0.0*
1,1,.1524,.250141,.044107*
20,1,.1524,.250141,.044107,.254,0.0,0.0*
1,1,.1524,.254,0.0*
1,1,.1524,-.1058,.127*
20,1,.1524,-.1058,.127,0.0,-.127,0.0*
1,1,.1524,0.0,-.127*
20,1,.1524,0.0,-.127,.1058,.127,0.0*
1,1,.1524,.1058,.127*
%
%ADD11MACRO11*%
%ADD12C,.1524*%
G75*
%LPD*%
G75*
G54D10*
X-1520000Y-547500D03*
X-1440000D03*
X-1360000D03*
X-1520000Y-467500D03*
X-1440000D03*
X-1360000D03*
X-1520000Y-387500D03*
X-1440000D03*
X-1360000D03*
X-1520000Y-307500D03*
X-1440000D03*
X-1360000D03*
X-1520000Y-227500D03*
X-1440000D03*
X-1360000D03*
X-1520000Y-147500D03*
X-1440000D03*
X-1360000D03*
X-1520000Y-67500D03*
X-1440000D03*
X-1360000D03*
X-1520000Y12500D03*
X-1440000D03*
X-1360000D03*
X-1520000Y92500D03*
X-1440000D03*
X-1360000D03*
X-1520000Y172500D03*
X-1440000D03*
X-1360000D03*
X-1520000Y252500D03*
X-1440000D03*
X-1360000D03*
X-1520000Y332500D03*
X-1440000D03*
X-1360000D03*
X-1520000Y412500D03*
X-1440000D03*
X-1360000D03*
X-1522500Y460000D03*
X-1442500D03*
X-1522500Y540000D03*
X-1442500D03*
X-1522500Y620000D03*
X-1442500D03*
X-1522500Y700000D03*
X-1442500D03*
X-970000Y-530000D03*
X-1097500Y-747500D03*
X-975000Y-327500D03*
X-970000Y-400000D03*
X-962500Y-467500D03*
X-852500Y-40000D03*
X-900000Y202500D03*
X-940000Y337500D03*
Y262500D03*
X-947500Y112500D03*
X-942500Y35000D03*
X-752500Y895000D03*
X-775000Y470000D03*
X-925000Y520000D03*
X-875000D03*
X-825000D03*
X-775000D03*
X-925000Y570000D03*
X-875000D03*
X-825000D03*
X-775000D03*
X-925000Y620000D03*
X-875000D03*
X-825000D03*
X-775000D03*
X-925000Y670000D03*
X-875000D03*
X-825000D03*
X-775000D03*
X-825000Y720000D03*
X-775000D03*
X-357500Y-1560000D03*
X-675000Y-1545000D03*
X-485000D03*
X-572500Y-1277500D03*
X-402500Y-795000D03*
X-342500Y-695000D03*
X-455000Y205000D03*
X-387500Y262500D03*
X-330000Y307500D03*
X-725000Y470000D03*
Y520000D03*
Y570000D03*
X-675000D03*
X-725000Y620000D03*
X-675000D03*
X-725000Y670000D03*
X-675000D03*
X-725000Y720000D03*
X-675000D03*
X-407500Y510000D03*
X-357500D03*
X-307500D03*
X-257500D03*
X-407500Y560000D03*
X-357500D03*
X-307500D03*
X-257500D03*
X-407500Y610000D03*
X-357500D03*
X-307500D03*
X-257500D03*
X-407500Y660000D03*
X-357500D03*
X-307500D03*
X-257500D03*
Y710000D03*
X-590000Y497300D03*
X-515000Y1052500D03*
X-517500Y970000D03*
X-615000Y1085000D03*
Y1015000D03*
X-477500Y1317500D03*
X-150000Y-1730000D03*
X-65000Y-1727500D03*
X17500D03*
X-150000Y-1802700D03*
X-65000Y-1800200D03*
X20100Y-1800160D03*
X-127500Y-1600000D03*
X-54850Y-1602800D03*
X17850Y-1602490D03*
X-47700Y-1445000D03*
X-127500D03*
X25000D03*
X22850Y-1529960D03*
X-127500Y-1527300D03*
X-52120Y-1530150D03*
X40000Y-1255000D03*
X-42500Y-1265000D03*
X50000Y-1192500D03*
Y-1125000D03*
Y-1055000D03*
X160000Y-1050000D03*
X-127500Y-1325000D03*
X-40000D03*
X27500D03*
X147500Y-1115000D03*
X-100000Y-542500D03*
X-29630Y-879630D03*
X72500Y-825340D03*
X99710Y-547500D03*
X-10000Y-647500D03*
X210510Y-547500D03*
X-45000Y-282500D03*
X-97500Y-395000D03*
X-82500Y-30000D03*
X-242500Y312500D03*
X-170000Y187500D03*
X35000Y32500D03*
X91250Y273750D03*
X-27570Y272570D03*
X-197500Y892500D03*
X-207500Y510000D03*
Y560000D03*
X-157500D03*
X-207500Y610000D03*
X-157500D03*
X-207500Y660000D03*
X-157500D03*
X-207500Y710000D03*
X-157500D03*
X167500Y550000D03*
X217500D03*
X167500Y600000D03*
X217500D03*
X167500Y650000D03*
X217500D03*
X167500Y700000D03*
X217500D03*
X-47500Y510000D03*
X17500Y1050000D03*
X20000Y970000D03*
X75000Y1312500D03*
X440000Y-649070D03*
X367500Y-544670D03*
X415000Y-30000D03*
X550000Y-210000D03*
X417500Y47500D03*
X430000Y250000D03*
X647500Y880000D03*
X290000Y895000D03*
X267500Y550000D03*
X317500D03*
X367500D03*
X267500Y600000D03*
X317500D03*
X367500D03*
X267500Y650000D03*
X317500D03*
X367500D03*
X267500Y700000D03*
X317500D03*
X367500D03*
X627500Y1297500D03*
X482500Y1395000D03*
X520000Y1067500D03*
Y985000D03*
X1062500Y-952500D03*
X892500Y-815000D03*
X1030000Y195000D03*
X979170Y345000D03*
X855000Y825000D03*
X1140300Y878970D03*
X1050000Y597500D03*
X1140000Y530000D03*
X897500Y1092500D03*
X1175000Y345000D03*
X1417500Y192500D03*
X1370000Y345830D03*
X1540000Y462500D03*
X1595000Y597500D03*
X1265000Y517500D03*
X1412500Y527500D03*
X1362500Y795000D03*
X1232500Y817500D03*
X1657500Y187500D03*
G54D11*
X880000Y-967500D03*
Y-1092500D03*
Y-1217500D03*
Y-1342500D03*
G54D12*
G01X-820650Y-1890000D02*
Y-1670820D01*
G02X-1052120Y-1534770I893933J1785834D01*
G02X-1064540Y-1446030I34339J50045D01*
G03X-1124070Y-1055940I-203618J168514D01*
G02X-1217360Y-846900I114751J176548D01*
G03X-1517360Y-665730I-187122J29114D01*
G02X-1759140Y-603860I-95817J128915D01*
G02X-1569900Y997270I1759280J603816D01*
G02X-1534910Y1051760I623157J-361672D01*
G02X-1446210Y1064530I50186J-34153D01*
G03X-1013280Y1269270I168668J203439D01*
G01X-1013520Y1280740D01*
G02X-784850Y1521440I240509J482D01*
G01X-175370Y1523680D01*
X-175230D01*
G02X-162290Y1517920I229J-16900D01*
G03X150770Y1519010I156159J106977D01*
G02X163860Y1524930I13023J-11364D01*
G01X163970D01*
X773410Y1527180D01*
G02X1003710Y1277090I-10155J-240434D01*
G03X1437950Y1074980I264282J275D01*
G02X1516570Y1074590I39080J-46539D01*
G02X1779400Y543470I-1516285J-1080941D01*
G02X1769620Y-574500I-1779402J-543462D01*
G02X1521920Y-654530I-152792J49563D01*
G03X1223270Y-837910I-111751J-152883D01*
G02X1131610Y-1047640I-207976J-34001D01*
G03X1074960Y-1438140I145732J-220501D01*
G02X1063180Y-1526990I-46505J-39040D01*
G02X820650Y-1669960I-1069268J1536679D01*
G01Y-1890000D01*
X-820650D01*
G01X-1620090Y-6340D02*
G03I-79996J0D01*
G01X-1064540Y-1446030D02*
G03X-1052130Y-1534760I46758J-38693D01*
G01X-1217360Y-846900D02*
G03X-1124070Y-1055930I208039J-32485D01*
G01X-1064540Y-1446030D02*
G03X-1124070Y-1055930I-203619J168520D01*
G01X1131610Y-1047640D02*
G03X1074960Y-1438140I145730J-220500D01*
G01X1131610Y-1047640D02*
G03X1223270Y-837910I-116313J175728D01*
G01X1779890Y6180D02*
G03I-79999J1D01*
M02*
