G04 ================== begin FILE IDENTIFICATION RECORD ==================*
G04 Layout Name:  D:/PROJECT/07_FOC/FOC/CIRCUIT/CANDENCE/STM32/stspin32g4_foc.brd*
G04 Film Name:    gnd2*
G04 File Format:  Gerber RS274X*
G04 File Origin:  Cadence Allegro 17.4-S039*
G04 Origin Date:  Thu Nov 13 09:35:22 2025*
G04 *
G04 Layer:  VIA CLASS/GND2*
G04 Layer:  PIN/GND2*
G04 Layer:  ETCH/GND2*
G04 *
G04 Offset:    (0.0000 0.0000)*
G04 Mirror:    No*
G04 Mode:      Positive*
G04 Rotation:  0*
G04 FullContactRelief:  No*
G04 UndefLineWidth:     0.1524*
G04 ================== end FILE IDENTIFICATION RECORD ====================*
%FSLAX25Y25*MOIN*%
%IR0*IPPOS*OFA0.00000B0.00000*MIA0B0*SFA1.00000B1.00000*%
%ADD10C,.023622*%
%ADD11C,.04*%
%ADD12C,.043638*%
%ADD13C,.07089*%
G75*
%LPD*%
G75*
G36*
G01X30423Y59731D02*
X30432D01*
G02X39122Y50291I-383J-9072D01*
G01Y50283D01*
G03X56866Y42020I10799J7D01*
G02X59390Y42058I1285J-1530D01*
G01X59399Y42049D01*
X59428Y42020D01*
G02X69649Y21376I-59417J-42270D01*
G01Y21375D01*
G02X69295Y-22496I-69649J-21375D01*
G02X60151Y-25451I-5641J1830D01*
G03X47771Y-33052I-4632J-6337D01*
G02X44334Y-40917I-7799J-1275D01*
G03X42019Y-56873I5955J-9010D01*
G02X41632Y-59794I-1529J-1283D01*
G02X31915Y-65500I-41872J60175D01*
G01Y-73815D01*
G02X31715Y-74015I-200J0D01*
G01X-31715D01*
G02X-31915Y-73815I0J200D01*
G01Y-65536D01*
G02X-41231Y-60076I34803J70063D01*
G02X-41235Y-60074I113J165D01*
G02X-41607Y-57182I1165J1620D01*
G03X-44040Y-41242I-8320J6886D01*
G02X-47538Y-33403I4303J6620D01*
G03X-50512Y-25972I-7756J1207D01*
G02X-50591Y-25813I122J159D01*
G01Y17240D01*
G03X-50649Y17381I-200J0D01*
G01X-53878Y20611D01*
G02X-53937Y20752I141J142D01*
G01Y39200D01*
G02X-53856Y39361I200J0D01*
G01X-53600Y39552D01*
G02X-53527Y39585I119J-161D01*
G01X-53488Y39594D01*
X-53448Y39588D01*
X-53422Y39584D01*
X-53387Y39574D01*
G03X-39499Y49976I3091J10347D01*
G01X-39508Y50393D01*
Y50396D01*
G02X-30855Y59505I9074J44D01*
G02X-30846Y59505I13J-199D01*
G01X-6904Y59593D01*
X-6893D01*
G02X-6701Y59517I4J-271D01*
G01X-6687Y59497D01*
X-6663Y59464D01*
X-6657Y59456D01*
G03X6223Y59525I6416J4516D01*
G01X6232Y59539D01*
X6263Y59570D01*
X6278Y59586D01*
G02X6448Y59643I171J-230D01*
G01X6456D01*
X30423Y59731D01*
G37*
%LPC*%
G75*
G36*
G01X-37255Y11169D02*
G02X-38402Y13091I1034J1921D01*
G02X-34039I2182J0D01*
G02X-35020Y11269I-2182J0D01*
G03X-34989Y10583I220J-334D01*
G02X-33842Y8661I-1034J-1921D01*
G02X-38206I-2182J0D01*
G02X-37224Y10483I2182J0D01*
G03X-37255Y11169I-220J334D01*
G37*
G36*
G01X-36728Y31398D02*
X-32661D01*
G03X-32520Y31456I0J200D01*
G01X-32244Y31733D01*
G03X-32185Y31874I-141J142D01*
G01Y43421D01*
G02X-32126Y43563I200J0D01*
G01X-31161Y44528D01*
G02X-31020Y44587I142J-141D01*
G01X26591D01*
G02X26732Y44528I0J-200D01*
G01X26811Y44448D01*
G02X26870Y44307I-141J-142D01*
G01Y36894D01*
G02X26811Y36752I-200J0D01*
G01X26633Y36574D01*
G02X26492Y36516I-142J141D01*
G01X21244D01*
G03X21103Y36457I0J-200D01*
G01X19055Y34409D01*
G03X18996Y34268I141J-142D01*
G01Y19571D01*
G02X18937Y19430I-200J0D01*
G01X15708Y16200D01*
G02X15567Y16142I-142J141D01*
G01X-35941D01*
G02X-36082Y16200I0J200D01*
G01X-39115Y19233D01*
G02X-39173Y19374I141J142D01*
G01Y28953D01*
G02X-39115Y29094I200J0D01*
G01X-36870Y31339D01*
G02X-36728Y31398I142J-141D01*
G37*
G36*
G01X42163Y21504D02*
G02X41339Y21342I-825J2020D01*
G02X43520Y23524I0J2182D01*
G02X43509Y23298I-2182J1D01*
G03X44058Y22886I398J-41D01*
G02X44882Y23048I825J-2020D01*
G02X42700Y20866I0J-2182D01*
G02X42712Y21092I2182J-1D01*
G03X42163Y21504I-398J41D01*
G37*
G36*
G01X900Y9827D02*
G02X-1085Y8549I-1986J904D01*
G02Y12913I0J2182D01*
G02X882Y11674I0J-2182D01*
G03X1607Y11681I361J173D01*
G02X3593Y12959I1986J-904D01*
G02Y8596I0J-2182D01*
G02X1625Y9834I0J2182D01*
G03X900Y9827I-361J-173D01*
G37*
G36*
G01X672Y-32489D02*
G02X2854Y-30312I2182J-5D01*
G02Y-34676I0J-2182D01*
G02X1638Y-34305I0J2181D01*
G03X1015Y-34636I-223J-332D01*
G02X-1167Y-36813I-2182J5D01*
G02Y-32449I0J2182D01*
G02X50Y-32820I0J-2181D01*
G03X672Y-32489I223J332D01*
G37*
G36*
G01X-36162Y1256D02*
G03X-36437Y1744I-386J104D01*
G02X-38009Y3839I610J2095D01*
G02X-33645I2182J0D01*
G02X-33720Y3272I-2182J0D01*
G03X-33445Y2784I386J-104D01*
G02X-31873Y689I-610J-2095D01*
G02X-36237I-2182J0D01*
G02X-36162Y1256I2182J0D01*
G37*
G36*
G01X18058Y162D02*
G02X18520Y-1181I-1719J-1343D01*
G02X14157I-2182J0D01*
G02X14709Y270I2182J0D01*
G03X14718Y527I-149J133D01*
G02X14255Y1870I1719J1343D01*
G02X18619I2182J0D01*
G02X18066Y419I-2182J0D01*
G03X18058Y162I149J-133D01*
G37*
G36*
G01X-886Y-45291D02*
Y-40142D01*
G02X-827Y-40000I200J0D01*
G01X532Y-38641D01*
G02X673Y-38583I142J-141D01*
G01X9071D01*
G02X9212Y-38641I0J-200D01*
G01X9882Y-39311D01*
G02X9941Y-39453I-141J-142D01*
G01Y-47752D01*
G02X9882Y-47893I-200J0D01*
G01X9015Y-48760D01*
G02X8874Y-48819I-142J141D01*
G01X5496D01*
G03X5355Y-48878I0J-200D01*
G01X4193Y-50040D01*
G03X4134Y-50181I141J-142D01*
G01Y-64681D01*
G02X4075Y-64822I-200J0D01*
G01X3011Y-65886D01*
G02X2870Y-65945I-142J141D01*
G01X-6610D01*
G02X-6752Y-65886I0J200D01*
G01X-8111Y-64527D01*
G02X-8169Y-64386I141J142D01*
G01Y-52740D01*
G02X-8111Y-52599I200J0D01*
G01X-7152Y-51640D01*
X-7126Y-51596D01*
X-7119Y-51571D01*
G02X-5614Y-50066I2100J-594D01*
G01X-5589Y-50059D01*
X-5545Y-50033D01*
X-944Y-45433D01*
G03X-886Y-45291I-141J142D01*
G37*
G36*
G01X33415Y-45642D02*
Y-45303D01*
G03X33321Y-45133I-200J0D01*
G02X32145Y-43012I1324J2121D01*
G02X37146I2501J0D01*
G02X35970Y-45133I-2501J0D01*
G03X35876Y-45303I106J-170D01*
G01Y-45642D01*
G03X35970Y-45812I200J0D01*
G02Y-50054I-1324J-2121D01*
G03X35876Y-50224I106J-170D01*
G01Y-50563D01*
G03X35970Y-50733I200J0D01*
G02X37146Y-52854I-1324J-2121D01*
G02X32145I-2501J0D01*
G02X33321Y-50733I2501J0D01*
G03X33415Y-50563I-106J170D01*
G01Y-50224D01*
G03X33321Y-50054I-200J0D01*
G02Y-45812I1324J2121D01*
G03X33415Y-45642I-106J170D01*
G37*
G36*
G01X8288Y-23737D02*
G02X6444Y-22723I0J2182D01*
G03X5769I-338J-214D01*
G02X3926Y-23737I-1843J1168D01*
G02Y-19373I0J2182D01*
G02X5769Y-20387I0J-2182D01*
G03X6444I338J214D01*
G02X8288Y-19373I1843J-1168D01*
G02Y-23737I0J-2182D01*
G37*
G36*
G01X60341Y20371D02*
G03X60624Y20985I-53J396D01*
G02X60273Y22171I1831J1186D01*
G02X64637I2182J0D01*
G02X62744Y20008I-2182J0D01*
G03X62461Y19394I53J-396D01*
G02X62812Y18209I-1831J-1186D01*
G02X58448I-2182J0D01*
G02X60341Y20371I2182J0D01*
G37*
G36*
G01X14457Y-23626D02*
G02X12287Y-21444I12J2182D01*
G02X16650I2182J0D01*
G02X16227Y-22735I-2182J0D01*
G03X16547Y-23372I322J-237D01*
G02X18717Y-25554I-12J-2182D01*
G02X14354I-2182J0D01*
G02X14777Y-24262I2182J0D01*
G03X14457Y-23626I-322J237D01*
G37*
G54D12*
X-3248Y-1181D03*
X18996Y54921D03*
X35335Y43012D03*
X48524Y32185D03*
X53642Y31299D03*
X55610Y20768D03*
X49803Y20374D03*
X33661Y32480D03*
X65256Y7382D03*
X53937Y13615D03*
X46260Y13583D03*
X38550D03*
X16929Y9843D03*
X1378Y1280D03*
X21654Y-8268D03*
X35138Y-32087D03*
X-394Y-25492D03*
X-13484Y-27362D03*
X-19094Y-60827D03*
X-26575D03*
X-3839Y-15551D03*
X-3937Y-21358D03*
G54D13*
X66925Y243D03*
%LPD*%
G75*
G54D10*
X-59843Y-21555D03*
X-56693D03*
X-53543D03*
X-59843Y-18406D03*
X-56693D03*
X-53543D03*
X-59843Y-15256D03*
X-56693D03*
X-53543D03*
X-59843Y-12106D03*
X-56693D03*
X-53543D03*
X-59843Y-8957D03*
X-56693D03*
X-53543D03*
X-59843Y-5807D03*
X-56693D03*
X-53543D03*
X-59843Y-2657D03*
X-56693D03*
X-53543D03*
X-59843Y492D03*
X-56693D03*
X-53543D03*
X-59843Y3642D03*
X-56693D03*
X-53543D03*
X-59843Y6791D03*
X-56693D03*
X-53543D03*
X-59843Y9941D03*
X-56693D03*
X-53543D03*
X-59843Y13091D03*
X-56693D03*
X-53543D03*
X-59843Y16240D03*
X-56693D03*
X-53543D03*
X-59941Y18110D03*
X-56791D03*
X-59941Y21260D03*
X-56791D03*
X-59941Y24409D03*
X-56791D03*
X-59941Y27559D03*
X-56791D03*
X-46850Y-18996D03*
X-43701D03*
X-40551D03*
X-37402D03*
X-34252D03*
X-46850Y-15846D03*
X-43701D03*
X-40551D03*
X-37402D03*
X-34252D03*
X-46850Y-12697D03*
X-43701D03*
X-40551D03*
X-37402D03*
X-34252D03*
X-36024Y8661D03*
X-35827Y3839D03*
X-34055Y689D03*
X-36220Y13091D03*
X-47539Y18701D03*
X-44390D03*
X-50689Y21850D03*
X-47539D03*
X-44390D03*
X-50689Y25000D03*
X-47539D03*
X-44390D03*
X-50689Y28150D03*
X-47539D03*
X-36417Y20472D03*
X-34449D03*
X-36417Y22441D03*
X-34449D03*
X-36417Y24409D03*
X-34449D03*
X-36417Y26378D03*
X-34449D03*
X-51575Y33465D03*
X-48425D03*
X-45276D03*
X-51575Y36614D03*
X-48425D03*
X-45276D03*
X-26575Y-60827D03*
X-19094D03*
X-22835Y-50591D03*
X-15846Y-31299D03*
X-30118Y-38878D03*
X-31102Y-18996D03*
Y-15846D03*
X-17913Y8071D03*
X-15846Y10138D03*
X-32480Y20472D03*
X-30512D03*
X-28543D03*
X-32480Y22441D03*
X-30512D03*
X-28543D03*
X-26575D03*
X-32480Y24409D03*
X-30512D03*
X-28543D03*
X-26575D03*
X-32480Y26378D03*
X-30512D03*
X-28543D03*
X-26575D03*
X-32480Y28346D03*
X-30512D03*
X-28543D03*
X-26575D03*
X-16043Y20079D03*
Y22047D03*
Y24016D03*
Y25984D03*
X-23228Y19579D03*
X-21457Y41929D03*
X-21358Y38189D03*
X-24213Y41929D03*
X-24311Y38091D03*
X-18799Y41831D03*
X-18701Y38091D03*
X-29626Y35236D03*
X-23327Y53248D03*
X-20177D03*
X-17028D03*
X-23327Y56398D03*
X-20177D03*
X-17028D03*
X-5906Y-68110D03*
X-2559Y-68012D03*
X689D03*
X-5906Y-70972D03*
X-2559Y-70874D03*
X791Y-70872D03*
X-14469Y-61417D03*
X-8957Y-71071D03*
Y-68209D03*
X-12008Y-71169D03*
Y-68307D03*
X-11713Y-64567D03*
Y-61417D03*
X-14469Y-67232D03*
Y-64370D03*
X-5020Y-62992D03*
X-2159Y-63102D03*
X703Y-63090D03*
X900Y-60235D03*
X-2052Y-60242D03*
X-14075Y-58858D03*
Y-55709D03*
X-11319Y-58760D03*
Y-55610D03*
X1575Y-49409D03*
X-1673Y-49803D03*
X1969Y-46949D03*
Y-44291D03*
X-5020Y-52165D03*
X-1878Y-56890D03*
X-1575Y-52165D03*
X1083D03*
X-5020Y-56890D03*
X984D03*
X-5020Y-60130D03*
X-1167Y-34631D03*
X2854Y-32494D03*
X1969Y-41535D03*
X-13484Y-27362D03*
X-394Y-25492D03*
X-3207Y-11235D03*
X2461Y-4921D03*
X-324Y-18135D03*
X-689Y-8268D03*
X-141Y-11263D03*
X-591Y-4921D03*
X2362Y-8366D03*
X415Y-14582D03*
X2717Y-11424D03*
X3150Y-14075D03*
X-3839Y-15551D03*
X-3937Y-21358D03*
X-13875Y12213D03*
X-10827Y12205D03*
X-6693Y7382D03*
X-7579Y12106D03*
X-3248Y-1181D03*
X1378Y1280D03*
X-1085Y10731D03*
X-14075Y20079D03*
X-12106D03*
X-10138D03*
X-8169D03*
X-14075Y22047D03*
X-12106D03*
X-10138D03*
X-8169D03*
X-6201D03*
X-14075Y24016D03*
X-12106D03*
X-10138D03*
X-8169D03*
X-6201D03*
X-14075Y25984D03*
X-12106D03*
X-10138D03*
X-8169D03*
X-6201D03*
X-10138Y27953D03*
X-8169D03*
X-6201D03*
X-1870Y20079D03*
X-2953Y41240D03*
Y38386D03*
X-197Y38484D03*
Y41339D03*
X2657Y38386D03*
Y41339D03*
X-7776Y35138D03*
X-4528Y53543D03*
X-1378D03*
X1772D03*
X7776Y-67815D03*
X11024D03*
X7776Y-70677D03*
X11126Y-70676D03*
X4429Y-70776D03*
Y-67913D03*
X13976Y-67717D03*
X17323Y-67618D03*
X13976Y-70579D03*
X17323Y-70480D03*
X20673Y-70479D03*
X20571Y-67618D03*
X13583Y-64476D03*
X20280Y-64376D03*
X16929Y-64378D03*
X20177Y-61516D03*
X16929D03*
X13583Y-61614D03*
X6890Y-61713D03*
Y-64575D03*
X10240Y-64573D03*
X10138Y-61713D03*
X13386Y-55906D03*
X13488Y-58766D03*
X6791Y-58866D03*
X10138Y-58768D03*
Y-55906D03*
X5807Y-43898D03*
X16535Y-25554D03*
X6299Y-41339D03*
X6004Y-11417D03*
X5512Y-5118D03*
X5610Y-8465D03*
X3926Y-21555D03*
X14469Y-21444D03*
X21654Y-8268D03*
X8288Y-21555D03*
X16339Y-1181D03*
X16437Y1870D03*
X16929Y9843D03*
X3593Y10778D03*
X6594Y21654D03*
X8563D03*
X10531D03*
X12500D03*
X14469D03*
X6594Y23622D03*
X8563D03*
X10531D03*
X12500D03*
X14469D03*
X6594Y25591D03*
X8563D03*
X10531D03*
X12500D03*
X14469D03*
X6594Y27559D03*
X8563D03*
X10531D03*
X12500D03*
X14469D03*
X11417Y35236D03*
X18602Y41634D03*
Y38780D03*
X21457Y38878D03*
X21555Y41634D03*
X18996Y54921D03*
X35138Y-32087D03*
X38550Y13583D03*
X33661Y32480D03*
X25492Y34646D03*
X24705Y51083D03*
X35335Y43012D03*
X24409Y38976D03*
Y41634D03*
X41831Y-37500D03*
X50197Y-23720D03*
Y-20571D03*
X53346D03*
X56496D03*
X50197Y-17421D03*
X53346D03*
X56496D03*
X50197Y-14272D03*
X53346D03*
X56496D03*
X46260Y13583D03*
X40551Y7677D03*
X55807Y7579D03*
X53937Y13615D03*
X41339Y23524D03*
X49803Y20374D03*
X55610Y20768D03*
X44882Y20866D03*
X53642Y31299D03*
X48524Y32185D03*
X44894Y34605D03*
X59646Y-23720D03*
X62795D03*
X65945D03*
X59646Y-20571D03*
X62795D03*
X65945D03*
X59646Y-17421D03*
X62795D03*
X65945D03*
X69094D03*
X59646Y-14272D03*
X62795D03*
X65945D03*
X69094D03*
X63091Y-9744D03*
X66240D03*
X69390D03*
X63091Y-6594D03*
X66240D03*
X69390D03*
X66437Y12205D03*
X69783Y11909D03*
Y8268D03*
X69980Y5020D03*
X65256Y7382D03*
X66339Y15650D03*
X66043Y19488D03*
X60630Y18209D03*
X62455Y22171D03*
G54D11*
X34646Y-43012D03*
Y-47933D03*
Y-52854D03*
Y-38091D03*
M02*
