G04 ================== begin FILE IDENTIFICATION RECORD ==================*
G04 Layout Name:  d:/project/07_foc/foc/circuit/candence/stm32/stspin32g4_foc.brd*
G04 Film Name:    pasttop*
G04 File Format:  Gerber RS274X*
G04 File Origin:  Cadence Allegro 17.4-S039*
G04 Origin Date:  Sat Nov  8 14:58:41 2025*
G04 *
G04 Layer:  PIN/PASTEMASK_TOP*
G04 Layer:  PACKAGE GEOMETRY/PASTEMASK_TOP*
G04 Layer:  BOARD GEOMETRY/OUTLINE*
G04 *
G04 Offset:    (0.0000 0.0000)*
G04 Mirror:    No*
G04 Mode:      Positive*
G04 Rotation:  0*
G04 FullContactRelief:  No*
G04 UndefLineWidth:     0.1524*
G04 ================== end FILE IDENTIFICATION RECORD ====================*
%FSLAX25Y25*MOMM*%
%IR0*IPPOS*OFA0.00000B0.00000*MIA0B0*SFA1.00000B1.00000*%
%ADD13R,1.0033X.4572*%
%ADD19R,.59X1.39*%
%ADD25R,1.1X1.*%
%ADD20R,.5X.3*%
%ADD16R,.6X.3*%
%ADD15R,.3X.6*%
%ADD24R,1.6X2.7*%
%ADD18R,.5X.6*%
%ADD10R,1.6X1.8*%
%ADD12R,.65X.6*%
%ADD11R,.6X.65*%
%ADD17R,1.6X1.6*%
%ADD26R,1.1999X1.4*%
%ADD23R,.8128X.254*%
%ADD22R,.254X.8128*%
%ADD14R,.0254X.0254*%
%ADD21R,.8128X.9906*%
%ADD27C,.1524*%
G75*
%LPD*%
G75*
G36*
G01X-810060Y633000D02*
X-707440D01*
X-706470Y632910D01*
X-705550Y632630D01*
X-704690Y632170D01*
X-703950Y631550D01*
X-703330Y630810D01*
X-702880Y629950D01*
X-702590Y629030D01*
X-702500Y628060D01*
Y567430D01*
X-702590Y566470D01*
X-702880Y565550D01*
X-703330Y564690D01*
X-703950Y563940D01*
X-704690Y563330D01*
X-705550Y562870D01*
X-706470Y562600D01*
X-707440Y562500D01*
X-810060D01*
X-811030Y562600D01*
X-811950Y562870D01*
X-812810Y563330D01*
X-813550Y563940D01*
X-814170Y564690D01*
X-814620Y565550D01*
X-814910Y566470D01*
X-815000Y567430D01*
Y628060D01*
X-814910Y629030D01*
X-814620Y629950D01*
X-814170Y630810D01*
X-813550Y631550D01*
X-812810Y632170D01*
X-811950Y632630D01*
X-811030Y632910D01*
X-810060Y633000D01*
G37*
G36*
G01X-942560D02*
X-839940D01*
X-838970Y632910D01*
X-838050Y632630D01*
X-837190Y632170D01*
X-836450Y631550D01*
X-835830Y630810D01*
X-835380Y629950D01*
X-835090Y629030D01*
X-835000Y628060D01*
Y567430D01*
X-835090Y566470D01*
X-835380Y565550D01*
X-835830Y564690D01*
X-836450Y563940D01*
X-837190Y563330D01*
X-838050Y562870D01*
X-838970Y562600D01*
X-839940Y562500D01*
X-942560D01*
X-943530Y562600D01*
X-944450Y562870D01*
X-945310Y563330D01*
X-946050Y563940D01*
X-946670Y564690D01*
X-947120Y565550D01*
X-947410Y566470D01*
X-947500Y567430D01*
Y628060D01*
X-947410Y629030D01*
X-947120Y629950D01*
X-946670Y630810D01*
X-946050Y631550D01*
X-945310Y632170D01*
X-944450Y632630D01*
X-943530Y632910D01*
X-942560Y633000D01*
G37*
G36*
G01X-839940Y653000D02*
X-942560D01*
X-943530Y653100D01*
X-944450Y653380D01*
X-945310Y653830D01*
X-946050Y654440D01*
X-946670Y655190D01*
X-947120Y656050D01*
X-947410Y656970D01*
X-947500Y657930D01*
Y718560D01*
X-947410Y719530D01*
X-947120Y720450D01*
X-946670Y721310D01*
X-946050Y722050D01*
X-945310Y722670D01*
X-944450Y723120D01*
X-943530Y723410D01*
X-942560Y723500D01*
X-839940D01*
X-838970Y723410D01*
X-838050Y723120D01*
X-837190Y722670D01*
X-836450Y722050D01*
X-835830Y721310D01*
X-835380Y720450D01*
X-835090Y719530D01*
X-835000Y718560D01*
Y657930D01*
X-835090Y656970D01*
X-835380Y656050D01*
X-835830Y655190D01*
X-836450Y654440D01*
X-837190Y653830D01*
X-838050Y653380D01*
X-838970Y653100D01*
X-839940Y653000D01*
G37*
G36*
G01X-707440D02*
X-810060D01*
X-811030Y653100D01*
X-811950Y653380D01*
X-812810Y653830D01*
X-813550Y654440D01*
X-814170Y655190D01*
X-814620Y656050D01*
X-814910Y656970D01*
X-815000Y657930D01*
Y718560D01*
X-814910Y719530D01*
X-814620Y720450D01*
X-814170Y721310D01*
X-813550Y722050D01*
X-812810Y722670D01*
X-811950Y723120D01*
X-811030Y723410D01*
X-810060Y723500D01*
X-707440D01*
X-706470Y723410D01*
X-705550Y723120D01*
X-704690Y722670D01*
X-703950Y722050D01*
X-703330Y721310D01*
X-702880Y720450D01*
X-702590Y719530D01*
X-702500Y718560D01*
Y657930D01*
X-702590Y656970D01*
X-702880Y656050D01*
X-703330Y655190D01*
X-703950Y654440D01*
X-704690Y653830D01*
X-705550Y653380D01*
X-706470Y653100D01*
X-707440Y653000D01*
G37*
G36*
G01X-804500Y1037560D02*
Y934940D01*
X-804590Y933970D01*
X-804870Y933050D01*
X-805330Y932190D01*
X-805950Y931450D01*
X-806690Y930830D01*
X-807550Y930380D01*
X-808470Y930090D01*
X-809440Y930000D01*
X-870070D01*
X-871030Y930090D01*
X-871950Y930380D01*
X-872810Y930830D01*
X-873560Y931450D01*
X-874170Y932190D01*
X-874630Y933050D01*
X-874900Y933970D01*
X-875000Y934940D01*
Y1037560D01*
X-874900Y1038530D01*
X-874630Y1039450D01*
X-874170Y1040310D01*
X-873560Y1041050D01*
X-872810Y1041670D01*
X-871950Y1042120D01*
X-871030Y1042410D01*
X-870070Y1042500D01*
X-809440D01*
X-808470Y1042410D01*
X-807550Y1042120D01*
X-806690Y1041670D01*
X-805950Y1041050D01*
X-805330Y1040310D01*
X-804870Y1039450D01*
X-804590Y1038530D01*
X-804500Y1037560D01*
G37*
G36*
G01Y1170060D02*
Y1067440D01*
X-804590Y1066470D01*
X-804870Y1065550D01*
X-805330Y1064690D01*
X-805950Y1063950D01*
X-806690Y1063330D01*
X-807550Y1062880D01*
X-808470Y1062590D01*
X-809440Y1062500D01*
X-870070D01*
X-871030Y1062590D01*
X-871950Y1062880D01*
X-872810Y1063330D01*
X-873560Y1063950D01*
X-874170Y1064690D01*
X-874630Y1065550D01*
X-874900Y1066470D01*
X-875000Y1067440D01*
Y1170060D01*
X-874900Y1171030D01*
X-874630Y1171950D01*
X-874170Y1172810D01*
X-873560Y1173550D01*
X-872810Y1174170D01*
X-871950Y1174620D01*
X-871030Y1174910D01*
X-870070Y1175000D01*
X-809440D01*
X-808470Y1174910D01*
X-807550Y1174620D01*
X-806690Y1174170D01*
X-805950Y1173550D01*
X-805330Y1172810D01*
X-804870Y1171950D01*
X-804590Y1171030D01*
X-804500Y1170060D01*
G37*
G36*
G01X-784500Y1067440D02*
Y1170060D01*
X-784400Y1171030D01*
X-784120Y1171950D01*
X-783670Y1172810D01*
X-783060Y1173550D01*
X-782310Y1174170D01*
X-781450Y1174620D01*
X-780530Y1174910D01*
X-779570Y1175000D01*
X-718940D01*
X-717970Y1174910D01*
X-717050Y1174620D01*
X-716190Y1174170D01*
X-715450Y1173550D01*
X-714830Y1172810D01*
X-714380Y1171950D01*
X-714090Y1171030D01*
X-714000Y1170060D01*
Y1067440D01*
X-714090Y1066470D01*
X-714380Y1065550D01*
X-714830Y1064690D01*
X-715450Y1063950D01*
X-716190Y1063330D01*
X-717050Y1062880D01*
X-717970Y1062590D01*
X-718940Y1062500D01*
X-779570D01*
X-780530Y1062590D01*
X-781450Y1062880D01*
X-782310Y1063330D01*
X-783060Y1063950D01*
X-783670Y1064690D01*
X-784120Y1065550D01*
X-784400Y1066470D01*
X-784500Y1067440D01*
G37*
G36*
G01Y934940D02*
Y1037560D01*
X-784400Y1038530D01*
X-784120Y1039450D01*
X-783670Y1040310D01*
X-783060Y1041050D01*
X-782310Y1041670D01*
X-781450Y1042120D01*
X-780530Y1042410D01*
X-779570Y1042500D01*
X-718940D01*
X-717970Y1042410D01*
X-717050Y1042120D01*
X-716190Y1041670D01*
X-715450Y1041050D01*
X-714830Y1040310D01*
X-714380Y1039450D01*
X-714090Y1038530D01*
X-714000Y1037560D01*
Y934940D01*
X-714090Y933970D01*
X-714380Y933050D01*
X-714830Y932190D01*
X-715450Y931450D01*
X-716190Y930830D01*
X-717050Y930380D01*
X-717970Y930090D01*
X-718940Y930000D01*
X-779570D01*
X-780530Y930090D01*
X-781450Y930380D01*
X-782310Y930830D01*
X-783060Y931450D01*
X-783670Y932190D01*
X-784120Y933050D01*
X-784400Y933970D01*
X-784500Y934940D01*
G37*
G36*
G01X-405060Y633000D02*
X-302440D01*
X-301470Y632910D01*
X-300550Y632630D01*
X-299690Y632170D01*
X-298950Y631550D01*
X-298330Y630810D01*
X-297880Y629950D01*
X-297590Y629030D01*
X-297500Y628060D01*
Y567430D01*
X-297590Y566470D01*
X-297880Y565550D01*
X-298330Y564690D01*
X-298950Y563940D01*
X-299690Y563330D01*
X-300550Y562870D01*
X-301470Y562600D01*
X-302440Y562500D01*
X-405060D01*
X-406030Y562600D01*
X-406950Y562870D01*
X-407810Y563330D01*
X-408550Y563940D01*
X-409170Y564690D01*
X-409620Y565550D01*
X-409910Y566470D01*
X-410000Y567430D01*
Y628060D01*
X-409910Y629030D01*
X-409620Y629950D01*
X-409170Y630810D01*
X-408550Y631550D01*
X-407810Y632170D01*
X-406950Y632630D01*
X-406030Y632910D01*
X-405060Y633000D01*
G37*
G36*
G01X-302440Y653000D02*
X-405060D01*
X-406030Y653100D01*
X-406950Y653380D01*
X-407810Y653830D01*
X-408550Y654440D01*
X-409170Y655190D01*
X-409620Y656050D01*
X-409910Y656970D01*
X-410000Y657930D01*
Y718560D01*
X-409910Y719530D01*
X-409620Y720450D01*
X-409170Y721310D01*
X-408550Y722050D01*
X-407810Y722670D01*
X-406950Y723120D01*
X-406030Y723410D01*
X-405060Y723500D01*
X-302440D01*
X-301470Y723410D01*
X-300550Y723120D01*
X-299690Y722670D01*
X-298950Y722050D01*
X-298330Y721310D01*
X-297880Y720450D01*
X-297590Y719530D01*
X-297500Y718560D01*
Y657930D01*
X-297590Y656970D01*
X-297880Y656050D01*
X-298330Y655190D01*
X-298950Y654440D01*
X-299690Y653830D01*
X-300550Y653380D01*
X-301470Y653100D01*
X-302440Y653000D01*
G37*
G36*
G01X-267000Y1037560D02*
Y934940D01*
X-267090Y933970D01*
X-267370Y933050D01*
X-267830Y932190D01*
X-268450Y931450D01*
X-269190Y930830D01*
X-270050Y930380D01*
X-270970Y930090D01*
X-271940Y930000D01*
X-332570D01*
X-333530Y930090D01*
X-334450Y930380D01*
X-335310Y930830D01*
X-336060Y931450D01*
X-336670Y932190D01*
X-337130Y933050D01*
X-337400Y933970D01*
X-337500Y934940D01*
Y1037560D01*
X-337400Y1038530D01*
X-337130Y1039450D01*
X-336670Y1040310D01*
X-336060Y1041050D01*
X-335310Y1041670D01*
X-334450Y1042120D01*
X-333530Y1042410D01*
X-332570Y1042500D01*
X-271940D01*
X-270970Y1042410D01*
X-270050Y1042120D01*
X-269190Y1041670D01*
X-268450Y1041050D01*
X-267830Y1040310D01*
X-267370Y1039450D01*
X-267090Y1038530D01*
X-267000Y1037560D01*
G37*
G36*
G01Y1170060D02*
Y1067440D01*
X-267090Y1066470D01*
X-267370Y1065550D01*
X-267830Y1064690D01*
X-268450Y1063950D01*
X-269190Y1063330D01*
X-270050Y1062880D01*
X-270970Y1062590D01*
X-271940Y1062500D01*
X-332570D01*
X-333530Y1062590D01*
X-334450Y1062880D01*
X-335310Y1063330D01*
X-336060Y1063950D01*
X-336670Y1064690D01*
X-337130Y1065550D01*
X-337400Y1066470D01*
X-337500Y1067440D01*
Y1170060D01*
X-337400Y1171030D01*
X-337130Y1171950D01*
X-336670Y1172810D01*
X-336060Y1173550D01*
X-335310Y1174170D01*
X-334450Y1174620D01*
X-333530Y1174910D01*
X-332570Y1175000D01*
X-271940D01*
X-270970Y1174910D01*
X-270050Y1174620D01*
X-269190Y1174170D01*
X-268450Y1173550D01*
X-267830Y1172810D01*
X-267370Y1171950D01*
X-267090Y1171030D01*
X-267000Y1170060D01*
G37*
G36*
G01X169340Y-219340D02*
Y-103030D01*
X53030D01*
Y-219340D01*
X169340D01*
G37*
G36*
G01Y-355660D02*
Y-239340D01*
X53030D01*
Y-355660D01*
X169340D01*
G37*
G36*
G01Y-491970D02*
Y-375660D01*
X53030D01*
Y-491970D01*
X169340D01*
G37*
G36*
G01X139940Y638000D02*
X242560D01*
X243530Y637910D01*
X244450Y637630D01*
X245310Y637170D01*
X246050Y636550D01*
X246670Y635810D01*
X247120Y634950D01*
X247410Y634030D01*
X247500Y633060D01*
Y572430D01*
X247410Y571470D01*
X247120Y570550D01*
X246670Y569690D01*
X246050Y568940D01*
X245310Y568330D01*
X244450Y567870D01*
X243530Y567600D01*
X242560Y567500D01*
X139940D01*
X138970Y567600D01*
X138050Y567870D01*
X137190Y568330D01*
X136450Y568940D01*
X135830Y569690D01*
X135380Y570550D01*
X135090Y571470D01*
X135000Y572430D01*
Y633060D01*
X135090Y634030D01*
X135380Y634950D01*
X135830Y635810D01*
X136450Y636550D01*
X137190Y637170D01*
X138050Y637630D01*
X138970Y637910D01*
X139940Y638000D01*
G37*
G36*
G01X242560Y658000D02*
X139940D01*
X138970Y658100D01*
X138050Y658380D01*
X137190Y658830D01*
X136450Y659440D01*
X135830Y660190D01*
X135380Y661050D01*
X135090Y661970D01*
X135000Y662930D01*
Y723560D01*
X135090Y724530D01*
X135380Y725450D01*
X135830Y726310D01*
X136450Y727050D01*
X137190Y727670D01*
X138050Y728120D01*
X138970Y728410D01*
X139940Y728500D01*
X242560D01*
X243530Y728410D01*
X244450Y728120D01*
X245310Y727670D01*
X246050Y727050D01*
X246670Y726310D01*
X247120Y725450D01*
X247410Y724530D01*
X247500Y723560D01*
Y662930D01*
X247410Y661970D01*
X247120Y661050D01*
X246670Y660190D01*
X246050Y659440D01*
X245310Y658830D01*
X244450Y658380D01*
X243530Y658100D01*
X242560Y658000D01*
G37*
G36*
G01X-272560Y633000D02*
X-169940D01*
X-168970Y632910D01*
X-168050Y632630D01*
X-167190Y632170D01*
X-166450Y631550D01*
X-165830Y630810D01*
X-165380Y629950D01*
X-165090Y629030D01*
X-165000Y628060D01*
Y567430D01*
X-165090Y566470D01*
X-165380Y565550D01*
X-165830Y564690D01*
X-166450Y563940D01*
X-167190Y563330D01*
X-168050Y562870D01*
X-168970Y562600D01*
X-169940Y562500D01*
X-272560D01*
X-273530Y562600D01*
X-274450Y562870D01*
X-275310Y563330D01*
X-276050Y563940D01*
X-276670Y564690D01*
X-277120Y565550D01*
X-277410Y566470D01*
X-277500Y567430D01*
Y628060D01*
X-277410Y629030D01*
X-277120Y629950D01*
X-276670Y630810D01*
X-276050Y631550D01*
X-275310Y632170D01*
X-274450Y632630D01*
X-273530Y632910D01*
X-272560Y633000D01*
G37*
G36*
G01X-169940Y653000D02*
X-272560D01*
X-273530Y653100D01*
X-274450Y653380D01*
X-275310Y653830D01*
X-276050Y654440D01*
X-276670Y655190D01*
X-277120Y656050D01*
X-277410Y656970D01*
X-277500Y657930D01*
Y718560D01*
X-277410Y719530D01*
X-277120Y720450D01*
X-276670Y721310D01*
X-276050Y722050D01*
X-275310Y722670D01*
X-274450Y723120D01*
X-273530Y723410D01*
X-272560Y723500D01*
X-169940D01*
X-168970Y723410D01*
X-168050Y723120D01*
X-167190Y722670D01*
X-166450Y722050D01*
X-165830Y721310D01*
X-165380Y720450D01*
X-165090Y719530D01*
X-165000Y718560D01*
Y657930D01*
X-165090Y656970D01*
X-165380Y656050D01*
X-165830Y655190D01*
X-166450Y654440D01*
X-167190Y653830D01*
X-168050Y653380D01*
X-168970Y653100D01*
X-169940Y653000D01*
G37*
G36*
G01X-247000Y1067440D02*
Y1170060D01*
X-246900Y1171030D01*
X-246620Y1171950D01*
X-246170Y1172810D01*
X-245560Y1173550D01*
X-244810Y1174170D01*
X-243950Y1174620D01*
X-243030Y1174910D01*
X-242070Y1175000D01*
X-181440D01*
X-180470Y1174910D01*
X-179550Y1174620D01*
X-178690Y1174170D01*
X-177950Y1173550D01*
X-177330Y1172810D01*
X-176880Y1171950D01*
X-176590Y1171030D01*
X-176500Y1170060D01*
Y1067440D01*
X-176590Y1066470D01*
X-176880Y1065550D01*
X-177330Y1064690D01*
X-177950Y1063950D01*
X-178690Y1063330D01*
X-179550Y1062880D01*
X-180470Y1062590D01*
X-181440Y1062500D01*
X-242070D01*
X-243030Y1062590D01*
X-243950Y1062880D01*
X-244810Y1063330D01*
X-245560Y1063950D01*
X-246170Y1064690D01*
X-246620Y1065550D01*
X-246900Y1066470D01*
X-247000Y1067440D01*
G37*
G36*
G01Y934940D02*
Y1037560D01*
X-246900Y1038530D01*
X-246620Y1039450D01*
X-246170Y1040310D01*
X-245560Y1041050D01*
X-244810Y1041670D01*
X-243950Y1042120D01*
X-243030Y1042410D01*
X-242070Y1042500D01*
X-181440D01*
X-180470Y1042410D01*
X-179550Y1042120D01*
X-178690Y1041670D01*
X-177950Y1041050D01*
X-177330Y1040310D01*
X-176880Y1039450D01*
X-176590Y1038530D01*
X-176500Y1037560D01*
Y934940D01*
X-176590Y933970D01*
X-176880Y933050D01*
X-177330Y932190D01*
X-177950Y931450D01*
X-178690Y930830D01*
X-179550Y930380D01*
X-180470Y930090D01*
X-181440Y930000D01*
X-242070D01*
X-243030Y930090D01*
X-243950Y930380D01*
X-244810Y930830D01*
X-245560Y931450D01*
X-246170Y932190D01*
X-246620Y933050D01*
X-246900Y933970D01*
X-247000Y934940D01*
G37*
G36*
G01X305660Y-219340D02*
Y-103030D01*
X189340D01*
Y-219340D01*
X305660D01*
G37*
G36*
G01Y-355660D02*
Y-239340D01*
X189340D01*
Y-355660D01*
X305660D01*
G37*
G36*
G01Y-491970D02*
Y-375660D01*
X189340D01*
Y-491970D01*
X305660D01*
G37*
G36*
G01X441970Y-219340D02*
Y-103030D01*
X325660D01*
Y-219340D01*
X441970D01*
G37*
G36*
G01Y-355660D02*
Y-239340D01*
X325660D01*
Y-355660D01*
X441970D01*
G37*
G36*
G01Y-491970D02*
Y-375660D01*
X325660D01*
Y-491970D01*
X441970D01*
G37*
G36*
G01X272440Y638000D02*
X375060D01*
X376030Y637910D01*
X376950Y637630D01*
X377810Y637170D01*
X378550Y636550D01*
X379170Y635810D01*
X379620Y634950D01*
X379910Y634030D01*
X380000Y633060D01*
Y572430D01*
X379910Y571470D01*
X379620Y570550D01*
X379170Y569690D01*
X378550Y568940D01*
X377810Y568330D01*
X376950Y567870D01*
X376030Y567600D01*
X375060Y567500D01*
X272440D01*
X271470Y567600D01*
X270550Y567870D01*
X269690Y568330D01*
X268950Y568940D01*
X268330Y569690D01*
X267880Y570550D01*
X267590Y571470D01*
X267500Y572430D01*
Y633060D01*
X267590Y634030D01*
X267880Y634950D01*
X268330Y635810D01*
X268950Y636550D01*
X269690Y637170D01*
X270550Y637630D01*
X271470Y637910D01*
X272440Y638000D01*
G37*
G36*
G01X375060Y658000D02*
X272440D01*
X271470Y658100D01*
X270550Y658380D01*
X269690Y658830D01*
X268950Y659440D01*
X268330Y660190D01*
X267880Y661050D01*
X267590Y661970D01*
X267500Y662930D01*
Y723560D01*
X267590Y724530D01*
X267880Y725450D01*
X268330Y726310D01*
X268950Y727050D01*
X269690Y727670D01*
X270550Y728120D01*
X271470Y728410D01*
X272440Y728500D01*
X375060D01*
X376030Y728410D01*
X376950Y728120D01*
X377810Y727670D01*
X378550Y727050D01*
X379170Y726310D01*
X379620Y725450D01*
X379910Y724530D01*
X380000Y723560D01*
Y662930D01*
X379910Y661970D01*
X379620Y661050D01*
X379170Y660190D01*
X378550Y659440D01*
X377810Y658830D01*
X376950Y658380D01*
X376030Y658100D01*
X375060Y658000D01*
G37*
G36*
G01X275500Y1037560D02*
Y934940D01*
X275410Y933970D01*
X275130Y933050D01*
X274670Y932190D01*
X274050Y931450D01*
X273310Y930830D01*
X272450Y930380D01*
X271530Y930090D01*
X270560Y930000D01*
X209930D01*
X208970Y930090D01*
X208050Y930380D01*
X207190Y930830D01*
X206440Y931450D01*
X205830Y932190D01*
X205370Y933050D01*
X205100Y933970D01*
X205000Y934940D01*
Y1037560D01*
X205100Y1038530D01*
X205370Y1039450D01*
X205830Y1040310D01*
X206440Y1041050D01*
X207190Y1041670D01*
X208050Y1042120D01*
X208970Y1042410D01*
X209930Y1042500D01*
X270560D01*
X271530Y1042410D01*
X272450Y1042120D01*
X273310Y1041670D01*
X274050Y1041050D01*
X274670Y1040310D01*
X275130Y1039450D01*
X275410Y1038530D01*
X275500Y1037560D01*
G37*
G36*
G01Y1170060D02*
Y1067440D01*
X275410Y1066470D01*
X275130Y1065550D01*
X274670Y1064690D01*
X274050Y1063950D01*
X273310Y1063330D01*
X272450Y1062880D01*
X271530Y1062590D01*
X270560Y1062500D01*
X209930D01*
X208970Y1062590D01*
X208050Y1062880D01*
X207190Y1063330D01*
X206440Y1063950D01*
X205830Y1064690D01*
X205370Y1065550D01*
X205100Y1066470D01*
X205000Y1067440D01*
Y1170060D01*
X205100Y1171030D01*
X205370Y1171950D01*
X205830Y1172810D01*
X206440Y1173550D01*
X207190Y1174170D01*
X208050Y1174620D01*
X208970Y1174910D01*
X209930Y1175000D01*
X270560D01*
X271530Y1174910D01*
X272450Y1174620D01*
X273310Y1174170D01*
X274050Y1173550D01*
X274670Y1172810D01*
X275130Y1171950D01*
X275410Y1171030D01*
X275500Y1170060D01*
G37*
G36*
G01X295500Y1067440D02*
Y1170060D01*
X295600Y1171030D01*
X295880Y1171950D01*
X296330Y1172810D01*
X296940Y1173550D01*
X297690Y1174170D01*
X298550Y1174620D01*
X299470Y1174910D01*
X300430Y1175000D01*
X361060D01*
X362030Y1174910D01*
X362950Y1174620D01*
X363810Y1174170D01*
X364550Y1173550D01*
X365170Y1172810D01*
X365620Y1171950D01*
X365910Y1171030D01*
X366000Y1170060D01*
Y1067440D01*
X365910Y1066470D01*
X365620Y1065550D01*
X365170Y1064690D01*
X364550Y1063950D01*
X363810Y1063330D01*
X362950Y1062880D01*
X362030Y1062590D01*
X361060Y1062500D01*
X300430D01*
X299470Y1062590D01*
X298550Y1062880D01*
X297690Y1063330D01*
X296940Y1063950D01*
X296330Y1064690D01*
X295880Y1065550D01*
X295600Y1066470D01*
X295500Y1067440D01*
G37*
G36*
G01Y934940D02*
Y1037560D01*
X295600Y1038530D01*
X295880Y1039450D01*
X296330Y1040310D01*
X296940Y1041050D01*
X297690Y1041670D01*
X298550Y1042120D01*
X299470Y1042410D01*
X300430Y1042500D01*
X361060D01*
X362030Y1042410D01*
X362950Y1042120D01*
X363810Y1041670D01*
X364550Y1041050D01*
X365170Y1040310D01*
X365620Y1039450D01*
X365910Y1038530D01*
X366000Y1037560D01*
Y934940D01*
X365910Y933970D01*
X365620Y933050D01*
X365170Y932190D01*
X364550Y931450D01*
X363810Y930830D01*
X362950Y930380D01*
X362030Y930090D01*
X361060Y930000D01*
X300430D01*
X299470Y930090D01*
X298550Y930380D01*
X297690Y930830D01*
X296940Y931450D01*
X296330Y932190D01*
X295880Y933050D01*
X295600Y933970D01*
X295500Y934940D01*
G37*
G54D10*
X-1397500Y-447500D03*
Y-190000D03*
Y325000D03*
Y67500D03*
X-1502500Y617500D03*
X-1222500D03*
X-1117500Y-447500D03*
Y-190000D03*
Y325000D03*
Y67500D03*
X-132500Y-1115000D03*
X147500D03*
X405000Y-1465000D03*
X685000D03*
X410000Y-1737500D03*
X690000D03*
G54D11*
X-780000Y-1297500D03*
Y-1200000D03*
X-680000Y-1297500D03*
X-480000D03*
X-380000D03*
X-680000Y-1200000D03*
X-380000D03*
X-480000D03*
X-402500Y-535000D03*
X-502500D03*
X-402500Y-160000D03*
X-502500D03*
X-402500Y-412500D03*
X-502500D03*
X-402500Y-35000D03*
X-502500D03*
X-402500Y-285000D03*
X-502500D03*
X-402500Y90000D03*
X-502500D03*
X105000Y-922500D03*
X205000D03*
X657500Y-872500D03*
X757500D03*
X1065000Y-760000D03*
X965000D03*
X1065000Y-852500D03*
X965000D03*
X1052500Y-650000D03*
X1152500D03*
X982500Y-147500D03*
X1082500D03*
X1075840Y242500D03*
X880000Y142500D03*
X980000D03*
X879170Y345000D03*
X979170D03*
X980840Y242500D03*
X880840D03*
X1075000Y142500D03*
X1074170Y345000D03*
X1050000Y597500D03*
X950000D03*
Y692500D03*
X1050000D03*
X897500Y1155000D03*
X797500D03*
Y1247500D03*
X897500D03*
X1437500Y-242500D03*
X1537500D03*
Y-155000D03*
X1437500D03*
X1175840Y242500D03*
X1565840D03*
X1465840D03*
X1270000Y142500D03*
X1370000D03*
X1464170Y345000D03*
X1564170D03*
X1269170D03*
X1369170D03*
X1565000Y142500D03*
X1465000D03*
X1270840Y242500D03*
X1370840D03*
X1175000Y142500D03*
X1174170Y345000D03*
X1512500Y597500D03*
X1412500D03*
Y692500D03*
X1512500D03*
G54D20*
X-640000Y-1112500D03*
Y-1057500D03*
X-520000D03*
Y-1112500D03*
G54D21*
X140000Y-1594990D03*
Y-1345010D03*
G54D12*
X-1010000Y-1020000D03*
X-877500Y-1097500D03*
Y-997500D03*
X-1012500Y-800000D03*
Y-700000D03*
X-1010000Y-920000D03*
X-1065000Y875000D03*
Y775000D03*
X-580000Y-1300000D03*
Y-1200000D03*
X-405000Y-795000D03*
Y-695000D03*
X-525000Y875000D03*
Y775000D03*
X-590000Y570000D03*
Y670000D03*
X-520000Y1250000D03*
Y1150000D03*
X25000Y875000D03*
Y775000D03*
X-47500Y570000D03*
Y670000D03*
X17500Y1250000D03*
Y1150000D03*
X492500Y570000D03*
Y670000D03*
X647500Y597500D03*
Y697500D03*
X565000Y1250000D03*
Y1150000D03*
X752500Y597500D03*
Y697500D03*
X1140000Y595000D03*
Y695000D03*
X855000Y595000D03*
Y695000D03*
X1325000Y595000D03*
Y695000D03*
X1232500Y595000D03*
Y695000D03*
G54D22*
X172480Y-742000D03*
X122470D03*
X72460D03*
X22440D03*
X-27570D03*
X-77580D03*
X-127590D03*
Y147000D03*
X-77580D03*
X-27570D03*
X22440D03*
X72460D03*
X122470D03*
X172480D03*
X622590Y-742000D03*
X572580D03*
X522570D03*
X472560D03*
X422540D03*
X372530D03*
X322520D03*
X272510D03*
X222490D03*
Y147000D03*
X272510D03*
X322520D03*
X372530D03*
X422540D03*
X472560D03*
X522570D03*
X572580D03*
X622590D03*
G54D13*
X-845210Y-895000D03*
Y-830000D03*
Y-765000D03*
Y-700000D03*
X-579790D03*
Y-765000D03*
Y-830000D03*
Y-895000D03*
G54D14*
X-825000Y601460D03*
X-836040Y1052500D03*
X-287500Y601460D03*
X-298540Y1052500D03*
X257500Y606460D03*
X243960Y1052500D03*
G54D23*
X-197000Y-672590D03*
Y-622580D03*
Y-572570D03*
Y-522560D03*
Y-472540D03*
Y-422530D03*
Y-372520D03*
Y-322510D03*
Y-272490D03*
Y-222480D03*
Y-172470D03*
Y-122460D03*
Y-72440D03*
Y-22430D03*
Y27580D03*
Y77590D03*
X692000Y-522560D03*
Y-572570D03*
Y-622580D03*
Y-672590D03*
Y-72440D03*
Y-122460D03*
Y-172470D03*
Y-222480D03*
Y-272490D03*
Y-322510D03*
Y-372520D03*
Y-422530D03*
Y-472540D03*
Y77590D03*
Y27580D03*
Y-22430D03*
G54D24*
X402500Y-1130000D03*
X682500D03*
G54D15*
X-792500Y512500D03*
X-857500D03*
X-922500D03*
Y822500D03*
X-857500D03*
X-792500D03*
X-727500Y512500D03*
Y822500D03*
X-320000Y512500D03*
X-385000D03*
Y822500D03*
X-320000D03*
X160000Y517500D03*
Y827500D03*
X-190000Y512500D03*
X-255000D03*
Y822500D03*
X-190000D03*
X355000Y517500D03*
X290000D03*
X225000D03*
Y827500D03*
X290000D03*
X355000D03*
G54D16*
X-925000Y955000D03*
Y1020000D03*
Y1085000D03*
Y1150000D03*
X-387500Y955000D03*
Y1020000D03*
Y1085000D03*
Y1150000D03*
X-615000D03*
Y1085000D03*
Y1020000D03*
Y955000D03*
X155000D03*
Y1020000D03*
Y1085000D03*
Y1150000D03*
X-77500D03*
Y1085000D03*
Y1020000D03*
Y955000D03*
X465000Y1150000D03*
Y1085000D03*
Y1020000D03*
Y955000D03*
G54D25*
X577500Y1395000D03*
X747500D03*
X1332500Y2500D03*
X1502500D03*
G54D26*
X1152500Y-507500D03*
X982500D03*
X1152500Y-287500D03*
X982500D03*
G54D17*
X-802500Y1377500D03*
X-277500D03*
X247500D03*
G54D27*
G01X-820650Y-1890000D02*
Y-1670820D01*
G02X-1052120Y-1534770I893933J1785834D01*
G02X-1064540Y-1446030I34339J50045D01*
G03X-1124070Y-1055940I-203618J168514D01*
G02X-1217360Y-846900I114751J176548D01*
G03X-1517360Y-665730I-187122J29114D01*
G02X-1759140Y-603860I-95817J128915D01*
G02X-1569900Y997270I1759280J603816D01*
G02X-1534910Y1051760I623157J-361672D01*
G02X-1446210Y1064530I50186J-34153D01*
G03X-1013280Y1269270I168668J203439D01*
G01X-1013520Y1280740D01*
G02X-784850Y1521440I240509J482D01*
G01X-175370Y1523680D01*
X-175230D01*
G02X-162290Y1517920I229J-16900D01*
G03X150770Y1519010I156159J106977D01*
G02X163860Y1524930I13023J-11364D01*
G01X163970D01*
X773410Y1527180D01*
G02X1003710Y1277090I-10155J-240434D01*
G03X1437950Y1074980I264282J275D01*
G02X1516570Y1074590I39080J-46539D01*
G02X1779400Y543470I-1516285J-1080941D01*
G02X1769620Y-574500I-1779402J-543462D01*
G02X1521920Y-654530I-152792J49563D01*
G03X1223270Y-837910I-111751J-152883D01*
G02X1131610Y-1047640I-207976J-34001D01*
G03X1074960Y-1438140I145732J-220501D01*
G02X1063180Y-1526990I-46505J-39040D01*
G02X820650Y-1669960I-1069268J1536679D01*
G01Y-1890000D01*
X-820650D01*
G01X-1620090Y-6340D02*
G03I-79996J0D01*
G01X-1064540Y-1446030D02*
G03X-1052130Y-1534760I46758J-38693D01*
G01X-1217360Y-846900D02*
G03X-1124070Y-1055930I208039J-32485D01*
G01X-1064540Y-1446030D02*
G03X-1124070Y-1055930I-203619J168520D01*
G01X1131610Y-1047640D02*
G03X1074960Y-1438140I145730J-220500D01*
G01X1131610Y-1047640D02*
G03X1223270Y-837910I-116313J175728D01*
G01X1779890Y6180D02*
G03I-79999J1D01*
G54D18*
X-547500Y-1817500D03*
X-652500D03*
X-380000D03*
X-275000D03*
G54D19*
X-675000Y-1666500D03*
X-485000D03*
X-580000Y-1433500D03*
M02*
