G04 ================== begin FILE IDENTIFICATION RECORD ==================*
G04 Layout Name:  D:/PROJECT/FOC/CIRCUIT/CANDENCE/STM32/stspin32g4_foc.brd*
G04 Film Name:    power3*
G04 File Format:  Gerber RS274X*
G04 File Origin:  Cadence Allegro 17.4-S039*
G04 Origin Date:  Tue Dec 30 00:20:55 2025*
G04 *
G04 Layer:  VIA CLASS/POWER3*
G04 Layer:  PIN/POWER3*
G04 Layer:  ETCH/POWER3*
G04 *
G04 Offset:    (0.0000 0.0000)*
G04 Mirror:    No*
G04 Mode:      Positive*
G04 Rotation:  0*
G04 FullContactRelief:  No*
G04 UndefLineWidth:     0.1524*
G04 ================== end FILE IDENTIFICATION RECORD ====================*
%FSLAX25Y25*MOIN*%
%IR0*IPPOS*OFA0.00000B0.00000*MIA0B0*SFA1.00000B1.00000*%
%ADD10C,.023622*%
%ADD11C,.04*%
%ADD12C,.007874*%
%ADD13C,.011811*%
%ADD15C,.070886*%
%ADD14C,.043638*%
G75*
%LPD*%
G75*
G36*
G01X-65711Y31201D02*
X19091D01*
G02X19233Y31142I0J-200D01*
G02X19291Y31001I-141J-141D01*
G01Y20358D01*
G02X19233Y20217I-200J0D01*
G01X17086Y18070D01*
G02X16945Y18012I-142J141D01*
G01X102D01*
G02X-80Y18128I0J200D01*
G01X-233Y18457D01*
G02X-204Y18670I182J84D01*
G03X312Y20079I-1666J1409D01*
G03X-4052I-2182J0D01*
G03X-3536Y18670I2181J0D01*
G02X-3507Y18457I-153J-129D01*
G01X-3660Y18128D01*
G02X-3842Y18012I-181J84D01*
G01X-20035D01*
G02X-20177Y18070I0J200D01*
G01X-21042Y18935D01*
G02X-21096Y19115I142J141D01*
G01X-21096Y19119D01*
X-21095Y19120D01*
G03X-21046Y19579I-2133J459D01*
G03X-23228Y17397I-2182J0D01*
G03X-22769Y17446I-1J2182D01*
G01X-22719Y17457D01*
X-22621Y17428D01*
X-22078Y16885D01*
G02X-22035Y16820I-142J-141D01*
G02X-22078Y16603I-185J-76D01*
G01X-23367Y15315D01*
G03X-23425Y15173I141J-142D01*
G01Y-7791D01*
G03X-23367Y-7933I200J0D01*
G01X-17086Y-14213D01*
G02X-17036Y-14296I-141J-142D01*
G01X-17028Y-14325D01*
Y-27575D01*
G03X-16969Y-27716I200J0D01*
G01X-5964Y-38721D01*
G03X-5823Y-38780I142J141D01*
G01X9446D01*
G02X9587Y-38838I0J-200D01*
G02X9646Y-38980I-141J-141D01*
G01Y-53693D01*
X9567Y-53798D01*
X9504Y-53818D01*
G03X7956Y-55906I634J-2088D01*
G03X7993Y-56300I2182J4D01*
G01X7996Y-56318D01*
X8000Y-56339D01*
X8000Y-56343D01*
G02X7944Y-56519I-197J-34D01*
G02X7935Y-56527I-139J143D01*
G01X7688Y-56746D01*
G02X7556Y-56796I-132J150D01*
G01X7481D01*
X7452Y-56787D01*
G03X6791Y-56684I-660J-2079D01*
G03X4609Y-58866I0J-2182D01*
G01Y-58867D01*
G03X4712Y-59526I2182J1D01*
G01X4712Y-59528D01*
X4717Y-59542D01*
X4722Y-59574D01*
G02X4704Y-59696I-197J-32D01*
G01X4701Y-59702D01*
X4663Y-59766D01*
G02X4632Y-59806I-173J100D01*
G01X4615Y-59824D01*
X4592Y-59838D01*
X4591Y-59839D01*
G03X4346Y-60009I1121J-1872D01*
G01X4320Y-60030D01*
X4224Y-60064D01*
G02X4157Y-60076I-68J188D01*
G01X4111D01*
G02X4044Y-60064I0J200D01*
G01X3949Y-60030D01*
X3923Y-60009D01*
G03X1195I-1364J-1703D01*
G01X1169Y-60030D01*
X1074Y-60064D01*
G02X1007Y-60076I-67J189D01*
G01X961D01*
G02X894Y-60064I0J200D01*
G01X799Y-60030D01*
X773Y-60009D01*
G03X-1954I-1364J-1703D01*
G01X-1980Y-60030D01*
X-2075Y-60064D01*
G02X-2142Y-60076I-67J189D01*
G01X-2189D01*
G02X-2256Y-60064I0J200D01*
G01X-2350Y-60030D01*
X-2376Y-60009D01*
G03X-5104I-1364J-1703D01*
G01X-5130Y-60030D01*
X-5225Y-60064D01*
G02X-5292Y-60076I-67J189D01*
G01X-5338D01*
G02X-5405Y-60064I0J200D01*
G01X-5500Y-60030D01*
X-5526Y-60009D01*
G03X-8254I-1364J-1703D01*
G01X-8280Y-60030D01*
X-8374Y-60064D01*
G02X-8441Y-60076I-67J189D01*
G01X-8488D01*
G02X-8555Y-60064I0J200D01*
G01X-8650Y-60030D01*
X-8676Y-60009D01*
G03X-11403I-1364J-1703D01*
G01X-11429Y-60030D01*
X-11524Y-60064D01*
G02X-11591Y-60076I-67J189D01*
G01X-11637D01*
G02X-11704Y-60064I0J200D01*
G01X-11799Y-60030D01*
X-11825Y-60009D01*
G03X-13189Y-59531I-1364J-1703D01*
G03X-15371Y-61713I0J-2182D01*
G03X-14892Y-63076I2182J0D01*
G01X-14871Y-63102D01*
X-14837Y-63197D01*
G02X-14826Y-63264I-189J-67D01*
G01Y-63311D01*
G02X-14837Y-63378I-200J0D01*
G01X-14871Y-63472D01*
X-14892Y-63498D01*
G03Y-66226I1703J-1364D01*
G01X-14871Y-66252D01*
X-14837Y-66346D01*
G02X-14826Y-66414I-189J-67D01*
G01Y-66460D01*
G02X-14837Y-66527I-200J0D01*
G01X-14871Y-66622D01*
X-14892Y-66648D01*
G03X-15371Y-68012I1703J-1364D01*
G03X-13189Y-70194I2182J0D01*
G01X-13188D01*
G03X-12639Y-70123I0J2182D01*
G01X-12587Y-70110D01*
X-12485Y-70137D01*
X-12209Y-70413D01*
G02X-12151Y-70554I-141J-142D01*
G01Y-70611D01*
X-12157Y-70634D01*
G03X-12221Y-71161I2117J-527D01*
G03X-10039Y-73343I2182J-1D01*
G03X-8676Y-72865I0J2182D01*
G01X-8650Y-72844D01*
X-8555Y-72810D01*
G02X-8488Y-72798I67J-189D01*
G01X-8441D01*
G02X-8374Y-72810I0J-200D01*
G01X-8280Y-72844D01*
X-8254Y-72865D01*
G03X-5526I1364J1703D01*
G01X-5500Y-72844D01*
X-5405Y-72810D01*
G02X-5338Y-72798I67J-189D01*
G01X-5292D01*
G02X-5225Y-72810I0J-200D01*
G01X-5130Y-72844D01*
X-5104Y-72865D01*
G03X-2376I1364J1703D01*
G01X-2350Y-72844D01*
X-2256Y-72810D01*
G02X-2189Y-72798I67J-189D01*
G01X-2142D01*
G02X-2075Y-72810I0J-200D01*
G01X-1980Y-72844D01*
X-1954Y-72865D01*
G03X773I1364J1703D01*
G01X799Y-72844D01*
X894Y-72810D01*
G02X961Y-72798I67J-189D01*
G01X1007D01*
G02X1074Y-72810I0J-200D01*
G01X1169Y-72844D01*
X1195Y-72865D01*
G03X3923I1364J1703D01*
G01X3949Y-72844D01*
X4044Y-72810D01*
G02X4111Y-72798I67J-189D01*
G01X4157D01*
G02X4224Y-72810I0J-200D01*
G01X4319Y-72844D01*
X4345Y-72865D01*
G03X7072I1364J1703D01*
G01X7098Y-72844D01*
X7193Y-72810D01*
G02X7260Y-72798I67J-189D01*
G01X7307D01*
G02X7374Y-72810I0J-200D01*
G01X7469Y-72844D01*
X7494Y-72865D01*
G03X8858Y-73343I1364J1703D01*
G03X9185Y-73319I-1J2182D01*
G02X9346Y-73365I31J-198D01*
G01X9576Y-73563D01*
G02X9646Y-73714I-130J-152D01*
G01Y-73815D01*
G02X9446Y-74015I-200J0D01*
G01X-31715D01*
G02X-31915Y-73815I0J200D01*
G01Y-65536D01*
G02X-41231Y-60076I34803J70063D01*
G02X-41235Y-60074I113J165D01*
G02X-41607Y-57182I1165J1620D01*
G03X-44040Y-41242I-8320J6886D01*
G02X-47538Y-33403I4303J6620D01*
G03X-59974Y-25893I-7756J1207D01*
G02X-68885Y-23642I-3538J4759D01*
G02X-68893Y-23622I181J84D01*
G02X-65862Y31086I68898J23621D01*
G02X-65742Y31191I181J-85D01*
G01X-65711Y31201D01*
G37*
%LPC*%
G75*
G36*
G01X-48878Y17779D02*
X-48760D01*
G03X-48633Y17824I0J200D01*
G02X-45855I1389J-1683D01*
G03X-45728Y17779I127J154D01*
G01X-45611D01*
G03X-45483Y17824I0J200D01*
G02X-44094Y18324I1389J-1683D01*
G02X-41913Y16142I0J-2182D01*
G02X-41983Y15591I-2182J0D01*
G01X-41996Y15540D01*
X-41969Y15437D01*
X-41649Y15118D01*
X-41547Y15090D01*
X-41495Y15104D01*
G02X-40945Y15174I550J-2111D01*
G02X-38763Y12992I0J-2182D01*
G02X-39262Y11603I-2182J0D01*
G03X-39308Y11476I154J-127D01*
G01Y11359D01*
G03X-39262Y11231I200J0D01*
G02Y8454I-1683J-1389D01*
G03X-39308Y8326I154J-127D01*
G01Y8209D01*
G03X-39262Y8082I200J0D01*
G02X-38763Y6693I-1683J-1389D01*
G02X-39262Y5304I-2182J0D01*
G03X-39308Y5177I154J-127D01*
G01Y5059D01*
G03X-39262Y4932I200J0D01*
G02Y2154I-1683J-1389D01*
G03X-39308Y2027I154J-127D01*
G01Y1910D01*
G03X-39262Y1783I200J0D01*
G02Y-995I-1683J-1389D01*
G03X-39308Y-1122I154J-127D01*
G01Y-1240D01*
G03X-39262Y-1367I200J0D01*
G02Y-4145I-1683J-1389D01*
G03X-39308Y-4272I154J-127D01*
G01Y-4389D01*
G03X-39262Y-4517I200J0D01*
G02Y-7294I-1683J-1389D01*
G03X-39308Y-7422I154J-127D01*
G01Y-7539D01*
G03X-39262Y-7666I200J0D01*
G02Y-10444I-1683J-1389D01*
G03X-39308Y-10571I154J-127D01*
G01Y-10689D01*
G03X-39262Y-10816I200J0D01*
G02X-38763Y-12205I-1683J-1389D01*
G02X-40945Y-14387I-2182J0D01*
G02X-42334Y-13887I0J2182D01*
G03X-42461Y-13842I-127J-154D01*
G01X-42578D01*
G03X-42706Y-13887I0J-200D01*
G02X-45483I-1389J1683D01*
G03X-45611Y-13842I-127J-154D01*
G01X-45728D01*
G03X-45855Y-13887I0J-200D01*
G02X-48633I-1389J1683D01*
G03X-48760Y-13842I-127J-154D01*
G01X-48878D01*
G03X-49005Y-13887I0J-200D01*
G02X-50394Y-14387I-1389J1683D01*
G02X-52576Y-12205I0J2182D01*
G02X-52076Y-10816I2182J0D01*
G03X-52031Y-10689I-154J127D01*
G01Y-10571D01*
G03X-52076Y-10444I-200J0D01*
G02Y-7666I1683J1389D01*
G03X-52031Y-7539I-154J127D01*
G01Y-7422D01*
G03X-52076Y-7294I-200J0D01*
G02Y-4517I1683J1389D01*
G03X-52031Y-4389I-154J127D01*
G01Y-4272D01*
G03X-52076Y-4145I-200J0D01*
G02Y-1367I1683J1389D01*
G03X-52031Y-1240I-154J127D01*
G01Y-1122D01*
G03X-52076Y-995I-200J0D01*
G02Y1783I1683J1389D01*
G03X-52031Y1910I-154J127D01*
G01Y2027D01*
G03X-52076Y2154I-200J0D01*
G02Y4932I1683J1389D01*
G03X-52031Y5059I-154J127D01*
G01Y5177D01*
G03X-52076Y5304I-200J0D01*
G02X-52576Y6693I1683J1389D01*
G02X-52076Y8082I2182J0D01*
G03X-52031Y8209I-154J127D01*
G01Y8326D01*
G03X-52076Y8454I-200J0D01*
G02Y11231I1683J1389D01*
G03X-52031Y11359I-154J127D01*
G01Y11476D01*
G03X-52076Y11603I-200J0D01*
G02Y14381I1683J1389D01*
G03X-52031Y14508I-154J127D01*
G01Y14626D01*
G03X-52076Y14753I-200J0D01*
G02X-52576Y16142I1683J1389D01*
G02X-50394Y18324I2182J0D01*
G02X-49005Y17824I0J-2182D01*
G03X-48878Y17779I127J154D01*
G37*
G36*
G01X-25467Y-62890D02*
G02X-27170Y-63708I-1703J1364D01*
G02Y-59344I0J2182D01*
G02X-25209Y-60569I0J-2182D01*
G03X-24538Y-60644I360J175D01*
G02X-22835Y-59826I1703J-1364D01*
G02X-20967Y-60880I0J-2182D01*
G01X-20939Y-60927D01*
X-20842Y-60979D01*
X-20381Y-60959D01*
X-20290Y-60898D01*
X-20266Y-60849D01*
G02X-18307Y-59629I1959J-962D01*
G02Y-63993I0J-2182D01*
G02X-20175Y-62939I0J2182D01*
G01X-20203Y-62892D01*
X-20300Y-62840D01*
X-20760Y-62860D01*
X-20852Y-62920D01*
X-20876Y-62970D01*
G02X-22835Y-64190I-1959J962D01*
G02X-24796Y-62965I0J2182D01*
G03X-25467Y-62890I-360J-175D01*
G37*
G54D15*
X-66933Y-250D03*
G54D14*
X-38484Y-34646D03*
X-28445Y-28445D03*
%LPD*%
G75*
G54D10*
X-70768Y-9154D03*
Y-6004D03*
Y3445D03*
Y6594D03*
Y9744D03*
X-64469Y-24902D03*
X-61319D03*
X-67618Y-21752D03*
X-64469D03*
X-61319D03*
X-58169D03*
X-67618Y-18602D03*
X-64469D03*
X-61319D03*
X-58169D03*
X-67618Y-15453D03*
X-64469D03*
X-61319D03*
X-58169D03*
X-67618Y-12303D03*
X-64469D03*
X-61319D03*
X-58169D03*
X-67618Y-9154D03*
X-64469D03*
X-61319D03*
X-58169D03*
X-67618Y-6004D03*
X-64469D03*
X-61319D03*
X-58169D03*
X-61319Y-2854D03*
X-58169D03*
X-61319Y295D03*
X-58169D03*
X-61319Y3445D03*
X-58169D03*
X-67618Y6594D03*
X-64469D03*
X-61319D03*
X-58169D03*
X-67618Y9744D03*
X-64469D03*
X-61319D03*
X-58169D03*
X-67618Y12894D03*
X-64469D03*
X-61319D03*
X-58169D03*
X-67618Y16043D03*
X-64469D03*
X-61319D03*
X-58169D03*
X-67618Y19193D03*
X-64469D03*
X-61319D03*
X-58169D03*
X-51575Y33465D03*
Y36614D03*
X-67618Y22343D03*
X-64469D03*
X-61319D03*
X-58169D03*
X-64469Y25492D03*
X-61319D03*
X-58169D03*
X-64469Y28642D03*
X-61319D03*
X-58169D03*
X-38484Y-34646D03*
X-34744Y-19094D03*
Y-15945D03*
X-50394Y-12205D03*
X-47244D03*
X-44094D03*
X-40945D03*
X-50394Y-9055D03*
X-47244D03*
X-44094D03*
X-40945D03*
X-50394Y-5906D03*
X-47244D03*
X-44094D03*
X-40945D03*
X-50394Y-2756D03*
X-47244D03*
X-44094D03*
X-40945D03*
X-50394Y394D03*
X-47244D03*
X-44094D03*
X-40945D03*
X-34744Y-12795D03*
Y-9646D03*
Y-6496D03*
Y-3346D03*
Y-197D03*
Y2953D03*
X-50394Y3543D03*
X-47244D03*
X-44094D03*
X-40945D03*
X-50394Y6693D03*
X-47244D03*
X-44094D03*
X-40945D03*
X-50394Y9843D03*
X-47244D03*
X-44094D03*
X-40945D03*
X-50394Y12992D03*
X-47244D03*
X-44094D03*
X-40945D03*
X-50394Y16142D03*
X-47244D03*
X-44094D03*
X-36417Y20472D03*
X-34449D03*
X-34744Y6102D03*
Y9252D03*
Y12402D03*
X-48425Y33465D03*
X-45276D03*
X-48425Y36614D03*
X-45276D03*
X-36417Y22441D03*
X-34449D03*
X-36417Y24409D03*
X-34449D03*
X-36417Y26378D03*
X-34449D03*
X-22835Y-62008D03*
X-27170Y-61526D03*
X-18307Y-61811D03*
X-28445Y-28445D03*
X-31594Y-19094D03*
Y-15945D03*
Y-12795D03*
X-17022Y8231D03*
X-15429Y10609D03*
X-32480Y20472D03*
X-30512D03*
X-28543D03*
X-16043Y20079D03*
X-23228Y19579D03*
X-21358Y38189D03*
X-24311Y38091D03*
X-18701D03*
X-29626Y35236D03*
X-32480Y22441D03*
X-30512D03*
X-28543D03*
X-26575D03*
X-32480Y24409D03*
X-30512D03*
X-28543D03*
X-26575D03*
X-32480Y26378D03*
X-30512D03*
X-28543D03*
X-26575D03*
X-32480Y28346D03*
X-30512D03*
X-28543D03*
X-26575D03*
X-16043Y22047D03*
Y24016D03*
Y25984D03*
X-21457Y41929D03*
X-24213D03*
X-18799Y41831D03*
X-23327Y53248D03*
X-20177D03*
X-17028D03*
X-23327Y56398D03*
X-20177D03*
X-17028D03*
X-10039Y-71161D03*
X-6890D03*
X-3740D03*
X-591D03*
X2559D03*
X-13189Y-68012D03*
X-10039D03*
X-6890D03*
X-3740D03*
X-591D03*
X2559D03*
X-13189Y-64862D03*
X-10039D03*
X-6890D03*
X-3740D03*
X-591D03*
X2559D03*
X-13189Y-61713D03*
X-10039D03*
X-6890D03*
X-3740D03*
X-591D03*
X2559D03*
X-3674Y-16189D03*
X-11Y-19120D03*
X-4461Y-24144D03*
X-140Y-23542D03*
X-13484Y-27362D03*
X1476Y-14075D03*
X-1673Y-10925D03*
X1476D03*
X-1673Y-7776D03*
X1476D03*
X-2756Y-4528D03*
X99Y-4737D03*
X3051Y-1181D03*
X-13197Y12402D03*
X-10335D03*
X-7177Y9154D03*
X-7283Y12500D03*
X-14075Y20079D03*
X-12106D03*
X-10138D03*
X-8169D03*
X3156Y9709D03*
X-1085Y10731D03*
X-1870Y20079D03*
X-2953Y38386D03*
X-197Y38484D03*
X2657Y38386D03*
X-7776Y35138D03*
X-14075Y22047D03*
X-12106D03*
X-10138D03*
X-8169D03*
X-6201D03*
X-14075Y24016D03*
X-12106D03*
X-10138D03*
X-8169D03*
X-6201D03*
X-14075Y25984D03*
X-12106D03*
X-10138D03*
X-8169D03*
X-6201D03*
X-10138Y27953D03*
X-8169D03*
X-6201D03*
X-2953Y41240D03*
X-197Y41339D03*
X2657D03*
X-4528Y53543D03*
X-1378D03*
X1772D03*
X5709Y-71161D03*
X8858D03*
X12008D03*
X15157D03*
X18012D03*
X21161D03*
X13386Y-55906D03*
X13488Y-58766D03*
X6791Y-58866D03*
X10138Y-58768D03*
Y-55906D03*
X5709Y-68012D03*
X8858D03*
X12008D03*
X15157D03*
X5709Y-64862D03*
X8858D03*
X12008D03*
X15157D03*
X5709Y-61713D03*
X8858D03*
X12008D03*
X15157D03*
X18012Y-68012D03*
X21161D03*
X18012Y-64862D03*
X21161D03*
X18012Y-61713D03*
X21161D03*
X17126Y-51575D03*
X20866Y-45374D03*
X3543Y-45276D03*
X6693D03*
X9843D03*
X3543Y-42126D03*
X6693D03*
X9843D03*
Y-38976D03*
X20177Y-25787D03*
X8526Y-21444D03*
X17240Y-22555D03*
X3839Y-21752D03*
X12806Y-22292D03*
X4626Y-10925D03*
Y-7776D03*
X16339Y-1181D03*
X16437Y1870D03*
X16929Y9843D03*
X11417Y35236D03*
X6594Y21654D03*
X8563D03*
X10531D03*
X12500D03*
X14469D03*
X6594Y23622D03*
X8563D03*
X10531D03*
X12500D03*
X14469D03*
X6594Y25591D03*
X8563D03*
X10531D03*
X12500D03*
X14469D03*
X6594Y27559D03*
X8563D03*
X10531D03*
X12500D03*
X14469D03*
X18602Y38780D03*
X18996Y54921D03*
X18602Y41634D03*
X35138Y-32087D03*
X30998Y-30709D03*
X21654Y-8268D03*
X38550Y13583D03*
X33957Y32480D03*
X23327Y34646D03*
X24705Y51083D03*
X38091Y41732D03*
X21457Y38878D03*
X21555Y41634D03*
X24409Y38976D03*
Y41634D03*
X41831Y-37500D03*
X53346Y-20571D03*
X56496D03*
X54921Y-14173D03*
X46260Y13583D03*
X40551Y7677D03*
X55807Y7579D03*
X53937Y13615D03*
X49356Y20321D03*
X56173Y19715D03*
X44783Y20563D03*
Y33268D03*
X41339Y23524D03*
X52689Y30709D03*
X48327D03*
X59646Y-23720D03*
X62795D03*
X65945D03*
X59646Y-20571D03*
X62795D03*
X65945D03*
X59646Y-17421D03*
X69094D03*
Y-14272D03*
X70472Y-9449D03*
X67323Y-6299D03*
X70472D03*
X66339Y15650D03*
X66437Y12205D03*
X69783Y11909D03*
Y8268D03*
X69980Y5020D03*
X69094Y17520D03*
X59231Y16603D03*
X65256Y7382D03*
X62894Y19980D03*
G54D11*
X34646Y-52854D03*
Y-38091D03*
Y-43012D03*
Y-47933D03*
G54D12*
G01X-30709Y2067D02*
X-34744Y6102D01*
G01X38550Y13583D02*
X20538Y-4429D01*
X16142D01*
X9654Y2059D01*
X-22154D01*
X-22162Y2067D01*
X-30709D01*
G01X17126Y-51575D02*
Y-36811D01*
X14666Y-34350D01*
X6693D01*
X591Y-28248D01*
X-6293D01*
X-7823Y-26718D01*
Y-22412D01*
X-3674Y-18263D01*
Y-16189D01*
G01X20866Y-45374D02*
Y-38681D01*
X14961Y-32776D01*
X7087D01*
X1215Y-26904D01*
X-4635D01*
X-6535Y-25004D01*
Y-23284D01*
X-2372Y-19120D01*
X-11D01*
G01X-4461Y-24144D02*
X-2987Y-25617D01*
X1896D01*
X7677Y-31398D01*
X18110D01*
X34646Y-47933D01*
G01Y-43012D02*
X21457Y-29823D01*
X8216D01*
X1935Y-23542D01*
X-140D01*
G01X3839Y-21752D02*
X10531Y-28445D01*
X28734D01*
X30998Y-30709D01*
G01X41339Y23524D02*
X38091D01*
X16437Y1870D01*
G01X38091Y41732D02*
Y31004D01*
X16929Y9843D01*
G01X54921Y-14173D02*
X50000Y-19094D01*
Y-23228D01*
X46063Y-27165D01*
Y-36811D01*
X37539Y-45335D01*
Y-49961D01*
X34646Y-52854D01*
G01X38550Y13583D02*
X40748D01*
X43012Y11319D01*
X61319D01*
X65256Y7382D01*
G01X62894Y19980D02*
X59350Y23524D01*
X41339D01*
G54D13*
G01X-32571Y14575D02*
X-34744Y12402D01*
G01X18996Y54921D02*
Y52461D01*
X28839Y42618D01*
Y25689D01*
X6693Y3543D01*
X-21539D01*
X-32571Y14575D01*
G01X3156Y9709D02*
X895Y7448D01*
X-3413D01*
X-4626Y8662D01*
Y14863D01*
X-6299Y16535D01*
X-20185D01*
X-23228Y19579D01*
G01X3051Y-1181D02*
X-3248D01*
X-13484Y-11417D01*
Y-27362D01*
G01X-1085Y10731D02*
Y17022D01*
X-1870Y17807D01*
Y20079D01*
M02*
