G04 ================== begin FILE IDENTIFICATION RECORD ==================*
G04 Layout Name:  D:/PROJECT/07_FOC/FOC/CIRCUIT/CANDENCE/STM32/stspin32g4_foc.brd*
G04 Film Name:    silktop*
G04 File Format:  Gerber RS274X*
G04 File Origin:  Cadence Allegro 17.4-S039*
G04 Origin Date:  Thu Nov 13 09:35:22 2025*
G04 *
G04 Layer:  REF DES/SILKSCREEN_TOP*
G04 Layer:  PACKAGE GEOMETRY/SILKSCREEN_TOP*
G04 Layer:  BOARD GEOMETRY/SILKSCREEN_TOP*
G04 Layer:  BOARD GEOMETRY/OUTLINE*
G04 *
G04 Offset:    (0.0000 0.0000)*
G04 Mirror:    No*
G04 Mode:      Positive*
G04 Rotation:  0*
G04 FullContactRelief:  No*
G04 UndefLineWidth:     0.1524*
G04 ================== end FILE IDENTIFICATION RECORD ====================*
%FSLAX25Y25*MOIN*%
%IR0*IPPOS*OFA0.00000B0.00000*MIA0B0*SFA1.00000B1.00000*%
%ADD10C,.003937*%
%ADD11C,.007874*%
%ADD12C,.004724*%
%ADD13C,.005906*%
%ADD14C,.005909*%
%ADD15C,.005*%
%ADD16C,.006*%
%ADD17C,.001969*%
G75*
%LPD*%
G75*
G36*
G01X-2304Y-31813D02*
Y-32813D01*
X-3804D01*
Y-31813D01*
X-2304D01*
G37*
G36*
G01X-11356Y-11478D02*
Y-9978D01*
X-10356D01*
Y-11478D01*
X-11356D01*
G37*
G36*
G01X-335Y8387D02*
Y9387D01*
X-1835D01*
Y8387D01*
X-335D01*
G37*
G36*
G01X17385Y-31813D02*
Y-32813D01*
X15885D01*
Y-31813D01*
X17385D01*
G37*
G36*
G01X19355Y8387D02*
Y9387D01*
X17855D01*
Y8387D01*
X19355D01*
G37*
G36*
G01X30844Y-9509D02*
Y-8009D01*
X29844D01*
Y-9509D01*
X30844D01*
G37*
G54D10*
G01X-28740Y-73524D02*
Y-69587D01*
G01X-28346D02*
Y-73524D01*
G01X-19291Y-69587D02*
Y-73524D01*
X-27953D01*
Y-69587D01*
X-19291D01*
G01X-17224Y-73524D02*
Y-69587D01*
X-8563D01*
Y-73524D01*
X-17224D01*
G01X-7776Y-69587D02*
Y-73524D01*
G01X-8169D02*
Y-69587D01*
G54D11*
G01X-40208Y-11890D02*
X-58808D01*
G01X-58828Y-11897D02*
G02Y-3097I13471J4400D01*
G01X-40208Y-13209D02*
X-58808D01*
G01X-40208Y-22028D02*
X-58808D01*
G01X-58828Y-22035D02*
G02Y-13235I13471J4400D01*
G01X-40208Y8386D02*
X-58808D01*
G01X-58828Y8379D02*
G02Y17179I13471J4400D01*
G01X-40208Y7067D02*
X-58808D01*
G01X-40208Y-1752D02*
X-58808D01*
G01X-58828Y-1759D02*
G02Y7041I13471J4400D01*
G01X-40208Y-3071D02*
X-58808D01*
G01X-44342Y28720D02*
X-62942D01*
G01X-44342Y19902D02*
X-62942D01*
G01X-62962Y19894D02*
G02Y28694I13471J4400D01*
G01X-40208Y17205D02*
X-58808D01*
G01X-36614Y-37303D02*
X-32480D01*
Y-45177D01*
X-36614D01*
Y-37303D01*
G01X-37795Y-25984D02*
G03X-41929I-2067J-3559D01*
G01Y-33071D01*
G03X-37795I2067J3559D01*
G01Y-25984D01*
G01X-41831Y-34252D02*
X-37697D01*
Y-42126D01*
X-41831D01*
Y-34252D01*
G01X-40208Y-3080D02*
G02Y-11880I-13471J-4400D01*
G01Y-13218D02*
G02Y-22018I-13471J-4400D01*
G01Y17195D02*
G02Y8395I-13471J-4400D01*
G01Y7057D02*
G02Y-1743I-13471J-4400D01*
G01X-44342Y28711D02*
G02Y19911I-13471J-4400D01*
G01X-39862Y28543D02*
X-43996D01*
Y36417D01*
X-39862D01*
Y28543D01*
G01X-39173Y19882D02*
X-38201D01*
G01X-39173Y20854D02*
Y19882D01*
G01Y32677D02*
Y31705D01*
G01Y32677D02*
X-38201D01*
G01X-35740Y34744D02*
X-36713D01*
G01Y35717D02*
Y34744D01*
G01Y48130D02*
Y47157D01*
G01X-35740Y48130D02*
X-36713D01*
G01X-25197Y-53150D02*
G03Y-49016I-3559J2067D01*
G01X-32283D01*
G03Y-53150I3559J-2067D01*
G01X-25197D01*
G01X-20768Y-45669D02*
G03X-24902I-2067J-3559D01*
G01Y-52756D01*
G03X-20768I2067J3559D01*
G01Y-45669D01*
G01X-13386Y-53150D02*
G03Y-49016I-3559J2067D01*
G01X-20472D01*
G03Y-53150I3559J-2067D01*
G01X-13386D01*
G01X-32677Y-49311D02*
Y-45177D01*
X-24803D01*
Y-49311D01*
X-32677D01*
G01X-20866D02*
Y-45177D01*
X-12992D01*
Y-49311D01*
X-20866D01*
G01X-13878Y-25787D02*
G03X-18012I-2067J-3559D01*
G01Y-32874D01*
G03X-13878I2067J3559D01*
G01Y-25787D01*
G01X-21358Y-4232D02*
G03Y-8366I3559J-2067D01*
G01X-14272D01*
G03Y-4232I-3559J2067D01*
G01X-21358D01*
G01Y-14173D02*
G03Y-18307I3559J-2067D01*
G01X-14272D01*
G03Y-14173I-3559J2067D01*
G01X-21358D01*
G01X-21752Y-13287D02*
Y-9154D01*
X-13878D01*
Y-13287D01*
X-21752D01*
G01Y-23130D02*
Y-18996D01*
X-13878D01*
Y-23130D01*
X-21752D01*
G01X-21358Y5610D02*
G03Y1476I3559J-2067D01*
G01X-14272D01*
G03Y5610I-3559J2067D01*
G01X-21358D01*
G01X-21752Y-3445D02*
Y689D01*
X-13878D01*
Y-3445D01*
X-21752D01*
G01X-18602Y28543D02*
X-22736D01*
Y36417D01*
X-18602D01*
Y28543D01*
G01X-25295Y28346D02*
X-21161D01*
Y20472D01*
X-25295D01*
Y28346D01*
G01X-25787Y20854D02*
Y19882D01*
G01X-26760D02*
X-25787D01*
G01Y32677D02*
Y28248D01*
G01X-18012Y19882D02*
X-17039D01*
G01X-18012Y20854D02*
Y19882D01*
G01X-18406Y43307D02*
X-22539D01*
Y51181D01*
X-18406D01*
Y43307D01*
G01X-26760Y32677D02*
X-25787D01*
G01X-23917Y48130D02*
X-24890D01*
G01X-23917D02*
Y47157D01*
G01Y35717D02*
Y34744D01*
G01D02*
X-28346D01*
G01X-18012Y32677D02*
Y31705D01*
G01Y32677D02*
X-17039D01*
G01X9595Y-48307D02*
X-9005D01*
G01X-9025Y-48314D02*
G02Y-39514I13471J4400D01*
G01X9595Y-39488D02*
X-9005D01*
G01X3051Y28543D02*
X-1083D01*
Y36417D01*
X3051D01*
Y28543D01*
G01X-3937Y28346D02*
X197D01*
Y20472D01*
X-3937D01*
Y28346D01*
G01X-4626Y20854D02*
Y19882D01*
G01X-5598D02*
X-4626D01*
G01Y32677D02*
Y28248D01*
G01X2756Y43307D02*
X-1378D01*
Y51181D01*
X2756D01*
Y43307D01*
G01X-14579Y34744D02*
X-15551D01*
G01Y35717D02*
Y34744D01*
G01Y48130D02*
Y47157D01*
G01X-14579Y48130D02*
X-15551D01*
G01X-2756D02*
X-3728D01*
G01X-2756D02*
Y47157D01*
G01Y35717D02*
Y34744D01*
G01D02*
X-7185D01*
G01X-5598Y32677D02*
X-4626D01*
G01X30757Y-62087D02*
X12157D01*
G01X12136Y-62094D02*
G02Y-53294I13471J4400D01*
G01X30954Y-63996D02*
X12354D01*
G01X30954Y-72815D02*
X12354D01*
G01X12333Y-72822D02*
G02Y-64022I13471J4400D01*
G01X30757Y-53268D02*
X12157D01*
G01X9595Y-39498D02*
G02Y-48298I-13471J-4400D01*
G01X15059Y-50669D02*
X30958D01*
Y-38307D01*
X11758D01*
Y-50669D01*
X15059D01*
G01X9646Y-38386D02*
G03Y-34252I-3559J2067D01*
G01X2559D01*
G03Y-38386I3559J-2067D01*
G01X9646D01*
G01X17323Y28346D02*
X21457D01*
Y20472D01*
X17323D01*
Y28346D01*
G01X16831Y21051D02*
Y20079D01*
G01X15858D02*
X16831D01*
G01X3445D02*
X4417D01*
G01X3445Y21051D02*
Y20079D01*
G01X16831Y32874D02*
Y28445D01*
G01X24311Y43307D02*
X20177D01*
Y51181D01*
X24311D01*
Y43307D01*
G01X3445Y32874D02*
Y31902D01*
G01Y32874D02*
X4417D01*
G01X15858D02*
X16831D01*
G01X6780Y34744D02*
X5807D01*
G01Y35717D02*
Y34744D01*
G01Y48130D02*
Y47157D01*
G01X6780Y48130D02*
X5807D01*
G01X18602D02*
X17630D01*
G01X18602D02*
Y47157D01*
G01Y35717D02*
Y34744D01*
G01D02*
X14173D01*
G01X29232Y57756D02*
X19683D01*
Y52087D01*
X32483D01*
Y57756D01*
X29232D01*
G01X30757Y-53277D02*
G02Y-62077I-13471J-4400D01*
G01X30954Y-64006D02*
G02Y-72806I-13471J-4400D01*
G01X24311Y-32283D02*
G03Y-36417I3559J-2067D01*
G01X31398D01*
G03Y-32283I-3559J2067D01*
G01X24311D01*
G01X36417Y-27854D02*
G03Y-31988I3559J-2067D01*
G01X43504D01*
G03Y-27854I-3559J2067D01*
G01X36417D01*
G01Y-31496D02*
G03Y-35630I3559J-2067D01*
G01X43504D01*
G03Y-31496I-3559J2067D01*
G01X36417D01*
G01X44193Y-7874D02*
G03Y-3740I-3559J2067D01*
G01X37106D01*
G03Y-7874I3559J-2067D01*
G01X44193D01*
G01X40157Y3543D02*
G03Y7677I-3559J2067D01*
G01X33071D01*
G03Y3543I3559J-2067D01*
G01X40157D01*
G01X40519Y15650D02*
Y11516D01*
X32644D01*
Y15650D01*
X40519D01*
G01X32710Y7480D02*
Y11614D01*
X40584D01*
Y7480D01*
X32710D01*
G01X35433Y21457D02*
Y25591D01*
X43307D01*
Y21457D01*
X35433D01*
G01X27559Y29429D02*
X31693D01*
Y21555D01*
X27559D01*
Y29429D01*
G01X43307Y29331D02*
Y25197D01*
X35433D01*
Y29331D01*
X43307D01*
G01X23425Y29429D02*
X27559D01*
Y21555D01*
X23425D01*
Y29429D01*
G01X31594Y29331D02*
X35728D01*
Y21457D01*
X31594D01*
Y29331D01*
G01X29823Y47539D02*
G03Y43406I3559J-2067D01*
G01X36909D01*
G03Y47539I-3559J2067D01*
G01X29823D01*
G01X37303Y51181D02*
Y47047D01*
X29429D01*
Y51181D01*
X37303D01*
G01X46949Y-27657D02*
G03Y-23524I-3559J2067D01*
G01X39862D01*
G03Y-27657I3559J-2067D01*
G01X46949D01*
G01X62106Y-11614D02*
G03Y-7480I-3559J2067D01*
G01X55020D01*
G03Y-11614I3559J-2067D01*
G01X62106D01*
G01X54626Y-8169D02*
Y-4035D01*
X62500D01*
Y-8169D01*
X54626D01*
G01X40781Y11614D02*
G03Y7480I3559J-2067D01*
G01X47868D01*
G03Y11614I-3559J2067D01*
G01X40781D01*
G01X55742Y7480D02*
Y11614D01*
X63616D01*
Y7480D01*
X55742D01*
G01X55906Y7677D02*
Y3543D01*
X48031D01*
Y7677D01*
X55906D01*
G01X63550Y15650D02*
Y11516D01*
X55676D01*
Y15650D01*
X63550D01*
G01X55873D02*
Y11516D01*
X47999D01*
Y15650D01*
X55873D01*
G01X55709Y3543D02*
Y7677D01*
X63583D01*
Y3543D01*
X55709D01*
G01X55939Y11614D02*
Y7480D01*
X48065D01*
Y11614D01*
X55939D01*
G01X40354Y3543D02*
Y7677D01*
X48228D01*
Y3543D01*
X40354D01*
G01X48196Y15650D02*
Y11516D01*
X40322D01*
Y15650D01*
X48196D01*
G01X52657Y-2736D02*
X62207D01*
Y2933D01*
X49407D01*
Y-2736D01*
X52657D01*
G01X53642Y21457D02*
Y25591D01*
X61516D01*
Y21457D01*
X53642D01*
G01X50098Y29331D02*
X54232D01*
Y21457D01*
X50098D01*
Y29331D01*
G01X61516D02*
Y25197D01*
X53642D01*
Y29331D01*
X61516D01*
G01X42815D02*
X46949D01*
Y21457D01*
X42815D01*
Y29331D01*
G01X46457D02*
X50591D01*
Y21457D01*
X46457D01*
Y29331D01*
G54D12*
G01X-28445Y-64370D02*
X-28937D01*
Y-57677D01*
X-24705D01*
G01X-17224Y-64370D02*
X-16732D01*
Y-57677D01*
X-20965D01*
G54D13*
G01X7087Y-46850D02*
X3937D01*
G01X5512Y-45276D02*
Y-48425D01*
G54D14*
G01X8662Y-50000D02*
Y-64961D01*
G01D02*
X7874Y-65748D01*
G01D02*
X3150D01*
G01D02*
X2362Y-64961D01*
G01D02*
Y-50000D01*
G01D02*
X8662D01*
G01X3937Y-57323D02*
X7087D01*
G01D02*
X5473Y-58937D01*
G01D02*
X3937Y-57402D01*
G01D02*
Y-57323D01*
G54D15*
G01X-67414Y-5518D02*
X-67644Y-5368D01*
X-67913Y-5268D01*
X-68219D01*
X-68564Y-5418D01*
X-68832Y-5668D01*
X-69024Y-5968D01*
X-69178Y-6468D01*
X-69216Y-6918D01*
X-69139Y-7368D01*
X-69024Y-7668D01*
X-68794Y-7968D01*
X-68526Y-8168D01*
X-68257Y-8268D01*
X-67989D01*
X-67721Y-8168D01*
X-67491Y-8018D01*
X-67299Y-7818D01*
G01X-65886Y-5768D02*
X-65656Y-5468D01*
X-65387Y-5318D01*
X-65081Y-5268D01*
X-64698Y-5368D01*
X-64429Y-5618D01*
X-64352Y-5918D01*
X-64391Y-6218D01*
X-64544Y-6468D01*
X-65311Y-6968D01*
X-65656Y-7318D01*
X-65886Y-7818D01*
X-65963Y-8268D01*
X-64352D01*
G01X-62057D02*
Y-5268D01*
X-62517Y-5868D01*
G01Y-8268D02*
X-61598D01*
G01X-67119Y-16148D02*
X-67349Y-15998D01*
X-67617Y-15898D01*
X-67924D01*
X-68269Y-16048D01*
X-68537Y-16298D01*
X-68729Y-16598D01*
X-68882Y-17098D01*
X-68920Y-17548D01*
X-68844Y-17998D01*
X-68729Y-18298D01*
X-68499Y-18598D01*
X-68231Y-18798D01*
X-67962Y-18898D01*
X-67694D01*
X-67426Y-18798D01*
X-67196Y-18648D01*
X-67004Y-18448D01*
G01X-65591Y-16398D02*
X-65361Y-16098D01*
X-65092Y-15948D01*
X-64785Y-15898D01*
X-64402Y-15998D01*
X-64134Y-16248D01*
X-64057Y-16548D01*
X-64096Y-16848D01*
X-64249Y-17098D01*
X-65015Y-17598D01*
X-65361Y-17948D01*
X-65591Y-18448D01*
X-65667Y-18898D01*
X-64057D01*
G01X-62491Y-16398D02*
X-62261Y-16098D01*
X-61992Y-15948D01*
X-61685Y-15898D01*
X-61302Y-15998D01*
X-61034Y-16248D01*
X-60957Y-16548D01*
X-60996Y-16848D01*
X-61149Y-17098D01*
X-61915Y-17598D01*
X-62261Y-17948D01*
X-62491Y-18448D01*
X-62567Y-18898D01*
X-60957D01*
G01X-66430Y14069D02*
X-66660Y14219D01*
X-66928Y14319D01*
X-67235D01*
X-67580Y14169D01*
X-67848Y13919D01*
X-68040Y13619D01*
X-68193Y13119D01*
X-68231Y12669D01*
X-68155Y12219D01*
X-68040Y11919D01*
X-67810Y11619D01*
X-67542Y11419D01*
X-67273Y11319D01*
X-67005D01*
X-66737Y11419D01*
X-66507Y11569D01*
X-66315Y11769D01*
G01X-64173Y11319D02*
Y14319D01*
X-64633Y13719D01*
G01Y11319D02*
X-63713D01*
G01X-61725Y11669D02*
X-61457Y11419D01*
X-61150Y11319D01*
X-60843Y11419D01*
X-60575Y11719D01*
X-60383Y12169D01*
X-60307Y12619D01*
Y13169D01*
X-60383Y13619D01*
X-60575Y14019D01*
X-60805Y14219D01*
X-61073Y14319D01*
X-61380Y14219D01*
X-61610Y14019D01*
X-61763Y13719D01*
X-61840Y13319D01*
X-61763Y12969D01*
X-61572Y12619D01*
X-61342Y12419D01*
X-61073Y12369D01*
X-60767Y12469D01*
X-60537Y12719D01*
X-60307Y13169D01*
G01X-66135Y9246D02*
X-66365Y9396D01*
X-66633Y9496D01*
X-66940D01*
X-67285Y9346D01*
X-67553Y9096D01*
X-67744Y8796D01*
X-67898Y8296D01*
X-67936Y7846D01*
X-67859Y7396D01*
X-67744Y7096D01*
X-67515Y6796D01*
X-67246Y6596D01*
X-66978Y6496D01*
X-66709D01*
X-66441Y6596D01*
X-66211Y6746D01*
X-66020Y6946D01*
G01X-64606Y8996D02*
X-64376Y9296D01*
X-64108Y9446D01*
X-63801Y9496D01*
X-63418Y9396D01*
X-63150Y9146D01*
X-63073Y8846D01*
X-63111Y8546D01*
X-63265Y8296D01*
X-64031Y7796D01*
X-64376Y7446D01*
X-64606Y6946D01*
X-64683Y6496D01*
X-63073D01*
G01X-60778Y9496D02*
X-61085Y9396D01*
X-61315Y9146D01*
X-61468Y8846D01*
X-61583Y8446D01*
X-61621Y7996D01*
X-61583Y7546D01*
X-61468Y7146D01*
X-61315Y6846D01*
X-61085Y6596D01*
X-60778Y6496D01*
X-60471Y6596D01*
X-60241Y6846D01*
X-60088Y7146D01*
X-59973Y7546D01*
X-59935Y7996D01*
X-59973Y8446D01*
X-60088Y8846D01*
X-60241Y9146D01*
X-60471Y9396D01*
X-60778Y9496D01*
G01X-60623Y35132D02*
X-60853Y35282D01*
X-61121Y35382D01*
X-61428D01*
X-61773Y35232D01*
X-62041Y34982D01*
X-62233Y34682D01*
X-62386Y34182D01*
X-62424Y33732D01*
X-62348Y33282D01*
X-62233Y32982D01*
X-62003Y32682D01*
X-61735Y32482D01*
X-61466Y32382D01*
X-61198D01*
X-60930Y32482D01*
X-60700Y32632D01*
X-60508Y32832D01*
G01X-58366Y32382D02*
Y35382D01*
X-58826Y34782D01*
G01Y32382D02*
X-57906D01*
G01X-55266D02*
X-54998Y32432D01*
X-54691Y32582D01*
X-54500Y32832D01*
X-54423Y33182D01*
X-54500Y33532D01*
X-54730Y33832D01*
X-55074Y33982D01*
X-55458D01*
X-55688Y34082D01*
X-55880Y34332D01*
X-55956Y34682D01*
X-55841Y35032D01*
X-55573Y35282D01*
X-55266Y35382D01*
X-54959Y35282D01*
X-54691Y35032D01*
X-54576Y34682D01*
X-54653Y34332D01*
X-54844Y34082D01*
X-55074Y33982D01*
X-55458D01*
X-55803Y33832D01*
X-56033Y33532D01*
X-56109Y33182D01*
X-56033Y32832D01*
X-55841Y32582D01*
X-55535Y32432D01*
X-55266Y32382D01*
G01X-36804Y-56305D02*
X-37034Y-56155D01*
X-37302Y-56055D01*
X-37609D01*
X-37954Y-56205D01*
X-38222Y-56455D01*
X-38414Y-56755D01*
X-38567Y-57255D01*
X-38606Y-57705D01*
X-38529Y-58155D01*
X-38414Y-58455D01*
X-38184Y-58755D01*
X-37916Y-58955D01*
X-37647Y-59055D01*
X-37379D01*
X-37111Y-58955D01*
X-36881Y-58805D01*
X-36689Y-58605D01*
G01X-35276Y-56555D02*
X-35046Y-56255D01*
X-34777Y-56105D01*
X-34470Y-56055D01*
X-34087Y-56155D01*
X-33819Y-56405D01*
X-33742Y-56705D01*
X-33781Y-57005D01*
X-33934Y-57255D01*
X-34700Y-57755D01*
X-35046Y-58105D01*
X-35276Y-58605D01*
X-35352Y-59055D01*
X-33742D01*
G01X-32291Y-58455D02*
X-32061Y-58805D01*
X-31754Y-59005D01*
X-31409Y-59055D01*
X-31102Y-59005D01*
X-30796Y-58755D01*
X-30604Y-58455D01*
X-30566Y-58155D01*
X-30642Y-57805D01*
X-30911Y-57555D01*
X-31179Y-57455D01*
X-31524D01*
G01X-31179D02*
X-30949Y-57305D01*
X-30757Y-57055D01*
X-30681Y-56755D01*
X-30757Y-56455D01*
X-30949Y-56205D01*
X-31294Y-56055D01*
X-31639Y-56105D01*
X-31984Y-56305D01*
G01X-37347Y-44807D02*
X-40347D01*
Y-43848D01*
X-40197Y-43542D01*
X-39997Y-43350D01*
X-39597Y-43274D01*
X-39197Y-43350D01*
X-38947Y-43580D01*
X-38797Y-43848D01*
Y-44807D01*
G01Y-43848D02*
X-37347Y-43274D01*
G01Y-40480D02*
X-40347D01*
X-38197Y-41898D01*
Y-39982D01*
G01X-38597Y-38569D02*
X-38947Y-38300D01*
X-39147Y-38070D01*
X-39247Y-37763D01*
X-39147Y-37495D01*
X-38947Y-37304D01*
X-38647Y-37150D01*
X-38297Y-37112D01*
X-37997Y-37150D01*
X-37697Y-37304D01*
X-37447Y-37533D01*
X-37347Y-37802D01*
X-37447Y-38109D01*
X-37747Y-38377D01*
X-38197Y-38530D01*
X-38697Y-38569D01*
X-39347Y-38492D01*
X-39697Y-38377D01*
X-40047Y-38185D01*
X-40297Y-37917D01*
X-40347Y-37648D01*
X-40247Y-37380D01*
X-39997Y-37189D01*
G01X-33563Y-52784D02*
X-36563D01*
Y-51826D01*
X-36413Y-51519D01*
X-36213Y-51327D01*
X-35813Y-51251D01*
X-35413Y-51327D01*
X-35163Y-51557D01*
X-35013Y-51826D01*
Y-52784D01*
G01Y-51826D02*
X-33563Y-51251D01*
G01Y-48457D02*
X-36563D01*
X-34413Y-49876D01*
Y-47959D01*
G01X-36063Y-46546D02*
X-36363Y-46316D01*
X-36513Y-46047D01*
X-36563Y-45741D01*
X-36463Y-45357D01*
X-36213Y-45089D01*
X-35913Y-45012D01*
X-35613Y-45051D01*
X-35363Y-45204D01*
X-34863Y-45970D01*
X-34513Y-46316D01*
X-34013Y-46546D01*
X-33563Y-46622D01*
Y-45012D01*
G01X-45412Y-31484D02*
X-45562Y-31714D01*
X-45662Y-31983D01*
Y-32289D01*
X-45512Y-32634D01*
X-45262Y-32902D01*
X-44962Y-33094D01*
X-44462Y-33248D01*
X-44012Y-33286D01*
X-43562Y-33209D01*
X-43262Y-33094D01*
X-42962Y-32864D01*
X-42762Y-32596D01*
X-42662Y-32328D01*
Y-32059D01*
X-42762Y-31791D01*
X-42912Y-31561D01*
X-43112Y-31369D01*
G01X-45162Y-29956D02*
X-45462Y-29726D01*
X-45612Y-29457D01*
X-45662Y-29151D01*
X-45562Y-28768D01*
X-45312Y-28499D01*
X-45012Y-28422D01*
X-44712Y-28461D01*
X-44462Y-28614D01*
X-43962Y-29381D01*
X-43612Y-29726D01*
X-43112Y-29956D01*
X-42662Y-30033D01*
Y-28422D01*
G01Y-25668D02*
X-45662D01*
X-43512Y-27086D01*
Y-25169D01*
G01X-42323Y-42449D02*
X-45323D01*
Y-41491D01*
X-45173Y-41184D01*
X-44973Y-40993D01*
X-44573Y-40916D01*
X-44173Y-40993D01*
X-43923Y-41223D01*
X-43773Y-41491D01*
Y-42449D01*
G01Y-41491D02*
X-42323Y-40916D01*
G01Y-38123D02*
X-45323D01*
X-43173Y-39541D01*
Y-37624D01*
G01X-42323Y-35559D02*
X-42973Y-35483D01*
X-43523Y-35368D01*
X-44023Y-35214D01*
X-44573Y-35023D01*
X-45323Y-34716D01*
Y-36249D01*
G01X-44980Y29204D02*
X-47980D01*
Y30163D01*
X-47830Y30469D01*
X-47630Y30661D01*
X-47230Y30737D01*
X-46830Y30661D01*
X-46580Y30431D01*
X-46430Y30163D01*
Y29204D01*
G01Y30163D02*
X-44980Y30737D01*
G01X-47480Y32343D02*
X-47780Y32572D01*
X-47930Y32841D01*
X-47980Y33148D01*
X-47880Y33531D01*
X-47630Y33799D01*
X-47330Y33876D01*
X-47030Y33837D01*
X-46780Y33684D01*
X-46280Y32918D01*
X-45930Y32572D01*
X-45430Y32343D01*
X-44980Y32266D01*
Y33876D01*
G01Y36631D02*
X-47980D01*
X-45830Y35213D01*
Y37129D01*
G01X-29415Y-68055D02*
Y-65055D01*
X-28649D01*
X-28342Y-65205D01*
X-28112Y-65405D01*
X-27920Y-65705D01*
X-27767Y-66055D01*
X-27729Y-66555D01*
X-27767Y-67055D01*
X-27920Y-67405D01*
X-28112Y-67705D01*
X-28342Y-67905D01*
X-28649Y-68055D01*
X-29415D01*
G01X-26200Y-65555D02*
X-25970Y-65255D01*
X-25702Y-65105D01*
X-25395Y-65055D01*
X-25012Y-65155D01*
X-24744Y-65405D01*
X-24667Y-65705D01*
X-24706Y-66005D01*
X-24859Y-66255D01*
X-25625Y-66755D01*
X-25970Y-67105D01*
X-26200Y-67605D01*
X-26277Y-68055D01*
X-24667D01*
G01X-30703Y-59245D02*
X-30853Y-59475D01*
X-30953Y-59743D01*
Y-60050D01*
X-30803Y-60395D01*
X-30553Y-60663D01*
X-30253Y-60855D01*
X-29753Y-61008D01*
X-29303Y-61046D01*
X-28853Y-60970D01*
X-28553Y-60855D01*
X-28253Y-60625D01*
X-28053Y-60357D01*
X-27953Y-60088D01*
Y-59820D01*
X-28053Y-59552D01*
X-28203Y-59322D01*
X-28403Y-59130D01*
G01X-30453Y-57717D02*
X-30753Y-57487D01*
X-30903Y-57218D01*
X-30953Y-56911D01*
X-30853Y-56528D01*
X-30603Y-56260D01*
X-30303Y-56183D01*
X-30003Y-56222D01*
X-29753Y-56375D01*
X-29253Y-57141D01*
X-28903Y-57487D01*
X-28403Y-57717D01*
X-27953Y-57793D01*
Y-56183D01*
G01X-29203Y-54617D02*
X-29553Y-54348D01*
X-29753Y-54118D01*
X-29853Y-53811D01*
X-29753Y-53543D01*
X-29553Y-53352D01*
X-29253Y-53198D01*
X-28903Y-53160D01*
X-28603Y-53198D01*
X-28303Y-53352D01*
X-28053Y-53581D01*
X-27953Y-53850D01*
X-28053Y-54157D01*
X-28353Y-54425D01*
X-28803Y-54578D01*
X-29303Y-54617D01*
X-29953Y-54540D01*
X-30303Y-54425D01*
X-30653Y-54233D01*
X-30903Y-53965D01*
X-30953Y-53696D01*
X-30853Y-53428D01*
X-30603Y-53237D01*
G01X-15446Y-53648D02*
X-15676Y-53498D01*
X-15944Y-53398D01*
X-16251D01*
X-16596Y-53548D01*
X-16864Y-53798D01*
X-17056Y-54098D01*
X-17209Y-54598D01*
X-17247Y-55048D01*
X-17170Y-55498D01*
X-17056Y-55798D01*
X-16826Y-56098D01*
X-16557Y-56298D01*
X-16289Y-56398D01*
X-16020D01*
X-15752Y-56298D01*
X-15522Y-56148D01*
X-15331Y-55948D01*
G01X-13917Y-53898D02*
X-13687Y-53598D01*
X-13419Y-53448D01*
X-13112Y-53398D01*
X-12729Y-53498D01*
X-12461Y-53748D01*
X-12384Y-54048D01*
X-12422Y-54348D01*
X-12576Y-54598D01*
X-13342Y-55098D01*
X-13687Y-55448D01*
X-13917Y-55948D01*
X-13994Y-56398D01*
X-12384D01*
G01X-10166D02*
X-10089Y-55748D01*
X-9974Y-55198D01*
X-9820Y-54698D01*
X-9629Y-54148D01*
X-9322Y-53398D01*
X-10856D01*
G01X-17548Y-44390D02*
Y-41390D01*
X-16589D01*
X-16283Y-41540D01*
X-16091Y-41740D01*
X-16015Y-42140D01*
X-16091Y-42540D01*
X-16321Y-42790D01*
X-16589Y-42940D01*
X-17548D01*
G01X-16589D02*
X-16015Y-44390D01*
G01X-13221D02*
Y-41390D01*
X-14639Y-43540D01*
X-12723D01*
G01X-11424Y-43790D02*
X-11194Y-44140D01*
X-10888Y-44340D01*
X-10543Y-44390D01*
X-10236Y-44340D01*
X-9930Y-44090D01*
X-9738Y-43790D01*
X-9700Y-43490D01*
X-9776Y-43140D01*
X-10044Y-42890D01*
X-10313Y-42790D01*
X-10658D01*
G01X-10313D02*
X-10083Y-42640D01*
X-9891Y-42390D01*
X-9815Y-42090D01*
X-9891Y-41790D01*
X-10083Y-41540D01*
X-10428Y-41390D01*
X-10773Y-41440D01*
X-11118Y-41640D01*
G01X-25313Y-5026D02*
X-25543Y-4876D01*
X-25811Y-4776D01*
X-26118D01*
X-26463Y-4926D01*
X-26731Y-5176D01*
X-26923Y-5476D01*
X-27076Y-5976D01*
X-27115Y-6426D01*
X-27038Y-6876D01*
X-26923Y-7176D01*
X-26693Y-7476D01*
X-26425Y-7676D01*
X-26156Y-7776D01*
X-25888D01*
X-25620Y-7676D01*
X-25390Y-7526D01*
X-25198Y-7326D01*
G01X-23056Y-7776D02*
X-22788Y-7726D01*
X-22481Y-7576D01*
X-22290Y-7326D01*
X-22213Y-6976D01*
X-22290Y-6626D01*
X-22520Y-6326D01*
X-22865Y-6176D01*
X-23248D01*
X-23478Y-6076D01*
X-23670Y-5826D01*
X-23746Y-5476D01*
X-23631Y-5126D01*
X-23363Y-4876D01*
X-23056Y-4776D01*
X-22750Y-4876D01*
X-22481Y-5126D01*
X-22366Y-5476D01*
X-22443Y-5826D01*
X-22635Y-6076D01*
X-22865Y-6176D01*
X-23248D01*
X-23593Y-6326D01*
X-23823Y-6626D01*
X-23900Y-6976D01*
X-23823Y-7326D01*
X-23631Y-7576D01*
X-23325Y-7726D01*
X-23056Y-7776D01*
G01X-25707Y-15163D02*
X-25937Y-15013D01*
X-26205Y-14913D01*
X-26512D01*
X-26857Y-15063D01*
X-27125Y-15313D01*
X-27317Y-15613D01*
X-27470Y-16113D01*
X-27508Y-16563D01*
X-27431Y-17013D01*
X-27317Y-17313D01*
X-27087Y-17613D01*
X-26819Y-17813D01*
X-26550Y-17913D01*
X-26281D01*
X-26013Y-17813D01*
X-25783Y-17663D01*
X-25592Y-17463D01*
G01X-23527Y-17913D02*
X-23450Y-17263D01*
X-23335Y-16713D01*
X-23181Y-16213D01*
X-22990Y-15663D01*
X-22683Y-14913D01*
X-24217D01*
G01X-29457Y-12697D02*
Y-9697D01*
X-28499D01*
X-28192Y-9847D01*
X-28000Y-10047D01*
X-27924Y-10447D01*
X-28000Y-10847D01*
X-28231Y-11097D01*
X-28499Y-11247D01*
X-29457D01*
G01X-28499D02*
X-27924Y-12697D01*
G01X-26319Y-10197D02*
X-26089Y-9897D01*
X-25820Y-9747D01*
X-25514Y-9697D01*
X-25131Y-9797D01*
X-24862Y-10047D01*
X-24785Y-10347D01*
X-24824Y-10647D01*
X-24977Y-10897D01*
X-25744Y-11397D01*
X-26089Y-11747D01*
X-26319Y-12247D01*
X-26396Y-12697D01*
X-24785D01*
G01X-23219Y-10197D02*
X-22989Y-9897D01*
X-22720Y-9747D01*
X-22414Y-9697D01*
X-22031Y-9797D01*
X-21762Y-10047D01*
X-21685Y-10347D01*
X-21724Y-10647D01*
X-21877Y-10897D01*
X-22644Y-11397D01*
X-22989Y-11747D01*
X-23219Y-12247D01*
X-23296Y-12697D01*
X-21685D01*
G01X-28965Y-22539D02*
Y-19539D01*
X-28007D01*
X-27700Y-19689D01*
X-27508Y-19889D01*
X-27432Y-20289D01*
X-27508Y-20689D01*
X-27739Y-20939D01*
X-28007Y-21089D01*
X-28965D01*
G01X-28007D02*
X-27432Y-22539D01*
G01X-25827Y-20039D02*
X-25597Y-19739D01*
X-25328Y-19589D01*
X-25022Y-19539D01*
X-24639Y-19639D01*
X-24370Y-19889D01*
X-24293Y-20189D01*
X-24332Y-20489D01*
X-24485Y-20739D01*
X-25252Y-21239D01*
X-25597Y-21589D01*
X-25827Y-22089D01*
X-25904Y-22539D01*
X-24293D01*
G01X-21998D02*
Y-19539D01*
X-22458Y-20139D01*
G01Y-22539D02*
X-21539D01*
G01X-28143Y4915D02*
X-28372Y5065D01*
X-28641Y5165D01*
X-28948D01*
X-29293Y5015D01*
X-29561Y4765D01*
X-29752Y4465D01*
X-29906Y3965D01*
X-29944Y3515D01*
X-29867Y3065D01*
X-29752Y2765D01*
X-29522Y2465D01*
X-29254Y2265D01*
X-28986Y2165D01*
X-28717D01*
X-28449Y2265D01*
X-28219Y2415D01*
X-28028Y2615D01*
G01X-25886Y2165D02*
Y5165D01*
X-26346Y4565D01*
G01Y2165D02*
X-25426D01*
G01X-22786D02*
Y5165D01*
X-23246Y4565D01*
G01Y2165D02*
X-22326D01*
G01X-30244Y-2854D02*
Y146D01*
X-29286D01*
X-28980Y-4D01*
X-28788Y-204D01*
X-28711Y-604D01*
X-28788Y-1004D01*
X-29018Y-1254D01*
X-29286Y-1404D01*
X-30244D01*
G01X-29286D02*
X-28711Y-2854D01*
G01X-27106Y-354D02*
X-26876Y-54D01*
X-26608Y96D01*
X-26301Y146D01*
X-25918Y46D01*
X-25650Y-204D01*
X-25573Y-504D01*
X-25611Y-804D01*
X-25765Y-1054D01*
X-26531Y-1554D01*
X-26876Y-1904D01*
X-27106Y-2404D01*
X-27183Y-2854D01*
X-25573D01*
G01X-24121Y-2254D02*
X-23891Y-2604D01*
X-23585Y-2804D01*
X-23240Y-2854D01*
X-22933Y-2804D01*
X-22626Y-2554D01*
X-22435Y-2254D01*
X-22396Y-1954D01*
X-22473Y-1604D01*
X-22741Y-1354D01*
X-23009Y-1254D01*
X-23355D01*
G01X-23009D02*
X-22780Y-1104D01*
X-22588Y-854D01*
X-22511Y-554D01*
X-22588Y-254D01*
X-22780Y-4D01*
X-23125Y146D01*
X-23470Y96D01*
X-23815Y-104D01*
G01X-22047Y11389D02*
X-25047D01*
Y12348D01*
X-24897Y12654D01*
X-24697Y12846D01*
X-24297Y12922D01*
X-23897Y12846D01*
X-23647Y12616D01*
X-23497Y12348D01*
Y11389D01*
G01Y12348D02*
X-22047Y12922D01*
G01X-22647Y14413D02*
X-22297Y14643D01*
X-22097Y14949D01*
X-22047Y15294D01*
X-22097Y15601D01*
X-22347Y15907D01*
X-22647Y16099D01*
X-22947Y16137D01*
X-23297Y16061D01*
X-23547Y15793D01*
X-23647Y15524D01*
Y15179D01*
G01Y15524D02*
X-23797Y15754D01*
X-24047Y15946D01*
X-24347Y16022D01*
X-24647Y15946D01*
X-24897Y15754D01*
X-25047Y15409D01*
X-24997Y15064D01*
X-24797Y14719D01*
G01X-25047Y18356D02*
X-24947Y18049D01*
X-24697Y17819D01*
X-24397Y17666D01*
X-23997Y17551D01*
X-23547Y17513D01*
X-23097Y17551D01*
X-22697Y17666D01*
X-22397Y17819D01*
X-22147Y18049D01*
X-22047Y18356D01*
X-22147Y18663D01*
X-22397Y18893D01*
X-22697Y19046D01*
X-23097Y19161D01*
X-23547Y19199D01*
X-23997Y19161D01*
X-24397Y19046D01*
X-24697Y18893D01*
X-24947Y18663D01*
X-25047Y18356D01*
G01X-22736Y28712D02*
X-25736D01*
Y29670D01*
X-25586Y29977D01*
X-25386Y30169D01*
X-24986Y30245D01*
X-24586Y30169D01*
X-24336Y29939D01*
X-24186Y29670D01*
Y28712D01*
G01Y29670D02*
X-22736Y30245D01*
G01X-25236Y31850D02*
X-25536Y32080D01*
X-25686Y32349D01*
X-25736Y32656D01*
X-25636Y33039D01*
X-25386Y33307D01*
X-25086Y33384D01*
X-24786Y33345D01*
X-24536Y33192D01*
X-24036Y32426D01*
X-23686Y32080D01*
X-23186Y31850D01*
X-22736Y31774D01*
Y33384D01*
G01X-23186Y34835D02*
X-22936Y35065D01*
X-22786Y35334D01*
X-22736Y35679D01*
X-22836Y36024D01*
X-23036Y36292D01*
X-23386Y36484D01*
X-23786Y36522D01*
X-24186Y36445D01*
X-24436Y36254D01*
X-24636Y35985D01*
X-24686Y35717D01*
X-24636Y35449D01*
X-24436Y35104D01*
X-25736Y35219D01*
Y36254D01*
G01X-23524Y47019D02*
X-26524D01*
Y47978D01*
X-26374Y48284D01*
X-26174Y48476D01*
X-25774Y48552D01*
X-25374Y48476D01*
X-25124Y48246D01*
X-24974Y47978D01*
Y47019D01*
G01Y47978D02*
X-23524Y48552D01*
G01X-24124Y50043D02*
X-23774Y50272D01*
X-23574Y50579D01*
X-23524Y50924D01*
X-23574Y51231D01*
X-23824Y51537D01*
X-24124Y51729D01*
X-24424Y51767D01*
X-24774Y51691D01*
X-25024Y51422D01*
X-25124Y51154D01*
Y50809D01*
G01Y51154D02*
X-25274Y51384D01*
X-25524Y51576D01*
X-25824Y51652D01*
X-26124Y51576D01*
X-26374Y51384D01*
X-26524Y51039D01*
X-26474Y50694D01*
X-26274Y50349D01*
G01X-24124Y53143D02*
X-23774Y53372D01*
X-23574Y53679D01*
X-23524Y54024D01*
X-23574Y54331D01*
X-23824Y54637D01*
X-24124Y54829D01*
X-24424Y54867D01*
X-24774Y54791D01*
X-25024Y54522D01*
X-25124Y54254D01*
Y53909D01*
G01Y54254D02*
X-25274Y54484D01*
X-25524Y54676D01*
X-25824Y54752D01*
X-26124Y54676D01*
X-26374Y54484D01*
X-26524Y54139D01*
X-26474Y53794D01*
X-26274Y53449D01*
G01X-6921Y-72835D02*
Y-69835D01*
X-6154D01*
X-5848Y-69985D01*
X-5618Y-70185D01*
X-5426Y-70485D01*
X-5272Y-70835D01*
X-5234Y-71335D01*
X-5272Y-71835D01*
X-5426Y-72185D01*
X-5618Y-72485D01*
X-5848Y-72685D01*
X-6154Y-72835D01*
X-6921D01*
G01X-2978D02*
Y-69835D01*
X-3437Y-70435D01*
G01Y-72835D02*
X-2518D01*
G01X-12435Y-59530D02*
X-14585D01*
X-15035Y-59683D01*
X-15335Y-59990D01*
X-15435Y-60374D01*
X-15335Y-60757D01*
X-15035Y-61064D01*
X-14585Y-61217D01*
X-12435D01*
G01X-15435Y-63474D02*
X-15385Y-63742D01*
X-15235Y-64048D01*
X-14985Y-64240D01*
X-14635Y-64317D01*
X-14285Y-64240D01*
X-13985Y-64010D01*
X-13835Y-63665D01*
Y-63282D01*
X-13735Y-63052D01*
X-13485Y-62860D01*
X-13135Y-62783D01*
X-12785Y-62899D01*
X-12535Y-63167D01*
X-12435Y-63474D01*
X-12535Y-63780D01*
X-12785Y-64048D01*
X-13135Y-64164D01*
X-13485Y-64087D01*
X-13735Y-63895D01*
X-13835Y-63665D01*
Y-63282D01*
X-13985Y-62937D01*
X-14285Y-62707D01*
X-14635Y-62630D01*
X-14985Y-62707D01*
X-15235Y-62899D01*
X-15385Y-63205D01*
X-15435Y-63474D01*
G01X-5702Y-49120D02*
X-5931Y-48970D01*
X-6200Y-48870D01*
X-6507D01*
X-6852Y-49020D01*
X-7120Y-49270D01*
X-7311Y-49570D01*
X-7465Y-50070D01*
X-7503Y-50520D01*
X-7426Y-50970D01*
X-7311Y-51270D01*
X-7081Y-51570D01*
X-6813Y-51770D01*
X-6545Y-51870D01*
X-6276D01*
X-6008Y-51770D01*
X-5778Y-51620D01*
X-5587Y-51420D01*
G01X-4288Y-51270D02*
X-4058Y-51620D01*
X-3752Y-51820D01*
X-3407Y-51870D01*
X-3100Y-51820D01*
X-2793Y-51570D01*
X-2602Y-51270D01*
X-2563Y-50970D01*
X-2640Y-50620D01*
X-2908Y-50370D01*
X-3176Y-50270D01*
X-3522D01*
G01X-3176D02*
X-2946Y-50120D01*
X-2755Y-49870D01*
X-2678Y-49570D01*
X-2755Y-49270D01*
X-2946Y-49020D01*
X-3292Y-48870D01*
X-3637Y-48920D01*
X-3981Y-49120D01*
G01X-1073Y-49370D02*
X-843Y-49070D01*
X-575Y-48920D01*
X-268Y-48870D01*
X115Y-48970D01*
X383Y-49220D01*
X460Y-49520D01*
X422Y-49820D01*
X269Y-50070D01*
X-498Y-50570D01*
X-843Y-50920D01*
X-1073Y-51420D01*
X-1150Y-51870D01*
X460D01*
G01X-4619Y-34750D02*
X-4849Y-34600D01*
X-5117Y-34500D01*
X-5424D01*
X-5769Y-34650D01*
X-6037Y-34900D01*
X-6229Y-35200D01*
X-6382Y-35700D01*
X-6420Y-36150D01*
X-6344Y-36600D01*
X-6229Y-36900D01*
X-5999Y-37200D01*
X-5731Y-37400D01*
X-5462Y-37500D01*
X-5194D01*
X-4926Y-37400D01*
X-4696Y-37250D01*
X-4504Y-37050D01*
G01X-3091Y-35000D02*
X-2861Y-34700D01*
X-2592Y-34550D01*
X-2285Y-34500D01*
X-1902Y-34600D01*
X-1634Y-34850D01*
X-1557Y-35150D01*
X-1596Y-35450D01*
X-1749Y-35700D01*
X-2515Y-36200D01*
X-2861Y-36550D01*
X-3091Y-37050D01*
X-3167Y-37500D01*
X-1557D01*
G01X86Y-37150D02*
X354Y-37400D01*
X661Y-37500D01*
X968Y-37400D01*
X1236Y-37100D01*
X1428Y-36650D01*
X1504Y-36200D01*
Y-35650D01*
X1428Y-35200D01*
X1236Y-34800D01*
X1006Y-34600D01*
X738Y-34500D01*
X431Y-34600D01*
X201Y-34800D01*
X48Y-35100D01*
X-29Y-35500D01*
X48Y-35850D01*
X239Y-36200D01*
X469Y-36400D01*
X738Y-36450D01*
X1044Y-36350D01*
X1274Y-36100D01*
X1504Y-35650D01*
G01X-13478Y-32178D02*
X-13628Y-32408D01*
X-13728Y-32676D01*
Y-32983D01*
X-13578Y-33328D01*
X-13328Y-33596D01*
X-13028Y-33788D01*
X-12528Y-33941D01*
X-12078Y-33980D01*
X-11628Y-33903D01*
X-11328Y-33788D01*
X-11028Y-33558D01*
X-10828Y-33290D01*
X-10728Y-33021D01*
Y-32753D01*
X-10828Y-32485D01*
X-10978Y-32255D01*
X-11178Y-32063D01*
G01X-13228Y-30650D02*
X-13528Y-30420D01*
X-13678Y-30151D01*
X-13728Y-29844D01*
X-13628Y-29461D01*
X-13378Y-29193D01*
X-13078Y-29116D01*
X-12778Y-29155D01*
X-12528Y-29308D01*
X-12028Y-30074D01*
X-11678Y-30420D01*
X-11178Y-30650D01*
X-10728Y-30726D01*
Y-29116D01*
G01X-11178Y-27665D02*
X-10928Y-27435D01*
X-10778Y-27166D01*
X-10728Y-26821D01*
X-10828Y-26476D01*
X-11028Y-26208D01*
X-11378Y-26016D01*
X-11778Y-25978D01*
X-12178Y-26055D01*
X-12428Y-26246D01*
X-12628Y-26515D01*
X-12678Y-26783D01*
X-12628Y-27051D01*
X-12428Y-27396D01*
X-13728Y-27281D01*
Y-26246D01*
G01X-197Y12078D02*
X-3197D01*
Y13037D01*
X-3047Y13343D01*
X-2847Y13535D01*
X-2447Y13611D01*
X-2047Y13535D01*
X-1797Y13305D01*
X-1647Y13037D01*
Y12078D01*
G01Y13037D02*
X-197Y13611D01*
G01X-797Y15102D02*
X-447Y15331D01*
X-247Y15638D01*
X-197Y15983D01*
X-247Y16290D01*
X-497Y16596D01*
X-797Y16788D01*
X-1097Y16826D01*
X-1447Y16750D01*
X-1697Y16481D01*
X-1797Y16213D01*
Y15868D01*
G01Y16213D02*
X-1947Y16443D01*
X-2197Y16635D01*
X-2497Y16711D01*
X-2797Y16635D01*
X-3047Y16443D01*
X-3197Y16098D01*
X-3147Y15753D01*
X-2947Y15408D01*
G01X-197Y19045D02*
X-3197D01*
X-2597Y18585D01*
G01X-197D02*
Y19505D01*
G01X-1772Y28712D02*
X-4772D01*
Y29670D01*
X-4622Y29977D01*
X-4422Y30169D01*
X-4022Y30245D01*
X-3622Y30169D01*
X-3372Y29939D01*
X-3222Y29670D01*
Y28712D01*
G01Y29670D02*
X-1772Y30245D01*
G01X-4272Y31850D02*
X-4572Y32080D01*
X-4722Y32349D01*
X-4772Y32656D01*
X-4672Y33039D01*
X-4422Y33307D01*
X-4122Y33384D01*
X-3822Y33345D01*
X-3572Y33192D01*
X-3072Y32426D01*
X-2722Y32080D01*
X-2222Y31850D01*
X-1772Y31774D01*
Y33384D01*
G01X-3022Y34950D02*
X-3372Y35219D01*
X-3572Y35449D01*
X-3672Y35756D01*
X-3572Y36024D01*
X-3372Y36215D01*
X-3072Y36369D01*
X-2722Y36407D01*
X-2422Y36369D01*
X-2122Y36215D01*
X-1872Y35985D01*
X-1772Y35717D01*
X-1872Y35410D01*
X-2172Y35142D01*
X-2622Y34989D01*
X-3122Y34950D01*
X-3772Y35027D01*
X-4122Y35142D01*
X-4472Y35334D01*
X-4722Y35602D01*
X-4772Y35870D01*
X-4672Y36139D01*
X-4422Y36330D01*
G01X-2067Y47118D02*
X-5067D01*
Y48076D01*
X-4917Y48383D01*
X-4717Y48574D01*
X-4317Y48651D01*
X-3917Y48574D01*
X-3667Y48344D01*
X-3517Y48076D01*
Y47118D01*
G01Y48076D02*
X-2067Y48651D01*
G01X-2667Y50141D02*
X-2317Y50371D01*
X-2117Y50678D01*
X-2067Y51022D01*
X-2117Y51329D01*
X-2367Y51636D01*
X-2667Y51828D01*
X-2967Y51866D01*
X-3317Y51789D01*
X-3567Y51521D01*
X-3667Y51253D01*
Y50907D01*
G01Y51253D02*
X-3817Y51483D01*
X-4067Y51674D01*
X-4367Y51751D01*
X-4667Y51674D01*
X-4917Y51483D01*
X-5067Y51137D01*
X-5017Y50793D01*
X-4817Y50448D01*
G01X-2067Y54544D02*
X-5067D01*
X-2917Y53126D01*
Y55043D01*
G01X8963Y-59835D02*
X8813Y-60065D01*
X8713Y-60334D01*
Y-60641D01*
X8863Y-60985D01*
X9113Y-61254D01*
X9413Y-61445D01*
X9913Y-61599D01*
X10363Y-61637D01*
X10813Y-61560D01*
X11113Y-61445D01*
X11413Y-61215D01*
X11613Y-60947D01*
X11713Y-60679D01*
Y-60410D01*
X11613Y-60142D01*
X11463Y-59912D01*
X11263Y-59720D01*
G01X11113Y-58422D02*
X11463Y-58192D01*
X11663Y-57885D01*
X11713Y-57541D01*
X11663Y-57234D01*
X11413Y-56927D01*
X11113Y-56735D01*
X10813Y-56697D01*
X10463Y-56774D01*
X10213Y-57042D01*
X10113Y-57310D01*
Y-57656D01*
G01Y-57310D02*
X9963Y-57080D01*
X9713Y-56889D01*
X9413Y-56812D01*
X9113Y-56889D01*
X8863Y-57080D01*
X8713Y-57426D01*
X8763Y-57770D01*
X8963Y-58115D01*
G01X8713Y-54479D02*
X8813Y-54785D01*
X9063Y-55015D01*
X9363Y-55169D01*
X9763Y-55284D01*
X10213Y-55322D01*
X10663Y-55284D01*
X11063Y-55169D01*
X11363Y-55015D01*
X11613Y-54785D01*
X11713Y-54479D01*
X11613Y-54172D01*
X11363Y-53942D01*
X11063Y-53789D01*
X10663Y-53674D01*
X10213Y-53635D01*
X9763Y-53674D01*
X9363Y-53789D01*
X9063Y-53942D01*
X8813Y-54172D01*
X8713Y-54479D01*
G01X6208Y-69100D02*
X5978Y-68950D01*
X5709Y-68850D01*
X5403D01*
X5058Y-69000D01*
X4790Y-69250D01*
X4598Y-69550D01*
X4444Y-70050D01*
X4406Y-70500D01*
X4483Y-70950D01*
X4598Y-71250D01*
X4828Y-71550D01*
X5096Y-71750D01*
X5365Y-71850D01*
X5633D01*
X5901Y-71750D01*
X6131Y-71600D01*
X6323Y-71400D01*
G01X7621Y-71250D02*
X7851Y-71600D01*
X8158Y-71800D01*
X8503Y-71850D01*
X8809Y-71800D01*
X9116Y-71550D01*
X9308Y-71250D01*
X9346Y-70950D01*
X9270Y-70600D01*
X9001Y-70350D01*
X8733Y-70250D01*
X8388D01*
G01X8733D02*
X8963Y-70100D01*
X9155Y-69850D01*
X9231Y-69550D01*
X9155Y-69250D01*
X8963Y-69000D01*
X8618Y-68850D01*
X8273Y-68900D01*
X7928Y-69100D01*
G01X11565Y-71850D02*
Y-68850D01*
X11105Y-69450D01*
G01Y-71850D02*
X12024D01*
G01X19736Y-46608D02*
X22736D01*
Y-45075D01*
G01X20236Y-43470D02*
X19936Y-43240D01*
X19786Y-42971D01*
X19736Y-42665D01*
X19836Y-42281D01*
X20086Y-42013D01*
X20386Y-41936D01*
X20686Y-41975D01*
X20936Y-42128D01*
X21436Y-42894D01*
X21786Y-43240D01*
X22286Y-43470D01*
X22736Y-43546D01*
Y-41936D01*
G01X17428Y-35242D02*
X17198Y-35092D01*
X16930Y-34992D01*
X16623D01*
X16278Y-35142D01*
X16010Y-35392D01*
X15819Y-35692D01*
X15665Y-36192D01*
X15627Y-36642D01*
X15704Y-37092D01*
X15819Y-37392D01*
X16048Y-37692D01*
X16317Y-37892D01*
X16585Y-37992D01*
X16854D01*
X17122Y-37892D01*
X17352Y-37742D01*
X17543Y-37542D01*
G01X20145Y-37992D02*
Y-34992D01*
X18727Y-37142D01*
X20643D01*
G01X22057Y-35492D02*
X22287Y-35192D01*
X22555Y-35042D01*
X22862Y-34992D01*
X23245Y-35092D01*
X23513Y-35342D01*
X23590Y-35642D01*
X23552Y-35942D01*
X23398Y-36192D01*
X22632Y-36692D01*
X22287Y-37042D01*
X22057Y-37542D01*
X21980Y-37992D01*
X23590D01*
G01X20669Y12078D02*
X17669D01*
Y13037D01*
X17819Y13343D01*
X18019Y13535D01*
X18419Y13611D01*
X18819Y13535D01*
X19069Y13305D01*
X19219Y13037D01*
Y12078D01*
G01Y13037D02*
X20669Y13611D01*
G01X20069Y15102D02*
X20419Y15331D01*
X20619Y15638D01*
X20669Y15983D01*
X20619Y16290D01*
X20369Y16596D01*
X20069Y16788D01*
X19769Y16826D01*
X19419Y16750D01*
X19169Y16481D01*
X19069Y16213D01*
Y15868D01*
G01Y16213D02*
X18919Y16443D01*
X18669Y16635D01*
X18369Y16711D01*
X18069Y16635D01*
X17819Y16443D01*
X17669Y16098D01*
X17719Y15753D01*
X17919Y15408D01*
G01X18169Y18317D02*
X17869Y18546D01*
X17719Y18815D01*
X17669Y19122D01*
X17769Y19505D01*
X18019Y19773D01*
X18319Y19850D01*
X18619Y19811D01*
X18869Y19658D01*
X19369Y18892D01*
X19719Y18546D01*
X20219Y18317D01*
X20669Y18240D01*
Y19850D01*
G01X18799Y46626D02*
X15799D01*
Y47584D01*
X15949Y47891D01*
X16149Y48082D01*
X16549Y48159D01*
X16949Y48082D01*
X17199Y47852D01*
X17349Y47584D01*
Y46626D01*
G01Y47584D02*
X18799Y48159D01*
G01X18199Y49649D02*
X18549Y49879D01*
X18749Y50185D01*
X18799Y50530D01*
X18749Y50837D01*
X18499Y51144D01*
X18199Y51335D01*
X17899Y51374D01*
X17549Y51297D01*
X17299Y51029D01*
X17199Y50761D01*
Y50415D01*
G01Y50761D02*
X17049Y50991D01*
X16799Y51182D01*
X16499Y51259D01*
X16199Y51182D01*
X15949Y50991D01*
X15799Y50645D01*
X15849Y50300D01*
X16049Y49956D01*
G01X18349Y52749D02*
X18599Y52979D01*
X18749Y53247D01*
X18799Y53592D01*
X18699Y53937D01*
X18499Y54206D01*
X18149Y54397D01*
X17749Y54435D01*
X17349Y54359D01*
X17099Y54167D01*
X16899Y53899D01*
X16849Y53630D01*
X16899Y53362D01*
X17099Y53017D01*
X15799Y53132D01*
Y54167D01*
G01X38590Y-35341D02*
X38360Y-35191D01*
X38091Y-35091D01*
X37785D01*
X37440Y-35241D01*
X37172Y-35491D01*
X36980Y-35791D01*
X36826Y-36291D01*
X36788Y-36741D01*
X36865Y-37191D01*
X36980Y-37491D01*
X37210Y-37791D01*
X37478Y-37991D01*
X37746Y-38091D01*
X38015D01*
X38283Y-37991D01*
X38513Y-37841D01*
X38705Y-37641D01*
G01X40003Y-37491D02*
X40233Y-37841D01*
X40540Y-38041D01*
X40885Y-38091D01*
X41191Y-38041D01*
X41498Y-37791D01*
X41690Y-37491D01*
X41728Y-37191D01*
X41652Y-36841D01*
X41383Y-36591D01*
X41115Y-36491D01*
X40770D01*
G01X41115D02*
X41345Y-36341D01*
X41537Y-36091D01*
X41613Y-35791D01*
X41537Y-35491D01*
X41345Y-35241D01*
X41000Y-35091D01*
X40655Y-35141D01*
X40310Y-35341D01*
G01X43103Y-37641D02*
X43333Y-37891D01*
X43602Y-38041D01*
X43946Y-38091D01*
X44291Y-37991D01*
X44560Y-37791D01*
X44752Y-37441D01*
X44790Y-37041D01*
X44713Y-36641D01*
X44521Y-36391D01*
X44253Y-36191D01*
X43985Y-36141D01*
X43717Y-36191D01*
X43372Y-36391D01*
X43487Y-35091D01*
X44521D01*
G01X38787Y-39179D02*
X38557Y-39029D01*
X38288Y-38929D01*
X37981D01*
X37637Y-39079D01*
X37369Y-39329D01*
X37177Y-39629D01*
X37023Y-40129D01*
X36985Y-40579D01*
X37062Y-41029D01*
X37177Y-41329D01*
X37407Y-41629D01*
X37675Y-41829D01*
X37943Y-41929D01*
X38212D01*
X38480Y-41829D01*
X38710Y-41679D01*
X38902Y-41479D01*
G01X40200Y-41329D02*
X40430Y-41679D01*
X40737Y-41879D01*
X41081Y-41929D01*
X41388Y-41879D01*
X41695Y-41629D01*
X41887Y-41329D01*
X41925Y-41029D01*
X41848Y-40679D01*
X41580Y-40429D01*
X41312Y-40329D01*
X40967D01*
G01X41312D02*
X41542Y-40179D01*
X41733Y-39929D01*
X41810Y-39629D01*
X41733Y-39329D01*
X41542Y-39079D01*
X41196Y-38929D01*
X40852Y-38979D01*
X40507Y-39179D01*
G01X44067Y-41929D02*
X44143Y-41279D01*
X44258Y-40729D01*
X44412Y-40229D01*
X44603Y-39679D01*
X44910Y-38929D01*
X43377D01*
G01X32094Y-24219D02*
X31864Y-24069D01*
X31595Y-23969D01*
X31289D01*
X30944Y-24119D01*
X30676Y-24369D01*
X30484Y-24669D01*
X30330Y-25169D01*
X30292Y-25619D01*
X30369Y-26069D01*
X30484Y-26369D01*
X30714Y-26669D01*
X30982Y-26869D01*
X31250Y-26969D01*
X31519D01*
X31787Y-26869D01*
X32017Y-26719D01*
X32209Y-26519D01*
G01X33507Y-26369D02*
X33737Y-26719D01*
X34044Y-26919D01*
X34389Y-26969D01*
X34695Y-26919D01*
X35002Y-26669D01*
X35194Y-26369D01*
X35232Y-26069D01*
X35156Y-25719D01*
X34887Y-25469D01*
X34619Y-25369D01*
X34274D01*
G01X34619D02*
X34849Y-25219D01*
X35041Y-24969D01*
X35117Y-24669D01*
X35041Y-24369D01*
X34849Y-24119D01*
X34504Y-23969D01*
X34159Y-24019D01*
X33814Y-24219D01*
G01X36607Y-26369D02*
X36837Y-26719D01*
X37144Y-26919D01*
X37489Y-26969D01*
X37795Y-26919D01*
X38102Y-26669D01*
X38294Y-26369D01*
X38332Y-26069D01*
X38256Y-25719D01*
X37987Y-25469D01*
X37719Y-25369D01*
X37374D01*
G01X37719D02*
X37949Y-25219D01*
X38141Y-24969D01*
X38217Y-24669D01*
X38141Y-24369D01*
X37949Y-24119D01*
X37604Y-23969D01*
X37259Y-24019D01*
X36914Y-24219D01*
G01X31109Y-4730D02*
X30880Y-4580D01*
X30611Y-4480D01*
X30304D01*
X29959Y-4630D01*
X29691Y-4880D01*
X29500Y-5180D01*
X29346Y-5680D01*
X29308Y-6130D01*
X29385Y-6580D01*
X29500Y-6880D01*
X29730Y-7180D01*
X29998Y-7380D01*
X30266Y-7480D01*
X30535D01*
X30803Y-7380D01*
X31033Y-7230D01*
X31224Y-7030D01*
G01X32523Y-6880D02*
X32753Y-7230D01*
X33059Y-7430D01*
X33404Y-7480D01*
X33711Y-7430D01*
X34018Y-7180D01*
X34209Y-6880D01*
X34248Y-6580D01*
X34171Y-6230D01*
X33903Y-5980D01*
X33635Y-5880D01*
X33289D01*
G01X33635D02*
X33865Y-5730D01*
X34056Y-5480D01*
X34133Y-5180D01*
X34056Y-4880D01*
X33865Y-4630D01*
X33519Y-4480D01*
X33174Y-4530D01*
X32830Y-4730D01*
G01X36926Y-7480D02*
Y-4480D01*
X35508Y-6630D01*
X37424D01*
G01X36104Y-990D02*
X35874Y-840D01*
X35606Y-740D01*
X35299D01*
X34954Y-890D01*
X34686Y-1140D01*
X34494Y-1440D01*
X34341Y-1940D01*
X34303Y-2390D01*
X34380Y-2840D01*
X34494Y-3140D01*
X34724Y-3440D01*
X34993Y-3640D01*
X35261Y-3740D01*
X35530D01*
X35798Y-3640D01*
X36028Y-3490D01*
X36219Y-3290D01*
G01X38361Y-3740D02*
Y-740D01*
X37901Y-1340D01*
G01Y-3740D02*
X38821D01*
G01X34396Y295D02*
Y3295D01*
X35354D01*
X35661Y3145D01*
X35853Y2945D01*
X35929Y2545D01*
X35853Y2145D01*
X35622Y1895D01*
X35354Y1745D01*
X34396D01*
G01X35354D02*
X35929Y295D01*
G01X37534Y2795D02*
X37764Y3095D01*
X38033Y3245D01*
X38339Y3295D01*
X38722Y3195D01*
X38991Y2945D01*
X39068Y2645D01*
X39029Y2345D01*
X38876Y2095D01*
X38109Y1595D01*
X37764Y1245D01*
X37534Y745D01*
X37457Y295D01*
X39068D01*
G01X33707Y16043D02*
Y19043D01*
X34665D01*
X34972Y18893D01*
X35164Y18693D01*
X35240Y18293D01*
X35164Y17893D01*
X34933Y17643D01*
X34665Y17493D01*
X33707D01*
G01X34665D02*
X35240Y16043D01*
G01X37574D02*
Y19043D01*
X37114Y18443D01*
G01Y16043D02*
X38033D01*
G01X35774Y30118D02*
Y33118D01*
X36732D01*
X37039Y32968D01*
X37231Y32768D01*
X37307Y32368D01*
X37231Y31968D01*
X37000Y31718D01*
X36732Y31568D01*
X35774D01*
G01X36732D02*
X37307Y30118D01*
G01X38912Y31368D02*
X39181Y31718D01*
X39411Y31918D01*
X39717Y32018D01*
X39985Y31918D01*
X40177Y31718D01*
X40331Y31418D01*
X40369Y31068D01*
X40331Y30768D01*
X40177Y30468D01*
X39947Y30218D01*
X39679Y30118D01*
X39372Y30218D01*
X39104Y30518D01*
X38950Y30968D01*
X38912Y31468D01*
X38989Y32118D01*
X39104Y32468D01*
X39296Y32818D01*
X39564Y33068D01*
X39832Y33118D01*
X40100Y33018D01*
X40292Y32768D01*
G01X31398Y13358D02*
X28398D01*
Y14316D01*
X28548Y14623D01*
X28748Y14815D01*
X29148Y14891D01*
X29548Y14815D01*
X29798Y14584D01*
X29948Y14316D01*
Y13358D01*
G01Y14316D02*
X31398Y14891D01*
G01Y17224D02*
X28398D01*
X28998Y16765D01*
G01X31398D02*
Y17684D01*
G01Y20784D02*
X28398D01*
X30548Y19366D01*
Y21283D01*
G01X26378Y13653D02*
X23378D01*
Y14611D01*
X23528Y14918D01*
X23728Y15110D01*
X24128Y15186D01*
X24528Y15110D01*
X24778Y14880D01*
X24928Y14611D01*
Y13653D01*
G01Y14611D02*
X26378Y15186D01*
G01Y17520D02*
X23378D01*
X23978Y17060D01*
G01X26378D02*
Y17980D01*
G01X23878Y19891D02*
X23578Y20121D01*
X23428Y20390D01*
X23378Y20696D01*
X23478Y21080D01*
X23728Y21348D01*
X24028Y21425D01*
X24328Y21386D01*
X24578Y21233D01*
X25078Y20467D01*
X25428Y20121D01*
X25928Y19891D01*
X26378Y19815D01*
Y21425D01*
G01X37778Y42219D02*
X37548Y42369D01*
X37279Y42469D01*
X36972D01*
X36628Y42319D01*
X36359Y42069D01*
X36168Y41769D01*
X36014Y41269D01*
X35976Y40819D01*
X36053Y40369D01*
X36168Y40069D01*
X36398Y39769D01*
X36666Y39569D01*
X36934Y39469D01*
X37203D01*
X37471Y39569D01*
X37701Y39719D01*
X37893Y39919D01*
G01X39191Y40069D02*
X39421Y39719D01*
X39728Y39519D01*
X40072Y39469D01*
X40379Y39519D01*
X40686Y39769D01*
X40878Y40069D01*
X40916Y40369D01*
X40839Y40719D01*
X40571Y40969D01*
X40303Y41069D01*
X39957D01*
G01X40303D02*
X40533Y41219D01*
X40724Y41469D01*
X40801Y41769D01*
X40724Y42069D01*
X40533Y42319D01*
X40187Y42469D01*
X39843Y42419D01*
X39498Y42219D01*
G01X35700Y34449D02*
Y37449D01*
X36659D01*
X36965Y37299D01*
X37157Y37099D01*
X37233Y36699D01*
X37157Y36299D01*
X36927Y36049D01*
X36659Y35899D01*
X35700D01*
G01X36659D02*
X37233Y34449D01*
G01X39567D02*
Y37449D01*
X39107Y36849D01*
G01Y34449D02*
X40027D01*
G01X42667Y37449D02*
X42360Y37349D01*
X42130Y37099D01*
X41977Y36799D01*
X41862Y36399D01*
X41824Y35949D01*
X41862Y35499D01*
X41977Y35099D01*
X42130Y34799D01*
X42360Y34549D01*
X42667Y34449D01*
X42974Y34549D01*
X43204Y34799D01*
X43357Y35099D01*
X43472Y35499D01*
X43510Y35949D01*
X43472Y36399D01*
X43357Y36799D01*
X43204Y37099D01*
X42974Y37349D01*
X42667Y37449D01*
G01X34941Y32132D02*
X31941D01*
Y33091D01*
X32091Y33397D01*
X32291Y33589D01*
X32691Y33665D01*
X33091Y33589D01*
X33341Y33359D01*
X33491Y33091D01*
Y32132D01*
G01Y33091D02*
X34941Y33665D01*
G01Y35999D02*
X34891Y36267D01*
X34741Y36574D01*
X34491Y36765D01*
X34141Y36842D01*
X33791Y36765D01*
X33491Y36535D01*
X33341Y36191D01*
Y35807D01*
X33241Y35577D01*
X32991Y35385D01*
X32641Y35309D01*
X32291Y35424D01*
X32041Y35692D01*
X31941Y35999D01*
X32041Y36306D01*
X32291Y36574D01*
X32641Y36689D01*
X32991Y36612D01*
X33241Y36420D01*
X33341Y36191D01*
Y35807D01*
X33491Y35462D01*
X33791Y35232D01*
X34141Y35156D01*
X34491Y35232D01*
X34741Y35424D01*
X34891Y35730D01*
X34941Y35999D01*
G01X29278Y39370D02*
Y42370D01*
X30236D01*
X30543Y42220D01*
X30735Y42020D01*
X30811Y41620D01*
X30735Y41220D01*
X30504Y40970D01*
X30236Y40820D01*
X29278D01*
G01X30236D02*
X30811Y39370D01*
G01X33604D02*
Y42370D01*
X32186Y40220D01*
X34103D01*
G01X20748Y49409D02*
Y52409D01*
X22511Y49409D01*
Y52409D01*
G01X24730D02*
Y49409D01*
G01X23848Y52409D02*
X25611D01*
G01X28673Y52159D02*
X28443Y52309D01*
X28174Y52409D01*
X27868D01*
X27523Y52259D01*
X27255Y52009D01*
X27063Y51709D01*
X26909Y51209D01*
X26871Y50759D01*
X26948Y50309D01*
X27063Y50009D01*
X27293Y49709D01*
X27561Y49509D01*
X27830Y49409D01*
X28098D01*
X28366Y49509D01*
X28596Y49659D01*
X28788Y49859D01*
G01X30201Y51909D02*
X30431Y52209D01*
X30700Y52359D01*
X31006Y52409D01*
X31389Y52309D01*
X31658Y52059D01*
X31735Y51759D01*
X31696Y51459D01*
X31543Y51209D01*
X30776Y50709D01*
X30431Y50359D01*
X30201Y49859D01*
X30124Y49409D01*
X31735D01*
G01X47610Y-8563D02*
Y-5563D01*
X48568D01*
X48875Y-5713D01*
X49067Y-5913D01*
X49143Y-6313D01*
X49067Y-6713D01*
X48836Y-6963D01*
X48568Y-7113D01*
X47610D01*
G01X48568D02*
X49143Y-8563D01*
G01X51476D02*
Y-5563D01*
X51017Y-6163D01*
G01Y-8563D02*
X51936D01*
G01X53925Y-8213D02*
X54193Y-8463D01*
X54500Y-8563D01*
X54806Y-8463D01*
X55075Y-8163D01*
X55267Y-7713D01*
X55343Y-7263D01*
Y-6713D01*
X55267Y-6263D01*
X55075Y-5863D01*
X54845Y-5663D01*
X54576Y-5563D01*
X54270Y-5663D01*
X54040Y-5863D01*
X53886Y-6163D01*
X53810Y-6563D01*
X53886Y-6913D01*
X54078Y-7263D01*
X54308Y-7463D01*
X54576Y-7513D01*
X54883Y-7413D01*
X55113Y-7163D01*
X55343Y-6713D01*
G01X50179Y-2270D02*
X49949Y-2120D01*
X49681Y-2020D01*
X49374D01*
X49029Y-2170D01*
X48761Y-2420D01*
X48569Y-2720D01*
X48416Y-3220D01*
X48378Y-3670D01*
X48454Y-4120D01*
X48569Y-4420D01*
X48799Y-4720D01*
X49067Y-4920D01*
X49336Y-5020D01*
X49604D01*
X49872Y-4920D01*
X50102Y-4770D01*
X50294Y-4570D01*
G01X51593D02*
X51822Y-4820D01*
X52091Y-4970D01*
X52436Y-5020D01*
X52781Y-4920D01*
X53049Y-4720D01*
X53241Y-4370D01*
X53279Y-3970D01*
X53202Y-3570D01*
X53011Y-3320D01*
X52743Y-3120D01*
X52474Y-3070D01*
X52206Y-3120D01*
X51861Y-3320D01*
X51976Y-2020D01*
X53011D01*
G01X42305Y3045D02*
X42075Y3195D01*
X41807Y3295D01*
X41500D01*
X41155Y3145D01*
X40887Y2895D01*
X40695Y2595D01*
X40542Y2095D01*
X40504Y1645D01*
X40580Y1195D01*
X40695Y895D01*
X40925Y595D01*
X41193Y395D01*
X41462Y295D01*
X41730D01*
X41998Y395D01*
X42228Y545D01*
X42420Y745D01*
G01X45022Y295D02*
Y3295D01*
X43604Y1145D01*
X45520D01*
G01X40720Y-3642D02*
Y-642D01*
X41678D01*
X41985Y-792D01*
X42177Y-992D01*
X42253Y-1392D01*
X42177Y-1792D01*
X41946Y-2042D01*
X41678Y-2192D01*
X40720D01*
G01X41678D02*
X42253Y-3642D01*
G01X44587D02*
Y-642D01*
X44127Y-1242D01*
G01Y-3642D02*
X45046D01*
G01X47687D02*
X47955Y-3592D01*
X48261Y-3442D01*
X48453Y-3192D01*
X48530Y-2842D01*
X48453Y-2492D01*
X48223Y-2192D01*
X47878Y-2042D01*
X47495D01*
X47265Y-1942D01*
X47073Y-1692D01*
X46996Y-1342D01*
X47112Y-992D01*
X47380Y-742D01*
X47687Y-642D01*
X47993Y-742D01*
X48261Y-992D01*
X48377Y-1342D01*
X48300Y-1692D01*
X48108Y-1942D01*
X47878Y-2042D01*
X47495D01*
X47150Y-2192D01*
X46920Y-2492D01*
X46843Y-2842D01*
X46920Y-3192D01*
X47112Y-3442D01*
X47418Y-3592D01*
X47687Y-3642D01*
G01X50768Y-1476D02*
Y1524D01*
X52531Y-1476D01*
Y1524D01*
G01X54749D02*
Y-1476D01*
G01X53868Y1524D02*
X55631D01*
G01X58693Y1274D02*
X58463Y1424D01*
X58194Y1524D01*
X57887D01*
X57543Y1374D01*
X57274Y1124D01*
X57083Y824D01*
X56929Y324D01*
X56891Y-126D01*
X56968Y-576D01*
X57083Y-876D01*
X57313Y-1176D01*
X57581Y-1376D01*
X57849Y-1476D01*
X58118D01*
X58386Y-1376D01*
X58616Y-1226D01*
X58807Y-1026D01*
G01X60949Y-1476D02*
Y1524D01*
X60489Y924D01*
G01Y-1476D02*
X61409D01*
G01X57256Y15748D02*
Y18748D01*
X58214D01*
X58520Y18598D01*
X58712Y18398D01*
X58789Y17998D01*
X58712Y17598D01*
X58482Y17348D01*
X58214Y17198D01*
X57256D01*
G01X58214D02*
X58789Y15748D01*
G01X61122D02*
Y18748D01*
X60662Y18148D01*
G01Y15748D02*
X61582D01*
G01X64145D02*
X64222Y16398D01*
X64337Y16948D01*
X64491Y17448D01*
X64682Y17998D01*
X64989Y18748D01*
X63456D01*
G01X48594Y16339D02*
Y19339D01*
X49552D01*
X49859Y19189D01*
X50051Y18989D01*
X50127Y18589D01*
X50051Y18189D01*
X49820Y17939D01*
X49552Y17789D01*
X48594D01*
G01X49552D02*
X50127Y16339D01*
G01X52461D02*
Y19339D01*
X52001Y18739D01*
G01Y16339D02*
X52920D01*
G01X54832Y17589D02*
X55101Y17939D01*
X55331Y18139D01*
X55637Y18239D01*
X55906Y18139D01*
X56097Y17939D01*
X56251Y17639D01*
X56289Y17289D01*
X56251Y16989D01*
X56097Y16689D01*
X55867Y16439D01*
X55599Y16339D01*
X55292Y16439D01*
X55024Y16739D01*
X54870Y17189D01*
X54832Y17689D01*
X54909Y18339D01*
X55024Y18689D01*
X55216Y19039D01*
X55484Y19289D01*
X55752Y19339D01*
X56020Y19239D01*
X56212Y18989D01*
G01X54869Y30807D02*
Y33807D01*
X55827D01*
X56133Y33657D01*
X56325Y33457D01*
X56402Y33057D01*
X56325Y32657D01*
X56095Y32407D01*
X55827Y32257D01*
X54869D01*
G01X55827D02*
X56402Y30807D01*
G01X57892Y31257D02*
X58122Y31007D01*
X58390Y30857D01*
X58735Y30807D01*
X59080Y30907D01*
X59348Y31107D01*
X59540Y31457D01*
X59578Y31857D01*
X59502Y32257D01*
X59310Y32507D01*
X59042Y32707D01*
X58773Y32757D01*
X58505Y32707D01*
X58160Y32507D01*
X58275Y33807D01*
X59310D01*
G01X54035Y29992D02*
X51035D01*
Y30950D01*
X51185Y31257D01*
X51385Y31448D01*
X51785Y31525D01*
X52185Y31448D01*
X52435Y31218D01*
X52585Y30950D01*
Y29992D01*
G01Y30950D02*
X54035Y31525D01*
G01Y33858D02*
X51035D01*
X51635Y33398D01*
G01X54035D02*
Y34318D01*
G01X53435Y36115D02*
X53785Y36345D01*
X53985Y36652D01*
X54035Y36996D01*
X53985Y37303D01*
X53735Y37610D01*
X53435Y37802D01*
X53135Y37840D01*
X52785Y37763D01*
X52535Y37495D01*
X52435Y37227D01*
Y36881D01*
G01Y37227D02*
X52285Y37457D01*
X52035Y37648D01*
X51735Y37725D01*
X51435Y37648D01*
X51185Y37457D01*
X51035Y37111D01*
X51085Y36767D01*
X51285Y36422D01*
G01X46063Y30090D02*
X43063D01*
Y31048D01*
X43213Y31355D01*
X43413Y31547D01*
X43813Y31623D01*
X44213Y31547D01*
X44463Y31317D01*
X44613Y31048D01*
Y30090D01*
G01Y31048D02*
X46063Y31623D01*
G01Y33957D02*
X43063D01*
X43663Y33497D01*
G01X46063D02*
Y34417D01*
G01Y37057D02*
X43063D01*
X43663Y36597D01*
G01X46063D02*
Y37517D01*
G01X50295Y30164D02*
X47295D01*
Y31122D01*
X47445Y31429D01*
X47645Y31620D01*
X48045Y31697D01*
X48445Y31620D01*
X48695Y31390D01*
X48845Y31122D01*
Y30164D01*
G01Y31122D02*
X50295Y31697D01*
G01Y33954D02*
X49645Y34030D01*
X49095Y34145D01*
X48595Y34299D01*
X48045Y34490D01*
X47295Y34797D01*
Y33264D01*
G01X40228Y16142D02*
Y19142D01*
X41186D01*
X41493Y18992D01*
X41685Y18792D01*
X41761Y18392D01*
X41685Y17992D01*
X41454Y17742D01*
X41186Y17592D01*
X40228D01*
G01X41186D02*
X41761Y16142D01*
G01X44094D02*
Y19142D01*
X43635Y18542D01*
G01Y16142D02*
X44554D01*
G01X46351Y16592D02*
X46581Y16342D01*
X46850Y16192D01*
X47194Y16142D01*
X47539Y16242D01*
X47808Y16442D01*
X48000Y16792D01*
X48038Y17192D01*
X47961Y17592D01*
X47769Y17842D01*
X47501Y18042D01*
X47233Y18092D01*
X46965Y18042D01*
X46620Y17842D01*
X46735Y19142D01*
X47769D01*
G01X54376Y34744D02*
Y37744D01*
X55335D01*
X55641Y37594D01*
X55833Y37394D01*
X55909Y36994D01*
X55833Y36594D01*
X55603Y36344D01*
X55335Y36194D01*
X54376D01*
G01X55335D02*
X55909Y34744D01*
G01X57591Y35094D02*
X57859Y34844D01*
X58166Y34744D01*
X58473Y34844D01*
X58741Y35144D01*
X58933Y35594D01*
X59009Y36044D01*
Y36594D01*
X58933Y37044D01*
X58741Y37444D01*
X58511Y37644D01*
X58243Y37744D01*
X57936Y37644D01*
X57706Y37444D01*
X57553Y37144D01*
X57476Y36744D01*
X57553Y36394D01*
X57744Y36044D01*
X57974Y35844D01*
X58243Y35794D01*
X58550Y35894D01*
X58780Y36144D01*
X59009Y36594D01*
G01X65533Y-8569D02*
X65304Y-8419D01*
X65035Y-8319D01*
X64728D01*
X64383Y-8469D01*
X64115Y-8719D01*
X63924Y-9019D01*
X63770Y-9519D01*
X63732Y-9969D01*
X63809Y-10419D01*
X63924Y-10719D01*
X64154Y-11019D01*
X64422Y-11219D01*
X64690Y-11319D01*
X64959D01*
X65227Y-11219D01*
X65457Y-11069D01*
X65648Y-10869D01*
G01X67062Y-8819D02*
X67292Y-8519D01*
X67560Y-8369D01*
X67867Y-8319D01*
X68250Y-8419D01*
X68519Y-8669D01*
X68595Y-8969D01*
X68557Y-9269D01*
X68404Y-9519D01*
X67637Y-10019D01*
X67292Y-10369D01*
X67062Y-10869D01*
X66985Y-11319D01*
X68595D01*
G01X63825Y-7185D02*
Y-4185D01*
X64783D01*
X65090Y-4335D01*
X65282Y-4535D01*
X65358Y-4935D01*
X65282Y-5335D01*
X65052Y-5585D01*
X64783Y-5735D01*
X63825D01*
G01X64783D02*
X65358Y-7185D01*
G01X66848Y-6585D02*
X67078Y-6935D01*
X67385Y-7135D01*
X67730Y-7185D01*
X68037Y-7135D01*
X68343Y-6885D01*
X68535Y-6585D01*
X68573Y-6285D01*
X68497Y-5935D01*
X68228Y-5685D01*
X67960Y-5585D01*
X67615D01*
G01X67960D02*
X68190Y-5435D01*
X68382Y-5185D01*
X68458Y-4885D01*
X68382Y-4585D01*
X68190Y-4335D01*
X67845Y-4185D01*
X67500Y-4235D01*
X67155Y-4435D01*
G01X64047Y8366D02*
Y11366D01*
X65005D01*
X65312Y11216D01*
X65504Y11016D01*
X65580Y10616D01*
X65504Y10216D01*
X65273Y9966D01*
X65005Y9816D01*
X64047D01*
G01X65005D02*
X65580Y8366D01*
G01X67185Y10866D02*
X67415Y11166D01*
X67683Y11316D01*
X67990Y11366D01*
X68373Y11266D01*
X68642Y11016D01*
X68719Y10716D01*
X68680Y10416D01*
X68527Y10166D01*
X67760Y9666D01*
X67415Y9316D01*
X67185Y8816D01*
X67108Y8366D01*
X68719D01*
G01X71013Y11366D02*
X70707Y11266D01*
X70477Y11016D01*
X70323Y10716D01*
X70208Y10316D01*
X70170Y9866D01*
X70208Y9416D01*
X70323Y9016D01*
X70477Y8716D01*
X70707Y8466D01*
X71013Y8366D01*
X71320Y8466D01*
X71550Y8716D01*
X71704Y9016D01*
X71819Y9416D01*
X71857Y9866D01*
X71819Y10316D01*
X71704Y10716D01*
X71550Y11016D01*
X71320Y11266D01*
X71013Y11366D01*
G01X66419Y6982D02*
X66189Y7132D01*
X65921Y7232D01*
X65614D01*
X65269Y7082D01*
X65001Y6832D01*
X64809Y6532D01*
X64656Y6032D01*
X64618Y5582D01*
X64694Y5132D01*
X64809Y4832D01*
X65039Y4532D01*
X65307Y4332D01*
X65576Y4232D01*
X65844D01*
X66113Y4332D01*
X66343Y4482D01*
X66534Y4682D01*
G01X67948Y5482D02*
X68216Y5832D01*
X68446Y6032D01*
X68753Y6132D01*
X69021Y6032D01*
X69213Y5832D01*
X69366Y5532D01*
X69404Y5182D01*
X69366Y4882D01*
X69213Y4582D01*
X68983Y4332D01*
X68714Y4232D01*
X68407Y4332D01*
X68139Y4632D01*
X67986Y5082D01*
X67948Y5582D01*
X68024Y6232D01*
X68139Y6582D01*
X68331Y6932D01*
X68599Y7182D01*
X68868Y7232D01*
X69136Y7132D01*
X69328Y6882D01*
G54D16*
G01X-31801Y-37698D02*
X-24301D01*
G01Y-25098D02*
X-31801D01*
G01X-8656Y-28290D02*
Y-30113D01*
G01D02*
X-6833D01*
G01Y6687D02*
X-8656D01*
G01D02*
Y4865D01*
G01X26322Y-30113D02*
X28144D01*
G01D02*
Y-28290D01*
G01X35528Y-11250D02*
X34128Y-9750D01*
Y-12650D01*
X35528Y-11250D01*
G01X37106Y-14650D02*
Y-16650D01*
G01X28144Y4865D02*
Y6687D01*
G01D02*
X26322D01*
G01X43028Y-17421D02*
X44799D01*
X46965Y-16240D01*
G01Y-18602D02*
X44799Y-17421D01*
G01X43028Y-21358D02*
X46965D01*
X46177Y-20650D01*
G01X43028D02*
Y-22067D01*
G01X42500Y-21949D02*
X41555D01*
G01X42500Y-9350D02*
X41555D01*
G01X46949Y-14650D02*
Y-16650D01*
G01X-32309Y-74409D02*
Y-65780D01*
G02X-41422Y-60424I35194J70308D01*
G02X-41911Y-56930I1352J1970D01*
G03X-44255Y-41572I-8016J6634D01*
G02X-47928Y-33343I4518J6951D01*
G03X-59739Y-26210I-7367J1146D01*
G02X-69257Y-23774I-3772J5075D01*
G02X-61807Y39263I69263J23772D01*
G02X-60430Y41408I24534J-14239D01*
G02X-56937Y41911I1976J-1345D01*
G03X-39893Y49971I6640J8009D01*
G01X-39902Y50423D01*
G02X-30900Y59899I9469J19D01*
G01X-6904Y59987D01*
X-6899D01*
G02X-6389Y59761I9J-665D01*
G03X5936Y59804I6148J4212D01*
G02X6451Y60037I513J-447D01*
G01X6456D01*
X30449Y60125D01*
G02X39516Y50279I-400J-9466D01*
G03X56612Y42322I10405J11D01*
G02X59707Y42307I1539J-1832D01*
G02X70055Y21396I-59696J-42557D01*
G02X69670Y-22618I-70055J-21396D01*
G02X59918Y-25769I-6015J1951D01*
G03X48160Y-32989I-4400J-6019D01*
G02X44552Y-41246I-8188J-1339D01*
G03X42321Y-56620I5737J-8681D01*
G02X41857Y-60118I-1831J-1537D01*
G02X32309Y-65746I-42097J60499D01*
G01Y-74409D01*
X-32309D01*
G01X-63783Y-250D02*
G03I-3149J0D01*
G01X-41911Y-56930D02*
G03X-44255Y-41572I-8016J6635D01*
G01X-41911Y-56930D02*
G03X-41422Y-60424I1841J-1523D01*
G01X-47928Y-33343D02*
G03X-44255Y-41572I8191J-1279D01*
G01X-29980Y30223D02*
X-33564D01*
X-34314Y29970D01*
X-34814Y29463D01*
X-34980Y28830D01*
X-34814Y28196D01*
X-34314Y27689D01*
X-33564Y27436D01*
X-29980D01*
G01X-34980Y23730D02*
X-29980D01*
X-30980Y24489D01*
G01X-34980D02*
Y22970D01*
G01X-20433Y-43870D02*
X-23220Y-47536D01*
G01X-21826Y-48203D02*
Y-43203D01*
G01X-23220Y-43870D02*
X-20433Y-47536D01*
G01X-19926Y-45703D02*
X-23726D01*
G01X-23760Y-37726D02*
X-21260D01*
Y-36659D01*
G01Y-34992D02*
X-23760D01*
X-23260Y-35312D01*
G01X-21260D02*
Y-34672D01*
G01X-24108Y-33898D02*
Y-30314D01*
X-24361Y-29564D01*
X-24868Y-29064D01*
X-25501Y-28898D01*
X-26135Y-29064D01*
X-26641Y-29564D01*
X-26894Y-30314D01*
Y-33898D01*
G01X-30474Y-28898D02*
X-30601Y-29981D01*
X-30791Y-30898D01*
X-31044Y-31731D01*
X-31361Y-32648D01*
X-31868Y-33898D01*
X-29335D01*
G01X-26372Y38937D02*
Y42520D01*
X-26625Y43270D01*
X-27131Y43770D01*
X-27765Y43937D01*
X-28398Y43770D01*
X-28905Y43270D01*
X-29158Y42520D01*
Y38937D01*
G01X-33625Y43937D02*
Y38937D01*
X-31281Y42520D01*
X-34448D01*
G01X-32904Y50402D02*
X-32770Y50153D01*
X-32609Y49986D01*
X-32423Y49904D01*
X-32209Y49987D01*
X-32050Y50154D01*
X-31891Y50405D01*
X-31838Y50738D01*
X-31843Y52405D01*
G01X-30679Y50950D02*
X-30493Y51242D01*
X-30333Y51409D01*
X-30120Y51493D01*
X-29933Y51410D01*
X-29800Y51244D01*
X-29692Y50994D01*
X-29665Y50702D01*
X-29691Y50452D01*
X-29797Y50202D01*
X-29956Y49993D01*
X-30143Y49909D01*
X-30356Y49993D01*
X-30543Y50242D01*
X-30651Y50617D01*
X-30679Y51033D01*
X-30627Y51575D01*
X-30548Y51867D01*
X-30415Y52159D01*
X-30229Y52368D01*
X-30043Y52410D01*
X-29856Y52327D01*
X-29722Y52119D01*
G01X-8819Y30223D02*
X-12402D01*
X-13152Y29970D01*
X-13652Y29463D01*
X-13819Y28830D01*
X-13652Y28196D01*
X-13152Y27689D01*
X-12402Y27436D01*
X-8819D01*
G01X-9652Y24933D02*
X-9152Y24553D01*
X-8902Y24109D01*
X-8819Y23603D01*
X-8985Y22970D01*
X-9402Y22526D01*
X-9902Y22400D01*
X-10402Y22463D01*
X-10819Y22716D01*
X-11652Y23983D01*
X-12235Y24553D01*
X-13069Y24933D01*
X-13819Y25059D01*
Y22400D01*
G01X-5210Y38937D02*
Y42520D01*
X-5463Y43270D01*
X-5970Y43770D01*
X-6604Y43937D01*
X-7237Y43770D01*
X-7744Y43270D01*
X-7997Y42520D01*
Y38937D01*
G01X-10310Y43187D02*
X-10690Y43604D01*
X-11133Y43854D01*
X-11704Y43937D01*
X-12274Y43770D01*
X-12717Y43437D01*
X-13033Y42854D01*
X-13097Y42187D01*
X-12970Y41520D01*
X-12654Y41104D01*
X-12210Y40770D01*
X-11767Y40687D01*
X-11324Y40770D01*
X-10754Y41104D01*
X-10944Y38937D01*
X-12654D01*
G01X-12235Y50402D02*
X-12101Y50153D01*
X-11940Y49986D01*
X-11754Y49904D01*
X-11540Y49987D01*
X-11381Y50154D01*
X-11221Y50405D01*
X-11169Y50738D01*
X-11173Y52405D01*
G01X-10088Y50283D02*
X-9927Y50075D01*
X-9740Y49951D01*
X-9500Y49909D01*
X-9260Y49994D01*
X-9074Y50161D01*
X-8941Y50453D01*
X-8916Y50786D01*
X-8970Y51119D01*
X-9104Y51327D01*
X-9291Y51493D01*
X-9478Y51535D01*
X-9664Y51493D01*
X-9904Y51325D01*
X-9826Y52409D01*
X-9107Y52411D01*
G01X12599Y-56906D02*
X15099Y-56902D01*
X15100Y-57435D01*
X14975Y-57649D01*
X14809Y-57809D01*
X14559Y-57943D01*
X14267Y-58050D01*
X13851Y-58078D01*
X13434Y-58052D01*
X13142Y-57945D01*
X12892Y-57813D01*
X12725Y-57653D01*
X12600Y-57439D01*
X12599Y-56906D01*
G01X12604Y-59639D02*
X13145Y-59692D01*
X13604Y-59771D01*
X14021Y-59877D01*
X14479Y-60009D01*
X15105Y-60222D01*
X15103Y-59155D01*
G01X16237Y-14213D02*
Y-10629D01*
X15984Y-9879D01*
X15478Y-9379D01*
X14844Y-9213D01*
X14211Y-9379D01*
X13704Y-9879D01*
X13451Y-10629D01*
Y-14213D01*
G01X9744Y-9213D02*
Y-14213D01*
X10504Y-13213D01*
G01Y-9213D02*
X8984D01*
G01X4644Y-14213D02*
X5151Y-14046D01*
X5531Y-13629D01*
X5784Y-13130D01*
X5974Y-12463D01*
X6037Y-11713D01*
X5974Y-10963D01*
X5784Y-10296D01*
X5531Y-9796D01*
X5151Y-9379D01*
X4644Y-9213D01*
X4137Y-9379D01*
X3757Y-9796D01*
X3504Y-10296D01*
X3314Y-10963D01*
X3251Y-11713D01*
X3314Y-12463D01*
X3504Y-13130D01*
X3757Y-13629D01*
X4137Y-14046D01*
X4644Y-14213D01*
G01X12638Y30420D02*
X9054D01*
X8304Y30167D01*
X7804Y29660D01*
X7638Y29026D01*
X7804Y28393D01*
X8304Y27886D01*
X9054Y27633D01*
X12638D01*
G01X8638Y25320D02*
X8054Y24940D01*
X7721Y24433D01*
X7638Y23863D01*
X7721Y23356D01*
X8138Y22850D01*
X8638Y22533D01*
X9138Y22470D01*
X9721Y22596D01*
X10138Y23040D01*
X10304Y23483D01*
Y24053D01*
G01Y23483D02*
X10554Y23103D01*
X10971Y22786D01*
X11471Y22660D01*
X11971Y22786D01*
X12388Y23103D01*
X12638Y23673D01*
X12554Y24243D01*
X12221Y24813D01*
G01X16148Y38937D02*
Y42520D01*
X15895Y43270D01*
X15388Y43770D01*
X14755Y43937D01*
X14121Y43770D01*
X13615Y43270D01*
X13361Y42520D01*
Y38937D01*
G01X10858Y41854D02*
X10415Y41270D01*
X10035Y40937D01*
X9528Y40770D01*
X9085Y40937D01*
X8768Y41270D01*
X8515Y41770D01*
X8451Y42354D01*
X8515Y42854D01*
X8768Y43354D01*
X9148Y43770D01*
X9591Y43937D01*
X10098Y43770D01*
X10541Y43270D01*
X10795Y42520D01*
X10858Y41687D01*
X10731Y40604D01*
X10541Y40020D01*
X10225Y39437D01*
X9781Y39020D01*
X9338Y38937D01*
X8895Y39104D01*
X8578Y39520D01*
G01X8435Y50402D02*
X8569Y50153D01*
X8729Y49986D01*
X8916Y49904D01*
X9129Y49987D01*
X9289Y50154D01*
X9448Y50405D01*
X9500Y50738D01*
X9496Y52405D01*
G01X11489Y49910D02*
X11483Y52410D01*
X10501Y50616D01*
X11834Y50620D01*
G01X32737Y-24798D02*
X29951Y-28465D01*
G01X31344Y-29131D02*
Y-24131D01*
G01X29951Y-24798D02*
X32737Y-28465D01*
G01X33244Y-26631D02*
X29444D01*
G01X44552Y-41246D02*
G03X42321Y-56620I5737J-8681D01*
G01X44552Y-41246D02*
G03X48160Y-32989I-4579J6918D01*
G01X44912Y-34972D02*
X45046Y-35222D01*
X45206Y-35389D01*
X45393Y-35472D01*
X45606Y-35389D01*
X45766Y-35222D01*
X45926Y-34972D01*
X45979Y-34639D01*
Y-32972D01*
G01X47059Y-34972D02*
X47219Y-35264D01*
X47432Y-35431D01*
X47672Y-35472D01*
X47886Y-35431D01*
X48099Y-35222D01*
X48232Y-34972D01*
X48259Y-34722D01*
X48206Y-34431D01*
X48019Y-34222D01*
X47832Y-34139D01*
X47593D01*
G01X47832D02*
X47993Y-34014D01*
X48126Y-33806D01*
X48179Y-33556D01*
X48126Y-33306D01*
X47993Y-33098D01*
X47752Y-32972D01*
X47512Y-33014D01*
X47272Y-33181D01*
G01X70074Y243D02*
G03I-3150J0D01*
G54D17*
G01X-20374Y-44685D02*
Y-40748D01*
X-25295D01*
Y-44685D01*
X-20374D01*
M02*
