G04 ================== begin FILE IDENTIFICATION RECORD ==================*
G04 Layout Name:  D:/PROJECT/07_FOC/FOC/CIRCUIT/CANDENCE/STM32/stspin32g4_foc.brd*
G04 Film Name:    soldbot*
G04 File Format:  Gerber RS274X*
G04 File Origin:  Cadence Allegro 17.4-S039*
G04 Origin Date:  Thu Nov 13 09:35:22 2025*
G04 *
G04 Layer:  PIN/SOLDERMASK_BOTTOM*
G04 Layer:  PACKAGE GEOMETRY/SOLDERMASK_BOTTOM*
G04 Layer:  BOARD GEOMETRY/SOLDERMASK_BOTTOM*
G04 Layer:  BOARD GEOMETRY/OUTLINE*
G04 *
G04 Offset:    (0.0000 0.0000)*
G04 Mirror:    No*
G04 Mode:      Positive*
G04 Rotation:  0*
G04 FullContactRelief:  No*
G04 UndefLineWidth:     0.1524*
G04 ================== end FILE IDENTIFICATION RECORD ====================*
%FSLAX25Y25*MOIN*%
%IR0*IPPOS*OFA0.00000B0.00000*MIA0B0*SFA1.00000B1.00000*%
%ADD13R,.023622X.070866*%
%ADD16O,.051244X.019748*%
%ADD18R,.047244X.043307*%
%ADD12R,.047244X.098425*%
%ADD10R,.086614X.094488*%
%ADD15R,.062992X.055118*%
%ADD11R,.066929X.074803*%
%ADD19C,.04*%
%ADD14R,.029528X.027559*%
%ADD17R,.027559X.029528*%
%ADD20C,.006*%
G75*
%LPD*%
G75*
G54D10*
X-32579Y-41240D03*
X-12106D03*
G54D20*
G01X-32309Y-74409D02*
Y-65780D01*
G02X-41422Y-60424I35194J70308D01*
G02X-41911Y-56930I1352J1970D01*
G03X-44255Y-41572I-8016J6634D01*
G02X-47928Y-33343I4518J6951D01*
G03X-59739Y-26210I-7367J1146D01*
G02X-69257Y-23774I-3772J5075D01*
G02X-61807Y39263I69263J23772D01*
G02X-60430Y41408I24534J-14239D01*
G02X-56937Y41911I1976J-1345D01*
G03X-39893Y49971I6640J8009D01*
G01X-39902Y50423D01*
G02X-30900Y59899I9469J19D01*
G01X-6904Y59987D01*
X-6899D01*
G02X-6389Y59761I9J-665D01*
G03X5936Y59804I6148J4212D01*
G02X6451Y60037I513J-447D01*
G01X6456D01*
X30449Y60125D01*
G02X39516Y50279I-400J-9466D01*
G03X56612Y42322I10405J11D01*
G02X59707Y42307I1539J-1832D01*
G02X70055Y21396I-59696J-42557D01*
G02X69670Y-22618I-70055J-21396D01*
G02X59918Y-25769I-6015J1951D01*
G03X48160Y-32989I-4400J-6019D01*
G02X44552Y-41246I-8188J-1339D01*
G03X42321Y-56620I5737J-8681D01*
G02X41857Y-60118I-1831J-1537D01*
G02X32309Y-65746I-42097J60499D01*
G01Y-74409D01*
X-32309D01*
G01X-63783Y-250D02*
G03I-3149J0D01*
G01X-41911Y-56930D02*
G03X-44255Y-41572I-8016J6635D01*
G01X-41911Y-56930D02*
G03X-41422Y-60424I1841J-1523D01*
G01X-47928Y-33343D02*
G03X-44255Y-41572I8191J-1279D01*
G01X44552Y-41246D02*
G03X42321Y-56620I5737J-8681D01*
G01X44552Y-41246D02*
G03X48160Y-32989I-4579J6918D01*
G01X70074Y243D02*
G03I-3150J0D01*
G54D11*
X-32579Y-17520D03*
X-38681Y-7480D03*
X-33071Y13780D03*
X-44094D03*
X-32972Y2953D03*
X-43996D03*
X-21260Y-27756D03*
X-32283D03*
X-21555Y-17520D03*
X-27657Y-7480D03*
G54D12*
X-29035Y-68996D03*
X12795D03*
X7185D03*
X29331D03*
G54D13*
X-24705Y-55610D03*
X-20768D03*
X-16831D03*
X-12894D03*
X-8957D03*
X-5020D03*
X-1083D03*
X17126D03*
X21063D03*
X2854D03*
X25000D03*
G54D14*
X-15945Y-5020D03*
Y-8957D03*
G54D15*
X-18209Y47638D03*
Y40157D03*
X3150Y47638D03*
Y40157D03*
X24705Y47638D03*
Y40157D03*
G54D16*
X-11220Y-6398D03*
Y-8957D03*
Y8957D03*
Y6398D03*
Y3839D03*
Y1280D03*
Y-1280D03*
Y-3839D03*
X11220Y-8957D03*
Y-6398D03*
Y-3839D03*
Y-1280D03*
Y1280D03*
Y3839D03*
Y6398D03*
Y8957D03*
G54D17*
X7087Y-29528D03*
X11024D03*
X15453D03*
X19390D03*
X20079Y689D03*
Y-3051D03*
X24016Y689D03*
Y-3051D03*
G54D18*
X21654Y-8268D03*
Y5807D03*
X35138Y-32087D03*
X28346Y-8268D03*
Y5807D03*
X41831Y-32087D03*
G54D19*
X34646Y-43012D03*
Y-47933D03*
Y-52854D03*
Y-38091D03*
M02*
