G04 ================== begin FILE IDENTIFICATION RECORD ==================*
G04 Layout Name:  d:/project/07_foc/foc/circuit/candence/stm32/stspin32g4_foc.brd*
G04 Film Name:    soldtop*
G04 File Format:  Gerber RS274X*
G04 File Origin:  Cadence Allegro 17.4-S039*
G04 Origin Date:  Sat Nov  8 14:58:41 2025*
G04 *
G04 Layer:  PIN/SOLDERMASK_TOP*
G04 Layer:  PACKAGE GEOMETRY/SOLDERMASK_TOP*
G04 Layer:  BOARD GEOMETRY/SOLDERMASK_TOP*
G04 Layer:  BOARD GEOMETRY/OUTLINE*
G04 *
G04 Offset:    (0.0000 0.0000)*
G04 Mirror:    No*
G04 Mode:      Positive*
G04 Rotation:  0*
G04 FullContactRelief:  No*
G04 UndefLineWidth:     0.1524*
G04 ================== end FILE IDENTIFICATION RECORD ====================*
%FSLAX25Y25*MOMM*%
%IR0*IPPOS*OFA0.00000B0.00000*MIA0B0*SFA1.00000B1.00000*%
%ADD13R,1.0033X.4572*%
%ADD19R,.69X1.49*%
%ADD21R,.9652X1.143*%
%ADD26R,1.2X1.1*%
%ADD28R,1.3X1.5001*%
%ADD16R,.6X.3*%
%ADD15R,.3X.6*%
%ADD18R,.5X.6*%
%ADD25R,1.7X2.8*%
%ADD10R,1.7X1.9*%
%ADD27C,1.016*%
%ADD12R,.75X.7*%
%ADD20R,.65X.45*%
%ADD11R,.7X.75*%
%ADD17R,1.6X1.6*%
%ADD23R,.8128X.254*%
%ADD22R,.254X.8128*%
%ADD14R,.0254X.0254*%
%ADD24R,4.0894X4.0894*%
%ADD29C,.1524*%
G75*
%LPD*%
G75*
G36*
G01X-942180Y723500D02*
X-707820D01*
X-706790Y723400D01*
X-705790Y723100D01*
X-704870Y722600D01*
X-704060Y721940D01*
X-703400Y721130D01*
X-702900Y720210D01*
X-702600Y719210D01*
X-702500Y718180D01*
Y551330D01*
X-702600Y550290D01*
X-702900Y549290D01*
X-703400Y548370D01*
X-704060Y547560D01*
X-704870Y546900D01*
X-705790Y546410D01*
X-706790Y546100D01*
X-707820Y546000D01*
X-942180D01*
X-943210Y546100D01*
X-944210Y546410D01*
X-945130Y546900D01*
X-945940Y547560D01*
X-946600Y548370D01*
X-947100Y549290D01*
X-947400Y550290D01*
X-947500Y551330D01*
Y718180D01*
X-947400Y719210D01*
X-947100Y720210D01*
X-946600Y721130D01*
X-945940Y721940D01*
X-945130Y722600D01*
X-944210Y723100D01*
X-943210Y723400D01*
X-942180Y723500D01*
G37*
G36*
G01X-807500Y575000D02*
Y525000D01*
X-777500D01*
Y575000D01*
X-807500D01*
G37*
G36*
G01X-872500D02*
Y525000D01*
X-842500D01*
Y575000D01*
X-872500D01*
G37*
G36*
G01X-937500D02*
Y525000D01*
X-907500D01*
Y575000D01*
X-937500D01*
G37*
G36*
G01X-714000Y1169680D02*
Y935320D01*
X-714100Y934290D01*
X-714400Y933290D01*
X-714900Y932370D01*
X-715560Y931560D01*
X-716370Y930900D01*
X-717290Y930400D01*
X-718290Y930100D01*
X-719320Y930000D01*
X-886170D01*
X-887210Y930100D01*
X-888210Y930400D01*
X-889130Y930900D01*
X-889940Y931560D01*
X-890600Y932370D01*
X-891090Y933290D01*
X-891400Y934290D01*
X-891500Y935320D01*
Y1169680D01*
X-891400Y1170710D01*
X-891090Y1171710D01*
X-890600Y1172630D01*
X-889940Y1173440D01*
X-889130Y1174100D01*
X-888210Y1174600D01*
X-887210Y1174900D01*
X-886170Y1175000D01*
X-719320D01*
X-718290Y1174900D01*
X-717290Y1174600D01*
X-716370Y1174100D01*
X-715560Y1173440D01*
X-714900Y1172630D01*
X-714400Y1171710D01*
X-714100Y1170710D01*
X-714000Y1169680D01*
G37*
G36*
G01X-862500Y1035000D02*
X-912500D01*
Y1005000D01*
X-862500D01*
Y1035000D01*
G37*
G36*
G01Y1100000D02*
X-912500D01*
Y1070000D01*
X-862500D01*
Y1100000D01*
G37*
G36*
G01Y1165000D02*
X-912500D01*
Y1135000D01*
X-862500D01*
Y1165000D01*
G37*
G36*
G01Y970000D02*
X-912500D01*
Y940000D01*
X-862500D01*
Y970000D01*
G37*
G36*
G01X-742500Y575000D02*
Y525000D01*
X-712500D01*
Y575000D01*
X-742500D01*
G37*
G36*
G01X-404680Y723500D02*
X-170320D01*
X-169290Y723400D01*
X-168290Y723100D01*
X-167370Y722600D01*
X-166560Y721940D01*
X-165900Y721130D01*
X-165400Y720210D01*
X-165100Y719210D01*
X-165000Y718180D01*
Y551330D01*
X-165100Y550290D01*
X-165400Y549290D01*
X-165900Y548370D01*
X-166560Y547560D01*
X-167370Y546900D01*
X-168290Y546410D01*
X-169290Y546100D01*
X-170320Y546000D01*
X-404680D01*
X-405710Y546100D01*
X-406710Y546410D01*
X-407630Y546900D01*
X-408440Y547560D01*
X-409100Y548370D01*
X-409600Y549290D01*
X-409900Y550290D01*
X-410000Y551330D01*
Y718180D01*
X-409900Y719210D01*
X-409600Y720210D01*
X-409100Y721130D01*
X-408440Y721940D01*
X-407630Y722600D01*
X-406710Y723100D01*
X-405710Y723400D01*
X-404680Y723500D01*
G37*
G36*
G01X-335000Y575000D02*
Y525000D01*
X-305000D01*
Y575000D01*
X-335000D01*
G37*
G36*
G01X-400000D02*
Y525000D01*
X-370000D01*
Y575000D01*
X-400000D01*
G37*
G36*
G01X-176500Y1169680D02*
Y935320D01*
X-176600Y934290D01*
X-176900Y933290D01*
X-177400Y932370D01*
X-178060Y931560D01*
X-178870Y930900D01*
X-179790Y930400D01*
X-180790Y930100D01*
X-181820Y930000D01*
X-348670D01*
X-349710Y930100D01*
X-350710Y930400D01*
X-351630Y930900D01*
X-352440Y931560D01*
X-353100Y932370D01*
X-353590Y933290D01*
X-353900Y934290D01*
X-354000Y935320D01*
Y1169680D01*
X-353900Y1170710D01*
X-353590Y1171710D01*
X-353100Y1172630D01*
X-352440Y1173440D01*
X-351630Y1174100D01*
X-350710Y1174600D01*
X-349710Y1174900D01*
X-348670Y1175000D01*
X-181820D01*
X-180790Y1174900D01*
X-179790Y1174600D01*
X-178870Y1174100D01*
X-178060Y1173440D01*
X-177400Y1172630D01*
X-176900Y1171710D01*
X-176600Y1170710D01*
X-176500Y1169680D01*
G37*
G36*
G01X-325000Y1035000D02*
X-375000D01*
Y1005000D01*
X-325000D01*
Y1035000D01*
G37*
G36*
G01Y1100000D02*
X-375000D01*
Y1070000D01*
X-325000D01*
Y1100000D01*
G37*
G36*
G01Y1165000D02*
X-375000D01*
Y1135000D01*
X-325000D01*
Y1165000D01*
G37*
G36*
G01Y970000D02*
X-375000D01*
Y940000D01*
X-325000D01*
Y970000D01*
G37*
G36*
G01X140320Y728500D02*
X374680D01*
X375710Y728400D01*
X376710Y728100D01*
X377630Y727600D01*
X378440Y726940D01*
X379100Y726130D01*
X379600Y725210D01*
X379900Y724210D01*
X380000Y723180D01*
Y556330D01*
X379900Y555290D01*
X379600Y554290D01*
X379100Y553370D01*
X378440Y552560D01*
X377630Y551900D01*
X376710Y551410D01*
X375710Y551100D01*
X374680Y551000D01*
X140320D01*
X139290Y551100D01*
X138290Y551410D01*
X137370Y551900D01*
X136560Y552560D01*
X135900Y553370D01*
X135400Y554290D01*
X135100Y555290D01*
X135000Y556330D01*
Y723180D01*
X135100Y724210D01*
X135400Y725210D01*
X135900Y726130D01*
X136560Y726940D01*
X137370Y727600D01*
X138290Y728100D01*
X139290Y728400D01*
X140320Y728500D01*
G37*
G36*
G01X145000Y580000D02*
Y530000D01*
X175000D01*
Y580000D01*
X145000D01*
G37*
G36*
G01X-270000Y575000D02*
Y525000D01*
X-240000D01*
Y575000D01*
X-270000D01*
G37*
G36*
G01X-205000D02*
Y525000D01*
X-175000D01*
Y575000D01*
X-205000D01*
G37*
G36*
G01X217500Y1035000D02*
X167500D01*
Y1005000D01*
X217500D01*
Y1035000D01*
G37*
G36*
G01Y1100000D02*
X167500D01*
Y1070000D01*
X217500D01*
Y1100000D01*
G37*
G36*
G01Y1165000D02*
X167500D01*
Y1135000D01*
X217500D01*
Y1165000D01*
G37*
G36*
G01Y970000D02*
X167500D01*
Y940000D01*
X217500D01*
Y970000D01*
G37*
G36*
G01X275000Y580000D02*
Y530000D01*
X305000D01*
Y580000D01*
X275000D01*
G37*
G36*
G01X210000D02*
Y530000D01*
X240000D01*
Y580000D01*
X210000D01*
G37*
G36*
G01X340000D02*
Y530000D01*
X370000D01*
Y580000D01*
X340000D01*
G37*
G36*
G01X366000Y1169680D02*
Y935320D01*
X365900Y934290D01*
X365600Y933290D01*
X365100Y932370D01*
X364440Y931560D01*
X363630Y930900D01*
X362710Y930400D01*
X361710Y930100D01*
X360680Y930000D01*
X193830D01*
X192790Y930100D01*
X191790Y930400D01*
X190870Y930900D01*
X190060Y931560D01*
X189400Y932370D01*
X188910Y933290D01*
X188600Y934290D01*
X188500Y935320D01*
Y1169680D01*
X188600Y1170710D01*
X188910Y1171710D01*
X189400Y1172630D01*
X190060Y1173440D01*
X190870Y1174100D01*
X191790Y1174600D01*
X192790Y1174900D01*
X193830Y1175000D01*
X360680D01*
X361710Y1174900D01*
X362710Y1174600D01*
X363630Y1174100D01*
X364440Y1173440D01*
X365100Y1172630D01*
X365600Y1171710D01*
X365900Y1170710D01*
X366000Y1169680D01*
G37*
G54D10*
X-1397500Y-447500D03*
Y-190000D03*
Y325000D03*
Y67500D03*
X-1502500Y617500D03*
X-1222500D03*
X-1117500Y-447500D03*
Y-190000D03*
Y325000D03*
Y67500D03*
X-132500Y-1115000D03*
X147500D03*
X405000Y-1465000D03*
X685000D03*
X410000Y-1737500D03*
X690000D03*
G54D11*
X-780000Y-1297500D03*
Y-1200000D03*
X-680000Y-1297500D03*
X-480000D03*
X-380000D03*
X-680000Y-1200000D03*
X-380000D03*
X-480000D03*
X-402500Y-535000D03*
X-502500D03*
X-402500Y-160000D03*
X-502500D03*
X-402500Y-412500D03*
X-502500D03*
X-402500Y-35000D03*
X-502500D03*
X-402500Y-285000D03*
X-502500D03*
X-402500Y90000D03*
X-502500D03*
X105000Y-922500D03*
X205000D03*
X657500Y-872500D03*
X757500D03*
X1065000Y-760000D03*
X965000D03*
X1065000Y-852500D03*
X965000D03*
X1052500Y-650000D03*
X1152500D03*
X982500Y-147500D03*
X1082500D03*
X1075840Y242500D03*
X880000Y142500D03*
X980000D03*
X879170Y345000D03*
X979170D03*
X980840Y242500D03*
X880840D03*
X1075000Y142500D03*
X1074170Y345000D03*
X1050000Y597500D03*
X950000D03*
Y692500D03*
X1050000D03*
X897500Y1155000D03*
X797500D03*
Y1247500D03*
X897500D03*
X1437500Y-242500D03*
X1537500D03*
Y-155000D03*
X1437500D03*
X1175840Y242500D03*
X1565840D03*
X1465840D03*
X1270000Y142500D03*
X1370000D03*
X1464170Y345000D03*
X1564170D03*
X1269170D03*
X1369170D03*
X1565000Y142500D03*
X1465000D03*
X1270840Y242500D03*
X1370840D03*
X1175000Y142500D03*
X1174170Y345000D03*
X1512500Y597500D03*
X1412500D03*
Y692500D03*
X1512500D03*
G54D20*
X-640000Y-1112500D03*
Y-1057500D03*
X-520000D03*
Y-1112500D03*
G54D12*
X-1010000Y-1020000D03*
X-877500Y-1097500D03*
Y-997500D03*
X-1012500Y-800000D03*
Y-700000D03*
X-1010000Y-920000D03*
X-1065000Y875000D03*
Y775000D03*
X-580000Y-1300000D03*
Y-1200000D03*
X-405000Y-795000D03*
Y-695000D03*
X-525000Y875000D03*
Y775000D03*
X-590000Y570000D03*
Y670000D03*
X-520000Y1250000D03*
Y1150000D03*
X25000Y875000D03*
Y775000D03*
X-47500Y570000D03*
Y670000D03*
X17500Y1250000D03*
Y1150000D03*
X492500Y570000D03*
Y670000D03*
X647500Y597500D03*
Y697500D03*
X565000Y1250000D03*
Y1150000D03*
X752500Y597500D03*
Y697500D03*
X1140000Y595000D03*
Y695000D03*
X855000Y595000D03*
Y695000D03*
X1325000Y595000D03*
Y695000D03*
X1232500Y595000D03*
Y695000D03*
G54D21*
X140000Y-1594990D03*
Y-1345010D03*
G54D22*
X172480Y-742000D03*
X122470D03*
X72460D03*
X22440D03*
X-27570D03*
X-77580D03*
X-127590D03*
Y147000D03*
X-77580D03*
X-27570D03*
X22440D03*
X72460D03*
X122470D03*
X172480D03*
X622590Y-742000D03*
X572580D03*
X522570D03*
X472560D03*
X422540D03*
X372530D03*
X322520D03*
X272510D03*
X222490D03*
Y147000D03*
X272510D03*
X322520D03*
X372530D03*
X422540D03*
X472560D03*
X522570D03*
X572580D03*
X622590D03*
G54D13*
X-845210Y-895000D03*
Y-830000D03*
Y-765000D03*
Y-700000D03*
X-579790D03*
Y-765000D03*
Y-830000D03*
Y-895000D03*
G54D14*
X-825000Y601460D03*
X-836040Y1052500D03*
X-287500Y601460D03*
X-298540Y1052500D03*
X257500Y606460D03*
X243960Y1052500D03*
G54D23*
X-197000Y-672590D03*
Y-622580D03*
Y-572570D03*
Y-522560D03*
Y-472540D03*
Y-422530D03*
Y-372520D03*
Y-322510D03*
Y-272490D03*
Y-222480D03*
Y-172470D03*
Y-122460D03*
Y-72440D03*
Y-22430D03*
Y27580D03*
Y77590D03*
X692000Y-522560D03*
Y-572570D03*
Y-622580D03*
Y-672590D03*
Y-72440D03*
Y-122460D03*
Y-172470D03*
Y-222480D03*
Y-272490D03*
Y-322510D03*
Y-372520D03*
Y-422530D03*
Y-472540D03*
Y77590D03*
Y27580D03*
Y-22430D03*
G54D24*
X247500Y-297500D03*
G54D15*
X-792500Y512500D03*
X-857500D03*
X-922500D03*
Y822500D03*
X-857500D03*
X-792500D03*
X-727500Y512500D03*
Y822500D03*
X-320000Y512500D03*
X-385000D03*
Y822500D03*
X-320000D03*
X160000Y517500D03*
Y827500D03*
X-190000Y512500D03*
X-255000D03*
Y822500D03*
X-190000D03*
X355000Y517500D03*
X290000D03*
X225000D03*
Y827500D03*
X290000D03*
X355000D03*
G54D25*
X402500Y-1130000D03*
X682500D03*
G54D16*
X-925000Y955000D03*
Y1020000D03*
Y1085000D03*
Y1150000D03*
X-387500Y955000D03*
Y1020000D03*
Y1085000D03*
Y1150000D03*
X-615000D03*
Y1085000D03*
Y1020000D03*
Y955000D03*
X155000D03*
Y1020000D03*
Y1085000D03*
Y1150000D03*
X-77500D03*
Y1085000D03*
Y1020000D03*
Y955000D03*
X465000Y1150000D03*
Y1085000D03*
Y1020000D03*
Y955000D03*
G54D17*
X-802500Y1377500D03*
X-277500D03*
X247500D03*
G54D26*
X577500Y1395000D03*
X747500D03*
X1332500Y2500D03*
X1502500D03*
G54D27*
X880000Y-967500D03*
Y-1092500D03*
Y-1217500D03*
Y-1342500D03*
G54D18*
X-547500Y-1817500D03*
X-652500D03*
X-380000D03*
X-275000D03*
G54D28*
X1152500Y-507500D03*
X982500D03*
X1152500Y-287500D03*
X982500D03*
G54D19*
X-675000Y-1666500D03*
X-485000D03*
X-580000Y-1433500D03*
G54D29*
G01X-820650Y-1890000D02*
Y-1670820D01*
G02X-1052120Y-1534770I893933J1785834D01*
G02X-1064540Y-1446030I34339J50045D01*
G03X-1124070Y-1055940I-203618J168514D01*
G02X-1217360Y-846900I114751J176548D01*
G03X-1517360Y-665730I-187122J29114D01*
G02X-1759140Y-603860I-95817J128915D01*
G02X-1569900Y997270I1759280J603816D01*
G02X-1534910Y1051760I623157J-361672D01*
G02X-1446210Y1064530I50186J-34153D01*
G03X-1013280Y1269270I168668J203439D01*
G01X-1013520Y1280740D01*
G02X-784850Y1521440I240509J482D01*
G01X-175370Y1523680D01*
X-175230D01*
G02X-162290Y1517920I229J-16900D01*
G03X150770Y1519010I156159J106977D01*
G02X163860Y1524930I13023J-11364D01*
G01X163970D01*
X773410Y1527180D01*
G02X1003710Y1277090I-10155J-240434D01*
G03X1437950Y1074980I264282J275D01*
G02X1516570Y1074590I39080J-46539D01*
G02X1779400Y543470I-1516285J-1080941D01*
G02X1769620Y-574500I-1779402J-543462D01*
G02X1521920Y-654530I-152792J49563D01*
G03X1223270Y-837910I-111751J-152883D01*
G02X1131610Y-1047640I-207976J-34001D01*
G03X1074960Y-1438140I145732J-220501D01*
G02X1063180Y-1526990I-46505J-39040D01*
G02X820650Y-1669960I-1069268J1536679D01*
G01Y-1890000D01*
X-820650D01*
G01X-1620090Y-6340D02*
G03I-79996J0D01*
G01X-1064540Y-1446030D02*
G03X-1052130Y-1534760I46758J-38693D01*
G01X-1217360Y-846900D02*
G03X-1124070Y-1055930I208039J-32485D01*
G01X-1064540Y-1446030D02*
G03X-1124070Y-1055930I-203619J168520D01*
G01X1131610Y-1047640D02*
G03X1074960Y-1438140I145730J-220500D01*
G01X1131610Y-1047640D02*
G03X1223270Y-837910I-116313J175728D01*
G01X1779890Y6180D02*
G03I-79999J1D01*
M02*
