G04 ================== begin FILE IDENTIFICATION RECORD ==================*
G04 Layout Name:  d:/project/07_foc/foc/circuit/candence/stm32/stspin32g4_foc.brd*
G04 Film Name:    top*
G04 File Format:  Gerber RS274X*
G04 File Origin:  Cadence Allegro 17.4-S039*
G04 Origin Date:  Sat Nov  8 15:02:02 2025*
G04 *
G04 Layer:  VIA CLASS/TOP*
G04 Layer:  PIN/TOP*
G04 Layer:  ETCH/TOP*
G04 *
G04 Offset:    (0.0000 0.0000)*
G04 Mirror:    No*
G04 Mode:      Positive*
G04 Rotation:  0*
G04 FullContactRelief:  No*
G04 UndefLineWidth:     0.1524*
G04 ================== end FILE IDENTIFICATION RECORD ====================*
%FSLAX55Y55*MOMM*%
%IR0*IPPOS*OFA0.00000B0.00000*MIA0B0*SFA1.00000B1.00000*%
%ADD11C,.6*%
%ADD14R,1.0033X.4572*%
%ADD21R,.59X1.39*%
%ADD28R,1.1X1.*%
%ADD22R,.5X.3*%
%ADD20R,.4X.5*%
%ADD18R,.7X.4*%
%ADD27R,1.6X2.7*%
%ADD16R,.4X.7*%
%ADD10R,1.6X1.8*%
%ADD15R,2.55X2.51*%
%ADD17R,2.51X2.55*%
%ADD29C,1.016*%
%ADD13R,.65X.6*%
%ADD12R,.6X.65*%
%ADD19R,1.5X1.5*%
%ADD30R,1.1999X1.4*%
%ADD25R,.8128X.254*%
%ADD24R,.254X.8128*%
%ADD26R,4.0894X4.0894*%
%ADD23R,.8128X.9906*%
%ADD31C,.2*%
%ADD32C,.3*%
%ADD33C,1.8008*%
G75*
%LPD*%
G75*
G36*
G01X-1315400Y762500D02*
X-1142100D01*
G02X-1138510Y761010I-4J-5080D01*
G01X-1094210Y716710D01*
G02X-1092720Y713120I-3590J-3594D01*
G01Y488890D01*
G03X-1084600Y469290I27715J0D01*
G01X-1008990Y393680D01*
G02X-1007500Y390080I-3590J-3594D01*
G01Y9600D01*
G03X-1006010Y6010I5080J4D01*
G01X-876490Y-123510D01*
G02X-875000Y-127100I-3590J-3594D01*
G01Y-267900D01*
G03X-873510Y-271490I5080J4D01*
G01X-811490Y-333510D01*
G03X-807900Y-335000I3594J3590D01*
G01X-784600D01*
G02X-781010Y-336490I-4J-5080D01*
G01X-706490Y-411010D01*
G02X-705000Y-414600I-3590J-3594D01*
G01Y-549920D01*
G02X-710080Y-555000I-5080J0D01*
G01X-1227900D01*
G02X-1231490Y-553510I4J5080D01*
G01X-1266010Y-518990D01*
G02X-1267500Y-515400I3590J3594D01*
G01Y445930D01*
G03X-1268390Y448800I-5080J-2D01*
G01X-1298490Y492790D01*
G03X-1302680Y495000I-4191J-2869D01*
G01X-1335400D01*
G02X-1338990Y496490I4J5080D01*
G01X-1373510Y531010D01*
G02X-1375000Y534600I3590J3594D01*
G01Y702900D01*
G02X-1373510Y706490I5080J-4D01*
G01X-1318990Y761010D01*
G02X-1315400Y762500I3594J-3590D01*
G37*
G36*
G01X-1602420Y740000D02*
X-1417100D01*
G02X-1413510Y738510I-4J-5080D01*
G01X-1401910Y726910D01*
G02X-1400420Y723320I-3590J-3594D01*
G01Y524070D01*
G03X-1398930Y520480I5080J4D01*
G01X-1398270Y519820D01*
X-1397500Y517960D01*
Y517100D01*
G03X-1396010Y513510I5080J4D01*
G01X-1296490Y413990D01*
G02X-1295000Y410400I-3590J-3594D01*
G01Y-555400D01*
G02X-1296490Y-558990I-5080J4D01*
G01X-1331010Y-593510D01*
G02X-1334600Y-595000I-3594J3590D01*
G01X-1545400D01*
G02X-1548990Y-593510I4J5080D01*
G01X-1606010Y-536490D01*
G02X-1607500Y-532900I3590J3594D01*
G01Y734920D01*
G02X-1602420Y740000I5080J0D01*
G37*
G36*
G01X-1067900Y-667500D02*
X-1062800D01*
G02X-1057720Y-672580I0J-5080D01*
G01Y-730000D01*
G03X-1045000Y-742720I12720J0D01*
G01X-980000D01*
G03X-967440Y-732000I0J12718D01*
G01X-967140Y-730150D01*
X-964300Y-727720D01*
X-917850D01*
G02X-913940Y-729560I-3J-5081D01*
G01X-908230Y-736460D01*
X-907660Y-738650D01*
X-907870Y-739770D01*
G03X-908100Y-742140I12491J-2408D01*
G01Y-852860D01*
G03X-895380Y-865580I12720J0D01*
G01X-795040D01*
G03X-782820Y-856390I-1J12721D01*
G01X-782350Y-854760D01*
X-779640Y-852720D01*
X-764840D01*
G03X-748770Y-846070I8J22723D01*
G01X-744420Y-841710D01*
G02X-740820Y-840220I3594J-3590D01*
G01X-735570D01*
G02X-731970Y-841710I6J-5080D01*
G01X-716870Y-856810D01*
G02X-715380Y-860410I-3590J-3594D01*
G01Y-964840D01*
G03X-708730Y-980910I22723J-8D01*
G01X-672150Y-1017480D01*
G02X-670670Y-1021350I-3592J-3592D01*
G01X-671140Y-1029990D01*
X-672120Y-1031900D01*
X-672970Y-1032590D01*
G03X-677720Y-1042500I7963J-9910D01*
G01Y-1072500D01*
G03X-675100Y-1080230I12713J0D01*
G02X-674060Y-1083320I-4039J-3079D01*
G01Y-1086680D01*
G02X-675100Y-1089770I-5079J-11D01*
G03X-677720Y-1097500I10093J-7730D01*
G01Y-1115980D01*
G02X-679210Y-1119580I-5080J-6D01*
G01X-680220Y-1120590D01*
G02X-683820Y-1122080I-3594J3590D01*
G01X-719410D01*
G03X-735480Y-1128730I-8J-22723D01*
G01X-760030Y-1153290D01*
G02X-763630Y-1154780I-3594J3590D01*
G01X-810000D01*
G03X-822720Y-1167500I0J-12720D01*
G01Y-1232500D01*
G03X-815190Y-1244110I12715J0D01*
G02Y-1253390I-2074J-4640D01*
G03X-818460Y-1255500I5180J-11617D01*
G01X-819190Y-1256150D01*
X-821010Y-1256810D01*
X-828960Y-1256580D01*
G02X-832400Y-1255100I146J5077D01*
G01X-853290Y-1234210D01*
G02X-854780Y-1230620I3590J3594D01*
G01Y-1145300D01*
G02X-849700Y-1140220I5080J0D01*
G01X-845000D01*
G03X-832280Y-1127500I0J12720D01*
G01Y-1067500D01*
G03X-845000Y-1054780I-12720J0D01*
G01X-910000D01*
G03X-922720Y-1067500I0J-12720D01*
G01Y-1115590D01*
G02X-925860Y-1120290I-5080J-5D01*
G01X-927280Y-1120880D01*
X-930290Y-1120280D01*
X-973450Y-1077120D01*
G02X-974890Y-1072840I3592J3591D01*
G01X-973630Y-1063640D01*
X-972290Y-1061670D01*
X-971260Y-1061080D01*
G03X-964780Y-1050000I-6233J11080D01*
G01Y-990000D01*
G03X-977500Y-977280I-12720J0D01*
G01X-1042500D01*
G03X-1055220Y-990000I0J-12720D01*
G01Y-1020030D01*
G02X-1058360Y-1024720I-5080J5D01*
G01X-1059780Y-1025310D01*
X-1062790Y-1024710D01*
X-1123510Y-963990D01*
G02X-1125000Y-960400I3590J3594D01*
G01Y-851890D01*
G02X-1121860Y-847190I5080J5D01*
G01X-1120440Y-846600D01*
X-1117430Y-847200D01*
X-1056710Y-907920D01*
G02X-1055220Y-911520I-3590J-3594D01*
G01Y-950000D01*
G03X-1042500Y-962720I12720J0D01*
G01X-977500D01*
G03X-966990Y-957170I0J12726D01*
G01X-966350Y-956230D01*
X-964400Y-955080D01*
X-955480Y-954250D01*
G02X-951420Y-955710I474J-5057D01*
G01X-947120Y-960010D01*
X-946740Y-960850D01*
G03X-942130Y-967510I20689J9395D01*
G01X-924210Y-985420D01*
G02X-922720Y-989020I-3590J-3594D01*
G01Y-1027500D01*
G03X-910000Y-1040220I12720J0D01*
G01X-845000D01*
G03X-832280Y-1027500I0J12720D01*
G01Y-967500D01*
G03X-845000Y-954780I-12720J0D01*
G01X-888480D01*
G02X-892080Y-953290I-6J5080D01*
G01X-905000Y-940370D01*
X-905380Y-939530D01*
G03X-909990Y-932870I-20689J-9395D01*
G01X-938930Y-903930D01*
G03X-955000Y-897280I-16062J-16073D01*
G01X-959700D01*
G02X-964780Y-892200I0J5080D01*
G01Y-890000D01*
G03X-977500Y-877280I-12720J0D01*
G01X-1020980D01*
G02X-1024580Y-875790I-6J5080D01*
G01X-1123510Y-776860D01*
G02X-1125000Y-773260I3590J3594D01*
G01Y-724600D01*
G02X-1123510Y-721010I5080J-4D01*
G01X-1071490Y-668990D01*
G02X-1067900Y-667500I3594J-3590D01*
G37*
G36*
G01X-877940Y982930D02*
G02X-872860Y988010I5080J0D01*
G01X-713020D01*
G02X-707940Y982930I0J-5080D01*
G01Y793090D01*
G02X-713020Y788010I-5080J0D01*
G01X-872860D01*
G02X-877940Y793090I0J5080D01*
G01Y982930D01*
G37*
G36*
G01X-677440Y792550D02*
X-622800D01*
G02X-617720Y787470I0J-5080D01*
G01Y719880D01*
G02X-619180Y716310I-5081J-6D01*
G01X-621400Y714060D01*
G02X-624300Y712590I-3626J3557D01*
G03X-635220Y700000I1798J-12590D01*
G01Y640000D01*
G03X-622500Y627280I12720J0D01*
G01X-557800D01*
G02X-552720Y622200I0J-5080D01*
G01Y617800D01*
G02X-557800Y612720I-5080J0D01*
G01X-622500D01*
G03X-635220Y600000I0J-12720D01*
G01Y530920D01*
G02X-636080Y528100I-5078J8D01*
G03X-645420Y497300I46083J-30791D01*
G03X-613930Y447310I55424J0D01*
G01X-612810Y446780D01*
X-611320Y444810D01*
X-609710Y435410D01*
G02X-611130Y430960I-5010J-853D01*
G01X-613190Y428900D01*
G02X-616790Y427410I-3594J3590D01*
G01X-773600D01*
G02X-777200Y428900I-6J5080D01*
G01X-816160Y467860D01*
G03X-835760Y475980I-19600J-19595D01*
G01X-950390D01*
G02X-953990Y477470I-6J5080D01*
G01X-981200Y504680D01*
G02X-982690Y508280I3590J3594D01*
G01Y714320D01*
G02X-981200Y717920I5080J6D01*
G01X-968530Y730590D01*
G02X-964930Y732080I3594J-3590D01*
G01X-891020D01*
G03X-871420Y740200I0J27715D01*
G01X-850520Y761100D01*
G02X-846920Y762590I3594J-3590D01*
G01X-687600D01*
G03X-682520Y767670I0J5080D01*
G01Y787470D01*
G02X-677440Y792550I5080J0D01*
G37*
G36*
G01X-712500Y1454920D02*
Y1007580D01*
G02X-717580Y1002500I-5080J0D01*
G01X-879920D01*
G02X-885000Y1007580I0J5080D01*
G01Y1454920D01*
G02X-879920Y1460000I5080J0D01*
G01X-717580D01*
G02X-712500Y1454920I0J-5080D01*
G37*
G36*
G01X110300Y-867500D02*
X129500D01*
G02X134580Y-872580I0J-5080D01*
G01Y-939870D01*
G02X133090Y-943460I-5080J4D01*
G01X123460Y-953090D01*
G02X119870Y-954580I-3594J3590D01*
G01X41570D01*
G03X37980Y-956070I4J-5080D01*
G01X-22920Y-1016970D01*
Y-1017920D01*
X-28510Y-1023510D01*
G03X-30000Y-1027100I3590J-3594D01*
G01Y-1161950D01*
G02X-31490Y-1165540I-5080J4D01*
G01X-135630Y-1269680D01*
X-136980Y-1270390D01*
X-137740Y-1270530D01*
G03X-181970Y-1314760I10240J-54470D01*
G01X-182110Y-1315520D01*
X-182820Y-1316870D01*
X-183930Y-1317980D01*
G03X-185420Y-1321570I3590J-3594D01*
G01Y-1657840D01*
G03X-180340Y-1662920I5080J0D01*
G01X-154180D01*
G02X-150590Y-1664410I-4J-5080D01*
G01X-143990Y-1671010D01*
G03X-140400Y-1672500I3594J3590D01*
G01X47900D01*
G03X51490Y-1671010I-4J5080D01*
G01X58090Y-1664410D01*
G02X61680Y-1662920I3594J-3590D01*
G01X77840D01*
G03X82920Y-1657840I0J5080D01*
G01Y-1446680D01*
G02X84410Y-1443090I5080J-4D01*
G01X118750Y-1408750D01*
G02X122340Y-1407260I3594J-3590D01*
G01X126710D01*
G02X130300Y-1408750I-4J-5080D01*
G01X137980Y-1416430D01*
G03X141570Y-1417920I3594J3590D01*
G01X188430D01*
G03X192020Y-1416430I-4J5080D01*
G01X201960Y-1406490D01*
G02X205550Y-1405000I3594J-3590D01*
G01X210400D01*
G03X213990Y-1403510I-4J5080D01*
G01X253090Y-1364410D01*
G02X256680Y-1362920I3594J-3590D01*
G01X420530D01*
X420950Y-1362500D01*
X522900D01*
G02X526490Y-1363990I-4J-5080D01*
G01X571010Y-1408510D01*
G02X572500Y-1412100I-3590J-3594D01*
G01Y-1842200D01*
G02X567420Y-1847280I-5080J0D01*
G01X-342200D01*
G02X-347280Y-1842200I0J5080D01*
G01Y-1792500D01*
G03X-360000Y-1779780I-12720J0D01*
G01X-378480D01*
G02X-382080Y-1778290I-6J5080D01*
G01X-401010Y-1759360D01*
G02X-402500Y-1755760I3590J3594D01*
G01Y-1615560D01*
G02X-399880Y-1611110I5081J5D01*
G01X-390880Y-1606140D01*
X-388120Y-1606210D01*
X-386940Y-1606950D01*
G03X-357500Y-1615420I29446J46948D01*
G03Y-1504580I0J55420D01*
G03X-386940Y-1513050I6J-55418D01*
G01X-388120Y-1513790D01*
X-390880Y-1513860D01*
X-399880Y-1508890D01*
G02X-402500Y-1504440I2461J4445D01*
G01Y-1414240D01*
G02X-401010Y-1410640I5080J6D01*
G01X-363930Y-1373570D01*
G03X-357280Y-1357500I-16073J16062D01*
G01Y-1347800D01*
G02X-352200Y-1342720I5080J0D01*
G01X-350000D01*
G03X-337280Y-1330000I0J12720D01*
G01Y-1316390D01*
G02X-336720Y-1314080I5079J-8D01*
G01X-298060Y-1238590D01*
G03X-297500Y-1236270I-4519J2318D01*
G01Y-1022100D01*
G02X-296010Y-1018510I5080J-4D01*
G01X-213990Y-936490D01*
G02X-210400Y-935000I3594J-3590D01*
G01X-31880D01*
G03X-29630Y-935050I2356J55368D01*
G03X-27380Y-935000I-106J55418D01*
G01X-4600D01*
G03X-1010Y-933510I-4J5080D01*
G01X53500Y-879000D01*
X56150Y-878310D01*
X57480Y-878690D01*
G03X72500Y-880760I15005J53352D01*
G03X107120Y-868610I-7J55418D01*
G02X110300Y-867500I3170J-3972D01*
G37*
G36*
G01X-437280Y-1232500D02*
Y-1192500D01*
G02X-434140Y-1187800I5080J5D01*
G01X-432720Y-1187210D01*
X-429710Y-1187810D01*
X-424210Y-1193310D01*
G02X-422720Y-1196910I-3590J-3594D01*
G01Y-1232500D01*
G03X-418950Y-1241530I12717J7D01*
G02X-417450Y-1245140I-3582J-3605D01*
G01Y-1252360D01*
G02X-418950Y-1255970I-5082J-5D01*
G03X-422720Y-1265000I8947J-9037D01*
G01Y-1338120D01*
G02X-424210Y-1341710I-5080J4D01*
G01X-471010Y-1388510D01*
G02X-474600Y-1390000I-3594J3590D01*
G01X-695400D01*
G02X-698990Y-1388510I4J5080D01*
G01X-741160Y-1346340D01*
G02Y-1339150I3588J3595D01*
G01X-741140Y-1339130D01*
X-741120Y-1339110D01*
G03X-737280Y-1330000I-8886J9110D01*
G01Y-1265000D01*
G03X-741050Y-1255970I-12717J-7D01*
G02X-742550Y-1252360I3582J3605D01*
G01Y-1245140D01*
G02X-741050Y-1241530I5082J5D01*
G03X-737280Y-1232500I-8947J9037D01*
G01Y-1196910D01*
G02X-735790Y-1193310I5080J6D01*
G01X-731390Y-1188910D01*
G02X-725850Y-1187800I3600J-3587D01*
G01X-724430Y-1188390D01*
X-722720Y-1190950D01*
Y-1232500D01*
G03X-710000Y-1245220I12720J0D01*
G01X-650000D01*
G03X-637280Y-1232500I0J12720D01*
G01Y-1227800D01*
G02X-632200Y-1222720I5080J0D01*
G01X-630300D01*
G02X-625220Y-1227800I0J-5080D01*
G01Y-1230000D01*
G03X-612500Y-1242720I12720J0D01*
G01X-547500D01*
G03X-534780Y-1230000I0J12720D01*
G01Y-1227800D01*
G02X-529700Y-1222720I5080J0D01*
G01X-527800D01*
G02X-522720Y-1227800I0J-5080D01*
G01Y-1232500D01*
G03X-510000Y-1245220I12720J0D01*
G01X-450000D01*
G03X-437280Y-1232500I0J12720D01*
G37*
G36*
G01X-602280Y-1042500D02*
G03X-603230Y-1037670I-12721J6D01*
G01X-603720Y-1036480D01*
X-603470Y-1033970D01*
X-598050Y-1025900D01*
G02X-593830Y-1023650I4218J-2829D01*
G01X-590520D01*
G02X-586920Y-1025140I6J-5080D01*
G01X-559210Y-1052850D01*
G02X-557720Y-1056450I-3590J-3594D01*
G01Y-1072500D01*
G03X-555100Y-1080230I12713J0D01*
G02X-554060Y-1083320I-4039J-3079D01*
G01Y-1086680D01*
G02X-555100Y-1089770I-5079J-11D01*
G03X-557720Y-1097500I10093J-7730D01*
G01Y-1127500D01*
G03X-545000Y-1140220I12720J0D01*
G01X-526520D01*
G02X-522920Y-1141710I6J-5080D01*
G01X-519730Y-1144900D01*
G02X-518240Y-1148380I-3589J-3596D01*
G01X-518050Y-1156380D01*
X-518740Y-1158200D01*
X-519400Y-1158930D01*
G03X-522720Y-1167500I9401J-8570D01*
G01Y-1172200D01*
G02X-527800Y-1177280I-5080J0D01*
G01X-529700D01*
G02X-534780Y-1172200I0J5080D01*
G01Y-1170000D01*
G03X-547500Y-1157280I-12720J0D01*
G01X-612500D01*
G03X-625220Y-1170000I0J-12720D01*
G01Y-1172200D01*
G02X-630300Y-1177280I-5080J0D01*
G01X-632200D01*
G02X-637280Y-1172200I0J5080D01*
G01Y-1167500D01*
G03X-640600Y-1158930I-12721J0D01*
G01X-641260Y-1158200D01*
X-641950Y-1156380D01*
X-641760Y-1148380D01*
G02X-640270Y-1144900I5079J-116D01*
G01X-637080Y-1141710D01*
G02X-633480Y-1140220I3594J-3590D01*
G01X-615000D01*
G03X-602280Y-1127500I0J12720D01*
G01Y-1097500D01*
G03X-604900Y-1089770I-12713J0D01*
G02X-605940Y-1086680I4039J3079D01*
G01Y-1083320D01*
G02X-604900Y-1080230I5079J11D01*
G03X-602280Y-1072500I-10093J7730D01*
G01Y-1042500D01*
G37*
G36*
G01X-248820Y-695310D02*
X-246350D01*
X-244980Y-695700D01*
X-244380Y-696080D01*
G03X-237640Y-698010I6740J10804D01*
G01X-158090D01*
G02X-153010Y-703090I0J-5080D01*
G01Y-782640D01*
G03X-151080Y-789380I12734J0D01*
G01X-150700Y-789980D01*
X-150310Y-791350D01*
Y-822420D01*
G02X-155390Y-827500I-5080J0D01*
G01X-222900D01*
G03X-226490Y-828990I4J-5080D01*
G01X-321010Y-923510D01*
G03X-322500Y-927100I3590J-3594D01*
G01Y-1237900D01*
G02X-323990Y-1241490I-5080J4D01*
G01X-337680Y-1255180D01*
X-341320Y-1255520D01*
X-342840Y-1254490D01*
G03X-344810Y-1253390I-7161J-10511D01*
G02Y-1244110I2074J4640D01*
G03X-337280Y-1232500I-5185J11610D01*
G01Y-1167500D01*
G03X-350000Y-1154780I-12720J0D01*
G01X-396370D01*
G02X-399970Y-1153290I-6J5080D01*
G01X-424520Y-1128730D01*
G03X-440590Y-1122080I-16062J-16073D01*
G01X-476180D01*
G02X-479780Y-1120590I-6J5080D01*
G01X-480790Y-1119580D01*
G02X-482280Y-1115980I3590J3594D01*
G01Y-1097500D01*
G03X-484900Y-1089770I-12713J0D01*
G02X-485940Y-1086680I4039J3079D01*
G01Y-1083320D01*
G02X-484900Y-1080230I5079J11D01*
G03X-482280Y-1072500I-10093J7730D01*
G01Y-1042500D01*
G03X-495000Y-1029780I-12720J0D01*
G01X-515910D01*
G02X-519510Y-1028290I-6J5080D01*
G01X-562930Y-984860D01*
G03X-579000Y-978210I-16062J-16073D01*
G01X-588480D01*
G02X-592080Y-976720I-6J5080D01*
G01X-628450Y-940350D01*
G02X-629940Y-936750I3590J3594D01*
G01Y-935660D01*
G02X-624860Y-930580I5080J0D01*
G01X-529620D01*
G03X-517400Y-921390I-1J12721D01*
G01X-516930Y-919760D01*
X-514220Y-917720D01*
X-506920D01*
G03X-490850Y-911070I8J22723D01*
G01X-451700Y-871910D01*
G02X-448100Y-870420I3594J-3590D01*
G01X-317690D01*
G03X-301620Y-863770I8J22723D01*
G01X-268930Y-831080D01*
G03X-262280Y-815010I-16073J16062D01*
G01Y-708770D01*
G02X-260790Y-705170I5080J6D01*
G01X-252420Y-696800D01*
G02X-248820Y-695310I3594J-3590D01*
G37*
G36*
G01X-408910Y-737720D02*
X-379590D01*
G02X-376470Y-738790I1J-5080D01*
G03X-342500Y-750420I33970J43796D01*
G03X-321690Y-746370I13J55423D01*
G01X-320510Y-745890D01*
X-318000Y-746150D01*
X-309960Y-751570D01*
G02X-307720Y-755780I-2840J-4212D01*
G01Y-803490D01*
G02X-309210Y-807090I-5080J-6D01*
G01X-325610Y-823490D01*
G02X-329210Y-824980I-3594J3590D01*
G01X-459620D01*
G03X-475690Y-831630I-8J-22723D01*
G01X-506740Y-862690D01*
G02X-510260Y-864170I-3584J3599D01*
G01X-518340Y-864290D01*
X-520170Y-863580D01*
X-520890Y-862890D01*
G03X-529620Y-859420I-8732J-9251D01*
G01X-624860D01*
G02X-629940Y-854340I0J5080D01*
G01Y-832320D01*
G03X-636590Y-816250I-22723J8D01*
G01X-651460Y-801390D01*
G02X-652570Y-795850I3587J3600D01*
G01X-651980Y-794430D01*
X-649420Y-792720D01*
X-643450D01*
X-641220Y-793910D01*
X-640510Y-794960D01*
G03X-629960Y-800580I10554J7100D01*
G01X-529620D01*
G03X-519070Y-794960I-4J12720D01*
G01X-518360Y-793910D01*
X-516130Y-792720D01*
X-483520D01*
G03X-463920Y-784600I0J27715D01*
G01X-451460Y-772140D01*
X-450320Y-771480D01*
X-449690Y-771300D01*
G03X-437490Y-764190I-7396J26713D01*
G01X-412510Y-739210D01*
G02X-408910Y-737720I3594J-3590D01*
G37*
G36*
G01X-685820Y-612920D02*
X-461920D01*
G02X-457220Y-616060I5J-5080D01*
G01X-456630Y-617480D01*
X-457230Y-620490D01*
X-505590Y-668850D01*
G02X-509290Y-670330I-3585J3597D01*
G01X-517670Y-670160D01*
X-519550Y-669310D01*
X-520260Y-668540D01*
G03X-529620Y-664420I-9371J-8598D01*
G01X-629960D01*
G03X-642680Y-677140I0J-12720D01*
G01Y-728530D01*
G02X-645810Y-733220I-5078J-1D01*
G01X-647230Y-733810D01*
X-650250Y-733210D01*
X-703060Y-680400D01*
G03X-722660Y-672280I-19600J-19595D01*
G01X-735030D01*
G02X-739720Y-669140I5J5080D01*
G01X-740310Y-667720D01*
X-739710Y-664710D01*
X-689410Y-614410D01*
G02X-685820Y-612920I3594J-3590D01*
G37*
G36*
G01X-637500Y-562400D02*
Y-448960D01*
G02X-634360Y-444260I5080J5D01*
G01X-632940Y-443670D01*
X-629930Y-444280D01*
X-546710Y-527490D01*
G02X-545220Y-531090I-3590J-3594D01*
G01Y-562400D01*
G02X-550300Y-567480I-5080J0D01*
G01X-632420D01*
G02X-637500Y-562400I0J5080D01*
G37*
G36*
G01X-454700Y-10000D02*
X-450300D01*
G02X-445220Y-15080I0J-5080D01*
G01Y-67500D01*
G03X-432500Y-80220I12720J0D01*
G01X-372500D01*
G03X-363890Y-76870I7J12723D01*
G01X-363160Y-76200D01*
X-361340Y-75510D01*
X-353320Y-75680D01*
G02X-349840Y-77160I-105J-5079D01*
G01X-303390Y-123610D01*
G02X-302290Y-129150I-3591J-3592D01*
G01X-302870Y-130570D01*
X-305430Y-132280D01*
X-356790D01*
X-359750Y-129370D01*
X-359780Y-127290D01*
G03X-372500Y-114780I-12720J-212D01*
G01X-432500D01*
G03X-445220Y-127500I0J-12720D01*
G01Y-168320D01*
G02X-448360Y-173020I-5080J-5D01*
G01X-449780Y-173610D01*
X-452790Y-173000D01*
X-458290Y-167510D01*
G02X-459780Y-163910I3590J3594D01*
G01Y-127500D01*
G03X-472500Y-114780I-12720J0D01*
G01X-532500D01*
G03X-545220Y-127290I0J-12722D01*
G01X-545250Y-129370D01*
X-548210Y-132280D01*
X-551020D01*
G02X-554620Y-130790I-6J5080D01*
G01X-579110Y-106300D01*
G02Y-99110I3590J3595D01*
G01X-556180Y-76180D01*
G02X-552530Y-74690I3594J-3589D01*
G01X-544250Y-74770D01*
X-542380Y-75570D01*
X-541670Y-76320D01*
G03X-532500Y-80220I9170J8831D01*
G01X-472500D01*
G03X-459780Y-67500I0J12720D01*
G01Y-15080D01*
G02X-454700Y-10000I5080J0D01*
G37*
G36*
G01X-459780Y-317500D02*
Y-252930D01*
G02X-454700Y-247850I5080J0D01*
G01X-453720D01*
X-452810Y-248220D01*
G03X-449090Y-249410I10285J25742D01*
G01X-447390Y-249830D01*
X-445220Y-252590D01*
Y-317500D01*
G03X-432500Y-330220I12720J0D01*
G01X-374180D01*
G02X-369480Y-333360I5J-5080D01*
G01X-368890Y-334780D01*
X-369500Y-337790D01*
X-397490Y-365790D01*
G02X-401090Y-367280I-3594J3590D01*
G01X-432500D01*
G03X-445220Y-380000I0J-12720D01*
G01Y-420820D01*
G02X-448360Y-425520I-5080J-5D01*
G01X-449780Y-426110D01*
X-452790Y-425500D01*
X-458290Y-420010D01*
G02X-459780Y-416410I3590J3594D01*
G01Y-380000D01*
G03X-472500Y-367280I-12720J0D01*
G01X-503910D01*
G02X-507510Y-365790I-6J5080D01*
G01X-534410Y-338890D01*
G02X-535510Y-333350I3591J3592D01*
G01X-534930Y-331930D01*
X-532370Y-330220D01*
X-472500D01*
G03X-459780Y-317500I0J12720D01*
G37*
G36*
G01X-637500Y-233690D02*
Y-198960D01*
G02X-634360Y-194260I5080J5D01*
G01X-632940Y-193670D01*
X-629930Y-194280D01*
X-546710Y-277490D01*
G02X-545220Y-281090I-3590J-3594D01*
G01Y-315820D01*
G02X-548360Y-320520I-5080J-5D01*
G01X-549780Y-321110D01*
X-552790Y-320500D01*
X-636010Y-237290D01*
G02X-637500Y-233690I3590J3594D01*
G37*
G36*
G01X-343910Y367280D02*
X-119380D01*
G02X-114680Y364140I5J-5080D01*
G01X-114090Y362720D01*
X-114700Y359710D01*
X-134800Y339600D01*
G03X-142920Y320000I19595J-19600D01*
G01Y262700D01*
G03X-134800Y243100I27715J0D01*
G01X-106790Y215090D01*
G02X-105300Y211490I-3590J-3594D01*
G01Y147000D01*
G03X-103360Y136800I27722J-12D01*
G01X-103000Y135900D01*
Y116600D01*
G02X-104490Y113010I-5080J4D01*
G01X-111010Y106490D01*
G02X-114600Y105000I-3594J3590D01*
G01X-320400D01*
G02X-323990Y106490I4J5080D01*
G01X-351010Y133510D01*
G03X-354600Y135000I-3594J-3590D01*
G01X-370110D01*
X-370510Y135060D01*
G03X-372500Y135220I-2011J-12558D01*
G01X-432500D01*
G03X-434490Y135060I21J-12718D01*
G01X-434890Y135000D01*
X-467900D01*
G02X-471490Y136490I4J5080D01*
G01X-471730Y136730D01*
X-472500Y138590D01*
Y155400D01*
G03X-473990Y158990I-5080J-4D01*
G01X-477800Y162800D01*
X-478150Y163440D01*
G03X-482900Y169800I-24354J-13235D01*
G01X-490790Y177690D01*
G02X-492280Y181290I3590J3594D01*
G01Y218910D01*
G02X-490790Y222510I5080J6D01*
G01X-347510Y365790D01*
G02X-343910Y367280I3594J-3590D01*
G37*
G36*
G01X-339850Y983500D02*
G02X-334770Y988580I5080J0D01*
G01X-174930D01*
G02X-169850Y983500I0J-5080D01*
G01Y793660D01*
G02X-174930Y788580I-5080J0D01*
G01X-334770D01*
G02X-339850Y793660I0J5080D01*
G01Y983500D01*
G37*
G36*
G01X-139350Y792550D02*
X-132390D01*
G02X-127310Y787470I0J-5080D01*
G01Y719590D01*
G03X-119190Y699990I27715J0D01*
G01X-94210Y675010D01*
G02X-92720Y671410I-3590J-3594D01*
G01Y640000D01*
G03X-80000Y627280I12720J0D01*
G01X-15000D01*
G03X-13820Y627330I52J12722D01*
G01X-12750Y627430D01*
X-10720Y626750D01*
X-4380Y620970D01*
G02X-2720Y617220I-3419J-3756D01*
G01Y616280D01*
G02X-7800Y611200I-5080J0D01*
G01X-8870D01*
X-9850Y611630D01*
G03X-15000Y612720I-5150J-11621D01*
G01X-80000D01*
G03X-92720Y600000I0J-12720D01*
G01Y543620D01*
G02X-93580Y540800I-5078J8D01*
G03X-102920Y510000I46083J-30791D01*
G03X-95820Y482860I55422J0D01*
G01X-95150Y481670D01*
X-95170Y478980D01*
X-100290Y470230D01*
G02X-104680Y467720I-4382J2571D01*
G01X-372890D01*
G03X-392490Y459600I0J-27715D01*
G01X-423190Y428900D01*
G02X-426790Y427410I-3594J3590D01*
G01X-451920D01*
G02X-456460Y430210I-1J5079D01*
G01X-461180Y439620D01*
X-460930Y442480D01*
X-460070Y443640D01*
G03X-454580Y460200I-22231J16560D01*
G01Y702430D01*
G02X-453090Y706030I5080J6D01*
G01X-433330Y725790D01*
G02X-429730Y727280I3594J-3590D01*
G01X-337500D01*
G03X-317900Y735400I0J27715D01*
G01X-300400Y752900D01*
G03X-295100Y760310I-19591J19613D01*
G01X-294460Y761620D01*
X-292000Y763160D01*
X-149510D01*
G03X-144430Y768240I0J5080D01*
G01Y787470D01*
G02X-139350Y792550I5080J0D01*
G37*
G36*
G01X-649980Y1105000D02*
X-649820Y1105160D01*
X-485150D01*
G02X-480070Y1100080I0J-5080D01*
G01Y940240D01*
G02X-485150Y935160I-5080J0D01*
G01X-644900D01*
G02X-649980Y940240I0J5080D01*
G01Y1105000D01*
G37*
G36*
G01X-173390Y1453840D02*
Y1004850D01*
G02X-178470Y999770I-5080J0D01*
G01X-353740D01*
G02X-358820Y1004850I0J5080D01*
G01Y1453840D01*
G02X-353740Y1458920I5080J0D01*
G01X-178470D01*
G02X-173390Y1453840I0J-5080D01*
G37*
G36*
G01X461870Y-700000D02*
X472000D01*
G02X477080Y-705080I0J-5080D01*
G01Y-794870D01*
G02X475590Y-798460I-5080J4D01*
G01X298570Y-975480D01*
G03X297080Y-979070I3590J-3594D01*
G01Y-980420D01*
X256490Y-1021010D01*
G03X255000Y-1024600I3590J-3594D01*
G01Y-1206950D01*
G02X253510Y-1210540I-5080J4D01*
G01X240960Y-1223090D01*
G02X237370Y-1224580I-3594J3590D01*
G01X146570D01*
G03X142980Y-1226070I4J-5080D01*
G01X130540Y-1238510D01*
G02X126950Y-1240000I-3594J3590D01*
G01X117100D01*
G03X113510Y-1241490I4J-5080D01*
G01X58990Y-1296010D01*
G03X57500Y-1299600I3590J-3594D01*
G01Y-1632420D01*
G02X52420Y-1637500I-5080J0D01*
G01X-154920D01*
G02X-160000Y-1632420I0J5080D01*
G01Y-1332100D01*
G02X-158510Y-1328510I5080J-4D01*
G01X-45860Y-1215860D01*
X-45440Y-1215580D01*
G03X-41920Y-1212060I-7060J10580D01*
G01X-41640Y-1211640D01*
X1010Y-1168990D01*
G03X2500Y-1165400I-3590J3594D01*
G01Y-1029600D01*
G02X3990Y-1026010I5080J-4D01*
G01X48510Y-981490D01*
G02X52100Y-980000I3594J-3590D01*
G01X130400D01*
G03X133990Y-978510I-4J5080D01*
G01X158510Y-953990D01*
G03X160000Y-950400I-3590J3594D01*
G01Y-882100D01*
G02X161490Y-878510I5080J-4D01*
G01X218510Y-821490D01*
G02X222100Y-820000I3594J-3590D01*
G01X405400D01*
G03X408990Y-818510I-4J5080D01*
G01X430650Y-796850D01*
G02X434240Y-795360I3594J-3590D01*
G01X435240D01*
G03X447960Y-782640I0J12720D01*
G01Y-706360D01*
X450200Y-703570D01*
X451940Y-703190D01*
G03X460950Y-700380I-11936J54121D01*
G01X461870Y-700000D01*
G37*
G36*
G01X507580D02*
X534920D01*
G02X540000Y-705080I0J-5080D01*
G01Y-935400D01*
G02X538510Y-938990I-5080J4D01*
G01X483990Y-993510D01*
G03X482500Y-997100I3590J-3594D01*
G01Y-1262900D01*
G02X481010Y-1266490I-5080J4D01*
G01X411490Y-1336010D01*
G02X407900Y-1337500I-3594J3590D01*
G01X237100D01*
G03X233510Y-1338990I4J-5080D01*
G01X181490Y-1391010D01*
G02X177900Y-1392500I-3594J3590D01*
G01X152100D01*
G02X148510Y-1391010I4J5080D01*
G01X136490Y-1378990D01*
G02X135000Y-1375400I3590J3594D01*
G01Y-1272100D01*
G02X136490Y-1268510I5080J-4D01*
G01X153510Y-1251490D01*
G02X157100Y-1250000I3594J-3590D01*
G01X247900D01*
G03X251490Y-1248510I-4J5080D01*
G01X321010Y-1178990D01*
G03X322500Y-1175400I-3590J3594D01*
G01Y-989600D01*
G02X323990Y-986010I5080J-4D01*
G01X501010Y-808990D01*
G03X502500Y-805400I-3590J3594D01*
G01Y-705080D01*
G02X507580Y-700000I5080J0D01*
G37*
G36*
G01X515740Y93640D02*
X633560D01*
G02X638640Y88560I0J-5080D01*
G01Y64890D01*
G03X641160Y57290I12720J0D01*
G02X642170Y54250I-4070J-3040D01*
G01Y50920D01*
G02X641160Y47880I-5080J0D01*
G03X638640Y40280I10200J-7600D01*
G01Y14880D01*
G03X641160Y7280I12720J0D01*
G02X642170Y4240I-4070J-3040D01*
G01Y910D01*
G02X641160Y-2130I-5080J0D01*
G03X638640Y-9730I10200J-7600D01*
G01Y-35130D01*
G03X641160Y-42730I12720J0D01*
G02X642170Y-45770I-4070J-3040D01*
G01Y-49100D01*
G02X641160Y-52140I-5080J0D01*
G03X638640Y-59740I10200J-7600D01*
G01Y-85140D01*
G03X641160Y-92750I12723J-9D01*
G02X642170Y-95780I-4067J-3039D01*
G01Y-99120D01*
G02X641160Y-102150I-5077J9D01*
G03X638640Y-109760I10203J-7601D01*
G01Y-135160D01*
G03X641160Y-142760I12720J0D01*
G02X642170Y-145800I-4070J-3040D01*
G01Y-149130D01*
G02X641160Y-152170I-5080J0D01*
G03X638640Y-159770I10200J-7600D01*
G01Y-185170D01*
G03X641160Y-192770I12720J0D01*
G02X642170Y-195810I-4070J-3040D01*
G01Y-199140D01*
G02X641160Y-202180I-5080J0D01*
G03X638640Y-209780I10200J-7600D01*
G01Y-235180D01*
G03X641160Y-242780I12720J0D01*
G02X642170Y-245820I-4070J-3040D01*
G01Y-249150D01*
G02X641160Y-252190I-5080J0D01*
G03X638640Y-259790I10200J-7600D01*
G01Y-285190D01*
G03X641160Y-292800I12723J-9D01*
G02X642170Y-295830I-4067J-3039D01*
G01Y-299170D01*
G02X641160Y-302200I-5077J9D01*
G03X638640Y-309810I10203J-7601D01*
G01Y-335210D01*
G03X641160Y-342810I12720J0D01*
G02X642170Y-345850I-4070J-3040D01*
G01Y-349180D01*
G02X641160Y-352220I-5080J0D01*
G03X638640Y-359820I10200J-7600D01*
G01Y-385220D01*
G03X641160Y-392820I12720J0D01*
G02X642170Y-395860I-4070J-3040D01*
G01Y-399190D01*
G02X641160Y-402230I-5080J0D01*
G03X638640Y-409830I10200J-7600D01*
G01Y-435230D01*
G03X641160Y-442830I12720J0D01*
G02X642170Y-445870I-4070J-3040D01*
G01Y-449200D01*
G02X641160Y-452240I-5080J0D01*
G03X638640Y-459840I10200J-7600D01*
G01Y-485240D01*
G03X641160Y-492850I12723J-9D01*
G02X642170Y-495880I-4067J-3039D01*
G01Y-499220D01*
G02X641160Y-502250I-5077J9D01*
G03X638640Y-509860I10203J-7601D01*
G01Y-535260D01*
G03X641160Y-542860I12720J0D01*
G02X642170Y-545900I-4070J-3040D01*
G01Y-549230D01*
G02X641160Y-552270I-5080J0D01*
G03X638640Y-559870I10200J-7600D01*
G01Y-587940D01*
G02X635500Y-592630I-5080J5D01*
G01X634080Y-593220D01*
X631070Y-592620D01*
X629410Y-590960D01*
G02X627920Y-587370I3590J3594D01*
G01Y-229070D01*
G03X626430Y-225480I-5080J-4D01*
G01X605760Y-204810D01*
X605020Y-203330D01*
X604910Y-202500D01*
G03X550000Y-154580I-54910J-7500D01*
G03X494580Y-210000I0J-55420D01*
G03X528930Y-261260I55422J0D01*
G01X530370Y-261850D01*
X532080Y-264400D01*
Y-631160D01*
G03X533640Y-634820I5079J3D01*
G01X565900Y-665840D01*
G02X567090Y-671400I-3523J-3661D01*
G01X566510Y-672850D01*
X563940Y-674580D01*
X503760D01*
G02X499770Y-672640I3J5079D01*
G01X494100Y-665450D01*
X493610Y-663180D01*
X493880Y-662040D01*
G03X495420Y-649070I-53880J12974D01*
G03X440000Y-593650I-55420J0D01*
G03X390780Y-623600I0J-55419D01*
G02X386270Y-626350I-4514J2330D01*
G01X263040D01*
G02X258340Y-623210I-5J5080D01*
G01X257750Y-621790D01*
X258350Y-618780D01*
X270980Y-606150D01*
G02X274580Y-604660I3594J-3590D01*
G01X330230D01*
G03X346300Y-598010I8J22723D01*
G01X347820Y-596480D01*
G03X367500Y-600090I19675J51811D01*
G03X312080Y-544670I0J55420D01*
G03X312200Y-548380I55422J-64D01*
G01X312280Y-549440D01*
X311570Y-551410D01*
X305780Y-557610D01*
G02X302070Y-559220I-3710J3471D01*
G01X276070D01*
G02X272440Y-557690I3J5079D01*
G01X266640Y-551750D01*
X265890Y-549850D01*
X265910Y-548820D01*
G03X265930Y-547500I-55397J1500D01*
G03X210510Y-492080I-55420J0D01*
G03X163690Y-517840I0J-55429D01*
G02X159400Y-520200I-4289J2717D01*
G01X150820D01*
G02X146530Y-517840I-1J5077D01*
G03X99710Y-492080I-46820J-29669D01*
G03X44290Y-547500I0J-55420D01*
G03X68900Y-593570I55427J0D01*
G01X69850Y-594200D01*
X71020Y-596160D01*
X71900Y-605110D01*
G02X70430Y-609190I-5055J-483D01*
G01X56390Y-623230D01*
G03X55660Y-624010I16219J-15911D01*
G01X54820Y-624930D01*
X52490Y-625790D01*
X41750Y-624400D01*
X39710Y-622970D01*
X39140Y-621870D01*
G03X-10000Y-592080I-49140J-25634D01*
G03X-65420Y-647500I0J-55420D01*
G03X-58850Y-673680I55422J-6D01*
G01X-58210Y-674870D01*
X-58270Y-677530D01*
X-63440Y-686170D01*
G02X-67800Y-688640I-4359J2611D01*
G01X-138560D01*
G02X-143640Y-683560I0J5080D01*
G01Y-659890D01*
G03X-146160Y-652290I-12720J0D01*
G02X-147170Y-649250I4070J3040D01*
G01Y-645920D01*
G02X-146160Y-642880I5080J0D01*
G03X-143640Y-635280I-10200J7600D01*
G01Y-609880D01*
G03X-143880Y-607420I-12727J0D01*
G01X-144100Y-606300D01*
X-143550Y-604090D01*
X-137840Y-597140D01*
G02X-133910Y-595290I3922J-3231D01*
G01X-116890D01*
X-116160Y-595510D01*
G03X-100000Y-597920I16165J53009D01*
G03X-44580Y-542500I0J55420D01*
G03X-74940Y-493070I-55419J0D01*
G01X-75920Y-492570D01*
X-77290Y-490870D01*
X-79740Y-481340D01*
X-79360Y-479180D01*
X-78740Y-478280D01*
G03X-74780Y-465460I-18772J12820D01*
G01Y-448730D01*
G02X-72030Y-444220I5080J-4D01*
G03X-42080Y-395000I-25469J49220D01*
G03X-97500Y-339580I-55420J0D01*
G03X-132870Y-352330I-5J-55422D01*
G01X-133630Y-352960D01*
X-135500Y-353560D01*
X-144480Y-352910D01*
X-146250Y-352040D01*
X-146910Y-351310D01*
G03X-147170Y-351030I-9449J-8513D01*
G01Y-345850D01*
G02X-146160Y-342810I5080J0D01*
G03X-143640Y-335210I-10200J7600D01*
G01Y-309810D01*
G03X-146160Y-302200I-12723J9D01*
G02X-147170Y-299170I4067J3039D01*
G01Y-295830D01*
G02X-146160Y-292800I5077J-9D01*
G03X-143640Y-285190I-10203J7601D01*
G01Y-259790D01*
G03X-146160Y-252190I-12720J0D01*
G02X-147170Y-249150I4070J3040D01*
G01Y-245820D01*
G02X-146160Y-242780I5080J0D01*
G03X-143640Y-235180I-10200J7600D01*
G01Y-209780D01*
G03X-146160Y-202180I-12720J0D01*
G02X-147170Y-199140I4070J3040D01*
G01Y-195810D01*
G02X-146160Y-192770I5080J0D01*
G03X-143640Y-185170I-10200J7600D01*
G01Y-159770D01*
G03X-146160Y-152170I-12720J0D01*
G02X-147170Y-149130I4070J3040D01*
G01Y-145800D01*
G02X-146160Y-142760I5080J0D01*
G03X-143640Y-135160I-10200J7600D01*
G01Y-109760D01*
G03X-146160Y-102150I-12723J9D01*
G02X-147170Y-99120I4067J3039D01*
G01Y-95780D01*
G02X-146160Y-92750I5077J-9D01*
G03X-143640Y-85140I-10203J7601D01*
G01Y-59740D01*
G03X-146160Y-52140I-12720J0D01*
G02X-147170Y-49100I4070J3040D01*
G01Y-45770D01*
G02X-146160Y-42730I5080J0D01*
G03X-145550Y-41830I-10214J7580D01*
G02X-136300Y-43290I4317J-2680D01*
G03X-82500Y-85420I53800J13286D01*
G03X-35930Y-60050I0J55428D01*
G02X-31660Y-57720I4271J-2749D01*
G01X364160D01*
G02X368430Y-60050I-1J-5079D01*
G03X415000Y-85420I46570J30058D01*
G03X470420Y-30000I0J55420D01*
G03X458670Y4120I-55414J0D01*
G02X458880Y10630I4001J3129D01*
G03X472920Y47500I-41392J36870D01*
G03X472840Y50460I-55420J-17D01*
G01X472780Y51540D01*
X473550Y53550D01*
X512150Y92150D01*
G02X515740Y93640I3594J-3590D01*
G37*
G36*
G01X155270Y50000D02*
X159830D01*
G02X163430Y48510I6J-5080D01*
G01X184040Y27900D01*
G03X203640Y19780I19600J19595D01*
G01X366660D01*
G02X370930Y17450I-1J-5079D01*
G03X373830Y13380I46539J30092D01*
G02X373620Y6870I-4001J-3129D01*
G03X368430Y50I41377J-36872D01*
G02X364160Y-2280I-4271J2749D01*
G01X155270D01*
G02X150190Y2800I0J5080D01*
G01Y44920D01*
G02X155270Y50000I5080J0D01*
G37*
G36*
G01X406020Y792550D02*
X459700D01*
G02X464780Y787470I0J-5080D01*
G01Y719880D01*
G02X463320Y716310I-5081J-6D01*
G01X461100Y714060D01*
G02X458200Y712590I-3626J3557D01*
G03X447280Y700000I1798J-12590D01*
G01Y640000D01*
G03X460000Y627280I12720J0D01*
G01X485470D01*
G02X490550Y622200I0J-5080D01*
G01Y617800D01*
G02X485470Y612720I-5080J0D01*
G01X460000D01*
G03X447280Y600000I0J-12720D01*
G01Y540000D01*
G03X458200Y527410I12718J0D01*
G02X461100Y525940I-726J-5027D01*
G01X463320Y523690D01*
G02X464780Y520120I-3621J-3564D01*
G01Y501090D01*
G02X463290Y497490I-5080J-6D01*
G01X448270Y482470D01*
G02X444670Y480980I-3594J3590D01*
G01X148260D01*
G03X128660Y472860I0J-27715D01*
G01X113890Y458090D01*
G02X108350Y456990I-3592J3591D01*
G01X106930Y457570D01*
X105220Y460130D01*
Y705050D01*
G02X106710Y708650I5080J6D01*
G01X133650Y735590D01*
G02X137250Y737080I3594J-3590D01*
G01X191480D01*
G03X211080Y745200I0J27715D01*
G01X232030Y766150D01*
G02X235630Y767640I3594J-3590D01*
G01X395860D01*
G03X400940Y772720I0J5080D01*
G01Y787470D01*
G02X406020Y792550I5080J0D01*
G37*
G36*
G01X-66790D02*
X-25300D01*
G02X-20220Y787470I0J-5080D01*
G01Y745000D01*
G03X-9300Y732410I12718J0D01*
G02X-6400Y730940I-726J-5027D01*
G01X-4180Y728690D01*
G02X-2720Y725120I-3621J-3564D01*
G01Y717800D01*
G02X-7800Y712720I-5080J0D01*
G01X-51410D01*
G02X-55010Y714210I-6J5080D01*
G01X-70380Y729580D01*
G02X-71870Y733180I3590J3594D01*
G01Y787470D01*
G02X-66790Y792550I5080J0D01*
G37*
G36*
G01X-112260Y940240D02*
Y1100080D01*
G02X-107180Y1105160I5080J0D01*
G01X52660D01*
G02X57740Y1100080I0J-5080D01*
G01Y940240D01*
G02X52660Y935160I-5080J0D01*
G01X-107180D01*
G02X-112260Y940240I0J5080D01*
G37*
G36*
G01X369370Y1455860D02*
Y1007040D01*
G02X364290Y1001960I-5080J0D01*
G01X169990D01*
G02X164910Y1007040I0J5080D01*
G01Y1455860D01*
G02X169990Y1460940I5080J0D01*
G01X364290D01*
G02X369370Y1455860I0J-5080D01*
G37*
G36*
G01X570500Y-700000D02*
X587420D01*
G02X592500Y-705080I0J-5080D01*
G01Y-810400D01*
G03X593990Y-813990I5080J4D01*
G01X623510Y-843510D01*
G03X627100Y-845000I3594J3590D01*
G01X697900D01*
G02X701490Y-846490I-4J-5080D01*
G01X713290Y-858290D01*
G02X714780Y-861880I-3590J-3594D01*
G01Y-905000D01*
G03X727500Y-917720I12720J0D01*
G01X767420D01*
G02X772500Y-922800I0J-5080D01*
G01Y-1419340D01*
X772040Y-1420350D01*
G03X769980Y-1429800I20659J-9453D01*
G01Y-1827500D01*
X612100D01*
G02X608510Y-1826010I4J5080D01*
G01X603990Y-1821490D01*
G02X602500Y-1817900I3590J3594D01*
G01Y-997100D01*
G03X601010Y-993510I-5080J-4D01*
G01X566910Y-959410D01*
G02X565420Y-955820I3590J3594D01*
G01Y-705080D01*
G02X570500Y-700000I5080J0D01*
G37*
G36*
G01X610000Y-820400D02*
Y-705080D01*
G02X615080Y-700000I5080J0D01*
G01X675400D01*
G02X678990Y-701490I-4J-5080D01*
G01X686010Y-708510D01*
G02X687500Y-712100I-3590J-3594D01*
G01Y-837420D01*
G02X682420Y-842500I-5080J0D01*
G01X632100D01*
G02X628510Y-841010I4J5080D01*
G01X611490Y-823990D01*
G02X610000Y-820400I3590J3594D01*
G37*
G36*
G01X569600Y-227500D02*
X590400D01*
G02X593990Y-228990I-4J-5080D01*
G01X601010Y-236010D01*
G02X602500Y-239600I-3590J-3594D01*
G01Y-597900D01*
G03X603990Y-601490I5080J4D01*
G01X643510Y-641010D01*
G03X647100Y-642500I3594J3590D01*
G01X727420D01*
G02X732500Y-647580I0J-5080D01*
G01Y-679920D01*
G02X727420Y-685000I-5080J0D01*
G01X700550D01*
G02X696960Y-683510I4J5080D01*
G01X689520Y-676070D01*
G03X685930Y-674580I-3594J-3590D01*
G01X613710D01*
G02X610190Y-673160I3J5079D01*
G01X559060Y-624000D01*
G02X557500Y-620340I3520J3663D01*
G01Y-239600D01*
G02X558990Y-236010I5080J-4D01*
G01X566010Y-228990D01*
G02X569600Y-227500I3594J-3590D01*
G37*
G36*
G01X658560Y218930D02*
X827780Y388160D01*
G02X833320Y389270I3600J-3587D01*
G01X834740Y388680D01*
X836450Y386120D01*
Y312500D01*
G03X849170Y299780I12720J0D01*
G01X851370D01*
G02X856450Y294700I0J-5080D01*
G01Y292800D01*
G02X851370Y287720I-5080J0D01*
G01X850840D01*
G03X838120Y275000I0J-12720D01*
G01Y210000D01*
G03X848240Y197550I12718J0D01*
G02X848000Y187560I-1042J-4973D01*
G03X837280Y175000I1998J-12560D01*
G01Y110000D01*
G03X850000Y97280I12720J0D01*
G01X852200D01*
G02X857280Y92200I0J-5080D01*
G01Y63740D01*
G02X855790Y60140I-5080J-6D01*
G01X754030Y-41620D01*
G02X748490Y-42730I-3600J3587D01*
G01X747070Y-42140D01*
X745360Y-39580D01*
Y-9730D01*
G03X742840Y-2130I-12720J0D01*
G02X741830Y910I4070J3040D01*
G01Y4240D01*
G02X742840Y7280I5080J0D01*
G03X745360Y14880I-10200J7600D01*
G01Y40280D01*
G03X742840Y47880I-12720J0D01*
G02X741830Y50920I4070J3040D01*
G01Y54250D01*
G02X742840Y57290I5080J0D01*
G03X745360Y64890I-10200J7600D01*
G01Y90290D01*
G03X732640Y103010I-12720J0D01*
G01X653090D01*
G02X648010Y108090I0J5080D01*
G01Y187640D01*
G03X635290Y200360I-12720J0D01*
G01X632610D01*
G02X627920Y203500I5J5080D01*
G01X627330Y204920D01*
X627930Y207930D01*
X630790Y210790D01*
G02X634380Y212280I3594J-3590D01*
G01X642490D01*
G03X658560Y218930I8J22723D01*
G37*
G36*
G01X374580Y923480D02*
G03X375370Y916930I27722J21D01*
G01X375520Y916340D01*
Y798140D01*
G02X370440Y793060I-5080J0D01*
G01X210600D01*
G02X205520Y798140I0J5080D01*
G01Y987980D01*
G02X210600Y993060I5080J0D01*
G01X369500D01*
G02X374580Y987980I0J-5080D01*
G01Y923480D01*
G37*
G36*
G01X430320Y939950D02*
Y1099790D01*
G02X435400Y1104870I5080J0D01*
G01X595240D01*
G02X600320Y1099790I0J-5080D01*
G01Y939950D01*
G02X595240Y934870I-5080J0D01*
G01X435400D01*
G02X430320Y939950I0J5080D01*
G37*
G36*
G01X993700Y1277180D02*
G03X1444390Y1067310I274294J182D01*
G02X1508580Y1068200I32640J-38872D01*
G02X1509570Y1067170I-3130J-4000D01*
G02X1769830Y540540I-1509288J-1073514D01*
G01Y540520D01*
G02X1760100Y-571410I-1769832J-540521D01*
G02X1527830Y-646450I-143271J46473D01*
G03X1213390Y-839520I-117661J-160962D01*
G02X1126080Y-1039290I-198096J-32386D01*
G03X1067290Y-1444580I151259J-228850D01*
G02X1057450Y-1518770I-38838J-32596D01*
G02X919080Y-1606280I-1063518J1528475D01*
G02X912970Y-1605470I-2525J4407D01*
G01X816910Y-1509410D01*
G02X815420Y-1505820I3590J3594D01*
G01Y-1441310D01*
G02X816910Y-1437720I5080J-4D01*
G01X852790Y-1401840D01*
X855730Y-1401220D01*
X857140Y-1401760D01*
G03X880000Y-1406020I22870J59258D01*
G03X943520Y-1342500I0J63520D01*
G03X913640Y-1288620I-63519J0D01*
G02X911250Y-1284310I2690J4309D01*
G01Y-1275690D01*
G02X913640Y-1271380I5080J1D01*
G03Y-1163620I-33638J53880D01*
G02X911250Y-1159310I2690J4309D01*
G01Y-1150690D01*
G02X913640Y-1146380I5080J1D01*
G03X943520Y-1092500I-33639J53880D01*
G03X880000Y-1028980I-63520J0D01*
G03X830570Y-1052610I0J-63515D01*
G02X824920Y-1054210I-3954J3188D01*
G01X815890Y-1051020D01*
G02X812500Y-1046230I1690J4791D01*
G01Y-959600D01*
G03X811010Y-956010I-5080J-4D01*
G01X799410Y-944410D01*
G02X797920Y-940820I3590J3594D01*
G01Y-909070D01*
G03X796430Y-905480I-5080J-4D01*
G01X714410Y-823460D01*
G02X712920Y-819870I3590J3594D01*
G01Y-715500D01*
G02X718000Y-710420I5080J0D01*
G01X752840D01*
G03X757920Y-705340I0J5080D01*
G01Y-700390D01*
G02X763000Y-695310I5080J0D01*
G01X813580D01*
G02X817170Y-696800I-4J-5080D01*
G01X853290Y-732920D01*
G02X854780Y-736510I-3590J-3594D01*
G01Y-772240D01*
G02X853290Y-775830I-5078J4D01*
G03X837080Y-815000I39206J-39164D01*
G03X892500Y-870420I55420J0D01*
G01X892550D01*
G03X896160Y-870300I-35J55421D01*
G02X899380Y-871190I332J-5070D01*
G03X912300Y-875220I12920J18695D01*
G01X917200D01*
G02X922280Y-880300I0J-5080D01*
G01Y-885000D01*
G03X935000Y-897720I12720J0D01*
G01X995000D01*
G03X1007720Y-885000I0J12720D01*
G01Y-820000D01*
G03X1005170Y-812360I-12720J0D01*
G01Y-812350D01*
G02X1004150Y-809310I4058J3053D01*
G01Y-803190D01*
G02X1005170Y-800150I5078J-13D01*
G01Y-800140D01*
G03X1007720Y-792500I-10170J7640D01*
G01Y-727500D01*
G03X995000Y-714780I-12720J0D01*
G01X956510D01*
G02X952920Y-713290I4J5080D01*
G01X846150Y-606510D01*
G03X830100Y-599860I-16062J-16073D01*
G01X755090D01*
G02X751170Y-598010I1J5079D01*
G01X745450Y-591060D01*
X744900Y-588850D01*
X745120Y-587730D01*
G03X745360Y-585270I-12488J2460D01*
G01Y-559870D01*
G03X742840Y-552270I-12720J0D01*
G02X741830Y-549230I4069J3040D01*
G01Y-545900D01*
G02X742840Y-542860I5079J0D01*
G03X745360Y-535260I-10200J7600D01*
G01Y-509860D01*
G03X742840Y-502250I-12735J5D01*
G02X741830Y-499220I4069J3040D01*
G01Y-495880D01*
G02X742840Y-492850I5079J-10D01*
G03X745360Y-485240I-10215J7605D01*
G01Y-459840D01*
G03X745120Y-457380I-12728J0D01*
G01X744900Y-456260D01*
X745450Y-454050D01*
X751170Y-447100D01*
G02X755090Y-445250I3921J-3229D01*
G01X881430D01*
X881620D01*
G03X898560Y-438610I864J22724D01*
G01X898880Y-438290D01*
X900740Y-437520D01*
X1058290D01*
G02X1061880Y-439010I-4J-5080D01*
G01X1078290Y-455430D01*
G02X1079780Y-459020I-3590J-3594D01*
G01Y-577500D01*
G03X1092500Y-590220I12720J0D01*
G01X1124700D01*
G02X1129780Y-595300I0J-5080D01*
G01Y-599700D01*
G02X1124700Y-604780I-5080J0D01*
G01X1122500D01*
G03X1109780Y-617500I0J-12720D01*
G01Y-682500D01*
G03X1122500Y-695220I12720J0D01*
G01X1182500D01*
G03X1195220Y-682500I0J12720D01*
G01Y-617500D01*
G03X1182500Y-604780I-12720J0D01*
G01X1180300D01*
G02X1175220Y-599700I0J5080D01*
G01Y-595300D01*
G02X1180300Y-590220I5080J0D01*
G01X1212500D01*
G03X1225220Y-577500I0J12720D01*
G01Y-437500D01*
G03X1212500Y-424780I-12720J0D01*
G01X1114010D01*
G02X1110420Y-423290I4J5080D01*
G01X1085870Y-398730D01*
G03X1069820Y-392080I-16062J-16073D01*
G01X932310D01*
G02X927610Y-388940I-5J5080D01*
G01X927030Y-387530D01*
X927630Y-384510D01*
X940420Y-371710D01*
G02X944020Y-370220I3594J-3590D01*
G01X1042500D01*
G03X1055220Y-357500I0J12720D01*
G01Y-217500D01*
G03X1042500Y-204780I-12720J0D01*
G01X1010300D01*
G02X1005220Y-199700I0J5080D01*
G01Y-197800D01*
G02X1010300Y-192720I5080J0D01*
G01X1012500D01*
G03X1025220Y-180000I0J12720D01*
G01Y-115000D01*
G03X1012500Y-102280I-12720J0D01*
G01X969940D01*
G02X965240Y-99140I-5J5080D01*
G01X964660Y-97730D01*
X965260Y-94710D01*
X1024950Y-35010D01*
G02X1028540Y-33520I3594J-3590D01*
G01X1241500D01*
G03X1250570Y-31630I0J22708D01*
G01X1251750Y-31120D01*
X1254290Y-31330D01*
X1262480Y-36700D01*
G02X1264780Y-40950I-2778J-4251D01*
G01Y-47500D01*
G03X1277500Y-60220I12720J0D01*
G01X1365990D01*
G02X1369580Y-61710I-4J-5080D01*
G01X1403320Y-95450D01*
G02X1404770Y-99720I-3587J-3599D01*
G01X1403690Y-107730D01*
G02X1401190Y-111460I-5036J673D01*
G01X1401180D01*
G03X1394780Y-122500I6322J-11040D01*
G01Y-187500D01*
G03X1396820Y-194420I12733J-7D01*
G02X1397640Y-197180I-4259J-2767D01*
G01Y-200320D01*
G02X1396820Y-203080I-5079J7D01*
G03X1394780Y-210000I10693J-6913D01*
G01Y-275000D01*
G03X1407500Y-287720I12720J0D01*
G01X1467500D01*
G03X1480220Y-275000I0J12720D01*
G01Y-210000D01*
G03X1478180Y-203080I-12733J7D01*
G02X1477360Y-200320I4259J2767D01*
G01Y-197180D01*
G02X1478180Y-194420I5079J-7D01*
G03X1480220Y-187500I-10693J6913D01*
G01Y-122500D01*
G03X1467500Y-109780I-12720J0D01*
G01X1465300D01*
G02X1460220Y-104700I0J5080D01*
G01Y-97480D01*
G03X1453570Y-81430I-22723J-12D01*
G01X1441020Y-68880D01*
G02X1439920Y-63340I3592J3592D01*
G01X1440500Y-61930D01*
X1443060Y-60220D01*
X1557500D01*
G03X1570220Y-47500I0J12720D01*
G01Y30990D01*
G02X1571710Y34580I5080J-4D01*
G01X1581480Y44350D01*
G02X1585070Y45840I3594J-3590D01*
G01X1585690D01*
G03X1601740Y52490I-12J22723D01*
G01X1673570Y124320D01*
G03X1679470Y134600I-16075J16059D01*
G02X1682130Y137860I4914J-1294D01*
G03X1712920Y187500I-24620J49640D01*
G03X1657500Y242920I-55420J0D01*
G03X1624730Y232190I4J-55419D01*
G01X1624720D01*
G02X1619430Y231760I-2996J4099D01*
G01X1611350Y235850D01*
G02X1608560Y240380I2289J4534D01*
G01Y275000D01*
G03X1595840Y287720I-12720J0D01*
G01X1557360D01*
G02X1553760Y289210I-6J5081D01*
G01X1551850Y291120D01*
G02X1550760Y296650I3602J3582D01*
G01X1551340Y298070D01*
X1553900Y299780D01*
X1594170D01*
G03X1606890Y312500I0J12720D01*
G01Y377500D01*
G03X1594170Y390220I-12720J0D01*
G01X1591970D01*
G02X1586890Y395300I0J5080D01*
G01Y431530D01*
G02X1587610Y434130I5079J-7D01*
G03X1595420Y462500I-47606J28365D01*
G03X1484580I-55420J0D01*
G03X1534800Y407320I55425J0D01*
G02X1538020Y405750I-473J-5057D01*
G01X1540070Y403580D01*
G02X1541450Y400090I-3701J-3481D01*
G01Y395300D01*
G02X1536370Y390220I-5080J0D01*
G01X1534170D01*
G03X1521450Y377500I0J-12720D01*
G01Y329610D01*
G02X1518310Y324910I-5080J-5D01*
G01X1516900Y324330D01*
X1513880Y324930D01*
X1508380Y330420D01*
G02X1506890Y334020I3590J3594D01*
G01Y377500D01*
G03X1494170Y390220I-12720J0D01*
G01X1434170D01*
G03X1422180Y381740I0J-12716D01*
G02X1422070Y381470I-4755J1780D01*
G02X1413410Y380280I-4682J1969D01*
G03X1410290Y383890I-43452J-34401D01*
G02X1409750Y384560I3670J3510D01*
G03X1405330Y388630I-10583J-7058D01*
G02X1404630Y389110I2512J4413D01*
G03X1370010Y401250I-34617J-43284D01*
G01X1370000D01*
G03X1337180Y390490I0J-55434D01*
G02X1335600Y389710I-3004J4096D01*
G03X1327060Y381390I3571J-12209D01*
G02X1326240Y379830I-4839J1548D01*
G03X1321190Y372070I43761J-34001D01*
G02X1312150Y372210I-4484J2395D01*
G01Y377500D01*
G03X1299170Y390480I-12980J0D01*
G01X1239170D01*
G03X1227130Y382340I0J-12974D01*
G02X1225410Y380130I-4716J1896D01*
G01X1224640Y379570D01*
G02X1219450Y379100I-2988J4107D01*
G01X1219250Y379190D01*
G02X1217550Y380520I2208J4573D01*
G03X1216430Y381820I-42545J-35522D01*
G02X1215650Y382990I3794J3374D01*
G03X1208400Y389490I-11469J-5500D01*
G02X1207140Y390150I1704J4786D01*
G03X1175000Y400420I-32140J-45156D01*
G03X1143810Y390800I14J-55416D01*
G02X1141870Y390010I-2845J4209D01*
G03X1131800Y380460I2300J-12510D01*
G02X1130900Y378570I-4939J1193D01*
G03X1126540Y371900I44091J-33581D01*
G02X1124730Y370010I-4451J2451D01*
G01X1121410Y368010D01*
G02X1117440Y369920I-1J5080D01*
G01Y377500D01*
G03X1104170Y390770I-13270J0D01*
G01X1044170D01*
G03X1031570Y381650I0J-13264D01*
G02X1029840Y379210I-4827J1589D01*
G01X1029470Y378930D01*
G02X1024140Y378390I-3100J4025D01*
G01X1023990Y378470D01*
G02X1022280Y379830I2232J4562D01*
G03X1022060Y380100I-43074J-34873D01*
G02X1021190Y381660I3931J3215D01*
G03X1012340Y389810I-12015J-4167D01*
G02X1010720Y390560I1292J4915D01*
G03X979170Y400420I-31554J-45558D01*
G03X947620Y390560I4J-55418D01*
G02X946000Y389810I-2912J4165D01*
G03X937150Y381660I3165J-12317D01*
G02X936280Y380100I-4801J1655D01*
G03X931880Y373900I42890J-35099D01*
G02X930080Y372150I-4331J2654D01*
G01X926840Y370290D01*
G02X922010Y373810I3J5077D01*
G01Y377500D01*
G03X909170Y390340I-12840J0D01*
G01X849170D01*
G03X847690Y390250I38J-12838D01*
G02X847100Y390220I-553J5052D01*
G01X842100D01*
G02X837400Y393360I-5J5080D01*
G01X836820Y394770D01*
X837420Y397790D01*
X852910Y413290D01*
G02X856510Y414780I3594J-3590D01*
G01X1265020D01*
G03X1281070Y421430I-12J22723D01*
G01X1341070Y481430D01*
G03X1347720Y497480I-16073J16062D01*
G01Y517700D01*
G02X1352800Y522780I5080J0D01*
G01X1354670D01*
X1357510Y520370D01*
X1357810Y518520D01*
G03X1412500Y472080I54690J8983D01*
G03X1467920Y527500I0J55420D01*
G03X1456290Y561470I-55411J5D01*
G02X1455220Y564580I4009J3118D01*
G01Y630000D01*
G03X1452100Y638340I-12707J0D01*
G01X1451500Y639040D01*
X1450860Y640740D01*
Y649260D01*
X1451500Y650960D01*
X1452100Y651660D01*
G03X1455220Y660000I-9587J8340D01*
G01Y725000D01*
G03X1442500Y737720I-12720J0D01*
G01X1408110D01*
G02X1403400Y740890I-2J5082D01*
G01X1399280Y751070D01*
X1399920Y754100D01*
X1401040Y755180D01*
G03X1417920Y795000I-38528J39820D01*
G03X1307080I-55420J0D01*
G01Y794990D01*
G03X1310690Y775320I55421J5D01*
G01X1308930Y773570D01*
G03X1302280Y757520I16073J-16062D01*
G01Y742800D01*
G02X1297200Y737720I-5080J0D01*
G01X1292500D01*
G03X1284860Y735170I0J-12720D01*
G01X1284850D01*
G02X1281810Y734150I-3053J4058D01*
G01X1275690D01*
G02X1272650Y735170I13J5078D01*
G01X1272640D01*
G03X1265000Y737720I-7640J-10170D01*
G01X1260300D01*
G02X1255220Y742800I0J5080D01*
G01Y763760D01*
G02X1257970Y768280I5080J6D01*
G03X1287920Y817500I-25469J49220D01*
G03X1177080I-55420J0D01*
G03X1207030Y768280I55419J0D01*
G02X1209780Y763760I-2330J-4514D01*
G01Y742800D01*
G02X1204700Y737720I-5080J0D01*
G01X1200000D01*
G03X1187280Y725000I0J-12720D01*
G01Y665000D01*
G03X1200000Y652280I12720J0D01*
G01X1265000D01*
G03X1272640Y654830I0J12720D01*
G01X1272650D01*
G02X1275690Y655850I3053J-4058D01*
G01X1281810D01*
G02X1284850Y654830I-13J-5078D01*
G01X1284860D01*
G03X1292500Y652280I7640J10170D01*
G01X1357520D01*
G03X1362380Y653250I-12J12722D01*
G01X1363080Y653540D01*
X1364580Y653690D01*
X1371620Y652290D01*
X1372950Y651570D01*
X1373480Y651030D01*
G03X1374830Y649850I9026J8964D01*
G02X1376220Y648240I-3065J-4051D01*
G01X1376660Y647440D01*
G02Y642560I-4455J-2440D01*
G01X1376220Y641760D01*
G02X1374830Y640150I-4455J2441D01*
G03X1373480Y638970I7676J-10144D01*
G01X1372950Y638430D01*
X1371620Y637710D01*
X1364580Y636310D01*
X1363080Y636460D01*
X1362380Y636750D01*
G03X1357520Y637720I-4872J-11752D01*
G01X1292500D01*
G03X1284860Y635170I0J-12720D01*
G01X1284850D01*
G02X1281810Y634150I-3053J4058D01*
G01X1275690D01*
G02X1272650Y635170I13J5078D01*
G01X1272640D01*
G03X1265000Y637720I-7640J-10170D01*
G01X1200000D01*
G03X1192360Y635170I0J-12720D01*
G01X1192350D01*
G02X1189310Y634150I-3053J4058D01*
G01X1183190D01*
G02X1180150Y635170I13J5078D01*
G01X1180140D01*
G03X1172500Y637720I-7640J-10170D01*
G01X1107500D01*
G03X1101660Y636300I0J-12719D01*
G01X1100910Y635910D01*
X1099240Y635660D01*
X1091490Y637070D01*
X1090010Y637890D01*
X1089450Y638520D01*
G03X1083180Y642310I-9436J-8529D01*
G02X1081550Y643060I1275J4918D01*
G03X1050000Y652920I-31554J-45558D01*
G03X1018450Y643060I4J-55418D01*
G02X1016830Y642310I-2912J4165D01*
G03X1007980Y634160I3165J-12317D01*
G02X1007110Y632600I-4801J1655D01*
G03X1002710Y626400I42890J-35099D01*
G02X1000910Y624650I-4331J2654D01*
G01X997670Y622790D01*
G02X992840Y626310I3J5077D01*
G01Y630000D01*
G03X988440Y639670I-12826J0D01*
G01X988360Y639770D01*
Y649260D01*
X989000Y650960D01*
X989600Y651660D01*
G03X992720Y660000I-9587J8340D01*
G01Y725000D01*
G03X980000Y737720I-12720J0D01*
G01X920000D01*
G03X910970Y733950I7J-12717D01*
G02X907360Y732450I-3605J3582D01*
G01X900140D01*
G02X896530Y733950I-5J5082D01*
G03X887500Y737720I-9037J-8947D01*
G01X882800D01*
G02X877720Y742800I0J5080D01*
G01Y771260D01*
G02X880470Y775780I5080J6D01*
G03X910420Y825000I-25469J49220D01*
G03X799580I-55420J0D01*
G03X829530Y775780I55419J0D01*
G02X832280Y771260I-2330J-4514D01*
G01Y742800D01*
G02X827200Y737720I-5080J0D01*
G01X822500D01*
G03X809780Y725000I0J-12720D01*
G01Y665000D01*
G03X822500Y652280I12720J0D01*
G01X887500D01*
G03X895190Y654870I0J12711D01*
G01X896010Y655490D01*
X898010Y656000D01*
X907270Y654570D01*
X909030Y653490D01*
X909620Y652650D01*
G03X910400Y651660I10367J7366D01*
G01X911000Y650960D01*
X911640Y649260D01*
Y639770D01*
X911560Y639670D01*
G03X908600Y635920I8423J-9692D01*
G01X908380Y635600D01*
X898010Y634000D01*
X896010Y634510D01*
X895190Y635130D01*
G03X887500Y637720I-7690J-10121D01*
G01X822500D01*
G03X809780Y625000I0J-12720D01*
G01Y586520D01*
G02X808290Y582920I-5081J-6D01*
G01X806380Y581010D01*
G02X800850Y579920I-3582J3602D01*
G01X799430Y580500D01*
X797720Y583060D01*
Y627500D01*
G03X785000Y640220I-12720J0D01*
G01X742580D01*
G02X737500Y645300I0J5080D01*
G01Y648270D01*
G02X738990Y651860I5080J-4D01*
G01X740420Y653290D01*
G02X744010Y654780I3594J-3590D01*
G01X785000D01*
G03X797720Y667500I0J12720D01*
G01Y727500D01*
G03X785000Y740220I-12720J0D01*
G01X742580D01*
G02X737500Y745300I0J5080D01*
G01Y1309920D01*
G02X742580Y1315000I5080J0D01*
G01X870970D01*
G02X874560Y1313510I-4J-5080D01*
G01X874780Y1313290D01*
Y1297800D01*
G02X869700Y1292720I-5080J0D01*
G01X867500D01*
G03X854780Y1280000I0J-12720D01*
G01Y1215000D01*
G03X857330Y1207360I12720J0D01*
G01Y1207350D01*
G02X858350Y1204310I-4058J-3053D01*
G01Y1198190D01*
G02X857330Y1195150I-5078J13D01*
G01Y1195140D01*
G03X854780Y1187500I10170J-7640D01*
G01Y1129580D01*
G02X853710Y1126470I-5079J8D01*
G03X842080Y1092500I43781J-33965D01*
G03X952920I55420J0D01*
G03X941290Y1126470I-55411J5D01*
G02X940220Y1129580I4009J3118D01*
G01Y1187500D01*
G03X937670Y1195140I-12720J0D01*
G01Y1195150D01*
G02X936650Y1198190I4058J3053D01*
G01Y1204310D01*
G02X937670Y1207350I5078J-13D01*
G01Y1207360D01*
G03X940220Y1215000I-10170J7640D01*
G01Y1280000D01*
G03X927500Y1292720I-12720J0D01*
G01X925300D01*
G02X920220Y1297800I0J5080D01*
G01Y1309920D01*
G02X925300Y1315000I5080J0D01*
G01X987620D01*
G02X992680Y1310440I6J-5081D01*
G02X993700Y1277390I-229427J-23621D01*
G01Y1277180D01*
G37*
G36*
G01X771410Y-288560D02*
X931110Y-128850D01*
G02X936650Y-127740I3600J-3587D01*
G01X938070Y-128330D01*
X939780Y-130890D01*
Y-180000D01*
G03X952500Y-192720I12720J0D01*
G01X954700D01*
G02X959780Y-197800I0J-5080D01*
G01Y-199700D01*
G02X954700Y-204780I-5080J0D01*
G01X922500D01*
G03X909780Y-217500I0J-12720D01*
G01Y-335980D01*
G02X908300Y-339570I-5079J-6D01*
G01X899560Y-348310D01*
G02X895960Y-349800I-3594J3590D01*
G01X755090D01*
G02X751160Y-347950I-8J5081D01*
G01X745450Y-341000D01*
X744900Y-338790D01*
X745120Y-337670D01*
G03X745360Y-335210I-12488J2460D01*
G01Y-309810D01*
G03X745120Y-307340I-12721J11D01*
G01X744890Y-306210D01*
X745450Y-304000D01*
X751950Y-296160D01*
X754010Y-295200D01*
X755160Y-295210D01*
X755340D01*
G03X771410Y-288560I8J22723D01*
G37*
G36*
G01X931880Y316100D02*
G03X936280Y309900I47290J28899D01*
G02X937150Y308340I-3931J-3215D01*
G03X946000Y300190I12015J4167D01*
G02X947620Y299440I-1292J-4915D01*
G03X979170Y289580I31554J45558D01*
G03X1010720Y299440I-4J55418D01*
G02X1012340Y300190I2912J-4165D01*
G03X1021190Y308340I-3165J12317D01*
G02X1022060Y309900I4801J-1655D01*
G03X1022280Y310170I-42854J35143D01*
G02X1023990Y311530I3942J-3202D01*
G01X1024140Y311610D01*
G02X1029470Y311070I2230J-4565D01*
G01X1030640Y310170D01*
G02X1032290Y307960I-3093J-4030D01*
G03X1044170Y299780I11880J4537D01*
G01X1082660D01*
G02X1086250Y298290I-4J-5080D01*
G01X1104160Y280370D01*
G03X1109480Y276420I16061J16074D01*
G01X1110140Y276070D01*
X1111210Y274990D01*
G03X1117870Y270380I16055J16079D01*
G01X1118710Y270000D01*
X1131630Y257080D01*
G02X1133120Y253490I-3590J-3594D01*
G01Y210000D01*
G03X1137420Y200470I12711J0D01*
G01X1137430Y200460D01*
G02X1139130Y196540I-3377J-3793D01*
G01X1138920Y187640D01*
X1137920Y185630D01*
X1137050Y184930D01*
G03X1132280Y175000I7951J-9930D01*
G01Y131510D01*
G02X1130790Y127920I-5080J4D01*
G01X1114380Y111510D01*
G02X1110790Y110020I-3594J3590D01*
G01X965080D01*
G03X949030Y103370I12J-22723D01*
G01X911380Y65720D01*
G02X905840Y64620I-3592J3592D01*
G01X904430Y65200D01*
X902720Y67760D01*
Y92200D01*
G02X907800Y97280I5080J0D01*
G01X910000D01*
G03X922720Y110000I0J12720D01*
G01Y175000D01*
G03X918420Y184530I-12711J0D01*
G01X918410Y184540D01*
G02X916710Y188460I3377J3793D01*
G01X916920Y197360D01*
X917920Y199370D01*
X918790Y200070D01*
G03X923560Y210000I-7951J9930D01*
G01Y275000D01*
G03X910840Y287720I-12720J0D01*
G01X906970D01*
G02X901890Y292800I0J5080D01*
G01Y294580D01*
G02X906970Y299660I5080J0D01*
G01X909170D01*
G03X922010Y312500I0J12840D01*
G01Y316190D01*
G02X926840Y319710I4833J-1557D01*
G01X930080Y317850D01*
G02X931880Y316100I-2531J-4404D01*
G37*
G36*
G01X1320750Y320410D02*
G03X1325690Y312550I49227J25457D01*
G02X1326630Y310360I-4067J-3043D01*
G03X1338010Y299830I12539J2137D01*
G02X1340270Y299060I-462J-5057D01*
G03X1370000Y290410I29731J46769D01*
G03X1400220Y299370I9J55414D01*
G02X1401900Y300080I2785J-4247D01*
G03X1411120Y308150I-2730J12421D01*
G02X1412040Y309730I4781J-1726D01*
G03X1412390Y310130I-41527J36689D01*
G02X1414080Y311430I3873J-3287D01*
G01X1414220Y311500D01*
G02X1419480Y310960I2187J-4587D01*
G01X1420670Y310050D01*
G02X1422330Y307860I-3068J-4049D01*
G03X1434170Y299780I11840J4635D01*
G01X1472660D01*
G02X1476250Y298290I-4J-5080D01*
G01X1494160Y280370D01*
G03X1499480Y276420I16061J16074D01*
G01X1500140Y276070D01*
X1501210Y274990D01*
G03X1507870Y270380I16056J16080D01*
G01X1508710Y270000D01*
X1521630Y257080D01*
G02X1523120Y253490I-3590J-3594D01*
G01Y210000D01*
G03X1527420Y200470I12711J0D01*
G01X1527430Y200460D01*
G02X1529130Y196540I-3377J-3793D01*
G01X1528920Y187640D01*
X1527920Y185630D01*
X1527050Y184930D01*
G03X1522280Y175000I7951J-9930D01*
G01Y131510D01*
G02X1520790Y127920I-5080J4D01*
G01X1504380Y111510D01*
G02X1500790Y110020I-3594J3590D01*
G01X1317800D01*
G02X1312720Y115100I0J5080D01*
G01Y175000D01*
G03X1308420Y184530I-12711J0D01*
G01X1308410Y184540D01*
G02X1306710Y188460I3377J3793D01*
G01X1306920Y197360D01*
X1307920Y199370D01*
X1308790Y200070D01*
G03X1313560Y210000I-7951J9930D01*
G01Y275000D01*
G03X1300840Y287720I-12720J0D01*
G01X1296970D01*
G02X1291890Y292800I0J5080D01*
G01Y293320D01*
G02X1296970Y298400I5080J0D01*
G01X1299170D01*
G03X1313270Y312500I0J14100D01*
G01Y323930D01*
G02X1315580Y324480I2299J-4530D01*
G01X1318930Y322390D01*
G02X1320750Y320410I-2697J-4306D01*
G37*
%LPC*%
G75*
G36*
G01X1482500Y642720D02*
X1542500D01*
G02X1550200Y640130I0J-12741D01*
G03X1553150Y639100I3068J4047D01*
G01X1556310Y639030D01*
G03X1559660Y640190I118J5076D01*
G02X1595000Y652920I35340J-42689D01*
G02Y542080I0J-55420D01*
G02X1559660Y554810I0J55419D01*
G03X1556310Y555970I-3232J-3916D01*
G01X1553150Y555900D01*
G03X1550200Y554870I118J-5077D01*
G02X1542500Y552280I-7700J10151D01*
G01X1482500D01*
G02X1469780Y565000I0J12720D01*
G01Y630000D01*
G02X1482500Y642720I12720J0D01*
G37*
G54D33*
X1699891Y6181D03*
%LPD*%
G75*
G54D10*
X-1397500Y-447500D03*
Y-190000D03*
Y325000D03*
Y67500D03*
X-1502500Y617500D03*
X-1222500D03*
X-1117500Y-447500D03*
Y-190000D03*
Y325000D03*
Y67500D03*
X-132500Y-1115000D03*
X147500D03*
X405000Y-1465000D03*
X685000D03*
X410000Y-1737500D03*
X690000D03*
G54D20*
X-547500Y-1817500D03*
X-652500D03*
X-380000D03*
X-275000D03*
G54D11*
X-1520000Y-547500D03*
X-1440000D03*
X-1360000D03*
X-1520000Y-467500D03*
X-1440000D03*
X-1360000D03*
X-1520000Y-387500D03*
X-1440000D03*
X-1360000D03*
X-1520000Y-307500D03*
X-1440000D03*
X-1360000D03*
X-1520000Y-227500D03*
X-1440000D03*
X-1360000D03*
X-1520000Y-147500D03*
X-1440000D03*
X-1360000D03*
X-1520000Y-67500D03*
X-1440000D03*
X-1360000D03*
X-1520000Y12500D03*
X-1440000D03*
X-1360000D03*
X-1520000Y92500D03*
X-1440000D03*
X-1360000D03*
X-1520000Y172500D03*
X-1440000D03*
X-1360000D03*
X-1520000Y252500D03*
X-1440000D03*
X-1360000D03*
X-1520000Y332500D03*
X-1440000D03*
X-1360000D03*
X-1520000Y412500D03*
X-1440000D03*
X-1360000D03*
X-1522500Y460000D03*
X-1442500D03*
X-1522500Y540000D03*
X-1442500D03*
X-1522500Y620000D03*
X-1442500D03*
X-1522500Y700000D03*
X-1442500D03*
X-970000Y-530000D03*
X-1097500Y-747500D03*
X-975000Y-327500D03*
X-970000Y-400000D03*
X-962500Y-467500D03*
X-852500Y-40000D03*
X-900000Y202500D03*
X-940000Y337500D03*
Y262500D03*
X-947500Y112500D03*
X-942500Y35000D03*
X-752500Y895000D03*
X-775000Y470000D03*
X-925000Y520000D03*
X-875000D03*
X-825000D03*
X-775000D03*
X-925000Y570000D03*
X-875000D03*
X-825000D03*
X-775000D03*
X-925000Y620000D03*
X-875000D03*
X-825000D03*
X-775000D03*
X-925000Y670000D03*
X-875000D03*
X-825000D03*
X-775000D03*
X-825000Y720000D03*
X-775000D03*
X-357500Y-1560000D03*
X-675000Y-1545000D03*
X-485000D03*
X-572500Y-1277500D03*
X-402500Y-795000D03*
X-342500Y-695000D03*
X-455000Y205000D03*
X-387500Y262500D03*
X-330000Y307500D03*
X-725000Y470000D03*
Y520000D03*
Y570000D03*
X-675000D03*
X-725000Y620000D03*
X-675000D03*
X-725000Y670000D03*
X-675000D03*
X-725000Y720000D03*
X-675000D03*
X-407500Y510000D03*
X-357500D03*
X-307500D03*
X-257500D03*
X-407500Y560000D03*
X-357500D03*
X-307500D03*
X-257500D03*
X-407500Y610000D03*
X-357500D03*
X-307500D03*
X-257500D03*
X-407500Y660000D03*
X-357500D03*
X-307500D03*
X-257500D03*
Y710000D03*
X-590000Y497300D03*
X-515000Y1052500D03*
X-517500Y970000D03*
X-615000Y1085000D03*
Y1015000D03*
X-477500Y1317500D03*
X-150000Y-1730000D03*
X-65000Y-1727500D03*
X17500D03*
X-150000Y-1802700D03*
X-65000Y-1800200D03*
X20100Y-1800160D03*
X-127500Y-1600000D03*
X-54850Y-1602800D03*
X17850Y-1602490D03*
X-47700Y-1445000D03*
X-127500D03*
X25000D03*
X22850Y-1529960D03*
X-127500Y-1527300D03*
X-52120Y-1530150D03*
X40000Y-1255000D03*
X-42500Y-1265000D03*
X50000Y-1192500D03*
Y-1125000D03*
Y-1055000D03*
X160000Y-1050000D03*
X-127500Y-1325000D03*
X-40000D03*
X27500D03*
X147500Y-1115000D03*
X-100000Y-542500D03*
X-29630Y-879630D03*
X72500Y-825340D03*
X99710Y-547500D03*
X-10000Y-647500D03*
X210510Y-547500D03*
X-45000Y-282500D03*
X-97500Y-395000D03*
X-82500Y-30000D03*
X-242500Y312500D03*
X-170000Y187500D03*
X35000Y32500D03*
X91250Y273750D03*
X-27570Y272570D03*
X-197500Y892500D03*
X-207500Y510000D03*
Y560000D03*
X-157500D03*
X-207500Y610000D03*
X-157500D03*
X-207500Y660000D03*
X-157500D03*
X-207500Y710000D03*
X-157500D03*
X167500Y550000D03*
X217500D03*
X167500Y600000D03*
X217500D03*
X167500Y650000D03*
X217500D03*
X167500Y700000D03*
X217500D03*
X-47500Y510000D03*
X17500Y1050000D03*
X20000Y970000D03*
X75000Y1312500D03*
X440000Y-649070D03*
X367500Y-544670D03*
X415000Y-30000D03*
X550000Y-210000D03*
X417500Y47500D03*
X430000Y250000D03*
X647500Y880000D03*
X290000Y895000D03*
X267500Y550000D03*
X317500D03*
X367500D03*
X267500Y600000D03*
X317500D03*
X367500D03*
X267500Y650000D03*
X317500D03*
X367500D03*
X267500Y700000D03*
X317500D03*
X367500D03*
X627500Y1297500D03*
X482500Y1395000D03*
X520000Y1067500D03*
Y985000D03*
X1062500Y-952500D03*
X892500Y-815000D03*
X1030000Y195000D03*
X979170Y345000D03*
X855000Y825000D03*
X1140300Y878970D03*
X1050000Y597500D03*
X1140000Y530000D03*
X897500Y1092500D03*
X1175000Y345000D03*
X1417500Y192500D03*
X1370000Y345830D03*
X1540000Y462500D03*
X1595000Y597500D03*
X1265000Y517500D03*
X1412500Y527500D03*
X1362500Y795000D03*
X1232500Y817500D03*
X1657500Y187500D03*
G54D30*
X1152500Y-507500D03*
X982500D03*
X1152500Y-287500D03*
X982500D03*
G54D12*
X-780000Y-1297500D03*
Y-1200000D03*
X-680000Y-1297500D03*
X-480000D03*
X-380000D03*
X-680000Y-1200000D03*
X-380000D03*
X-480000D03*
X-402500Y-535000D03*
X-502500D03*
X-402500Y-160000D03*
X-502500D03*
X-402500Y-412500D03*
X-502500D03*
X-402500Y-35000D03*
X-502500D03*
X-402500Y-285000D03*
X-502500D03*
X-402500Y90000D03*
X-502500D03*
X105000Y-922500D03*
X205000D03*
X657500Y-872500D03*
X757500D03*
X1065000Y-760000D03*
X965000D03*
X1065000Y-852500D03*
X965000D03*
X1052500Y-650000D03*
X1152500D03*
X982500Y-147500D03*
X1082500D03*
X1075840Y242500D03*
X880000Y142500D03*
X980000D03*
X879170Y345000D03*
X979170D03*
X980840Y242500D03*
X880840D03*
X1075000Y142500D03*
X1074170Y345000D03*
X1050000Y597500D03*
X950000D03*
Y692500D03*
X1050000D03*
X897500Y1155000D03*
X797500D03*
Y1247500D03*
X897500D03*
X1437500Y-242500D03*
X1537500D03*
Y-155000D03*
X1437500D03*
X1175840Y242500D03*
X1565840D03*
X1465840D03*
X1270000Y142500D03*
X1370000D03*
X1464170Y345000D03*
X1564170D03*
X1269170D03*
X1369170D03*
X1565000Y142500D03*
X1465000D03*
X1270840Y242500D03*
X1370840D03*
X1175000Y142500D03*
X1174170Y345000D03*
X1512500Y597500D03*
X1412500D03*
Y692500D03*
X1512500D03*
G54D21*
X-675000Y-1666500D03*
X-485000D03*
X-580000Y-1433500D03*
G54D31*
G01X-380000Y-1817500D02*
Y-1812500D01*
X-433800Y-1758700D01*
X-713910D01*
X-727200Y-1745410D01*
Y-1602800D01*
X-877500Y-1452500D01*
Y-1097500D01*
G01X-1010000Y-1020000D02*
Y-1072700D01*
X-922700Y-1160000D01*
Y-1474800D01*
X-787500Y-1610000D01*
Y-1779990D01*
X-749990Y-1817500D01*
X-652500D01*
G01X-1010000Y-920000D02*
X-955000D01*
X-926060Y-948940D01*
Y-951440D01*
X-880000Y-997500D01*
X-877500D01*
G01X-640000Y-1112500D02*
X-672300Y-1144800D01*
X-719410D01*
X-774610Y-1200000D01*
X-780000D01*
G01D02*
Y-1297500D01*
G01D02*
Y-1362500D01*
X-675000Y-1467500D01*
Y-1545000D01*
G01X-1010000Y-920000D02*
X-1012500D01*
X-1157500Y-775000D01*
Y-632500D01*
X-1115200Y-590200D01*
X-297700D01*
X-260340Y-552840D01*
Y-500450D01*
X-232430Y-472540D01*
X-197000D01*
G01X-845210Y-895000D02*
X-885350D01*
X-918080Y-862270D01*
Y-822130D01*
X-940210Y-800000D01*
X-1012500D01*
G01X-845210Y-765000D02*
X-764840D01*
X-752340Y-777500D01*
X-707480D01*
X-652660Y-832320D01*
Y-948270D01*
X-600000Y-1000930D01*
X-579000D01*
X-522430Y-1057500D01*
X-520000D01*
G01X-845210Y-830000D02*
X-764840D01*
X-752340Y-817500D01*
X-724050D01*
X-692660Y-848890D01*
Y-964840D01*
X-640000Y-1017500D01*
Y-1057500D01*
G01X-925000Y955000D02*
X-940000D01*
X-976060Y918940D01*
Y903940D01*
X-1005000Y875000D01*
X-1065000D01*
G01X880000Y-1342500D02*
X792700Y-1429800D01*
Y-1836910D01*
X759610Y-1870000D01*
X-500000D01*
X-547500Y-1822500D01*
Y-1817500D01*
G01X-675000Y-1666500D02*
Y-1545000D01*
G01X-485000Y-1666500D02*
Y-1545000D01*
G01X-380000Y-1297500D02*
Y-1357500D01*
X-485000Y-1462500D01*
Y-1545000D01*
G01X-572500Y-1277500D02*
X-580000Y-1285000D01*
Y-1300000D01*
G01Y-1433500D02*
Y-1300000D01*
G01X-480000Y-1297500D02*
X-482500Y-1300000D01*
X-580000D01*
G01D02*
X-582500Y-1297500D01*
X-680000D01*
G01X-380000D02*
Y-1200000D01*
G01X-520000Y-1112500D02*
X-487700Y-1144800D01*
X-440590D01*
X-385390Y-1200000D01*
X-380000D01*
G01X-480000D02*
X-580000D01*
G01D02*
X-680000D01*
G01X-405000Y-795000D02*
X-460200D01*
X-495200Y-830000D01*
X-579790D01*
G01X-197000Y-622580D02*
X-283830D01*
X-284150Y-622900D01*
X-427510D01*
X-504610Y-700000D01*
X-579790D01*
G01Y-895000D02*
X-506920D01*
X-459620Y-847700D01*
X-317690D01*
X-285000Y-815010D01*
Y-697250D01*
X-260340Y-672590D01*
X-197000D01*
G01X-520000Y1250000D02*
Y1275000D01*
X-477500Y1317500D01*
G01X-197000Y-522560D02*
X-154600D01*
X-97500Y-465460D01*
Y-395000D01*
G01X-197000Y-572570D02*
X-130070D01*
X-100000Y-542500D01*
G01X-127590Y-742000D02*
Y-853040D01*
X-109570Y-871060D01*
X-38200D01*
X-29630Y-879630D01*
G01X-77580Y-742000D02*
Y-805340D01*
X-57580Y-825340D01*
X72500D01*
G01X72460Y-742000D02*
Y-639300D01*
X99710Y-612050D01*
Y-547500D01*
G01X172480Y-742000D02*
Y-672520D01*
X263060Y-581940D01*
X330230D01*
X367500Y-544670D01*
G01X22440Y-742000D02*
Y-679940D01*
X-10000Y-647500D01*
G01X122470Y-742000D02*
Y-635540D01*
X210510Y-547500D01*
G01X72460Y147000D02*
Y69960D01*
X35000Y32500D01*
G01X17500Y1250000D02*
Y1255000D01*
X75000Y1312500D01*
G01X222490Y-742000D02*
Y-678660D01*
X252080Y-649070D01*
X440000D01*
G01X572580Y-742000D02*
Y-840280D01*
X604800Y-872500D01*
X657500D01*
G01D02*
X640000Y-855000D01*
G01X622590Y-742000D02*
Y-792590D01*
X640000Y-810000D01*
G01Y-855000D02*
Y-810000D01*
G01X1325000Y595000D02*
Y497500D01*
X1265000Y437500D01*
X844990D01*
X642490Y235000D01*
X547230D01*
X522570Y210340D01*
Y147000D01*
G01X472560D02*
Y212560D01*
X529800Y269800D01*
X624800D01*
X827500Y472500D01*
X1160000D01*
X1235000Y547500D01*
G01X422540Y147000D02*
X422500Y147040D01*
Y242500D01*
X430000Y250000D01*
G01X372530Y147000D02*
Y267070D01*
X415260Y309800D01*
X618550D01*
X838750Y530000D01*
X1140000D01*
G01X855000Y595000D02*
X852500D01*
X600000Y342500D01*
X360200D01*
X322520Y304820D01*
Y147000D01*
G01X752500Y597500D02*
Y544800D01*
X585200Y377500D01*
X315000D01*
X272510Y335010D01*
Y147000D01*
G01X647500Y597500D02*
Y537500D01*
X522500Y412500D01*
X270000D01*
X222490Y364990D01*
Y147000D01*
G01X647500Y880000D02*
Y697500D01*
G01X752500D02*
X698560Y643560D01*
X696060D01*
X650000Y597500D01*
X647500D01*
G01X565000Y1250000D02*
X580000D01*
X627500Y1297500D01*
G01X880000Y-967500D02*
X830520Y-918020D01*
Y-892820D01*
X810200Y-872500D01*
G01D02*
X757500D01*
G01X965000Y-852500D02*
Y-760000D01*
G01X692000Y-622580D02*
X830080D01*
X965000Y-757500D01*
Y-760000D01*
G01D02*
X947500D01*
X892500Y-815000D01*
G01X692000Y-672590D02*
X825090D01*
X877500Y-725000D01*
Y-817700D01*
X912300Y-852500D01*
X965000D01*
G01D02*
X927500Y-815000D01*
X892500D01*
G01X1152500Y-507500D02*
Y-497500D01*
X1069800Y-414800D01*
X890210D01*
X882480Y-422530D01*
X692000D01*
G01X982500Y-147500D02*
Y-287500D01*
G01D02*
Y-297500D01*
X907480Y-372520D01*
X692000D01*
G01X880000Y142500D02*
Y52220D01*
X755340Y-72440D01*
X692000D01*
G01Y-172470D02*
X755340D01*
X982410Y54600D01*
X1184600D01*
X1270000Y140000D01*
Y142500D01*
G01X1332500Y2500D02*
X1254800D01*
X1241500Y-10800D01*
X1017030D01*
X755340Y-272490D01*
X692000D01*
G01X1565000Y142500D02*
Y140000D01*
X1512300Y87300D01*
X1280190D01*
X1214790Y21900D01*
X999720D01*
X755340Y-222480D01*
X692000D01*
G01X1175000Y142500D02*
Y140000D01*
X1122300Y87300D01*
X965100D01*
X755340Y-122460D01*
X692000D01*
G01X880000Y142500D02*
Y241660D01*
X880840Y242500D01*
G01D02*
X879170Y244170D01*
Y345000D01*
G01X1074170D02*
Y342500D01*
X1120230Y296440D01*
X1121900D01*
X1127280Y291060D01*
X1129780D01*
X1175840Y245000D01*
Y242500D01*
G01X855000Y825000D02*
Y695000D01*
G01X950000Y692500D02*
Y597500D01*
G01D02*
X947500Y595000D01*
X855000D01*
G01X897500Y1155000D02*
Y1247500D01*
G01Y1155000D02*
Y1092500D01*
G01X747500Y1395000D02*
X825200D01*
X897500Y1322700D01*
Y1247500D01*
G01X1152500Y-650000D02*
Y-507500D01*
G01X1437500Y-242500D02*
Y-155000D01*
G01D02*
Y-97500D01*
X1337500Y2500D01*
X1332500D01*
G01X1370000Y345830D02*
X1369170Y345000D01*
G01X1564170D02*
Y438330D01*
X1540000Y462500D01*
G01X1502500Y2500D02*
X1507500D01*
X1573560Y68560D01*
X1585670D01*
X1657500Y140390D01*
Y187500D01*
G01X1269170Y345000D02*
Y244170D01*
X1270840Y242500D01*
G01D02*
Y143340D01*
X1270000Y142500D01*
G01X1464170Y345000D02*
Y342500D01*
X1510230Y296440D01*
X1511900D01*
X1517280Y291060D01*
X1519780D01*
X1565840Y245000D01*
Y242500D01*
G01D02*
Y143340D01*
X1565000Y142500D01*
G01X1175840Y242500D02*
Y143340D01*
X1175000Y142500D01*
G01X1140000Y695000D02*
Y825970D01*
X1140300Y826270D01*
Y878970D01*
G01X1595000Y597500D02*
X1512500D01*
G01X1412500Y692500D02*
Y597500D01*
G01X1265000Y517500D02*
X1235000Y547500D01*
G01X1412500Y597500D02*
Y527500D01*
G01X1232500Y595000D02*
X1235000Y592500D01*
Y547500D01*
G01X1140000Y595000D02*
Y530000D01*
G01X1325000Y695000D02*
Y757500D01*
X1362500Y795000D01*
G01X1232500Y817500D02*
Y695000D01*
G54D13*
X-1010000Y-1020000D03*
X-877500Y-1097500D03*
Y-997500D03*
X-1012500Y-800000D03*
Y-700000D03*
X-1010000Y-920000D03*
X-1065000Y875000D03*
Y775000D03*
X-580000Y-1300000D03*
Y-1200000D03*
X-405000Y-795000D03*
Y-695000D03*
X-525000Y875000D03*
Y775000D03*
X-590000Y570000D03*
Y670000D03*
X-520000Y1250000D03*
Y1150000D03*
X25000Y875000D03*
Y775000D03*
X-47500Y570000D03*
Y670000D03*
X17500Y1250000D03*
Y1150000D03*
X492500Y570000D03*
Y670000D03*
X647500Y597500D03*
Y697500D03*
X565000Y1250000D03*
Y1150000D03*
X752500Y597500D03*
Y697500D03*
X1140000Y595000D03*
Y695000D03*
X855000Y595000D03*
Y695000D03*
X1325000Y595000D03*
Y695000D03*
X1232500Y595000D03*
Y695000D03*
G54D22*
X-640000Y-1112500D03*
Y-1057500D03*
X-520000D03*
Y-1112500D03*
G54D32*
G01X-1012500Y-700000D02*
X-845210D01*
G01D02*
X-722660D01*
X-657660Y-765000D01*
X-579790D01*
G01X-1065000Y775000D02*
Y488890D01*
X-981670Y405560D01*
X-885990D01*
X-785000Y304570D01*
Y-250000D01*
X-502500Y-532500D01*
Y-535000D01*
G01X-857500Y793320D02*
X-891020Y759800D01*
X-978520D01*
X-1010410Y727910D01*
Y494690D01*
X-963980Y448260D01*
X-835760D01*
X-742300Y354800D01*
Y-170200D01*
X-502500Y-410000D01*
Y-412500D01*
G01X-857500Y822500D02*
Y793320D01*
G01Y925000D02*
Y822500D01*
G01X-922500D02*
X-1015820D01*
X-1063320Y775000D01*
X-1065000D01*
G01X-925000Y955000D02*
X-887500D01*
X-857500Y925000D01*
G01X-197000Y-422530D02*
X-250000D01*
X-298040Y-470570D01*
Y-503040D01*
X-330000Y-535000D01*
X-402500D01*
G01X-342500Y-695000D02*
X-405000D01*
G01X-579790Y-765000D02*
X-483520D01*
X-463110Y-744590D01*
X-457090D01*
X-407500Y-695000D01*
X-405000D01*
G01X-402500Y-285000D02*
X-344800D01*
X-332290Y-272490D01*
X-197000D01*
G01X-402500Y-412500D02*
Y-410000D01*
X-315010Y-322510D01*
X-197000D01*
G01X-502500Y-412500D02*
Y-415000D01*
X-444800Y-472700D01*
X-361020D01*
X-260840Y-372520D01*
X-197000D01*
G01X-320000Y822500D02*
Y772500D01*
X-337500Y755000D01*
X-443320D01*
X-482300Y716020D01*
Y460200D01*
X-647500Y295000D01*
Y-77110D01*
X-564610Y-160000D01*
X-502500D01*
G01D02*
Y-162500D01*
X-442520Y-222480D01*
X-197000D01*
G01X-502500Y-35000D02*
Y-32500D01*
X-565000Y30000D01*
Y247890D01*
X-372890Y440000D01*
X-12710D01*
X25000Y477710D01*
Y775000D01*
G01X-502500Y-285000D02*
Y-282500D01*
X-690200Y-94800D01*
Y312690D01*
X-525000Y477890D01*
Y775000D01*
G01X-402500Y-35000D02*
X-352800D01*
X-265340Y-122460D01*
X-197000D01*
G01X-402500Y-160000D02*
X-288190D01*
X-275720Y-172470D01*
X-197000D01*
G01Y-72440D02*
X-249890D01*
X-352130Y29800D01*
X-444800D01*
X-502500Y87500D01*
Y90000D01*
G01D02*
Y150200D01*
X-520000Y167700D01*
Y232500D01*
X-357500Y395000D01*
X22500D01*
X77500Y450000D01*
Y718640D01*
X123660Y764800D01*
X191480D01*
X225000Y798320D01*
G01X-402500Y90000D02*
X-351940D01*
X-239510Y-22430D01*
X-197000D01*
G01X-320000Y822500D02*
Y884180D01*
G01Y897300D02*
Y925000D01*
G01X-387500Y955000D02*
Y914180D01*
X-426680Y875000D01*
X-525000D01*
G01X-615000Y1150000D02*
X-644180D01*
X-677700Y1116480D01*
Y910200D01*
X-590000Y822500D01*
Y670000D01*
G01Y497300D02*
Y570000D01*
G01X-385000Y822500D02*
X-475820D01*
X-523320Y775000D01*
X-525000D01*
G01X-320000Y925000D02*
X-350000Y955000D01*
X-387500D01*
G01X-520000Y1150000D02*
X-615000D01*
G01X115000Y-30000D02*
X415000D01*
G01X115000D02*
X-82500D01*
G01X172480Y147000D02*
Y78660D01*
X203640Y47500D01*
X417500D01*
G01X122470Y147000D02*
Y-22530D01*
X115000Y-30000D01*
G01X22440Y147000D02*
Y204940D01*
X91250Y273750D01*
G01X-27570Y147000D02*
Y272570D01*
G01X492500Y570000D02*
Y487500D01*
X458260Y453260D01*
X148260D01*
X45000Y350000D01*
X-85200D01*
X-115200Y320000D01*
Y262700D01*
X-77580Y225080D01*
Y147000D01*
G01X155000Y955000D02*
X117500Y917500D01*
Y905000D01*
X87500Y875000D01*
X25000D01*
G01X160000Y827500D02*
X80000D01*
X27500Y775000D01*
X25000D01*
G01X-47500Y510000D02*
Y570000D01*
G01X-77500Y1150000D02*
X-106680D01*
X-140200Y1116480D01*
Y923520D01*
X-99590Y882910D01*
Y719590D01*
X-50000Y670000D01*
X-47500D01*
G01X155000Y955000D02*
X197500D01*
X257500Y895000D01*
G01X17500Y1150000D02*
X-77500D01*
G01X550000Y-210000D02*
X585000Y-245000D01*
G01X465000Y1150000D02*
X435820D01*
X402300Y1116480D01*
Y923520D01*
X492500Y833320D01*
Y670000D01*
G01X225000Y798320D02*
Y827500D01*
G01X257500Y895000D02*
X290000D01*
G01X565000Y1150000D02*
X465000D01*
G01X577500Y1395000D02*
X482500D01*
G54D23*
X140000Y-1594990D03*
Y-1345010D03*
G54D14*
X-845210Y-895000D03*
Y-830000D03*
Y-765000D03*
Y-700000D03*
X-579790D03*
Y-765000D03*
Y-830000D03*
Y-895000D03*
G54D24*
X172480Y-742000D03*
X122470D03*
X72460D03*
X22440D03*
X-27570D03*
X-77580D03*
X-127590D03*
Y147000D03*
X-77580D03*
X-27570D03*
X22440D03*
X72460D03*
X122470D03*
X172480D03*
X622590Y-742000D03*
X572580D03*
X522570D03*
X472560D03*
X422540D03*
X372530D03*
X322520D03*
X272510D03*
X222490D03*
Y147000D03*
X272510D03*
X322520D03*
X372530D03*
X422540D03*
X472560D03*
X522570D03*
X572580D03*
X622590D03*
G54D15*
X-825000Y601460D03*
X-287500D03*
X257500Y606460D03*
G54D25*
X-197000Y-672590D03*
Y-622580D03*
Y-572570D03*
Y-522560D03*
Y-472540D03*
Y-422530D03*
Y-372520D03*
Y-322510D03*
Y-272490D03*
Y-222480D03*
Y-172470D03*
Y-122460D03*
Y-72440D03*
Y-22430D03*
Y27580D03*
Y77590D03*
X692000Y-522560D03*
Y-572570D03*
Y-622580D03*
Y-672590D03*
Y-72440D03*
Y-122460D03*
Y-172470D03*
Y-222480D03*
Y-272490D03*
Y-322510D03*
Y-372520D03*
Y-422530D03*
Y-472540D03*
Y77590D03*
Y27580D03*
Y-22430D03*
G54D16*
X-792500Y512500D03*
X-857500D03*
X-922500D03*
Y822500D03*
X-857500D03*
X-792500D03*
X-727500Y512500D03*
Y822500D03*
X-320000Y512500D03*
X-385000D03*
Y822500D03*
X-320000D03*
X160000Y517500D03*
Y827500D03*
X-190000Y512500D03*
X-255000D03*
Y822500D03*
X-190000D03*
X355000Y517500D03*
X290000D03*
X225000D03*
Y827500D03*
X290000D03*
X355000D03*
G54D26*
X247500Y-297500D03*
G54D17*
X-836040Y1052500D03*
X-298540D03*
X243960D03*
G54D27*
X402500Y-1130000D03*
X682500D03*
G54D18*
X-925000Y955000D03*
Y1020000D03*
Y1085000D03*
Y1150000D03*
X-387500Y955000D03*
Y1020000D03*
Y1085000D03*
Y1150000D03*
X-615000D03*
Y1085000D03*
Y1020000D03*
Y955000D03*
X155000D03*
Y1020000D03*
Y1085000D03*
Y1150000D03*
X-77500D03*
Y1085000D03*
Y1020000D03*
Y955000D03*
X465000Y1150000D03*
Y1085000D03*
Y1020000D03*
Y955000D03*
G54D19*
X-802500Y1377500D03*
X-277500D03*
X247500D03*
G54D28*
X577500Y1395000D03*
X747500D03*
X1332500Y2500D03*
X1502500D03*
G54D29*
X880000Y-967500D03*
Y-1092500D03*
Y-1217500D03*
Y-1342500D03*
M02*
