G04 ================== begin FILE IDENTIFICATION RECORD ==================*
G04 Layout Name:  D:/PROJECT/07_FOC/FOC/CIRCUIT/CANDENCE/STM32/stspin32g4_foc.brd*
G04 Film Name:    top*
G04 File Format:  Gerber RS274X*
G04 File Origin:  Cadence Allegro 17.4-S039*
G04 Origin Date:  Thu Nov 13 09:35:22 2025*
G04 *
G04 Layer:  VIA CLASS/TOP*
G04 Layer:  PIN/TOP*
G04 Layer:  ETCH/TOP*
G04 *
G04 Offset:    (0.0000 0.0000)*
G04 Mirror:    No*
G04 Mode:      Positive*
G04 Rotation:  0*
G04 FullContactRelief:  No*
G04 UndefLineWidth:     0.1524*
G04 ================== end FILE IDENTIFICATION RECORD ====================*
%FSLAX25Y25*MOIN*%
%IR0*IPPOS*OFA0.00000B0.00000*MIA0B0*SFA1.00000B1.00000*%
%ADD11C,.023622*%
%ADD21R,.0395X.018*%
%ADD18R,.023228X.054724*%
%ADD30R,.043307X.03937*%
%ADD20R,.019685X.011811*%
%ADD17R,.015748X.019685*%
%ADD16R,.027559X.015748*%
%ADD26R,.062992X.106299*%
%ADD14R,.015748X.027559*%
%ADD10R,.062992X.070866*%
%ADD13R,.100394X.098819*%
%ADD15R,.098819X.100394*%
%ADD28C,.04*%
%ADD12R,.025591X.023622*%
%ADD19R,.023622X.025591*%
%ADD22R,.059055X.059055*%
%ADD29R,.04724X.055118*%
%ADD24R,.032X.01*%
%ADD23R,.01X.032*%
%ADD27R,.161X.161*%
%ADD25R,.032X.039*%
%ADD31C,.007874*%
%ADD32C,.011811*%
%ADD33C,.070898*%
G75*
%LPD*%
G75*
G36*
G01X-63087Y29134D02*
X-55791D01*
G02X-55650Y29075I0J-200D01*
G01X-55193Y28619D01*
G02X-55135Y28477I-141J-142D01*
G01Y20633D01*
G03X-55076Y20491I200J0D01*
G01X-55050Y20465D01*
X-55020Y20392D01*
Y20358D01*
G03X-54961Y20217I200J0D01*
G01X-51043Y16299D01*
G02X-50984Y16157I-141J-142D01*
G01Y-21866D01*
G02X-51043Y-22007I-200J0D01*
G01X-52402Y-23367D01*
G02X-52543Y-23425I-142J141D01*
G01X-60843D01*
G02X-60984Y-23367I0J200D01*
G01X-63229Y-21122D01*
G02X-63287Y-20980I141J142D01*
G01Y28934D01*
G02X-63087Y29134I200J0D01*
G37*
G36*
G01X-44602Y-26280D02*
X-41843D01*
G02X-41643Y-26480I0J-200D01*
G01Y-28740D01*
G03X-41142Y-29241I501J0D01*
G01X-38583D01*
G03X-38088Y-28819I0J501D01*
G01X-38076Y-28746D01*
X-37965Y-28650D01*
X-36136D01*
G02X-35982Y-28723I0J-200D01*
G01X-35757Y-28994D01*
X-35735Y-29081D01*
X-35743Y-29125D01*
G03X-35752Y-29218I492J-95D01*
G01Y-33577D01*
G03X-35251Y-34078I501J0D01*
G01X-31301D01*
G03X-30820Y-33716I0J501D01*
G01X-30801Y-33652D01*
X-30694Y-33572D01*
X-30112D01*
G03X-29479Y-33310I0J895D01*
G01X-29308Y-33138D01*
G02X-29166Y-33080I142J-141D01*
G01X-28959D01*
G02X-28818Y-33138I0J-200D01*
G01X-28223Y-33733D01*
G02X-28165Y-33874I-141J-142D01*
G01Y-37986D01*
G03X-27903Y-38619I895J0D01*
G01X-26463Y-40058D01*
G02X-26404Y-40211I-141J-141D01*
G01X-26423Y-40551D01*
X-26461Y-40626D01*
X-26495Y-40653D01*
G03X-26682Y-41043I313J-390D01*
G01Y-42224D01*
G03X-26579Y-42529I501J0D01*
G02X-26538Y-42650I-159J-121D01*
G01Y-42783D01*
G02X-26579Y-42904I-200J0D01*
G03X-26682Y-43209I397J-304D01*
G01Y-43936D01*
G02X-26741Y-44078I-200J0D01*
G01X-26780Y-44118D01*
G02X-26922Y-44176I-142J141D01*
G01X-28323D01*
G03X-28956Y-44438I0J-895D01*
G01X-29922Y-45405D01*
G02X-30064Y-45464I-142J141D01*
G01X-31890D01*
G03X-32359Y-45791I0J-501D01*
G01X-32377Y-45839D01*
X-32454Y-45906D01*
X-32833Y-45989D01*
G02X-33017Y-45935I-43J195D01*
G01X-33594Y-45358D01*
G02X-33653Y-45216I141J142D01*
G01Y-45091D01*
G02X-33453Y-44891I200J0D01*
G01X-33268D01*
G03X-32767Y-44390I0J501D01*
G01Y-42028D01*
G03X-33268Y-41527I-501J0D01*
G01X-35827D01*
G03X-36217Y-41714I0J-500D01*
G01X-36244Y-41747D01*
X-36319Y-41786D01*
X-36659Y-41804D01*
G02X-36812Y-41746I-11J200D01*
G01X-37925Y-40633D01*
G02X-37983Y-40491I141J142D01*
G01Y-39748D01*
G02X-37860Y-39563I200J0D01*
G01X-37804Y-39540D01*
X-37685Y-39564D01*
X-37345Y-39904D01*
G03X-36713Y-40166I632J633D01*
G01X-36528D01*
G02X-36328Y-40366I0J-200D01*
G01Y-40453D01*
G03X-35827Y-40954I501J0D01*
G01X-33268D01*
G03X-32767Y-40453I0J501D01*
G01Y-38091D01*
G03X-33268Y-37590I-501J0D01*
G01X-35827D01*
G03X-36241Y-37808I0J-501D01*
G01X-36266Y-37845D01*
X-36343Y-37891D01*
X-36694Y-37923D01*
G02X-36854Y-37866I-19J199D01*
G01X-37023Y-37696D01*
X-37038Y-37663D01*
G03X-37219Y-37401I-815J-370D01*
G01X-37925Y-36696D01*
G02X-37983Y-36554I141J142D01*
G01Y-35039D01*
G03X-38484Y-34539I-501J0D01*
G01X-41043D01*
G03X-41544Y-35039I0J-501D01*
G01Y-35126D01*
G02X-41744Y-35326I-200J0D01*
G01X-42263D01*
G02X-42405Y-35267I0J200D01*
G01X-45307Y-32365D01*
G02X-45365Y-32224I141J142D01*
G01Y-27043D01*
G02X-45307Y-26901I200J0D01*
G01X-44744Y-26338D01*
G02X-44602Y-26280I142J-141D01*
G37*
G36*
G01X-51787Y30020D02*
X-44965D01*
G02X-44823Y29961I0J-200D01*
G01X-43079Y28217D01*
G02X-43020Y28076I-141J-142D01*
G01Y19248D01*
G03X-42701Y18476I1091J0D01*
G01X-39724Y15499D01*
G02X-39665Y15357I-141J-142D01*
G01Y378D01*
G03X-39607Y237I200J0D01*
G01X-34507Y-4863D01*
G02X-34449Y-5004I-141J-142D01*
G01Y-10547D01*
G03X-34390Y-10689I200J0D01*
G01X-31948Y-13130D01*
G03X-31807Y-13189I142J141D01*
G01X-30890D01*
G02X-30748Y-13248I0J-200D01*
G01X-27815Y-16181D01*
G02X-27756Y-16323I-141J-142D01*
G01Y-21650D01*
G02X-27956Y-21850I-200J0D01*
G01X-48343D01*
G02X-48484Y-21792I0J200D01*
G01X-49843Y-20433D01*
G02X-49902Y-20291I141J142D01*
G01Y17556D01*
G03X-49937Y17669I-200J0D01*
G01X-51122Y19401D01*
G03X-51287Y19488I-165J-113D01*
G01X-52575D01*
G02X-52716Y19547I0J200D01*
G01X-54075Y20906D01*
G02X-54134Y21047I141J142D01*
G01Y27673D01*
G02X-54075Y27815I200J0D01*
G01X-51929Y29961D01*
G02X-51787Y30020I142J-141D01*
G37*
G36*
G01X-33347D02*
X-24520D01*
G02X-24320Y29820I0J-200D01*
G01Y28342D01*
G02X-24377Y28201I-200J0D01*
G01X-24465Y28113D01*
G02X-24579Y28055I-143J140D01*
G03X-25009Y27559I71J-496D01*
G01Y25197D01*
G03X-24508Y24696I501J0D01*
G01X-21961D01*
G02X-21761Y24496I0J-200D01*
G01Y24323D01*
G02X-21961Y24123I-200J0D01*
G01X-24508D01*
G03X-25009Y23622I0J-501D01*
G01Y20902D01*
G02X-25043Y20791I-200J0D01*
G03X-25410Y19579I1814J-1212D01*
G03X-25389Y19279I2182J1D01*
G01X-25383Y19235D01*
X-25408Y19153D01*
X-25634Y18893D01*
G02X-25785Y18824I-151J132D01*
G01X-37481Y18804D01*
G02X-37623Y18863I0J200D01*
G01X-38630Y19869D01*
G02X-38689Y20011I141J142D01*
G01Y28123D01*
G02X-38630Y28265I200J0D01*
G01X-38131Y28763D01*
G02X-37989Y28822I142J-141D01*
G01X-35080D01*
G03X-34308Y29142I0J1091D01*
G01X-33489Y29961D01*
G02X-33347Y30020I142J-141D01*
G37*
G36*
G01X-17216Y-48524D02*
Y-46949D01*
G02X-17092Y-46764I200J0D01*
G01X-17036Y-46741D01*
X-16918Y-46764D01*
X-16701Y-46981D01*
G02X-16643Y-47122I-141J-142D01*
G01Y-48524D01*
G03X-16494Y-48879I501J0D01*
G02X-16435Y-49021I-141J-142D01*
G01Y-49306D01*
G02X-16494Y-49448I-200J0D01*
G03X-16643Y-49803I352J-356D01*
G01Y-52362D01*
G03X-16354Y-52816I501J0D01*
G01X-16310Y-52837D01*
X-16251Y-52914D01*
X-16186Y-53285D01*
G02X-16241Y-53461I-197J-35D01*
G01X-19727Y-56946D01*
G03X-19989Y-57579I633J-632D01*
G01Y-58711D01*
G02X-20097Y-58889I-200J0D01*
G03X-21276Y-60827I1003J-1938D01*
G03X-20724Y-62277I2182J0D01*
G02X-20674Y-62397I-150J-133D01*
G01X-20667Y-62516D01*
G02X-20692Y-62628I-200J-14D01*
G03X-20757Y-62874I436J-247D01*
G01Y-68146D01*
G02X-20957Y-68346I-200J0D01*
G01X-24713D01*
G02X-24913Y-68146I0J200D01*
G01Y-62874D01*
G03X-24978Y-62628I-501J0D01*
G02X-25003Y-62516I174J98D01*
G01X-24995Y-62397D01*
G02X-24945Y-62277I200J-13D01*
G03X-24393Y-60827I-1630J1450D01*
G03X-25572Y-58889I-2182J0D01*
G02X-25680Y-58711I92J178D01*
G01Y-57776D01*
G03X-25942Y-57143I-895J0D01*
G01X-29756Y-53330D01*
G02X-29814Y-53188I141J142D01*
G01Y-53063D01*
G02X-29614Y-52863I200J0D01*
G01X-29528D01*
G03X-29027Y-52362I0J501D01*
G01Y-49803D01*
G03X-29175Y-49448I-501J0D01*
G02X-29234Y-49306I141J142D01*
G01Y-49021D01*
G02X-29175Y-48879I200J0D01*
G03X-29027Y-48524I-352J356D01*
G01Y-47122D01*
G02X-28968Y-46981I200J0D01*
G01X-28795Y-46807D01*
G02X-28577Y-46764I142J-141D01*
G01X-28521Y-46787D01*
X-28454Y-46888D01*
Y-48524D01*
G03X-27953Y-49024I501J0D01*
G01X-25591D01*
G03X-25090Y-48524I0J501D01*
G01Y-48339D01*
G02X-24890Y-48139I200J0D01*
G01X-24815D01*
G02X-24615Y-48339I0J-200D01*
G01Y-48425D01*
G03X-24114Y-48926I501J0D01*
G01X-21555D01*
G03X-21054Y-48425I0J501D01*
G01Y-48339D01*
G02X-20854Y-48139I200J0D01*
G01X-20780D01*
G02X-20580Y-48339I0J-200D01*
G01Y-48524D01*
G03X-20079Y-49024I501J0D01*
G01X-17717D01*
G03X-17216Y-48524I0J501D01*
G37*
G36*
G01X-9796Y-27374D02*
X-9699D01*
X-9645Y-27390D01*
X-9621Y-27405D01*
G03X-9356Y-27481I265J425D01*
G01X-6224D01*
G02X-6024Y-27681I0J-200D01*
G01Y-30813D01*
G03X-5948Y-31078I501J0D01*
G01X-5933Y-31102D01*
X-5918Y-31156D01*
Y-33584D01*
G03X-5656Y-34217I895J0D01*
G01X-4946Y-34926D01*
G03X-4314Y-35188I632J633D01*
G01X-3360D01*
X-3256Y-35263D01*
X-3235Y-35325D01*
G03X-1167Y-36813I2069J694D01*
G03X1015Y-34636I0J2182D01*
G01Y-34581D01*
X1072Y-34487D01*
X1482Y-34269D01*
X1592Y-34274D01*
X1638Y-34305D01*
G03X2854Y-34676I1216J1811D01*
G03X5036Y-32494I0J2182D01*
G03X4934Y-31834I-2182J0D01*
G01X4920Y-31789D01*
X4935Y-31694D01*
X5154Y-31395D01*
G02X5315Y-31313I161J-118D01*
G01X7734D01*
G02X7919Y-31437I0J-200D01*
G01X7942Y-31493D01*
X7918Y-31611D01*
X5357Y-34172D01*
G03X5298Y-34314I141J-142D01*
G01Y-37003D01*
G02X5240Y-37144I-200J0D01*
G01X4861Y-37523D01*
G02X4719Y-37582I-142J141D01*
G01X1637D01*
G03X1495Y-37641I0J-200D01*
G01X-844Y-39980D01*
G03X-902Y-40121I141J-142D01*
G01Y-45467D01*
G02X-961Y-45609I-200J0D01*
G01X-5340Y-49987D01*
X-5393Y-50015D01*
X-5423Y-50021D01*
G03X-7164Y-51762I403J-2144D01*
G01X-7170Y-51792D01*
X-7198Y-51845D01*
X-7241Y-51889D01*
G03X-7300Y-52030I141J-142D01*
G01Y-65269D01*
G03X-7100Y-65469I200J0D01*
G01X3065D01*
G03X3265Y-65269I0J200D01*
G01Y-55769D01*
G02X3344Y-55610I200J0D01*
G01X3637Y-55389D01*
X3729Y-55372D01*
X3774Y-55385D01*
G03X3912Y-55404I138J481D01*
G01X4989D01*
G02X5130Y-55463I0J-200D01*
G01X5432Y-55765D01*
G03X5574Y-55824I142J141D01*
G01X7419D01*
G03X7560Y-55765I0J200D01*
G01X9608Y-53717D01*
G02X9749Y-53658I142J-141D01*
G01X16556D01*
X16573Y-53642D01*
X22520D01*
G02X22720Y-53842I0J-200D01*
G01Y-71985D01*
G03X22778Y-72127I200J0D01*
G01X23038Y-72386D01*
G02X23081Y-72604I-142J-141D01*
G01X23058Y-72660D01*
X22957Y-72728D01*
X-13472D01*
G02X-13672Y-72528I0J200D01*
G01Y-70571D01*
G03X-14173Y-70070I-501J0D01*
G01X-14901D01*
G02X-15043Y-70011I0J200D01*
G01X-16446Y-68607D01*
G03X-17079Y-68346I-632J-633D01*
G01X-17232D01*
G02X-17432Y-68146I0J200D01*
G01Y-62874D01*
G03X-17497Y-62628I-501J0D01*
G02X-17522Y-62516I174J98D01*
G01X-17515Y-62397D01*
G02X-17465Y-62277I200J-13D01*
G03X-16913Y-60827I-1630J1450D01*
G03X-18092Y-58889I-2182J0D01*
G02X-18200Y-58711I92J178D01*
G01Y-58032D01*
G02X-18141Y-57891I200J0D01*
G01X-14328Y-54078D01*
G03X-14066Y-53445I-633J632D01*
G01Y-53063D01*
G02X-13866Y-52863I200J0D01*
G01X-13780D01*
G03X-13279Y-52362I0J501D01*
G01Y-49803D01*
G03X-13427Y-49448I-501J0D01*
G02X-13486Y-49306I141J142D01*
G01Y-49021D01*
G02X-13427Y-48879I200J0D01*
G03X-13279Y-48524I-352J356D01*
G01Y-45965D01*
G03X-13780Y-45464I-501J0D01*
G01X-15605D01*
G02X-15747Y-45405I0J200D01*
G01X-16713Y-44438D01*
G03X-17346Y-44176I-632J-633D01*
G01X-18747D01*
G02X-18889Y-44118I0J200D01*
G01X-18929Y-44078D01*
G02X-18987Y-43936I141J142D01*
G01Y-43209D01*
G03X-19091Y-42904I-501J0D01*
G02X-19131Y-42783I159J121D01*
G01Y-42650D01*
G02X-19091Y-42529I200J0D01*
G03X-18987Y-42224I-397J304D01*
G01Y-41043D01*
G03X-19488Y-40543I-501J0D01*
G01X-20311D01*
G02X-20453Y-40484I0J200D01*
G01X-22163Y-38774D01*
G03X-22795Y-38512I-632J-633D01*
G01X-23169D01*
G02X-23310Y-38454I0J200D01*
G01X-24742Y-37022D01*
G02X-24801Y-36880I141J142D01*
G01Y-36837D01*
G02X-24601Y-36637I200J0D01*
G01X-20851D01*
G03X-20370Y-36275I0J501D01*
G01X-20352Y-36211D01*
X-20245Y-36131D01*
X-19957D01*
G03X-19325Y-35869I0J895D01*
G01X-17783Y-34327D01*
G02X-17642Y-34269I142J-141D01*
G01X-12507D01*
G03X-11875Y-34007I0J895D01*
G01X-10588Y-32720D01*
G03X-10326Y-32087I-633J632D01*
G01Y-27904D01*
G02X-10267Y-27763I200J0D01*
G01X-9938Y-27433D01*
G02X-9796Y-27374I142J-141D01*
G37*
G36*
G01X-16099Y-29044D02*
X-14944D01*
G02X-14822Y-29086I0J-200D01*
G03X-13484Y-29544I1337J1724D01*
G03X-12665Y-29385I1J2182D01*
G01X-12619Y-29366D01*
X-12520Y-29376D01*
X-12203Y-29589D01*
G02X-12115Y-29755I-112J-166D01*
G01Y-31633D01*
G02X-12174Y-31775I-200J0D01*
G01X-12819Y-32421D01*
G02X-12961Y-32480I-142J141D01*
G01X-18095D01*
G03X-18728Y-32741I0J-895D01*
G01X-19950Y-33964D01*
G02X-20089Y-34022I-141J142D01*
G01X-20407Y-34027D01*
X-20479Y-33999D01*
X-20507Y-33972D01*
G03X-20851Y-33835I-344J-364D01*
G01X-24601D01*
G02X-24801Y-33635I0J200D01*
G01Y-32769D01*
G03X-25063Y-32136I-895J0D01*
G01X-25648Y-31551D01*
G02X-25692Y-31333I141J142D01*
G01X-25669Y-31277D01*
X-25568Y-31209D01*
X-25333D01*
X-25245Y-31256D01*
X-25217Y-31298D01*
G03X-24802Y-31519I416J280D01*
G01X-20851D01*
G03X-20436Y-31298I0J501D01*
G01X-20408Y-31256D01*
X-20320Y-31209D01*
X-19036D01*
G03X-18265Y-30890I0J1091D01*
G01X-17774Y-30399D01*
X-17729Y-30373D01*
X-17704Y-30366D01*
G03X-17224Y-30086I-291J1052D01*
G01X-16241Y-29103D01*
G02X-16099Y-29044I142J-141D01*
G37*
G36*
G01X-4146Y5787D02*
G03X-4069Y5386I1091J0D01*
G01X-4055Y5350D01*
Y4591D01*
G02X-4114Y4449I-200J0D01*
G01X-4370Y4193D01*
G02X-4512Y4134I-142J141D01*
G01X-12614D01*
G02X-12756Y4193I0J200D01*
G01X-13819Y5256D01*
G03X-13961Y5315I-142J-141D01*
G01X-14556D01*
X-14586Y5317D01*
X-14587D01*
G03X-14665Y5324I-79J-494D01*
G01X-17028D01*
G03X-17106Y5317I1J-501D01*
G01X-17122Y5315D01*
X-18472D01*
G03X-18513Y5324I-130J-492D01*
G01X-18544Y5355D01*
G02X-18602Y5496I141J142D01*
G01Y6118D01*
G03X-18661Y6259I-200J0D01*
G01X-18811Y6409D01*
X-18825Y6435D01*
G03X-19012Y6685I-959J-521D01*
G01X-19326Y6999D01*
G02X-19381Y7130I145J138D01*
G01Y8619D01*
G02X-19322Y8760I200J0D01*
G01X-13681Y14401D01*
G02X-13540Y14460I142J-141D01*
G01X-4700D01*
G02X-4516Y14337I0J-200D01*
G02X-4559Y14119I-185J-77D01*
G01X-4943Y13735D01*
X-5307Y13370D01*
G03X-5627Y12598I771J-772D01*
G01Y10343D01*
G03X-5307Y9571I1091J0D01*
G01X-4201Y8465D01*
G02X-4146Y8333I-145J-138D01*
G01Y5787D01*
G37*
G36*
G01X-11508Y30020D02*
X-5212D01*
G02X-5012Y29820I0J-200D01*
G01Y28330D01*
G03X-4693Y27559I1091J0D01*
G01X-3709Y26575D01*
G02X-3650Y26433I-141J-142D01*
G01Y25197D01*
G03X-3150Y24696I501J0D01*
G01X-591D01*
G03X-544Y24698I2J501D01*
G01X-502Y24702D01*
X-422Y24675D01*
X-172Y24448D01*
G02X-107Y24300I-135J-148D01*
G01Y24263D01*
G02X-307Y24063I-200J0D01*
G01X-349D01*
X-388Y24080D01*
G03X-591Y24123I-203J-458D01*
G01X-3150D01*
G03X-3650Y23622I0J-501D01*
G01Y21402D01*
G02X-3684Y21291I-200J0D01*
G03X-4052Y20079I1814J-1212D01*
G03X-3939Y19387I2182J0D01*
G01X-3924Y19341D01*
X-3939Y19246D01*
X-4156Y18944D01*
G02X-4318Y18861I-162J117D01*
G01X-17696Y18838D01*
G02X-17897Y19038I0J200D01*
G01Y27655D01*
G02X-17838Y27796I200J0D01*
G01X-17060Y28574D01*
G02X-16919Y28633I142J-141D01*
G01X-13287D01*
G03X-12516Y28953I0J1091D01*
G01X-11827Y29642D01*
G03X-11629Y29912I-771J772D01*
G01X-11604Y29962D01*
X-11508Y30020D01*
G37*
G36*
G01X-25590Y43504D02*
X-25583Y43510D01*
X-17419D01*
G02X-17219Y43311I0J-200D01*
G01X-17210Y37024D01*
G02X-17410Y36824I-200J0D01*
G01X-25390Y36817D01*
G02X-25590Y37017I0J200D01*
G01Y43504D01*
G37*
G36*
G01X-28051Y57280D02*
Y39669D01*
G02X-28251Y39469I-200J0D01*
G01X-34643D01*
G02X-34843Y39669I0J200D01*
G01Y57280D01*
G02X-34643Y57480I200J0D01*
G01X-28251D01*
G02X-28051Y57280I0J-200D01*
G37*
G36*
G01X-34565Y31224D02*
Y38698D01*
G02X-34365Y38898I200J0D01*
G01X-28072D01*
G02X-27872Y38698I0J-200D01*
G01Y31224D01*
G02X-28072Y31024I-200J0D01*
G01X-34365D01*
G02X-34565Y31224I0J200D01*
G37*
G36*
G01X17836Y-27559D02*
X18583D01*
G02X18783Y-27759I0J-200D01*
G01Y-31294D01*
G02X18724Y-31435I-200J0D01*
G01X11755Y-38405D01*
G03X11696Y-38546I141J-142D01*
G01Y-38599D01*
X10098Y-40197D01*
G03X10039Y-40339I141J-142D01*
G01Y-47518D01*
G02X9981Y-47659I-200J0D01*
G01X9487Y-48153D01*
G02X9345Y-48212I-142J141D01*
G01X5770D01*
G03X5629Y-48270I0J-200D01*
G01X5139Y-48760D01*
G02X4998Y-48819I-142J141D01*
G01X4610D01*
G03X4469Y-48878I0J-200D01*
G01X2322Y-51024D01*
G03X2264Y-51165I141J-142D01*
G01Y-64269D01*
G02X2064Y-64469I-200J0D01*
G01X-6099D01*
G02X-6299Y-64269I0J200D01*
G01Y-52445D01*
G02X-6241Y-52304I200J0D01*
G01X-1806Y-47869D01*
X-1789Y-47857D01*
G03X-1650Y-47719I-278J417D01*
G01X-1639Y-47702D01*
X40Y-46023D01*
G03X98Y-45882I-141J142D01*
G01Y-40535D01*
G02X157Y-40394I200J0D01*
G01X1910Y-38641D01*
G02X2051Y-38583I142J-141D01*
G01X5134D01*
G03X5275Y-38524I0J200D01*
G01X6241Y-37559D01*
G03X6299Y-37417I-141J142D01*
G01Y-34728D01*
G02X6358Y-34587I200J0D01*
G01X8603Y-32342D01*
G02X8744Y-32283I142J-141D01*
G01X15961D01*
G03X16102Y-32225I0J200D01*
G01X16955Y-31372D01*
G02X17096Y-31313I142J-141D01*
G01X17135D01*
G03X17636Y-30813I0J501D01*
G01Y-27759D01*
G02X17836Y-27559I200J0D01*
G37*
G36*
G01X18596Y3687D02*
X24943D01*
G02X25143Y3487I0J-200D01*
G01Y2555D01*
G03X25243Y2256I501J0D01*
G02X25282Y2136I-160J-120D01*
G01Y2005D01*
G02X25243Y1885I-200J0D01*
G03X25143Y1586I402J-299D01*
G01Y586D01*
G03X25243Y287I501J0D01*
G02X25282Y167I-160J-120D01*
G01Y36D01*
G02X25243Y-84I-200J0D01*
G03X25143Y-383I402J-299D01*
G01Y-1383D01*
G03X25243Y-1682I501J0D01*
G02X25282Y-1802I-160J-120D01*
G01Y-1933D01*
G02X25243Y-2053I-200J0D01*
G03X25143Y-2352I402J-299D01*
G01Y-3352D01*
G03X25243Y-3652I501J0D01*
G02X25282Y-3771I-160J-120D01*
G01Y-3902D01*
G02X25243Y-4022I-200J0D01*
G03X25143Y-4321I402J-299D01*
G01Y-5321D01*
G03X25243Y-5620I501J0D01*
G02X25282Y-5740I-160J-120D01*
G01Y-5871D01*
G02X25243Y-5991I-200J0D01*
G03X25143Y-6290I402J-299D01*
G01Y-7290D01*
G03X25243Y-7589I501J0D01*
G02X25282Y-7709I-160J-120D01*
G01Y-7840D01*
G02X25243Y-7960I-200J0D01*
G03X25143Y-8259I402J-299D01*
G01Y-8876D01*
G02X25020Y-9060I-200J0D01*
G01X24964Y-9083D01*
X24845Y-9060D01*
X23849Y-8063D01*
X23820Y-8005D01*
X23815Y-7972D01*
G03X21654Y-6086I-2162J-295D01*
G03X19472Y-8268I0J-2182D01*
G03X20824Y-10286I2182J0D01*
G01X20881Y-10309D01*
X20948Y-10409D01*
Y-24849D01*
G03X21009Y-24993I200J0D01*
G01X22280Y-26214D01*
G02X22326Y-26433I-139J-144D01*
G01X22304Y-26490D01*
X22202Y-26558D01*
X19046D01*
G02X18889Y-26482I0J200D01*
G01X18665Y-26199D01*
X18646Y-26109D01*
X18657Y-26065D01*
G03X18717Y-25554I-2121J511D01*
G03X16547Y-23372I-2182J0D01*
G01X16491Y-23372D01*
X16395Y-23312D01*
X16184Y-22893D01*
X16194Y-22781D01*
X16227Y-22735D01*
G03X16650Y-21444I-1759J1291D01*
G03X12287I-2182J0D01*
G03X12291Y-21590I2182J-3D01*
G01X12294Y-21631D01*
X12267Y-21709D01*
X12039Y-21953D01*
G02X11893Y-22017I-146J137D01*
G01X10869D01*
G02X10726Y-21956I0J200D01*
G01X10498Y-21722D01*
X10468Y-21648D01*
X10469Y-21607D01*
G03X10470Y-21555I-2181J59D01*
G03X8288Y-19373I-2182J0D01*
G03X6444Y-20387I0J-2182D01*
G02X6276Y-20480I-169J107D01*
G01X5938D01*
G02X5769Y-20387I0J200D01*
G03X3926Y-19373I-1843J-1168D01*
G03X1744Y-21555I0J-2182D01*
G03X2713Y-23369I2182J0D01*
G01X2750Y-23394D01*
X2796Y-23471D01*
X2831Y-23823D01*
G02X2773Y-23984I-199J-19D01*
G01X2220Y-24537D01*
G03X2191Y-24567I639J-626D01*
G01X2158Y-24604D01*
X2067Y-24637D01*
X1644Y-24583D01*
X1563Y-24526D01*
X1541Y-24483D01*
G03X-394Y-23310I-1935J-1009D01*
G03X-2576Y-25492I0J-2182D01*
G03X-2317Y-26523I2182J0D01*
G01X-2292Y-26570D01*
X-2294Y-26674D01*
X-2498Y-27015D01*
G02X-2669Y-27112I-172J103D01*
G01X-5455D01*
G02X-5655Y-26912I0J200D01*
G01Y-25980D01*
G03X-5754Y-25681I-501J0D01*
G02X-5794Y-25561I160J120D01*
G01Y-25430D01*
G02X-5754Y-25310I200J0D01*
G03X-5655Y-25011I-402J299D01*
G01Y-24011D01*
G03X-5665Y-23914I-501J0D01*
G01X-5673Y-23870D01*
X-5652Y-23783D01*
X-5427Y-23509D01*
G02X-5272Y-23437I154J-127D01*
G01X-4602D01*
X-4573Y-23445D01*
G03X-3937Y-23540I636J2087D01*
G03X-1755Y-21358I0J2182D01*
G03X-2950Y-19412I-2182J0D01*
G01X-2989Y-19393D01*
X-3043Y-19326D01*
X-3139Y-18950D01*
X-3124Y-18865D01*
X-3100Y-18830D01*
G03X-2944Y-18325I-739J505D01*
G01Y-17667D01*
G02X-2836Y-17489I200J0D01*
G03X-1657Y-15551I-1003J1938D01*
G03X-3839Y-13369I-2182J0D01*
G03X-5231Y-13871I0J-2182D01*
G01X-5261Y-13896D01*
X-5335Y-13920D01*
X-5688Y-13894D01*
X-5758Y-13860D01*
X-5784Y-13831D01*
G03X-5794Y-13820I-372J-335D01*
G01Y-13616D01*
G02X-5754Y-13496I200J0D01*
G03X-5655Y-13197I-402J299D01*
G01Y-12197D01*
G03X-5754Y-11898I-501J0D01*
G02X-5794Y-11778I160J120D01*
G01Y-11647D01*
G02X-5754Y-11528I200J0D01*
G03X-5655Y-11228I-402J299D01*
G01Y-10228D01*
G03X-5754Y-9929I-501J0D01*
G02X-5794Y-9809I160J120D01*
G01Y-9678D01*
G02X-5754Y-9558I200J0D01*
G03X-5655Y-9259I-402J299D01*
G01Y-8259D01*
G03X-5754Y-7960I-501J0D01*
G02X-5794Y-7840I160J120D01*
G01Y-7709D01*
G02X-5754Y-7589I200J0D01*
G03X-5655Y-7290I-402J299D01*
G01Y-6290D01*
G03X-5754Y-5991I-501J0D01*
G02X-5794Y-5871I160J120D01*
G01Y-5740D01*
G02X-5754Y-5620I200J0D01*
G03X-5655Y-5321I-402J299D01*
G01Y-4321D01*
G03X-5754Y-4022I-501J0D01*
G02X-5794Y-3902I160J120D01*
G01Y-3771D01*
G02X-5754Y-3652I200J0D01*
G03X-5655Y-3352I-402J299D01*
G01Y-2352D01*
G03X-5754Y-2053I-501J0D01*
G02X-5794Y-1933I160J120D01*
G01Y-1802D01*
G02X-5754Y-1682I200J0D01*
G03X-5730Y-1647I-402J298D01*
G02X-5366Y-1704I170J-106D01*
G03X-3248Y-3363I2118J523D01*
G03X-1415Y-2364I0J2182D01*
G02X-1246Y-2272I168J-108D01*
G01X14337D01*
G02X14505Y-2364I0J-200D01*
G03X16339Y-3363I1833J1183D01*
G03X18520Y-1181I0J2182D01*
G03X18058Y162I-2182J0D01*
G02X18066Y419I158J123D01*
G03X18619Y1870I-1630J1452D01*
G03X18261Y3067I-2182J0D01*
G01X18231Y3113D01*
X18226Y3223D01*
X18420Y3581D01*
G02X18596Y3687I176J-95D01*
G37*
G36*
G01X-4420Y37017D02*
Y43310D01*
G02X-4219Y43510I200J0D01*
G01X3884Y43496D01*
G02X4084Y43296I0J-200D01*
G01X4074Y37195D01*
G02X4015Y37054I-200J1D01*
G01X3854Y36894D01*
G03X3846Y36885I768J-776D01*
G01X3818Y36857D01*
X3744Y36825D01*
X-4220Y36817D01*
G02X-4420Y37017I0J200D01*
G37*
G36*
G01X-6826Y57238D02*
Y39561D01*
G02X-7026Y39361I-200J0D01*
G01X-13927D01*
G02X-14127Y39561I0J200D01*
G01Y57238D01*
G02X-13927Y57438I200J0D01*
G01X-7026D01*
G02X-6826Y57238I0J-200D01*
G37*
G36*
G01X-13380Y31246D02*
Y38720D01*
G02X-13180Y38920I200J0D01*
G01X-6887D01*
G02X-6687Y38720I0J-200D01*
G01Y31246D01*
G02X-6887Y31046I-200J0D01*
G01X-13180D01*
G02X-13380Y31246I0J200D01*
G37*
G36*
G01X19983Y-27559D02*
X21060D01*
G02X21260Y-27759I0J-200D01*
G01Y-36827D01*
G02X21201Y-36968I-200J0D01*
G01X19055Y-39115D01*
G03X18996Y-39256I141J-142D01*
G01Y-49720D01*
G02X18937Y-49862I-200J0D01*
G01X16200Y-52599D01*
G02X16059Y-52657I-142J141D01*
G01X9335D01*
G03X9193Y-52716I0J-200D01*
G01X7145Y-54764D01*
G02X7004Y-54823I-142J141D01*
G01X5988D01*
G02X5847Y-54764I0J200D01*
G01X5374Y-54291D01*
G02X5315Y-54150I141J142D01*
G01Y-50083D01*
G02X5374Y-49941I200J0D01*
G01X6044Y-49271D01*
G02X6185Y-49213I142J-141D01*
G01X9760D01*
G03X9901Y-49154I0J200D01*
G01X12638Y-46417D01*
G03X12697Y-46276I-141J142D01*
G01Y-38961D01*
G02X12756Y-38819I200J0D01*
G01X19725Y-31850D01*
G03X19783Y-31709I-141J142D01*
G01Y-27759D01*
G02X19983Y-27559I200J0D01*
G37*
G36*
G01X9074Y30020D02*
X17320D01*
G02X17520Y29820I0J-200D01*
G01Y19136D01*
G02X17320Y18936I-200J0D01*
G01X5837D01*
G03X5511Y18886I0J-1091D01*
G01X5481Y18877D01*
X4343Y18875D01*
G02X4143Y19075I0J200D01*
G01Y27758D01*
G02X4201Y27900I200J0D01*
G01X5262Y28960D01*
G02X5404Y29019I142J-141D01*
G01X7539D01*
G03X8310Y29339I0J1091D01*
G01X8933Y29961D01*
G02X9074Y30020I142J-141D01*
G37*
G36*
G01X14542Y57317D02*
Y39647D01*
G02X14342Y39447I-200J0D01*
G01X6693D01*
G02X6493Y39647I0J200D01*
G01Y57317D01*
G02X6693Y57517I200J0D01*
G01X14342D01*
G02X14542Y57317I0J-200D01*
G37*
G36*
G01X8291Y39097D02*
X14547D01*
G02X14747Y38897I0J-200D01*
G01Y36359D01*
G03X14778Y36100I1091J-1D01*
G01X14784Y36076D01*
Y31423D01*
G02X14584Y31223I-200J0D01*
G01X8291D01*
G02X8091Y31423I0J200D01*
G01Y38897D01*
G02X8291Y39097I200J0D01*
G37*
G36*
G01X16942Y37006D02*
Y43299D01*
G02X17142Y43499I200J0D01*
G01X26683Y43491D01*
G02X26883Y43289I0J-200D01*
G01X26829Y36993D01*
G02X26629Y36794I-200J2D01*
G01X25867Y36795D01*
X25850Y36798D01*
G03X25492Y36828I-358J-2152D01*
G03X25139Y36799I0J-2182D01*
G01X25123Y36796D01*
X17141Y36806D01*
G02X16942Y37006I0J200D01*
G37*
G36*
G01X69678Y21280D02*
G02X69295Y-22496I-69678J-21280D01*
G02X60151Y-25451I-5641J1830D01*
G03X47771Y-33052I-4632J-6337D01*
G02X44334Y-40917I-7799J-1275D01*
G03X42019Y-56873I5955J-9010D01*
G02X41632Y-59794I-1529J-1283D01*
G02X32683Y-65120I-41872J60176D01*
G02X32488Y-65111I-89J179D01*
G01X32198Y-64933D01*
G02X32103Y-64763I105J170D01*
G01Y-56744D01*
G02X32162Y-56603I200J0D01*
G01X33574Y-55191D01*
X33690Y-55166D01*
X33746Y-55187D01*
G03X34646Y-55355I900J2333D01*
G03X37146Y-52854I0J2501D01*
G03X35970Y-50733I-2501J0D01*
G02X35876Y-50563I106J170D01*
G01Y-50224D01*
G02X35970Y-50054I200J0D01*
G03Y-45812I-1324J2121D01*
G02X35876Y-45642I106J170D01*
G01Y-45303D01*
G02X35970Y-45133I200J0D01*
G03X37146Y-43012I-1324J2121D01*
G03X32145I-2501J0D01*
G03X33321Y-45133I2501J0D01*
G02X33415Y-45303I-106J-170D01*
G01Y-45642D01*
G02X33321Y-45812I-200J0D01*
G03Y-50054I1324J-2121D01*
G02X33415Y-50224I-106J-170D01*
G01Y-50563D01*
G02X33321Y-50733I-200J0D01*
G03X32145Y-52854I1324J-2121D01*
G03X32313Y-53754I2501J0D01*
G01X32334Y-53810D01*
X32309Y-53926D01*
X31755Y-54480D01*
G02X31537Y-54523I-141J141D01*
G01X31481Y-54500D01*
X31414Y-54399D01*
Y-35790D01*
G03X31356Y-35649I-200J0D01*
G01X28126Y-32420D01*
G02X28068Y-32278I141J142D01*
G01Y-28169D01*
G02X28268Y-27969I200J0D01*
G01X29639D01*
G03X29839Y-27769I0J200D01*
G01Y-27574D01*
G02X30039Y-27374I200J0D01*
G01X32031D01*
G02X32172Y-27433I0J-200D01*
G01X33594Y-28855D01*
G02X33653Y-28996I-141J-142D01*
G01Y-30403D01*
G02X33594Y-30544I-200J0D01*
G03X32956Y-32087I1544J-1542D01*
G03X35138Y-34269I2182J0D01*
G01X35140D01*
G03X35282Y-34264I-1J2182D01*
G02X35409Y-34299I13J-200D01*
G03X35917Y-34457I509J736D01*
G01X36110D01*
G02X36310Y-34657I0J-200D01*
G01Y-34843D01*
G03X36811Y-35343I501J0D01*
G01X39173D01*
G03X39674Y-34843I0J501D01*
G01Y-32283D01*
G03X39574Y-31983I-501J0D01*
G01Y-31982D01*
G02X39533Y-31863I160J120D01*
G01Y-31622D01*
G02X39574Y-31502I200J0D01*
G03X39674Y-31201I-400J301D01*
G01Y-28642D01*
G03X39173Y-28141I-501J0D01*
G01X37658D01*
G02X37517Y-28082I0J200D01*
G01X33313Y-23878D01*
G03X32681Y-23617I-632J-633D01*
G01X29728D01*
G02X29574Y-23544I0J200D01*
G01X29348Y-23270D01*
X29327Y-23183D01*
X29335Y-23139D01*
G03X29345Y-23042I-492J97D01*
G01Y-22042D01*
G03X29246Y-21743I-501J0D01*
G02X29206Y-21623I160J120D01*
G01Y-21492D01*
G02X29246Y-21372I200J0D01*
G03X29345Y-21073I-402J299D01*
G01Y-20073D01*
G03X29246Y-19774I-501J0D01*
G02X29206Y-19654I160J120D01*
G01Y-19523D01*
G02X29246Y-19404I200J0D01*
G03X29345Y-19104I-402J299D01*
G01Y-18104D01*
G03X29335Y-18007I-501J0D01*
G01X29327Y-17963D01*
X29348Y-17876D01*
X29574Y-17602D01*
G02X29728Y-17530I154J-127D01*
G01X34702D01*
X34709D01*
G03X35376Y-17268I34J895D01*
G01X35389Y-17256D01*
X35462Y-17225D01*
X41665D01*
G02X41806Y-17284I0J-200D01*
G01X42452Y-17930D01*
G02X42511Y-18072I-141J-142D01*
G01Y-22736D01*
G03X43012Y-23237I501J0D01*
G01X44280D01*
G02X44480Y-23437I0J-200D01*
G01Y-23610D01*
G02X44280Y-23810I-200J0D01*
G01X44193D01*
G03X43692Y-24311I0J-501D01*
G01Y-26870D01*
G03X44193Y-27371I501J0D01*
G01X46555D01*
G03X47056Y-26870I0J501D01*
G01Y-24311D01*
G03X46555Y-23810I-501J0D01*
G01X46469D01*
G02X46269Y-23610I0J200D01*
G01Y-23437D01*
G02X46469Y-23237I200J0D01*
G01X47736D01*
G03X48237Y-22736I0J501D01*
G01Y-17224D01*
G03X47736Y-16724I-501J0D01*
G01X43859D01*
G02X43717Y-16665I0J200D01*
G01X42751Y-15698D01*
G03X42119Y-15436I-632J-633D01*
G01X36705D01*
G02X36520Y-15313I0J200D01*
G01X36497Y-15257D01*
X36521Y-15138D01*
X37024Y-14634D01*
G02X37166Y-14576I142J-141D01*
G01X41043D01*
G03X41544Y-14075I0J501D01*
G01Y-8563D01*
G03X41043Y-8062I-501J0D01*
G01X39776D01*
G02X39576Y-7862I0J200D01*
G01Y-7787D01*
G02X39776Y-7587I200J0D01*
G01X39862D01*
G03X40363Y-7087I0J501D01*
G01Y-4528D01*
G03X39862Y-4027I-501J0D01*
G01X38187D01*
G02X38002Y-3903I0J200D01*
G01X37979Y-3848D01*
X38002Y-3729D01*
X40352Y-1378D01*
G02X40494Y-1320I142J-141D01*
G01X48878D01*
G03X49235Y-1245I0J894D01*
G01X49281Y-1225D01*
X49381Y-1233D01*
X49704Y-1445D01*
G02X49794Y-1612I-109J-167D01*
G01Y-1870D01*
G03X50295Y-2371I501J0D01*
G01X53779D01*
G02X53920Y-2430I0J-200D01*
G01X55249Y-3758D01*
G02X55306Y-3926I-141J-142D01*
G01X55263Y-4241D01*
G02X55165Y-4388I-198J26D01*
G03X54913Y-4823I249J-435D01*
G01Y-7382D01*
G03X54993Y-7654I501J0D01*
G02X55025Y-7763I-168J-109D01*
G01Y-7887D01*
G02X54993Y-7995I-200J0D01*
G03X54913Y-8268I421J-272D01*
G01Y-10827D01*
G03X55413Y-11328I501J0D01*
G01X57776D01*
G03X58276Y-10827I0J501D01*
G01Y-8268D01*
G03X58196Y-7995I-501J0D01*
G02X58164Y-7887I168J109D01*
G01Y-7763D01*
G02X58196Y-7654I200J0D01*
G03X58276Y-7382I-421J272D01*
G01Y-4823D01*
G03X57776Y-4322I-501J0D01*
G01X57689D01*
G02X57489Y-4122I0J200D01*
G01Y-3838D01*
G03X57227Y-3206I-895J0D01*
G01X56733Y-2712D01*
G02X56690Y-2494I141J141D01*
G01X56713Y-2438D01*
X56813Y-2371D01*
X61319D01*
G03X61820Y-1870I0J501D01*
G01Y1220D01*
G02X61878Y1361I200J0D01*
G01X62263Y1746D01*
G02X62404Y1805I142J-141D01*
G01X62429D01*
G03X63061Y2067I0J895D01*
G01X65889Y4894D01*
G03X66121Y5299I-633J632D01*
G02X66226Y5428I193J-51D01*
G03X67438Y7382I-969J1954D01*
G03X65256Y9564I-2182J0D01*
G03X63966Y9141I0J-2182D01*
G01X63965D01*
G02X63757Y9124I-118J161D01*
G01X63439Y9285D01*
G02X63329Y9464I90J179D01*
G01Y10827D01*
G03X62828Y11328I-501J0D01*
G01X61313D01*
G02X61172Y11386I0J200D01*
G01X61096Y11461D01*
G02X61054Y11679I142J141D01*
G01X61076Y11735D01*
X61177Y11802D01*
X62763D01*
G03X63263Y12303I0J501D01*
G01Y14862D01*
G03X62763Y15363I-501J0D01*
G01X62676D01*
G02X62476Y15563I0J200D01*
G01Y16989D01*
G02X62504Y17092I200J0D01*
G03X62812Y18209I-1874J1117D01*
G03X62461Y19394I-2182J0D01*
G01X62433Y19437D01*
X62426Y19540D01*
X62611Y19941D01*
X62693Y20002D01*
X62744Y20008D01*
G03X64637Y22171I-289J2163D01*
G03X64541Y22810I-2182J0D01*
G01X64528Y22855D01*
X64543Y22949D01*
X64763Y23246D01*
G02X64924Y23327I161J-119D01*
G01X68855D01*
G02X69044Y23194I0J-200D01*
G02X69678Y21281I-45543J-16174D01*
G01Y21280D01*
G37*
G36*
G01X22461Y-27559D02*
X23127D01*
G02X23268Y-27618I0J-200D01*
G02X23327Y-27759I-141J-141D01*
G01Y-31906D01*
G03X23385Y-32047I200J0D01*
G01X24548Y-33209D01*
G03X24689Y-33268I142J141D01*
G01X27456D01*
G02X27496Y-33272I0J-200D01*
G01X27553Y-33283D01*
X27590Y-33298D01*
X27618Y-33326D01*
X28082Y-33791D01*
G02X28126Y-33856I-142J-141D01*
G01X28141Y-33893D01*
Y-35630D01*
G03X28642Y-36131I501J0D01*
G01X30213D01*
G02X30355Y-36189I0J-200D01*
G02X30413Y-36331I-141J-141D01*
G01Y-55815D01*
G02X30409Y-55857I-200J1D01*
G01X30395Y-55919D01*
G03X30314Y-56291I813J-373D01*
G01Y-71749D01*
G02X30114Y-71949I-200J0D01*
G01X24059D01*
X23985Y-71919D01*
X23957Y-71890D01*
X23779Y-71712D01*
X23751Y-71684D01*
X23720Y-71611D01*
Y-39256D01*
G03X23662Y-39115I-200J0D01*
G01X22319Y-37772D01*
G02X22261Y-37631I141J142D01*
G01Y-27759D01*
G02X22319Y-27618I200J0D01*
G02X22461Y-27559I141J-141D01*
G37*
G36*
G01X24016Y-32299D02*
Y-27759D01*
G02X24216Y-27559I200J0D01*
G01X26591D01*
G02X26732Y-27618I0J-200D01*
G01X27008Y-27894D01*
G02X27067Y-28035I-141J-142D01*
G01Y-32969D01*
G02X26867Y-33169I-200J0D01*
G01X24886D01*
G02X24744Y-33111I0J200D01*
G01X24074Y-32441D01*
G02X24016Y-32299I141J142D01*
G37*
G36*
G01X22425Y-8957D02*
X23244D01*
G02X23385Y-9015I0J-200D01*
G01X23957Y-9587D01*
G02X24016Y-9728I-141J-142D01*
G01Y-23539D01*
G03X24074Y-23681I200J0D01*
G01X25630Y-25237D01*
G03X25772Y-25295I142J141D01*
G01X28639D01*
G02X28839Y-25495I0J-200D01*
G01Y-26769D01*
G02X28639Y-26969I-200J0D01*
G01X27581D01*
G02X27439Y-26910I0J200D01*
G01X27146Y-26617D01*
G03X27005Y-26558I-142J-141D01*
G01X24162D01*
G02X24023Y-26502I0J200D01*
G01X22010Y-24567D01*
G02X21949Y-24423I139J144D01*
G01Y-9433D01*
G02X22007Y-9292I200J0D01*
G01X22284Y-9015D01*
G02X22425Y-8957I142J-141D01*
G37*
G36*
G01X36688Y12445D02*
G03X36861Y12201I1862J1138D01*
G02X36896Y12139I-155J-127D01*
G03X37244Y11819I473J164D01*
G02X37308Y11789I-51J-193D01*
G03X38550Y11401I1242J1794D01*
G03X39792Y11789I0J2182D01*
G02X39856Y11819I115J-164D01*
G03X40204Y12139I-125J485D01*
G02X40239Y12201I189J-65D01*
G03X40247Y12211I-1687J1384D01*
G02X40315Y12265I155J-126D01*
G01X40320Y12268D01*
G02X40530Y12247I88J-180D01*
G01X40576Y12211D01*
G02X40641Y12124I-122J-159D01*
G03X41109Y11802I468J179D01*
G01X42624D01*
G02X42766Y11744I0J-200D01*
G01X43471Y11038D01*
G03X43680Y10883I632J633D01*
G01X43706Y10869D01*
X43748Y10826D01*
G03X44011Y10645I632J633D01*
G01X44044Y10630D01*
X44552Y10121D01*
G02X44611Y9980I-141J-142D01*
G01Y8268D01*
G03X44780Y7893I500J0D01*
G01X44781Y7892D01*
G02X44848Y7738I-133J-149D01*
G01X44839Y7387D01*
X44800Y7308D01*
X44766Y7281D01*
G03X44578Y6890I313J-391D01*
G01Y5178D01*
G02X44519Y5036I-200J0D01*
G01X43873Y4390D01*
G02X43732Y4331I-142J141D01*
G01X37995D01*
G03X37363Y4070I0J-895D01*
G01X35881Y2587D01*
G02X35663Y2544I-141J141D01*
G01X35607Y2567D01*
X35540Y2668D01*
Y3630D01*
G02X35740Y3830I200J0D01*
G01X35827D01*
G03X36328Y4331I0J501D01*
G01Y6890D01*
G03X36158Y7265I-500J0D01*
G02X36091Y7420I133J150D01*
G01X36099Y7770D01*
X36139Y7849D01*
X36173Y7877D01*
G03X36361Y8268I-313J391D01*
G01Y10827D01*
G03X35860Y11328I-501J0D01*
G01X35707D01*
G02X35507Y11528I0J200D01*
G01Y11598D01*
G02X35707Y11798I200J0D01*
G01X35794D01*
G03X36300Y12303I0J506D01*
G01Y12448D01*
G02X36490Y12587I190J-61D01*
G01X36617Y12514D01*
G02X36688Y12445I-100J-173D01*
G37*
G36*
G01X51998Y12615D02*
G03X52193Y12305I1938J1002D01*
G02X52230Y12219I-160J-120D01*
G03X52678Y11804I494J84D01*
G02X52767Y11774I-18J-199D01*
G03X53937Y11433I1171J1841D01*
G03X55127Y11786I0J2182D01*
G02X55193Y11814I110J-167D01*
G03X55556Y12132I-107J489D01*
G02X55592Y12194I188J-68D01*
G03X55606Y12210I-1635J1444D01*
G02X55672Y12261I152J-129D01*
G01X55678Y12264D01*
G02X55885Y12243I86J-181D01*
G01X55932Y12207D01*
G02X55997Y12120I-121J-159D01*
G03X56463Y11802I466J182D01*
G01X57979D01*
G02X58120Y11744I0J-200D01*
G01X58825Y11038D01*
G03X59035Y10883I632J633D01*
G01X59061Y10869D01*
X59103Y10826D01*
G03X59365Y10645I632J633D01*
G01X59398Y10630D01*
X59907Y10121D01*
G02X59965Y9980I-141J-142D01*
G01Y8268D01*
G03X60135Y7893I500J0D01*
G01X60135Y7892D01*
G02X60202Y7738I-133J-149D01*
G01X60194Y7387D01*
X60154Y7308D01*
X60120Y7281D01*
G03X59932Y6890I313J-391D01*
G01Y5178D01*
G02X59874Y5036I-200J0D01*
G01X59228Y4390D01*
G02X59086Y4331I-142J141D01*
G01X51882D01*
G02X51682Y4531I0J200D01*
G01Y6890D01*
G03X51513Y7265I-500J0D01*
G01X51512Y7265D01*
G02X51445Y7420I133J149D01*
G01X51454Y7770D01*
X51493Y7849D01*
X51527Y7877D01*
G03X51715Y8268I-313J391D01*
G01Y10827D01*
G03X51214Y11328I-501J0D01*
G01X51062D01*
G02X50862Y11528I0J200D01*
G01Y11548D01*
G02X51062Y11748I200J0D01*
G01X51148D01*
G03X51704Y12303I0J555D01*
G01Y12753D01*
G02X51794Y12775I91J-178D01*
G01X51926Y12693D01*
G02X51998Y12615I-106J-170D01*
G37*
%LPC*%
G75*
G54D33*
X66925Y243D03*
%LPD*%
G75*
G54D10*
X-55020Y-7480D03*
Y-17618D03*
Y12795D03*
Y2657D03*
X-59154Y24311D03*
X-43996Y-7480D03*
Y-17618D03*
Y12795D03*
Y2657D03*
X-48130Y24311D03*
X-5217Y-43898D03*
X16142Y-68406D03*
X15945Y-57677D03*
X5807Y-43898D03*
X27165Y-68406D03*
X26969Y-57677D03*
G54D20*
X-25197Y-43799D03*
X-20472D03*
X-25197Y-41634D03*
X-20472D03*
G54D11*
X-59843Y-21555D03*
X-56693D03*
X-53543D03*
X-59843Y-18406D03*
X-56693D03*
X-53543D03*
X-59843Y-15256D03*
X-56693D03*
X-53543D03*
X-59843Y-12106D03*
X-56693D03*
X-53543D03*
X-59843Y-8957D03*
X-56693D03*
X-53543D03*
X-59843Y-5807D03*
X-56693D03*
X-53543D03*
X-59843Y-2657D03*
X-56693D03*
X-53543D03*
X-59843Y492D03*
X-56693D03*
X-53543D03*
X-59843Y3642D03*
X-56693D03*
X-53543D03*
X-59843Y6791D03*
X-56693D03*
X-53543D03*
X-59843Y9941D03*
X-56693D03*
X-53543D03*
X-59843Y13091D03*
X-56693D03*
X-53543D03*
X-59843Y16240D03*
X-56693D03*
X-53543D03*
X-59941Y18110D03*
X-56791D03*
X-59941Y21260D03*
X-56791D03*
X-59941Y24409D03*
X-56791D03*
X-59941Y27559D03*
X-56791D03*
X-46850Y-18996D03*
X-43701D03*
X-40551D03*
X-37402D03*
X-34252D03*
X-46850Y-15846D03*
X-43701D03*
X-40551D03*
X-37402D03*
X-34252D03*
X-46850Y-12697D03*
X-43701D03*
X-40551D03*
X-37402D03*
X-34252D03*
X-36024Y8661D03*
X-35827Y3839D03*
X-34055Y689D03*
X-36220Y13091D03*
X-47539Y18701D03*
X-44390D03*
X-50689Y21850D03*
X-47539D03*
X-44390D03*
X-50689Y25000D03*
X-47539D03*
X-44390D03*
X-50689Y28150D03*
X-47539D03*
X-36417Y20472D03*
X-34449D03*
X-36417Y22441D03*
X-34449D03*
X-36417Y24409D03*
X-34449D03*
X-36417Y26378D03*
X-34449D03*
X-51575Y33465D03*
X-48425D03*
X-45276D03*
X-51575Y36614D03*
X-48425D03*
X-45276D03*
X-26575Y-60827D03*
X-19094D03*
X-22835Y-50591D03*
X-15846Y-31299D03*
X-30118Y-38878D03*
X-31102Y-18996D03*
Y-15846D03*
X-17913Y8071D03*
X-15846Y10138D03*
X-32480Y20472D03*
X-30512D03*
X-28543D03*
X-32480Y22441D03*
X-30512D03*
X-28543D03*
X-26575D03*
X-32480Y24409D03*
X-30512D03*
X-28543D03*
X-26575D03*
X-32480Y26378D03*
X-30512D03*
X-28543D03*
X-26575D03*
X-32480Y28346D03*
X-30512D03*
X-28543D03*
X-26575D03*
X-16043Y20079D03*
Y22047D03*
Y24016D03*
Y25984D03*
X-23228Y19579D03*
X-21457Y41929D03*
X-21358Y38189D03*
X-24213Y41929D03*
X-24311Y38091D03*
X-18799Y41831D03*
X-18701Y38091D03*
X-29626Y35236D03*
X-23327Y53248D03*
X-20177D03*
X-17028D03*
X-23327Y56398D03*
X-20177D03*
X-17028D03*
X-5906Y-68110D03*
X-2559Y-68012D03*
X689D03*
X-5906Y-70972D03*
X-2559Y-70874D03*
X791Y-70872D03*
X-14469Y-61417D03*
X-8957Y-71071D03*
Y-68209D03*
X-12008Y-71169D03*
Y-68307D03*
X-11713Y-64567D03*
Y-61417D03*
X-14469Y-67232D03*
Y-64370D03*
X-5020Y-62992D03*
X-2159Y-63102D03*
X703Y-63090D03*
X900Y-60235D03*
X-2052Y-60242D03*
X-14075Y-58858D03*
Y-55709D03*
X-11319Y-58760D03*
Y-55610D03*
X1575Y-49409D03*
X-1673Y-49803D03*
X1969Y-46949D03*
Y-44291D03*
X-5020Y-52165D03*
X-1878Y-56890D03*
X-1575Y-52165D03*
X1083D03*
X-5020Y-56890D03*
X984D03*
X-5020Y-60130D03*
X-1167Y-34631D03*
X2854Y-32494D03*
X1969Y-41535D03*
X-13484Y-27362D03*
X-394Y-25492D03*
X-3207Y-11235D03*
X2461Y-4921D03*
X-324Y-18135D03*
X-689Y-8268D03*
X-141Y-11263D03*
X-591Y-4921D03*
X2362Y-8366D03*
X415Y-14582D03*
X2717Y-11424D03*
X3150Y-14075D03*
X-3839Y-15551D03*
X-3937Y-21358D03*
X-13875Y12213D03*
X-10827Y12205D03*
X-6693Y7382D03*
X-7579Y12106D03*
X-3248Y-1181D03*
X1378Y1280D03*
X-1085Y10731D03*
X-14075Y20079D03*
X-12106D03*
X-10138D03*
X-8169D03*
X-14075Y22047D03*
X-12106D03*
X-10138D03*
X-8169D03*
X-6201D03*
X-14075Y24016D03*
X-12106D03*
X-10138D03*
X-8169D03*
X-6201D03*
X-14075Y25984D03*
X-12106D03*
X-10138D03*
X-8169D03*
X-6201D03*
X-10138Y27953D03*
X-8169D03*
X-6201D03*
X-1870Y20079D03*
X-2953Y41240D03*
Y38386D03*
X-197Y38484D03*
Y41339D03*
X2657Y38386D03*
Y41339D03*
X-7776Y35138D03*
X-4528Y53543D03*
X-1378D03*
X1772D03*
X7776Y-67815D03*
X11024D03*
X7776Y-70677D03*
X11126Y-70676D03*
X4429Y-70776D03*
Y-67913D03*
X13976Y-67717D03*
X17323Y-67618D03*
X13976Y-70579D03*
X17323Y-70480D03*
X20673Y-70479D03*
X20571Y-67618D03*
X13583Y-64476D03*
X20280Y-64376D03*
X16929Y-64378D03*
X20177Y-61516D03*
X16929D03*
X13583Y-61614D03*
X6890Y-61713D03*
Y-64575D03*
X10240Y-64573D03*
X10138Y-61713D03*
X13386Y-55906D03*
X13488Y-58766D03*
X6791Y-58866D03*
X10138Y-58768D03*
Y-55906D03*
X5807Y-43898D03*
X16535Y-25554D03*
X6299Y-41339D03*
X6004Y-11417D03*
X5512Y-5118D03*
X5610Y-8465D03*
X3926Y-21555D03*
X14469Y-21444D03*
X21654Y-8268D03*
X8288Y-21555D03*
X16339Y-1181D03*
X16437Y1870D03*
X16929Y9843D03*
X3593Y10778D03*
X6594Y21654D03*
X8563D03*
X10531D03*
X12500D03*
X14469D03*
X6594Y23622D03*
X8563D03*
X10531D03*
X12500D03*
X14469D03*
X6594Y25591D03*
X8563D03*
X10531D03*
X12500D03*
X14469D03*
X6594Y27559D03*
X8563D03*
X10531D03*
X12500D03*
X14469D03*
X11417Y35236D03*
X18602Y41634D03*
Y38780D03*
X21457Y38878D03*
X21555Y41634D03*
X18996Y54921D03*
X35138Y-32087D03*
X38550Y13583D03*
X33661Y32480D03*
X25492Y34646D03*
X24705Y51083D03*
X35335Y43012D03*
X24409Y38976D03*
Y41634D03*
X41831Y-37500D03*
X50197Y-23720D03*
Y-20571D03*
X53346D03*
X56496D03*
X50197Y-17421D03*
X53346D03*
X56496D03*
X50197Y-14272D03*
X53346D03*
X56496D03*
X46260Y13583D03*
X40551Y7677D03*
X55807Y7579D03*
X53937Y13615D03*
X41339Y23524D03*
X49803Y20374D03*
X55610Y20768D03*
X44882Y20866D03*
X53642Y31299D03*
X48524Y32185D03*
X44894Y34605D03*
X59646Y-23720D03*
X62795D03*
X65945D03*
X59646Y-20571D03*
X62795D03*
X65945D03*
X59646Y-17421D03*
X62795D03*
X65945D03*
X69094D03*
X59646Y-14272D03*
X62795D03*
X65945D03*
X69094D03*
X63091Y-9744D03*
X66240D03*
X69390D03*
X63091Y-6594D03*
X66240D03*
X69390D03*
X66437Y12205D03*
X69783Y11909D03*
Y8268D03*
X69980Y5020D03*
X65256Y7382D03*
X66339Y15650D03*
X66043Y19488D03*
X60630Y18209D03*
X62455Y22171D03*
G54D12*
X-34547Y-43209D03*
X-39862Y-31496D03*
Y-27559D03*
X-39764Y-40157D03*
Y-36220D03*
X-34547Y-39272D03*
X-41929Y30512D03*
Y34449D03*
X-22835Y-51181D03*
Y-47244D03*
X-15945Y-31299D03*
Y-27362D03*
X-20669Y30512D03*
X-23228Y22441D03*
Y26378D03*
X-20669Y34449D03*
X-20472Y49213D03*
Y45276D03*
X984Y30512D03*
X-1870Y22441D03*
Y26378D03*
X689Y49213D03*
Y45276D03*
X984Y34449D03*
X19390Y22441D03*
Y26378D03*
X29626Y23524D03*
Y27461D03*
X25492Y23524D03*
Y27461D03*
X33661Y23425D03*
Y27362D03*
X22244Y49213D03*
Y45276D03*
X52165Y23425D03*
Y27362D03*
X44882Y23425D03*
Y27362D03*
X48524Y23425D03*
Y27362D03*
G54D30*
X29429Y54921D03*
X22736D03*
X52461Y98D03*
X59154D03*
G54D21*
X-33276Y-35236D03*
Y-32677D03*
Y-30118D03*
Y-27559D03*
X-22826D03*
Y-30118D03*
Y-32677D03*
Y-35236D03*
G54D31*
G01X-39764Y-40157D02*
X-39665D01*
X-36720Y-43102D01*
Y-44760D01*
X-36713Y-44768D01*
Y-56102D01*
X-29917Y-62898D01*
Y-69250D01*
X-27613Y-71555D01*
X-25689D01*
G01X-7756Y-18604D02*
X-9151D01*
X-10250Y-19703D01*
Y-21765D01*
X-11720Y-23236D01*
X-43906D01*
X-46260Y-25591D01*
Y-32677D01*
X-42717Y-36220D01*
X-39764D01*
G01D02*
X-39665D01*
X-37852Y-38034D01*
Y-38132D01*
X-36713Y-39272D01*
X-34547D01*
G01X-33276Y-35236D02*
X-34856D01*
X-36145Y-33948D01*
Y-32367D01*
X-37016Y-31496D01*
X-39862D01*
G01X-36417Y37598D02*
X-37008D01*
X-38428Y36179D01*
Y35588D01*
X-39567Y34449D01*
X-41929D01*
G01X34646Y-52854D02*
X31209Y-56291D01*
Y-72319D01*
X29906Y-73622D01*
X-19685D01*
X-21555Y-71752D01*
Y-71555D01*
G01X-26575Y-65610D02*
Y-60827D01*
G01X-19094Y-65610D02*
Y-60827D01*
G01X-34547Y-43209D02*
Y-45670D01*
X-32783Y-47433D01*
Y-52733D01*
X-32776Y-52741D01*
Y-57561D01*
X-28630Y-61706D01*
Y-68717D01*
X-28107Y-69240D01*
X-17079D01*
X-14961Y-71358D01*
Y-71555D01*
G01X-22835Y-50591D02*
Y-51181D01*
G01D02*
X-22933Y-51083D01*
X-26772D01*
G01X-18898D02*
X-18996Y-51181D01*
X-22835D01*
G01Y-56437D02*
Y-51181D01*
G01X-22539Y-50295D02*
X-22835Y-50591D01*
G01X-25197Y-43799D02*
X-26469Y-45071D01*
X-28323D01*
X-30496Y-47244D01*
X-30709D01*
G01D02*
Y-51083D01*
G01D02*
Y-53642D01*
X-26575Y-57776D01*
Y-60827D01*
G01X-20472Y-43799D02*
X-19201Y-45071D01*
X-17346D01*
X-15173Y-47244D01*
X-14961D01*
G01Y-51083D02*
Y-53445D01*
X-19094Y-57579D01*
Y-60827D01*
G01X-18898Y-47244D02*
X-22835D01*
G01D02*
X-26772D01*
G01X-15945Y-31299D02*
X-18118D01*
X-19496Y-32677D01*
X-22826D01*
G01X-7756Y-24511D02*
X-11174D01*
X-11187Y-24524D01*
X-16831D01*
X-19867Y-27559D01*
X-22826D01*
G01Y-35236D02*
X-19957D01*
X-18095Y-33374D01*
X-12507D01*
X-11220Y-32087D01*
Y-27451D01*
X-10250Y-26480D01*
X-7756D01*
G01X-33276Y-30118D02*
X-30112D01*
X-29620Y-30610D01*
X-27854D01*
X-25695Y-32769D01*
Y-37333D01*
X-23622Y-39407D01*
X-22795D01*
X-20568Y-41634D01*
X-20472D01*
G01X-33276Y-32677D02*
X-30112D01*
X-29620Y-32185D01*
X-28506D01*
X-27270Y-33421D01*
Y-37986D01*
X-25197Y-40059D01*
Y-41634D01*
G01X-20472Y49213D02*
Y52953D01*
X-20177Y53248D01*
G01X-14961Y-51083D02*
Y-47244D01*
G01X-5023Y-29213D02*
Y-33584D01*
X-4314Y-34294D01*
X-1504D01*
X-1167Y-34631D01*
G01X-3054Y-29213D02*
Y-31706D01*
X-2267Y-32494D01*
X2854D01*
G01X883Y-29213D02*
Y-26769D01*
X-394Y-25492D01*
G01X-7756Y-20573D02*
X-6087D01*
X-3839Y-18325D01*
Y-15551D01*
G01X-7756Y-22542D02*
X-5121D01*
X-3937Y-21358D01*
G01X2853Y5787D02*
Y2754D01*
X1378Y1280D01*
G01X689Y49213D02*
Y52461D01*
X1772Y53543D01*
G01X16535Y-25554D02*
X9924D01*
X8759Y-26719D01*
Y-29213D01*
G01X2853D02*
Y-25169D01*
X3926Y-24096D01*
Y-21555D01*
G01X6791Y-29213D02*
Y-26477D01*
X10357Y-22911D01*
X13001D01*
X14469Y-21444D01*
G01X4822Y-29213D02*
Y-25021D01*
X8288Y-21555D01*
G01X52165Y23425D02*
Y19587D01*
X49803Y17224D01*
X33267D01*
X25295Y9252D01*
X21544D01*
X20574Y8281D01*
Y5787D01*
G01X18605D02*
Y8369D01*
X20858Y10622D01*
X24598D01*
X32579Y18602D01*
X45669D01*
X48622Y21555D01*
G01X16635Y5787D02*
X16634Y5789D01*
Y9547D01*
X16929Y9843D01*
G01X14667Y5787D02*
Y10515D01*
X16349Y12197D01*
X24352D01*
X33022Y20866D01*
X44882D01*
G01X33661Y23425D02*
X33563D01*
X23622Y13484D01*
X14181D01*
X12698Y12001D01*
Y5787D01*
G01X29626Y23524D02*
Y21449D01*
X23039Y14862D01*
X12402D01*
X10729Y13189D01*
Y5787D01*
G01X25492Y23524D02*
Y21161D01*
X20571Y16240D01*
X10630D01*
X8759Y14370D01*
Y5787D01*
G01X34646Y-38091D02*
X32698Y-36143D01*
Y-35150D01*
X31898Y-34350D01*
G01D02*
X29823D01*
G01X22543Y-29213D02*
Y-33082D01*
X23811Y-34350D01*
X25886D01*
G01X25197Y-31890D02*
X24511Y-31204D01*
Y-29213D01*
G01X25886Y-34350D02*
X25197Y-33661D01*
G01D02*
Y-31890D01*
G01X37992Y-33563D02*
Y-29921D01*
G01X27244Y-24511D02*
X32680D01*
X37992Y-29823D01*
Y-29921D01*
G01D02*
X37303D01*
X35138Y-32087D01*
G01X27244Y-26480D02*
X32484D01*
X34547Y-28543D01*
Y-32193D01*
X35917Y-33563D01*
X37992D01*
G01D02*
X36516Y-32087D01*
X35138D01*
G01X45374Y-19980D02*
Y-19587D01*
X42118Y-16331D01*
X35048D01*
X34743Y-16635D01*
X27244D01*
G01X38681Y-5807D02*
Y-11319D01*
G01D02*
Y-11713D01*
X35728Y-14666D01*
X27244D01*
G01Y-6790D02*
X29738D01*
X38678Y2150D01*
X46638D01*
X50000Y5512D01*
Y5610D01*
G01X52461Y98D02*
X49402D01*
X48878Y-425D01*
X40041D01*
X29738Y-10728D01*
X27244D01*
G01X61614Y5610D02*
Y5512D01*
X59539Y3437D01*
X50401D01*
X47826Y862D01*
X39359D01*
X29738Y-8759D01*
X27244D01*
G01X34646Y5610D02*
Y9514D01*
X34679Y9547D01*
G01X34646Y5610D02*
Y2056D01*
X29738Y-2852D01*
X27244D01*
G01X34679Y9547D02*
X34613Y9613D01*
Y13583D01*
G01X46260Y5610D02*
Y5512D01*
X44185Y3437D01*
X37996D01*
X29738Y-4821D01*
X27244D01*
G01X33661Y32480D02*
Y27362D01*
G01X25492Y34646D02*
Y27461D01*
G01X37402Y27264D02*
Y23524D01*
G01D02*
X37303Y23425D01*
X33661D01*
G01X29626Y27461D02*
X27502Y25337D01*
X27404D01*
X25591Y23524D01*
X25492D01*
G01X22244Y49213D02*
X22835D01*
X24705Y51083D01*
G01X35335Y45472D02*
Y49114D01*
G01Y45472D02*
Y43012D01*
G01X29429Y54921D02*
X32488D01*
X35335Y52075D01*
Y49114D01*
G01X45374Y-25591D02*
Y-19980D01*
G01X56594Y-9547D02*
Y-6102D01*
G01D02*
Y-3839D01*
X52657Y98D01*
X52461D01*
G01X49967Y13583D02*
Y9613D01*
X50033Y9547D01*
G01D02*
Y5643D01*
X50000Y5610D01*
G01X42290Y13583D02*
Y13484D01*
X44104Y11671D01*
X44169D01*
X44381Y11459D01*
X44480D01*
X46293Y9646D01*
Y9547D01*
G01D02*
Y5643D01*
X46260Y5610D01*
G01X44882Y27362D02*
Y32519D01*
X44894Y32530D01*
Y34605D01*
G01X53937Y13615D02*
X53904Y13583D01*
G01X55610Y27264D02*
Y23524D01*
G01X49803Y20374D02*
X48622Y21555D01*
G01X55610Y23524D02*
Y20768D01*
G01X48524Y23425D02*
X48622Y23327D01*
Y21555D01*
G01X44882Y23425D02*
Y20866D01*
G01X52165Y27362D02*
Y29823D01*
X53642Y31299D01*
G01X48524Y32185D02*
Y27362D01*
G01X57644Y13583D02*
Y13484D01*
X59458Y11671D01*
X59524D01*
X59735Y11459D01*
X59834D01*
X61647Y9646D01*
Y9547D01*
G01X59154Y98D02*
X59350D01*
X61951Y2699D01*
X62428D01*
X65256Y5527D01*
Y7382D01*
G01X61647Y9547D02*
Y5643D01*
X61614Y5610D01*
G01X66043Y19488D02*
Y25984D01*
X64764Y27264D01*
X59547D01*
G01X61581Y13583D02*
Y17257D01*
X60630Y18209D01*
G01X62455Y22171D02*
X62180D01*
X60827Y23524D01*
X59547D01*
G54D22*
X-31594Y54232D03*
X-10925D03*
X9744D03*
G54D13*
X-32480Y23680D03*
X-11319D03*
X10138Y23876D03*
G54D32*
G01X-39862Y-27559D02*
X-33276D01*
G01X-19783Y-16240D02*
Y-16142D01*
X-29224Y-6701D01*
Y13969D01*
X-32904Y17648D01*
X-37952D01*
X-39780Y19476D01*
Y28658D01*
X-38524Y29913D01*
X-35080D01*
X-33760Y31233D01*
G01X-36319Y32382D02*
X-39993D01*
X-41863Y30512D01*
X-41929D01*
G01D02*
Y19248D01*
X-38648Y15967D01*
X-34881D01*
X-30906Y11991D01*
Y-9843D01*
X-19783Y-20965D01*
Y-21063D01*
G01X-36417Y37598D02*
X-34941D01*
X-33760Y36417D01*
G01X-33276Y-27559D02*
X-28451D01*
X-25892Y-30118D01*
X-22826D01*
G01D02*
X-19036D01*
X-18233Y-29315D01*
X-17996D01*
X-16043Y-27362D01*
X-15945D01*
G01X-19783Y-16240D02*
Y-16339D01*
X-17512Y-18610D01*
X-14213D01*
X-10269Y-14666D01*
X-7756D01*
G01X-12598Y32382D02*
Y30413D01*
X-13287Y29724D01*
X-17454D01*
X-18988Y28190D01*
Y18118D01*
X-25492Y11614D01*
Y-3036D01*
X-22229Y-6299D01*
X-19783D01*
G01D02*
Y-6398D01*
X-17422Y-8759D01*
X-7756D01*
G01X-19783Y-11220D02*
Y-11122D01*
X-27173Y-3732D01*
Y12311D01*
X-20669Y18815D01*
Y30512D01*
G01X-7756Y-2852D02*
X-9838D01*
X-13863Y1173D01*
X-17512D01*
X-19783Y3445D01*
Y3543D01*
G01D02*
Y5913D01*
X-20472Y6602D01*
Y9154D01*
X-14075Y15551D01*
X886D01*
X3051Y17717D01*
Y28293D01*
X4869Y30110D01*
X7539D01*
X8858Y31430D01*
G01X-19783Y-1378D02*
Y-1280D01*
X-22244Y1181D01*
Y9759D01*
X-14681Y17323D01*
X-500D01*
X984Y18807D01*
Y30512D01*
G01X-33760Y31233D02*
Y32382D01*
G01X-24213Y45276D02*
X-25361D01*
X-26681Y43956D01*
Y35835D01*
X-23228Y32382D01*
Y26378D01*
G01Y19579D02*
Y22441D01*
G01X-15157Y32382D02*
X-18733D01*
X-20603Y30512D01*
X-20669D01*
G01X-33760Y36417D02*
Y32382D01*
G01X-15256Y37598D02*
Y35991D01*
X-16798Y34449D01*
X-20669D01*
G01X-20472Y45276D02*
X-24213D01*
G01X-13484Y-27362D02*
X-15945D01*
G01X-15846Y-11220D02*
X-13575D01*
X-13082Y-10728D01*
X-7756D01*
G01X-15846Y-16240D02*
Y-16142D01*
X-12402Y-12697D01*
X-7756D01*
G01Y-16635D02*
X-9843D01*
X-11734Y-18526D01*
Y-19805D01*
X-12992Y-21063D01*
X-15846D01*
G01Y-6299D02*
X-11346D01*
X-10855Y-6790D01*
X-7756D01*
G01X4528Y-1181D02*
X-3248D01*
G01X883Y5787D02*
Y8069D01*
X3593Y10778D01*
G01X-1085Y5787D02*
Y10731D01*
G01X19390Y22441D02*
Y19193D01*
X18042Y17845D01*
X5837D01*
X1772Y13780D01*
X-3354D01*
X-4535Y12598D01*
Y10343D01*
X-3054Y8861D01*
Y5787D01*
G01X-15846Y3543D02*
X-13856D01*
X-9430Y-883D01*
X-7756D01*
G01X-15846Y-1378D02*
X-13890D01*
X-10446Y-4821D01*
X-7756D01*
G01X6299Y32579D02*
X3150D01*
X1083Y30512D01*
X984D01*
G01X-1870Y20079D02*
Y22441D01*
G01X-3051Y45276D02*
X-4200D01*
X-5520Y43956D01*
Y36359D01*
X-3921Y34760D01*
Y28330D01*
X-1969Y26378D01*
X-1870D01*
G01X-12598Y32382D02*
Y34810D01*
G01Y35327D02*
Y36417D01*
G01D02*
X-13780Y37598D01*
X-15256D01*
G01X6102D02*
X4626Y36122D01*
Y35630D01*
X3445Y34449D01*
X984D01*
G01X689Y45276D02*
X-3051D01*
G01X4528Y-1181D02*
X16339D01*
G01X6791Y5787D02*
Y3097D01*
X8017Y1870D01*
X16437D01*
G01X4822Y5787D02*
Y-887D01*
X4528Y-1181D01*
G01X18307Y45276D02*
X17158D01*
X15839Y43956D01*
Y36359D01*
X19390Y32808D01*
Y26378D01*
G01X8858Y31430D02*
Y32579D01*
G01X22244Y45276D02*
X18307D01*
G01X6102Y37598D02*
X7776D01*
X10138Y35236D01*
G01D02*
X11417D01*
G01X22736Y54921D02*
X18996D01*
G01X21654Y-8268D02*
X23031Y-9646D01*
G01X41339Y35335D02*
X39165D01*
X31398Y43102D01*
Y45472D01*
G01Y49114D02*
Y45472D01*
G01X41339Y35335D02*
Y27264D01*
G01X59547D02*
Y34350D01*
X56102Y37795D01*
X43799D01*
X41339Y35335D01*
G54D23*
X883Y-29213D03*
X-1085D03*
X-3054D03*
X-5023D03*
Y5787D03*
X-3054D03*
X-1085D03*
X883D03*
X20574Y-29213D03*
X18605D03*
X16635D03*
X14667D03*
X12698D03*
X10729D03*
X8759D03*
X6791D03*
X4822D03*
X2853D03*
Y5787D03*
X4822D03*
X6791D03*
X8759D03*
X10729D03*
X12698D03*
X14667D03*
X16635D03*
X18605D03*
X20574D03*
X24511Y-29213D03*
X22543D03*
Y5787D03*
X24511D03*
G54D14*
X-36319Y20177D03*
Y32382D03*
X-28642Y20177D03*
X-31201D03*
X-33760D03*
Y32382D03*
X-31201D03*
X-28642D03*
X-7480Y20177D03*
X-10039D03*
X-12598D03*
X-15157D03*
Y32382D03*
X-12598D03*
X-10039D03*
X-7480D03*
X13976Y20374D03*
X11417D03*
X8858D03*
X6299D03*
Y32579D03*
X8858D03*
X11417D03*
X13976D03*
G54D24*
X-7756Y-26480D03*
Y-24511D03*
Y-22542D03*
Y-20573D03*
Y-18604D03*
Y-16635D03*
Y-14666D03*
Y-12697D03*
Y-10728D03*
Y-8759D03*
Y-6790D03*
Y-4821D03*
Y-2852D03*
Y-883D03*
Y1086D03*
Y3055D03*
X27244Y-24511D03*
Y-26480D03*
Y-6790D03*
Y-8759D03*
Y-10728D03*
Y-12697D03*
Y-14666D03*
Y-16635D03*
Y-18604D03*
Y-20573D03*
Y-22542D03*
Y3055D03*
Y1086D03*
Y-883D03*
Y-2852D03*
Y-4821D03*
G54D15*
X-32915Y41437D03*
X-11754D03*
X9605D03*
G54D25*
X5512Y-62795D03*
Y-52953D03*
G54D16*
X-36417Y37598D03*
Y40157D03*
Y42717D03*
Y45276D03*
X-24213D03*
Y42717D03*
Y40157D03*
Y37598D03*
X-15256D03*
Y40157D03*
Y42717D03*
Y45276D03*
X-3051D03*
Y42717D03*
Y40157D03*
Y37598D03*
X6102D03*
Y40157D03*
Y42717D03*
Y45276D03*
X18307D03*
Y42717D03*
Y40157D03*
Y37598D03*
G54D26*
X15846Y-44488D03*
X26870D03*
G54D17*
X-21555Y-71555D03*
X-25689D03*
X-14961D03*
X-10827D03*
G54D27*
X9744Y-11713D03*
G54D18*
X-26575Y-65610D03*
X-19094D03*
X-22835Y-56437D03*
G54D19*
X-30709Y-51083D03*
X-26772D03*
X-18898D03*
X-26772Y-47244D03*
X-30709D03*
X-18898D03*
X-15846Y-6299D03*
X-19783D03*
X-15846Y-16240D03*
X-19783D03*
X-15846Y-11220D03*
X-19783D03*
X-15846Y-21063D03*
X-19783D03*
X-15846Y3543D03*
X-19783D03*
X-15846Y-1378D03*
X-19783D03*
X-14961Y-51083D03*
Y-47244D03*
X4134Y-36319D03*
X8071D03*
X29823Y-34350D03*
X25886D03*
X37992Y-29921D03*
Y-33563D03*
X38681Y-5807D03*
X34646Y5610D03*
X38583D03*
X34613Y13583D03*
X38550D03*
X38616Y9547D03*
X34679D03*
X37402Y23524D03*
Y27264D03*
X35335Y45472D03*
X31398D03*
Y49114D03*
X35335D03*
X41929Y-29921D03*
Y-33563D03*
X41437Y-25591D03*
X45374D03*
X56594Y-9547D03*
X42618Y-5807D03*
X56594Y-6102D03*
X46293Y9547D03*
X42356D03*
X57710D03*
X50000Y5610D03*
X53937D03*
X57644Y13583D03*
X49967D03*
X53904D03*
X57677Y5610D03*
X50033Y9547D03*
X53970D03*
X46260Y5610D03*
X42323D03*
X42290Y13583D03*
X46227D03*
X41339Y23524D03*
X55610D03*
X41339Y27264D03*
X55610D03*
X60531Y-9547D03*
Y-6102D03*
X61647Y9547D03*
X61581Y13583D03*
X61614Y5610D03*
X59547Y23524D03*
Y27264D03*
G54D28*
X34646Y-43012D03*
Y-47933D03*
Y-52854D03*
Y-38091D03*
G54D29*
X38681Y-19980D03*
Y-11319D03*
X45374D03*
Y-19980D03*
M02*
